<?xml version="1.0" encoding="UTF-8" standalone="no"?>
<!-- Created with Inkscape (http://www.inkscape.org/) -->

<svg
   width="132.01215mm"
   height="52.162067mm"
   viewBox="0 0 132.01215 52.162067"
   version="1.1"
   id="svg5"
   inkscape:version="1.2 (1:1.2.1+202207142221+cd75a1ee6d)"
   sodipodi:docname="road_bank_angle.svg"
   xmlns:inkscape="http://www.inkscape.org/namespaces/inkscape"
   xmlns:sodipodi="http://sodipodi.sourceforge.net/DTD/sodipodi-0.dtd"
   xmlns="http://www.w3.org/2000/svg"
   xmlns:svg="http://www.w3.org/2000/svg"
   xmlns:ns1="http://www.iki.fi/pav/software/textext/">
  <sodipodi:namedview
     id="namedview7"
     pagecolor="#ffffff"
     bordercolor="#666666"
     borderopacity="1.0"
     inkscape:showpageshadow="2"
     inkscape:pageopacity="0.0"
     inkscape:pagecheckerboard="0"
     inkscape:deskcolor="#d1d1d1"
     inkscape:document-units="mm"
     showgrid="false"
     inkscape:zoom="1.5625561"
     inkscape:cx="301.74916"
     inkscape:cy="103.99627"
     inkscape:window-width="1920"
     inkscape:window-height="1025"
     inkscape:window-x="1920"
     inkscape:window-y="24"
     inkscape:window-maximized="1"
     inkscape:current-layer="layer1" />
  <defs
     id="defs2">
    <marker
       style="overflow:visible"
       id="Arrow5"
       refX="0"
       refY="0"
       orient="auto-start-reverse"
       inkscape:stockid="Arrow5"
       markerWidth="5.8874264"
       markerHeight="6.6094756"
       viewBox="0 0 5.8874262 6.6094758"
       inkscape:isstock="true"
       inkscape:collect="always"
       preserveAspectRatio="xMidYMid">
      <path
         transform="scale(0.5)"
         style="fill:context-stroke;fill-rule:evenodd;stroke:context-stroke;stroke-width:1pt"
         d="m 6,0 c -3,1 -7,3 -9,5 0,0 0,-4 2,-5 -2,-1 -2,-5 -2,-5 2,2 6,4 9,5 z"
         id="path8893" />
    </marker>
  </defs>
  <g
     inkscape:label="Layer 1"
     inkscape:groupmode="layer"
     id="layer1"
     transform="translate(-36.263602,-86.419863)">
    <g
       id="g5714"
       transform="translate(-0.69354035,0.30528201)">
      <path
         style="fill:none;stroke:#000000;stroke-width:0.264583px;stroke-linecap:round;stroke-linejoin:miter;stroke-dasharray:0.793749, 0.793749;stroke-dashoffset:0;stroke-opacity:1"
         d="M 93.327132,113.67843 H 166.49265"
         id="path1151" />
      <path
         style="fill:none;stroke:#000000;stroke-width:0.265;stroke-linecap:round;stroke-dasharray:none"
         id="path1211"
         sodipodi:type="arc"
         sodipodi:cx="136.96301"
         sodipodi:cy="113.67843"
         sodipodi:rx="18.383345"
         sodipodi:ry="18.686378"
         sodipodi:start="5.7595865"
         sodipodi:end="0"
         sodipodi:arc-type="arc"
         d="m 152.88346,104.33524 a 18.383345,18.686378 0 0 1 2.4629,9.34319"
         sodipodi:open="true" />
      <path
         style="fill:none;stroke:#000000;stroke-width:0.564999;stroke-linecap:round"
         id="ellipse417"
         sodipodi:type="arc"
         sodipodi:cx="93.327133"
         sodipodi:cy="117.45245"
         sodipodi:rx="53.743149"
         sodipodi:ry="18.57333"
         sodipodi:start="0"
         sodipodi:end="3.1415927"
         sodipodi:open="true"
         sodipodi:arc-type="arc"
         d="m 147.07028,117.45245 a 53.743149,18.57333 0 0 1 -26.87157,16.08498 53.743149,18.57333 0 0 1 -53.743153,0 53.743149,18.57333 0 0 1 -26.871573,-16.08498" />
      <ellipse
         style="fill:#b3b3b3;stroke:#000000;stroke-width:0.564999;stroke-linecap:round"
         id="ellipse415"
         cx="93.327133"
         cy="111.63165"
         rx="53.743149"
         ry="18.57333" />
      <ellipse
         style="fill:#ffffff;stroke:#000000;stroke-width:0.564999;stroke-linecap:round"
         id="path204"
         cx="93.327133"
         cy="113.67844"
         rx="43.635887"
         ry="16.526546" />
      <path
         style="fill:none;stroke:#000000;stroke-width:0.565;stroke-linecap:butt;stroke-linejoin:miter;stroke-dasharray:none;stroke-opacity:1"
         d="m 39.583984,111.63165 v 5.8208"
         id="path482" />
      <path
         style="fill:none;stroke:#000000;stroke-width:0.565;stroke-linecap:butt;stroke-linejoin:miter;stroke-dasharray:none;stroke-opacity:1"
         d="m 147.07028,111.63165 v 5.8208"
         id="path484" />
      <path
         style="fill:none;stroke:#000000;stroke-width:0.564999;stroke-linecap:round"
         id="ellipse486"
         sodipodi:type="arc"
         sodipodi:cx="93.327133"
         sodipodi:cy="111.63165"
         sodipodi:rx="53.743149"
         sodipodi:ry="18.57333"
         sodipodi:start="0"
         sodipodi:end="3.1415927"
         sodipodi:open="true"
         sodipodi:arc-type="arc"
         d="m 147.07028,111.63165 a 53.743149,18.57333 0 0 1 -26.87157,16.08498 53.743149,18.57333 0 0 1 -53.743153,0 53.743149,18.57333 0 0 1 -26.871573,-16.08498" />
      <ellipse
         style="fill:#000000;stroke:#000000;stroke-width:0.564999;stroke-linecap:round;stroke-dasharray:none"
         id="path1116"
         cx="93.327133"
         cy="113.67844"
         rx="1.7766602"
         ry="0.89503706" />
      <path
         style="fill:none;stroke:#000000;stroke-width:0.264583px;stroke-linecap:round;stroke-linejoin:miter;stroke-dasharray:0.793749, 0.793749;stroke-dashoffset:0;stroke-opacity:1"
         d="m 147.42634,107.59766 19.0589,-10.977961"
         id="path1157" />
      <g
         transform="matrix(0.705556,0,0,0.705556,157.56823,104.56615)"
         ns1:version="1.8.2"
         ns1:texconverter="pdflatex"
         ns1:pdfconverter="inkscape"
         ns1:text="$\\beta$"
         ns1:preamble="/home/physics/.config/inkscape/extensions/textext/default_packages.tex"
         ns1:scale="2.0"
         ns1:alignment="middle center"
         ns1:stroke-to-path="0"
         ns1:inkscapeversion="1.2"
         ns1:jacobian_sqrt="0.705556"
         id="g1980">
        <defs
           id="id-bd766c61-5bbb-4b59-9b38-631467295592">
          <g
             id="id-85a250fa-1ca7-451f-af7f-6558e290dc87">
            <symbol
               overflow="visible"
               id="id-65f96a67-fc48-4a7f-a21d-381685a4d25c">
              <path
                 style="stroke:none;stroke-width:0"
                 d=""
                 id="id-1367b346-2b33-44a9-800b-80845687be6a" />
            </symbol>
            <symbol
               overflow="visible"
               id="id-59290c9b-b914-4721-8a90-36a7294d7016">
              <path
                 style="stroke:none;stroke-width:0"
                 d="m 5.734375,-5.671875 c 0,-0.75 -0.546875,-1.359375 -1.359375,-1.359375 -0.578125,0 -0.859375,0.15625 -1.203125,0.40625 C 2.625,-6.21875 2.078125,-5.25 1.890625,-4.5 L 0.296875,1.828125 C 0.296875,1.875 0.34375,1.9375 0.421875,1.9375 0.5,1.9375 0.53125,1.90625 0.53125,1.890625 L 1.234375,-0.875 c 0.1875,0.609375 0.625,0.96875 1.359375,0.96875 C 3.3125,0.09375 4.0625,-0.25 4.515625,-0.6875 5,-1.140625 5.3125,-1.78125 5.3125,-2.515625 c 0,-0.71875 -0.375,-1.25 -0.734375,-1.484375 0.578125,-0.34375 1.15625,-0.953125 1.15625,-1.671875 z M 3.9375,-4.015625 c -0.125,0.046875 -0.234375,0.0625 -0.484375,0.0625 -0.140625,0 -0.328125,0.015625 -0.4375,-0.03125 0.03125,-0.109375 0.390625,-0.078125 0.5,-0.078125 0.203125,0 0.296875,0 0.421875,0.046875 z M 5.171875,-5.90625 c 0,0.703125 -0.375,1.421875 -0.890625,1.734375 C 4,-4.28125 3.8125,-4.296875 3.515625,-4.296875 c -0.21875,0 -0.78125,-0.015625 -0.78125,0.3125 0,0.28125 0.515625,0.25 0.6875,0.25 0.375,0 0.53125,0 0.828125,-0.125 0.375,0.359375 0.421875,0.671875 0.4375,1.125 0.015625,0.578125 -0.21875,1.328125 -0.5,1.71875 C 3.796875,-0.484375 3.125,-0.125 2.5625,-0.125 c -0.765625,0 -1.140625,-0.578125 -1.140625,-1.28125 0,-0.09375 0,-0.25 0.046875,-0.4375 L 2.109375,-4.359375 C 2.328125,-5.21875 3.046875,-6.8125 4.25,-6.8125 c 0.578125,0 0.921875,0.3125 0.921875,0.90625 z m 0,0"
                 id="id-54c0e054-df32-4577-8a4a-0ea35b97ab16" />
            </symbol>
          </g>
        </defs>
        <g
           id="id-0ddf8a00-4f57-4346-8aac-e684247d1745"
           transform="translate(-149.009,-127.734)">
          <g
             style="fill:#000000;fill-opacity:1"
             id="id-730cab60-ddf5-46e4-a7e1-5ad208b6eabe">
            <g
               transform="translate(148.712,134.765)"
               id="g1976">
              <path
                 style="stroke:none;stroke-width:0"
                 d="m 5.734375,-5.671875 c 0,-0.75 -0.546875,-1.359375 -1.359375,-1.359375 -0.578125,0 -0.859375,0.15625 -1.203125,0.40625 C 2.625,-6.21875 2.078125,-5.25 1.890625,-4.5 L 0.296875,1.828125 C 0.296875,1.875 0.34375,1.9375 0.421875,1.9375 0.5,1.9375 0.53125,1.90625 0.53125,1.890625 L 1.234375,-0.875 c 0.1875,0.609375 0.625,0.96875 1.359375,0.96875 C 3.3125,0.09375 4.0625,-0.25 4.515625,-0.6875 5,-1.140625 5.3125,-1.78125 5.3125,-2.515625 c 0,-0.71875 -0.375,-1.25 -0.734375,-1.484375 0.578125,-0.34375 1.15625,-0.953125 1.15625,-1.671875 z M 3.9375,-4.015625 c -0.125,0.046875 -0.234375,0.0625 -0.484375,0.0625 -0.140625,0 -0.328125,0.015625 -0.4375,-0.03125 0.03125,-0.109375 0.390625,-0.078125 0.5,-0.078125 0.203125,0 0.296875,0 0.421875,0.046875 z M 5.171875,-5.90625 c 0,0.703125 -0.375,1.421875 -0.890625,1.734375 C 4,-4.28125 3.8125,-4.296875 3.515625,-4.296875 c -0.21875,0 -0.78125,-0.015625 -0.78125,0.3125 0,0.28125 0.515625,0.25 0.6875,0.25 0.375,0 0.53125,0 0.828125,-0.125 0.375,0.359375 0.421875,0.671875 0.4375,1.125 0.015625,0.578125 -0.21875,1.328125 -0.5,1.71875 C 3.796875,-0.484375 3.125,-0.125 2.5625,-0.125 c -0.765625,0 -1.140625,-0.578125 -1.140625,-1.28125 0,-0.09375 0,-0.25 0.046875,-0.4375 L 2.109375,-4.359375 C 2.328125,-5.21875 3.046875,-6.8125 4.25,-6.8125 c 0.578125,0 0.921875,0.3125 0.921875,0.90625 z m 0,0"
                 id="id-6f242292-6ad9-4197-b99b-de3b8bc7fc33" />
            </g>
          </g>
        </g>
      </g>
      <path
         style="fill:none;stroke:#000000;stroke-width:0.264583px;stroke-linecap:round;stroke-linejoin:miter;stroke-dasharray:0.793749, 0.793749;stroke-dashoffset:0;stroke-opacity:1"
         d="M 93.327132,113.67843 H 136.96302"
         id="path2746"
         sodipodi:nodetypes="cc" />
      <path
         style="fill:none;stroke:#000000;stroke-width:0.264583px;stroke-linecap:butt;stroke-linejoin:miter;stroke-opacity:1"
         d="M 93.327132,113.67843 77.407928,96.467572"
         id="path2823"
         sodipodi:nodetypes="cc" />
      <g
         transform="matrix(0.705556,0,0,0.705556,75.25457,101.85735)"
         ns1:version="1.8.2"
         ns1:texconverter="pdflatex"
         ns1:pdfconverter="inkscape"
         ns1:text="$R$"
         ns1:preamble="/home/physics/.config/inkscape/extensions/textext/default_packages.tex"
         ns1:scale="2.0"
         ns1:alignment="middle center"
         ns1:stroke-to-path="0"
         ns1:inkscapeversion="1.2"
         ns1:jacobian_sqrt="0.705556"
         id="g2845">
        <defs
           id="id-1edf0629-8378-470c-970d-0ebb531d8c34">
          <g
             id="id-835a900c-ee1e-4587-9ade-373e7579773e">
            <symbol
               overflow="visible"
               id="id-9bc7e394-0a33-4397-b498-56c39ec9d04c">
              <path
                 style="stroke:none"
                 d=""
                 id="id-02cf712e-66cd-4143-b07e-ee9cb58f839f" />
            </symbol>
            <symbol
               overflow="visible"
               id="id-56c3577c-93e2-44f6-aa51-ec5426b910fb">
              <path
                 style="stroke:none"
                 d="m 3.734375,-6.125 c 0.0625,-0.234375 0.09375,-0.328125 0.28125,-0.359375 C 4.109375,-6.5 4.421875,-6.5 4.625,-6.5 c 0.703125,0 1.8125,0 1.8125,0.984375 0,0.34375 -0.15625,1.03125 -0.546875,1.421875 -0.265625,0.25 -0.78125,0.578125 -1.6875,0.578125 H 3.09375 Z m 1.4375,2.734375 c 1.015625,-0.21875 2.1875,-0.921875 2.1875,-1.921875 0,-0.859375 -0.890625,-1.5 -2.203125,-1.5 H 2.328125 c -0.203125,0 -0.296875,0 -0.296875,0.203125 C 2.03125,-6.5 2.125,-6.5 2.3125,-6.5 c 0.015625,0 0.203125,0 0.375,0.015625 0.1875,0.03125 0.265625,0.03125 0.265625,0.171875 0,0.03125 0,0.0625 -0.03125,0.1875 l -1.34375,5.34375 C 1.484375,-0.390625 1.46875,-0.3125 0.671875,-0.3125 0.5,-0.3125 0.40625,-0.3125 0.40625,-0.109375 0.40625,0 0.53125,0 0.546875,0 c 0.28125,0 0.984375,-0.03125 1.25,-0.03125 0.28125,0 1,0.03125 1.28125,0.03125 0.078125,0 0.1875,0 0.1875,-0.203125 0,-0.109375 -0.078125,-0.109375 -0.28125,-0.109375 -0.359375,0 -0.640625,0 -0.640625,-0.171875 0,-0.0625 0.015625,-0.109375 0.03125,-0.171875 l 0.65625,-2.640625 h 1.1875 c 0.90625,0 1.078125,0.5625 1.078125,0.90625 0,0.140625 -0.078125,0.453125 -0.140625,0.6875 C 5.09375,-1.421875 5,-1.0625 5,-0.859375 5,0.21875 6.203125,0.21875 6.328125,0.21875 c 0.84375,0 1.203125,-1 1.203125,-1.140625 0,-0.125 -0.109375,-0.125 -0.125,-0.125 -0.09375,0 -0.109375,0.0625 -0.125,0.140625 C 7.03125,-0.171875 6.59375,0 6.375,0 6.046875,0 5.96875,-0.21875 5.96875,-0.609375 c 0,-0.3125 0.0625,-0.8125 0.109375,-1.140625 0.015625,-0.140625 0.03125,-0.328125 0.03125,-0.46875 0,-0.765625 -0.671875,-1.078125 -0.9375,-1.171875 z m 0,0"
                 id="id-3ea6b2a6-a9d3-4553-acb7-fbea17a4804c" />
            </symbol>
          </g>
        </defs>
        <g
           id="id-0c098b6e-4f78-4c28-bd40-cfc431ef398f"
           transform="translate(-149.118,-127.953)">
          <g
             style="fill:#000000;fill-opacity:1"
             id="id-da355fd7-b8f8-413b-a2d7-b24ffc876da7">
            <g
               transform="translate(148.712,134.765)"
               id="g2917">
              <path
                 style="stroke:none"
                 d="m 3.734375,-6.125 c 0.0625,-0.234375 0.09375,-0.328125 0.28125,-0.359375 C 4.109375,-6.5 4.421875,-6.5 4.625,-6.5 c 0.703125,0 1.8125,0 1.8125,0.984375 0,0.34375 -0.15625,1.03125 -0.546875,1.421875 -0.265625,0.25 -0.78125,0.578125 -1.6875,0.578125 H 3.09375 Z m 1.4375,2.734375 c 1.015625,-0.21875 2.1875,-0.921875 2.1875,-1.921875 0,-0.859375 -0.890625,-1.5 -2.203125,-1.5 H 2.328125 c -0.203125,0 -0.296875,0 -0.296875,0.203125 C 2.03125,-6.5 2.125,-6.5 2.3125,-6.5 c 0.015625,0 0.203125,0 0.375,0.015625 0.1875,0.03125 0.265625,0.03125 0.265625,0.171875 0,0.03125 0,0.0625 -0.03125,0.1875 l -1.34375,5.34375 C 1.484375,-0.390625 1.46875,-0.3125 0.671875,-0.3125 0.5,-0.3125 0.40625,-0.3125 0.40625,-0.109375 0.40625,0 0.53125,0 0.546875,0 c 0.28125,0 0.984375,-0.03125 1.25,-0.03125 0.28125,0 1,0.03125 1.28125,0.03125 0.078125,0 0.1875,0 0.1875,-0.203125 0,-0.109375 -0.078125,-0.109375 -0.28125,-0.109375 -0.359375,0 -0.640625,0 -0.640625,-0.171875 0,-0.0625 0.015625,-0.109375 0.03125,-0.171875 l 0.65625,-2.640625 h 1.1875 c 0.90625,0 1.078125,0.5625 1.078125,0.90625 0,0.140625 -0.078125,0.453125 -0.140625,0.6875 C 5.09375,-1.421875 5,-1.0625 5,-0.859375 5,0.21875 6.203125,0.21875 6.328125,0.21875 c 0.84375,0 1.203125,-1 1.203125,-1.140625 0,-0.125 -0.109375,-0.125 -0.125,-0.125 -0.09375,0 -0.109375,0.0625 -0.125,0.140625 C 7.03125,-0.171875 6.59375,0 6.375,0 6.046875,0 5.96875,-0.21875 5.96875,-0.609375 c 0,-0.3125 0.0625,-0.8125 0.109375,-1.140625 0.015625,-0.140625 0.03125,-0.328125 0.03125,-0.46875 0,-0.765625 -0.671875,-1.078125 -0.9375,-1.171875 z m 0,0"
                 id="id-9f447d14-223b-4eee-bb82-d6822e63ba4d" />
            </g>
          </g>
        </g>
      </g>
      <path
         style="fill:none;stroke:#000000;stroke-width:0.264583px;stroke-linecap:butt;stroke-linejoin:miter;stroke-opacity:1"
         d="M 93.428562,113.8825 134.04112,103.00039"
         id="path2973"
         inkscape:transform-center-x="-20.384334"
         inkscape:transform-center-y="-5.3526087" />
      <path
         style="fill:none;stroke:#ff7f2a;stroke-width:0.565;stroke-linecap:butt;stroke-linejoin:miter;stroke-dasharray:none;stroke-opacity:1;marker-end:url(#Arrow5)"
         d="M 134.04112,103.00039 105.86702,90.986121"
         id="path4325"
         inkscape:transform-center-x="5.352609"
         inkscape:transform-center-y="-20.384333"
         sodipodi:nodetypes="cc" />
      <g
         id="g4269"
         transform="matrix(0.3166533,0,0,0.30679532,90.182369,74.60056)"
         style="stroke-width:3.20836">
        <g
           id="g4199"
           transform="translate(-53.365594,78.519282)"
           style="stroke-width:3.20836">
          <ellipse
             style="fill:#4d4d4d;stroke:#000000;stroke-width:0.850212;stroke-linecap:round;stroke-dasharray:none;stroke-dashoffset:0"
             id="ellipse3038"
             cx="203.30774"
             cy="15.183095"
             rx="1.2955279"
             ry="1.4510075" />
          <path
             style="fill:#5092dc;fill-opacity:1;stroke:#000000;stroke-width:0.848879px;stroke-linecap:butt;stroke-linejoin:round;stroke-opacity:1"
             d="m 179.27773,10.834085 0.0353,2.763882 16.68744,4.38582 10.16119,-2.722683 v -2.54399"
             id="path3766"
             sodipodi:nodetypes="ccccc" />
          <path
             style="fill:#5092dc;fill-opacity:1;stroke:#000000;stroke-width:0.848879px;stroke-linecap:butt;stroke-linejoin:round;stroke-opacity:1"
             d="m 206.16794,12.761365 -16.93389,-4.5374214 -9.75868,2.6148304 16.93389,4.53743 z"
             id="path3016" />
          <ellipse
             style="fill:#4d4d4d;stroke:#000000;stroke-width:0.850212;stroke-linecap:round;stroke-dasharray:none;stroke-dashoffset:0"
             id="path3034"
             cx="182.51692"
             cy="14.472655"
             rx="1.2955279"
             ry="1.4510075" />
          <ellipse
             style="fill:#4d4d4d;stroke:#000000;stroke-width:0.850212;stroke-linecap:round;stroke-dasharray:none;stroke-dashoffset:0"
             id="ellipse3036"
             cx="191.07787"
             cy="16.766602"
             rx="1.2955279"
             ry="1.4510075" />
          <path
             style="fill:none;stroke:#000000;stroke-width:0.848879px;stroke-linecap:butt;stroke-linejoin:miter;stroke-opacity:1"
             d="m 196.40926,15.376204 v 2.555702"
             id="path3768" />
          <path
             style="fill:#ffffff;stroke:#000000;stroke-width:0.848879px;stroke-linecap:butt;stroke-linejoin:miter;stroke-opacity:1"
             d="m 183.64341,11.948982 4.56418,-4.3333348 3.44184,0.8507426 -3.00196,4.8646012"
             id="path3799"
             sodipodi:nodetypes="cccc" />
          <path
             style="fill:none;stroke:#000000;stroke-width:0.848879px;stroke-linecap:butt;stroke-linejoin:miter;stroke-opacity:1"
             d="m 191.64943,8.4663898 3.08443,0.7623996"
             id="path3801" />
          <path
             style="fill:#5092dc;fill-opacity:1;stroke:#000000;stroke-width:0.850218;stroke-linecap:round;stroke-linejoin:round;stroke-dasharray:none;stroke-opacity:1"
             d="m 200.27317,7.8595999 -6.56107,-1.6217449 -5.50451,1.3777922 6.52627,1.6131422 z"
             id="path3805" />
          <path
             style="fill:#5092dc;fill-opacity:1;stroke:#000000;stroke-width:0.848879px;stroke-linecap:butt;stroke-linejoin:miter;stroke-opacity:1"
             d="m 194.73386,9.2287894 1.6754,6.1487586 9.75868,-2.616183 -5.89477,-4.9017651 z"
             id="path4152"
             sodipodi:nodetypes="ccccc" />
          <path
             style="fill:#ffffff;stroke:#000000;stroke-width:0.848879px;stroke-linecap:butt;stroke-linejoin:miter;stroke-opacity:1"
             d="m 195.9442,9.6128628 1.26585,4.3579712 6.63447,-1.639888 -3.81553,-3.7917273 z"
             id="path4154"
             sodipodi:nodetypes="ccccc" />
          <path
             style="fill:#ffffff;stroke:#000000;stroke-width:0.848879px;stroke-linecap:butt;stroke-linejoin:miter;stroke-opacity:1"
             d="m 191.64943,8.4663898 3.08443,0.7623996 1.6008,6.0737946 -7.70819,-2.002626 3.02296,-4.8335682"
             id="path4156"
             sodipodi:nodetypes="ccccc" />
        </g>
        <path
           style="fill:none;stroke:#000000;stroke-width:0.848879px;stroke-linecap:butt;stroke-linejoin:miter;stroke-opacity:1"
           d="m 130.27782,90.468264 4.98305,1.350975"
           id="path4253" />
      </g>
      <g
         transform="matrix(0.705556,0,0,0.705556,109.34819,88.082059)"
         ns1:version="1.8.2"
         ns1:texconverter="pdflatex"
         ns1:pdfconverter="inkscape"
         ns1:text="$v$"
         ns1:preamble="/home/physics/.config/inkscape/extensions/textext/default_packages.tex"
         ns1:scale="2.0"
         ns1:alignment="middle center"
         ns1:stroke-to-path="0"
         ns1:inkscapeversion="1.2"
         ns1:jacobian_sqrt="0.705556"
         id="g5322">
        <defs
           id="id-507761d4-6085-45e9-ad7e-0bff28296a9a">
          <g
             id="id-b21cd624-a5c3-4afd-b4fd-0a8aac581d7c">
            <symbol
               overflow="visible"
               id="id-99e79115-1410-4040-8877-87ce261b4dac">
              <path
                 style="stroke:none"
                 d=""
                 id="id-6c102d33-bd06-4d1e-b47b-d1092fc392fb" />
            </symbol>
            <symbol
               overflow="visible"
               id="id-363fb223-3b49-4f41-b4bf-87f373269a1d">
              <path
                 style="stroke:none"
                 d="m 4.671875,-3.703125 c 0,-0.546875 -0.265625,-0.703125 -0.4375,-0.703125 -0.25,0 -0.5,0.265625 -0.5,0.484375 0,0.125 0.046875,0.1875 0.15625,0.296875 0.21875,0.203125 0.34375,0.453125 0.34375,0.8125 0,0.421875 -0.609375,2.703125 -1.765625,2.703125 -0.515625,0 -0.75,-0.34375 -0.75,-0.875 0,-0.546875 0.28125,-1.28125 0.578125,-2.109375 0.078125,-0.171875 0.125,-0.3125 0.125,-0.5 0,-0.4375 -0.3125,-0.8125 -0.8125,-0.8125 -0.9375,0 -1.3125,1.453125 -1.3125,1.53125 0,0.109375 0.09375,0.109375 0.109375,0.109375 0.109375,0 0.109375,-0.03125 0.15625,-0.1875 0.296875,-1 0.71875,-1.234375 1.015625,-1.234375 0.078125,0 0.25,0 0.25,0.3125 0,0.25 -0.109375,0.53125 -0.171875,0.703125 -0.4375,1.15625 -0.5625,1.609375 -0.5625,2.046875 0,1.078125 0.875,1.234375 1.328125,1.234375 1.671875,0 2.25,-3.296875 2.25,-3.8125 z m 0,0"
                 id="id-0672a155-1e9b-4aec-a2c2-f69be578240e" />
            </symbol>
          </g>
        </defs>
        <g
           id="id-6733cd7d-1c5c-4b41-88b0-38d9057e75f4"
           transform="translate(-149.009,-130.359)">
          <g
             style="fill:#000000;fill-opacity:1"
             id="id-40dbbc9b-4b58-4822-9a1b-ed611046ec7e">
            <g
               transform="translate(148.712,134.765)"
               id="g5454">
              <path
                 style="stroke:none"
                 d="m 4.671875,-3.703125 c 0,-0.546875 -0.265625,-0.703125 -0.4375,-0.703125 -0.25,0 -0.5,0.265625 -0.5,0.484375 0,0.125 0.046875,0.1875 0.15625,0.296875 0.21875,0.203125 0.34375,0.453125 0.34375,0.8125 0,0.421875 -0.609375,2.703125 -1.765625,2.703125 -0.515625,0 -0.75,-0.34375 -0.75,-0.875 0,-0.546875 0.28125,-1.28125 0.578125,-2.109375 0.078125,-0.171875 0.125,-0.3125 0.125,-0.5 0,-0.4375 -0.3125,-0.8125 -0.8125,-0.8125 -0.9375,0 -1.3125,1.453125 -1.3125,1.53125 0,0.109375 0.09375,0.109375 0.109375,0.109375 0.109375,0 0.109375,-0.03125 0.15625,-0.1875 0.296875,-1 0.71875,-1.234375 1.015625,-1.234375 0.078125,0 0.25,0 0.25,0.3125 0,0.25 -0.109375,0.53125 -0.171875,0.703125 -0.4375,1.15625 -0.5625,1.609375 -0.5625,2.046875 0,1.078125 0.875,1.234375 1.328125,1.234375 1.671875,0 2.25,-3.296875 2.25,-3.8125 z m 0,0"
                 id="id-414e721a-85fc-454e-9028-03d2326e1284" />
            </g>
          </g>
        </g>
      </g>
    </g>
  </g>
</svg>
