<?xml version="1.0" encoding="UTF-8" standalone="no"?>
<svg
   xmlns:ns1="http://www.iki.fi/pav/software/textext/"
   xmlns:dc="http://purl.org/dc/elements/1.1/"
   xmlns:cc="http://creativecommons.org/ns#"
   xmlns:rdf="http://www.w3.org/1999/02/22-rdf-syntax-ns#"
   xmlns:svg="http://www.w3.org/2000/svg"
   xmlns="http://www.w3.org/2000/svg"
   xmlns:sodipodi="http://sodipodi.sourceforge.net/DTD/sodipodi-0.dtd"
   xmlns:inkscape="http://www.inkscape.org/namespaces/inkscape"
   sodipodi:docname="Electrona_in_crystallo_fluentia.svg"
   id="svg103"
   height="473"
   width="520"
   version="1.1"
   inkscape:version="0.92.3 (2405546, 2018-03-11)">
  <sodipodi:namedview
     inkscape:current-layer="svg103"
     inkscape:window-maximized="1"
     inkscape:window-y="20"
     inkscape:window-x="1920"
     inkscape:cy="192.19571"
     inkscape:cx="414.57453"
     inkscape:zoom="0.99788583"
     showgrid="false"
     id="namedview105"
     inkscape:window-height="1035"
     inkscape:window-width="1920"
     inkscape:pageshadow="2"
     inkscape:pageopacity="0"
     guidetolerance="10"
     gridtolerance="10"
     objecttolerance="10"
     borderopacity="1"
     bordercolor="#666666"
     pagecolor="#ffffff" />
  <metadata
     id="metadata109">
    <rdf:RDF>
      <cc:Work
         rdf:about="">
        <dc:format>image/svg+xml</dc:format>
        <dc:type
           rdf:resource="http://purl.org/dc/dcmitype/StillImage" />
      </cc:Work>
    </rdf:RDF>
  </metadata>
  <defs
     id="defs107">
    <marker
       inkscape:isstock="true"
       style="overflow:visible"
       id="marker2274"
       refX="0"
       refY="0"
       orient="auto"
       inkscape:stockid="Arrow1Lend">
      <path
         transform="matrix(-0.8,0,0,-0.8,-10,0)"
         style="fill:#000000;fill-opacity:1;fill-rule:evenodd;stroke:#000000;stroke-width:1.00000003pt;stroke-linecap:round;stroke-linejoin:round;stroke-opacity:1"
         d="M 0,0 5,-5 -12.5,0 5,5 Z"
         id="path2272"
         inkscape:connector-curvature="0" />
    </marker>
    <marker
       inkscape:stockid="Arrow1Lend"
       orient="auto"
       refY="0"
       refX="0"
       id="marker2172"
       style="overflow:visible"
       inkscape:isstock="true"
       inkscape:collect="always">
      <path
         id="path2170"
         d="M 0,0 5,-5 -12.5,0 5,5 Z"
         style="fill:#000000;fill-opacity:1;fill-rule:evenodd;stroke:#000000;stroke-width:1.00000003pt;stroke-linecap:round;stroke-linejoin:round;stroke-opacity:1"
         transform="matrix(-0.8,0,0,-0.8,-10,0)"
         inkscape:connector-curvature="0" />
    </marker>
    <marker
       inkscape:stockid="Arrow1Mend"
       orient="auto"
       refY="0"
       refX="0"
       id="Arrow1Mend"
       style="overflow:visible"
       inkscape:isstock="true">
      <path
         id="path1887"
         d="M 0,0 5,-5 -12.5,0 5,5 Z"
         style="fill:none;fill-rule:evenodd;stroke:#000000;stroke-width:1.00000003pt;stroke-linecap:round;stroke-linejoin:round;stroke-opacity:1"
         transform="matrix(-0.4,0,0,-0.4,-4,0)"
         inkscape:connector-curvature="0" />
    </marker>
    <marker
       inkscape:stockid="Arrow1Lend"
       orient="auto"
       refY="0"
       refX="0"
       id="Arrow1Lend"
       style="overflow:visible"
       inkscape:isstock="true">
      <path
         id="path1881"
         d="M 0,0 5,-5 -12.5,0 5,5 Z"
         style="fill:none;fill-rule:evenodd;stroke:#000000;stroke-width:1.00000003pt;stroke-linecap:round;stroke-linejoin:round;stroke-opacity:1"
         transform="matrix(-0.8,0,0,-0.8,-10,0)"
         inkscape:connector-curvature="0" />
    </marker>
  </defs>
  <style
     type="text/css"
     id="style2">path{stroke-linecap:round;stroke-linejoin:round;fill:none}text{font-family:&quot;Times New Roman&quot;,serif;font-weight:bold}</style>
  <rect
     x="0"
     y="0"
     width="520"
     height="473"
     id="rect4"
     style="fill:#ffffff" />
  <rect
     x="0"
     y="432"
     width="520"
     height="41"
     id="rect6"
     style="fill:#c0c0c0" />
  <clipPath
     id="a">
    <rect
       x="0"
       y="0"
       width="520"
       height="429"
       id="rect8" />
  </clipPath>
  <g
     clip-path="url(#a)"
     id="g61"
     style="fill:#dc5050;fill-opacity:1;stroke:#000000;stroke-width:1"
     transform="translate(2.9677783e-5,1.8430176e-6)">
    <circle
       r="24.25"
       cx="59.5"
       cy="50"
       id="circle11"
       style="fill:#dc5050;fill-opacity:1" />
    <circle
       r="24.25"
       cx="170.5"
       cy="14"
       id="circle13"
       style="fill:#dc5050;fill-opacity:1" />
    <circle
       r="24.25"
       cx="291.5"
       cy="42"
       id="circle15"
       style="fill:#dc5050;fill-opacity:1" />
    <circle
       r="24.25"
       cx="403.5"
       cy="11"
       id="circle17"
       style="fill:#dc5050;fill-opacity:1" />
    <circle
       r="24.25"
       cx="498.5"
       cy="46"
       id="circle19"
       style="fill:#dc5050;fill-opacity:1" />
    <circle
       r="24.25"
       cx="61.5"
       cy="144"
       id="circle21"
       style="fill:#dc5050;fill-opacity:1" />
    <circle
       r="24.25"
       cx="172.5"
       cy="94"
       id="circle23"
       style="fill:#dc5050;fill-opacity:1" />
    <circle
       r="24.25"
       cx="293.5"
       cy="136"
       id="circle25"
       style="fill:#dc5050;fill-opacity:1" />
    <circle
       r="24.25"
       cx="404.5"
       cy="86"
       id="circle27"
       style="fill:#dc5050;fill-opacity:1" />
    <circle
       r="24.25"
       cx="500.5"
       cy="140"
       id="circle29"
       style="fill:#dc5050;fill-opacity:1" />
    <circle
       r="24.25"
       cx="60.5"
       cy="245"
       id="circle31"
       style="fill:#dc5050;fill-opacity:1" />
    <circle
       r="24.25"
       cx="174.5"
       cy="188"
       id="circle33"
       style="fill:#dc5050;fill-opacity:1" />
    <circle
       r="24.25"
       cx="292.5"
       cy="237"
       id="circle35"
       style="fill:#dc5050;fill-opacity:1" />
    <circle
       r="24.25"
       cx="406.5"
       cy="180"
       id="circle37"
       style="fill:#dc5050;fill-opacity:1" />
    <circle
       r="24.25"
       cx="499.5"
       cy="241"
       id="circle39"
       style="fill:#dc5050;fill-opacity:1" />
    <circle
       r="24.25"
       cx="60.5"
       cy="343"
       id="circle41"
       style="fill:#dc5050;fill-opacity:1" />
    <circle
       r="24.25"
       cx="173.5"
       cy="289"
       id="circle43"
       style="fill:#dc5050;fill-opacity:1" />
    <circle
       r="24.25"
       cx="292.5"
       cy="335"
       id="circle45"
       style="fill:#dc5050;fill-opacity:1" />
    <circle
       r="24.25"
       cx="405.5"
       cy="281"
       id="circle47"
       style="fill:#dc5050;fill-opacity:1" />
    <circle
       r="24.25"
       cx="499.5"
       cy="339"
       id="circle49"
       style="fill:#dc5050;fill-opacity:1" />
    <circle
       r="24.25"
       cx="61.5"
       cy="430"
       id="circle51"
       style="fill:#dc5050;fill-opacity:1" />
    <circle
       r="24.25"
       cx="173.5"
       cy="387"
       id="circle53"
       style="fill:#dc5050;fill-opacity:1" />
    <circle
       r="24.25"
       cx="292.5"
       cy="430"
       id="circle55"
       style="fill:#dc5050;fill-opacity:1" />
    <circle
       r="24.25"
       cx="405.5"
       cy="379"
       id="circle57"
       style="fill:#dc5050;fill-opacity:1" />
    <circle
       r="24.25"
       cx="500.5"
       cy="430"
       id="circle59"
       style="fill:#dc5050;fill-opacity:1" />
  </g>
  <path
     d="M 1.5000295,41.500003 170.50003,161.5 h 1 l 69,-72.999997 M 4.7549175,104.75 22.000029,92.750003 M 6.1721275,138.57627 171.50003,42.500003 l 96,90.999997 -69,47 182.99999,7 -30.99999,57 M 9.7151515,184.75 l 72.2848775,4 m -69.450458,93 138.450459,-2.25 m 1,-3.5 -68.000001,-35.5 88.500001,-26 19,55 189.99999,12 -81.99999,32 7,-53 93.99999,93 81,-32 -52,-34 80,-3 m -337.99999,-21 h 1 M 7.2350345,292.33442 32.000029,289.5 M 11.132361,305.08279 153.50003,306.5 m -1,2 14,51 -80.000001,-19 6.999999,-1.75 143.000002,-26"
     id="path89"
     style="fill:none;stroke:#5092ff;stroke-width:1;stroke-linecap:round;stroke-linejoin:round;stroke-opacity:1"
     inkscape:connector-curvature="0"
     sodipodi:nodetypes="cccccccccccccccccccccccccccccccccccccc" />
  <g
     id="g87"
     style="fill:#504fdc;fill-opacity:1"
     transform="translate(2.9677783e-5,1.8430176e-6)">
    <circle
       r="5"
       cx="25"
       cy="90"
       id="circle63"
       style="fill:#504fdc;fill-opacity:1" />
    <circle
       r="5"
       cx="88"
       cy="190"
       id="circle65"
       style="fill:#504fdc;fill-opacity:1" />
    <circle
       r="5"
       cx="33"
       cy="289"
       id="circle67"
       style="fill:#504fdc;fill-opacity:1" />
    <circle
       r="5"
       cx="157"
       cy="420"
       id="circle69"
       style="fill:#504fdc;fill-opacity:1" />
    <circle
       r="5"
       cx="241"
       cy="84"
       id="circle71"
       style="fill:#504fdc;fill-opacity:1" />
    <circle
       r="5"
       cx="242"
       cy="196"
       id="circle73"
       style="fill:#504fdc;fill-opacity:1" />
    <circle
       r="5"
       cx="235"
       cy="312"
       id="circle75"
       style="fill:#504fdc;fill-opacity:1" />
    <circle
       r="5"
       cx="355"
       cy="10"
       id="circle77"
       style="fill:#504fdc;fill-opacity:1" />
    <circle
       r="5"
       cx="349"
       cy="248"
       id="circle79"
       style="fill:#504fdc;fill-opacity:1" />
    <circle
       r="5"
       cx="325"
       cy="390"
       id="circle81"
       style="fill:#504fdc;fill-opacity:1" />
    <circle
       r="5"
       cx="457"
       cy="123"
       id="circle83"
       style="fill:#504fdc;fill-opacity:1" />
    <circle
       r="5"
       cx="512"
       cy="285"
       id="circle85"
       style="fill:#504fdc;fill-opacity:1" />
  </g>
  <g
     transform="matrix(3.333335,0,0,3.333335,-40.455871,16.153312)"
     ns1:version="0.11.0"
     ns1:texconverter="pdflatex"
     ns1:pdfconverter="pdf2svg"
     ns1:text="$\\vec{E},\\,I$"
     ns1:preamble="/home/mpnerem/.config/inkscape/extensions/textext/default_packages.tex"
     ns1:scale="2.5"
     ns1:alignment="middle center"
     ns1:jacobian_sqrt="3.333335"
     style="fill:#000000"
     id="g1665">
    <g
       id="g1663"
       style="fill:#000000">
      <g
         style="fill:#000000;fill-opacity:1"
         id="g1649">
        <path
           style="fill:#000000;stroke:none;stroke-width:0;stroke-linecap:round;stroke-linejoin:round"
           d="m 5.359375,-5.9375 c -0.140625,0.140625 -0.46875,0.421875 -0.46875,0.59375 0,0.09375 0.09375,0.203125 0.1875,0.203125 0.09375,0 0.140625,-0.078125 0.203125,-0.140625 C 5.390625,-5.421875 5.625,-5.703125 6.0625,-5.921875 6.125,-5.96875 6.234375,-6.015625 6.234375,-6.125 6.234375,-6.234375 6.15625,-6.28125 6.09375,-6.328125 5.875,-6.484375 5.765625,-6.65625 5.6875,-6.890625 5.65625,-6.984375 5.625,-7.125 5.484375,-7.125 c -0.140625,0 -0.203125,0.140625 -0.203125,0.21875 0,0.046875 0.078125,0.359375 0.234375,0.578125 H 2.15625 c -0.15625,0 -0.34375,0 -0.34375,0.203125 0,0.1875 0.1875,0.1875 0.34375,0.1875 z m 0,0"
           transform="translate(135.306,132.246)"
           id="path1647"
           inkscape:connector-curvature="0" />
      </g>
      <g
         style="fill:#000000;fill-opacity:1"
         id="g1653">
        <path
           style="fill:#000000;stroke:none;stroke-width:0;stroke-linecap:round;stroke-linejoin:round"
           d="M 7.0625,-2.328125 C 7.078125,-2.375 7.109375,-2.4375 7.109375,-2.46875 c 0,0 0,-0.109375 -0.125,-0.109375 -0.09375,0 -0.109375,0.0625 -0.125,0.125 C 6.203125,-0.984375 5.84375,-0.3125 4.140625,-0.3125 H 2.6875 c -0.140625,0 -0.171875,0 -0.21875,0 -0.109375,-0.015625 -0.140625,-0.03125 -0.140625,-0.109375 0,-0.03125 0,-0.046875 0.046875,-0.21875 L 3.0625,-3.375 h 0.984375 c 0.84375,0 0.84375,0.21875 0.84375,0.46875 0,0.0625 0,0.1875 -0.0625,0.484375 C 4.8125,-2.375 4.796875,-2.34375 4.796875,-2.3125 c 0,0.046875 0.03125,0.109375 0.125,0.109375 C 5,-2.203125 5.03125,-2.25 5.078125,-2.40625 l 0.5625,-2.328125 c 0,-0.0625 -0.046875,-0.109375 -0.125,-0.109375 -0.078125,0 -0.109375,0.0625 -0.125,0.171875 -0.21875,0.765625 -0.390625,1 -1.3125,1 h -0.9375 l 0.59375,-2.40625 C 3.828125,-6.4375 3.84375,-6.46875 4.28125,-6.46875 H 5.6875 c 1.203125,0 1.515625,0.28125 1.515625,1.109375 0,0.234375 0,0.25 -0.046875,0.53125 0,0.046875 -0.015625,0.125 -0.015625,0.171875 0,0.046875 0.03125,0.125 0.125,0.125 0.109375,0 0.125,-0.0625 0.140625,-0.25 L 7.609375,-6.515625 C 7.640625,-6.78125 7.59375,-6.78125 7.34375,-6.78125 H 2.296875 c -0.1875,0 -0.296875,0 -0.296875,0.203125 0,0.109375 0.09375,0.109375 0.28125,0.109375 0.375,0 0.65625,0 0.65625,0.171875 0,0.046875 0,0.0625 -0.0625,0.25 L 1.5625,-0.78125 c -0.09375,0.390625 -0.109375,0.46875 -0.90625,0.46875 -0.171875,0 -0.28125,0 -0.28125,0.1875 C 0.375,0 0.46875,0 0.65625,0 h 5.171875 c 0.234375,0 0.25,-0.015625 0.3125,-0.171875 z m 0,0"
           transform="translate(133.768,134.765)"
           id="path1651"
           inkscape:connector-curvature="0" />
      </g>
      <g
         style="fill:#000000;fill-opacity:1"
         id="g1657">
        <path
           style="fill:#000000;stroke:none;stroke-width:0;stroke-linecap:round;stroke-linejoin:round"
           d="m 2.03125,-0.015625 c 0,-0.65625 -0.25,-1.046875 -0.640625,-1.046875 -0.328125,0 -0.53125,0.25 -0.53125,0.53125 C 0.859375,-0.265625 1.0625,0 1.390625,0 1.5,0 1.640625,-0.046875 1.734375,-0.125 1.765625,-0.15625 1.78125,-0.15625 1.78125,-0.15625 c 0.015625,0 0.015625,0 0.015625,0.140625 0,0.75 -0.34375,1.34375 -0.671875,1.671875 -0.109375,0.109375 -0.109375,0.125 -0.109375,0.15625 0,0.078125 0.046875,0.109375 0.09375,0.109375 0.109375,0 0.921875,-0.765625 0.921875,-1.9375 z m 0,0"
           transform="translate(141.70022,134.765)"
           id="path1655"
           inkscape:connector-curvature="0" />
      </g>
      <g
         style="fill:#000000;fill-opacity:1"
         id="g1661">
        <path
           style="fill:#000000;stroke:none;stroke-width:0;stroke-linecap:round;stroke-linejoin:round"
           d="M 3.734375,-6.046875 C 3.8125,-6.40625 3.84375,-6.5 4.640625,-6.5 c 0.234375,0 0.3125,0 0.3125,-0.1875 0,-0.125 -0.109375,-0.125 -0.140625,-0.125 -0.296875,0 -1.03125,0.03125 -1.328125,0.03125 -0.296875,0 -1.015625,-0.03125 -1.328125,-0.03125 -0.0625,0 -0.1875,0 -0.1875,0.203125 C 1.96875,-6.5 2.046875,-6.5 2.25,-6.5 c 0.40625,0 0.6875,0 0.6875,0.1875 0,0.046875 0,0.078125 -0.03125,0.15625 l -1.34375,5.375 c -0.09375,0.375 -0.109375,0.46875 -0.90625,0.46875 -0.234375,0 -0.3125,0 -0.3125,0.203125 C 0.34375,0 0.453125,0 0.484375,0 0.78125,0 1.5,-0.03125 1.796875,-0.03125 2.09375,-0.03125 2.828125,0 3.125,0 c 0.078125,0 0.203125,0 0.203125,-0.1875 0,-0.125 -0.078125,-0.125 -0.296875,-0.125 -0.1875,0 -0.234375,0 -0.421875,-0.015625 -0.21875,-0.015625 -0.25,-0.0625 -0.25,-0.171875 0,-0.078125 0.015625,-0.15625 0.03125,-0.234375 z m 0,0"
           transform="translate(147.78538,134.765)"
           id="path1659"
           inkscape:connector-curvature="0" />
      </g>
    </g>
  </g>
  <g
     id="g1806"
     style="fill:#000000"
     ns1:jacobian_sqrt="3.333332"
     ns1:alignment="middle center"
     ns1:scale="2.5"
     ns1:preamble="/home/mpnerem/.config/inkscape/extensions/textext/default_packages.tex"
     ns1:text="$\\vec{v}_d$"
     ns1:pdfconverter="pdf2svg"
     ns1:texconverter="pdflatex"
     ns1:version="0.11.0"
     transform="matrix(3.333332,0,0,3.333332,-263.43648,12.564331)">
    <g
       style="fill:#000000"
       id="surface1">
      <g
         id="g1795"
         style="fill:#000000;fill-opacity:1">
        <path
           id="path1793"
           transform="translate(133.382,134.765)"
           d="m 5.359375,-5.9375 c -0.140625,0.140625 -0.46875,0.421875 -0.46875,0.59375 0,0.09375 0.09375,0.203125 0.1875,0.203125 0.09375,0 0.140625,-0.078125 0.203125,-0.140625 C 5.390625,-5.421875 5.625,-5.703125 6.0625,-5.921875 6.125,-5.96875 6.234375,-6.015625 6.234375,-6.125 6.234375,-6.234375 6.15625,-6.28125 6.09375,-6.328125 5.875,-6.484375 5.765625,-6.65625 5.6875,-6.890625 5.65625,-6.984375 5.625,-7.125 5.484375,-7.125 c -0.140625,0 -0.203125,0.140625 -0.203125,0.21875 0,0.046875 0.078125,0.359375 0.234375,0.578125 H 2.15625 c -0.15625,0 -0.34375,0 -0.34375,0.203125 0,0.1875 0.1875,0.1875 0.34375,0.1875 z m 0,0"
           style="fill:#000000;stroke:none;stroke-width:0;stroke-linecap:round;stroke-linejoin:round"
           inkscape:connector-curvature="0" />
      </g>
      <g
         id="g1799"
         style="fill:#000000;fill-opacity:1">
        <path
           id="path1797"
           transform="translate(133.77054,134.765)"
           d="m 4.671875,-3.703125 c 0,-0.546875 -0.265625,-0.703125 -0.4375,-0.703125 -0.25,0 -0.5,0.265625 -0.5,0.484375 0,0.125 0.046875,0.1875 0.15625,0.296875 0.21875,0.203125 0.34375,0.453125 0.34375,0.8125 0,0.421875 -0.609375,2.703125 -1.765625,2.703125 -0.515625,0 -0.75,-0.34375 -0.75,-0.875 0,-0.546875 0.28125,-1.28125 0.578125,-2.109375 0.078125,-0.171875 0.125,-0.3125 0.125,-0.5 0,-0.4375 -0.3125,-0.8125 -0.8125,-0.8125 -0.9375,0 -1.3125,1.453125 -1.3125,1.53125 0,0.109375 0.09375,0.109375 0.109375,0.109375 0.109375,0 0.109375,-0.03125 0.15625,-0.1875 0.296875,-1 0.71875,-1.234375 1.015625,-1.234375 0.078125,0 0.25,0 0.25,0.3125 0,0.25 -0.109375,0.53125 -0.171875,0.703125 -0.4375,1.15625 -0.5625,1.609375 -0.5625,2.046875 0,1.078125 0.875,1.234375 1.328125,1.234375 1.671875,0 2.25,-3.296875 2.25,-3.8125 z m 0,0"
           style="fill:#000000;stroke:none;stroke-width:0;stroke-linecap:round;stroke-linejoin:round"
           inkscape:connector-curvature="0" />
      </g>
      <g
         id="g1803"
         style="fill:#000000;fill-opacity:1">
        <path
           id="path1801"
           transform="translate(138.597,136.259)"
           d="M 3.984375,-4.625 C 3.984375,-4.640625 4,-4.734375 4,-4.734375 4,-4.78125 3.984375,-4.84375 3.890625,-4.84375 3.75,-4.84375 3.171875,-4.78125 3,-4.765625 c -0.046875,0 -0.15625,0.015625 -0.15625,0.15625 0,0.09375 0.109375,0.09375 0.1875,0.09375 0.328125,0 0.328125,0.0625 0.328125,0.109375 0,0.046875 0,0.09375 -0.015625,0.15625 L 2.9375,-2.65625 c -0.140625,-0.234375 -0.375,-0.421875 -0.71875,-0.421875 -0.890625,0 -1.796875,0.984375 -1.796875,1.984375 0,0.6875 0.453125,1.15625 1.0625,1.15625 0.375,0 0.703125,-0.203125 0.984375,-0.484375 C 2.59375,0 3,0.0625 3.1875,0.0625 c 0.25,0 0.421875,-0.140625 0.546875,-0.359375 0.15625,-0.28125 0.25,-0.671875 0.25,-0.703125 0,-0.09375 -0.09375,-0.09375 -0.109375,-0.09375 -0.109375,0 -0.109375,0.03125 -0.15625,0.21875 C 3.625,-0.53125 3.5,-0.125 3.203125,-0.125 3.03125,-0.125 2.96875,-0.28125 2.96875,-0.46875 c 0,-0.125 0.015625,-0.1875 0.046875,-0.28125 z M 2.5,-0.875 C 2.453125,-0.671875 2.296875,-0.53125 2.140625,-0.40625 2.078125,-0.34375 1.796875,-0.125 1.5,-0.125 c -0.265625,0 -0.515625,-0.1875 -0.515625,-0.671875 0,-0.375 0.203125,-1.140625 0.375,-1.421875 0.3125,-0.5625 0.671875,-0.65625 0.859375,-0.65625 0.484375,0 0.625,0.53125 0.625,0.609375 0,0.015625 -0.015625,0.078125 -0.015625,0.09375 z m 0,0"
           style="fill:#000000;stroke:none;stroke-width:0;stroke-linecap:round;stroke-linejoin:round"
           inkscape:connector-curvature="0" />
      </g>
    </g>
  </g>
  <path
     style="fill:#000000;stroke:#000000;stroke-width:2;stroke-linecap:butt;stroke-linejoin:miter;stroke-miterlimit:4;stroke-dasharray:none;stroke-opacity:1;marker-end:url(#marker2172)"
     d="M 57.500029,450.5 H 167.50003"
     id="path2168"
     inkscape:connector-curvature="0" />
  <path
     inkscape:connector-curvature="0"
     id="path2270"
     d="M 396.50002,451.5 H 286.50003"
     style="fill:#000000;stroke:#000000;stroke-width:2;stroke-linecap:butt;stroke-linejoin:miter;stroke-miterlimit:4;stroke-dasharray:none;stroke-opacity:1;marker-end:url(#marker2274)" />
</svg>
