<?xml version="1.0" encoding="UTF-8" standalone="no"?>
<!-- Created with Inkscape (http://www.inkscape.org/) -->

<svg
   width="207.7486mm"
   height="66.290138mm"
   viewBox="0 0 207.7486 66.290138"
   version="1.1"
   id="svg8"
   inkscape:version="1.2 (1:1.2.1+202207142221+cd75a1ee6d)"
   sodipodi:docname="LOGO.svg"
   inkscape:export-filename="/home/mpnerem/tcc/TCC PHY 201 Banner.png"
   inkscape:export-xdpi="90"
   inkscape:export-ydpi="90"
   xmlns:inkscape="http://www.inkscape.org/namespaces/inkscape"
   xmlns:sodipodi="http://sodipodi.sourceforge.net/DTD/sodipodi-0.dtd"
   xmlns="http://www.w3.org/2000/svg"
   xmlns:svg="http://www.w3.org/2000/svg"
   xmlns:rdf="http://www.w3.org/1999/02/22-rdf-syntax-ns#"
   xmlns:cc="http://creativecommons.org/ns#"
   xmlns:dc="http://purl.org/dc/elements/1.1/"
   xmlns:ns1="http://www.iki.fi/pav/software/textext/">
  <sodipodi:namedview
     id="base"
     pagecolor="#ffffff"
     bordercolor="#666666"
     borderopacity="1.0"
     inkscape:pageopacity="0.0"
     inkscape:pageshadow="2"
     inkscape:zoom="1.0167041"
     inkscape:cx="466.70413"
     inkscape:cy="181.46873"
     inkscape:document-units="mm"
     inkscape:current-layer="layer1"
     showgrid="false"
     inkscape:window-width="1920"
     inkscape:window-height="1035"
     inkscape:window-x="0"
     inkscape:window-y="20"
     inkscape:window-maximized="1"
     fit-margin-top="0"
     fit-margin-left="0"
     fit-margin-right="0"
     fit-margin-bottom="0"
     inkscape:showpageshadow="2"
     inkscape:pagecheckerboard="0"
     inkscape:deskcolor="#d1d1d1" />
  <defs
     id="defs2">
    <clipPath
       style="stroke-linecap:butt;stroke-linejoin:round"
       id="p8028f5304e">
      <rect
         style="stroke-linecap:butt;stroke-linejoin:round"
         id="rect16"
         y="34.560001"
         x="54"
         width="334.79999"
         height="217.44" />
    </clipPath>
    <clipPath
       id="pf3b3cc934d">
      <rect
         id="rect323"
         y="41.472"
         x="57.599998"
         width="357.12"
         height="266.112" />
    </clipPath>
    <clipPath
       id="p479ee93d3c">
      <rect
         id="rect19"
         y="34.560001"
         x="54"
         width="334.79999"
         height="217.44" />
    </clipPath>
    <clipPath
       id="clipPath852">
      <rect
         id="rect850"
         y="34.560001"
         x="54"
         width="334.79999"
         height="217.44" />
    </clipPath>
  </defs>
  <metadata
     id="metadata5">
    <rdf:RDF>
      <cc:Work
         rdf:about="">
        <dc:format>image/svg+xml</dc:format>
        <dc:type
           rdf:resource="http://purl.org/dc/dcmitype/StillImage" />
      </cc:Work>
    </rdf:RDF>
  </metadata>
  <g
     style="display:inline"
     transform="translate(106.3373,-133.77076)"
     id="layer1"
     inkscape:groupmode="layer"
     inkscape:label="Background">
    <rect
       style="opacity:1;fill:#ffffff;fill-opacity:1;fill-rule:nonzero;stroke:none;stroke-width:0.265;stroke-linecap:round;stroke-linejoin:round;stroke-miterlimit:4;stroke-dasharray:none;stroke-dashoffset:0;stroke-opacity:1"
       id="rect866"
       width="167.52612"
       height="66.145844"
       x="-106.3373"
       y="133.90326"
       rx="0.49735582"
       ry="0.18898818" />
    <path
       inkscape:connector-curvature="0"
       id="path828"
       d="M 54.613146,133.89145 H 101.41129 L 76.394004,200.0609 H 29.544138 Z"
       style="fill:#003a5d;fill-opacity:0.75;stroke:none;stroke-width:0.264583px;stroke-linecap:butt;stroke-linejoin:miter;stroke-opacity:1" />
    <g
       style="stroke-linecap:butt;stroke-linejoin:round"
       id="line2d_19"
       transform="matrix(0.38546507,0,0,-0.23013831,-123.3867,205.74384)">
      <path
         inkscape:connector-curvature="0"
         id="path306"
         style="fill:none;stroke:#ff7f0e;stroke-width:3;stroke-linecap:square;stroke-linejoin:round"
         d="m 73.832727,53.568 0.974939,0.08612 0.974938,0.25823 1.299919,0.611368 1.299918,0.915117 1.299918,1.216549 1.299918,1.514903 1.624897,2.307276 1.624898,2.758283 1.624898,3.198384 1.949877,4.401064 1.949877,4.991447 2.274857,6.531442 2.274856,7.245601 2.599837,9.08291 2.924815,11.130646 3.249791,13.33251 3.89976,17.05122 5.19967,23.87958 10.39935,48.04343 3.89975,16.861 3.2498,13.12027 2.92481,10.90081 2.59984,8.85016 2.27485,7.02192 2.27486,6.29086 1.94988,4.77321 1.94987,4.17303 1.6249,3.0018 1.6249,2.55657 1.6249,2.10124 1.29992,1.3475 1.29991,1.04733 1.29992,0.74449 1.29992,0.43978 0.97494,0.12916 0.97494,-0.0431 0.97494,-0.21522 1.29991,-0.55422 1.29992,-0.85832 1.29992,-1.16024 1.29992,-1.45923 1.29992,-1.75453 1.62489,-2.60158 1.6249,-3.0457 1.6249,-3.47777 1.94988,-4.72419 1.94987,-5.29958 2.27486,-6.86965 2.27486,-7.55841 2.59983,-9.4062 2.92482,-11.44686 3.24979,-13.62018 3.89976,-17.30185 5.84963,-27.08577 8.12449,-37.52839 3.89975,-17.01013 3.2498,-13.28626 2.92481,-11.080334 2.59984,-9.031812 2.27486,-7.196388 2.27485,-6.478426 1.94988,-4.943289 1.94988,-4.350687 1.62489,-3.154914 1.6249,-2.713644 1.6249,-2.261644 1.29992,-1.477803 1.29992,-1.179023 1.29991,-0.877259 1.29992,-0.573275 1.29992,-0.267839 h 0.97494 l 0.97494,0.172205 1.29992,0.497022 1.29991,0.801441 1.29992,1.103832 1.29992,1.40343 1.29992,1.699474 1.6249,2.534032 1.62489,2.979807 1.6249,3.413797 1.94988,4.650299 1.94988,5.229241 2.27485,6.792604 2.27486,7.487325 2.59983,9.332968 2.92482,11.37557 3.2498,13.55579 3.89975,17.24657 5.84963,27.05021 8.44947,39.03308 3.89975,16.98932 3.2498,13.26295 2.92482,11.05501 2.59983,9.00613 2.27486,7.17167 2.27485,6.45183 1.94988,4.91913 1.94988,4.32544 1.6249,3.13313 1.62489,2.69128 1.6249,2.2388 1.29992,1.45923 1.29992,1.16024 1.29992,0.85832 1.29991,0.55422 1.29992,0.24872 0.97494,-0.0144 0.97494,-0.18655 1.29992,-0.51609 1.29991,-0.82041 1.29992,-1.12264 1.29992,-1.42205 1.29992,-1.71784 1.6249,-2.55657 1.62489,-3.0018 1.6249,-3.43516 1.94988,-4.67497 1.94988,-5.25274 2.27485,-6.81836 2.27486,-7.51109 2.59984,-9.35748 2.92481,-11.39944 3.2498,-13.57739 3.89975,-17.26516 5.84963,-27.06234 8.12449,-37.56014 4.22473,-18.4246 3.2498,-13.23949 2.92482,-11.029579 2.59983,-8.980357 2.27486,-7.14689 2.27486,-6.425154 1.94987,-4.894935 1.94988,-4.300138 1.6249,-3.11132 1.62489,-2.668897 1.6249,-2.215922 1.29992,-1.440645 1.29992,-1.14145 1.29992,-0.839367 1.29991,-0.535159 1.29992,-0.229595 0.32498,-0.0096 v 0"
         clip-path="url(#pf3b3cc934d)" />
    </g>
    <g
       transform="matrix(1,0,0,0.92071692,-1.2881041,10.091794)"
       id="g907">
      <g
         style="stroke-linecap:butt;stroke-linejoin:round"
         id="axes_1"
         transform="matrix(0,0.16078633,-0.08936369,0,-80.399202,126.58271)">
        <g
           style="stroke-linecap:butt;stroke-linejoin:round"
           id="line2d_1">
          <path
             inkscape:connector-curvature="0"
             id="path11"
             style="fill:none;stroke:#000000;stroke-width:2;stroke-linecap:square;stroke-linejoin:round"
             d="m 142.7077,143.28 0.15845,-6.2122 0.0134,-6.18763 -0.13072,-6.1386 -0.27345,-6.06529 -0.41418,-5.96799 -0.55236,-5.8471 -0.68743,-5.70309 -0.81889,-5.536513 -0.94619,-5.348053 -1.06883,-5.138442 -1.18632,-4.908511 -1.29822,-4.65917 -1.40407,-4.391404 -1.50346,-4.106272 -1.59597,-3.804904 -1.68127,-3.488487 -1.75901,-3.158278 -1.82887,-2.815577 -1.89059,-2.461743 -1.94392,-2.098174 -1.98865,-1.726309 -2.02459,-1.347616 -2.05163,-0.963594 -2.06963,-0.575763 -2.07854,-0.185654 -2.0783,0.20519 -2.06895,0.595221 -2.05049,0.982899 -2.02301,1.366689 -1.98662,1.745077 -1.941452,2.116562 -1.887702,2.479678 -1.825569,2.832988 -1.755304,3.175095 -1.677184,3.504647 -1.591516,3.820339 -1.498643,4.120924 -1.398928,4.405214 -1.292768,4.672083 -1.180581,4.920476 -1.062812,5.149413 -0.939927,5.357985 -0.812411,5.545374 -0.680768,5.71082 -0.545518,5.8537 -0.407199,5.97342 -0.266355,6.06953 -0.123544,6.14163 0.02067,6.18944 0.165716,6.21278 0.31102,6.21156 0.456009,6.18576 0.600108,6.1355 0.742747,6.061 0.883364,5.9625 1.021402,5.84045 1.156313,5.69528 1.287567,5.52761 1.414642,5.33807 1.537038,5.12742 1.654269,4.8965 1.765873,4.64621 1.871407,4.37755 1.970454,4.09158 2.062624,3.78943 2.147548,3.47229 2.2249,3.14143 2.29437,2.79814 2.35566,2.44378 2.40858,2.07977 2.45286,1.70752 2.48837,1.32853 2.51496,0.94428 2.5325,0.5563 2.54095,0.16612 2.54026,-0.22473 2.53045,-0.61467 2.51154,-1.00219 2.48362,-1.38575 2.44677,-1.76383 2.40118,-2.13493 2.34701,-2.49759 2.28445,-2.85037 2.2138,-3.19188 2.13528,-3.52077 2.04925,-3.83574 1.95603,-4.13554 1.85598,-4.41898 1.74951,-4.68494 1.63703,-4.9324 1.519,-5.16033 1.39587,-5.36786 1.26813,-5.55417 1.1363,-5.71851 1.00088,-5.86024 0.86242,-5.9788 0.72147,-6.0737 0.57857,-6.1446 0.4343,-6.19119 0.28923,-6.21331 0.14393,-6.21084 -0.001,-6.18383 -0.14507,-6.13236 -0.28762,-6.05663 -0.42812,-5.95696 -0.56601,-5.83373 -0.70076,-5.68743 -0.83181,-5.518644 -0.95867,-5.328031 -1.08082,-5.116349 -1.19777,-4.884434 -1.30909,-4.633206 -1.41431,-4.363654 -1.51301,-4.076847 -1.60484,-3.773919 -1.68939,-3.456066 -1.76635,-3.124547 -1.83542,-2.780672 -1.8963,-2.425801 -1.94878,-2.061337 -1.99264,-1.688722 -2.02771,-1.309429 -2.05383,-0.924958 -2.07093,-0.536828 -2.07893,-0.146577 -2.07778,0.244254 -2.06751,0.63412 -2.04814,1.021478 -2.01977,1.404797 -1.98249,1.78256 -1.93647,2.153274 -1.88186,2.515473 -1.8189,2.867726 -1.74785,3.208637 -1.66895,3.536861 -1.58254,3.851098 -1.48898,4.150106 -1.38859,4.432702 -1.28182,4.697771 -1.16904,4.944261 -1.05075,5.1712 -0.92738,5.37769 -0.79942,5.562913 -0.66739,5.72614 -0.53182,5.86672 -0.39322,5.98411 -0.25215,6.07782 -0.10918,6.1475 0.0352,6.19288 0.18024,6.21377 0.32554,6.21008 0.47047,6.18183 0.61445,6.12915 0.75691,6.05221 0.89729,5.95136 1.03504,5.82695 1.16962,5.67953 1.30047,5.50962 1.4271,5.31794 1.549,5.10523 1.66569,4.87232 1.7767,4.62016 1.88161,4.34971 1.97999,4.06207 2.07145,3.75837 2.15563,3.43981 2.23221,3.10763 2.30086,2.76318 2.36134,2.4078 2.41339,2.04288 2.45682,1.66991 2.49143,1.29031 2.51712,0.90563 2.53376,0.51735 2.54129,0.12704 2.53969,-0.26378 2.52897,-0.65357 2.50915,-1.04075 2.48033,-1.42383 2.44261,-1.80127 2.39614,-2.1716 2.34112,-2.53333 2.27776,-2.88506 2.20629,-3.22536 2.12701,-3.55291 2.04025,-3.86642 1.94632,-4.16464 1.84562,-4.44638 1.73852,-4.71054 1.62547,-4.95608 1.50691,-5.18202 1.38329,-5.38746 1.25513,-5.57161 1.1229,-5.73371 0.98717,-5.87314 0.84843,-5.98936 0.70725,-6.08188 0.5642,-6.15035 0.41982,-6.19451 0.2747,-6.21417 0.12941,-6.20925 -0.0155,-6.17977 -0.1594,-6.12587 -0.30177,-6.04774 -0.44204,-5.94569 -0.57964,-5.82013 -0.71404,-5.67156 -0.84469,-5.500549 -0.97111,-5.307797 -1.09275,-5.094054 -1.20917,-4.860165 -1.31989,-4.607057 -1.42447,-4.335732 -1.52252,-4.047261 -1.61362,-3.742784 -1.69744,-3.423509 -1.77362,-3.090693 -1.84187,-2.745657 -1.90194,-2.389763 -1.95356,-2.024418 -1.99654,-1.651069 -2.03072,-1.27119 -2.05595,-0.886284 -2.07214,-0.497873 -2.07922,-0.107494 -2.07717,0.28331 -2.06598,0.672994 -2.04571,1.060016 -2.01644,1.442848 -1.97828,1.819973 -1.93139,2.189901 -1.87594,2.55117 -1.81216,2.90235 -1.7403,3.242052 -1.66064,3.568935 -1.57351,3.881704 -1.47923,4.179123 -1.3782,4.460016 -1.2708,4.723272 -1.15746,4.96785 -1.03863,5.192784 -0.91478,5.397181 -0.78639,5.58024 -0.65399,5.74123 -0.51808,5.87951 -0.37922,5.99454 -0.23793,6.08588 -0.0948,6.15314 0.0496,6.19608 0.19477,6.2145 0.34006,6.20836 0.48492,6.17766 0.62877,6.12254 0.77105,6.0432 0.9112,5.93996 1.04865,5.81325 1.18287,5.66353 1.31333,5.49142 1.43952,5.29761 1.56091,5.08283 1.67705,4.84795 1.78748,4.59392 1.89175,4.32171 1.98945,4.0324 2.0802,3.72716 2.16364,3.40718 2.23943,3.07372 2.30728,2.72811 2.36693,2.37171 2.41813,2.00593 2.46067,1.63222 2.49441,1.25205 2.51919,0.86693 2.53492,0.47839 2.54154,0.088 2.53904,-0.30283 2.52739,-0.69242 2.50667,-1.07927 2.47695,-1.46186 2.43836,-1.83865 2.39102,-2.20818 2.33516,-2.56898 2.27096,-2.91962 2.19871,-3.25871 2.11868,-3.58492 2.03117,-3.89695 1.93655,-4.19357 1.83518,-4.47361 1.72748,-4.73595 1.61386,-4.97957 1.49476,-5.2035 1.37067,-5.40685 1.24208,-5.58881 1.10948,-5.74869 0.97342,-5.88582 0.83441,-5.99968 0.69303,-6.08981 0.54981,-6.15587 0.40533,-6.19758 0.26017,-6.21478 0.11489,-6.2074 -0.0299,-6.17549 -0.17372,-6.11914 -0.3159,-6.0386 -0.45593,-5.93419 -0.59323,-5.8063 -0.72728,-5.655452 -0.85754,-5.482243 -0.98349,-5.287354 -1.10464,-5.071557 -1.2205,-4.835703 -1.33063,-4.580728 -1.43458,-4.307638 -1.53195,-4.017513 -1.62234,-3.711503 -1.7054,-3.390815 -1.7808,-3.056717 -1.84826,-2.710534 -1.90748,-2.35363 -1.95825,-1.987419 -2.00036,-1.61335 -2.03365,-1.2329 -2.05798,-0.847576 -2.07326,-0.458899 -2.07942,-0.06841 -2.07646,0.322354 -2.06436,0.711841 -2.04319,1.098514 -2.01302,1.480842 -1.97398,1.857314 -1.92623,2.226442 -1.86993,2.586765 -1.80533,2.936858 -1.73268,3.27534 -1.65226,3.600867 -1.56439,3.912157 -1.46943,4.207975 -1.36774,4.487153 -1.25973,4.748587 -1.14581,4.991243 -1.02646,5.214161 -0.90214,5.41646 -0.77333,5.597348 -0.64055,5.75608 -0.50432,5.89207 -0.36518,6.00476 -0.22369,6.09369 -0.0804,6.15853 0.0641,6.19902 0.2093,6.215 0.35458,6.20639 0.49936,6.17324 0.64308,6.11569 0.78517,6.03395 0.92507,5.92834 1.06222,5.7993 1.1961,5.64732 1.32615,5.47301 1.45188,5.27705 1.57277,5.06023 1.68836,4.82341 1.79819,4.56749 1.90182,4.29353 1.99885,4.00258 2.08887,3.6958 2.17157,3.37442 2.24658,3.03969 2.31362,2.69293 2.37243,2.33553 2.42278,1.96889 2.46444,1.59446 2.49729,1.21374 2.52117,0.82821 2.536,0.4394 2.5417,0.0489 2.53828,-0.34188 2.52573,-0.73125 2.5041,-1.11775 2.47349,-1.49981 2.43401,-1.87596 2.38582,-2.24468 2.32911,-2.60452 2.2641,-2.95407 2.19105,-3.29194 2.11025,-3.61678 2.02203,-3.92732 1.92671,-4.22234 1.82469,-4.50066 1.71638,-4.76117 1.60218,-5.00287 1.48257,-5.22477 1.35801,-5.42602 1.22899,-5.60581 1.09602,-5.76343 0.95964,-5.89826 0.82038,-6.00977 0.67877,-6.09751 0.53541,-6.16114 0.39084,-6.2004 0.24564,-6.21515 0.10038,-6.20531 -0.0444,-6.17095 -0.18802,-6.11217 -0.33001,-6.02923 -0.46979,-5.92245 -0.60679,-5.79224 -0.74049,-5.639127 -0.87033,-5.463718 -0.99583,-5.266702 -1.11647,-5.048858 -1.23178,-4.811051 -1.34132,-4.554216 -1.44462,-4.279374 -1.5413,-3.987608 -1.63098,-3.680074 -1.71329,-3.357987 -1.78792,-3.022621 -1.85455,-2.675302 -1.91294,-2.317404 -1.96285,-1.950342 -2.00409,-1.575568 -2.03649,-1.194562 -2.05991,-0.808833 -2.07429,-0.419906 -2.07954,-0.02932 -2.07566,0.361386 -2.06265,0.75066 -2.04057,1.136967 -2.00952,1.518778 -1.9696,1.894581 -1.92097,2.262894 -1.86384,2.622258 -1.79842,2.971252 -1.72499,3.308497 -1.6438,3.632658 -1.55521,3.942454 -1.45956,4.23666 -1.35721,4.514113 -1.2486,4.773714 -1.13411,5.014438 -1.01425,5.235333 -0.88945,5.435525 -0.76022,5.614215 -0.62707,5.77072 -0.49053,5.9044 -0.35113,6.01472 -0.20944,6.10126 -0.066,6.16369 0.0786,6.20172 0.22384,6.21524 0.36908,6.20418 0.51379,6.16858 0.65737,6.1086 0.79927,6.02446 0.93892,5.91648 1.07577,5.78513 1.20928,5.63088 1.33893,5.45437 1.46419,5.2563 1.58458,5.03743 1.69961,4.79866 1.80884,4.54089 1.91182,4.26518 2.00817,3.97259 2.09749,3.66431 2.17941,3.34152 2.25365,3.00553 2.31988,2.65765 2.37785,2.29925 2.42733,1.93178 2.46813,1.55665 2.50009,1.17538 2.52306,0.78945 2.53697,0.4004 2.54178,0.01 2.53743,-0.38089 2.52397,-0.77006 2.50145,-1.15618 2.46994,-1.53772 2.42958,-1.91319 2.38053,-2.28109 2.32297,-2.63996 2.25715,-2.98841 2.18332,-3.32502 2.10176,-3.6485 2.0128,-3.95755 1.91681,-4.25094 1.81414,-4.52752 1.70521,-4.78621 1.59046,-5.02596 1.47033,-5.24584 1.3453,-5.44498 1.21586,-5.62258 1.08253,-5.77795 0.94583,-5.91047 0.80631,-6.01962 0.66451,-6.10496 0.521,-6.16616 0.37634,-6.20298 0.2311,-6.21528 0.0859,-6.20298 -0.0588,-6.16616 -0.2023,-6.10496 -0.3441,-6.01962 -0.48362,-5.91047 -0.62032,-5.77795 -0.75365,-5.622576 -0.88309,-5.444977 -1.00812,-5.245841 -1.12825,-5.025961 -1.243,-4.786207 -1.35193,-4.527526 -1.4546,-4.25094 -1.55059,-3.957544 -1.63955,-3.6485 -1.7211,-3.325026 -1.79494,-2.988405 -1.86077,-2.639965 -1.91832,-2.281087 -1.96737,-1.913187 -2.00773,-1.537723 -2.03923,-1.156177 -2.06176,-0.770059 -2.07523,-0.380897 -2.07956,0.0098 -2.07477,0.400403 -2.06085,0.789451 -2.03787,1.175375 -2.00592,1.556653 -1.96512,1.931774 -1.91564,2.299257 -1.85767,2.657647 -1.79144,3.005527 -1.7172,3.341524 -1.63528,3.664304 -1.54595,3.972596 -1.44962,4.265178 -1.34663,4.540894 -1.2374,4.798652 -1.12237,5.037435 -1.00197,5.256297 -0.87672,5.454375 -0.74707,5.630876 -0.61356,5.78513 -0.47671,5.91648 -0.33706,6.02446 -0.19516,6.10859 -0.0516,6.16859 0.0931,6.20418 0.23837,6.21524 0.38359,6.20172 0.5282,6.16368 0.67165,6.10127 0.81334,6.01472 0.95274,5.9044 1.08928,5.77072 1.22243,5.61422 1.35166,5.43552 1.47646,5.23534 1.59633,5.01444 1.7108,4.77371 1.81942,4.51411 1.92177,4.23666 2.01742,3.94246 2.10602,3.63265 2.18719,3.3085 2.26063,2.97125 2.32606,2.62226 2.38318,2.2629 2.43181,1.89458 2.47172,1.51877 2.50279,1.13697 2.52486,0.75066 2.53787,0.36139 2.54175,-0.0293 2.5365,-0.41991 2.52212,-0.80883 2.4987,-1.19456 2.4663,-1.57557 2.42506,-1.95034 2.37516,-2.31741 2.31676,-2.6753 2.25012,-3.02262 2.1755,-3.35799 2.09319,-3.68007 2.00352,-3.98761 1.90683,-4.27937 1.80352,-4.55422 1.69399,-4.81105 1.57868,-5.04886 1.45804,-5.2667 1.33255,-5.46372 1.20269,-5.63912 1.06901,-5.79224 0.932,-5.92245 0.79222,-6.02923 0.65023,-6.11217 0.50657,-6.17095 0.36183,-6.20531 0.21657,-6.21515 0.0714,-6.20041 -0.0732,-6.16113 -0.21656,-6.09751 -0.35816,-6.00977 -0.49743,-5.89826 -0.63382,-5.76343 -0.76678,-5.60581 -0.89579,-5.42602 -1.02036,-5.224773 -1.13998,-5.002865 -1.25416,-4.761174 -1.36249,-4.500655 -1.4645,-4.222338 -1.55981,-3.927325 -1.64804,-3.616781 -1.72884,-3.291934 -1.80189,-2.95407 -1.8669,-2.604525 -1.92361,-2.244678 -1.9718,-1.875958 -2.01128,-1.499817 -2.04189,-1.117745 -2.06352,-0.731255 -2.07607,-0.341872 -2.07949,0.04886 -2.07378,0.439405 -2.05896,0.828208 -2.03508,1.213738 -2.00224,1.594466 -1.96056,1.968891 -1.91022,2.335528 -1.85142,2.692931 -1.78436,3.039685 -1.70936,3.374417 -1.62667,3.695807 -1.53663,4.00258 -1.43961,4.293527 -1.33598,4.567495 -1.22615,4.823401 -1.11056,5.060232 -0.98967,5.277054 -0.86394,5.473008 -0.73389,5.647322 -0.60001,5.7993 -0.46286,5.92834 -0.32296,6.03395 -0.18087,6.11569 -0.0371,6.17324 0.10764,6.20639 0.2529,6.215 0.39809,6.19902 0.54261,6.15853 0.6859,6.09369 0.8274,6.00476 0.96653,5.89207 1.10276,5.75608 1.23554,5.59734 1.36434,5.41646 1.48867,5.21417 1.60803,4.99124 1.72194,4.74859 1.82995,4.48715 1.93163,4.20797 2.02661,3.91216 2.11447,3.60087 2.19489,3.27534 2.26754,2.93686 2.33214,2.58676 2.38844,2.22644 2.43619,1.85732 2.47523,1.48084 2.5054,1.09851 2.52658,0.71184 2.53866,0.32236 2.54164,-0.0684 2.53547,-0.4589 2.52019,-0.84757 2.49586,-1.2329 2.46257,-1.61335 2.42046,-1.98742 2.36969,-2.35363 2.31047,-2.71054 2.24301,-3.05671 2.16761,-3.39082 2.08455,-3.7115 1.99416,-4.01751 1.89679,-4.30764 1.79284,-4.58073 1.68272,-4.8357 1.56684,-5.07156 1.4457,-5.28736 1.31975,-5.48224 1.18949,-5.65545 1.05544,-5.8063 0.91814,-5.93419 0.77811,-6.0386 0.63593,-6.11914 0.49214,-6.17549 0.34732,-6.2074 0.20204,-6.21478 0.0569,-6.19758 -0.0876,-6.15587 -0.23082,-6.08981 -0.3722,-5.99968 -0.51121,-5.88582 -0.64727,-5.74869 -0.77987,-5.588816 -0.90846,-5.406848 -1.03255,-5.203498 -1.15165,-4.979571 -1.26527,-4.735953 -1.37297,-4.473607 -1.47434,-4.193569 -1.56896,-3.89695 -1.65646,-3.584918 -1.7365,-3.258712 -1.80876,-2.919619 -1.87294,-2.56898 -1.92882,-2.208183 -1.97614,-1.838652 -2.01474,-1.461852 -2.04447,-1.079271 -2.06518,-0.692421 -2.07682,-0.302834 -2.07933,0.08795 -2.07271,0.478388 -2.05698,0.866934 -2.0322,1.252052 -1.99846,1.632217 -1.95592,2.005929 -1.90472,2.371708 -1.84507,2.728109 -1.77722,3.07372 -1.70143,3.407179 -1.61799,3.727162 -1.52724,4.032407 -1.42954,4.321706 -1.32526,4.593916 -1.21485,4.847958 -1.0987,5.08283 -0.9773,5.297602 -0.85112,5.491425 -0.72067,5.663532 -0.58644,5.81325 -0.44898,5.93996 -0.30884,6.0432 -0.16656,6.12254 -0.0227,6.17766 0.12215,6.20836 0.26743,6.2145 0.41258,6.19608 0.55701,6.15314 0.70014,6.08588 0.84143,5.99454 0.98029,5.87951 1.1162,5.74123 1.24861,5.58024 1.37698,5.39718 1.50084,5.19278 1.61967,4.96785 1.73301,4.72328 1.84041,4.46001 1.94145,4.17913 2.03572,3.8817 2.12285,3.56894 2.20251,3.24205 2.27437,2.90235 2.33815,2.55117 2.39359,2.1899 2.44049,1.81997 2.47866,1.44285 2.50792,1.06001 2.52819,0.673 2.53938,0.28331 2.54143,-0.1075 2.53435,-0.49787 2.51816,-0.88628 2.49293,-1.27119 2.45876,-1.65107 2.41577,-2.02442 2.36414,-2.38976 2.30409,-2.74566 2.23583,-3.09069 2.15964,-3.42351 2.07583,-3.74279 1.98473,-4.04726 1.88669,-4.33573 1.7821,-4.60706 1.67138,-4.86016 1.55496,-5.09405 1.43331,-5.3078 1.30691,-5.50055 1.17625,-5.67156 1.04185,-5.82013 0.90425,-5.94569 0.76398,-6.04774 0.62161,-6.12587 0.47769,-6.17978 0.33281,-6.20924 0.1875,-6.21417 0.0424,-6.19451 -0.10198,-6.15035 -0.24505,-6.08188 -0.38622,-5.98936 -0.52495,-5.87314 -0.6607,-5.73371 -0.79292,-5.57161 -0.92108,-5.387462 -1.04469,-5.182018 -1.16326,-4.95608 -1.27632,-4.710544 -1.3834,-4.446382 -1.48411,-4.164635 -1.57804,-3.86642 -1.66481,-3.552915 -1.74408,-3.225361 -1.81554,-2.885052 -1.87891,-2.533334 -1.93393,-2.171598 -1.9804,-1.801276 -2.01812,-1.423829 -2.04694,-1.040752 -2.06675,-0.653561 -2.07749,-0.263783 -2.07908,0.127036 -2.07155,0.517354 -2.0549,0.905625 -2.02923,1.290316 -1.9946,1.669903 -1.95118,2.042888 -1.89913,2.407794 -1.83866,2.763178 -1.76999,3.107636 -1.69342,3.439804 -1.60924,3.75837 -1.51778,4.062074 -1.4194,4.349715 -1.31449,4.620154 -1.20348,4.872324 -1.08679,5.105226 -0.96489,5.317941 -0.83827,5.509624 -0.7074,5.67953 -0.57283,5.82695 -0.43508,5.95136 -0.2947,6.05221 -0.15224,6.12915 -0.008,6.18183 0.13666,6.21008 0.28197,6.21377 0.42706,6.19288 0.57139,6.1475 0.71436,6.07782 0.85543,5.98411 0.99403,5.86672 1.12961,5.72614 1.26163,5.56291 1.38959,5.37769 1.51295,5.1712 1.63126,4.94426 1.74403,4.69777 1.8508,4.43271 1.95118,4.1501 2.04476,3.8511 2.13117,3.53686 2.21005,3.20864 2.28111,2.86772 2.34407,2.51548 2.39868,2.15327 2.4447,1.78256 2.48198,1.4048 2.51036,1.02148 2.52972,0.63412 2.53999,0.24425 2.54113,-0.14658 2.53314,-0.53682 2.51605,-0.92496 2.48991,-1.30943 2.45485,-1.68872 2.411,-2.06134 2.35851,-2.4258 2.29763,-2.78067 2.22856,-3.12455 2.1516,-3.45607 2.06704,-3.77392 1.97523,-4.07684 1.87652,-4.36366 1.7713,-4.6332 1.65998,-4.88444 1.54303,-5.11635 1.42088,-5.32803 1.29402,-5.51864 1.16297,-5.68743 1.02822,-5.83373 0.89034,-5.95696 0.74983,-6.05664 0.60728,-6.13235 0.46324,-6.18383 0.31828,-6.21085 0.17298,-6.2133 0.0279,-6.19119 -0.11637,-6.1446 -0.25925,-6.0737 -0.40021,-5.9788 -0.53868,-5.86024 -0.67408,-5.71851 -0.80592,-5.55417 -0.93366,-5.367864 -1.05679,-5.160331 -1.17482,-4.932394 -1.2873,-4.684949 -1.39377,-4.41898 -1.49381,-4.135536 -1.58704,-3.835738 -1.67308,-3.520771 -1.75158,-3.191882 -1.82225,-2.850371 -1.88479,-2.497588 -1.93897,-2.134928 -1.98457,-1.763827 -2.0214,-1.38575 -2.04933,-1.002194 -2.06824,-0.614673 -2.07805,-0.224723 -2.07874,0.166116 -2.0703,0.556298 -2.05274,0.944281 -2.02616,1.328529 -1.99065,1.707524 -1.94637,2.079766 -1.89345,2.443784 -1.83216,2.798138 -1.76269,3.141428 -1.68534,3.472294 -1.60041,3.78943 -1.50824,4.09158 -1.4092,4.377551 -1.30366,4.64621 -1.19206,4.896497 -1.07483,5.127421 -0.95243,5.338068 -0.82536,5.527614 -0.6941,5.69528 -0.55919,5.84045 -0.42115,5.9625 -0.28054,6.06099 -0.1379,6.13551 0.006,6.18576 0.15119,6.21156 0.2965,6.21278 0.44154,6.18944 0.58575,6.14163 0.72857,6.06953 0.86941,5.97342 1.00773,5.8537 1.14297,5.71082 1.27463,5.54537 1.40213,5.35799 1.52503,5.14941 1.64279,4.92048 1.75498,4.67208 1.86113,4.40521 1.96086,4.12093 2.05372,3.82034 2.1394,3.50464 2.21751,3.1751 2.28778,2.83299 2.34991,2.47968 2.40367,2.11656 2.44883,1.74507 2.48522,1.36669 2.5127,0.9829 2.53116,0.59522 2.54051,0.20519 2.54075,-0.18565 2.53184,-0.57576 2.51384,-0.9636 2.4868,-1.34761 2.45086,-1.72631 2.40613,-2.09818 2.3528,-2.46174 2.29109,-2.81558 2.22121,-3.15827 2.14348,-3.48849 2.05819,-3.80491 1.96566,-4.10627 1.86628,-4.3914 1.76043,-4.65917 1.64854,-4.90851 1.53104,-5.13844 1.40839,-5.34806 1.2811,-5.53651 1.14965,-5.70309 1.01457,-5.8471 0.87639,-5.96799 0.73566,-6.06529 0.59294,-6.1386 0.44877,-6.18763 0.30376,-6.2122 v 0"
             clip-path="url(#p479ee93d3c)" />
        </g>
        <g
           style="stroke-linecap:butt;stroke-linejoin:round"
           id="line2d_2">
          <path
             inkscape:connector-curvature="0"
             id="path14"
             style="fill:none;stroke:#000000;stroke-width:2;stroke-linecap:square;stroke-linejoin:round"
             d="m 69.218182,143.28 0.07265,6.2122 0.217671,6.18763 0.361827,6.1386 0.504554,6.06529 0.645285,5.96799 0.783464,5.8471 0.918545,5.70309 1.049994,5.53651 1.17729,5.34806 1.299932,5.13844 1.417432,4.90851 1.529328,4.65917 1.635175,4.3914 1.734557,4.10627 1.82708,3.80491 1.912376,3.48849 1.990112,3.15827 2.059976,2.81558 2.121696,2.46174 2.175025,2.09818 2.219752,1.72631 2.255703,1.34761 2.282734,0.9636 2.30073,0.57576 2.30965,0.18565 2.30941,-0.20519 2.30005,-0.59522 2.28159,-0.9829 2.25412,-1.36669 2.21772,-1.74507 2.17256,-2.11656 2.11881,-2.47968 2.05668,-2.83299 1.9864,-3.1751 1.90829,-3.50464 1.82262,-3.82034 1.72975,-4.12093 1.63003,-4.40521 1.52388,-4.67208 1.41168,-4.92048 1.29392,-5.14941 1.17103,-5.35799 1.04352,-5.54537 0.91187,-5.71082 0.77663,-5.8537 0.6383,-5.97342 0.49746,-6.06953 0.35465,-6.14163 0.21044,-6.18944 0.0654,-6.21278 -0.0799,-6.21156 -0.2249,-6.18576 -0.36901,-6.13551"
             clip-path="url(#p479ee93d3c)" />
        </g>
      </g>
      <path
         style="fill:none;stroke:#000000;stroke-width:0.264583px;stroke-linecap:butt;stroke-linejoin:miter;stroke-opacity:1"
         d="m -93.203232,134.32898 v 3.38307"
         id="path896"
         inkscape:connector-curvature="0" />
      <path
         inkscape:connector-curvature="0"
         id="path898"
         d="m -93.203264,186.64957 v 3.38307"
         style="fill:none;stroke:#000000;stroke-width:0.264583px;stroke-linecap:butt;stroke-linejoin:miter;stroke-opacity:1" />
    </g>
    <rect
       ry="0.18898818"
       rx="0.49735582"
       y="184.96191"
       x="-102.21998"
       height="13.525093"
       width="15.45725"
       id="rect909"
       style="opacity:1;fill:#0faa7d;fill-opacity:1;fill-rule:nonzero;stroke:#000000;stroke-width:0.5;stroke-linecap:round;stroke-linejoin:round;stroke-miterlimit:4;stroke-dasharray:none;stroke-dashoffset:0;stroke-opacity:1" />
    <g
       id="g1106"
       ns1:jacobian_sqrt="1.058334"
       inkscapeversion="0.92.3"
       ns1:alignment="middle center"
       ns1:scale="3.0"
       ns1:preamble="/home/mpnerem/.config/inkscape/extensions/textext/default_packages.tex"
       ns1:text="$a=\\frac{F}{m}$"
       ns1:pdfconverter="pdf2svg"
       ns1:texconverter="pdflatex"
       ns1:version="0.11.0"
       transform="matrix(1.058334,0,0,1.058334,-188.42361,5.3540102)">
      <g
         id="g1104">
        <g
           id="g1088"
           style="fill:#000000;fill-opacity:1">
          <path
             id="path1086"
             transform="translate(133.768,134.765)"
             d="M 3.71875,-3.765625 C 3.53125,-4.140625 3.25,-4.40625 2.796875,-4.40625 c -1.15625,0 -2.390625,1.46875 -2.390625,2.921875 0,0.9375 0.546875,1.59375 1.3125,1.59375 0.203125,0 0.703125,-0.046875 1.296875,-0.75 0.078125,0.421875 0.4375,0.75 0.90625,0.75 0.359375,0 0.578125,-0.234375 0.75,-0.546875 0.15625,-0.359375 0.296875,-0.96875 0.296875,-0.984375 0,-0.109375 -0.09375,-0.109375 -0.125,-0.109375 -0.09375,0 -0.109375,0.046875 -0.140625,0.1875 -0.171875,0.640625 -0.34375,1.234375 -0.75,1.234375 -0.28125,0 -0.296875,-0.265625 -0.296875,-0.453125 0,-0.21875 0.015625,-0.3125 0.125,-0.75 C 3.890625,-1.71875 3.90625,-1.828125 4,-2.203125 L 4.359375,-3.59375 c 0.0625,-0.28125 0.0625,-0.296875 0.0625,-0.34375 0,-0.171875 -0.109375,-0.265625 -0.28125,-0.265625 -0.25,0 -0.390625,0.21875 -0.421875,0.4375 z M 3.078125,-1.1875 C 3.015625,-1 3.015625,-0.984375 2.875,-0.8125 2.4375,-0.265625 2.03125,-0.109375 1.75,-0.109375 c -0.5,0 -0.640625,-0.546875 -0.640625,-0.9375 0,-0.5 0.3125,-1.71875 0.546875,-2.1875 0.3125,-0.578125 0.75,-0.953125 1.15625,-0.953125 0.640625,0 0.78125,0.8125 0.78125,0.875 0,0.0625 -0.015625,0.125 -0.03125,0.171875 z m 0,0"
             style="stroke:none;stroke-width:0"
             inkscape:connector-curvature="0" />
        </g>
        <g
           id="g1092"
           style="fill:#000000;fill-opacity:1">
          <path
             id="path1090"
             transform="translate(141.802,134.765)"
             d="m 6.84375,-3.265625 c 0.15625,0 0.34375,0 0.34375,-0.1875 C 7.1875,-3.65625 7,-3.65625 6.859375,-3.65625 h -5.96875 c -0.140625,0 -0.328125,0 -0.328125,0.203125 0,0.1875 0.1875,0.1875 0.328125,0.1875 z m 0.015625,1.9375 c 0.140625,0 0.328125,0 0.328125,-0.203125 0,-0.1875 -0.1875,-0.1875 -0.34375,-0.1875 H 0.890625 c -0.140625,0 -0.328125,0 -0.328125,0.1875 0,0.203125 0.1875,0.203125 0.328125,0.203125 z m 0,0"
             style="stroke:none;stroke-width:0"
             inkscape:connector-curvature="0" />
        </g>
        <g
           id="g1096"
           style="fill:#000000;fill-opacity:1">
          <path
             id="path1094"
             transform="translate(153.986,130.842)"
             d="M 2.390625,-2.25 H 3.125 c 0.53125,0 0.625,0.09375 0.625,0.3125 0,0.109375 0,0.125 -0.046875,0.328125 -0.015625,0.03125 -0.03125,0.0625 -0.03125,0.078125 0,0.0625 0.0625,0.109375 0.125,0.109375 0.09375,0 0.09375,-0.046875 0.140625,-0.171875 l 0.375,-1.46875 c 0,-0.03125 0.015625,-0.125 0.015625,-0.140625 0,-0.078125 -0.046875,-0.109375 -0.109375,-0.109375 -0.09375,0 -0.109375,0.046875 -0.140625,0.171875 C 3.9375,-2.59375 3.734375,-2.5 3.140625,-2.5 h -0.6875 l 0.4375,-1.75 c 0.046875,-0.203125 0.0625,-0.234375 0.34375,-0.234375 H 4.3125 c 0.921875,0 1.09375,0.21875 1.09375,0.8125 0,0.21875 -0.03125,0.375 -0.03125,0.421875 0,0.0625 0.03125,0.125 0.125,0.125 0.109375,0 0.109375,-0.0625 0.125,-0.1875 L 5.75,-4.515625 c 0.015625,-0.21875 -0.03125,-0.21875 -0.203125,-0.21875 h -3.71875 c -0.140625,0 -0.21875,0 -0.21875,0.15625 0,0.09375 0.078125,0.09375 0.21875,0.09375 0,0 0.140625,0 0.265625,0.015625 C 2.234375,-4.453125 2.25,-4.4375 2.25,-4.375 c 0,0.046875 -0.015625,0.125 -0.03125,0.15625 L 1.3125,-0.578125 C 1.234375,-0.296875 1.234375,-0.25 0.6875,-0.25 c -0.109375,0 -0.203125,0 -0.203125,0.140625 C 0.484375,-0.03125 0.53125,0 0.59375,0 0.796875,0 1.3125,-0.03125 1.515625,-0.03125 l 0.53125,0.015625 C 2.234375,-0.015625 2.421875,0 2.59375,0 2.640625,0 2.75,0 2.75,-0.15625 2.75,-0.25 2.671875,-0.25 2.515625,-0.25 c -0.015625,0 -0.1875,0 -0.375,-0.015625 C 2,-0.28125 1.9375,-0.28125 1.9375,-0.390625 c 0,-0.015625 0,-0.046875 0.015625,-0.125 z m 0,0"
             style="stroke:none;stroke-width:0"
             inkscape:connector-curvature="0" />
        </g>
        <path
           id="path1098"
           transform="matrix(1,0,0,-1,153.513,132.274)"
           d="M -0.00128125,5.625e-4 H 7.069031"
           style="fill:none;stroke:#000000;stroke-width:0.398;stroke-linecap:butt;stroke-linejoin:miter;stroke-miterlimit:10;stroke-opacity:1"
           inkscape:connector-curvature="0" />
        <g
           id="g1102"
           style="fill:#000000;fill-opacity:1">
          <path
             id="path1100"
             transform="translate(153.513,138.2)"
             d="m 3.03125,-0.5625 c -0.046875,0.140625 -0.109375,0.375 -0.109375,0.40625 0,0.15625 0.125,0.21875 0.234375,0.21875 0.140625,0 0.25,-0.078125 0.28125,-0.140625 0.03125,-0.0625 0.09375,-0.296875 0.125,-0.4375 0.03125,-0.125 0.109375,-0.453125 0.15625,-0.625 0.03125,-0.15625 0.078125,-0.3125 0.109375,-0.46875 0.078125,-0.296875 0.078125,-0.3125 0.21875,-0.53125 C 4.265625,-2.484375 4.625,-2.875 5.15625,-2.875 c 0.390625,0 0.421875,0.3125 0.421875,0.484375 0,0.421875 -0.296875,1.1875 -0.421875,1.484375 -0.0625,0.203125 -0.09375,0.265625 -0.09375,0.375 0,0.375 0.296875,0.59375 0.65625,0.59375 0.703125,0 1,-0.953125 1,-1.0625 0,-0.09375 -0.078125,-0.09375 -0.109375,-0.09375 -0.09375,0 -0.09375,0.046875 -0.125,0.125 C 6.328125,-0.40625 6.015625,-0.125 5.75,-0.125 c -0.15625,0 -0.1875,-0.09375 -0.1875,-0.25 0,-0.15625 0.046875,-0.25 0.171875,-0.5625 0.078125,-0.21875 0.359375,-0.953125 0.359375,-1.34375 0,-0.109375 0,-0.40625 -0.25,-0.609375 -0.125,-0.078125 -0.328125,-0.1875 -0.65625,-0.1875 -0.625,0 -1,0.421875 -1.234375,0.703125 C 3.90625,-2.96875 3.40625,-3.078125 3.046875,-3.078125 2.46875,-3.078125 2.078125,-2.71875 1.875,-2.4375 1.828125,-2.921875 1.421875,-3.078125 1.125,-3.078125 c -0.296875,0 -0.453125,0.21875 -0.546875,0.375 -0.15625,0.265625 -0.25,0.65625 -0.25,0.703125 0,0.078125 0.09375,0.078125 0.125,0.078125 0.09375,0 0.09375,-0.015625 0.140625,-0.203125 0.109375,-0.40625 0.25,-0.75 0.515625,-0.75 0.1875,0 0.234375,0.15625 0.234375,0.34375 0,0.125 -0.0625,0.390625 -0.125,0.578125 -0.046875,0.1875 -0.109375,0.46875 -0.140625,0.625 L 0.84375,-0.4375 c -0.015625,0.09375 -0.0625,0.265625 -0.0625,0.28125 0,0.15625 0.125,0.21875 0.234375,0.21875 0.125,0 0.234375,-0.078125 0.28125,-0.140625 0.03125,-0.0625 0.078125,-0.296875 0.125,-0.4375 0.03125,-0.125 0.109375,-0.453125 0.140625,-0.625 0.046875,-0.15625 0.09375,-0.3125 0.125,-0.46875 0.078125,-0.28125 0.09375,-0.34375 0.296875,-0.625 C 2.171875,-2.515625 2.5,-2.875 3.03125,-2.875 c 0.390625,0 0.40625,0.359375 0.40625,0.484375 0,0.171875 -0.015625,0.265625 -0.125,0.65625 z m 0,0"
             style="stroke:none;stroke-width:0"
             inkscape:connector-curvature="0" />
        </g>
      </g>
    </g>
    <path
       style="fill:none;stroke:#000000;stroke-width:0.45;stroke-linecap:butt;stroke-linejoin:miter;stroke-miterlimit:4;stroke-dasharray:none;stroke-opacity:1"
       d="m -63.669145,174.67926 v 12.51301"
       id="path1150"
       inkscape:connector-curvature="0" />
    <path
       inkscape:connector-curvature="0"
       id="path1152"
       d="m -1.2274768,174.67926 v 12.51301"
       style="fill:none;stroke:#000000;stroke-width:0.45;stroke-linecap:butt;stroke-linejoin:miter;stroke-miterlimit:4;stroke-dasharray:none;stroke-opacity:1" />
    <path
       sodipodi:nodetypes="cc"
       inkscape:connector-curvature="0"
       id="path1154"
       d="M -37.948049,180.93576 H -63.894145"
       style="fill:none;stroke:#000000;stroke-width:0.45;stroke-linecap:butt;stroke-linejoin:miter;stroke-miterlimit:4;stroke-dasharray:none;stroke-opacity:1" />
    <g
       transform="matrix(1.058334,0,0,1.058334,-177.19454,41.906068)"
       ns1:version="0.11.0"
       ns1:texconverter="pdflatex"
       ns1:pdfconverter="pdf2svg"
       ns1:text="$\\lambda$"
       ns1:preamble="/home/mpnerem/.config/inkscape/extensions/textext/default_packages.tex"
       ns1:scale="3.0"
       ns1:alignment="middle center"
       inkscapeversion="0.92.3"
       ns1:jacobian_sqrt="1.058334"
       id="g1227">
      <g
         id="g1225">
        <g
           style="fill:#000000;fill-opacity:1"
           id="g1223">
          <path
             inkscape:connector-curvature="0"
             style="stroke:none;stroke-width:0"
             d="m 3.5625,-2.90625 c 0.40625,1.046875 0.890625,2.5625 1.046875,2.796875 0.15625,0.21875 0.25,0.21875 0.53125,0.21875 h 0.21875 c 0.09375,-0.015625 0.109375,-0.0625 0.109375,-0.09375 0,-0.03125 -0.03125,-0.0625 -0.0625,-0.09375 C 5.3125,-0.1875 5.25,-0.34375 5.1875,-0.53125 L 3.15625,-6.203125 c -0.21875,-0.578125 -0.75,-0.71875 -1.21875,-0.71875 -0.046875,0 -0.1875,0 -0.1875,0.109375 0,0.078125 0.078125,0.109375 0.09375,0.109375 C 2.171875,-6.65625 2.25,-6.59375 2.5,-5.90625 l 0.953125,2.703125 -2.75,2.734375 c -0.109375,0.125 -0.171875,0.171875 -0.171875,0.3125 0,0.171875 0.140625,0.28125 0.296875,0.28125 0.15625,0 0.25,-0.109375 0.328125,-0.203125 z m 0,0"
             transform="translate(133.768,134.765)"
             id="path1221" />
        </g>
      </g>
    </g>
    <path
       style="fill:none;stroke:#000000;stroke-width:0.45;stroke-linecap:butt;stroke-linejoin:miter;stroke-miterlimit:4;stroke-dasharray:none;stroke-opacity:1"
       d="M -1.0024768,180.93576 H -26.948573"
       id="path1282"
       inkscape:connector-curvature="0"
       sodipodi:nodetypes="cc" />
    <g
       id="g951"
       ns1:jacobian_sqrt="1.058334"
       inkscapeversion="0.92.3"
       ns1:alignment="middle center"
       ns1:scale="3.0"
       ns1:preamble="/home/mpnerem/.config/inkscape/extensions/textext/default_packages.tex"
       ns1:text="$m$"
       ns1:pdfconverter="pdf2svg"
       ns1:texconverter="pdflatex"
       ns1:version="0.11.0"
       transform="matrix(1.058334,0,0,1.058334,-240.69278,51.371848)">
      <g
         id="surface1">
        <g
           id="g948"
           style="fill:#000000;fill-opacity:1">
          <path
             id="path946"
             transform="translate(133.768,134.765)"
             d="m 0.875,-0.59375 c -0.03125,0.15625 -0.09375,0.390625 -0.09375,0.4375 0,0.171875 0.140625,0.265625 0.296875,0.265625 0.125,0 0.296875,-0.078125 0.375,-0.28125 0,-0.015625 0.125,-0.484375 0.1875,-0.734375 l 0.21875,-0.890625 C 1.90625,-2.03125 1.96875,-2.25 2.03125,-2.46875 c 0.03125,-0.171875 0.109375,-0.46875 0.125,-0.5 0.140625,-0.3125 0.671875,-1.21875 1.625,-1.21875 0.453125,0 0.53125,0.375 0.53125,0.703125 0,0.25 -0.0625,0.53125 -0.140625,0.828125 L 3.890625,-1.5 3.6875,-0.75 c -0.03125,0.203125 -0.125,0.546875 -0.125,0.59375 0,0.171875 0.140625,0.265625 0.28125,0.265625 0.3125,0 0.375,-0.25 0.453125,-0.5625 0.140625,-0.5625 0.515625,-2.015625 0.59375,-2.40625 0.03125,-0.125 0.5625,-1.328125 1.65625,-1.328125 0.421875,0 0.53125,0.34375 0.53125,0.703125 0,0.5625 -0.421875,1.703125 -0.625,2.234375 -0.078125,0.234375 -0.125,0.34375 -0.125,0.546875 0,0.46875 0.34375,0.8125 0.8125,0.8125 0.9375,0 1.3125,-1.453125 1.3125,-1.53125 0,-0.109375 -0.09375,-0.109375 -0.125,-0.109375 -0.09375,0 -0.09375,0.03125 -0.140625,0.1875 -0.15625,0.53125 -0.46875,1.234375 -1.015625,1.234375 -0.171875,0 -0.25,-0.09375 -0.25,-0.328125 0,-0.25 0.09375,-0.484375 0.1875,-0.703125 0.1875,-0.53125 0.609375,-1.625 0.609375,-2.203125 0,-0.640625 -0.40625,-1.0625 -1.15625,-1.0625 -0.734375,0 -1.25,0.4375 -1.625,0.96875 0,-0.125 -0.03125,-0.46875 -0.3125,-0.703125 -0.25,-0.21875 -0.5625,-0.265625 -0.8125,-0.265625 -0.90625,0 -1.390625,0.640625 -1.5625,0.875 -0.046875,-0.578125 -0.46875,-0.875 -0.921875,-0.875 -0.453125,0 -0.640625,0.390625 -0.734375,0.5625 -0.171875,0.359375 -0.296875,0.9375 -0.296875,0.96875 0,0.109375 0.09375,0.109375 0.109375,0.109375 0.109375,0 0.109375,-0.015625 0.171875,-0.234375 0.171875,-0.703125 0.375,-1.1875 0.734375,-1.1875 0.15625,0 0.296875,0.078125 0.296875,0.453125 0,0.21875 -0.03125,0.328125 -0.15625,0.84375 z m 0,0"
             style="stroke:none;stroke-width:0"
             inkscape:connector-curvature="0" />
        </g>
      </g>
    </g>
    <g
       transform="matrix(1.05833,0,0,1.05833,49.064485,162.68508)"
       ns1:version="1.8.2"
       ns1:texconverter="pdflatex"
       ns1:pdfconverter="inkscape"
       ns1:text="$\\sin(\\omega t)$"
       ns1:preamble="/home/mpnerem/.config/inkscape/extensions/textext/default_packages.tex"
       ns1:scale="3.0"
       ns1:alignment="middle center"
       ns1:stroke-to-path="0"
       ns1:inkscapeversion="1.2"
       ns1:jacobian_sqrt="1.05833"
       id="g1004">
      <defs
         id="id-a4cccf5e-0484-48f5-881a-842fd4a09750">
        <g
           id="id-9243de49-38fd-47ba-a584-260d5e8fe8e6">
          <symbol
             overflow="visible"
             id="id-37e1f2a9-6215-47aa-832b-007093852ba3">
            <path
               style="stroke:none"
               d=""
               id="id-642eeb57-57a6-4c84-b5d7-38538ab2a76f" />
          </symbol>
          <symbol
             overflow="visible"
             id="id-bcad83fd-073f-4db0-90ff-57571e645bbe">
            <path
               style="stroke:none"
               d="m 2.078125,-1.9375 c 0.21875,0.046875 1.03125,0.203125 1.03125,0.921875 0,0.5 -0.34375,0.90625 -1.125,0.90625 -0.84375,0 -1.203125,-0.5625 -1.390625,-1.421875 C 0.5625,-1.65625 0.5625,-1.6875 0.453125,-1.6875 c -0.125,0 -0.125,0.0625 -0.125,0.234375 V -0.125 c 0,0.171875 0,0.234375 0.109375,0.234375 0.046875,0 0.0625,-0.015625 0.25,-0.203125 0.015625,-0.015625 0.015625,-0.03125 0.203125,-0.21875 0.4375,0.40625 0.890625,0.421875 1.09375,0.421875 1.140625,0 1.609375,-0.671875 1.609375,-1.390625 0,-0.515625 -0.296875,-0.828125 -0.421875,-0.9375 C 2.84375,-2.546875 2.453125,-2.625 2.03125,-2.703125 1.46875,-2.8125 0.8125,-2.9375 0.8125,-3.515625 c 0,-0.359375 0.25,-0.765625 1.109375,-0.765625 1.09375,0 1.15625,0.90625 1.171875,1.203125 0,0.09375 0.09375,0.09375 0.109375,0.09375 0.140625,0 0.140625,-0.046875 0.140625,-0.234375 v -1.015625 c 0,-0.15625 0,-0.234375 -0.109375,-0.234375 -0.046875,0 -0.078125,0 -0.203125,0.125 -0.03125,0.03125 -0.125,0.125 -0.171875,0.15625 -0.375,-0.28125 -0.78125,-0.28125 -0.9375,-0.28125 -1.21875,0 -1.59375,0.671875 -1.59375,1.234375 0,0.34375 0.15625,0.625 0.421875,0.84375 0.328125,0.25 0.609375,0.3125 1.328125,0.453125 z m 0,0"
               id="id-07e74b6d-2000-48f2-aa07-851e666952d0" />
          </symbol>
          <symbol
             overflow="visible"
             id="id-00445ff7-9396-4c49-8bfe-0acaa356ca68">
            <path
               style="stroke:none"
               d="M 1.765625,-4.40625 0.375,-4.296875 v 0.3125 c 0.640625,0 0.734375,0.0625 0.734375,0.546875 V -0.75 c 0,0.4375 -0.109375,0.4375 -0.78125,0.4375 V 0 C 0.640625,-0.015625 1.1875,-0.03125 1.421875,-0.03125 1.78125,-0.03125 2.125,-0.015625 2.46875,0 v -0.3125 c -0.671875,0 -0.703125,-0.046875 -0.703125,-0.4375 z m 0.03125,-1.734375 c 0,-0.3125 -0.234375,-0.53125 -0.515625,-0.53125 -0.3125,0 -0.53125,0.265625 -0.53125,0.53125 0,0.265625 0.21875,0.53125 0.53125,0.53125 0.28125,0 0.515625,-0.21875 0.515625,-0.53125 z m 0,0"
               id="id-977b4b67-92ba-4f4f-b79c-322eb3b3b8aa" />
          </symbol>
          <symbol
             overflow="visible"
             id="id-2e21d911-9f84-4cbe-a378-98ad69815c51">
            <path
               style="stroke:none"
               d="M 1.09375,-3.421875 V -0.75 c 0,0.4375 -0.109375,0.4375 -0.78125,0.4375 V 0 c 0.359375,-0.015625 0.859375,-0.03125 1.140625,-0.03125 0.25,0 0.765625,0.015625 1.109375,0.03125 v -0.3125 c -0.671875,0 -0.78125,0 -0.78125,-0.4375 V -2.59375 C 1.78125,-3.625 2.5,-4.1875 3.125,-4.1875 c 0.640625,0 0.75,0.53125 0.75,1.109375 V -0.75 c 0,0.4375 -0.109375,0.4375 -0.78125,0.4375 V 0 c 0.34375,-0.015625 0.859375,-0.03125 1.125,-0.03125 0.25,0 0.78125,0.015625 1.109375,0.03125 v -0.3125 c -0.515625,0 -0.765625,0 -0.765625,-0.296875 v -1.90625 c 0,-0.859375 0,-1.15625 -0.3125,-1.515625 -0.140625,-0.171875 -0.46875,-0.375 -1.046875,-0.375 C 2.46875,-4.40625 2,-3.984375 1.71875,-3.359375 V -4.40625 L 0.3125,-4.296875 v 0.3125 c 0.703125,0 0.78125,0.0625 0.78125,0.5625 z m 0,0"
               id="id-187cefcf-2a13-46d0-8e5f-d7a0b8c70774" />
          </symbol>
          <symbol
             overflow="visible"
             id="id-9824452e-fc20-4f20-b62e-7e43da6a0f42">
            <path
               style="stroke:none"
               d="m 3.296875,2.390625 c 0,-0.03125 0,-0.046875 -0.171875,-0.21875 C 1.890625,0.921875 1.5625,-0.96875 1.5625,-2.5 c 0,-1.734375 0.375,-3.46875 1.609375,-4.703125 0.125,-0.125 0.125,-0.140625 0.125,-0.171875 0,-0.078125 -0.03125,-0.109375 -0.09375,-0.109375 -0.109375,0 -1,0.6875 -1.59375,1.953125 -0.5,1.09375 -0.625,2.203125 -0.625,3.03125 0,0.78125 0.109375,1.984375 0.65625,3.125 C 2.25,1.84375 3.09375,2.5 3.203125,2.5 c 0.0625,0 0.09375,-0.03125 0.09375,-0.109375 z m 0,0"
               id="id-3bda6a2a-5208-41cf-afdd-b8525725dd34" />
          </symbol>
          <symbol
             overflow="visible"
             id="id-6a09c714-7c94-4a3e-830c-199430a10f0e">
            <path
               style="stroke:none"
               d="m 2.875,-2.5 c 0,-0.765625 -0.109375,-1.96875 -0.65625,-3.109375 -0.59375,-1.21875 -1.453125,-1.875 -1.546875,-1.875 -0.0625,0 -0.109375,0.046875 -0.109375,0.109375 0,0.03125 0,0.046875 0.1875,0.234375 0.984375,0.984375 1.546875,2.5625 1.546875,4.640625 0,1.71875 -0.359375,3.46875 -1.59375,4.71875 C 0.5625,2.34375 0.5625,2.359375 0.5625,2.390625 0.5625,2.453125 0.609375,2.5 0.671875,2.5 0.765625,2.5 1.671875,1.8125 2.25,0.546875 2.765625,-0.546875 2.875,-1.65625 2.875,-2.5 Z m 0,0"
               id="id-dd7858c5-d116-424c-a40c-091c229f8d2e" />
          </symbol>
          <symbol
             overflow="visible"
             id="id-c96c5234-e59c-4f07-bb9a-88d52ed419c1">
            <path
               style="stroke:none"
               d=""
               id="id-5704a286-23fc-4dd5-bf98-e3fc8d549e98" />
          </symbol>
          <symbol
             overflow="visible"
             id="id-9f69a7d3-6c8f-428f-adf2-b3f70c38cb44">
            <path
               style="stroke:none"
               d="m 6.03125,-3.703125 c 0,-0.453125 -0.171875,-0.703125 -0.40625,-0.703125 -0.25,0 -0.515625,0.234375 -0.515625,0.46875 0,0.09375 0.046875,0.203125 0.140625,0.296875 0.171875,0.15625 0.359375,0.421875 0.359375,0.84375 0,0.390625 -0.203125,0.96875 -0.5,1.421875 C 4.8125,-0.953125 4.4375,-0.609375 3.96875,-0.609375 3.40625,-0.609375 3.09375,-0.96875 3,-1.5 c 0.109375,-0.265625 0.34375,-0.90625 0.34375,-1.1875 0,-0.109375 -0.046875,-0.21875 -0.1875,-0.21875 -0.078125,0 -0.1875,0.03125 -0.265625,0.171875 C 2.78125,-2.53125 2.65625,-1.890625 2.65625,-1.53125 2.328125,-1.0625 1.9375,-0.609375 1.3125,-0.609375 c -0.671875,0 -0.875,-0.59375 -0.875,-1.140625 0,-1.25 1.015625,-2.296875 1.015625,-2.421875 0,-0.109375 -0.078125,-0.1875 -0.1875,-0.1875 -0.125,0 -0.203125,0.125 -0.265625,0.21875 -0.5,0.734375 -0.875,1.921875 -0.875,2.828125 0,0.6875 0.21875,1.421875 1.046875,1.421875 0.703125,0 1.171875,-0.5 1.53125,-1.046875 0.09375,0.578125 0.484375,1.046875 1.09375,1.046875 0.78125,0 1.25,-0.609375 1.609375,-1.359375 0.25,-0.484375 0.625,-1.84375 0.625,-2.453125 z m 0,0"
               id="id-b2d2a031-e715-4822-bee9-503459c362fe" />
          </symbol>
          <symbol
             overflow="visible"
             id="id-a62c157e-5322-436e-9f1a-c5234c4563a0">
            <path
               style="stroke:none"
               d="m 2.046875,-3.984375 h 0.9375 c 0.203125,0 0.3125,0 0.3125,-0.203125 0,-0.109375 -0.109375,-0.109375 -0.28125,-0.109375 h -0.875 C 2.5,-5.71875 2.546875,-5.90625 2.546875,-5.96875 c 0,-0.171875 -0.125,-0.265625 -0.296875,-0.265625 -0.03125,0 -0.3125,0 -0.390625,0.359375 L 1.46875,-4.296875 h -0.9375 c -0.203125,0 -0.296875,0 -0.296875,0.1875 0,0.125 0.078125,0.125 0.28125,0.125 h 0.875 C 0.671875,-1.15625 0.625,-0.984375 0.625,-0.8125 0.625,-0.265625 1,0.109375 1.546875,0.109375 2.5625,0.109375 3.125,-1.34375 3.125,-1.421875 3.125,-1.53125 3.046875,-1.53125 3.015625,-1.53125 2.921875,-1.53125 2.90625,-1.5 2.859375,-1.390625 2.4375,-0.34375 1.90625,-0.109375 1.5625,-0.109375 c -0.203125,0 -0.3125,-0.125 -0.3125,-0.453125 0,-0.25 0.03125,-0.3125 0.0625,-0.484375 z m 0,0"
               id="id-90f5459a-87bc-4e39-a6c7-18cf5630575d" />
          </symbol>
        </g>
      </defs>
      <g
         id="id-6708ceb1-9709-4c30-86c9-937fc4733c1b"
         transform="translate(-149.04,-127.281)">
        <g
           style="fill:#000000;fill-opacity:1"
           id="id-263b3855-1135-4dd2-97ae-d0a4fe0224c0">
          <g
             transform="translate(148.712,134.765)"
             id="g1143">
            <path
               style="stroke:none"
               d="m 2.078125,-1.9375 c 0.21875,0.046875 1.03125,0.203125 1.03125,0.921875 0,0.5 -0.34375,0.90625 -1.125,0.90625 -0.84375,0 -1.203125,-0.5625 -1.390625,-1.421875 C 0.5625,-1.65625 0.5625,-1.6875 0.453125,-1.6875 c -0.125,0 -0.125,0.0625 -0.125,0.234375 V -0.125 c 0,0.171875 0,0.234375 0.109375,0.234375 0.046875,0 0.0625,-0.015625 0.25,-0.203125 0.015625,-0.015625 0.015625,-0.03125 0.203125,-0.21875 0.4375,0.40625 0.890625,0.421875 1.09375,0.421875 1.140625,0 1.609375,-0.671875 1.609375,-1.390625 0,-0.515625 -0.296875,-0.828125 -0.421875,-0.9375 C 2.84375,-2.546875 2.453125,-2.625 2.03125,-2.703125 1.46875,-2.8125 0.8125,-2.9375 0.8125,-3.515625 c 0,-0.359375 0.25,-0.765625 1.109375,-0.765625 1.09375,0 1.15625,0.90625 1.171875,1.203125 0,0.09375 0.09375,0.09375 0.109375,0.09375 0.140625,0 0.140625,-0.046875 0.140625,-0.234375 v -1.015625 c 0,-0.15625 0,-0.234375 -0.109375,-0.234375 -0.046875,0 -0.078125,0 -0.203125,0.125 -0.03125,0.03125 -0.125,0.125 -0.171875,0.15625 -0.375,-0.28125 -0.78125,-0.28125 -0.9375,-0.28125 -1.21875,0 -1.59375,0.671875 -1.59375,1.234375 0,0.34375 0.15625,0.625 0.421875,0.84375 0.328125,0.25 0.609375,0.3125 1.328125,0.453125 z m 0,0"
               id="id-ada84aa0-a78d-4aa7-8ebe-c5b9f24bf318" />
          </g>
          <g
             transform="translate(152.641,134.765)"
             id="g1146">
            <path
               style="stroke:none"
               d="M 1.765625,-4.40625 0.375,-4.296875 v 0.3125 c 0.640625,0 0.734375,0.0625 0.734375,0.546875 V -0.75 c 0,0.4375 -0.109375,0.4375 -0.78125,0.4375 V 0 C 0.640625,-0.015625 1.1875,-0.03125 1.421875,-0.03125 1.78125,-0.03125 2.125,-0.015625 2.46875,0 v -0.3125 c -0.671875,0 -0.703125,-0.046875 -0.703125,-0.4375 z m 0.03125,-1.734375 c 0,-0.3125 -0.234375,-0.53125 -0.515625,-0.53125 -0.3125,0 -0.53125,0.265625 -0.53125,0.53125 0,0.265625 0.21875,0.53125 0.53125,0.53125 0.28125,0 0.515625,-0.21875 0.515625,-0.53125 z m 0,0"
               id="id-02b84b4f-6c90-44ab-9f87-e412535d6ebc" />
          </g>
          <g
             transform="translate(155.409,134.765)"
             id="g1149">
            <path
               style="stroke:none"
               d="M 1.09375,-3.421875 V -0.75 c 0,0.4375 -0.109375,0.4375 -0.78125,0.4375 V 0 c 0.359375,-0.015625 0.859375,-0.03125 1.140625,-0.03125 0.25,0 0.765625,0.015625 1.109375,0.03125 v -0.3125 c -0.671875,0 -0.78125,0 -0.78125,-0.4375 V -2.59375 C 1.78125,-3.625 2.5,-4.1875 3.125,-4.1875 c 0.640625,0 0.75,0.53125 0.75,1.109375 V -0.75 c 0,0.4375 -0.109375,0.4375 -0.78125,0.4375 V 0 c 0.34375,-0.015625 0.859375,-0.03125 1.125,-0.03125 0.25,0 0.78125,0.015625 1.109375,0.03125 v -0.3125 c -0.515625,0 -0.765625,0 -0.765625,-0.296875 v -1.90625 c 0,-0.859375 0,-1.15625 -0.3125,-1.515625 -0.140625,-0.171875 -0.46875,-0.375 -1.046875,-0.375 C 2.46875,-4.40625 2,-3.984375 1.71875,-3.359375 V -4.40625 L 0.3125,-4.296875 v 0.3125 c 0.703125,0 0.78125,0.0625 0.78125,0.5625 z m 0,0"
               id="id-10cf9075-1a38-4193-913b-699e42db8030" />
          </g>
          <g
             transform="translate(160.944,134.765)"
             id="g1152">
            <path
               style="stroke:none"
               d="m 3.296875,2.390625 c 0,-0.03125 0,-0.046875 -0.171875,-0.21875 C 1.890625,0.921875 1.5625,-0.96875 1.5625,-2.5 c 0,-1.734375 0.375,-3.46875 1.609375,-4.703125 0.125,-0.125 0.125,-0.140625 0.125,-0.171875 0,-0.078125 -0.03125,-0.109375 -0.09375,-0.109375 -0.109375,0 -1,0.6875 -1.59375,1.953125 -0.5,1.09375 -0.625,2.203125 -0.625,3.03125 0,0.78125 0.109375,1.984375 0.65625,3.125 C 2.25,1.84375 3.09375,2.5 3.203125,2.5 c 0.0625,0 0.09375,-0.03125 0.09375,-0.109375 z m 0,0"
               id="id-2c5c801a-5d65-4182-b1d3-2b5780ac2650" />
          </g>
        </g>
        <g
           style="fill:#000000;fill-opacity:1"
           id="id-2857736c-da6f-4151-9648-7f44e3d5fcc4">
          <g
             transform="translate(164.819,134.765)"
             id="g1156">
            <path
               style="stroke:none"
               d="m 6.03125,-3.703125 c 0,-0.453125 -0.171875,-0.703125 -0.40625,-0.703125 -0.25,0 -0.515625,0.234375 -0.515625,0.46875 0,0.09375 0.046875,0.203125 0.140625,0.296875 0.171875,0.15625 0.359375,0.421875 0.359375,0.84375 0,0.390625 -0.203125,0.96875 -0.5,1.421875 C 4.8125,-0.953125 4.4375,-0.609375 3.96875,-0.609375 3.40625,-0.609375 3.09375,-0.96875 3,-1.5 c 0.109375,-0.265625 0.34375,-0.90625 0.34375,-1.1875 0,-0.109375 -0.046875,-0.21875 -0.1875,-0.21875 -0.078125,0 -0.1875,0.03125 -0.265625,0.171875 C 2.78125,-2.53125 2.65625,-1.890625 2.65625,-1.53125 2.328125,-1.0625 1.9375,-0.609375 1.3125,-0.609375 c -0.671875,0 -0.875,-0.59375 -0.875,-1.140625 0,-1.25 1.015625,-2.296875 1.015625,-2.421875 0,-0.109375 -0.078125,-0.1875 -0.1875,-0.1875 -0.125,0 -0.203125,0.125 -0.265625,0.21875 -0.5,0.734375 -0.875,1.921875 -0.875,2.828125 0,0.6875 0.21875,1.421875 1.046875,1.421875 0.703125,0 1.171875,-0.5 1.53125,-1.046875 0.09375,0.578125 0.484375,1.046875 1.09375,1.046875 0.78125,0 1.25,-0.609375 1.609375,-1.359375 0.25,-0.484375 0.625,-1.84375 0.625,-2.453125 z m 0,0"
               id="id-3425ab79-335d-4ccf-a918-58de9aca58c2" />
          </g>
        </g>
        <g
           style="fill:#000000;fill-opacity:1"
           id="id-66803f95-aae9-4100-8c24-3720d17450e3">
          <g
             transform="translate(171.379,134.765)"
             id="g1160">
            <path
               style="stroke:none"
               d="m 2.046875,-3.984375 h 0.9375 c 0.203125,0 0.3125,0 0.3125,-0.203125 0,-0.109375 -0.109375,-0.109375 -0.28125,-0.109375 h -0.875 C 2.5,-5.71875 2.546875,-5.90625 2.546875,-5.96875 c 0,-0.171875 -0.125,-0.265625 -0.296875,-0.265625 -0.03125,0 -0.3125,0 -0.390625,0.359375 L 1.46875,-4.296875 h -0.9375 c -0.203125,0 -0.296875,0 -0.296875,0.1875 0,0.125 0.078125,0.125 0.28125,0.125 h 0.875 C 0.671875,-1.15625 0.625,-0.984375 0.625,-0.8125 0.625,-0.265625 1,0.109375 1.546875,0.109375 2.5625,0.109375 3.125,-1.34375 3.125,-1.421875 3.125,-1.53125 3.046875,-1.53125 3.015625,-1.53125 2.921875,-1.53125 2.90625,-1.5 2.859375,-1.390625 2.4375,-0.34375 1.90625,-0.109375 1.5625,-0.109375 c -0.203125,0 -0.3125,-0.125 -0.3125,-0.453125 0,-0.25 0.03125,-0.3125 0.0625,-0.484375 z m 0,0"
               id="id-842916c9-2684-4afb-8525-512a1a3c8efa" />
          </g>
        </g>
        <g
           style="fill:#000000;fill-opacity:1"
           id="id-2487805e-1810-48b1-8ebc-4a08ba8a82d1">
          <g
             transform="translate(174.975,134.765)"
             id="g1164">
            <path
               style="stroke:none"
               d="m 2.875,-2.5 c 0,-0.765625 -0.109375,-1.96875 -0.65625,-3.109375 -0.59375,-1.21875 -1.453125,-1.875 -1.546875,-1.875 -0.0625,0 -0.109375,0.046875 -0.109375,0.109375 0,0.03125 0,0.046875 0.1875,0.234375 0.984375,0.984375 1.546875,2.5625 1.546875,4.640625 0,1.71875 -0.359375,3.46875 -1.59375,4.71875 C 0.5625,2.34375 0.5625,2.359375 0.5625,2.390625 0.5625,2.453125 0.609375,2.5 0.671875,2.5 0.765625,2.5 1.671875,1.8125 2.25,0.546875 2.765625,-0.546875 2.875,-1.65625 2.875,-2.5 Z m 0,0"
               id="id-f9f9c43e-d2d0-44e8-a2ba-15ff7410d75e" />
          </g>
        </g>
      </g>
    </g>
  </g>
  <g
     style="display:none"
     inkscape:label="PHYS 100"
     id="layer2"
     inkscape:groupmode="layer">
    <text
       id="text1300"
       y="169.67865"
       x="234.91371"
       style="font-style:normal;font-weight:normal;font-size:10.5833px;line-height:1.25;font-family:sans-serif;text-align:center;letter-spacing:0px;word-spacing:0px;text-anchor:middle;display:inline;fill:#003a5d;fill-opacity:1;stroke:none;stroke-width:0.264583"
       xml:space="preserve"
       transform="translate(106.3373,-133.77076)"><tspan
         style="font-style:normal;font-variant:normal;font-weight:normal;font-stretch:normal;font-size:29.6333px;font-family:sans-serif;-inkscape-font-specification:sans-serif;fill:#003a5d;fill-opacity:1;stroke-width:0.264583"
         y="169.67865"
         x="234.91371"
         id="tspan1298"
         sodipodi:role="line">PHY 100</tspan></text>
  </g>
  <g
     inkscape:groupmode="layer"
     id="g894"
     inkscape:label="PHYS 241"
     style="display:none">
    <text
       transform="translate(106.3373,-133.77076)"
       xml:space="preserve"
       style="font-style:normal;font-weight:normal;font-size:10.5833px;line-height:1.25;font-family:sans-serif;text-align:center;letter-spacing:0px;word-spacing:0px;text-anchor:middle;display:inline;fill:#003a5d;fill-opacity:1;stroke:none;stroke-width:0.264583"
       x="234.91371"
       y="169.67865"
       id="text892"><tspan
         sodipodi:role="line"
         id="tspan890"
         x="234.91371"
         y="169.67865"
         style="font-style:normal;font-variant:normal;font-weight:normal;font-stretch:normal;font-size:29.6333px;font-family:sans-serif;-inkscape-font-specification:sans-serif;fill:#003a5d;fill-opacity:1;stroke-width:0.264583">PHY 241</tspan></text>
  </g>
  <g
     style="display:none"
     inkscape:label="PHYS 201"
     id="g873"
     inkscape:groupmode="layer">
    <text
       id="text871"
       y="169.67865"
       x="234.91371"
       style="font-style:normal;font-weight:normal;font-size:10.5833px;line-height:1.25;font-family:sans-serif;text-align:center;letter-spacing:0px;word-spacing:0px;text-anchor:middle;display:inline;fill:#003a5d;fill-opacity:1;stroke:none;stroke-width:0.264583"
       xml:space="preserve"
       transform="translate(106.3373,-133.77076)"><tspan
         style="font-style:normal;font-variant:normal;font-weight:normal;font-stretch:normal;font-size:29.6333px;font-family:sans-serif;-inkscape-font-specification:sans-serif;fill:#003a5d;fill-opacity:1;stroke-width:0.264583"
         y="169.67865"
         x="234.91371"
         id="tspan869"
         sodipodi:role="line">PHY 201</tspan></text>
  </g>
</svg>
