<?xml version="1.0" encoding="UTF-8" standalone="no"?>
<!-- Created with Inkscape (http://www.inkscape.org/) -->

<svg
   width="165.38136mm"
   height="53.920242mm"
   viewBox="0 0 165.38136 53.920242"
   version="1.1"
   id="svg8"
   inkscape:version="1.2 (1:1.2.1+202207142221+cd75a1ee6d)"
   sodipodi:docname="x-vs-t-graphs.svg"
   xmlns:inkscape="http://www.inkscape.org/namespaces/inkscape"
   xmlns:sodipodi="http://sodipodi.sourceforge.net/DTD/sodipodi-0.dtd"
   xmlns="http://www.w3.org/2000/svg"
   xmlns:svg="http://www.w3.org/2000/svg"
   xmlns:rdf="http://www.w3.org/1999/02/22-rdf-syntax-ns#"
   xmlns:cc="http://creativecommons.org/ns#"
   xmlns:dc="http://purl.org/dc/elements/1.1/"
   xmlns:ns1="http://www.iki.fi/pav/software/textext/">
  <defs
     id="defs2">
    <marker
       inkscape:isstock="true"
       style="overflow:visible"
       id="marker1863"
       refX="0"
       refY="0"
       orient="auto"
       inkscape:stockid="Arrow1Lend">
      <path
         transform="matrix(-0.8,0,0,-0.8,-10,0)"
         style="fill:#000000;fill-opacity:1;fill-rule:evenodd;stroke:#000000;stroke-width:1pt;stroke-opacity:1"
         d="M 0,0 5,-5 -12.5,0 5,5 Z"
         id="path1861" />
    </marker>
    <marker
       inkscape:isstock="true"
       style="overflow:visible"
       id="marker1687"
       refX="0"
       refY="0"
       orient="auto"
       inkscape:stockid="Arrow1Lend">
      <path
         transform="matrix(-0.8,0,0,-0.8,-10,0)"
         style="fill:#000000;fill-opacity:1;fill-rule:evenodd;stroke:#000000;stroke-width:1pt;stroke-opacity:1"
         d="M 0,0 5,-5 -12.5,0 5,5 Z"
         id="path1685" />
    </marker>
    <marker
       inkscape:stockid="Arrow1Lend"
       orient="auto"
       refY="0"
       refX="0"
       id="marker1619"
       style="overflow:visible"
       inkscape:isstock="true">
      <path
         id="path1617"
         d="M 0,0 5,-5 -12.5,0 5,5 Z"
         style="fill:#000000;fill-opacity:1;fill-rule:evenodd;stroke:#000000;stroke-width:1pt;stroke-opacity:1"
         transform="matrix(-0.8,0,0,-0.8,-10,0)" />
    </marker>
    <marker
       inkscape:isstock="true"
       style="overflow:visible"
       id="marker1109"
       refX="0"
       refY="0"
       orient="auto"
       inkscape:stockid="Arrow1Lend"
       inkscape:collect="always">
      <path
         transform="matrix(-0.8,0,0,-0.8,-10,0)"
         style="fill:#000000;fill-opacity:1;fill-rule:evenodd;stroke:#000000;stroke-width:1pt;stroke-opacity:1"
         d="M 0,0 5,-5 -12.5,0 5,5 Z"
         id="path1107" />
    </marker>
    <marker
       inkscape:stockid="Arrow1Lend"
       orient="auto"
       refY="0"
       refX="0"
       id="Arrow1Lend"
       style="overflow:visible"
       inkscape:isstock="true"
       inkscape:collect="always">
      <path
         id="path820"
         d="M 0,0 5,-5 -12.5,0 5,5 Z"
         style="fill:#000000;fill-opacity:1;fill-rule:evenodd;stroke:#000000;stroke-width:1pt;stroke-opacity:1"
         transform="matrix(-0.8,0,0,-0.8,-10,0)" />
    </marker>
    <defs
       id="id-eb1517b2-ed02-4bfd-b245-d1e569d25bfd">
      <g
         id="id-380e6ad5-55f2-4751-8193-b2266f7cb6a4">
        <symbol
           overflow="visible"
           id="id-44bd87ca-6f24-4c76-9352-732b6e7b8fe2">
          <path
             style="stroke:none"
             d=""
             id="id-4595a61c-6cba-4335-94ed-626316f9cde1" />
        </symbol>
        <symbol
           overflow="visible"
           id="id-e06cbad5-95e5-4cb7-8424-d7ea289fb802">
          <path
             style="stroke:none"
             d="m 3.296875,2.390625 c 0,-0.03125 0,-0.046875 -0.171875,-0.21875 C 1.890625,0.921875 1.5625,-0.96875 1.5625,-2.5 c 0,-1.734375 0.375,-3.46875 1.609375,-4.703125 0.125,-0.125 0.125,-0.140625 0.125,-0.171875 0,-0.078125 -0.03125,-0.109375 -0.09375,-0.109375 -0.109375,0 -1,0.6875 -1.59375,1.953125 -0.5,1.09375 -0.625,2.203125 -0.625,3.03125 0,0.78125 0.109375,1.984375 0.65625,3.125 C 2.25,1.84375 3.09375,2.5 3.203125,2.5 c 0.0625,0 0.09375,-0.03125 0.09375,-0.109375 z m 0,0"
             id="id-73de5f95-b8f0-4851-845c-9dd7b871c9aa" />
        </symbol>
        <symbol
           overflow="visible"
           id="id-c7e98bc0-063a-4737-ae50-9096e5f7da5d">
          <path
             style="stroke:none"
             d="M 1.765625,-4.40625 0.375,-4.296875 v 0.3125 c 0.640625,0 0.734375,0.0625 0.734375,0.546875 V -0.75 c 0,0.4375 -0.109375,0.4375 -0.78125,0.4375 V 0 C 0.640625,-0.015625 1.1875,-0.03125 1.421875,-0.03125 1.78125,-0.03125 2.125,-0.015625 2.46875,0 v -0.3125 c -0.671875,0 -0.703125,-0.046875 -0.703125,-0.4375 z m 0.03125,-1.734375 c 0,-0.3125 -0.234375,-0.53125 -0.515625,-0.53125 -0.3125,0 -0.53125,0.265625 -0.53125,0.53125 0,0.265625 0.21875,0.53125 0.53125,0.53125 0.28125,0 0.515625,-0.21875 0.515625,-0.53125 z m 0,0"
             id="id-e601fcfc-34a2-48ce-a732-54ed94141ef0" />
        </symbol>
        <symbol
           overflow="visible"
           id="id-3cf9a0bc-3c81-42db-8205-cac0e96b5685">
          <path
             style="stroke:none"
             d="m 2.875,-2.5 c 0,-0.765625 -0.109375,-1.96875 -0.65625,-3.109375 -0.59375,-1.21875 -1.453125,-1.875 -1.546875,-1.875 -0.0625,0 -0.109375,0.046875 -0.109375,0.109375 0,0.03125 0,0.046875 0.1875,0.234375 0.984375,0.984375 1.546875,2.5625 1.546875,4.640625 0,1.71875 -0.359375,3.46875 -1.59375,4.71875 C 0.5625,2.34375 0.5625,2.359375 0.5625,2.390625 0.5625,2.453125 0.609375,2.5 0.671875,2.5 0.765625,2.5 1.671875,1.8125 2.25,0.546875 2.765625,-0.546875 2.875,-1.65625 2.875,-2.5 Z m 0,0"
             id="id-77dd57cd-ad12-4ce8-a1c7-33292d4f5229" />
        </symbol>
      </g>
    </defs>
  </defs>
  <sodipodi:namedview
     id="base"
     pagecolor="#ffffff"
     bordercolor="#666666"
     borderopacity="1.0"
     inkscape:pageopacity="0.0"
     inkscape:pageshadow="2"
     inkscape:zoom="1.4"
     inkscape:cx="217.14286"
     inkscape:cy="68.571428"
     inkscape:document-units="mm"
     inkscape:current-layer="layer1"
     showgrid="false"
     inkscape:window-width="1920"
     inkscape:window-height="1035"
     inkscape:window-x="1920"
     inkscape:window-y="20"
     inkscape:window-maximized="1"
     inkscape:showpageshadow="2"
     inkscape:pagecheckerboard="0"
     inkscape:deskcolor="#d1d1d1" />
  <metadata
     id="metadata5">
    <rdf:RDF>
      <cc:Work
         rdf:about="">
        <dc:format>image/svg+xml</dc:format>
        <dc:type
           rdf:resource="http://purl.org/dc/dcmitype/StillImage" />
        <dc:title />
      </cc:Work>
    </rdf:RDF>
  </metadata>
  <g
     inkscape:label="Layer 1"
     inkscape:groupmode="layer"
     id="layer1"
     transform="translate(-22.042328,-58.998251)">
    <g
       id="g1931"
       transform="matrix(0.97248254,0,0,0.97248254,-36.632353,-11.418716)"
       style="stroke-width:1.0283">
      <path
         inkscape:connector-curvature="0"
         id="path1615"
         d="M 65.767857,118.21726 H 111.125"
         style="opacity:1;fill:none;stroke:#b3b3b3;stroke-width:0.154244;stroke-linecap:butt;stroke-linejoin:miter;stroke-miterlimit:4;stroke-dasharray:none;stroke-opacity:1" />
      <path
         style="opacity:1;fill:none;stroke:#b3b3b3;stroke-width:0.154244;stroke-linecap:butt;stroke-linejoin:miter;stroke-miterlimit:4;stroke-dasharray:none;stroke-opacity:1"
         d="M 65.767857,112.92559 H 111.125"
         id="path1663"
         inkscape:connector-curvature="0" />
      <path
         style="opacity:1;fill:none;stroke:#b3b3b3;stroke-width:0.154244;stroke-linecap:butt;stroke-linejoin:miter;stroke-miterlimit:4;stroke-dasharray:none;stroke-opacity:1"
         d="M 65.767857,81.175582 H 111.125"
         id="path1675"
         inkscape:connector-curvature="0" />
      <path
         inkscape:connector-curvature="0"
         id="path1737"
         d="M 108.1012,123.50893 V 78.151785"
         style="fill:none;stroke:#b3b3b3;stroke-width:0.154244;stroke-linecap:butt;stroke-linejoin:miter;stroke-miterlimit:4;stroke-dasharray:none;stroke-opacity:1" />
      <path
         inkscape:connector-curvature="0"
         id="path1665"
         d="M 65.767857,107.63392 H 111.125"
         style="opacity:1;fill:none;stroke:#b3b3b3;stroke-width:0.154244;stroke-linecap:butt;stroke-linejoin:miter;stroke-miterlimit:4;stroke-dasharray:none;stroke-opacity:1" />
      <path
         style="opacity:1;fill:none;stroke:#b3b3b3;stroke-width:0.154244;stroke-linecap:butt;stroke-linejoin:miter;stroke-miterlimit:4;stroke-dasharray:none;stroke-opacity:1"
         d="M 65.767857,102.34225 H 111.125"
         id="path1667"
         inkscape:connector-curvature="0" />
      <path
         inkscape:connector-curvature="0"
         id="path1669"
         d="M 65.767857,97.050583 H 111.125"
         style="opacity:1;fill:none;stroke:#b3b3b3;stroke-width:0.154244;stroke-linecap:butt;stroke-linejoin:miter;stroke-miterlimit:4;stroke-dasharray:none;stroke-opacity:1" />
      <path
         style="opacity:1;fill:none;stroke:#b3b3b3;stroke-width:0.154244;stroke-linecap:butt;stroke-linejoin:miter;stroke-miterlimit:4;stroke-dasharray:none;stroke-opacity:1"
         d="M 65.767857,91.758916 H 111.125"
         id="path1671"
         inkscape:connector-curvature="0" />
      <path
         inkscape:connector-curvature="0"
         id="path1673"
         d="M 65.767857,86.467249 H 111.125"
         style="opacity:1;fill:none;stroke:#b3b3b3;stroke-width:0.154244;stroke-linecap:butt;stroke-linejoin:miter;stroke-miterlimit:4;stroke-dasharray:none;stroke-opacity:1" />
      <path
         inkscape:connector-curvature="0"
         id="path815"
         d="M 65.767857,123.50893 V 78.151785"
         style="fill:none;stroke:#000000;stroke-width:0.272498;stroke-linecap:butt;stroke-linejoin:miter;stroke-miterlimit:4;stroke-dasharray:none;stroke-opacity:1;marker-end:url(#Arrow1Lend)" />
      <path
         style="fill:none;stroke:#b3b3b3;stroke-width:0.154244;stroke-linecap:butt;stroke-linejoin:miter;stroke-miterlimit:4;stroke-dasharray:none;stroke-opacity:1"
         d="M 71.059524,123.50893 V 78.151785"
         id="path1683"
         inkscape:connector-curvature="0" />
      <path
         inkscape:connector-curvature="0"
         id="path1725"
         d="M 76.351191,123.50893 V 78.151785"
         style="fill:none;stroke:#b3b3b3;stroke-width:0.154244;stroke-linecap:butt;stroke-linejoin:miter;stroke-miterlimit:4;stroke-dasharray:none;stroke-opacity:1" />
      <path
         style="fill:none;stroke:#b3b3b3;stroke-width:0.154244;stroke-linecap:butt;stroke-linejoin:miter;stroke-miterlimit:4;stroke-dasharray:none;stroke-opacity:1"
         d="M 81.642858,123.50893 V 78.151785"
         id="path1727"
         inkscape:connector-curvature="0" />
      <path
         inkscape:connector-curvature="0"
         id="path1729"
         d="M 86.934525,123.50893 V 78.151785"
         style="fill:none;stroke:#b3b3b3;stroke-width:0.154244;stroke-linecap:butt;stroke-linejoin:miter;stroke-miterlimit:4;stroke-dasharray:none;stroke-opacity:1" />
      <path
         style="fill:none;stroke:#b3b3b3;stroke-width:0.154244;stroke-linecap:butt;stroke-linejoin:miter;stroke-miterlimit:4;stroke-dasharray:none;stroke-opacity:1"
         d="M 92.226192,123.50893 V 78.151785"
         id="path1731"
         inkscape:connector-curvature="0" />
      <path
         inkscape:connector-curvature="0"
         id="path1733"
         d="M 97.517859,123.50893 V 78.151785"
         style="fill:none;stroke:#b3b3b3;stroke-width:0.154244;stroke-linecap:butt;stroke-linejoin:miter;stroke-miterlimit:4;stroke-dasharray:none;stroke-opacity:1" />
      <path
         style="fill:none;stroke:#b3b3b3;stroke-width:0.154244;stroke-linecap:butt;stroke-linejoin:miter;stroke-miterlimit:4;stroke-dasharray:none;stroke-opacity:1"
         d="M 102.80953,123.50893 V 78.151785"
         id="path1735"
         inkscape:connector-curvature="0" />
      <path
         style="fill:none;stroke:#000000;stroke-width:0.272498;stroke-linecap:butt;stroke-linejoin:miter;stroke-miterlimit:4;stroke-dasharray:none;stroke-opacity:1;marker-end:url(#marker1109)"
         d="M 65.767857,123.50893 H 111.125"
         id="path1105"
         inkscape:connector-curvature="0" />
    </g>
    <g
       transform="matrix(0.97248254,0,0,0.97248254,19.974236,-11.418716)"
       id="g1969"
       style="stroke-width:1.0283">
      <path
         style="opacity:1;fill:none;stroke:#b3b3b3;stroke-width:0.154244;stroke-linecap:butt;stroke-linejoin:miter;stroke-miterlimit:4;stroke-dasharray:none;stroke-opacity:1"
         d="M 65.767857,118.21726 H 111.125"
         id="path1933"
         inkscape:connector-curvature="0" />
      <path
         inkscape:connector-curvature="0"
         id="path1935"
         d="M 65.767857,112.92559 H 111.125"
         style="opacity:1;fill:none;stroke:#b3b3b3;stroke-width:0.154244;stroke-linecap:butt;stroke-linejoin:miter;stroke-miterlimit:4;stroke-dasharray:none;stroke-opacity:1" />
      <path
         inkscape:connector-curvature="0"
         id="path1937"
         d="M 65.767857,81.175582 H 111.125"
         style="opacity:1;fill:none;stroke:#b3b3b3;stroke-width:0.154244;stroke-linecap:butt;stroke-linejoin:miter;stroke-miterlimit:4;stroke-dasharray:none;stroke-opacity:1" />
      <path
         style="fill:none;stroke:#b3b3b3;stroke-width:0.154244;stroke-linecap:butt;stroke-linejoin:miter;stroke-miterlimit:4;stroke-dasharray:none;stroke-opacity:1"
         d="M 108.1012,123.50893 V 78.151785"
         id="path1939"
         inkscape:connector-curvature="0" />
      <path
         style="opacity:1;fill:none;stroke:#b3b3b3;stroke-width:0.154244;stroke-linecap:butt;stroke-linejoin:miter;stroke-miterlimit:4;stroke-dasharray:none;stroke-opacity:1"
         d="M 65.767857,107.63392 H 111.125"
         id="path1941"
         inkscape:connector-curvature="0" />
      <path
         inkscape:connector-curvature="0"
         id="path1943"
         d="M 65.767857,102.34225 H 111.125"
         style="opacity:1;fill:none;stroke:#b3b3b3;stroke-width:0.154244;stroke-linecap:butt;stroke-linejoin:miter;stroke-miterlimit:4;stroke-dasharray:none;stroke-opacity:1" />
      <path
         style="opacity:1;fill:none;stroke:#b3b3b3;stroke-width:0.154244;stroke-linecap:butt;stroke-linejoin:miter;stroke-miterlimit:4;stroke-dasharray:none;stroke-opacity:1"
         d="M 65.767857,97.050583 H 111.125"
         id="path1945"
         inkscape:connector-curvature="0" />
      <path
         inkscape:connector-curvature="0"
         id="path1947"
         d="M 65.767857,91.758916 H 111.125"
         style="opacity:1;fill:none;stroke:#b3b3b3;stroke-width:0.154244;stroke-linecap:butt;stroke-linejoin:miter;stroke-miterlimit:4;stroke-dasharray:none;stroke-opacity:1" />
      <path
         style="opacity:1;fill:none;stroke:#b3b3b3;stroke-width:0.154244;stroke-linecap:butt;stroke-linejoin:miter;stroke-miterlimit:4;stroke-dasharray:none;stroke-opacity:1"
         d="M 65.767857,86.467249 H 111.125"
         id="path1949"
         inkscape:connector-curvature="0" />
      <path
         style="fill:none;stroke:#000000;stroke-width:0.272498;stroke-linecap:butt;stroke-linejoin:miter;stroke-miterlimit:4;stroke-dasharray:none;stroke-opacity:1;marker-end:url(#Arrow1Lend)"
         d="M 65.767857,123.50893 V 78.151785"
         id="path1951"
         inkscape:connector-curvature="0" />
      <path
         inkscape:connector-curvature="0"
         id="path1953"
         d="M 71.059524,123.50893 V 78.151785"
         style="fill:none;stroke:#b3b3b3;stroke-width:0.154244;stroke-linecap:butt;stroke-linejoin:miter;stroke-miterlimit:4;stroke-dasharray:none;stroke-opacity:1" />
      <path
         style="fill:none;stroke:#b3b3b3;stroke-width:0.154244;stroke-linecap:butt;stroke-linejoin:miter;stroke-miterlimit:4;stroke-dasharray:none;stroke-opacity:1"
         d="M 76.351191,123.50893 V 78.151785"
         id="path1955"
         inkscape:connector-curvature="0" />
      <path
         inkscape:connector-curvature="0"
         id="path1957"
         d="M 81.642858,123.50893 V 78.151785"
         style="fill:none;stroke:#b3b3b3;stroke-width:0.154244;stroke-linecap:butt;stroke-linejoin:miter;stroke-miterlimit:4;stroke-dasharray:none;stroke-opacity:1" />
      <path
         style="fill:none;stroke:#b3b3b3;stroke-width:0.154244;stroke-linecap:butt;stroke-linejoin:miter;stroke-miterlimit:4;stroke-dasharray:none;stroke-opacity:1"
         d="M 86.934525,123.50893 V 78.151785"
         id="path1959"
         inkscape:connector-curvature="0" />
      <path
         inkscape:connector-curvature="0"
         id="path1961"
         d="M 92.226192,123.50893 V 78.151785"
         style="fill:none;stroke:#b3b3b3;stroke-width:0.154244;stroke-linecap:butt;stroke-linejoin:miter;stroke-miterlimit:4;stroke-dasharray:none;stroke-opacity:1" />
      <path
         style="fill:none;stroke:#b3b3b3;stroke-width:0.154244;stroke-linecap:butt;stroke-linejoin:miter;stroke-miterlimit:4;stroke-dasharray:none;stroke-opacity:1"
         d="M 97.517859,123.50893 V 78.151785"
         id="path1963"
         inkscape:connector-curvature="0" />
      <path
         inkscape:connector-curvature="0"
         id="path1965"
         d="M 102.80953,123.50893 V 78.151785"
         style="fill:none;stroke:#b3b3b3;stroke-width:0.154244;stroke-linecap:butt;stroke-linejoin:miter;stroke-miterlimit:4;stroke-dasharray:none;stroke-opacity:1" />
      <path
         inkscape:connector-curvature="0"
         id="path1967"
         d="M 65.767857,123.50893 H 111.125"
         style="fill:none;stroke:#000000;stroke-width:0.272498;stroke-linecap:butt;stroke-linejoin:miter;stroke-miterlimit:4;stroke-dasharray:none;stroke-opacity:1;marker-end:url(#marker1109)" />
    </g>
    <g
       id="g2007"
       transform="matrix(0.97248254,0,0,0.97248254,76.580828,-11.418716)"
       style="stroke-width:1.0283">
      <path
         inkscape:connector-curvature="0"
         id="path1971"
         d="M 65.767857,118.21726 H 111.125"
         style="opacity:1;fill:none;stroke:#b3b3b3;stroke-width:0.154244;stroke-linecap:butt;stroke-linejoin:miter;stroke-miterlimit:4;stroke-dasharray:none;stroke-opacity:1" />
      <path
         style="opacity:1;fill:none;stroke:#b3b3b3;stroke-width:0.154244;stroke-linecap:butt;stroke-linejoin:miter;stroke-miterlimit:4;stroke-dasharray:none;stroke-opacity:1"
         d="M 65.767857,112.92559 H 111.125"
         id="path1973"
         inkscape:connector-curvature="0" />
      <path
         style="opacity:1;fill:none;stroke:#b3b3b3;stroke-width:0.154244;stroke-linecap:butt;stroke-linejoin:miter;stroke-miterlimit:4;stroke-dasharray:none;stroke-opacity:1"
         d="M 65.767857,81.175582 H 111.125"
         id="path1975"
         inkscape:connector-curvature="0" />
      <path
         inkscape:connector-curvature="0"
         id="path1977"
         d="M 108.1012,123.50893 V 78.151785"
         style="fill:none;stroke:#b3b3b3;stroke-width:0.154244;stroke-linecap:butt;stroke-linejoin:miter;stroke-miterlimit:4;stroke-dasharray:none;stroke-opacity:1" />
      <path
         inkscape:connector-curvature="0"
         id="path1979"
         d="M 65.767857,107.63392 H 111.125"
         style="opacity:1;fill:none;stroke:#b3b3b3;stroke-width:0.154244;stroke-linecap:butt;stroke-linejoin:miter;stroke-miterlimit:4;stroke-dasharray:none;stroke-opacity:1" />
      <path
         style="opacity:1;fill:none;stroke:#b3b3b3;stroke-width:0.154244;stroke-linecap:butt;stroke-linejoin:miter;stroke-miterlimit:4;stroke-dasharray:none;stroke-opacity:1"
         d="M 65.767857,102.34225 H 111.125"
         id="path1981"
         inkscape:connector-curvature="0" />
      <path
         inkscape:connector-curvature="0"
         id="path1983"
         d="M 65.767857,97.050583 H 111.125"
         style="opacity:1;fill:none;stroke:#b3b3b3;stroke-width:0.154244;stroke-linecap:butt;stroke-linejoin:miter;stroke-miterlimit:4;stroke-dasharray:none;stroke-opacity:1" />
      <path
         style="opacity:1;fill:none;stroke:#b3b3b3;stroke-width:0.154244;stroke-linecap:butt;stroke-linejoin:miter;stroke-miterlimit:4;stroke-dasharray:none;stroke-opacity:1"
         d="M 65.767857,91.758916 H 111.125"
         id="path1985"
         inkscape:connector-curvature="0" />
      <path
         inkscape:connector-curvature="0"
         id="path1987"
         d="M 65.767857,86.467249 H 111.125"
         style="opacity:1;fill:none;stroke:#b3b3b3;stroke-width:0.154244;stroke-linecap:butt;stroke-linejoin:miter;stroke-miterlimit:4;stroke-dasharray:none;stroke-opacity:1" />
      <path
         inkscape:connector-curvature="0"
         id="path1989"
         d="M 65.767857,123.50893 V 78.151785"
         style="fill:none;stroke:#000000;stroke-width:0.272498;stroke-linecap:butt;stroke-linejoin:miter;stroke-miterlimit:4;stroke-dasharray:none;stroke-opacity:1;marker-end:url(#Arrow1Lend)" />
      <path
         style="fill:none;stroke:#b3b3b3;stroke-width:0.154244;stroke-linecap:butt;stroke-linejoin:miter;stroke-miterlimit:4;stroke-dasharray:none;stroke-opacity:1"
         d="M 71.059524,123.50893 V 78.151785"
         id="path1991"
         inkscape:connector-curvature="0" />
      <path
         inkscape:connector-curvature="0"
         id="path1993"
         d="M 76.351191,123.50893 V 78.151785"
         style="fill:none;stroke:#b3b3b3;stroke-width:0.154244;stroke-linecap:butt;stroke-linejoin:miter;stroke-miterlimit:4;stroke-dasharray:none;stroke-opacity:1" />
      <path
         style="fill:none;stroke:#b3b3b3;stroke-width:0.154244;stroke-linecap:butt;stroke-linejoin:miter;stroke-miterlimit:4;stroke-dasharray:none;stroke-opacity:1"
         d="M 81.642858,123.50893 V 78.151785"
         id="path1995"
         inkscape:connector-curvature="0" />
      <path
         inkscape:connector-curvature="0"
         id="path1997"
         d="M 86.934525,123.50893 V 78.151785"
         style="fill:none;stroke:#b3b3b3;stroke-width:0.154244;stroke-linecap:butt;stroke-linejoin:miter;stroke-miterlimit:4;stroke-dasharray:none;stroke-opacity:1" />
      <path
         style="fill:none;stroke:#b3b3b3;stroke-width:0.154244;stroke-linecap:butt;stroke-linejoin:miter;stroke-miterlimit:4;stroke-dasharray:none;stroke-opacity:1"
         d="M 92.226192,123.50893 V 78.151785"
         id="path1999"
         inkscape:connector-curvature="0" />
      <path
         inkscape:connector-curvature="0"
         id="path2001"
         d="M 97.517859,123.50893 V 78.151785"
         style="fill:none;stroke:#b3b3b3;stroke-width:0.154244;stroke-linecap:butt;stroke-linejoin:miter;stroke-miterlimit:4;stroke-dasharray:none;stroke-opacity:1" />
      <path
         style="fill:none;stroke:#b3b3b3;stroke-width:0.154244;stroke-linecap:butt;stroke-linejoin:miter;stroke-miterlimit:4;stroke-dasharray:none;stroke-opacity:1"
         d="M 102.80953,123.50893 V 78.151785"
         id="path2003"
         inkscape:connector-curvature="0" />
      <path
         style="fill:none;stroke:#000000;stroke-width:0.272498;stroke-linecap:butt;stroke-linejoin:miter;stroke-miterlimit:4;stroke-dasharray:none;stroke-opacity:1;marker-end:url(#marker1109)"
         d="M 65.767857,123.50893 H 111.125"
         id="path2005"
         inkscape:connector-curvature="0" />
    </g>
    <g
       transform="matrix(0.34307045,0,0,0.34307045,48.450599,110.00039)"
       ns1:version="1.8.2"
       ns1:texconverter="pdflatex"
       ns1:pdfconverter="inkscape"
       ns1:text="$t$"
       ns1:preamble="/home/mpnerem/.config/inkscape/extensions/textext/default_packages.tex"
       ns1:scale="1.0"
       ns1:alignment="middle center"
       ns1:stroke-to-path="0"
       ns1:inkscapeversion="0.92.5"
       ns1:jacobian_sqrt="0.352778"
       id="g1212"
       style="stroke-width:1.0283">
      <defs
         id="id-cbcbee24-7936-4955-ad0f-07d8e093a6bf">
        <g
           id="id-d6405e2a-f3d0-49c0-84df-3ca3f618614a">
          <symbol
             overflow="visible"
             id="id-195a60f3-c715-4025-a9a8-368a8e462c5e">
            <path
               style="stroke:none;stroke-width:0"
               d=""
               id="id-d53fc6e6-8a18-4490-a500-488eafc9e5dd" />
          </symbol>
          <symbol
             overflow="visible"
             id="id-5907a4c5-ef40-47f0-9226-bc9d0a15f659">
            <path
               style="stroke:none;stroke-width:0"
               d="m 2.046875,-3.984375 h 0.9375 c 0.203125,0 0.3125,0 0.3125,-0.203125 0,-0.109375 -0.109375,-0.109375 -0.28125,-0.109375 h -0.875 C 2.5,-5.71875 2.546875,-5.90625 2.546875,-5.96875 c 0,-0.171875 -0.125,-0.265625 -0.296875,-0.265625 -0.03125,0 -0.3125,0 -0.390625,0.359375 L 1.46875,-4.296875 h -0.9375 c -0.203125,0 -0.296875,0 -0.296875,0.1875 0,0.125 0.078125,0.125 0.28125,0.125 h 0.875 C 0.671875,-1.15625 0.625,-0.984375 0.625,-0.8125 0.625,-0.265625 1,0.109375 1.546875,0.109375 2.5625,0.109375 3.125,-1.34375 3.125,-1.421875 3.125,-1.53125 3.046875,-1.53125 3.015625,-1.53125 2.921875,-1.53125 2.90625,-1.5 2.859375,-1.390625 2.4375,-0.34375 1.90625,-0.109375 1.5625,-0.109375 c -0.203125,0 -0.3125,-0.125 -0.3125,-0.453125 0,-0.25 0.03125,-0.3125 0.0625,-0.484375 z m 0,0"
               id="id-67287f09-411a-4ad2-a52c-ddd5ace467fa" />
          </symbol>
        </g>
      </defs>
      <g
         id="id-93984ad4-6f10-471c-876b-b470a7741ac1"
         transform="translate(-148.946,-128.531)"
         style="stroke-width:1.0283">
        <g
           style="fill:#000000;fill-opacity:1;stroke-width:1.0283"
           id="id-d4be1421-341a-4629-865f-63b22d2c8fcc">
          <g
             transform="translate(148.712,134.765)"
             id="g1208"
             style="stroke-width:1.0283">
            <path
               style="stroke:none;stroke-width:0"
               d="m 2.046875,-3.984375 h 0.9375 c 0.203125,0 0.3125,0 0.3125,-0.203125 0,-0.109375 -0.109375,-0.109375 -0.28125,-0.109375 h -0.875 C 2.5,-5.71875 2.546875,-5.90625 2.546875,-5.96875 c 0,-0.171875 -0.125,-0.265625 -0.296875,-0.265625 -0.03125,0 -0.3125,0 -0.390625,0.359375 L 1.46875,-4.296875 h -0.9375 c -0.203125,0 -0.296875,0 -0.296875,0.1875 0,0.125 0.078125,0.125 0.28125,0.125 h 0.875 C 0.671875,-1.15625 0.625,-0.984375 0.625,-0.8125 0.625,-0.265625 1,0.109375 1.546875,0.109375 2.5625,0.109375 3.125,-1.34375 3.125,-1.421875 3.125,-1.53125 3.046875,-1.53125 3.015625,-1.53125 2.921875,-1.53125 2.90625,-1.5 2.859375,-1.390625 2.4375,-0.34375 1.90625,-0.109375 1.5625,-0.109375 c -0.203125,0 -0.3125,-0.125 -0.3125,-0.453125 0,-0.25 0.03125,-0.3125 0.0625,-0.484375 z m 0,0"
               id="id-4f865ff6-c182-4f2b-85fc-bb880d7b91fa" />
          </g>
        </g>
      </g>
    </g>
    <g
       transform="matrix(0.34307045,0,0,0.34307045,105.05719,110.00039)"
       ns1:version="1.8.2"
       ns1:texconverter="pdflatex"
       ns1:pdfconverter="inkscape"
       ns1:text="$t$"
       ns1:preamble="/home/mpnerem/.config/inkscape/extensions/textext/default_packages.tex"
       ns1:scale="1.0"
       ns1:alignment="middle center"
       ns1:stroke-to-path="0"
       ns1:inkscapeversion="0.92.5"
       ns1:jacobian_sqrt="0.352778"
       id="g1391"
       style="stroke-width:1.0283">
      <defs
         id="defs1381">
        <g
           id="g1379">
          <symbol
             overflow="visible"
             id="symbol1373">
            <path
               style="stroke:none;stroke-width:0"
               d=""
               id="path1371" />
          </symbol>
          <symbol
             overflow="visible"
             id="symbol1377">
            <path
               style="stroke:none;stroke-width:0"
               d="m 2.046875,-3.984375 h 0.9375 c 0.203125,0 0.3125,0 0.3125,-0.203125 0,-0.109375 -0.109375,-0.109375 -0.28125,-0.109375 h -0.875 C 2.5,-5.71875 2.546875,-5.90625 2.546875,-5.96875 c 0,-0.171875 -0.125,-0.265625 -0.296875,-0.265625 -0.03125,0 -0.3125,0 -0.390625,0.359375 L 1.46875,-4.296875 h -0.9375 c -0.203125,0 -0.296875,0 -0.296875,0.1875 0,0.125 0.078125,0.125 0.28125,0.125 h 0.875 C 0.671875,-1.15625 0.625,-0.984375 0.625,-0.8125 0.625,-0.265625 1,0.109375 1.546875,0.109375 2.5625,0.109375 3.125,-1.34375 3.125,-1.421875 3.125,-1.53125 3.046875,-1.53125 3.015625,-1.53125 2.921875,-1.53125 2.90625,-1.5 2.859375,-1.390625 2.4375,-0.34375 1.90625,-0.109375 1.5625,-0.109375 c -0.203125,0 -0.3125,-0.125 -0.3125,-0.453125 0,-0.25 0.03125,-0.3125 0.0625,-0.484375 z m 0,0"
               id="path1375" />
          </symbol>
        </g>
      </defs>
      <g
         id="g1389"
         transform="translate(-148.946,-128.531)"
         style="stroke-width:1.0283">
        <g
           style="fill:#000000;fill-opacity:1;stroke-width:1.0283"
           id="g1387">
          <g
             transform="translate(148.712,134.765)"
             id="g1385"
             style="stroke-width:1.0283">
            <path
               style="stroke:none;stroke-width:0"
               d="m 2.046875,-3.984375 h 0.9375 c 0.203125,0 0.3125,0 0.3125,-0.203125 0,-0.109375 -0.109375,-0.109375 -0.28125,-0.109375 h -0.875 C 2.5,-5.71875 2.546875,-5.90625 2.546875,-5.96875 c 0,-0.171875 -0.125,-0.265625 -0.296875,-0.265625 -0.03125,0 -0.3125,0 -0.390625,0.359375 L 1.46875,-4.296875 h -0.9375 c -0.203125,0 -0.296875,0 -0.296875,0.1875 0,0.125 0.078125,0.125 0.28125,0.125 h 0.875 C 0.671875,-1.15625 0.625,-0.984375 0.625,-0.8125 0.625,-0.265625 1,0.109375 1.546875,0.109375 2.5625,0.109375 3.125,-1.34375 3.125,-1.421875 3.125,-1.53125 3.046875,-1.53125 3.015625,-1.53125 2.921875,-1.53125 2.90625,-1.5 2.859375,-1.390625 2.4375,-0.34375 1.90625,-0.109375 1.5625,-0.109375 c -0.203125,0 -0.3125,-0.125 -0.3125,-0.453125 0,-0.25 0.03125,-0.3125 0.0625,-0.484375 z m 0,0"
               id="path1383" />
          </g>
        </g>
      </g>
    </g>
    <g
       transform="matrix(0.34307045,0,0,0.34307045,161.66378,110.00039)"
       ns1:version="1.8.2"
       ns1:texconverter="pdflatex"
       ns1:pdfconverter="inkscape"
       ns1:text="$t$"
       ns1:preamble="/home/mpnerem/.config/inkscape/extensions/textext/default_packages.tex"
       ns1:scale="1.0"
       ns1:alignment="middle center"
       ns1:stroke-to-path="0"
       ns1:inkscapeversion="0.92.5"
       ns1:jacobian_sqrt="0.352778"
       id="g1413"
       style="stroke-width:1.0283">
      <defs
         id="defs1403">
        <g
           id="g1401">
          <symbol
             overflow="visible"
             id="symbol1395">
            <path
               style="stroke:none;stroke-width:0"
               d=""
               id="path1393" />
          </symbol>
          <symbol
             overflow="visible"
             id="symbol1399">
            <path
               style="stroke:none;stroke-width:0"
               d="m 2.046875,-3.984375 h 0.9375 c 0.203125,0 0.3125,0 0.3125,-0.203125 0,-0.109375 -0.109375,-0.109375 -0.28125,-0.109375 h -0.875 C 2.5,-5.71875 2.546875,-5.90625 2.546875,-5.96875 c 0,-0.171875 -0.125,-0.265625 -0.296875,-0.265625 -0.03125,0 -0.3125,0 -0.390625,0.359375 L 1.46875,-4.296875 h -0.9375 c -0.203125,0 -0.296875,0 -0.296875,0.1875 0,0.125 0.078125,0.125 0.28125,0.125 h 0.875 C 0.671875,-1.15625 0.625,-0.984375 0.625,-0.8125 0.625,-0.265625 1,0.109375 1.546875,0.109375 2.5625,0.109375 3.125,-1.34375 3.125,-1.421875 3.125,-1.53125 3.046875,-1.53125 3.015625,-1.53125 2.921875,-1.53125 2.90625,-1.5 2.859375,-1.390625 2.4375,-0.34375 1.90625,-0.109375 1.5625,-0.109375 c -0.203125,0 -0.3125,-0.125 -0.3125,-0.453125 0,-0.25 0.03125,-0.3125 0.0625,-0.484375 z m 0,0"
               id="path1397" />
          </symbol>
        </g>
      </defs>
      <g
         id="g1411"
         transform="translate(-148.946,-128.531)"
         style="stroke-width:1.0283">
        <g
           style="fill:#000000;fill-opacity:1;stroke-width:1.0283"
           id="g1409">
          <g
             transform="translate(148.712,134.765)"
             id="g1407"
             style="stroke-width:1.0283">
            <path
               style="stroke:none;stroke-width:0"
               d="m 2.046875,-3.984375 h 0.9375 c 0.203125,0 0.3125,0 0.3125,-0.203125 0,-0.109375 -0.109375,-0.109375 -0.28125,-0.109375 h -0.875 C 2.5,-5.71875 2.546875,-5.90625 2.546875,-5.96875 c 0,-0.171875 -0.125,-0.265625 -0.296875,-0.265625 -0.03125,0 -0.3125,0 -0.390625,0.359375 L 1.46875,-4.296875 h -0.9375 c -0.203125,0 -0.296875,0 -0.296875,0.1875 0,0.125 0.078125,0.125 0.28125,0.125 h 0.875 C 0.671875,-1.15625 0.625,-0.984375 0.625,-0.8125 0.625,-0.265625 1,0.109375 1.546875,0.109375 2.5625,0.109375 3.125,-1.34375 3.125,-1.421875 3.125,-1.53125 3.046875,-1.53125 3.015625,-1.53125 2.921875,-1.53125 2.90625,-1.5 2.859375,-1.390625 2.4375,-0.34375 1.90625,-0.109375 1.5625,-0.109375 c -0.203125,0 -0.3125,-0.125 -0.3125,-0.453125 0,-0.25 0.03125,-0.3125 0.0625,-0.484375 z m 0,0"
               id="path1405" />
          </g>
        </g>
      </g>
    </g>
    <g
       transform="matrix(0.34307045,0,0,0.34307045,24.317808,86.266743)"
       ns1:version="1.8.2"
       ns1:texconverter="pdflatex"
       ns1:pdfconverter="inkscape"
       ns1:text="$x$"
       ns1:preamble="/home/mpnerem/.config/inkscape/extensions/textext/default_packages.tex"
       ns1:scale="1.0"
       ns1:alignment="middle center"
       ns1:stroke-to-path="0"
       ns1:inkscapeversion="0.92.5"
       ns1:jacobian_sqrt="0.352778"
       id="g1435"
       style="stroke-width:1.0283">
      <defs
         id="id-bc439ef7-5bf4-44ba-81b1-605625be7546">
        <g
           id="id-0d04d058-c28d-4a66-b2ed-82a3d39b79a5">
          <symbol
             overflow="visible"
             id="id-d34072c7-4e9d-40ab-8202-d1fb87cfc5ac">
            <path
               style="stroke:none"
               d=""
               id="id-d2f1762c-fe9f-4471-a8ae-f10706d93c53" />
          </symbol>
          <symbol
             overflow="visible"
             id="id-50516bca-2527-40d5-a41e-18437b5da22c">
            <path
               style="stroke:none"
               d="M 3.328125,-3.015625 C 3.390625,-3.265625 3.625,-4.1875 4.3125,-4.1875 c 0.046875,0 0.296875,0 0.5,0.125 C 4.53125,-4 4.34375,-3.765625 4.34375,-3.515625 c 0,0.15625 0.109375,0.34375 0.375,0.34375 0.21875,0 0.53125,-0.171875 0.53125,-0.578125 0,-0.515625 -0.578125,-0.65625 -0.921875,-0.65625 -0.578125,0 -0.921875,0.53125 -1.046875,0.75 -0.25,-0.65625 -0.78125,-0.75 -1.078125,-0.75 -1.03125,0 -1.609375,1.28125 -1.609375,1.53125 0,0.109375 0.109375,0.109375 0.125,0.109375 0.078125,0 0.109375,-0.03125 0.125,-0.109375 0.34375,-1.0625 1,-1.3125 1.34375,-1.3125 0.1875,0 0.53125,0.09375 0.53125,0.671875 0,0.3125 -0.171875,0.96875 -0.53125,2.375 -0.15625,0.609375 -0.515625,1.03125 -0.953125,1.03125 -0.0625,0 -0.28125,0 -0.5,-0.125 0.25,-0.0625 0.46875,-0.265625 0.46875,-0.546875 0,-0.265625 -0.21875,-0.34375 -0.359375,-0.34375 -0.3125,0 -0.546875,0.25 -0.546875,0.578125 0,0.453125 0.484375,0.65625 0.921875,0.65625 0.671875,0 1.03125,-0.703125 1.046875,-0.75 0.125,0.359375 0.484375,0.75 1.078125,0.75 1.03125,0 1.59375,-1.28125 1.59375,-1.53125 0,-0.109375 -0.078125,-0.109375 -0.109375,-0.109375 -0.09375,0 -0.109375,0.046875 -0.140625,0.109375 -0.328125,1.078125 -1,1.3125 -1.3125,1.3125 -0.390625,0 -0.546875,-0.3125 -0.546875,-0.65625 0,-0.21875 0.046875,-0.4375 0.15625,-0.875 z m 0,0"
               id="id-967f6f77-46af-43ee-8f75-d5abcd1f947b" />
          </symbol>
        </g>
      </defs>
      <g
         id="id-244ea87f-867b-4beb-9c0b-ca624a3fbf51"
         transform="translate(-149.009,-130.359)"
         style="stroke-width:1.0283">
        <g
           style="fill:#000000;fill-opacity:1;stroke-width:1.0283"
           id="id-f016ec3a-54c2-4bf6-967c-8028786637ae">
          <g
             transform="translate(148.712,134.765)"
             id="g1663"
             style="stroke-width:1.0283">
            <path
               style="stroke:none;stroke-width:1.0283"
               d="M 3.328125,-3.015625 C 3.390625,-3.265625 3.625,-4.1875 4.3125,-4.1875 c 0.046875,0 0.296875,0 0.5,0.125 C 4.53125,-4 4.34375,-3.765625 4.34375,-3.515625 c 0,0.15625 0.109375,0.34375 0.375,0.34375 0.21875,0 0.53125,-0.171875 0.53125,-0.578125 0,-0.515625 -0.578125,-0.65625 -0.921875,-0.65625 -0.578125,0 -0.921875,0.53125 -1.046875,0.75 -0.25,-0.65625 -0.78125,-0.75 -1.078125,-0.75 -1.03125,0 -1.609375,1.28125 -1.609375,1.53125 0,0.109375 0.109375,0.109375 0.125,0.109375 0.078125,0 0.109375,-0.03125 0.125,-0.109375 0.34375,-1.0625 1,-1.3125 1.34375,-1.3125 0.1875,0 0.53125,0.09375 0.53125,0.671875 0,0.3125 -0.171875,0.96875 -0.53125,2.375 -0.15625,0.609375 -0.515625,1.03125 -0.953125,1.03125 -0.0625,0 -0.28125,0 -0.5,-0.125 0.25,-0.0625 0.46875,-0.265625 0.46875,-0.546875 0,-0.265625 -0.21875,-0.34375 -0.359375,-0.34375 -0.3125,0 -0.546875,0.25 -0.546875,0.578125 0,0.453125 0.484375,0.65625 0.921875,0.65625 0.671875,0 1.03125,-0.703125 1.046875,-0.75 0.125,0.359375 0.484375,0.75 1.078125,0.75 1.03125,0 1.59375,-1.28125 1.59375,-1.53125 0,-0.109375 -0.078125,-0.109375 -0.109375,-0.109375 -0.09375,0 -0.109375,0.046875 -0.140625,0.109375 -0.328125,1.078125 -1,1.3125 -1.3125,1.3125 -0.390625,0 -0.546875,-0.3125 -0.546875,-0.65625 0,-0.21875 0.046875,-0.4375 0.15625,-0.875 z m 0,0"
               id="id-a6aab813-dc79-4cb2-ba0a-55ceab5cd883" />
          </g>
        </g>
      </g>
    </g>
    <g
       transform="matrix(0.34307045,0,0,0.34307045,80.924398,86.266743)"
       ns1:version="1.8.2"
       ns1:texconverter="pdflatex"
       ns1:pdfconverter="inkscape"
       ns1:text="$x$"
       ns1:preamble="/home/mpnerem/.config/inkscape/extensions/textext/default_packages.tex"
       ns1:scale="1.0"
       ns1:alignment="middle center"
       ns1:stroke-to-path="0"
       ns1:inkscapeversion="0.92.5"
       ns1:jacobian_sqrt="0.352778"
       id="g1731"
       style="stroke-width:1.0283">
      <defs
         id="defs1721">
        <g
           id="g1719">
          <symbol
             overflow="visible"
             id="symbol1713">
            <path
               style="stroke:none"
               d=""
               id="path1711" />
          </symbol>
          <symbol
             overflow="visible"
             id="symbol1717">
            <path
               style="stroke:none"
               d="M 3.328125,-3.015625 C 3.390625,-3.265625 3.625,-4.1875 4.3125,-4.1875 c 0.046875,0 0.296875,0 0.5,0.125 C 4.53125,-4 4.34375,-3.765625 4.34375,-3.515625 c 0,0.15625 0.109375,0.34375 0.375,0.34375 0.21875,0 0.53125,-0.171875 0.53125,-0.578125 0,-0.515625 -0.578125,-0.65625 -0.921875,-0.65625 -0.578125,0 -0.921875,0.53125 -1.046875,0.75 -0.25,-0.65625 -0.78125,-0.75 -1.078125,-0.75 -1.03125,0 -1.609375,1.28125 -1.609375,1.53125 0,0.109375 0.109375,0.109375 0.125,0.109375 0.078125,0 0.109375,-0.03125 0.125,-0.109375 0.34375,-1.0625 1,-1.3125 1.34375,-1.3125 0.1875,0 0.53125,0.09375 0.53125,0.671875 0,0.3125 -0.171875,0.96875 -0.53125,2.375 -0.15625,0.609375 -0.515625,1.03125 -0.953125,1.03125 -0.0625,0 -0.28125,0 -0.5,-0.125 0.25,-0.0625 0.46875,-0.265625 0.46875,-0.546875 0,-0.265625 -0.21875,-0.34375 -0.359375,-0.34375 -0.3125,0 -0.546875,0.25 -0.546875,0.578125 0,0.453125 0.484375,0.65625 0.921875,0.65625 0.671875,0 1.03125,-0.703125 1.046875,-0.75 0.125,0.359375 0.484375,0.75 1.078125,0.75 1.03125,0 1.59375,-1.28125 1.59375,-1.53125 0,-0.109375 -0.078125,-0.109375 -0.109375,-0.109375 -0.09375,0 -0.109375,0.046875 -0.140625,0.109375 -0.328125,1.078125 -1,1.3125 -1.3125,1.3125 -0.390625,0 -0.546875,-0.3125 -0.546875,-0.65625 0,-0.21875 0.046875,-0.4375 0.15625,-0.875 z m 0,0"
               id="path1715" />
          </symbol>
        </g>
      </defs>
      <g
         id="g1729"
         transform="translate(-149.009,-130.359)"
         style="stroke-width:1.0283">
        <g
           style="fill:#000000;fill-opacity:1;stroke-width:1.0283"
           id="g1727">
          <g
             transform="translate(148.712,134.765)"
             id="g1725"
             style="stroke-width:1.0283">
            <path
               style="stroke:none;stroke-width:1.0283"
               d="M 3.328125,-3.015625 C 3.390625,-3.265625 3.625,-4.1875 4.3125,-4.1875 c 0.046875,0 0.296875,0 0.5,0.125 C 4.53125,-4 4.34375,-3.765625 4.34375,-3.515625 c 0,0.15625 0.109375,0.34375 0.375,0.34375 0.21875,0 0.53125,-0.171875 0.53125,-0.578125 0,-0.515625 -0.578125,-0.65625 -0.921875,-0.65625 -0.578125,0 -0.921875,0.53125 -1.046875,0.75 -0.25,-0.65625 -0.78125,-0.75 -1.078125,-0.75 -1.03125,0 -1.609375,1.28125 -1.609375,1.53125 0,0.109375 0.109375,0.109375 0.125,0.109375 0.078125,0 0.109375,-0.03125 0.125,-0.109375 0.34375,-1.0625 1,-1.3125 1.34375,-1.3125 0.1875,0 0.53125,0.09375 0.53125,0.671875 0,0.3125 -0.171875,0.96875 -0.53125,2.375 -0.15625,0.609375 -0.515625,1.03125 -0.953125,1.03125 -0.0625,0 -0.28125,0 -0.5,-0.125 0.25,-0.0625 0.46875,-0.265625 0.46875,-0.546875 0,-0.265625 -0.21875,-0.34375 -0.359375,-0.34375 -0.3125,0 -0.546875,0.25 -0.546875,0.578125 0,0.453125 0.484375,0.65625 0.921875,0.65625 0.671875,0 1.03125,-0.703125 1.046875,-0.75 0.125,0.359375 0.484375,0.75 1.078125,0.75 1.03125,0 1.59375,-1.28125 1.59375,-1.53125 0,-0.109375 -0.078125,-0.109375 -0.109375,-0.109375 -0.09375,0 -0.109375,0.046875 -0.140625,0.109375 -0.328125,1.078125 -1,1.3125 -1.3125,1.3125 -0.390625,0 -0.546875,-0.3125 -0.546875,-0.65625 0,-0.21875 0.046875,-0.4375 0.15625,-0.875 z m 0,0"
               id="path1723" />
          </g>
        </g>
      </g>
    </g>
    <g
       transform="matrix(0.34307045,0,0,0.34307045,137.53099,86.266743)"
       ns1:version="1.8.2"
       ns1:texconverter="pdflatex"
       ns1:pdfconverter="inkscape"
       ns1:text="$x$"
       ns1:preamble="/home/mpnerem/.config/inkscape/extensions/textext/default_packages.tex"
       ns1:scale="1.0"
       ns1:alignment="middle center"
       ns1:stroke-to-path="0"
       ns1:inkscapeversion="0.92.5"
       ns1:jacobian_sqrt="0.352778"
       id="g1754"
       style="stroke-width:1.0283">
      <defs
         id="defs1744">
        <g
           id="g1742">
          <symbol
             overflow="visible"
             id="symbol1736">
            <path
               style="stroke:none"
               d=""
               id="path1734" />
          </symbol>
          <symbol
             overflow="visible"
             id="symbol1740">
            <path
               style="stroke:none"
               d="M 3.328125,-3.015625 C 3.390625,-3.265625 3.625,-4.1875 4.3125,-4.1875 c 0.046875,0 0.296875,0 0.5,0.125 C 4.53125,-4 4.34375,-3.765625 4.34375,-3.515625 c 0,0.15625 0.109375,0.34375 0.375,0.34375 0.21875,0 0.53125,-0.171875 0.53125,-0.578125 0,-0.515625 -0.578125,-0.65625 -0.921875,-0.65625 -0.578125,0 -0.921875,0.53125 -1.046875,0.75 -0.25,-0.65625 -0.78125,-0.75 -1.078125,-0.75 -1.03125,0 -1.609375,1.28125 -1.609375,1.53125 0,0.109375 0.109375,0.109375 0.125,0.109375 0.078125,0 0.109375,-0.03125 0.125,-0.109375 0.34375,-1.0625 1,-1.3125 1.34375,-1.3125 0.1875,0 0.53125,0.09375 0.53125,0.671875 0,0.3125 -0.171875,0.96875 -0.53125,2.375 -0.15625,0.609375 -0.515625,1.03125 -0.953125,1.03125 -0.0625,0 -0.28125,0 -0.5,-0.125 0.25,-0.0625 0.46875,-0.265625 0.46875,-0.546875 0,-0.265625 -0.21875,-0.34375 -0.359375,-0.34375 -0.3125,0 -0.546875,0.25 -0.546875,0.578125 0,0.453125 0.484375,0.65625 0.921875,0.65625 0.671875,0 1.03125,-0.703125 1.046875,-0.75 0.125,0.359375 0.484375,0.75 1.078125,0.75 1.03125,0 1.59375,-1.28125 1.59375,-1.53125 0,-0.109375 -0.078125,-0.109375 -0.109375,-0.109375 -0.09375,0 -0.109375,0.046875 -0.140625,0.109375 -0.328125,1.078125 -1,1.3125 -1.3125,1.3125 -0.390625,0 -0.546875,-0.3125 -0.546875,-0.65625 0,-0.21875 0.046875,-0.4375 0.15625,-0.875 z m 0,0"
               id="path1738" />
          </symbol>
        </g>
      </defs>
      <g
         id="g1752"
         transform="translate(-149.009,-130.359)"
         style="stroke-width:1.0283">
        <g
           style="fill:#000000;fill-opacity:1;stroke-width:1.0283"
           id="g1750">
          <g
             transform="translate(148.712,134.765)"
             id="g1748"
             style="stroke-width:1.0283">
            <path
               style="stroke:none;stroke-width:1.0283"
               d="M 3.328125,-3.015625 C 3.390625,-3.265625 3.625,-4.1875 4.3125,-4.1875 c 0.046875,0 0.296875,0 0.5,0.125 C 4.53125,-4 4.34375,-3.765625 4.34375,-3.515625 c 0,0.15625 0.109375,0.34375 0.375,0.34375 0.21875,0 0.53125,-0.171875 0.53125,-0.578125 0,-0.515625 -0.578125,-0.65625 -0.921875,-0.65625 -0.578125,0 -0.921875,0.53125 -1.046875,0.75 -0.25,-0.65625 -0.78125,-0.75 -1.078125,-0.75 -1.03125,0 -1.609375,1.28125 -1.609375,1.53125 0,0.109375 0.109375,0.109375 0.125,0.109375 0.078125,0 0.109375,-0.03125 0.125,-0.109375 0.34375,-1.0625 1,-1.3125 1.34375,-1.3125 0.1875,0 0.53125,0.09375 0.53125,0.671875 0,0.3125 -0.171875,0.96875 -0.53125,2.375 -0.15625,0.609375 -0.515625,1.03125 -0.953125,1.03125 -0.0625,0 -0.28125,0 -0.5,-0.125 0.25,-0.0625 0.46875,-0.265625 0.46875,-0.546875 0,-0.265625 -0.21875,-0.34375 -0.359375,-0.34375 -0.3125,0 -0.546875,0.25 -0.546875,0.578125 0,0.453125 0.484375,0.65625 0.921875,0.65625 0.671875,0 1.03125,-0.703125 1.046875,-0.75 0.125,0.359375 0.484375,0.75 1.078125,0.75 1.03125,0 1.59375,-1.28125 1.59375,-1.53125 0,-0.109375 -0.078125,-0.109375 -0.109375,-0.109375 -0.09375,0 -0.109375,0.046875 -0.140625,0.109375 -0.328125,1.078125 -1,1.3125 -1.3125,1.3125 -0.390625,0 -0.546875,-0.3125 -0.546875,-0.65625 0,-0.21875 0.046875,-0.4375 0.15625,-0.875 z m 0,0"
               id="path1746" />
          </g>
        </g>
      </g>
    </g>
    <path
       style="fill:none;stroke:#dc5050;stroke-width:0.5;stroke-linecap:round;stroke-linejoin:round;stroke-dasharray:none;stroke-opacity:1"
       d="m 27.325739,98.399447 10.365042,-0.07294 20.511281,-20.511283 10.292114,-0.07294"
       id="path1958"
       sodipodi:nodetypes="cccc" />
    <path
       style="fill:none;stroke:#dc5050;stroke-width:0.5;stroke-linecap:round;stroke-linejoin:round;stroke-dasharray:none;stroke-opacity:1"
       d="M 83.932327,98.399447 C 99.655731,39.011627 109.62305,76.931215 119.95471,108.69156"
       id="path2058"
       sodipodi:nodetypes="cc" />
    <path
       style="fill:none;stroke:#dc5050;stroke-width:0.5;stroke-linecap:round;stroke-linejoin:round;stroke-dasharray:none;stroke-opacity:1"
       d="m 140.61186,92.99836 c 15.30039,0 25.5112,-19.817921 15.29229,-19.890338 -10.29211,-0.07294 0.12444,30.364548 5.29193,30.437478 9.93694,0 5.14604,-25.985307 20.58421,-26.058244"
       id="path2060"
       sodipodi:nodetypes="cscc" />
    <g
       style="fill:#000000;fill-opacity:1;stroke-width:0.920254"
       id="id-ec4f3c41-439f-4deb-a698-885a338dffe1"
       transform="matrix(0.38334863,0,0,0.38334863,-10.04533,10.947271)">
      <g
         transform="translate(148.712,134.765)"
         id="g3803"
         style="stroke-width:0.920254">
        <path
           style="stroke:none;stroke-width:0.920254"
           d="m 3.296875,2.390625 c 0,-0.03125 0,-0.046875 -0.171875,-0.21875 C 1.890625,0.921875 1.5625,-0.96875 1.5625,-2.5 c 0,-1.734375 0.375,-3.46875 1.609375,-4.703125 0.125,-0.125 0.125,-0.140625 0.125,-0.171875 0,-0.078125 -0.03125,-0.109375 -0.09375,-0.109375 -0.109375,0 -1,0.6875 -1.59375,1.953125 -0.5,1.09375 -0.625,2.203125 -0.625,3.03125 0,0.78125 0.109375,1.984375 0.65625,3.125 C 2.25,1.84375 3.09375,2.5 3.203125,2.5 c 0.0625,0 0.09375,-0.03125 0.09375,-0.109375 z m 0,0"
           id="id-f54d7876-ec1e-480e-bad8-99d7ddca7554" />
      </g>
      <g
         transform="translate(152.586,134.765)"
         id="g3806"
         style="stroke-width:0.920254">
        <path
           style="stroke:none;stroke-width:0.920254"
           d="M 1.765625,-4.40625 0.375,-4.296875 v 0.3125 c 0.640625,0 0.734375,0.0625 0.734375,0.546875 V -0.75 c 0,0.4375 -0.109375,0.4375 -0.78125,0.4375 V 0 C 0.640625,-0.015625 1.1875,-0.03125 1.421875,-0.03125 1.78125,-0.03125 2.125,-0.015625 2.46875,0 v -0.3125 c -0.671875,0 -0.703125,-0.046875 -0.703125,-0.4375 z m 0.03125,-1.734375 c 0,-0.3125 -0.234375,-0.53125 -0.515625,-0.53125 -0.3125,0 -0.53125,0.265625 -0.53125,0.53125 0,0.265625 0.21875,0.53125 0.53125,0.53125 0.28125,0 0.515625,-0.21875 0.515625,-0.53125 z m 0,0"
           id="id-629ac401-b9be-4510-9452-bfc320f46ff6" />
      </g>
      <g
         transform="translate(155.354,134.765)"
         id="g3809"
         style="stroke-width:0.920254">
        <path
           style="stroke:none;stroke-width:0.920254"
           d="m 2.875,-2.5 c 0,-0.765625 -0.109375,-1.96875 -0.65625,-3.109375 -0.59375,-1.21875 -1.453125,-1.875 -1.546875,-1.875 -0.0625,0 -0.109375,0.046875 -0.109375,0.109375 0,0.03125 0,0.046875 0.1875,0.234375 0.984375,0.984375 1.546875,2.5625 1.546875,4.640625 0,1.71875 -0.359375,3.46875 -1.59375,4.71875 C 0.5625,2.34375 0.5625,2.359375 0.5625,2.390625 0.5625,2.453125 0.609375,2.5 0.671875,2.5 0.765625,2.5 1.671875,1.8125 2.25,0.546875 2.765625,-0.546875 2.875,-1.65625 2.875,-2.5 Z m 0,0"
           id="id-38c72c3d-d96f-4844-89bd-5874a5de4393" />
      </g>
    </g>
    <g
       style="fill:#000000;fill-opacity:1;stroke-width:0.920254"
       id="id-12208d8b-cc6a-4e02-9a59-39c8800ab016"
       transform="matrix(0.38334863,0,0,0.38334863,46.030704,6.3643383)">
      <g
         transform="translate(148.712,146.72)"
         id="g3813"
         style="stroke-width:0.920254">
        <path
           style="stroke:none;stroke-width:0.920254"
           d="m 3.296875,2.390625 c 0,-0.03125 0,-0.046875 -0.171875,-0.21875 C 1.890625,0.921875 1.5625,-0.96875 1.5625,-2.5 c 0,-1.734375 0.375,-3.46875 1.609375,-4.703125 0.125,-0.125 0.125,-0.140625 0.125,-0.171875 0,-0.078125 -0.03125,-0.109375 -0.09375,-0.109375 -0.109375,0 -1,0.6875 -1.59375,1.953125 -0.5,1.09375 -0.625,2.203125 -0.625,3.03125 0,0.78125 0.109375,1.984375 0.65625,3.125 C 2.25,1.84375 3.09375,2.5 3.203125,2.5 c 0.0625,0 0.09375,-0.03125 0.09375,-0.109375 z m 0,0"
           id="id-2f8af058-db10-4622-8531-5fabafbbb1d6" />
      </g>
      <g
         transform="translate(152.586,146.72)"
         id="g3816"
         style="stroke-width:0.920254">
        <path
           style="stroke:none;stroke-width:0.920254"
           d="M 1.765625,-4.40625 0.375,-4.296875 v 0.3125 c 0.640625,0 0.734375,0.0625 0.734375,0.546875 V -0.75 c 0,0.4375 -0.109375,0.4375 -0.78125,0.4375 V 0 C 0.640625,-0.015625 1.1875,-0.03125 1.421875,-0.03125 1.78125,-0.03125 2.125,-0.015625 2.46875,0 v -0.3125 c -0.671875,0 -0.703125,-0.046875 -0.703125,-0.4375 z m 0.03125,-1.734375 c 0,-0.3125 -0.234375,-0.53125 -0.515625,-0.53125 -0.3125,0 -0.53125,0.265625 -0.53125,0.53125 0,0.265625 0.21875,0.53125 0.53125,0.53125 0.28125,0 0.515625,-0.21875 0.515625,-0.53125 z m 0,0"
           id="id-b5d3af41-fcff-401d-af4d-c584a2edbf3a" />
      </g>
      <g
         transform="translate(155.354,146.72)"
         id="g3819"
         style="stroke-width:0.920254">
        <path
           style="stroke:none;stroke-width:0.920254"
           d="M 1.765625,-4.40625 0.375,-4.296875 v 0.3125 c 0.640625,0 0.734375,0.0625 0.734375,0.546875 V -0.75 c 0,0.4375 -0.109375,0.4375 -0.78125,0.4375 V 0 C 0.640625,-0.015625 1.1875,-0.03125 1.421875,-0.03125 1.78125,-0.03125 2.125,-0.015625 2.46875,0 v -0.3125 c -0.671875,0 -0.703125,-0.046875 -0.703125,-0.4375 z m 0.03125,-1.734375 c 0,-0.3125 -0.234375,-0.53125 -0.515625,-0.53125 -0.3125,0 -0.53125,0.265625 -0.53125,0.53125 0,0.265625 0.21875,0.53125 0.53125,0.53125 0.28125,0 0.515625,-0.21875 0.515625,-0.53125 z m 0,0"
           id="id-f5f47f45-9410-43b8-9713-13ff8f2d4097" />
      </g>
      <g
         transform="translate(158.122,146.72)"
         id="g3822"
         style="stroke-width:0.920254">
        <path
           style="stroke:none;stroke-width:0.920254"
           d="m 2.875,-2.5 c 0,-0.765625 -0.109375,-1.96875 -0.65625,-3.109375 -0.59375,-1.21875 -1.453125,-1.875 -1.546875,-1.875 -0.0625,0 -0.109375,0.046875 -0.109375,0.109375 0,0.03125 0,0.046875 0.1875,0.234375 0.984375,0.984375 1.546875,2.5625 1.546875,4.640625 0,1.71875 -0.359375,3.46875 -1.59375,4.71875 C 0.5625,2.34375 0.5625,2.359375 0.5625,2.390625 0.5625,2.453125 0.609375,2.5 0.671875,2.5 0.765625,2.5 1.671875,1.8125 2.25,0.546875 2.765625,-0.546875 2.875,-1.65625 2.875,-2.5 Z m 0,0"
           id="id-84defb17-6698-4d47-a910-abc587e317b8" />
      </g>
    </g>
    <g
       style="fill:#000000;fill-opacity:1;stroke-width:0.920254"
       id="id-0002021a-1fb5-4ad1-b5f3-e3458bcd019e"
       transform="matrix(0.38334863,0,0,0.38334863,102.10694,1.7814054)">
      <g
         transform="translate(148.712,158.675)"
         id="g3826"
         style="stroke-width:0.920254">
        <path
           style="stroke:none;stroke-width:0.920254"
           d="m 3.296875,2.390625 c 0,-0.03125 0,-0.046875 -0.171875,-0.21875 C 1.890625,0.921875 1.5625,-0.96875 1.5625,-2.5 c 0,-1.734375 0.375,-3.46875 1.609375,-4.703125 0.125,-0.125 0.125,-0.140625 0.125,-0.171875 0,-0.078125 -0.03125,-0.109375 -0.09375,-0.109375 -0.109375,0 -1,0.6875 -1.59375,1.953125 -0.5,1.09375 -0.625,2.203125 -0.625,3.03125 0,0.78125 0.109375,1.984375 0.65625,3.125 C 2.25,1.84375 3.09375,2.5 3.203125,2.5 c 0.0625,0 0.09375,-0.03125 0.09375,-0.109375 z m 0,0"
           id="id-7ae103d2-bc2d-4c96-a513-d5d6f8b8a9e5" />
      </g>
      <g
         transform="translate(152.586,158.675)"
         id="g3829"
         style="stroke-width:0.920254">
        <path
           style="stroke:none;stroke-width:0.920254"
           d="M 1.765625,-4.40625 0.375,-4.296875 v 0.3125 c 0.640625,0 0.734375,0.0625 0.734375,0.546875 V -0.75 c 0,0.4375 -0.109375,0.4375 -0.78125,0.4375 V 0 C 0.640625,-0.015625 1.1875,-0.03125 1.421875,-0.03125 1.78125,-0.03125 2.125,-0.015625 2.46875,0 v -0.3125 c -0.671875,0 -0.703125,-0.046875 -0.703125,-0.4375 z m 0.03125,-1.734375 c 0,-0.3125 -0.234375,-0.53125 -0.515625,-0.53125 -0.3125,0 -0.53125,0.265625 -0.53125,0.53125 0,0.265625 0.21875,0.53125 0.53125,0.53125 0.28125,0 0.515625,-0.21875 0.515625,-0.53125 z m 0,0"
           id="id-1ac383bb-8d24-4f02-bb4a-9e79e82bd932" />
      </g>
      <g
         transform="translate(155.354,158.675)"
         id="g3832"
         style="stroke-width:0.920254">
        <path
           style="stroke:none;stroke-width:0.920254"
           d="M 1.765625,-4.40625 0.375,-4.296875 v 0.3125 c 0.640625,0 0.734375,0.0625 0.734375,0.546875 V -0.75 c 0,0.4375 -0.109375,0.4375 -0.78125,0.4375 V 0 C 0.640625,-0.015625 1.1875,-0.03125 1.421875,-0.03125 1.78125,-0.03125 2.125,-0.015625 2.46875,0 v -0.3125 c -0.671875,0 -0.703125,-0.046875 -0.703125,-0.4375 z m 0.03125,-1.734375 c 0,-0.3125 -0.234375,-0.53125 -0.515625,-0.53125 -0.3125,0 -0.53125,0.265625 -0.53125,0.53125 0,0.265625 0.21875,0.53125 0.53125,0.53125 0.28125,0 0.515625,-0.21875 0.515625,-0.53125 z m 0,0"
           id="id-e5b8bb12-4258-4a17-b7dc-c9fd1c2b9b55" />
      </g>
      <g
         transform="translate(158.122,158.675)"
         id="g3835"
         style="stroke-width:0.920254">
        <path
           style="stroke:none;stroke-width:0.920254"
           d="M 1.765625,-4.40625 0.375,-4.296875 v 0.3125 c 0.640625,0 0.734375,0.0625 0.734375,0.546875 V -0.75 c 0,0.4375 -0.109375,0.4375 -0.78125,0.4375 V 0 C 0.640625,-0.015625 1.1875,-0.03125 1.421875,-0.03125 1.78125,-0.03125 2.125,-0.015625 2.46875,0 v -0.3125 c -0.671875,0 -0.703125,-0.046875 -0.703125,-0.4375 z m 0.03125,-1.734375 c 0,-0.3125 -0.234375,-0.53125 -0.515625,-0.53125 -0.3125,0 -0.53125,0.265625 -0.53125,0.53125 0,0.265625 0.21875,0.53125 0.53125,0.53125 0.28125,0 0.515625,-0.21875 0.515625,-0.53125 z m 0,0"
           id="id-f162fd03-1691-4986-8ddd-6523039aff66" />
      </g>
      <g
         transform="translate(160.889,158.675)"
         id="g3838"
         style="stroke-width:0.920254">
        <path
           style="stroke:none;stroke-width:0.920254"
           d="m 2.875,-2.5 c 0,-0.765625 -0.109375,-1.96875 -0.65625,-3.109375 -0.59375,-1.21875 -1.453125,-1.875 -1.546875,-1.875 -0.0625,0 -0.109375,0.046875 -0.109375,0.109375 0,0.03125 0,0.046875 0.1875,0.234375 0.984375,0.984375 1.546875,2.5625 1.546875,4.640625 0,1.71875 -0.359375,3.46875 -1.59375,4.71875 C 0.5625,2.34375 0.5625,2.359375 0.5625,2.390625 0.5625,2.453125 0.609375,2.5 0.671875,2.5 0.765625,2.5 1.671875,1.8125 2.25,0.546875 2.765625,-0.546875 2.875,-1.65625 2.875,-2.5 Z m 0,0"
           id="id-f0ba73dc-59ad-46f6-baac-1ce1695d1cb8" />
      </g>
    </g>
  </g>
</svg>
