<?xml version="1.0" encoding="UTF-8" standalone="no"?>
<!-- Created with Inkscape (http://www.inkscape.org/) -->

<svg
   width="118.59087mm"
   height="118.78558mm"
   viewBox="0 0 118.59087 118.78558"
   version="1.1"
   id="svg5"
   inkscape:version="1.2 (1:1.2.1+202207142221+cd75a1ee6d)"
   sodipodi:docname="spring-drop-mass.svg"
   xmlns:inkscape="http://www.inkscape.org/namespaces/inkscape"
   xmlns:sodipodi="http://sodipodi.sourceforge.net/DTD/sodipodi-0.dtd"
   xmlns="http://www.w3.org/2000/svg"
   xmlns:svg="http://www.w3.org/2000/svg">
  <sodipodi:namedview
     id="namedview7"
     pagecolor="#ffffff"
     bordercolor="#666666"
     borderopacity="1.0"
     inkscape:showpageshadow="2"
     inkscape:pageopacity="0.0"
     inkscape:pagecheckerboard="0"
     inkscape:deskcolor="#d1d1d1"
     inkscape:document-units="mm"
     showgrid="false"
     inkscape:zoom="2.3786088"
     inkscape:cx="97.325798"
     inkscape:cy="218.40498"
     inkscape:window-width="1920"
     inkscape:window-height="1035"
     inkscape:window-x="1920"
     inkscape:window-y="20"
     inkscape:window-maximized="1"
     inkscape:current-layer="layer1" />
  <defs
     id="defs2">
    <marker
       style="overflow:visible"
       id="Arrow1L"
       refX="0"
       refY="0"
       orient="auto-start-reverse"
       inkscape:stockid="Arrow1L"
       markerWidth="8.75"
       markerHeight="5"
       viewBox="0 0 8.75 5"
       inkscape:isstock="true"
       inkscape:collect="always"
       preserveAspectRatio="xMidYMid">
      <path
         d="M 0,0 5,-5 -12.5,0 5,5 Z"
         id="arrow1L"
         transform="scale(-0.5)" />
    </marker>
    <clipPath
       id="p8028f5304e"
       style="stroke-linecap:butt;stroke-linejoin:round">
      <rect
         height="217.44"
         width="334.79999"
         x="54"
         y="34.560001"
         id="rect16"
         style="stroke-linecap:butt;stroke-linejoin:round" />
    </clipPath>
  </defs>
  <g
     inkscape:label="Layer 1"
     inkscape:groupmode="layer"
     id="layer1"
     transform="translate(-31.825936,-74.09338)">
    <g
       id="g3663">
      <rect
         style="fill:#333333;fill-opacity:1;stroke:#1a1a1a;stroke-width:0.964999;stroke-linecap:round;stroke-linejoin:round;stroke-dasharray:none"
         id="rect3575"
         width="103.94094"
         height="5.1782894"
         x="39.150906"
         y="183.73518"
         rx="0.49735582"
         ry="0.18898818" />
      <g
         id="g3505">
        <rect
           style="fill:#ff7f2a;fill-opacity:1;stroke:#1a1a1a;stroke-width:0.665001;stroke-linecap:round;stroke-linejoin:round"
           id="rect184"
           width="22.314062"
           height="22.314062"
           x="56.150497"
           y="88.355469"
           rx="0.49735582"
           ry="0.18898818" />
        <rect
           style="fill:#808080;fill-opacity:1;stroke:#1a1a1a;stroke-width:0.665001;stroke-linecap:round;stroke-linejoin:round"
           id="rect950"
           width="35.037506"
           height="2.0315909"
           x="49.788776"
           y="122.92654"
           rx="0.49735582"
           ry="0.18898818" />
        <path
           style="fill:none;stroke:#000000;stroke-width:0.264583px;stroke-linecap:butt;stroke-linejoin:miter;stroke-opacity:1"
           d="M 65.003049,83.572198 62.923942,79.889213"
           id="path1015" />
        <path
           style="fill:none;stroke:#000000;stroke-width:0.264583px;stroke-linecap:butt;stroke-linejoin:miter;stroke-opacity:1"
           d="M 67.30449,85.885028 V 77.576383"
           id="path1017" />
        <path
           style="fill:none;stroke:#000000;stroke-width:0.264583px;stroke-linecap:butt;stroke-linejoin:miter;stroke-opacity:1"
           d="m 69.612027,84.118938 2.07907,-4.776466"
           id="path1019" />
        <path
           inkscape:connector-curvature="0"
           id="path11"
           style="fill:none;stroke:#333333;stroke-width:4.4255;stroke-linecap:square;stroke-linejoin:round;stroke-miterlimit:4;stroke-dasharray:none"
           d="m 69.218182,44.443636 1.522538,0.195422 1.517722,0.585494 1.50811,0.973249 1.493737,1.357156 1.474663,1.735697 1.450963,2.107373 1.422729,2.470717 1.390074,2.824289 1.353127,3.166694 1.312034,3.496576 1.266957,3.812631 1.218074,4.113609 1.165581,4.398319 1.109682,4.665638 2.039169,10.058446 1.780481,10.893994 1.503285,11.55738 1.211964,12.03814 0.91112,12.32869 0.605506,12.42439 0.299955,12.32378 -7.1e-4,12.02842 -0.291733,11.54299 -0.568517,10.87515 -0.82669,10.03546 -1.062169,9.03719 -1.271236,7.89611 -1.450586,6.63026 -0.782473,2.80686 -0.81491,2.45277 -0.84292,2.08898 -0.866391,1.71692 -0.885231,1.33808 -0.899367,0.95394 -0.90874,0.56603 -0.913317,0.17588 -0.913075,-0.21495 -0.908018,-0.60495 -0.898167,-0.99255 -0.883558,-1.37622 -0.864251,-1.75446 -0.840321,-2.12575 -0.811864,-2.48864 -0.778991,-2.84169 -0.741833,-3.18349 -1.355801,-7.34077 -1.159726,-8.54035 -0.935695,-9.60497 -0.68725,-10.51782 -0.418316,-11.26447 -0.133142,-11.83311 0.163763,-12.21476 0.467711,-12.40339 0.773896,-12.39602 1.077481,-12.19278 1.373668,-11.79684 1.657777,-11.214517 1.925318,-10.45496 2.172064,-9.530197 1.170987,-4.370614 1.223129,-4.084224 1.271639,-3.781683 1.316325,-3.464189 1.357011,-3.132995 1.393535,-2.789412 1.425753,-2.434799 1.453538,-2.070556 1.476781,-1.698127 1.495387,-1.318983 1.509286,-0.934621 1.51842,-0.546565 1.522755,-0.156347 1.522271,0.23449 1.51698,0.624398 1.50688,1.011838 1.49204,1.395277 1.4725,1.773198 1.44835,2.144106 1.41966,2.506537 1.38657,2.859056 1.3492,3.200267 1.3077,3.528825 1.26224,3.843427 1.21298,4.142831 1.16014,4.425852 1.10392,4.691372 2.02674,10.104118 1.76702,10.931347 1.48902,11.58583 1.19711,12.05725 0.89591,12.33811 0.59019,12.42403 0.28476,12.31361 -0.0155,12.00861 -0.30595,11.51385 -0.5819,10.83715 -0.83903,9.98919 -1.07328,8.98339 -1.28094,7.83562 -1.45872,6.56405 -0.78591,2.77193 -0.81791,2.4168 -0.84548,2.05212 -0.86848,1.67931 -0.88686,1.29988 -0.90052,0.91529 -0.90941,0.5271 -0.91351,0.1368 -0.91279,-0.25402 -0.90725,-0.64384 -0.89691,-1.03112 -0.88184,-1.41431 -0.86207,-1.79192 -0.83767,-2.16245 -0.80878,-2.52441 -0.77546,-2.87639 -0.73789,-3.21701 -1.34671,-7.40366 -1.14916,-8.59694 -0.92382,-9.65435 -0.67426,-10.55921 -0.40441,-11.29721 -0.11853,-11.8567 0.17883,-12.22881 0.48301,-12.40769 0.78918,-12.3905 1.0925,-12.17751 1.3882,-11.7721 1.67158,-11.180651 1.93819,-10.412534 2.18378,-9.479874 1.17636,-4.342734 1.22814,-4.054677 1.27629,-3.750587 1.32057,-3.431665 1.36086,-3.099172 1.39695,-2.754424 1.42873,-2.398785 1.45607,-2.033658 1.47885,-1.66049 1.49699,-1.280756 1.51042,-0.895957 1.51907,-0.507615 1.52292,-0.117265 1.52196,0.273547 1.51618,0.663279 1.50562,1.050387 1.49029,1.433342 1.47029,1.810629 1.44568,2.180755 1.41655,2.542258 1.38302,2.893708 1.34524,3.233715 1.30333,3.560934 1.25748,3.874071 1.20785,4.171889 1.15467,4.45321 1.09811,4.71692 2.01426,10.149391 1.75352,10.968269 1.47471,11.61383 1.18223,12.07586 0.8807,12.34707 0.57487,12.42316 0.26959,12.30296 -0.0303,11.98833 -0.32012,11.48425 -0.59525,10.79872 -0.85132,9.94253 -1.08432,8.92922 -1.29056,7.77483 -1.46677,6.49757 -0.78931,2.73689 -0.82087,2.38074 -0.84798,2.01518 -0.87053,1.64164 -0.88844,1.26163 -0.90162,0.87661 -0.91004,0.48813 -0.91366,0.0977 -0.91245,-0.29307 -0.90643,-0.68271 -0.89562,-1.06964 -0.88007,-1.45236 -0.85983,-1.82931 -0.83499,-2.19905 -0.80564,-2.56008 -0.7719,-2.91099 -0.7339,-3.25039 -1.33754,-7.46628 -1.13853,-8.65318 -0.91189,-9.70334 -0.66121,-10.60019 -0.39045,-11.32951 -0.10391,-11.87981 0.19392,-12.24238 0.49831,-12.41149 0.80445,-12.38449 1.10751,-12.16177 1.4027,-11.74688 1.68535,-11.146352 1.951,-10.369697 1.06864,-4.841842 1.1268,-4.587333 1.18169,-4.314683 1.23313,-4.024971 1.28089,-3.719341 1.32479,-3.399005 1.36465,-3.065227 1.40033,-2.719327 1.43167,-2.362675 1.45855,-1.996679 1.48088,-1.622788 1.49854,-1.242479 1.5115,-0.857257 1.51967,-0.468645 1.52304,-0.07818 1.5216,0.312594 1.51534,0.702133 1.5043,1.088895 1.4885,1.471351 1.46804,1.847988 1.44296,2.217317 1.41339,2.577879 1.37944,2.928246 1.34122,3.267034 1.29893,3.592902 1.25268,3.904563 1.2027,4.200782 1.14915,4.480391 1.09229,4.742282 2.00171,10.194262 1.73997,11.004762 1.46038,11.64136 1.16733,12.094 0.86546,12.35553 0.55956,12.42182 0.25442,12.29181 -0.0451,11.96757 -0.33427,11.45421 -0.60853,10.75986 -0.86356,9.89547 -1.09529,8.87471 -1.30011,7.71372 -1.47474,6.43084 -0.79267,2.70173 -0.82378,2.34459 -0.85044,1.97816 -0.87254,1.60391 -0.88996,1.22332 -0.90269,0.8379 -0.91061,0.44915 -0.91375,0.0586 -0.91207,-0.33212 -0.90556,-0.72155 -0.89428,-1.10813 -0.87826,-1.49033 -0.85755,-1.86664 -0.83226,-2.23557 -0.80246,-2.59565 -0.76828,-2.94547 -0.72988,-3.28365 -1.32829,-7.52858 -1.12783,-8.70908 -0.89989,-9.75196 -0.64812,-10.64074 -0.37646,-11.36136 -0.0892,-11.90245 0.20902,-12.25547 0.51361,-12.41481 0.81972,-12.37798 1.1225,-12.14555 1.41716,-11.7212 1.69908,-11.11161 1.96375,-10.326449 1.0746,-4.817237 1.13244,-4.560867 1.187,-4.286461 1.23807,-3.995104 1.28545,-3.68795 1.32896,-3.36621 1.36841,-3.03116 1.40366,-2.684124 1.43456,-2.326472 1.46099,-1.959621 1.48286,-1.585021 1.50005,-1.204153 1.51253,-0.818523 1.52022,-0.429656 1.52312,-0.03909 1.52119,0.351629 1.51445,0.74096 1.50293,1.127359 1.48667,1.509301 1.46573,1.885274 1.44021,2.253792 1.41019,2.613397 1.3758,2.962669 1.33718,3.300223 1.29447,3.624729 1.24785,3.934899 1.1975,4.22951 1.14362,4.507395 1.08642,4.767455 1.98911,10.23873 1.72639,11.040816 1.446,11.66843 1.15241,12.11167 0.85022,12.3635 0.54424,12.41997 0.23928,12.28018 -0.0598,11.94634 -0.34837,11.42371 -0.62178,10.72058 -0.87572,9.84802 -1.10621,8.81985 -1.30958,7.65231 -1.48263,6.36385 -0.79597,2.66648 -0.82666,2.30834 -0.85285,1.94106 -0.87449,1.56611 -0.89146,1.18497 -0.90369,0.79915 -0.91114,0.41015 -0.9138,0.0196 -0.91163,-0.37114 -0.90465,-0.76037 -0.89289,-1.14657 -0.8764,-1.52825 -0.85523,-1.90389 -0.82947,-2.272 -0.79924,-2.63112 -0.76464,-2.97983 -0.7258,-3.31677 -1.31898,-7.5906 -1.11704,-8.76464 -0.88784,-9.80018 -0.63497,-10.68087 -0.36244,-11.39276 -0.0746,-11.92463 0.22414,-12.26807 0.52892,-12.41764 0.83498,-12.37099 1.13746,-12.12884 1.4316,-11.69505 1.71275,-11.076431 1.97646,-10.282793 1.08053,-4.792441 1.13804,-4.534221 1.19227,-4.258069 1.24298,-3.965081 1.28998,-3.656411 1.33309,-3.333283 1.37213,-2.996973 1.40694,-2.648813 1.43741,-2.290177 1.46339,-1.922486 1.48478,-1.547192 1.50151,-1.165779 1.51352,-0.779756 1.52073,-0.390651 h 1.52314 l 1.52073,0.390651 1.51351,0.779756 1.50152,1.165779 1.48478,1.547192 1.46339,1.922486 1.43741,2.290177 1.40694,2.648813 1.37213,2.996973 1.33309,3.333283 1.28998,3.656411 1.24298,3.965081 1.19227,4.258069 1.13804,4.534221 1.08053,4.792441 1.97646,10.282793 1.71275,11.076431 1.4316,11.69505 1.13746,12.12884 0.83498,12.37099 0.52892,12.41764 0.22414,12.26807 -0.0746,11.92463 -0.36244,11.39276 -0.63497,10.68087 -0.88784,9.80018 -1.11705,8.76464 -1.31897,7.5906 -1.49044,6.2966 -0.79924,2.63112 -0.82947,2.272 -0.85523,1.90389 -0.8764,1.52825 -0.89289,1.14657 -0.90465,0.76037 -0.91163,0.37114 -0.9138,-0.0196 -0.91115,-0.41015 -0.90369,-0.79915 -0.89145,-1.18497 -0.87449,-1.56611 -0.85286,-1.94106 -0.82665,-2.30834 -0.79597,-2.66648 -0.76094,-3.01408 -1.40008,-7.02196 -1.21149,-8.2524 -0.99414,-9.35243 -0.75144,-10.30468 -0.48724,-11.09407 -0.20572,-11.70818 0.0887,-12.13726 0.39133,-12.37454 0.6974,-12.41629 1.0021,-12.26183 1.30057,-11.9136 1.58813,-11.37712 1.86022,-10.660851 2.11255,-9.77612 1.14362,-4.507395 1.1975,-4.22951 1.24785,-3.934899 1.29447,-3.624729 1.33718,-3.300223 1.3758,-2.962669 1.41019,-2.613397 1.44021,-2.253792 1.46573,-1.885274 1.48667,-1.509301 1.50293,-1.127359 1.51445,-0.74096 1.52119,-0.351629 1.52311,0.03909 1.52023,0.429656 1.51253,0.818523 1.50005,1.204153 1.48286,1.585021 1.46099,1.959621 1.43456,2.326472 1.40366,2.684124 1.36841,3.03116 1.32896,3.36621 1.28545,3.68795 1.23807,3.995104 1.187,4.286461 1.13244,4.560867 2.08832,9.871795 1.83383,10.740268 1.56,11.439023 1.27114,11.95701 0.97182,12.28606 0.66678,12.42095 0.36083,12.35958 0.0588,12.10289 -0.23452,11.65496 -0.51451,11.02284 -0.77675,10.21654 -1.01707,9.24881 -1.2317,8.13492 -1.41724,6.89248 -0.76828,2.94547 -0.80246,2.59565 -0.83226,2.23557 -0.85755,1.86664 -0.87826,1.49033 -0.89428,1.10813 -0.90556,0.72155 -0.91207,0.33212 -0.91375,-0.0586 -0.91062,-0.44915 -0.90268,-0.8379 -0.88997,-1.22332 -0.87253,-1.60391 -0.85044,-1.97816 -0.82378,-2.34459 -0.79267,-2.70173 -0.7572,-3.04821 -1.39138,-7.08629 -1.20128,-8.31065 -0.98258,-9.40369 -0.7387,-10.34812 -0.47355,-11.12904 -0.19126,-11.73409 0.10367,-12.15372 0.40659,-12.3813 0.71271,-12.41322 1.0172,-12.24898 1.31525,-11.89119 1.60214,-11.345495 1.87334,-10.62051 2.12457,-9.727701 1.14916,-4.480391 1.2027,-4.200782 1.25268,-3.904563 1.29892,-3.592902 1.34123,-3.267034 1.37944,-2.928246 1.41339,-2.577879 1.44296,-2.217317 1.46804,-1.847988 1.4885,-1.471351 1.5043,-1.088895 1.51534,-0.702133 1.5216,-0.312594 1.52304,0.07818 1.51967,0.468645 1.5115,0.857257 1.49854,1.242479 1.48088,1.622788 1.45855,1.996679 1.43167,2.362675 1.40033,2.719327 1.36465,3.065227 1.32479,3.399005 1.28089,3.719341 1.23312,4.024971 1.1817,4.314683 1.1268,4.587333 2.07612,9.919048 1.82056,10.779339 1.54588,11.469294 1.25638,11.97801 0.95667,12.29744 0.65146,12.42255 0.3456,12.35136 0.0439,12.08499 -0.24888,11.62765 -0.52808,10.98657 -0.78932,10.17188 -1.02844,9.19645 -1.2417,8.07569 -1.42569,6.82733 -0.7719,2.91099 -0.80564,2.56008 -0.83499,2.19905 -0.85983,1.82931 -0.88007,1.45236 -0.89562,1.06964 -0.90643,0.68271 -0.91245,0.29307 -0.91366,-0.0977 -0.91004,-0.48813 -0.90162,-0.87661 -0.88844,-1.26163 -0.87053,-1.64164 -0.84798,-2.01518 -0.82087,-2.38074 -0.78931,-2.73689 -0.75342,-3.08222 -1.3826,-7.15033 -1.19101,-8.36858 -0.97094,-9.45457 -0.72592,-10.39116 -0.4598,-11.16356 -0.17678,-11.75955 0.11866,-12.1697 0.42186,-12.38755 0.72801,-12.40966 1.0323,-12.23566 1.3299,-11.86831 1.61611,-11.313414 1.88641,-10.579748 2.13654,-9.678898 1.15466,-4.45321 1.20786,-4.171889 1.25748,-3.874071 1.30333,-3.560934 1.34524,-3.233715 1.38302,-2.893708 1.41655,-2.542258 1.44567,-2.180755 1.4703,-1.810629 1.49029,-1.433342 1.50562,-1.050387 1.51618,-0.663279 1.52196,-0.273547 1.52292,0.117265 1.51907,0.507615 1.51042,0.895957 1.49699,1.280756 1.47885,1.66049 1.45607,2.033658 1.42873,2.398785 1.39695,2.754424 1.36086,3.099172 1.32057,3.431665 1.27628,3.750587 1.22815,4.054677 1.17636,4.342734 1.12112,4.613617 2.06386,9.965909 1.80726,10.817983 1.53171,11.49911 1.2416,11.99853 0.9415,12.30834 0.63615,12.42366 0.33036,12.34266 0.029,12.06661 -0.2632,11.59989 -0.54161,10.94986 -0.80183,10.1268 -1.03975,9.14373 -1.25162,8.01614 -1.43407,6.76191 -0.77546,2.87639 -0.80878,2.52441 -0.83767,2.16245 -0.86207,1.79192 -0.88184,1.41431 -0.89691,1.03112 -0.90725,0.64384 -0.91279,0.25402 -0.91351,-0.1368 -0.90941,-0.5271 -0.90052,-0.91529 -0.88686,-1.29988 -0.86848,-1.67931 -0.84548,-2.05212 -0.81791,-2.4168 -0.78591,-2.77193 -0.7496,-3.1161 -1.37375,-7.2141 -1.18065,-8.42617 -0.95926,-9.50508 -0.71308,-10.4338 -0.44601,-11.19764 -0.16227,-11.78453 0.13368,-12.1852 0.43714,-12.39333 0.74331,-12.4056 1.04738,-12.22184 1.34452,-11.84496 1.63004,-11.280897 1.89943,-10.538569 2.14844,-9.629711 1.16014,-4.425852 1.21298,-4.142831 1.26224,-3.843427 1.3077,-3.528825 1.3492,-3.200267 1.38657,-2.859056 1.41966,-2.506537 1.44835,-2.144106 1.4725,-1.773198 1.49204,-1.395277 1.50688,-1.011838 1.51698,-0.624398 1.52227,-0.23449 1.52276,0.156347 1.51842,0.546565 1.50928,0.934621 1.49539,1.318983 1.47678,1.698127 1.45354,2.070556 1.42575,2.434799 1.39354,2.789412 1.35701,3.132995 1.31632,3.464189 1.27164,3.781683 1.22313,4.084224 1.17099,4.370614 1.11542,4.639719 2.05154,10.012375 1.79389,10.8562 1.51752,11.52848 1.22679,12.01857 0.92632,12.31876 0.62082,12.42427 0.31516,12.33346 0.0141,12.04776 -0.27748,11.57166 -0.55509,10.91272 -0.81428,10.08134 -1.051,9.09063 -1.26146,7.95629 -1.44237,6.69621 -0.77899,2.84169 -0.81186,2.48864 -0.84032,2.12575 -0.86426,1.75446 -0.88355,1.37622 -0.89817,0.99255 -0.90802,0.60495 -0.91307,0.21495 -0.91332,-0.17588 -0.90874,-0.56603 -0.89937,-0.95394 -0.88523,-1.33808 -0.86639,-1.71692 -0.84292,-2.08898 -0.81491,-2.45277 -0.78247,-2.80686 -0.74574,-3.14986 -1.36481,-7.27758 -1.17023,-8.48342 -0.9475,-9.55522 -0.7002,-10.47602 -0.43218,-11.23127 -0.14772,-11.80905 0.14871,-12.20022 0.45242,-12.39861 0.75861,-12.40106 1.06244,-12.20755 1.35911,-11.82114 1.64392,-11.247922 1.91241,-10.496972 2.16028,-9.580144 1.16558,-4.398319 1.21807,-4.113609 1.26696,-3.812631 1.31203,-3.496576 1.35313,-3.166694 1.39008,-2.824289 1.42272,-2.470717 1.45097,-2.107373 1.47466,-1.735697 1.49374,-1.357156 1.50811,-0.973249 1.51772,-0.585494 1.52254,-0.195422 v 0"
           clip-path="url(#p8028f5304e)"
           transform="matrix(0,0.18931412,-0.05220378,0,74.780404,112.54205)" />
        <rect
           style="fill:#ff7f2a;fill-opacity:1;stroke:#1a1a1a;stroke-width:0.665001;stroke-linecap:round;stroke-linejoin:round"
           id="rect3192"
           width="22.314062"
           height="22.314062"
           x="103.7782"
           y="127.8616"
           rx="0.49735582"
           ry="0.18898818" />
        <rect
           style="fill:#808080;fill-opacity:1;stroke:#1a1a1a;stroke-width:0.665001;stroke-linecap:round;stroke-linejoin:round"
           id="rect3194"
           width="35.037506"
           height="2.0315909"
           x="97.416473"
           y="150.84067"
           rx="0.49735582"
           ry="0.18898818" />
        <path
           inkscape:connector-curvature="0"
           id="path3196"
           style="fill:none;stroke:#333333;stroke-width:6.15087;stroke-linecap:square;stroke-linejoin:round;stroke-miterlimit:4;stroke-dasharray:none"
           d="m 69.218182,44.443636 1.522538,0.195422 1.517722,0.585494 1.50811,0.973249 1.493737,1.357156 1.474663,1.735697 1.450963,2.107373 1.422729,2.470717 1.390074,2.824289 1.353127,3.166694 1.312034,3.496576 1.266957,3.812631 1.218074,4.113609 1.165581,4.398319 1.109682,4.665638 2.039169,10.058446 1.780481,10.893994 1.503285,11.55738 1.211964,12.03814 0.91112,12.32869 0.605506,12.42439 0.299955,12.32378 -7.1e-4,12.02842 -0.291733,11.54299 -0.568517,10.87515 -0.82669,10.03546 -1.062169,9.03719 -1.271236,7.89611 -1.450586,6.63026 -0.782473,2.80686 -0.81491,2.45277 -0.84292,2.08898 -0.866391,1.71692 -0.885231,1.33808 -0.899367,0.95394 -0.90874,0.56603 -0.913317,0.17588 -0.913075,-0.21495 -0.908018,-0.60495 -0.898167,-0.99255 -0.883558,-1.37622 -0.864251,-1.75446 -0.840321,-2.12575 -0.811864,-2.48864 -0.778991,-2.84169 -0.741833,-3.18349 -1.355801,-7.34077 -1.159726,-8.54035 -0.935695,-9.60497 -0.68725,-10.51782 -0.418316,-11.26447 -0.133142,-11.83311 0.163763,-12.21476 0.467711,-12.40339 0.773896,-12.39602 1.077481,-12.19278 1.373668,-11.79684 1.657777,-11.214517 1.925318,-10.45496 2.172064,-9.530197 1.170987,-4.370614 1.223129,-4.084224 1.271639,-3.781683 1.316325,-3.464189 1.357011,-3.132995 1.393535,-2.789412 1.425753,-2.434799 1.453538,-2.070556 1.476781,-1.698127 1.495387,-1.318983 1.509286,-0.934621 1.51842,-0.546565 1.522755,-0.156347 1.522271,0.23449 1.51698,0.624398 1.50688,1.011838 1.49204,1.395277 1.4725,1.773198 1.44835,2.144106 1.41966,2.506537 1.38657,2.859056 1.3492,3.200267 1.3077,3.528825 1.26224,3.843427 1.21298,4.142831 1.16014,4.425852 1.10392,4.691372 2.02674,10.104118 1.76702,10.931347 1.48902,11.58583 1.19711,12.05725 0.89591,12.33811 0.59019,12.42403 0.28476,12.31361 -0.0155,12.00861 -0.30595,11.51385 -0.5819,10.83715 -0.83903,9.98919 -1.07328,8.98339 -1.28094,7.83562 -1.45872,6.56405 -0.78591,2.77193 -0.81791,2.4168 -0.84548,2.05212 -0.86848,1.67931 -0.88686,1.29988 -0.90052,0.91529 -0.90941,0.5271 -0.91351,0.1368 -0.91279,-0.25402 -0.90725,-0.64384 -0.89691,-1.03112 -0.88184,-1.41431 -0.86207,-1.79192 -0.83767,-2.16245 -0.80878,-2.52441 -0.77546,-2.87639 -0.73789,-3.21701 -1.34671,-7.40366 -1.14916,-8.59694 -0.92382,-9.65435 -0.67426,-10.55921 -0.40441,-11.29721 -0.11853,-11.8567 0.17883,-12.22881 0.48301,-12.40769 0.78918,-12.3905 1.0925,-12.17751 1.3882,-11.7721 1.67158,-11.180651 1.93819,-10.412534 2.18378,-9.479874 1.17636,-4.342734 1.22814,-4.054677 1.27629,-3.750587 1.32057,-3.431665 1.36086,-3.099172 1.39695,-2.754424 1.42873,-2.398785 1.45607,-2.033658 1.47885,-1.66049 1.49699,-1.280756 1.51042,-0.895957 1.51907,-0.507615 1.52292,-0.117265 1.52196,0.273547 1.51618,0.663279 1.50562,1.050387 1.49029,1.433342 1.47029,1.810629 1.44568,2.180755 1.41655,2.542258 1.38302,2.893708 1.34524,3.233715 1.30333,3.560934 1.25748,3.874071 1.20785,4.171889 1.15467,4.45321 1.09811,4.71692 2.01426,10.149391 1.75352,10.968269 1.47471,11.61383 1.18223,12.07586 0.8807,12.34707 0.57487,12.42316 0.26959,12.30296 -0.0303,11.98833 -0.32012,11.48425 -0.59525,10.79872 -0.85132,9.94253 -1.08432,8.92922 -1.29056,7.77483 -1.46677,6.49757 -0.78931,2.73689 -0.82087,2.38074 -0.84798,2.01518 -0.87053,1.64164 -0.88844,1.26163 -0.90162,0.87661 -0.91004,0.48813 -0.91366,0.0977 -0.91245,-0.29307 -0.90643,-0.68271 -0.89562,-1.06964 -0.88007,-1.45236 -0.85983,-1.82931 -0.83499,-2.19905 -0.80564,-2.56008 -0.7719,-2.91099 -0.7339,-3.25039 -1.33754,-7.46628 -1.13853,-8.65318 -0.91189,-9.70334 -0.66121,-10.60019 -0.39045,-11.32951 -0.10391,-11.87981 0.19392,-12.24238 0.49831,-12.41149 0.80445,-12.38449 1.10751,-12.16177 1.4027,-11.74688 1.68535,-11.146352 1.951,-10.369697 1.06864,-4.841842 1.1268,-4.587333 1.18169,-4.314683 1.23313,-4.024971 1.28089,-3.719341 1.32479,-3.399005 1.36465,-3.065227 1.40033,-2.719327 1.43167,-2.362675 1.45855,-1.996679 1.48088,-1.622788 1.49854,-1.242479 1.5115,-0.857257 1.51967,-0.468645 1.52304,-0.07818 1.5216,0.312594 1.51534,0.702133 1.5043,1.088895 1.4885,1.471351 1.46804,1.847988 1.44296,2.217317 1.41339,2.577879 1.37944,2.928246 1.34122,3.267034 1.29893,3.592902 1.25268,3.904563 1.2027,4.200782 1.14915,4.480391 1.09229,4.742282 2.00171,10.194262 1.73997,11.004762 1.46038,11.64136 1.16733,12.094 0.86546,12.35553 0.55956,12.42182 0.25442,12.29181 -0.0451,11.96757 -0.33427,11.45421 -0.60853,10.75986 -0.86356,9.89547 -1.09529,8.87471 -1.30011,7.71372 -1.47474,6.43084 -0.79267,2.70173 -0.82378,2.34459 -0.85044,1.97816 -0.87254,1.60391 -0.88996,1.22332 -0.90269,0.8379 -0.91061,0.44915 -0.91375,0.0586 -0.91207,-0.33212 -0.90556,-0.72155 -0.89428,-1.10813 -0.87826,-1.49033 -0.85755,-1.86664 -0.83226,-2.23557 -0.80246,-2.59565 -0.76828,-2.94547 -0.72988,-3.28365 -1.32829,-7.52858 -1.12783,-8.70908 -0.89989,-9.75196 -0.64812,-10.64074 -0.37646,-11.36136 -0.0892,-11.90245 0.20902,-12.25547 0.51361,-12.41481 0.81972,-12.37798 1.1225,-12.14555 1.41716,-11.7212 1.69908,-11.11161 1.96375,-10.326449 1.0746,-4.817237 1.13244,-4.560867 1.187,-4.286461 1.23807,-3.995104 1.28545,-3.68795 1.32896,-3.36621 1.36841,-3.03116 1.40366,-2.684124 1.43456,-2.326472 1.46099,-1.959621 1.48286,-1.585021 1.50005,-1.204153 1.51253,-0.818523 1.52022,-0.429656 1.52312,-0.03909 1.52119,0.351629 1.51445,0.74096 1.50293,1.127359 1.48667,1.509301 1.46573,1.885274 1.44021,2.253792 1.41019,2.613397 1.3758,2.962669 1.33718,3.300223 1.29447,3.624729 1.24785,3.934899 1.1975,4.22951 1.14362,4.507395 1.08642,4.767455 1.98911,10.23873 1.72639,11.040816 1.446,11.66843 1.15241,12.11167 0.85022,12.3635 0.54424,12.41997 0.23928,12.28018 -0.0598,11.94634 -0.34837,11.42371 -0.62178,10.72058 -0.87572,9.84802 -1.10621,8.81985 -1.30958,7.65231 -1.48263,6.36385 -0.79597,2.66648 -0.82666,2.30834 -0.85285,1.94106 -0.87449,1.56611 -0.89146,1.18497 -0.90369,0.79915 -0.91114,0.41015 -0.9138,0.0196 -0.91163,-0.37114 -0.90465,-0.76037 -0.89289,-1.14657 -0.8764,-1.52825 -0.85523,-1.90389 -0.82947,-2.272 -0.79924,-2.63112 -0.76464,-2.97983 -0.7258,-3.31677 -1.31898,-7.5906 -1.11704,-8.76464 -0.88784,-9.80018 -0.63497,-10.68087 -0.36244,-11.39276 -0.0746,-11.92463 0.22414,-12.26807 0.52892,-12.41764 0.83498,-12.37099 1.13746,-12.12884 1.4316,-11.69505 1.71275,-11.076431 1.97646,-10.282793 1.08053,-4.792441 1.13804,-4.534221 1.19227,-4.258069 1.24298,-3.965081 1.28998,-3.656411 1.33309,-3.333283 1.37213,-2.996973 1.40694,-2.648813 1.43741,-2.290177 1.46339,-1.922486 1.48478,-1.547192 1.50151,-1.165779 1.51352,-0.779756 1.52073,-0.390651 h 1.52314 l 1.52073,0.390651 1.51351,0.779756 1.50152,1.165779 1.48478,1.547192 1.46339,1.922486 1.43741,2.290177 1.40694,2.648813 1.37213,2.996973 1.33309,3.333283 1.28998,3.656411 1.24298,3.965081 1.19227,4.258069 1.13804,4.534221 1.08053,4.792441 1.97646,10.282793 1.71275,11.076431 1.4316,11.69505 1.13746,12.12884 0.83498,12.37099 0.52892,12.41764 0.22414,12.26807 -0.0746,11.92463 -0.36244,11.39276 -0.63497,10.68087 -0.88784,9.80018 -1.11705,8.76464 -1.31897,7.5906 -1.49044,6.2966 -0.79924,2.63112 -0.82947,2.272 -0.85523,1.90389 -0.8764,1.52825 -0.89289,1.14657 -0.90465,0.76037 -0.91163,0.37114 -0.9138,-0.0196 -0.91115,-0.41015 -0.90369,-0.79915 -0.89145,-1.18497 -0.87449,-1.56611 -0.85286,-1.94106 -0.82665,-2.30834 -0.79597,-2.66648 -0.76094,-3.01408 -1.40008,-7.02196 -1.21149,-8.2524 -0.99414,-9.35243 -0.75144,-10.30468 -0.48724,-11.09407 -0.20572,-11.70818 0.0887,-12.13726 0.39133,-12.37454 0.6974,-12.41629 1.0021,-12.26183 1.30057,-11.9136 1.58813,-11.37712 1.86022,-10.660851 2.11255,-9.77612 1.14362,-4.507395 1.1975,-4.22951 1.24785,-3.934899 1.29447,-3.624729 1.33718,-3.300223 1.3758,-2.962669 1.41019,-2.613397 1.44021,-2.253792 1.46573,-1.885274 1.48667,-1.509301 1.50293,-1.127359 1.51445,-0.74096 1.52119,-0.351629 1.52311,0.03909 1.52023,0.429656 1.51253,0.818523 1.50005,1.204153 1.48286,1.585021 1.46099,1.959621 1.43456,2.326472 1.40366,2.684124 1.36841,3.03116 1.32896,3.36621 1.28545,3.68795 1.23807,3.995104 1.187,4.286461 1.13244,4.560867 2.08832,9.871795 1.83383,10.740268 1.56,11.439023 1.27114,11.95701 0.97182,12.28606 0.66678,12.42095 0.36083,12.35958 0.0588,12.10289 -0.23452,11.65496 -0.51451,11.02284 -0.77675,10.21654 -1.01707,9.24881 -1.2317,8.13492 -1.41724,6.89248 -0.76828,2.94547 -0.80246,2.59565 -0.83226,2.23557 -0.85755,1.86664 -0.87826,1.49033 -0.89428,1.10813 -0.90556,0.72155 -0.91207,0.33212 -0.91375,-0.0586 -0.91062,-0.44915 -0.90268,-0.8379 -0.88997,-1.22332 -0.87253,-1.60391 -0.85044,-1.97816 -0.82378,-2.34459 -0.79267,-2.70173 -0.7572,-3.04821 -1.39138,-7.08629 -1.20128,-8.31065 -0.98258,-9.40369 -0.7387,-10.34812 -0.47355,-11.12904 -0.19126,-11.73409 0.10367,-12.15372 0.40659,-12.3813 0.71271,-12.41322 1.0172,-12.24898 1.31525,-11.89119 1.60214,-11.345495 1.87334,-10.62051 2.12457,-9.727701 1.14916,-4.480391 1.2027,-4.200782 1.25268,-3.904563 1.29892,-3.592902 1.34123,-3.267034 1.37944,-2.928246 1.41339,-2.577879 1.44296,-2.217317 1.46804,-1.847988 1.4885,-1.471351 1.5043,-1.088895 1.51534,-0.702133 1.5216,-0.312594 1.52304,0.07818 1.51967,0.468645 1.5115,0.857257 1.49854,1.242479 1.48088,1.622788 1.45855,1.996679 1.43167,2.362675 1.40033,2.719327 1.36465,3.065227 1.32479,3.399005 1.28089,3.719341 1.23312,4.024971 1.1817,4.314683 1.1268,4.587333 2.07612,9.919048 1.82056,10.779339 1.54588,11.469294 1.25638,11.97801 0.95667,12.29744 0.65146,12.42255 0.3456,12.35136 0.0439,12.08499 -0.24888,11.62765 -0.52808,10.98657 -0.78932,10.17188 -1.02844,9.19645 -1.2417,8.07569 -1.42569,6.82733 -0.7719,2.91099 -0.80564,2.56008 -0.83499,2.19905 -0.85983,1.82931 -0.88007,1.45236 -0.89562,1.06964 -0.90643,0.68271 -0.91245,0.29307 -0.91366,-0.0977 -0.91004,-0.48813 -0.90162,-0.87661 -0.88844,-1.26163 -0.87053,-1.64164 -0.84798,-2.01518 -0.82087,-2.38074 -0.78931,-2.73689 -0.75342,-3.08222 -1.3826,-7.15033 -1.19101,-8.36858 -0.97094,-9.45457 -0.72592,-10.39116 -0.4598,-11.16356 -0.17678,-11.75955 0.11866,-12.1697 0.42186,-12.38755 0.72801,-12.40966 1.0323,-12.23566 1.3299,-11.86831 1.61611,-11.313414 1.88641,-10.579748 2.13654,-9.678898 1.15466,-4.45321 1.20786,-4.171889 1.25748,-3.874071 1.30333,-3.560934 1.34524,-3.233715 1.38302,-2.893708 1.41655,-2.542258 1.44567,-2.180755 1.4703,-1.810629 1.49029,-1.433342 1.50562,-1.050387 1.51618,-0.663279 1.52196,-0.273547 1.52292,0.117265 1.51907,0.507615 1.51042,0.895957 1.49699,1.280756 1.47885,1.66049 1.45607,2.033658 1.42873,2.398785 1.39695,2.754424 1.36086,3.099172 1.32057,3.431665 1.27628,3.750587 1.22815,4.054677 1.17636,4.342734 1.12112,4.613617 2.06386,9.965909 1.80726,10.817983 1.53171,11.49911 1.2416,11.99853 0.9415,12.30834 0.63615,12.42366 0.33036,12.34266 0.029,12.06661 -0.2632,11.59989 -0.54161,10.94986 -0.80183,10.1268 -1.03975,9.14373 -1.25162,8.01614 -1.43407,6.76191 -0.77546,2.87639 -0.80878,2.52441 -0.83767,2.16245 -0.86207,1.79192 -0.88184,1.41431 -0.89691,1.03112 -0.90725,0.64384 -0.91279,0.25402 -0.91351,-0.1368 -0.90941,-0.5271 -0.90052,-0.91529 -0.88686,-1.29988 -0.86848,-1.67931 -0.84548,-2.05212 -0.81791,-2.4168 -0.78591,-2.77193 -0.7496,-3.1161 -1.37375,-7.2141 -1.18065,-8.42617 -0.95926,-9.50508 -0.71308,-10.4338 -0.44601,-11.19764 -0.16227,-11.78453 0.13368,-12.1852 0.43714,-12.39333 0.74331,-12.4056 1.04738,-12.22184 1.34452,-11.84496 1.63004,-11.280897 1.89943,-10.538569 2.14844,-9.629711 1.16014,-4.425852 1.21298,-4.142831 1.26224,-3.843427 1.3077,-3.528825 1.3492,-3.200267 1.38657,-2.859056 1.41966,-2.506537 1.44835,-2.144106 1.4725,-1.773198 1.49204,-1.395277 1.50688,-1.011838 1.51698,-0.624398 1.52227,-0.23449 1.52276,0.156347 1.51842,0.546565 1.50928,0.934621 1.49539,1.318983 1.47678,1.698127 1.45354,2.070556 1.42575,2.434799 1.39354,2.789412 1.35701,3.132995 1.31632,3.464189 1.27164,3.781683 1.22313,4.084224 1.17099,4.370614 1.11542,4.639719 2.05154,10.012375 1.79389,10.8562 1.51752,11.52848 1.22679,12.01857 0.92632,12.31876 0.62082,12.42427 0.31516,12.33346 0.0141,12.04776 -0.27748,11.57166 -0.55509,10.91272 -0.81428,10.08134 -1.051,9.09063 -1.26146,7.95629 -1.44237,6.69621 -0.77899,2.84169 -0.81186,2.48864 -0.84032,2.12575 -0.86426,1.75446 -0.88355,1.37622 -0.89817,0.99255 -0.90802,0.60495 -0.91307,0.21495 -0.91332,-0.17588 -0.90874,-0.56603 -0.89937,-0.95394 -0.88523,-1.33808 -0.86639,-1.71692 -0.84292,-2.08898 -0.81491,-2.45277 -0.78247,-2.80686 -0.74574,-3.14986 -1.36481,-7.27758 -1.17023,-8.48342 -0.9475,-9.55522 -0.7002,-10.47602 -0.43218,-11.23127 -0.14772,-11.80905 0.14871,-12.20022 0.45242,-12.39861 0.75861,-12.40106 1.06244,-12.20755 1.35911,-11.82114 1.64392,-11.247922 1.91241,-10.496972 2.16028,-9.580144 1.16558,-4.398319 1.21807,-4.113609 1.26696,-3.812631 1.31203,-3.496576 1.35313,-3.166694 1.39008,-2.824289 1.42272,-2.470717 1.45097,-2.107373 1.47466,-1.735697 1.49374,-1.357156 1.50811,-0.973249 1.51772,-0.585494 1.52254,-0.195422 v 0"
           clip-path="url(#p8028f5304e)"
           transform="matrix(0,0.09802361,-0.05220378,0,122.40542,146.75709)" />
        <path
           style="fill:none;stroke:#000000;stroke-width:0.965;stroke-linecap:butt;stroke-linejoin:miter;stroke-dasharray:none;stroke-opacity:1;marker-end:url(#Arrow1L)"
           d="M 86.534402,83.065934 V 112.36648"
           id="path3214"
           sodipodi:nodetypes="cc" />
      </g>
    </g>
    <path
       style="fill:none;stroke:#000000;stroke-width:0.264583px;stroke-linecap:butt;stroke-linejoin:miter;stroke-dasharray:0.529166, 0.529166;stroke-dashoffset:0;stroke-opacity:1"
       d="m 97.366102,151.85646 -58.360869,-0.0273"
       id="path3704"
       sodipodi:nodetypes="cc" />
    <path
       style="fill:none;stroke:#000000;stroke-width:0.264583px;stroke-linecap:butt;stroke-linejoin:miter;stroke-opacity:1"
       d="m 44.436996,124.08584 v 27.61364"
       id="path3706"
       sodipodi:nodetypes="cc" />
    <path
       style="fill:none;stroke:#000000;stroke-width:0.264583px;stroke-linecap:butt;stroke-linejoin:miter;stroke-dasharray:0.529166, 0.529166;stroke-dashoffset:0;stroke-opacity:1"
       d="M 49.868759,123.956 39.005233,123.9287"
       id="path3708"
       sodipodi:nodetypes="cc" />
  </g>
</svg>
