<?xml version="1.0" encoding="UTF-8" standalone="no"?>
<!-- Created with Inkscape (http://www.inkscape.org/) -->

<svg
   width="2.6845734in"
   height="1.2641579in"
   viewBox="0 0 241.6116 113.7742"
   id="svg2"
   version="1.1"
   inkscape:version="1.2 (1:1.2.1+202207142221+cd75a1ee6d)"
   sodipodi:docname="tree-height.svg"
   xmlns:inkscape="http://www.inkscape.org/namespaces/inkscape"
   xmlns:sodipodi="http://sodipodi.sourceforge.net/DTD/sodipodi-0.dtd"
   xmlns="http://www.w3.org/2000/svg"
   xmlns:svg="http://www.w3.org/2000/svg"
   xmlns:rdf="http://www.w3.org/1999/02/22-rdf-syntax-ns#"
   xmlns:cc="http://creativecommons.org/ns#"
   xmlns:dc="http://purl.org/dc/elements/1.1/"
   xmlns:ns1="http://www.iki.fi/pav/software/textext/">
  <title
     id="title4142">tree - coloured</title>
  <defs
     id="defs4" />
  <sodipodi:namedview
     id="base"
     pagecolor="#ffffff"
     bordercolor="#666666"
     borderopacity="1.0"
     inkscape:pageopacity="0.0"
     inkscape:pageshadow="2"
     inkscape:zoom="3.959798"
     inkscape:cx="112.00066"
     inkscape:cy="60.482883"
     inkscape:document-units="mm"
     inkscape:current-layer="layer1"
     showgrid="false"
     inkscape:window-width="1920"
     inkscape:window-height="1035"
     inkscape:window-x="1920"
     inkscape:window-y="20"
     inkscape:window-maximized="1"
     inkscape:snap-global="false"
     fit-margin-top="1"
     fit-margin-right="1"
     fit-margin-bottom="1"
     fit-margin-left="1"
     inkscape:showpageshadow="2"
     inkscape:pagecheckerboard="0"
     inkscape:deskcolor="#d1d1d1" />
  <metadata
     id="metadata7">
    <rdf:RDF>
      <cc:Work
         rdf:about="">
        <dc:format>image/svg+xml</dc:format>
        <dc:type
           rdf:resource="http://purl.org/dc/dcmitype/StillImage" />
        <dc:title>tree - coloured</dc:title>
        <cc:license
           rdf:resource="http://creativecommons.org/publicdomain/zero/1.0/" />
        <dc:date>2015-02-07</dc:date>
        <dc:creator>
          <cc:Agent>
            <dc:title>Frank Tremmel</dc:title>
          </cc:Agent>
        </dc:creator>
        <dc:subject>
          <rdf:Bag>
            <rdf:li>tree</rdf:li>
            <rdf:li>plant</rdf:li>
            <rdf:li>vegetation</rdf:li>
            <rdf:li>baum</rdf:li>
            <rdf:li>pflanze</rdf:li>
            <rdf:li>outline</rdf:li>
            <rdf:li>line art</rdf:li>
            <rdf:li />
          </rdf:Bag>
        </dc:subject>
        <dc:description>coloured simple line art tree</dc:description>
      </cc:Work>
      <cc:License
         rdf:about="http://creativecommons.org/publicdomain/zero/1.0/">
        <cc:permits
           rdf:resource="http://creativecommons.org/ns#Reproduction" />
        <cc:permits
           rdf:resource="http://creativecommons.org/ns#Distribution" />
        <cc:permits
           rdf:resource="http://creativecommons.org/ns#DerivativeWorks" />
      </cc:License>
    </rdf:RDF>
  </metadata>
  <g
     inkscape:label="Ebene 1"
     inkscape:groupmode="layer"
     id="layer1"
     transform="translate(-286.48501,-1138.2511)">
    <rect
       style="fill:#005500;fill-opacity:1;stroke:none;stroke-width:0.531496;stroke-linecap:round;stroke-linejoin:round;stroke-dasharray:none"
       id="rect29338"
       width="241.61159"
       height="9.5273666"
       x="286.48502"
       y="1242.4979"
       rx="0"
       ry="0" />
    <path
       style="fill:none;stroke:#000000;stroke-width:0.9375px;stroke-linecap:butt;stroke-linejoin:miter;stroke-opacity:1"
       d="M 286.48501,1242.4979 H 528.0966"
       id="path29522" />
    <path
       style="fill:#1d9d00;fill-opacity:1;fill-rule:evenodd;stroke:none;stroke-width:0.354331;stroke-linecap:butt;stroke-linejoin:miter;stroke-miterlimit:4;stroke-dasharray:none;stroke-opacity:1"
       d="m 467.02865,1201 c 0.49851,0.1994 -5.47506,4.0243 -6.69643,3.6607 -1.33928,0.4467 -6.07142,-4.1071 -6.07142,-4.1071 l -6.16072,1.1607 c -5.46957,-0.8031 -7.9371,-3.3217 -11.875,-5 -0.90864,-2.6393 -2.06736,-5.2558 -0.44643,-8.125 -11.88658,-4.1392 -7.23806,-9.5311 -3.92857,-14.8215 -1.82073,-4.4982 -1.47582,-7.9982 4.28572,-11.7857 1.8003,-3.8512 0.90765,-10.6368 11.16071,-10.8035 4.4071,-3.3264 7.83097,-9.6024 14.19643,-7.0536 11.8036,-8.597 13.93707,-2.6347 17.32143,0.5357 11.4619,-3.9065 12.43327,2.691 16.69643,5.0893 13.56195,-1.0114 12.97106,3.4397 13.39285,7.5 -0.11979,2.5997 -0.80255,5.5747 2.5,5.8928 4.32532,4.8596 3.58807,8.9403 1.78572,12.8572 3.86688,10.8333 -1.13034,11.7388 -2.58929,16.6071 -0.94205,4.7391 -3.7728,6.7309 -7.32143,7.6786 l -4.10714,1.875 c -5.4389,-0.1265 -7.85343,-0.8579 -11.07143,-1.4286 -6.39287,3.9617 -7.96797,1.6001 -10.80357,0.8929 z"
       id="path4224"
       inkscape:connector-curvature="0"
       sodipodi:nodetypes="ccccccccccccccccccccc" />
    <path
       style="color:#000000;font-style:normal;font-variant:normal;font-weight:normal;font-stretch:normal;font-size:medium;line-height:normal;font-family:sans-serif;text-indent:0;text-align:start;text-decoration:none;text-decoration-line:none;text-decoration-style:solid;text-decoration-color:#000000;letter-spacing:normal;word-spacing:normal;text-transform:none;writing-mode:lr-tb;direction:ltr;baseline-shift:baseline;text-anchor:start;white-space:normal;clip-rule:nonzero;display:inline;overflow:visible;visibility:visible;opacity:1;isolation:auto;mix-blend-mode:normal;color-interpolation:sRGB;color-interpolation-filters:linearRGB;solid-color:#000000;solid-opacity:1;fill:#174000;fill-opacity:1;fill-rule:evenodd;stroke:none;stroke-width:1.77165;stroke-linecap:butt;stroke-linejoin:miter;stroke-miterlimit:4;stroke-dasharray:none;stroke-dashoffset:0;stroke-opacity:1;color-rendering:auto;image-rendering:auto;shape-rendering:auto;text-rendering:auto;enable-background:accumulate"
       d="m 471.71839,1138.7818 c -4.07194,-0.9484 -7.82881,3.6234 -10.76068,4.6376 -3.73561,-1.7931 -8.23037,-0.2585 -10.40597,3.1702 -1.70144,3.7767 -4.92301,5.0317 -8.89142,4.4127 -4.39301,0.3875 -5.81979,5.2845 -6.06261,9.0077 -0.73541,3.4982 -6.94336,5.1252 -5.68616,10.0271 0.41979,0.9023 1.5493,2.7249 1.39325,3.5331 -1.69567,1.5203 -4.65759,4.1799 -4.28101,7.3879 -0.071,3.8637 4.50663,6.8653 8.02551,8.1468 -1.45819,4.3489 0.57992,10.0322 4.91779,10.8238 3.46567,2.4316 8.6665,3.0651 13.16485,1.2444 3.04647,-0.6787 4.28178,5.9654 8.26416,3.8475 3.20756,-0.5795 4.79972,-3.6786 7.87701,-4.346 1.66693,-0.1015 5.11958,-0.2922 6.78651,-0.3937 1.40046,3.5458 5.07529,4.893 8.09943,3.5429 3.60775,-2.8427 6.9296,-1.1551 10.91433,-0.5714 3.93906,0.4856 5.89554,-2.1095 9.31549,-2.7127 5.02547,-0.041 6.08171,-6.822 8.73775,-9.5732 3.56805,-3.9044 3.34403,-10.4402 1.44807,-15.089 1.46347,-4.1945 1.07183,-10.0211 -3.03415,-12.9241 -4.73574,-1.0051 0.57377,-7.6717 -2.43087,-10.7111 -2.52459,-3.8853 -9.07116,-3.5701 -13.45909,-3.3916 -2.92244,-3.9598 -7.87623,-7.6251 -13.03282,-5.8901 -2.29344,1.0501 -3.70388,2.045 -5.02839,-0.6553 -1.28243,-2.1584 -3.71663,-3.344 -5.87098,-3.5235 z m 1.19475,2.5692 c 3.16032,0.1229 5.09442,1.1254 5.48549,4.4905 2.94292,-2.4895 6.8605,-2.2162 10.40533,0 2.91378,0.7367 4.2794,4.6687 7.08701,4.7337 4.75367,-0.3754 11.2091,-0.4948 12.03879,4.7014 1.18901,1.4329 -0.0241,5.0029 0.20225,6.709 0.0958,0.7216 -1.91069,4.3008 -4.08392,5.3761 -3.68514,1.8235 -9.82213,-1.0563 -12.41522,-4.6094 0.59386,5.1066 9.41935,8.149 13.12241,6.4471 3.51917,-1.6174 4.51654,-6.2018 4.60447,-6.1938 3.65126,0.651 4.13433,3.6793 3.60808,7.4595 -0.6612,3.4179 -0.58199,6.8547 1.13322,10.1745 0.96204,4.0799 -1.61985,7.585 -4.32889,10.4296 -0.45475,0.5152 -4.87693,2.6644 -6.48171,2.2944 -3.28477,-0.7574 -7.3849,-5.274 -8.23062,-6.0816 -1.4671,0.7768 5.12986,6.5226 8.2783,7.7681 1.97941,0.783 5.45891,-1.7684 5.42513,-1.6263 -0.77674,3.2675 -2.54989,5.5341 -5.69024,6.1893 -2.39828,3.1614 -8.39033,1.8995 -11.93454,0.024 -2.88249,-2.3953 -5.62594,0.8856 -8.48535,1.4185 -3.31202,2.0902 -5.29238,-0.5549 -6.98731,-1.854 -2.30531,0.2031 -4.68378,0.1586 -6.94492,0.5112 -3.26314,1.5888 -6.66404,4.2502 -10.45834,3.5953 -1.53909,-0.7003 -2.18421,-2.9646 -3.50799,-3.6869 -0.17736,-0.097 -2.19425,-0.504 -4.2157,-2.4838 -1.38965,-1.361 -2.2891,-6.0757 -3.0057,-6.0236 -0.71894,0.052 0.27725,5.5466 1.53687,7.3958 0.72343,1.0621 3.04855,1.5226 2.78283,1.725 -3.48165,1.2161 -7.46578,0.1949 -9.75893,-2.6016 -3.82406,-0.479 -7.77395,-3.4653 -6.22187,-7.7576 0.0701,-0.1956 0.71417,-2.5225 1.58839,-3.8423 1.39204,-2.1016 5.29262,-4.6417 6.86535,-5.3186 0.59267,-0.2551 5.44175,-1.3783 5.73892,-1.9165 -0.24492,-0.9844 -7.19851,0.8615 -8.2715,1.6022 -0.7126,0.4919 -3.1273,2.4025 -4.73319,3.9604 -1.05431,1.0228 -2.07808,3.5091 -2.17334,3.4267 -1.19345,-1.0322 -3.50862,-0.8229 -4.02154,-2.8258 -2.46116,-3.4836 -1.00159,-8.255 1.65066,-11.1859 -1.51983,-3.2347 -1.30641,-7.7044 2.19661,-9.563 4.02202,-0.7195 2.17274,-4.9433 3.5432,-7.6182 0.81032,-4.6211 5.29719,-4.7546 8.73291,-4.9164 2.86607,-0.9372 4.52418,-3.3463 6.68522,-5.2431 2.34548,-2.6541 5.38435,-3.1044 8.14953,-1.577 1.95516,-3.0373 5.52062,-4.716 9.02993,-4.4065 z"
       id="path4163"
       inkscape:connector-curvature="0"
       sodipodi:nodetypes="ccccccccccccccccccccccccccccccsscsccccscsccccccccssscccsscsscccccccccc" />
    <path
       style="fill:#174000;fill-opacity:1;fill-rule:evenodd;stroke:none;stroke-width:0.999213;stroke-linecap:butt;stroke-linejoin:miter;stroke-miterlimit:4;stroke-dasharray:none;stroke-opacity:1"
       d="m 450.24294,1160.8214 c 0.25261,-0.4858 3.15186,0.072 6.19102,1.3864 2.80735,1.2138 5.70788,3.1771 7.36446,3.1082 3.52768,-0.1468 5.66362,-2.5725 7.45922,-4.2862 1.66566,-1.5897 3.10072,-2.4795 3.53887,-2.5298 -0.26786,0.8036 0.56812,0.8606 -2.41071,3.2143 -7.29939,5.7675 -6.1688,8.7532 -14.375,2.3214 -3.65985,-2.8685 -6.07143,-0.5357 -7.76786,-3.2143 z"
       id="path4172"
       inkscape:connector-curvature="0"
       sodipodi:nodetypes="cssscssc" />
    <path
       style="color:#000000;font-style:normal;font-variant:normal;font-weight:normal;font-stretch:normal;font-size:medium;line-height:normal;font-family:sans-serif;text-indent:0;text-align:start;text-decoration:none;text-decoration-line:none;text-decoration-style:solid;text-decoration-color:#000000;letter-spacing:normal;word-spacing:normal;text-transform:none;writing-mode:lr-tb;direction:ltr;baseline-shift:baseline;text-anchor:start;white-space:normal;clip-rule:nonzero;display:inline;overflow:visible;visibility:visible;opacity:1;isolation:auto;mix-blend-mode:normal;color-interpolation:sRGB;color-interpolation-filters:linearRGB;solid-color:#000000;solid-opacity:1;fill:#174000;fill-opacity:1;fill-rule:evenodd;stroke:none;stroke-width:1px;stroke-linecap:butt;stroke-linejoin:miter;stroke-miterlimit:4;stroke-dasharray:none;stroke-dashoffset:0;stroke-opacity:1;color-rendering:auto;image-rendering:auto;shape-rendering:auto;text-rendering:auto;enable-background:accumulate"
       d="m 485.28535,1166.7765 c -1.47574,2.0129 -2.40772,4.5541 -4.25997,5.5397 -2.08123,1.1075 -5.06229,0.9913 -7.35531,0.172 l -0.28125,0.037 -0.11329,0.2617 c -1.91009,4.4588 -5.38815,6.6531 -8.81831,6.5305 -3.43016,-0.1227 -6.98954,-1.9768 -9.10742,-4.3633 -1.94329,-1.5747 -1.71427,-1.4256 -0.81118,0.3484 2.31242,2.6057 6.12253,4.8805 9.8815,5.0149 3.6817,0.1316 7.99386,-1.6961 10.06689,-6.2546 3.00745,0.9597 5.61172,0.7661 7.91353,-0.584 1.74853,-1.0257 2.3488,-4.7633 3.75459,-6.6808 0.80605,-1.2061 1.7579,-2.5182 0.77172,-2.4208 z"
       id="path4203"
       inkscape:connector-curvature="0"
       sodipodi:nodetypes="cscccsccscsccc" />
    <path
       style="fill:#921d00;fill-opacity:1;fill-rule:evenodd;stroke:none;stroke-width:0.389764;stroke-linecap:butt;stroke-linejoin:miter;stroke-miterlimit:4;stroke-dasharray:none;stroke-opacity:1"
       d="m 467.42962,1242.8051 c -3.69637,-0.5932 -5.56756,1.2471 -8.33376,1.8941 l -0.56821,-1.6415 c 3.0291,-2.8886 6.10828,-5.5769 9.47018,-7.1343 0.98288,-5.958 1.45781,-12.3514 1.26269,-19.3191 0.14332,-5.3258 0.45949,-10.7979 -1.51523,-14.3316 l -13.76333,-7.1973 -2.58851,-2.2729 -0.44195,-1.894 c -0.0327,-1.777 0.6443,-1.0701 1.26269,-0.5682 3.70133,5.4969 9.39214,5.5653 10.0384,5.0508 l -0.50508,-3.5356 2.08344,-0.8839 c 0.85272,2.3147 1.48148,4.7787 3.78807,6.1241 1.78276,1.951 2.7536,1.1957 3.53553,-0.1894 l 0.88389,-1.6415 v -3.8512 c 0.73986,-0.7174 1.79115,-2.65 1.26269,1.3889 0.17603,2.2761 0.77694,3.5606 1.45209,4.672 1.24746,0.2229 1.55613,1.2138 4.48256,0.063 l 7.44987,-2.3991 c 3.26192,-0.6637 4.71137,-2.7217 5.80838,-5.0508 l 1.51523,0.8208 c -0.44296,1.2837 -0.56842,2.5674 -1.95717,3.8513 -3.35999,2.7679 -5.58333,3.2623 -8.46003,4.4193 -6.51817,1.3469 -5.81158,2.6938 -7.95495,4.0407 -0.5417,7.8294 0.40712,13.5721 0.63134,20.3293 0.43983,4.5594 1.25823,8.5509 2.02031,12.6269 0.48482,1.2094 2.74511,2.5372 5.74524,3.9143 l 3.4724,2.778 c 0.75968,1.5034 1.20224,2.8085 -0.69448,2.6516 l -5.36644,-3.3461 -0.88388,1.5783 c -0.0633,0.926 -0.50631,1.852 -1.57836,2.778 -1.40958,0.2582 -1.40957,-0.6919 -1.70464,-1.389 l -1.38896,-2.1466 c -1.77374,-1.0952 -2.03294,-0.1711 -2.90418,-0.063 l -1.38896,2.1466 c -0.73301,0.4692 -0.98246,1.7846 -2.96733,0.063 z"
       id="path4222-3"
       inkscape:connector-curvature="0"
       sodipodi:nodetypes="cccccccccccccccccccccccccccccccccccccccc" />
    <path
       style="color:#000000;font-style:normal;font-variant:normal;font-weight:normal;font-stretch:normal;font-size:medium;line-height:normal;font-family:sans-serif;text-indent:0;text-align:start;text-decoration:none;text-decoration-line:none;text-decoration-style:solid;text-decoration-color:#000000;letter-spacing:normal;word-spacing:normal;text-transform:none;writing-mode:lr-tb;direction:ltr;baseline-shift:baseline;text-anchor:start;white-space:normal;clip-rule:nonzero;display:inline;overflow:visible;visibility:visible;opacity:1;isolation:auto;mix-blend-mode:normal;color-interpolation:sRGB;color-interpolation-filters:linearRGB;solid-color:#000000;solid-opacity:1;fill:#3b0000;fill-opacity:1;fill-rule:evenodd;stroke:none;stroke-width:1px;stroke-linecap:butt;stroke-linejoin:miter;stroke-miterlimit:4;stroke-dasharray:none;stroke-dashoffset:0;stroke-opacity:1;color-rendering:auto;image-rendering:auto;shape-rendering:auto;text-rendering:auto;enable-background:accumulate"
       d="m 472.45329,1202.1188 c -1.06319,0.9748 -1.89953,2.6142 -2.09018,4.044 -0.0993,0.745 0.8333,1.7048 0.87479,2.8689 0.0584,1.6396 -1.04637,3.1371 -0.63212,4.7246 0.30205,1.1573 0.93483,2.4386 0.95166,3.574 0.01,0.6774 -0.1479,2.2068 -0.97489,3.5156 0.40248,0.2918 1.46934,-2.1166 1.58034,-3.2326 0.0826,-1.1771 -0.99116,-3.0101 -1.05825,-4.1881 -0.0929,-1.6308 0.78835,-3.1241 0.79633,-4.1472 0.008,-1.0594 -1.07409,-2.3118 -0.92942,-3.3613 0.16237,-1.1779 0.99027,-2.2988 1.72611,-3.2327 0.62136,-0.7887 2.63387,-1.494 2.43362,-1.8094 0,0 -1.95249,0.579 -2.67799,1.2442 z"
       id="path4178"
       inkscape:connector-curvature="0"
       sodipodi:nodetypes="sssssccsssscs" />
    <path
       style="color:#000000;font-style:normal;font-variant:normal;font-weight:normal;font-stretch:normal;font-size:medium;line-height:normal;font-family:sans-serif;text-indent:0;text-align:start;text-decoration:none;text-decoration-line:none;text-decoration-style:solid;text-decoration-color:#000000;letter-spacing:normal;word-spacing:normal;text-transform:none;writing-mode:lr-tb;direction:ltr;baseline-shift:baseline;text-anchor:start;white-space:normal;clip-rule:nonzero;display:inline;overflow:visible;visibility:visible;opacity:1;isolation:auto;mix-blend-mode:normal;color-interpolation:sRGB;color-interpolation-filters:linearRGB;solid-color:#000000;solid-opacity:1;fill:#3b0000;fill-opacity:1;fill-rule:evenodd;stroke:none;stroke-width:1px;stroke-linecap:butt;stroke-linejoin:miter;stroke-miterlimit:4;stroke-dasharray:none;stroke-dashoffset:0;stroke-opacity:1;color-rendering:auto;image-rendering:auto;shape-rendering:auto;text-rendering:auto;enable-background:accumulate"
       d="m 474.34951,1226.7947 c 0.67565,-0.969 1.07458,-2.4535 1.00507,-3.6659 -0.0367,-0.6318 -0.90488,-1.2838 -1.11398,-2.241 -0.29445,-1.3481 0.3341,-2.7561 -0.22819,-4.0067 -0.41,-0.9118 -1.09508,-1.8757 -1.28063,-2.8128 -0.11109,-0.559 -0.22088,-1.849 0.22108,-3.0584 -0.35625,-0.18 -0.81687,1.976 -0.73329,2.9166 0.11474,0.9869 1.22554,2.3399 1.45655,3.3047 0.31989,1.3357 -0.13608,2.706 0.0132,3.554 0.15429,0.8781 1.18371,1.7495 1.23111,2.6401 0.0533,0.9997 -0.41799,2.0537 -0.84629,2.939 -0.36162,0.7476 -1.81389,1.6384 -1.61078,1.8689 0,0 1.42498,-0.7771 1.88611,-1.4385 z"
       id="path4178-4"
       inkscape:connector-curvature="0"
       sodipodi:nodetypes="sssssccsssscs" />
    <path
       style="color:#000000;font-style:normal;font-variant:normal;font-weight:normal;font-stretch:normal;font-size:medium;line-height:normal;font-family:sans-serif;text-indent:0;text-align:start;text-decoration:none;text-decoration-line:none;text-decoration-style:solid;text-decoration-color:#000000;letter-spacing:normal;word-spacing:normal;text-transform:none;writing-mode:lr-tb;direction:ltr;baseline-shift:baseline;text-anchor:start;white-space:normal;clip-rule:nonzero;display:inline;overflow:visible;visibility:visible;opacity:1;isolation:auto;mix-blend-mode:normal;color-interpolation:sRGB;color-interpolation-filters:linearRGB;solid-color:#000000;solid-opacity:1;fill:#3b0000;fill-opacity:1;fill-rule:evenodd;stroke:none;stroke-width:1px;stroke-linecap:butt;stroke-linejoin:miter;stroke-miterlimit:4;stroke-dasharray:none;stroke-dashoffset:0;stroke-opacity:1;color-rendering:auto;image-rendering:auto;shape-rendering:auto;text-rendering:auto;enable-background:accumulate"
       d="m 466.84715,1238.8845 c 1.1815,-0.5087 3.83619,-1.2891 4.21797,-2.2482 0.19892,-0.4997 -0.59177,-1.3086 -0.47511,-2.1201 0.16433,-1.1429 1.45766,-2.0066 1.26365,-3.1688 -0.14147,-0.8473 -0.59264,-1.8318 -0.45554,-2.6196 0.0818,-0.47 0.4448,-1.5032 1.43834,-2.2795 -0.35779,-0.2644 -1.73701,1.2351 -1.99768,1.9896 -0.24093,0.8011 0.57088,2.2358 0.47761,3.0608 -0.12909,1.1423 -1.20118,2.0378 -1.34759,2.7441 -0.15158,0.7312 0.74728,1.7658 0.46239,2.469 -0.31977,0.7894 -2.89591,1.2124 -3.74875,1.7438 -0.72015,0.4487 -4.32013,2.9448 -4.16514,3.1939 0,0 3.52363,-2.4184 4.32985,-2.765 z"
       id="path4178-48"
       inkscape:connector-curvature="0"
       sodipodi:nodetypes="sssssccsssscs" />
    <path
       style="color:#000000;font-style:normal;font-variant:normal;font-weight:normal;font-stretch:normal;font-size:medium;line-height:normal;font-family:sans-serif;text-indent:0;text-align:start;text-decoration:none;text-decoration-line:none;text-decoration-style:solid;text-decoration-color:#000000;letter-spacing:normal;word-spacing:normal;text-transform:none;writing-mode:lr-tb;direction:ltr;baseline-shift:baseline;text-anchor:start;white-space:normal;clip-rule:nonzero;display:inline;overflow:visible;visibility:visible;opacity:1;isolation:auto;mix-blend-mode:normal;color-interpolation:sRGB;color-interpolation-filters:linearRGB;solid-color:#000000;solid-opacity:1;fill:#3b0000;fill-opacity:1;fill-rule:evenodd;stroke:none;stroke-width:1px;stroke-linecap:butt;stroke-linejoin:miter;stroke-miterlimit:4;stroke-dasharray:none;stroke-dashoffset:0;stroke-opacity:1;color-rendering:auto;image-rendering:auto;shape-rendering:auto;text-rendering:auto;enable-background:accumulate"
       d="m 472.16421,1233.688 c -0.48717,1.0459 -0.46868,2.3429 0.0221,3.2129 0.2557,0.4534 1.51917,0.523 2.09183,1.1358 0.80664,0.8633 0.52348,2.2134 1.61948,2.8757 0.79913,0.483 1.94647,0.8727 2.48427,1.4819 0.32075,0.3634 0.88627,1.2718 0.76081,2.3846 0.48881,-0.037 0.31897,-1.8637 -0.0973,-2.5244 -0.46929,-0.68 -2.25933,-1.1561 -2.86102,-1.7642 -0.83285,-0.8416 -0.74472,-2.0811 -1.20892,-2.6413 -0.4806,-0.58 -2.0107,-0.7362 -2.3667,-1.377 -0.3995,-0.7192 -0.18664,-1.7302 0.0311,-2.5951 0.18385,-0.7303 1.63129,-2.0899 1.30967,-2.1643 0,0 -1.4522,1.2625 -1.78524,1.9754 z"
       id="path4178-8"
       inkscape:connector-curvature="0"
       sodipodi:nodetypes="sssssccsssscs" />
    <path
       style="color:#000000;font-style:normal;font-variant:normal;font-weight:normal;font-stretch:normal;font-size:medium;line-height:normal;font-family:sans-serif;text-indent:0;text-align:start;text-decoration:none;text-decoration-line:none;text-decoration-style:solid;text-decoration-color:#000000;letter-spacing:normal;word-spacing:normal;text-transform:none;writing-mode:lr-tb;direction:ltr;baseline-shift:baseline;text-anchor:start;white-space:normal;clip-rule:nonzero;display:inline;overflow:visible;visibility:visible;opacity:1;isolation:auto;mix-blend-mode:normal;color-interpolation:sRGB;color-interpolation-filters:linearRGB;solid-color:#000000;solid-opacity:1;fill:#174000;fill-opacity:1;fill-rule:evenodd;stroke:none;stroke-width:1px;stroke-linecap:butt;stroke-linejoin:miter;stroke-miterlimit:4;stroke-dasharray:none;stroke-dashoffset:0;stroke-opacity:1;color-rendering:auto;image-rendering:auto;shape-rendering:auto;text-rendering:auto;enable-background:accumulate"
       d="m 456.52862,1183.709 c -0.78936,-1.5609 -2.25867,-2.1727 -0.75582,0.6565 0,0 0.92731,6.7055 3.81406,7.9069 2.82792,1.1769 7.13349,-3.2761 10.19178,-3.1052 3.93773,0.2201 6.59082,7.8989 9.87745,6.0801 2.87304,-1.59 9.03461,-6.1272 9.03461,-6.1272 2.26887,-1.3712 2.50917,-2.3157 -0.63178,-0.9634 0,0 -5.65681,5.2568 -9.80857,4.7344 -2.59977,-0.3271 -5.69835,-4.122 -8.24536,-4.7373 -2.78735,-0.6733 -5.81353,2.2876 -8.50435,1.2966 -2.37566,-0.875 -4.97202,-5.7414 -4.97202,-5.7414 z"
       id="path4174"
       inkscape:connector-curvature="0"
       sodipodi:nodetypes="ccsssccsssc" />
    <path
       style="color:#000000;font-style:normal;font-variant:normal;font-weight:normal;font-stretch:normal;font-size:medium;line-height:normal;font-family:sans-serif;text-indent:0;text-align:start;text-decoration:none;text-decoration-line:none;text-decoration-style:solid;text-decoration-color:#000000;letter-spacing:normal;word-spacing:normal;text-transform:none;writing-mode:lr-tb;direction:ltr;baseline-shift:baseline;text-anchor:start;white-space:normal;clip-rule:nonzero;display:inline;overflow:visible;visibility:visible;opacity:1;isolation:auto;mix-blend-mode:normal;color-interpolation:sRGB;color-interpolation-filters:linearRGB;solid-color:#000000;solid-opacity:1;fill:#3a0000;fill-opacity:1;fill-rule:evenodd;stroke:none;stroke-width:1.77165;stroke-linecap:butt;stroke-linejoin:miter;stroke-miterlimit:4;stroke-dasharray:none;stroke-dashoffset:0;stroke-opacity:1;color-rendering:auto;image-rendering:auto;shape-rendering:auto;text-rendering:auto;enable-background:accumulate"
       d="m 471.57741,1191.7128 c 0.13865,3.5348 0.18819,4.2143 -1.14763,5.2531 -0.26381,0.3614 -0.84343,0.4376 -1.00967,0.4616 -0.18534,0.027 -0.67083,-0.098 -1.42773,-0.5488 -1.62112,-1.4067 -2.65406,-2.9821 -3.33794,-4.7287 -0.5559,-1.465 -0.29961,-0.063 -1.07069,-1.3573 -0.82148,-1.3786 -2.28145,-0.9206 -2.22921,0.074 l 0.0974,1.8543 c 0.0619,1.1792 -0.30559,-0.1725 -0.12696,0.8189 0.16222,0.9003 1.14935,1.8398 -1.12353,1.7689 -1.91524,-0.048 -3.89569,-1.4288 -4.80017,-1.92 -1.86415,-1.2229 -2.04653,-1.5893 -3.02195,-3.0498 -1.26367,-1.492 -1.58032,-0.9341 -1.96011,-0.2004 -0.002,2.3559 0.53273,3.4798 2.0572,4.6185 1.62587,1.2145 2.8725,2.2563 5.05393,3.0851 2.18147,0.8288 4.3607,2.3121 6.31741,3.0467 1.82767,0.6863 3.28783,2.0068 4.02217,3.3683 1.08236,2.0067 0.6145,14.9613 0.45308,20.9486 -0.0908,3.3677 -0.21759,5.1431 -0.55142,7.2575 -0.16691,1.0571 -0.58016,2.2155 -0.82026,2.7434 -1.2447,1.3101 -0.57034,1.1019 -2.27909,1.9728 -1.23499,0.6044 -1.80377,1.1853 -2.30051,1.571 -0.85498,0.5917 -1.29134,1.2496 -2.228,2.1341 -0.42471,0.6794 -2.03361,1.5392 -2.09533,2.3696 -0.0617,0.6726 0.41012,2.2952 0.91807,2.3934 0.81824,-0.6072 1.99555,-0.7397 2.35589,-1.3271 1.07242,-0.6266 0.78809,0.1871 1.75189,-0.2714 0.85663,-0.4589 0.30782,-0.1616 1.40718,-0.3016 0.60839,-0.077 0.71366,-0.5445 0.94927,-0.5355 0.8401,0.4859 1.12277,0.076 1.40436,0.3343 0.21614,0.385 0.76626,0.7906 0.72515,1.6145 -0.0357,0.7147 1.08811,0.9784 1.66491,1.2217 0.5768,0.2435 1.15321,0.1465 1.61328,-0.027 0.46008,-0.1739 0.84808,-0.4345 1.16797,-0.7168 0.31989,-0.2823 0.0707,-0.8737 0.23711,-1.3316 0.43954,-1.1555 0.92223,-0.3913 2.17822,-0.8962 1.17037,0.2069 1.78675,-0.2889 2.09951,0.6279 0.11181,0.4529 -0.21403,0.8614 0.12964,1.548 0.29801,0.5179 0.84957,1.6555 1.38186,1.6871 0.53229,0.031 1.70159,-0.6767 2.04936,-1.2962 0.29663,-0.5281 0.81267,-0.6504 0.9014,-1.3643 0.11047,-0.8886 0.015,-1.3105 0.96115,-1.3652 0.15724,-0.019 2.39923,1.6795 4.19511,2.565 0.33071,0.1631 1.00341,0.153 2.16804,-0.1734 0.0857,-0.7908 -0.15564,-1.4863 -0.31389,-2.5183 -0.99082,-1.7045 -2.10715,-2.2876 -3.19499,-2.9204 -2.42679,-1.4118 -3.73821,-2.0255 -5.4697,-4.7439 -0.5207,-0.8175 -1.12007,-2.7729 -1.53872,-5.6715 -0.42387,-2.9349 -1.03409,-7.3095 -1.33678,-10.8876 -0.3027,-3.5781 -0.29777,-7.2166 -0.39471,-10.1832 -0.0916,-2.8038 0.21448,-3.9267 0.35419,-4.9846 0.63259,-0.5298 1.63792,-1.4578 2.59141,-2.0065 2.16514,-1.2458 4.97647,-2.1727 8.02426,-3.1763 2.00763,-0.6611 3.59006,-2.2034 4.99874,-3.4036 1.40867,-1.2002 1.18388,-1.8683 1.91943,-3.4248 0.71368,-0.9289 0.37591,-1.1147 -0.13276,-1.7127 -1.096,-0.4707 -1.30826,-0.8785 -1.7318,-0.1724 -0.19685,1.6071 -2.93275,3.8561 -4.07714,4.4755 -1.71842,0.924 -3.91559,1.2372 -6.26436,2.1735 -1.15793,0.4615 -2.38173,0.8364 -3.29746,0.9742 -0.50523,0.076 -1.43355,0.2188 -1.79282,0.2077 -0.2907,-0.01 -1.23381,-0.3087 -1.5747,-0.5501 -1.22042,-2.5676 -1.53746,-1.4003 -1.40603,-4.5318 l -0.0911,-1.3918 c -0.77115,-1.0669 -1.48785,-1.6904 -2.0014,0.5216 z m 0.50816,0.8929 c 0.27953,-1.3026 0.55905,-1.4187 0.83858,-0.533 -0.0733,3.009 0.32925,2.7615 1.11315,5.9329 l 0.0644,0.2754 0.21289,0.1875 c 0.71097,0.6247 1.00991,0.4974 1.77618,0.521 0.76626,0.024 1.77285,-0.1508 2.38208,-0.4525 1.21845,-0.6033 3.07301,-0.9063 3.73481,-1.1701 2.35447,-0.9384 3.95577,-1.1317 5.81465,-2.131 0.92944,-0.4997 2.55571,-1.7019 3.18989,-2.2648 0.39728,-0.3527 0.7447,-1.2058 0.97651,-1.6425 0.257,-1.3081 0.94183,-0.691 1.51289,-0.5858 -0.28855,0.801 -0.57699,2.5082 -2.06499,3.7431 -1.20809,1.0026 -3.39219,2.0819 -5.24336,2.9642 -3.70232,1.7645 -7.62099,1.4238 -10.11533,3.6749 -0.93973,1.0342 -1.24171,1.0275 -1.4808,1.5851 -0.22162,1.3295 -0.22914,3.7391 -0.13086,6.7467 0.0983,3.0075 0.32002,6.7438 0.625,10.3489 0.30498,3.6051 0.31302,6.6987 0.74424,9.6844 0.35071,2.4283 0.0735,3.5127 0.56233,4.7626 0.37431,0.9572 0.90057,2.5462 1.59361,3.3525 1.15711,1.3462 5.04641,2.7028 7.30227,3.9927 0.91732,0.5245 2.25984,2.0861 2.1621,3.1745 -0.36767,1.3338 -1.75729,-0.162 -2.92005,-0.7165 -0.65684,-0.3132 -1.62711,-1.2351 -1.98118,-1.5786 -0.63508,-0.6162 -1.17637,-0.8932 -1.9413,-1.2105 -0.0766,-0.032 -0.92914,-0.6624 -1.47415,-0.9041 -0.58731,-0.2605 -2.51113,-1.3173 -2.67643,-0.9634 -0.11801,0.2527 1.6986,0.6451 2.33953,1.3074 0.35665,0.3685 0.37023,0.6941 0.84967,1.1018 0.45758,0.3891 0.37623,0.6225 0.25151,1.0214 -0.19295,0.6171 0.0677,0.9346 -0.22693,1.9321 -0.17419,0.5896 -0.40913,1.2713 -1.51938,1.3122 -1.16211,-0.1476 -0.54596,-1.8274 -0.60442,-2.2934 -0.63141,-1.7105 -1.90998,-1.0644 -3.27776,-2.069 -1.33743,0.7609 -1.80043,0.1296 -2.67251,1.3292 -0.47025,0.817 -0.57353,1.4897 -0.90488,2.1193 -0.91384,0.9618 -1.09512,0.7242 -1.34629,0.1887 -0.19575,-0.704 -0.93133,-0.6794 -0.96238,-0.9066 -0.031,-0.2272 -0.46823,-0.4714 -0.37368,-1.156 0.0194,-0.2705 0.0759,-0.4867 0.0788,-0.677 0.002,-0.1087 0.36634,-1.0007 0.64285,-1.7775 0.084,-0.2361 0.8598,-0.3277 1.5232,-0.9597 0.97805,-0.9318 1.93415,-2.4453 1.88428,-2.488 -0.0668,-0.1381 -1.05677,1.3551 -2.12763,2.257 -0.72443,0.6101 -1.21249,0.2626 -1.58372,0.7047 -0.38884,0.4631 -0.86344,1.3271 -1.22838,1.7164 -0.29561,0.3152 -0.78234,0.098 -0.9666,0.1024 -0.46556,-0.056 -1.33227,0.197 -2.14771,0.301 -1.0574,0.1346 -0.46646,-0.045 -2.10994,0.7438 -1.41938,0.681 -1.41789,0.3623 -1.84395,0.6158 -0.73651,0.6176 -1.08144,0.4658 -0.9782,-0.279 0.17952,-0.5614 0.97606,-1.3046 1.22873,-1.5664 0.3839,-0.2981 1.49842,-1.4492 2.52857,-2.1983 1.26577,-0.9204 2.924,-2.1792 4.39125,-2.3823 0.74432,-0.032 1.2097,-1.3176 1.56287,-2.0942 0.35317,-0.7766 0.27097,-1.9284 0.4519,-3.0743 0.36186,-2.2918 0.19974,-7.0842 0.35389,-10.9007 0.23626,-5.8496 -0.25665,-13.8797 -0.745,-16.9521 -0.48029,-3.0217 -2.89184,-4.2776 -4.85104,-5.0256 -2.01904,-0.7581 -4.12689,-1.987 -6.24646,-2.7922 -2.11956,-0.8052 -3.80467,-1.8264 -5.19636,-2.8548 -1.05017,-0.776 -1.26999,-1.8984 -1.57268,-2.8095 0.0915,-0.4915 0.31068,-0.503 0.69768,0.063 0.73103,1.6002 2.06287,2.8441 3.00015,3.1991 1.02553,0.3885 1.58412,0.7968 3.54402,1.5842 0.82066,0.3297 2.25644,0.5568 3.08655,0.4621 0.23774,-0.043 2.68472,2.7039 3.56214,1.7901 -0.84822,-0.2233 -2.19165,-1.1151 -2.53345,-2.456 -0.29055,-0.7838 -0.42921,-1.9105 -0.51683,-2.6046 -0.13102,-1.0378 0.20178,0.4817 0.0912,-0.5044 -0.18655,-1.6636 0.30558,-2.5812 1.08403,-0.3967 0.33285,0.934 0.16733,-0.6623 0.5434,0.3094 0.61992,2.0257 0.31236,1.9992 1.5527,3.5483 l 1.61679,2.0192 c 0.97666,0.6036 1.80975,1.3918 2.67969,1.2661 0.92909,-0.4073 0.9588,-0.478 1.47611,-1.2024 1.4972,-2.0966 1.16748,-2.9114 0.93747,-5.3681 z"
       id="path4136"
       inkscape:connector-curvature="0"
       sodipodi:nodetypes="cccccssssccccsssssccccccccccccsccscccccsscsccssssscssscccccsccccccccccccsccccscccsssssscsscsssssscccccccccssscssscccccscsssscssccssccccsscsccscc" />
    <path
       style="fill:none;stroke:#000000;stroke-width:0.9375px;stroke-linecap:butt;stroke-linejoin:miter;stroke-opacity:1"
       d="m 396.04528,1242.4352 74.85586,-102.7559 0.59221,102.2871"
       id="path28865" />
    <path
       style="fill:none;stroke:#000000;stroke-width:0.937501px;stroke-linecap:butt;stroke-linejoin:miter;stroke-opacity:1"
       d="m 302.46529,1242.1875 17.54761,-24.4259 0.13882,24.3145"
       id="path28867" />
    <rect
       style="fill:#ffe680;stroke:#000000;stroke-width:0.531496;stroke-linecap:round;stroke-linejoin:round;stroke-dasharray:none"
       id="rect28921"
       width="4.117805"
       height="25.649292"
       x="320.62048"
       y="1216.3171"
       rx="1.7622843"
       ry="0.6696431" />
    <g
       transform="matrix(1.99999,0,0,1.99999,412.93703,1222.6975)"
       ns1:version="1.8.2"
       ns1:texconverter="pdflatex"
       ns1:pdfconverter="inkscape"
       ns1:text="$\\theta$"
       ns1:preamble="/home/mpnerem/.config/inkscape/extensions/textext/default_packages.tex"
       ns1:scale="1.5"
       ns1:alignment="middle center"
       ns1:stroke-to-path="0"
       ns1:inkscapeversion="0.91"
       ns1:jacobian_sqrt="1.99999"
       id="g29391">
      <defs
         id="id-57e3b2ad-961a-424b-bb7a-92dec4fa2c28">
        <g
           id="id-4c280d7d-5219-4691-af36-692957fe5cea">
          <symbol
             overflow="visible"
             id="id-75e31517-f572-4118-b0b7-d551611ee145">
            <path
               style="stroke:none"
               d=""
               id="id-6e497f78-6922-48ee-9cc8-3804d3dff5c4" />
          </symbol>
          <symbol
             overflow="visible"
             id="id-0895297f-93cc-48aa-9548-f0eb5b6146b8">
            <path
               style="stroke:none"
               d="m 4.53125,-4.984375 c 0,-0.65625 -0.171875,-2.046875 -1.1875,-2.046875 -1.390625,0 -2.921875,2.8125 -2.921875,5.09375 0,0.9375 0.28125,2.046875 1.1875,2.046875 1.40625,0 2.921875,-2.859375 2.921875,-5.09375 z M 1.46875,-3.625 C 1.640625,-4.25 1.84375,-5.046875 2.25,-5.765625 2.515625,-6.25 2.875,-6.8125 3.328125,-6.8125 c 0.484375,0 0.546875,0.640625 0.546875,1.203125 0,0.5 -0.078125,1 -0.3125,1.984375 z m 2,0.328125 C 3.359375,-2.84375 3.15625,-2 2.765625,-1.28125 c -0.34375,0.6875 -0.71875,1.171875 -1.15625,1.171875 -0.328125,0 -0.53125,-0.296875 -0.53125,-1.21875 0,-0.421875 0.0625,-1 0.3125,-1.96875 z m 0,0"
               id="id-d3216da3-25e5-4556-adaa-36e455f21724" />
          </symbol>
        </g>
      </defs>
      <g
         id="id-511553c6-ef0d-445d-901d-2efd5b997023"
         transform="translate(-149.134,-127.734)">
        <g
           style="fill:#000000;fill-opacity:1"
           id="id-45da0661-85c8-4cd9-b6ba-0d4208ea7d50">
          <g
             transform="translate(148.712,134.765)"
             id="g29480">
            <path
               style="stroke:none"
               d="m 4.53125,-4.984375 c 0,-0.65625 -0.171875,-2.046875 -1.1875,-2.046875 -1.390625,0 -2.921875,2.8125 -2.921875,5.09375 0,0.9375 0.28125,2.046875 1.1875,2.046875 1.40625,0 2.921875,-2.859375 2.921875,-5.09375 z M 1.46875,-3.625 C 1.640625,-4.25 1.84375,-5.046875 2.25,-5.765625 2.515625,-6.25 2.875,-6.8125 3.328125,-6.8125 c 0.484375,0 0.546875,0.640625 0.546875,1.203125 0,0.5 -0.078125,1 -0.3125,1.984375 z m 2,0.328125 C 3.359375,-2.84375 3.15625,-2 2.765625,-1.28125 c -0.34375,0.6875 -0.71875,1.171875 -1.15625,1.171875 -0.328125,0 -0.53125,-0.296875 -0.53125,-1.21875 0,-0.421875 0.0625,-1 0.3125,-1.96875 z m 0,0"
               id="id-aa52119e-a11f-4555-ac21-45cf842b1624" />
          </g>
        </g>
      </g>
    </g>
    <g
       transform="matrix(1.99999,0,0,1.99999,291.6792,1219.2956)"
       ns1:version="1.8.2"
       ns1:texconverter="pdflatex"
       ns1:pdfconverter="inkscape"
       ns1:text="$\\theta$"
       ns1:preamble="/home/mpnerem/.config/inkscape/extensions/textext/default_packages.tex"
       ns1:scale="1.5"
       ns1:alignment="middle center"
       ns1:stroke-to-path="0"
       ns1:inkscapeversion="0.91"
       ns1:jacobian_sqrt="1.99999"
       id="g29518">
      <defs
         id="defs29508">
        <g
           id="g29506">
          <symbol
             overflow="visible"
             id="symbol29500">
            <path
               style="stroke:none"
               d=""
               id="path29498" />
          </symbol>
          <symbol
             overflow="visible"
             id="symbol29504">
            <path
               style="stroke:none"
               d="m 4.53125,-4.984375 c 0,-0.65625 -0.171875,-2.046875 -1.1875,-2.046875 -1.390625,0 -2.921875,2.8125 -2.921875,5.09375 0,0.9375 0.28125,2.046875 1.1875,2.046875 1.40625,0 2.921875,-2.859375 2.921875,-5.09375 z M 1.46875,-3.625 C 1.640625,-4.25 1.84375,-5.046875 2.25,-5.765625 2.515625,-6.25 2.875,-6.8125 3.328125,-6.8125 c 0.484375,0 0.546875,0.640625 0.546875,1.203125 0,0.5 -0.078125,1 -0.3125,1.984375 z m 2,0.328125 C 3.359375,-2.84375 3.15625,-2 2.765625,-1.28125 c -0.34375,0.6875 -0.71875,1.171875 -1.15625,1.171875 -0.328125,0 -0.53125,-0.296875 -0.53125,-1.21875 0,-0.421875 0.0625,-1 0.3125,-1.96875 z m 0,0"
               id="path29502" />
          </symbol>
        </g>
      </defs>
      <g
         id="g29516"
         transform="translate(-149.134,-127.734)">
        <g
           style="fill:#000000;fill-opacity:1"
           id="g29514">
          <g
             transform="translate(148.712,134.765)"
             id="g29512">
            <path
               style="stroke:none"
               d="m 4.53125,-4.984375 c 0,-0.65625 -0.171875,-2.046875 -1.1875,-2.046875 -1.390625,0 -2.921875,2.8125 -2.921875,5.09375 0,0.9375 0.28125,2.046875 1.1875,2.046875 1.40625,0 2.921875,-2.859375 2.921875,-5.09375 z M 1.46875,-3.625 C 1.640625,-4.25 1.84375,-5.046875 2.25,-5.765625 2.515625,-6.25 2.875,-6.8125 3.328125,-6.8125 c 0.484375,0 0.546875,0.640625 0.546875,1.203125 0,0.5 -0.078125,1 -0.3125,1.984375 z m 2,0.328125 C 3.359375,-2.84375 3.15625,-2 2.765625,-1.28125 c -0.34375,0.6875 -0.71875,1.171875 -1.15625,1.171875 -0.328125,0 -0.53125,-0.296875 -0.53125,-1.21875 0,-0.421875 0.0625,-1 0.3125,-1.96875 z m 0,0"
               id="path29510" />
          </g>
        </g>
      </g>
    </g>
    <path
       style="fill:none;stroke:#000000;stroke-width:0.620079;stroke-linecap:butt;stroke-linejoin:miter;stroke-dasharray:none;stroke-opacity:1"
       d="m 302.08459,1227.5672 c 9.83574,3.878 7.01914,12.2073 7.01914,12.2073"
       id="path29520"
       sodipodi:nodetypes="cc" />
  </g>
</svg>
