<?xml version="1.0" encoding="UTF-8" standalone="no"?>
<svg
   xmlns:ns0="http://www.iki.fi/pav/software/textext/"
   xmlns:dc="http://purl.org/dc/elements/1.1/"
   xmlns:cc="http://creativecommons.org/ns#"
   xmlns:rdf="http://www.w3.org/1999/02/22-rdf-syntax-ns#"
   xmlns:svg="http://www.w3.org/2000/svg"
   xmlns="http://www.w3.org/2000/svg"
   xmlns:sodipodi="http://sodipodi.sourceforge.net/DTD/sodipodi-0.dtd"
   xmlns:inkscape="http://www.inkscape.org/namespaces/inkscape"
   sodipodi:docname="Lenzs-Law-Square-Loop.svg"
   inkscape:version="1.0 (4035a4fb49, 2020-05-01)"
   version="1.1"
   id="svg2"
   viewBox="0 0 302.66646 143.50802"
   height="40.501175mm"
   width="85.419212mm">
  <sodipodi:namedview
     inkscape:document-rotation="0"
     fit-margin-bottom="0"
     fit-margin-right="0"
     fit-margin-left="0"
     fit-margin-top="0"
     inkscape:window-maximized="1"
     inkscape:window-y="-6"
     inkscape:window-x="-6"
     inkscape:window-height="842"
     inkscape:window-width="1368"
     showgrid="false"
     inkscape:current-layer="svg2"
     inkscape:document-units="px"
     inkscape:cy="109.47371"
     inkscape:cx="118.11192"
     inkscape:zoom="2.8"
     inkscape:pageshadow="2"
     inkscape:pageopacity="0.0"
     borderopacity="1.0"
     bordercolor="#666666"
     pagecolor="#ffffff"
     id="base" />
  <defs
     id="defs4">
    <marker
       inkscape:isstock="true"
       style="overflow:visible"
       id="marker4039"
       refX="0"
       refY="0"
       orient="auto"
       inkscape:stockid="Arrow2Mend">
      <path
         transform="scale(-0.6)"
         d="M 8.7185878,4.0337352 -2.2072895,0.01601326 8.7185884,-4.0017078 c -1.7454984,2.3720609 -1.7354408,5.6174519 -6e-7,8.035443 z"
         style="fill:#ff7f2a;fill-opacity:1;fill-rule:evenodd;stroke:#ff7f2a;stroke-width:0.625;stroke-linejoin:round;stroke-opacity:1"
         id="path4037"
         inkscape:connector-curvature="0" />
    </marker>
    <marker
       inkscape:isstock="true"
       style="overflow:visible"
       id="marker3556"
       refX="0"
       refY="0"
       orient="auto"
       inkscape:stockid="Arrow1Lend">
      <path
         inkscape:connector-curvature="0"
         transform="matrix(-0.8,0,0,-0.8,-10,0)"
         style="fill:#32bef2;fill-opacity:1;fill-rule:evenodd;stroke:#32bef2;stroke-width:1.00000003pt;stroke-opacity:1"
         d="M 0,0 5,-5 -12.5,0 5,5 Z"
         id="path3554" />
    </marker>
    <marker
       inkscape:stockid="Arrow1Lend"
       orient="auto"
       refY="0"
       refX="0"
       id="marker3468"
       style="overflow:visible"
       inkscape:isstock="true">
      <path
         inkscape:connector-curvature="0"
         id="path3466"
         d="M 0,0 5,-5 -12.5,0 5,5 Z"
         style="fill:#32bef2;fill-opacity:1;fill-rule:evenodd;stroke:#32bef2;stroke-width:1.00000003pt;stroke-opacity:1"
         transform="matrix(-0.8,0,0,-0.8,-10,0)" />
    </marker>
    <marker
       inkscape:isstock="true"
       style="overflow:visible"
       id="marker3424"
       refX="0"
       refY="0"
       orient="auto"
       inkscape:stockid="Arrow1Lend">
      <path
         inkscape:connector-curvature="0"
         transform="matrix(-0.8,0,0,-0.8,-10,0)"
         style="fill:#32bef2;fill-opacity:1;fill-rule:evenodd;stroke:#32bef2;stroke-width:1.00000003pt;stroke-opacity:1"
         d="M 0,0 5,-5 -12.5,0 5,5 Z"
         id="path3422" />
    </marker>
    <marker
       inkscape:stockid="Arrow1Lend"
       orient="auto"
       refY="0"
       refX="0"
       id="marker1744"
       style="overflow:visible"
       inkscape:isstock="true">
      <path
         inkscape:connector-curvature="0"
         id="path1742"
         d="M 0,0 5,-5 -12.5,0 5,5 Z"
         style="fill:#32bef2;fill-opacity:1;fill-rule:evenodd;stroke:#32bef2;stroke-width:1.00000003pt;stroke-opacity:1"
         transform="matrix(-0.8,0,0,-0.8,-10,0)" />
    </marker>
    <marker
       inkscape:collect="always"
       inkscape:stockid="Arrow1Lend"
       orient="auto"
       refY="0"
       refX="0"
       id="marker1560"
       style="overflow:visible"
       inkscape:isstock="true">
      <path
         inkscape:connector-curvature="0"
         id="path1558"
         d="M 0,0 5,-5 -12.5,0 5,5 Z"
         style="fill:#32bef2;fill-opacity:1;fill-rule:evenodd;stroke:#32bef2;stroke-width:1.00000003pt;stroke-opacity:1"
         transform="matrix(-0.8,0,0,-0.8,-10,0)" />
    </marker>
    <marker
       inkscape:collect="always"
       inkscape:isstock="true"
       style="overflow:visible"
       id="marker1470"
       refX="0"
       refY="0"
       orient="auto"
       inkscape:stockid="Arrow1Lend">
      <path
         inkscape:connector-curvature="0"
         transform="matrix(-0.8,0,0,-0.8,-10,0)"
         style="fill:#32bef2;fill-opacity:1;fill-rule:evenodd;stroke:#32bef2;stroke-width:1.00000003pt;stroke-opacity:1"
         d="M 0,0 5,-5 -12.5,0 5,5 Z"
         id="path1468" />
    </marker>
    <marker
       inkscape:collect="always"
       inkscape:stockid="Arrow1Lend"
       orient="auto"
       refY="0"
       refX="0"
       id="marker1398"
       style="overflow:visible"
       inkscape:isstock="true">
      <path
         inkscape:connector-curvature="0"
         id="path1396"
         d="M 0,0 5,-5 -12.5,0 5,5 Z"
         style="fill:#32bef2;fill-opacity:1;fill-rule:evenodd;stroke:#32bef2;stroke-width:1.00000003pt;stroke-opacity:1"
         transform="matrix(-0.8,0,0,-0.8,-10,0)" />
    </marker>
    <marker
       inkscape:collect="always"
       inkscape:isstock="true"
       style="overflow:visible"
       id="Arrow1Lend"
       refX="0"
       refY="0"
       orient="auto"
       inkscape:stockid="Arrow1Lend">
      <path
         inkscape:connector-curvature="0"
         transform="matrix(-0.8,0,0,-0.8,-10,0)"
         style="fill:#32bef2;fill-opacity:1;fill-rule:evenodd;stroke:#32bef2;stroke-width:1.00000003pt;stroke-opacity:1"
         d="M 0,0 5,-5 -12.5,0 5,5 Z"
         id="path1055" />
    </marker>
    <marker
       inkscape:collect="always"
       inkscape:stockid="Arrow2Mend"
       orient="auto"
       refY="0"
       refX="0"
       id="marker4754"
       style="overflow:visible"
       inkscape:isstock="true">
      <path
         inkscape:connector-curvature="0"
         id="path4756"
         style="fill:#ff7f2a;fill-opacity:1;fill-rule:evenodd;stroke:#ff7f2a;stroke-width:0.625;stroke-linejoin:round;stroke-opacity:1"
         d="M 8.7185878,4.0337352 -2.2072895,0.01601326 8.7185884,-4.0017078 c -1.7454984,2.3720609 -1.7354408,5.6174519 -6e-7,8.035443 z"
         transform="scale(-0.6)" />
    </marker>
    <marker
       inkscape:stockid="Arrow2Mstart"
       orient="auto"
       refY="0"
       refX="0"
       id="marker4708"
       style="overflow:visible"
       inkscape:isstock="true">
      <path
         inkscape:connector-curvature="0"
         id="path4710"
         style="fill:#000000;fill-opacity:1;fill-rule:evenodd;stroke:#000000;stroke-width:0.625;stroke-linejoin:round;stroke-opacity:1"
         d="M 8.7185878,4.0337352 -2.2072895,0.01601326 8.7185884,-4.0017078 c -1.7454984,2.3720609 -1.7354408,5.6174519 -6e-7,8.035443 z"
         transform="scale(0.6)" />
    </marker>
    <marker
       inkscape:isstock="true"
       style="overflow:visible"
       id="Arrow1Send"
       refX="0"
       refY="0"
       orient="auto"
       inkscape:stockid="Arrow1Send">
      <path
         inkscape:connector-curvature="0"
         transform="matrix(-0.2,0,0,-0.2,-1.2,0)"
         style="fill:#000000;fill-opacity:1;fill-rule:evenodd;stroke:#000000;stroke-width:1.00000003pt;stroke-opacity:1"
         d="M 0,0 5,-5 -12.5,0 5,5 Z"
         id="path4225" />
    </marker>
    <marker
       inkscape:stockid="arrowSwitchStart"
       style="overflow:visible"
       refY="0"
       refX="0"
       orient="auto"
       id="arrowSwitchStart">
      <path
         inkscape:connector-curvature="0"
         id="path4250"
         transform="matrix(0.25,0,0,0.25,1.823125,0)"
         style="fill:#ff0000;fill-rule:evenodd;stroke:#ff0000;stroke-width:1"
         d="M 0,0 5,-5 -12.5,0 5,5 Z" />
    </marker>
    <marker
       inkscape:stockid="arrowSwitchEnd"
       style="overflow:visible"
       refY="0"
       refX="0"
       orient="auto"
       id="arrowSwitchEnd">
      <path
         inkscape:connector-curvature="0"
         id="path4253"
         transform="matrix(-0.25,0,0,-0.25,-1.823125,0)"
         style="fill:#ff0000;fill-rule:evenodd;stroke:#ff0000;stroke-width:1"
         d="M 0,0 5,-5 -12.5,0 5,5 Z" />
    </marker>
  </defs>
  <metadata
     id="metadata7">
    <rdf:RDF>
      <cc:Work
         rdf:about="">
        <dc:format>image/svg+xml</dc:format>
        <dc:type
           rdf:resource="http://purl.org/dc/dcmitype/StillImage" />
        <dc:title />
      </cc:Work>
    </rdf:RDF>
  </metadata>
  <g
     transform="translate(-37.642675,-878.0506)"
     id="layer1"
     inkscape:groupmode="layer"
     inkscape:label="Layer 1" />
  <path
     sodipodi:nodetypes="cccccc"
     style="fill:none;stroke:#000000;stroke-width:1.71424px;stroke-linecap:butt;stroke-linejoin:miter;stroke-opacity:1"
     d="M 129.9669,29.712004 38.097085,54.328452 v 0 73.791958 L 129.9669,103.50396 Z"
     id="path1642"
     inkscape:connector-curvature="0" />
  <path
     inkscape:connector-curvature="0"
     id="path1038"
     d="M 65.233596,51.387823 169.77614,79.399913"
     style="fill:none;stroke:#32bef2;stroke-width:0.937502px;stroke-linecap:butt;stroke-linejoin:miter;stroke-opacity:1;marker-end:url(#Arrow1Lend)" />
  <path
     style="fill:none;stroke:#32bef2;stroke-width:0.937502px;stroke-linecap:butt;stroke-linejoin:miter;stroke-opacity:1;marker-end:url(#marker1398)"
     d="M 65.233596,85.388135 169.77614,113.40022"
     id="path1394"
     inkscape:connector-curvature="0" />
  <path
     inkscape:connector-curvature="0"
     id="path1466"
     d="M 65.233596,68.387977 169.77614,96.400069"
     style="fill:none;stroke:#32bef2;stroke-width:0.937502px;stroke-linecap:butt;stroke-linejoin:miter;stroke-opacity:1;marker-end:url(#marker1470)" />
  <path
     style="fill:none;stroke:#32bef2;stroke-width:0.937502px;stroke-linecap:butt;stroke-linejoin:miter;stroke-opacity:1;marker-end:url(#marker1560)"
     d="M 65.233596,34.387668 169.77614,62.399759"
     id="path1556"
     inkscape:connector-curvature="0" />
  <path
     style="fill:none;stroke:#32bef2;stroke-width:0.937502px;stroke-linecap:butt;stroke-linejoin:miter;stroke-opacity:1;marker-end:url(#marker1744)"
     d="M 14.233132,64.987947 118.77568,93.000037"
     id="path1734"
     inkscape:connector-curvature="0" />
  <path
     inkscape:connector-curvature="0"
     id="path1736"
     d="M 14.233132,98.988251 118.77568,127.00034"
     style="fill:none;stroke:#32bef2;stroke-width:0.937502px;stroke-linecap:butt;stroke-linejoin:miter;stroke-opacity:1;marker-end:url(#marker3556)" />
  <path
     style="fill:none;stroke:#32bef2;stroke-width:0.937502px;stroke-linecap:butt;stroke-linejoin:miter;stroke-opacity:1;marker-end:url(#marker3468)"
     d="M 14.233132,81.988103 118.77568,110.00018"
     id="path1738"
     inkscape:connector-curvature="0" />
  <path
     inkscape:connector-curvature="0"
     id="path1740"
     d="M 14.233132,47.987792 118.77568,75.999883"
     style="fill:none;stroke:#32bef2;stroke-width:0.937502px;stroke-linecap:butt;stroke-linejoin:miter;stroke-opacity:1;marker-end:url(#marker3424)" />
  <g
     id="g3732"
     ns0:jacobian_sqrt="1.0"
     inkscapeversion="0.92.3"
     ns0:alignment="middle center"
     ns0:scale="0.750000000002"
     ns0:preamble="/home/mpnerem/.config/inkscape/extensions/textext/default_packages.tex"
     ns0:text="$\\vec{B}$"
     ns0:pdfconverter="pdf2svg"
     ns0:texconverter="pdflatex"
     ns0:version="0.11.0"
     transform="matrix(1.5299086,0,0,1.5299086,-50.866479,-69.366509)"
     style="fill:#32bef2;fill-opacity:1;stroke-width:1.10293">
    <g
       id="surface1"
       style="fill:#32bef2;fill-opacity:1;stroke-width:1.10293">
      <g
         id="g3725"
         style="fill:#32bef2;fill-opacity:1;stroke-width:1.10293">
        <path
           id="path3723"
           transform="translate(135.37,132.246)"
           d="m 5.359375,-5.9375 c -0.140625,0.140625 -0.46875,0.421875 -0.46875,0.59375 0,0.09375 0.09375,0.203125 0.1875,0.203125 0.09375,0 0.140625,-0.078125 0.203125,-0.140625 C 5.390625,-5.421875 5.625,-5.703125 6.0625,-5.921875 6.125,-5.96875 6.234375,-6.015625 6.234375,-6.125 6.234375,-6.234375 6.15625,-6.28125 6.09375,-6.328125 5.875,-6.484375 5.765625,-6.65625 5.6875,-6.890625 5.65625,-6.984375 5.625,-7.125 5.484375,-7.125 c -0.140625,0 -0.203125,0.140625 -0.203125,0.21875 0,0.046875 0.078125,0.359375 0.234375,0.578125 H 2.15625 c -0.15625,0 -0.34375,0 -0.34375,0.203125 0,0.1875 0.1875,0.1875 0.34375,0.1875 z m 0,0"
           style="fill:#32bef2;fill-opacity:1;stroke:none;stroke-width:0"
           inkscape:connector-curvature="0" />
      </g>
      <g
         id="g3729"
         style="fill:#32bef2;fill-opacity:1;stroke-width:1.10293">
        <path
           id="path3727"
           transform="translate(133.768,134.765)"
           d="M 1.59375,-0.78125 C 1.5,-0.390625 1.46875,-0.3125 0.6875,-0.3125 c -0.171875,0 -0.265625,0 -0.265625,0.203125 C 0.421875,0 0.515625,0 0.6875,0 H 4.25 C 5.828125,0 7,-1.171875 7,-2.15625 7,-2.875 6.421875,-3.453125 5.453125,-3.5625 6.484375,-3.75 7.53125,-4.484375 7.53125,-5.4375 c 0,-0.734375 -0.65625,-1.375 -1.84375,-1.375 H 2.328125 c -0.1875,0 -0.28125,0 -0.28125,0.203125 0,0.109375 0.09375,0.109375 0.28125,0.109375 0.015625,0 0.203125,0 0.375,0.015625 0.171875,0.03125 0.265625,0.03125 0.265625,0.171875 0,0.03125 -0.015625,0.0625 -0.03125,0.1875 z m 1.5,-2.875 0.625,-2.46875 C 3.8125,-6.46875 3.828125,-6.5 4.25,-6.5 h 1.296875 c 0.875,0 1.078125,0.59375 1.078125,1.03125 0,0.875 -0.859375,1.8125 -2.0625,1.8125 z m -0.4375,3.34375 c -0.140625,0 -0.15625,0 -0.21875,0 -0.109375,-0.015625 -0.140625,-0.03125 -0.140625,-0.109375 0,-0.03125 0,-0.046875 0.0625,-0.21875 l 0.6875,-2.78125 h 1.875 c 0.953125,0 1.15625,0.734375 1.15625,1.15625 C 6.078125,-1.28125 5.1875,-0.3125 4,-0.3125 Z m 0,0"
           style="fill:#32bef2;fill-opacity:1;stroke:none;stroke-width:0"
           inkscape:connector-curvature="0" />
      </g>
    </g>
  </g>
  <path
     style="fill:none;stroke:#ff7f2a;stroke-width:1.5;stroke-linecap:butt;stroke-linejoin:miter;stroke-miterlimit:4;stroke-dasharray:none;stroke-opacity:1;marker-end:url(#marker4754)"
     d="M 116.58359,30.541065 V 12.509676"
     id="path3779"
     inkscape:connector-curvature="0" />
  <g
     transform="matrix(1.5299084,0,0,1.5299084,-80.377662,-188.58109)"
     ns0:version="0.11.0"
     ns0:texconverter="pdflatex"
     ns0:pdfconverter="pdf2svg"
     ns0:text="$\\vec{v}$"
     ns0:preamble="/home/mpnerem/.config/inkscape/extensions/textext/default_packages.tex"
     ns0:scale="1.2655374"
     ns0:alignment="middle center"
     inkscapeversion="0.92.3"
     ns0:jacobian_sqrt="1.687383"
     style="fill:#ff7f2a;fill-opacity:1;stroke:#ff7f2a;stroke-width:1.10293;stroke-opacity:1"
     id="g3909">
    <g
       id="g3907"
       style="fill:#ff7f2a;fill-opacity:1;stroke:#ff7f2a;stroke-width:1.10293;stroke-opacity:1">
      <g
         style="fill:#ff7f2a;fill-opacity:1;stroke:#ff7f2a;stroke-width:1.10293;stroke-opacity:1"
         id="g3901">
        <path
           inkscape:connector-curvature="0"
           style="fill:#ff7f2a;fill-opacity:1;stroke:#ff7f2a;stroke-width:0;stroke-opacity:1"
           d="m 5.359375,-5.9375 c -0.140625,0.140625 -0.46875,0.421875 -0.46875,0.59375 0,0.09375 0.09375,0.203125 0.1875,0.203125 0.09375,0 0.140625,-0.078125 0.203125,-0.140625 C 5.390625,-5.421875 5.625,-5.703125 6.0625,-5.921875 6.125,-5.96875 6.234375,-6.015625 6.234375,-6.125 6.234375,-6.234375 6.15625,-6.28125 6.09375,-6.328125 5.875,-6.484375 5.765625,-6.65625 5.6875,-6.890625 5.65625,-6.984375 5.625,-7.125 5.484375,-7.125 c -0.140625,0 -0.203125,0.140625 -0.203125,0.21875 0,0.046875 0.078125,0.359375 0.234375,0.578125 H 2.15625 c -0.15625,0 -0.34375,0 -0.34375,0.203125 0,0.1875 0.1875,0.1875 0.34375,0.1875 z m 0,0"
           transform="translate(133.382,134.765)"
           id="path3899" />
      </g>
      <g
         style="fill:#ff7f2a;fill-opacity:1;stroke:#ff7f2a;stroke-width:1.10293;stroke-opacity:1"
         id="g3905">
        <path
           inkscape:connector-curvature="0"
           style="fill:#ff7f2a;fill-opacity:1;stroke:#ff7f2a;stroke-width:0;stroke-opacity:1"
           d="m 4.671875,-3.703125 c 0,-0.546875 -0.265625,-0.703125 -0.4375,-0.703125 -0.25,0 -0.5,0.265625 -0.5,0.484375 0,0.125 0.046875,0.1875 0.15625,0.296875 0.21875,0.203125 0.34375,0.453125 0.34375,0.8125 0,0.421875 -0.609375,2.703125 -1.765625,2.703125 -0.515625,0 -0.75,-0.34375 -0.75,-0.875 0,-0.546875 0.28125,-1.28125 0.578125,-2.109375 0.078125,-0.171875 0.125,-0.3125 0.125,-0.5 0,-0.4375 -0.3125,-0.8125 -0.8125,-0.8125 -0.9375,0 -1.3125,1.453125 -1.3125,1.53125 0,0.109375 0.09375,0.109375 0.109375,0.109375 0.109375,0 0.109375,-0.03125 0.15625,-0.1875 0.296875,-1 0.71875,-1.234375 1.015625,-1.234375 0.078125,0 0.25,0 0.25,0.3125 0,0.25 -0.109375,0.53125 -0.171875,0.703125 -0.4375,1.15625 -0.5625,1.609375 -0.5625,2.046875 0,1.078125 0.875,1.234375 1.328125,1.234375 1.671875,0 2.25,-3.296875 2.25,-3.8125 z m 0,0"
           transform="translate(133.77054,134.765)"
           id="path3903" />
      </g>
    </g>
  </g>
  <rect
     ry="0.66964293"
     rx="1.7622838"
     y="31.043736"
     x="213.59113"
     height="74.272141"
     width="74.272141"
     id="rect3987"
     style="opacity:1;fill:none;fill-opacity:1;fill-rule:nonzero;stroke:#000000;stroke-width:1.5;stroke-linecap:round;stroke-linejoin:miter;stroke-miterlimit:4;stroke-dasharray:none;stroke-dashoffset:15.1181;stroke-opacity:1" />
  <circle
     r="3.8638692"
     cy="81.779915"
     cx="228.62698"
     id="path3989"
     style="opacity:1;fill:#32bef2;fill-opacity:1;fill-rule:nonzero;stroke:none;stroke-width:1.68749;stroke-linecap:round;stroke-linejoin:miter;stroke-miterlimit:4;stroke-dasharray:none;stroke-dashoffset:15.1181;stroke-opacity:1" />
  <circle
     style="opacity:1;fill:#32bef2;fill-opacity:1;fill-rule:nonzero;stroke:none;stroke-width:1.68749;stroke-linecap:round;stroke-linejoin:miter;stroke-miterlimit:4;stroke-dasharray:none;stroke-dashoffset:15.1181;stroke-opacity:1"
     id="circle3991"
     cx="250.72719"
     cy="81.779915"
     r="3.8638692" />
  <circle
     r="3.8638692"
     cy="115.78024"
     cx="250.72719"
     id="circle3993"
     style="opacity:1;fill:#32bef2;fill-opacity:1;fill-rule:nonzero;stroke:none;stroke-width:1.68749;stroke-linecap:round;stroke-linejoin:miter;stroke-miterlimit:4;stroke-dasharray:none;stroke-dashoffset:15.1181;stroke-opacity:1" />
  <circle
     style="opacity:1;fill:#32bef2;fill-opacity:1;fill-rule:nonzero;stroke:none;stroke-width:1.68749;stroke-linecap:round;stroke-linejoin:miter;stroke-miterlimit:4;stroke-dasharray:none;stroke-dashoffset:15.1181;stroke-opacity:1"
     id="circle3995"
     cx="228.62698"
     cy="115.78024"
     r="3.8638692" />
  <circle
     r="3.8638692"
     cy="81.779915"
     cx="272.82739"
     id="circle4007"
     style="opacity:1;fill:#32bef2;fill-opacity:1;fill-rule:nonzero;stroke:none;stroke-width:1.68749;stroke-linecap:round;stroke-linejoin:miter;stroke-miterlimit:4;stroke-dasharray:none;stroke-dashoffset:15.1181;stroke-opacity:1" />
  <circle
     style="opacity:1;fill:#32bef2;fill-opacity:1;fill-rule:nonzero;stroke:none;stroke-width:1.68749;stroke-linecap:round;stroke-linejoin:miter;stroke-miterlimit:4;stroke-dasharray:none;stroke-dashoffset:15.1181;stroke-opacity:1"
     id="circle4009"
     cx="272.82739"
     cy="115.78024"
     r="3.8638692" />
  <circle
     style="opacity:1;fill:#32bef2;fill-opacity:1;fill-rule:nonzero;stroke:none;stroke-width:1.68749;stroke-linecap:round;stroke-linejoin:miter;stroke-miterlimit:4;stroke-dasharray:none;stroke-dashoffset:15.1181;stroke-opacity:1"
     id="circle4011"
     cx="228.62698"
     cy="98.780067"
     r="3.8638692" />
  <circle
     r="3.8638692"
     cy="98.780067"
     cx="250.72719"
     id="circle4013"
     style="opacity:1;fill:#32bef2;fill-opacity:1;fill-rule:nonzero;stroke:none;stroke-width:1.68749;stroke-linecap:round;stroke-linejoin:miter;stroke-miterlimit:4;stroke-dasharray:none;stroke-dashoffset:15.1181;stroke-opacity:1" />
  <circle
     style="opacity:1;fill:#32bef2;fill-opacity:1;fill-rule:nonzero;stroke:none;stroke-width:1.68749;stroke-linecap:round;stroke-linejoin:miter;stroke-miterlimit:4;stroke-dasharray:none;stroke-dashoffset:15.1181;stroke-opacity:1"
     id="circle4015"
     cx="272.82739"
     cy="98.780067"
     r="3.8638692" />
  <path
     inkscape:connector-curvature="0"
     id="path4023"
     d="M 235.58466,30.541065 V 12.509676"
     style="fill:none;stroke:#ff7f2a;stroke-width:1.5;stroke-linecap:butt;stroke-linejoin:miter;stroke-miterlimit:4;stroke-dasharray:none;stroke-opacity:1;marker-end:url(#marker4039)" />
  <g
     id="g4035"
     style="fill:#ff7f2a;fill-opacity:1;stroke:#ff7f2a;stroke-width:1.10293;stroke-opacity:1"
     ns0:jacobian_sqrt="1.687383"
     inkscapeversion="0.92.3"
     ns0:alignment="middle center"
     ns0:scale="1.2655374"
     ns0:preamble="/home/mpnerem/.config/inkscape/extensions/textext/default_packages.tex"
     ns0:text="$\\vec{v}$"
     ns0:pdfconverter="pdf2svg"
     ns0:texconverter="pdflatex"
     ns0:version="0.11.0"
     transform="matrix(1.5299084,0,0,1.5299084,38.623427,-188.58109)">
    <g
       style="fill:#ff7f2a;fill-opacity:1;stroke:#ff7f2a;stroke-width:1.10293;stroke-opacity:1"
       id="g4033">
      <g
         id="g4027"
         style="fill:#ff7f2a;fill-opacity:1;stroke:#ff7f2a;stroke-width:1.10293;stroke-opacity:1">
        <path
           id="path4025"
           transform="translate(133.382,134.765)"
           d="m 5.359375,-5.9375 c -0.140625,0.140625 -0.46875,0.421875 -0.46875,0.59375 0,0.09375 0.09375,0.203125 0.1875,0.203125 0.09375,0 0.140625,-0.078125 0.203125,-0.140625 C 5.390625,-5.421875 5.625,-5.703125 6.0625,-5.921875 6.125,-5.96875 6.234375,-6.015625 6.234375,-6.125 6.234375,-6.234375 6.15625,-6.28125 6.09375,-6.328125 5.875,-6.484375 5.765625,-6.65625 5.6875,-6.890625 5.65625,-6.984375 5.625,-7.125 5.484375,-7.125 c -0.140625,0 -0.203125,0.140625 -0.203125,0.21875 0,0.046875 0.078125,0.359375 0.234375,0.578125 H 2.15625 c -0.15625,0 -0.34375,0 -0.34375,0.203125 0,0.1875 0.1875,0.1875 0.34375,0.1875 z m 0,0"
           style="fill:#ff7f2a;fill-opacity:1;stroke:#ff7f2a;stroke-width:0;stroke-opacity:1"
           inkscape:connector-curvature="0" />
      </g>
      <g
         id="g4031"
         style="fill:#ff7f2a;fill-opacity:1;stroke:#ff7f2a;stroke-width:1.10293;stroke-opacity:1">
        <path
           id="path4029"
           transform="translate(133.77054,134.765)"
           d="m 4.671875,-3.703125 c 0,-0.546875 -0.265625,-0.703125 -0.4375,-0.703125 -0.25,0 -0.5,0.265625 -0.5,0.484375 0,0.125 0.046875,0.1875 0.15625,0.296875 0.21875,0.203125 0.34375,0.453125 0.34375,0.8125 0,0.421875 -0.609375,2.703125 -1.765625,2.703125 -0.515625,0 -0.75,-0.34375 -0.75,-0.875 0,-0.546875 0.28125,-1.28125 0.578125,-2.109375 0.078125,-0.171875 0.125,-0.3125 0.125,-0.5 0,-0.4375 -0.3125,-0.8125 -0.8125,-0.8125 -0.9375,0 -1.3125,1.453125 -1.3125,1.53125 0,0.109375 0.09375,0.109375 0.109375,0.109375 0.109375,0 0.109375,-0.03125 0.15625,-0.1875 0.296875,-1 0.71875,-1.234375 1.015625,-1.234375 0.078125,0 0.25,0 0.25,0.3125 0,0.25 -0.109375,0.53125 -0.171875,0.703125 -0.4375,1.15625 -0.5625,1.609375 -0.5625,2.046875 0,1.078125 0.875,1.234375 1.328125,1.234375 1.671875,0 2.25,-3.296875 2.25,-3.8125 z m 0,0"
           style="fill:#ff7f2a;fill-opacity:1;stroke:#ff7f2a;stroke-width:0;stroke-opacity:1"
           inkscape:connector-curvature="0" />
      </g>
    </g>
  </g>
</svg>
