<?xml version="1.0" encoding="UTF-8" standalone="no"?>
<svg
   xmlns:ns0="http://www.iki.fi/pav/software/textext/"
   xmlns:dc="http://purl.org/dc/elements/1.1/"
   xmlns:cc="http://creativecommons.org/ns#"
   xmlns:rdf="http://www.w3.org/1999/02/22-rdf-syntax-ns#"
   xmlns:svg="http://www.w3.org/2000/svg"
   xmlns="http://www.w3.org/2000/svg"
   xmlns:sodipodi="http://sodipodi.sourceforge.net/DTD/sodipodi-0.dtd"
   xmlns:inkscape="http://www.inkscape.org/namespaces/inkscape"
   sodipodi:docname="Lenzs-Law-Cocentric-Loops.svg"
   inkscape:version="1.0 (4035a4fb49, 2020-05-01)"
   version="1.1"
   id="svg2"
   viewBox="0 0 274.3285 192.43117"
   height="54.308384mm"
   width="77.421608mm">
  <sodipodi:namedview
     inkscape:document-rotation="0"
     fit-margin-bottom="0"
     fit-margin-right="0"
     fit-margin-left="0"
     fit-margin-top="0"
     inkscape:window-maximized="1"
     inkscape:window-y="-6"
     inkscape:window-x="-6"
     inkscape:window-height="842"
     inkscape:window-width="1368"
     showgrid="false"
     inkscape:current-layer="layer3"
     inkscape:document-units="px"
     inkscape:cy="132.00625"
     inkscape:cx="66.053604"
     inkscape:zoom="1.4"
     inkscape:pageshadow="2"
     inkscape:pageopacity="0.0"
     borderopacity="1.0"
     bordercolor="#666666"
     pagecolor="#ffffff"
     id="base" />
  <defs
     id="defs4">
    <marker
       inkscape:isstock="true"
       style="overflow:visible"
       id="marker4754"
       refX="0"
       refY="0"
       orient="auto"
       inkscape:stockid="Arrow2Mend">
      <path
         transform="scale(-0.6,-0.6)"
         d="M 8.7185878,4.0337352 -2.2072895,0.01601326 8.7185884,-4.0017078 c -1.7454984,2.3720609 -1.7354408,5.6174519 -6e-7,8.035443 z"
         style="fill:#000000;fill-opacity:1;fill-rule:evenodd;stroke:#000000;stroke-width:0.625;stroke-linejoin:round;stroke-opacity:1"
         id="path4756"
         inkscape:connector-curvature="0" />
    </marker>
    <marker
       inkscape:isstock="true"
       style="overflow:visible"
       id="marker4708"
       refX="0"
       refY="0"
       orient="auto"
       inkscape:stockid="Arrow2Mstart">
      <path
         transform="scale(0.6,0.6)"
         d="M 8.7185878,4.0337352 -2.2072895,0.01601326 8.7185884,-4.0017078 c -1.7454984,2.3720609 -1.7354408,5.6174519 -6e-7,8.035443 z"
         style="fill:#000000;fill-opacity:1;fill-rule:evenodd;stroke:#000000;stroke-width:0.625;stroke-linejoin:round;stroke-opacity:1"
         id="path4710"
         inkscape:connector-curvature="0" />
    </marker>
    <marker
       inkscape:stockid="Arrow2Mstart"
       orient="auto"
       refY="0"
       refX="0"
       id="Arrow2Mstart"
       style="overflow:visible"
       inkscape:isstock="true"
       inkscape:collect="always">
      <path
         id="path4234"
         style="fill:#000000;fill-opacity:1;fill-rule:evenodd;stroke:#000000;stroke-width:0.625;stroke-linejoin:round;stroke-opacity:1"
         d="M 8.7185878,4.0337352 -2.2072895,0.01601326 8.7185884,-4.0017078 c -1.7454984,2.3720609 -1.7354408,5.6174519 -6e-7,8.035443 z"
         transform="scale(0.6,0.6)"
         inkscape:connector-curvature="0" />
    </marker>
    <marker
       inkscape:stockid="Arrow2Mend"
       orient="auto"
       refY="0"
       refX="0"
       id="Arrow2Mend"
       style="overflow:visible"
       inkscape:isstock="true"
       inkscape:collect="always">
      <path
         id="path4237"
         style="fill:#000000;fill-opacity:1;fill-rule:evenodd;stroke:#000000;stroke-width:0.625;stroke-linejoin:round;stroke-opacity:1"
         d="M 8.7185878,4.0337352 -2.2072895,0.01601326 8.7185884,-4.0017078 c -1.7454984,2.3720609 -1.7354408,5.6174519 -6e-7,8.035443 z"
         transform="scale(-0.6,-0.6)"
         inkscape:connector-curvature="0" />
    </marker>
    <marker
       inkscape:stockid="Arrow1Send"
       orient="auto"
       refY="0"
       refX="0"
       id="Arrow1Send"
       style="overflow:visible"
       inkscape:isstock="true">
      <path
         id="path4225"
         d="M 0,0 5,-5 -12.5,0 5,5 0,0 Z"
         style="fill:#000000;fill-opacity:1;fill-rule:evenodd;stroke:#000000;stroke-width:1pt;stroke-opacity:1"
         transform="matrix(-0.2,0,0,-0.2,-1.2,0)"
         inkscape:connector-curvature="0" />
    </marker>
    <marker
       id="arrowSwitchStart"
       orient="auto"
       refX="0"
       refY="0"
       style="overflow:visible"
       inkscape:stockid="arrowSwitchStart">
      <path
         d="M 0,0 5,-5 -12.5,0 5,5 0,0 Z"
         style="fill:#ff0000;fill-rule:evenodd;stroke:#ff0000;stroke-width:1"
         transform="matrix(0.25,0,0,0.25,1.823125,0)"
         id="path4250"
         inkscape:connector-curvature="0" />
    </marker>
    <marker
       id="arrowSwitchEnd"
       orient="auto"
       refX="0"
       refY="0"
       style="overflow:visible"
       inkscape:stockid="arrowSwitchEnd">
      <path
         d="M 0,0 5,-5 -12.5,0 5,5 0,0 Z"
         style="fill:#ff0000;fill-rule:evenodd;stroke:#ff0000;stroke-width:1"
         transform="matrix(-0.25,0,0,-0.25,-1.823125,0)"
         id="path4253"
         inkscape:connector-curvature="0" />
    </marker>
  </defs>
  <metadata
     id="metadata7">
    <rdf:RDF>
      <cc:Work
         rdf:about="">
        <dc:format>image/svg+xml</dc:format>
        <dc:type
           rdf:resource="http://purl.org/dc/dcmitype/StillImage" />
        <dc:title />
      </cc:Work>
    </rdf:RDF>
  </metadata>
  <g
     inkscape:label="Layer 1"
     inkscape:groupmode="layer"
     id="layer1"
     transform="translate(-32.931335,-858.7061)" />
  <path
     sodipodi:arc-type="arc"
     d="m -224.76579,106.58644 a 50.31255,50.303986 0 0 1 38.82604,-59.592928 50.31255,50.303986 0 0 1 59.62391,38.787446 50.31255,50.303986 0 0 1 -38.76205,59.634562 50.31255,50.303986 0 0 1 -59.66551,-38.72343"
     sodipodi:open="true"
     sodipodi:end="2.9316819"
     sodipodi:start="2.9338287"
     sodipodi:ry="50.303986"
     sodipodi:rx="50.31255"
     sodipodi:cy="96.210114"
     sodipodi:cx="-175.53523"
     sodipodi:type="arc"
     id="path4140"
     style="opacity:1;fill:#ffeeaa;fill-opacity:1;stroke:#000000;stroke-width:1;stroke-linecap:butt;stroke-miterlimit:4;stroke-dasharray:none;stroke-dashoffset:0;stroke-opacity:1"
     transform="scale(-1,1)" />
  <path
     sodipodi:arc-type="arc"
     style="opacity:1;fill:none;fill-opacity:1;stroke:#000000;stroke-width:1.5;stroke-linecap:round;stroke-miterlimit:4;stroke-dasharray:none;stroke-dashoffset:0;stroke-opacity:1"
     id="path4136"
     sodipodi:type="arc"
     sodipodi:cx="-175.53525"
     sodipodi:cy="96.210091"
     sodipodi:rx="89.444527"
     sodipodi:ry="89.429306"
     sodipodi:start="0.29593681"
     sodipodi:end="6.1558602"
     sodipodi:open="true"
     d="M -89.978932,122.2909 A 89.444527,89.429306 0 0 1 -192.4383,184.028 89.444527,89.429306 0 0 1 -264.6621,88.679605 89.444527,89.429306 0 0 1 -177.45902,6.8014717 89.444527,89.429306 0 0 1 -86.814765,84.854236"
     transform="scale(-1,1)" />
  <path
     sodipodi:arc-type="arc"
     style="opacity:1;fill:#ffffff;fill-opacity:1;stroke:#000000;stroke-width:1;stroke-linecap:butt;stroke-miterlimit:4;stroke-dasharray:none;stroke-dashoffset:0;stroke-opacity:1"
     id="path4142"
     sodipodi:type="arc"
     sodipodi:cx="-175.53523"
     sodipodi:cy="96.210114"
     sodipodi:rx="45.35722"
     sodipodi:ry="45.349499"
     sodipodi:start="2.9338287"
     sodipodi:end="2.9316819"
     sodipodi:open="true"
     d="m -219.91703,105.56447 a 45.35722,45.349499 0 0 1 35.00203,-53.723569 45.35722,45.349499 0 0 1 53.75149,34.967234 45.35722,45.349499 0 0 1 -34.94433,53.761095 45.35722,45.349499 0 0 1 -53.789,-34.90952"
     transform="scale(-1,1)" />
  <g
     style="stroke-width:1.06734"
     id="g4419"
     transform="matrix(1.8300588,0,0,1.8297473,-619.57507,-245.11303)">
    <g
       style="stroke-width:1.06734"
       transform="rotate(-90,308.35723,217.57248)"
       id="g4209"
       inkscape:label="Source">
      <path
         id="path4211"
         inkscape:label="none"
         style="fill:none;stroke:#000000;stroke-width:1.06734;stroke-linecap:round;stroke-linejoin:round;stroke-dasharray:none"
         d="M 325.12804,260 H 334"
         inkscape:connector-curvature="0"
         sodipodi:nodetypes="cc" />
      <path
         id="path4213"
         inkscape:label="none"
         style="fill:none;stroke:#000000;stroke-width:1.06734;stroke-linecap:round;stroke-linejoin:round;stroke-dasharray:none"
         d="M 345.54848,260 H 337"
         inkscape:connector-curvature="0"
         sodipodi:nodetypes="cc" />
      <path
         id="path4215"
         inkscape:label="none"
         style="fill:none;stroke:#000000;stroke-width:0.640403;stroke-linecap:round;stroke-linejoin:round;stroke-dasharray:none"
         d="m 341,256 h -2"
         inkscape:connector-curvature="0" />
      <path
         id="path4217"
         inkscape:label="none"
         style="fill:none;stroke:#000000;stroke-width:0.640403;stroke-linecap:round;stroke-linejoin:round;stroke-dasharray:none"
         d="m 340,255 v 2"
         inkscape:connector-curvature="0" />
      <path
         id="path4219"
         inkscape:label="none"
         style="fill:none;stroke:#000000;stroke-width:0.640403;stroke-linecap:round;stroke-linejoin:round;stroke-dasharray:none"
         d="m 331,255 v 2"
         inkscape:connector-curvature="0" />
      <path
         id="path4221"
         inkscape:label="none"
         style="fill:none;stroke:#000000;stroke-width:1.06734;stroke-linecap:round;stroke-linejoin:round;stroke-dasharray:none"
         d="m 334,263 v -6"
         inkscape:connector-curvature="0" />
      <path
         id="path4223"
         inkscape:label="none"
         style="fill:none;stroke:#000000;stroke-width:1.06734;stroke-linecap:round;stroke-linejoin:round;stroke-dasharray:none"
         d="M 337,267 V 253"
         inkscape:connector-curvature="0" />
    </g>
  </g>
  <path
     id="path4366"
     inkscape:label="none"
     style="fill:none;stroke:#000000;stroke-width:1.95312;stroke-linecap:round;stroke-linejoin:round;stroke-dasharray:none"
     d="M 22.610234,122.35598 H 89.42783"
     inkscape:connector-curvature="0"
     sodipodi:nodetypes="cc" />
  <path
     inkscape:connector-curvature="0"
     d="M 86.389724,85.152142 H 68.067308 L 42.242487,74.82397"
     style="fill:none;stroke:#000000;stroke-width:1.953;stroke-linecap:round;stroke-linejoin:round;stroke-miterlimit:4;stroke-dasharray:none"
     inkscape:label="none"
     id="path4451"
     sodipodi:nodetypes="ccc" />
  <path
     inkscape:connector-curvature="0"
     d="m 22.491921,84.88275 h 17.48113"
     style="fill:none;stroke:#000000;stroke-width:1.95312;stroke-linecap:round;stroke-linejoin:round;stroke-dasharray:none"
     inkscape:label="none"
     id="path4453"
     sodipodi:nodetypes="cc" />
  <ellipse
     ry="1.8297473"
     rx="1.8300588"
     cy="84.882751"
     cx="-39.058022"
     style="fill:#000000;stroke:#000000;stroke-width:1.36719;stroke-linecap:round;stroke-linejoin:round;stroke-dasharray:none"
     inkscape:label="circle"
     id="circle4455"
     transform="scale(-1,1)" />
  <ellipse
     ry="1.8297473"
     rx="1.8300588"
     cy="84.882751"
     cx="-66.289299"
     style="fill:#000000;stroke:#000000;stroke-width:1.36719;stroke-linecap:round;stroke-linejoin:round;stroke-dasharray:none"
     inkscape:label="circle"
     id="circle4457"
     transform="scale(-1,1)" />
  <g
     transform="matrix(1.3535938,0,0,-1.3533634,-268.51838,713.37301)"
     ns0:preamble="/home/mpnerem/.config/inkscape/extensions/textextLib/CircuitSymbolsLatexPreamble.tex"
     ns0:text=" $S$"
     word-spacing="normal"
     letter-spacing="normal"
     font-size-adjust="none"
     font-stretch="normal"
     font-weight="normal"
     font-variant="normal"
     font-style="normal"
     stroke-miterlimit="10.433"
     xml:space="preserve"
     id="g4461"
     style="font-style:normal;font-variant:normal;font-weight:normal;font-stretch:normal;letter-spacing:normal;word-spacing:normal;text-anchor:start;fill:none;fill-opacity:1;fill-rule:evenodd;stroke:#000000;stroke-width:1.06734;stroke-linecap:butt;stroke-linejoin:miter;stroke-miterlimit:10.433;stroke-dasharray:none;stroke-dashoffset:0;stroke-opacity:1"><path
       id="path4463"
       style="fill:#000000;stroke-width:0"
       d="m 229.86,484.16 v 0 0 0.01 0 0 0.01 h -0.01 v 0 0.01 0 0.01 0 l -0.01,0.01 v 0 0 0.01 h -0.01 v 0.01 0 h -0.01 v 0.01 h -0.01 v 0 h -0.01 v 0.01 0 h -0.01 v 0 0 h -0.01 v 0 0 h -0.01 v 0 l -0.01,0.01 v 0 0 h -0.01 v 0 c -0.05,0 -0.06,-0.01 -0.18,-0.15 l -0.48,-0.57 c -0.26,0.47 -0.78,0.72 -1.42,0.72 -1.27,0 -2.46,-1.15 -2.46,-2.36 0,-0.8 0.52,-1.26 1.03,-1.41 l 1.07,-0.28 c 0.37,-0.09 0.92,-0.24 0.92,-1.06 0,-0.89 -0.82,-1.83 -1.8,-1.83 -0.64,0 -1.74,0.22 -1.74,1.46 0,0.24 0.05,0.48 0.06,0.54 0.01,0.04 0.02,0.04 0.02,0.06 0,0.1 -0.07,0.11 -0.12,0.11 -0.05,0 -0.07,-0.01 -0.1,-0.04 -0.04,-0.04 -0.6,-2.31 -0.6,-2.34 0,-0.06 0.05,-0.1 0.11,-0.1 0.05,0 0.06,0.01 0.18,0.15 l 0.49,0.57 c 0.43,-0.58 1.1,-0.72 1.68,-0.72 1.36,0 2.53,1.33 2.53,2.56 0,0.69 -0.34,1.03 -0.49,1.17 -0.22,0.23 -0.38,0.27 -1.26,0.5 -0.22,0.06 -0.58,0.16 -0.67,0.18 -0.27,0.09 -0.61,0.38 -0.61,0.9 0,0.81 0.8,1.66 1.75,1.66 0.82,0 1.43,-0.43 1.43,-1.55 0,-0.32 -0.04,-0.5 -0.04,-0.55 0,-0.02 0,-0.11 0.12,-0.11 0.1,0 0.11,0.03 0.15,0.21 z"
       inkscape:connector-curvature="0" /></g>
  <g
     style="display:none"
     inkscape:label="Layer 2"
     id="layer3"
     inkscape:groupmode="layer">
    <path
       style="fill:none;fill-rule:evenodd;stroke:#000000;stroke-width:1.5;stroke-linecap:butt;stroke-linejoin:miter;stroke-miterlimit:4;stroke-dasharray:3, 1.5;stroke-dashoffset:0;stroke-opacity:1;marker-start:url(#Arrow2Mstart);marker-end:url(#Arrow2Mend)"
       d="m 132.07966,96.210139 h 42.18883"
       id="path4202"
       inkscape:connector-curvature="0"
       sodipodi:nodetypes="cc" />
    <path
       inkscape:connector-curvature="0"
       id="path4706"
       d="M 175.5352,8.5205201 V 94.233893"
       style="fill:none;fill-rule:evenodd;stroke:#000000;stroke-width:1.5;stroke-linecap:butt;stroke-linejoin:miter;stroke-miterlimit:4;stroke-dasharray:3, 1.5;stroke-dashoffset:0;stroke-opacity:1;marker-start:url(#marker4708);marker-end:url(#marker4754)"
       sodipodi:nodetypes="cc" />
    <g
       transform="matrix(1.4264175,0,0,1.4261747,-11.976477,-156.66473)"
       ns0:version="0.11.0"
       ns0:texconverter="pdflatex"
       ns0:pdfconverter="pdf2svg"
       ns0:text="\\SI{0.33}{\\meter}"
       ns0:preamble="/home/mpnerem/.config/inkscape/extensions/textext/default_packages.tex"
       ns0:scale="0.750000000002"
       ns0:alignment="middle center"
       inkscapeversion="0.92.3"
       ns0:jacobian_sqrt="1.52234"
       style="fill-opacity:1;stroke:#000000;stroke-width:1.06734;stroke-opacity:1"
       id="g990">
      <g
         id="surface1"
         style="fill-opacity:1;stroke:#000000;stroke-width:1.13921;stroke-opacity:1">
        <g
           style="fill:#000000;fill-opacity:1;stroke:#000000;stroke-width:1.06734;stroke-opacity:1"
           id="g973">
          <path
             style="fill-opacity:1;stroke:#000000;stroke-width:0;stroke-opacity:1"
             d="m 4.578125,-3.1875 c 0,-0.796875 -0.046875,-1.59375 -0.390625,-2.328125 -0.453125,-0.96875 -1.28125,-1.125 -1.6875,-1.125 -0.609375,0 -1.328125,0.265625 -1.75,1.1875 -0.3125,0.6875 -0.359375,1.46875 -0.359375,2.265625 0,0.75 0.03125,1.640625 0.453125,2.40625 0.421875,0.796875 1.15625,1 1.640625,1 0.53125,0 1.296875,-0.203125 1.734375,-1.15625 0.3125,-0.6875 0.359375,-1.46875 0.359375,-2.25 z M 2.484375,0 C 2.09375,0 1.5,-0.25 1.328125,-1.203125 1.21875,-1.796875 1.21875,-2.71875 1.21875,-3.3125 c 0,-0.640625 0,-1.296875 0.078125,-1.828125 0.1875,-1.1875 0.9375,-1.28125 1.1875,-1.28125 0.328125,0 0.984375,0.1875 1.171875,1.171875 0.109375,0.5625 0.109375,1.3125 0.109375,1.9375 0,0.75 0,1.421875 -0.109375,2.0625 C 3.5,-0.296875 2.9375,0 2.484375,0 Z m 0,0"
             transform="translate(133.768,134.765)"
             id="path971" />
        </g>
        <g
           style="fill:#000000;fill-opacity:1;stroke:#000000;stroke-width:1.06734;stroke-opacity:1"
           id="g977">
          <path
             style="fill-opacity:1;stroke:#000000;stroke-width:0;stroke-opacity:1"
             d="m 1.90625,-0.53125 c 0,-0.28125 -0.234375,-0.53125 -0.515625,-0.53125 -0.296875,0 -0.53125,0.25 -0.53125,0.53125 C 0.859375,-0.234375 1.09375,0 1.390625,0 1.671875,0 1.90625,-0.234375 1.90625,-0.53125 Z m 0,0"
             transform="translate(138.75,134.765)"
             id="path975" />
        </g>
        <g
           style="fill:#000000;fill-opacity:1;stroke:#000000;stroke-width:1.06734;stroke-opacity:1"
           id="g983">
          <path
             style="fill-opacity:1;stroke:#000000;stroke-width:0;stroke-opacity:1"
             d="m 2.890625,-3.515625 c 0.8125,-0.265625 1.390625,-0.953125 1.390625,-1.75 0,-0.8125 -0.875,-1.375 -1.828125,-1.375 -1,0 -1.765625,0.59375 -1.765625,1.359375 0,0.328125 0.21875,0.515625 0.515625,0.515625 0.296875,0 0.5,-0.21875 0.5,-0.515625 0,-0.484375 -0.46875,-0.484375 -0.609375,-0.484375 0.296875,-0.5 0.953125,-0.625 1.3125,-0.625 0.421875,0 0.96875,0.21875 0.96875,1.109375 0,0.125 -0.03125,0.703125 -0.28125,1.140625 C 2.796875,-3.65625 2.453125,-3.625 2.203125,-3.625 2.125,-3.609375 1.890625,-3.59375 1.8125,-3.59375 c -0.078125,0.015625 -0.140625,0.03125 -0.140625,0.125 0,0.109375 0.0625,0.109375 0.234375,0.109375 h 0.4375 c 0.8125,0 1.1875,0.671875 1.1875,1.65625 0,1.359375 -0.6875,1.640625 -1.125,1.640625 -0.4375,0 -1.1875,-0.171875 -1.53125,-0.75 0.34375,0.046875 0.65625,-0.171875 0.65625,-0.546875 0,-0.359375 -0.265625,-0.5625 -0.546875,-0.5625 -0.25,0 -0.5625,0.140625 -0.5625,0.578125 0,0.90625 0.921875,1.5625 2.015625,1.5625 1.21875,0 2.125,-0.90625 2.125,-1.921875 0,-0.8125 -0.640625,-1.59375 -1.671875,-1.8125 z m 0,0"
             transform="translate(141.517,134.765)"
             id="path979" />
          <path
             style="fill-opacity:1;stroke:#000000;stroke-width:0;stroke-opacity:1"
             d="m 2.890625,-3.515625 c 0.8125,-0.265625 1.390625,-0.953125 1.390625,-1.75 0,-0.8125 -0.875,-1.375 -1.828125,-1.375 -1,0 -1.765625,0.59375 -1.765625,1.359375 0,0.328125 0.21875,0.515625 0.515625,0.515625 0.296875,0 0.5,-0.21875 0.5,-0.515625 0,-0.484375 -0.46875,-0.484375 -0.609375,-0.484375 0.296875,-0.5 0.953125,-0.625 1.3125,-0.625 0.421875,0 0.96875,0.21875 0.96875,1.109375 0,0.125 -0.03125,0.703125 -0.28125,1.140625 C 2.796875,-3.65625 2.453125,-3.625 2.203125,-3.625 2.125,-3.609375 1.890625,-3.59375 1.8125,-3.59375 c -0.078125,0.015625 -0.140625,0.03125 -0.140625,0.125 0,0.109375 0.0625,0.109375 0.234375,0.109375 h 0.4375 c 0.8125,0 1.1875,0.671875 1.1875,1.65625 0,1.359375 -0.6875,1.640625 -1.125,1.640625 -0.4375,0 -1.1875,-0.171875 -1.53125,-0.75 0.34375,0.046875 0.65625,-0.171875 0.65625,-0.546875 0,-0.359375 -0.265625,-0.5625 -0.546875,-0.5625 -0.25,0 -0.5625,0.140625 -0.5625,0.578125 0,0.90625 0.921875,1.5625 2.015625,1.5625 1.21875,0 2.125,-0.90625 2.125,-1.921875 0,-0.8125 -0.640625,-1.59375 -1.671875,-1.8125 z m 0,0"
             transform="translate(146.4983,134.765)"
             id="path981" />
        </g>
        <g
           style="fill:#000000;fill-opacity:1;stroke:#000000;stroke-width:1.06734;stroke-opacity:1"
           id="g987">
          <path
             style="fill-opacity:1;stroke:#000000;stroke-width:0;stroke-opacity:1"
             d="M 1.09375,-3.421875 V -0.75 c 0,0.4375 -0.109375,0.4375 -0.78125,0.4375 V 0 c 0.359375,-0.015625 0.859375,-0.03125 1.140625,-0.03125 0.25,0 0.765625,0.015625 1.109375,0.03125 v -0.3125 c -0.671875,0 -0.78125,0 -0.78125,-0.4375 V -2.59375 C 1.78125,-3.625 2.5,-4.1875 3.125,-4.1875 c 0.640625,0 0.75,0.53125 0.75,1.109375 V -0.75 c 0,0.4375 -0.109375,0.4375 -0.78125,0.4375 V 0 c 0.34375,-0.015625 0.859375,-0.03125 1.125,-0.03125 0.25,0 0.78125,0.015625 1.109375,0.03125 v -0.3125 c -0.65625,0 -0.765625,0 -0.765625,-0.4375 v -1.84375 c 0,-1.03125 0.703125,-1.59375 1.34375,-1.59375 0.625,0 0.734375,0.53125 0.734375,1.109375 V -0.75 c 0,0.4375 -0.109375,0.4375 -0.78125,0.4375 V 0 c 0.34375,-0.015625 0.859375,-0.03125 1.125,-0.03125 0.265625,0 0.78125,0.015625 1.125,0.03125 v -0.3125 c -0.515625,0 -0.765625,0 -0.78125,-0.296875 v -1.90625 c 0,-0.859375 0,-1.15625 -0.3125,-1.515625 -0.140625,-0.171875 -0.46875,-0.375 -1.046875,-0.375 -0.828125,0 -1.28125,0.59375 -1.4375,0.984375 C 4.390625,-4.296875 3.65625,-4.40625 3.203125,-4.40625 2.46875,-4.40625 2,-3.984375 1.71875,-3.359375 V -4.40625 L 0.3125,-4.296875 v 0.3125 c 0.703125,0 0.78125,0.0625 0.78125,0.5625 z m 0,0"
             transform="translate(153.14335,134.765)"
             id="path985" />
        </g>
      </g>
    </g>
    <g
       id="g1124"
       style="fill-opacity:1;stroke:#000000;stroke-width:1.06734;stroke-opacity:1"
       ns0:jacobian_sqrt="1.52234"
       inkscapeversion="0.92.3"
       ns0:alignment="middle center"
       ns0:scale="0.750000000002"
       ns0:preamble="/home/mpnerem/.config/inkscape/extensions/textext/default_packages.tex"
       ns0:text="\\SI{0.17}{\\meter}"
       ns0:pdfconverter="pdf2svg"
       ns0:texconverter="pdflatex"
       ns0:version="0.11.0"
       transform="matrix(1.4264175,0,0,1.4261747,-52.674791,-80.143561)">
      <g
         style="fill-opacity:1;stroke:#000000;stroke-width:1.13921;stroke-opacity:1"
         id="g1122">
        <g
           id="g1106"
           style="fill:#000000;fill-opacity:1;stroke:#000000;stroke-width:1.06734;stroke-opacity:1">
          <path
             id="path1104"
             transform="translate(133.768,134.765)"
             d="m 4.578125,-3.1875 c 0,-0.796875 -0.046875,-1.59375 -0.390625,-2.328125 -0.453125,-0.96875 -1.28125,-1.125 -1.6875,-1.125 -0.609375,0 -1.328125,0.265625 -1.75,1.1875 -0.3125,0.6875 -0.359375,1.46875 -0.359375,2.265625 0,0.75 0.03125,1.640625 0.453125,2.40625 0.421875,0.796875 1.15625,1 1.640625,1 0.53125,0 1.296875,-0.203125 1.734375,-1.15625 0.3125,-0.6875 0.359375,-1.46875 0.359375,-2.25 z M 2.484375,0 C 2.09375,0 1.5,-0.25 1.328125,-1.203125 1.21875,-1.796875 1.21875,-2.71875 1.21875,-3.3125 c 0,-0.640625 0,-1.296875 0.078125,-1.828125 0.1875,-1.1875 0.9375,-1.28125 1.1875,-1.28125 0.328125,0 0.984375,0.1875 1.171875,1.171875 0.109375,0.5625 0.109375,1.3125 0.109375,1.9375 0,0.75 0,1.421875 -0.109375,2.0625 C 3.5,-0.296875 2.9375,0 2.484375,0 Z m 0,0"
             style="fill-opacity:1;stroke:#000000;stroke-width:0;stroke-opacity:1" />
        </g>
        <g
           id="g1110"
           style="fill:#000000;fill-opacity:1;stroke:#000000;stroke-width:1.06734;stroke-opacity:1">
          <path
             id="path1108"
             transform="translate(138.75,134.765)"
             d="m 1.90625,-0.53125 c 0,-0.28125 -0.234375,-0.53125 -0.515625,-0.53125 -0.296875,0 -0.53125,0.25 -0.53125,0.53125 C 0.859375,-0.234375 1.09375,0 1.390625,0 1.671875,0 1.90625,-0.234375 1.90625,-0.53125 Z m 0,0"
             style="fill-opacity:1;stroke:#000000;stroke-width:0;stroke-opacity:1" />
        </g>
        <g
           id="g1116"
           style="fill:#000000;fill-opacity:1;stroke:#000000;stroke-width:1.06734;stroke-opacity:1">
          <path
             id="path1112"
             transform="translate(141.517,134.765)"
             d="m 2.9375,-6.375 c 0,-0.25 0,-0.265625 -0.234375,-0.265625 C 2.078125,-6 1.203125,-6 0.890625,-6 v 0.3125 c 0.203125,0 0.78125,0 1.296875,-0.265625 v 5.171875 c 0,0.359375 -0.03125,0.46875 -0.921875,0.46875 h -0.3125 V 0 c 0.34375,-0.03125 1.203125,-0.03125 1.609375,-0.03125 0.390625,0 1.265625,0 1.609375,0.03125 v -0.3125 h -0.3125 c -0.90625,0 -0.921875,-0.109375 -0.921875,-0.46875 z m 0,0"
             style="fill-opacity:1;stroke:#000000;stroke-width:0;stroke-opacity:1" />
          <path
             id="path1114"
             transform="translate(146.4983,134.765)"
             d="m 4.75,-6.078125 c 0.078125,-0.109375 0.078125,-0.125 0.078125,-0.34375 H 2.40625 c -1.203125,0 -1.234375,-0.125 -1.265625,-0.3125 h -0.25 L 0.5625,-4.6875 h 0.25 c 0.03125,-0.15625 0.109375,-0.78125 0.25,-0.90625 0.0625,-0.0625 0.84375,-0.0625 0.96875,-0.0625 h 2.0625 C 3.984375,-5.5 3.203125,-4.40625 2.984375,-4.078125 2.078125,-2.734375 1.75,-1.34375 1.75,-0.328125 c 0,0.09375 0,0.546875 0.46875,0.546875 0.453125,0 0.453125,-0.453125 0.453125,-0.546875 V -0.84375 c 0,-0.546875 0.03125,-1.09375 0.109375,-1.625 0.046875,-0.234375 0.171875,-1.09375 0.625,-1.703125 z m 0,0"
             style="fill-opacity:1;stroke:#000000;stroke-width:0;stroke-opacity:1" />
        </g>
        <g
           id="g1120"
           style="fill:#000000;fill-opacity:1;stroke:#000000;stroke-width:1.06734;stroke-opacity:1">
          <path
             id="path1118"
             transform="translate(153.14335,134.765)"
             d="M 1.09375,-3.421875 V -0.75 c 0,0.4375 -0.109375,0.4375 -0.78125,0.4375 V 0 c 0.359375,-0.015625 0.859375,-0.03125 1.140625,-0.03125 0.25,0 0.765625,0.015625 1.109375,0.03125 v -0.3125 c -0.671875,0 -0.78125,0 -0.78125,-0.4375 V -2.59375 C 1.78125,-3.625 2.5,-4.1875 3.125,-4.1875 c 0.640625,0 0.75,0.53125 0.75,1.109375 V -0.75 c 0,0.4375 -0.109375,0.4375 -0.78125,0.4375 V 0 c 0.34375,-0.015625 0.859375,-0.03125 1.125,-0.03125 0.25,0 0.78125,0.015625 1.109375,0.03125 v -0.3125 c -0.65625,0 -0.765625,0 -0.765625,-0.4375 v -1.84375 c 0,-1.03125 0.703125,-1.59375 1.34375,-1.59375 0.625,0 0.734375,0.53125 0.734375,1.109375 V -0.75 c 0,0.4375 -0.109375,0.4375 -0.78125,0.4375 V 0 c 0.34375,-0.015625 0.859375,-0.03125 1.125,-0.03125 0.265625,0 0.78125,0.015625 1.125,0.03125 v -0.3125 c -0.515625,0 -0.765625,0 -0.78125,-0.296875 v -1.90625 c 0,-0.859375 0,-1.15625 -0.3125,-1.515625 -0.140625,-0.171875 -0.46875,-0.375 -1.046875,-0.375 -0.828125,0 -1.28125,0.59375 -1.4375,0.984375 C 4.390625,-4.296875 3.65625,-4.40625 3.203125,-4.40625 2.46875,-4.40625 2,-3.984375 1.71875,-3.359375 V -4.40625 L 0.3125,-4.296875 v 0.3125 c 0.703125,0 0.78125,0.0625 0.78125,0.5625 z m 0,0"
             style="fill-opacity:1;stroke:#000000;stroke-width:0;stroke-opacity:1" />
        </g>
      </g>
    </g>
    <g
       transform="matrix(1.3535937,0,0,1.3533633,-138.11595,-75.054025)"
       ns0:version="0.11.0"
       ns0:texconverter="pdflatex"
       ns0:pdfconverter="pdf2svg"
       ns0:text=" \\SI{9}{\\volt}"
       ns0:preamble="/home/mpnerem/.config/inkscape/extensions/textext/default_packages.tex"
       ns0:scale="0.750000000002"
       ns0:alignment="middle center"
       inkscapeversion="0.92.3"
       ns0:jacobian_sqrt="1.444619"
       style="fill-opacity:1;stroke:#000000;stroke-width:1.06734;stroke-opacity:1"
       id="g1261">
      <g
         id="g1259"
         style="fill-opacity:1;stroke:#000000;stroke-width:1.13921;stroke-opacity:1">
        <g
           style="fill:#000000;fill-opacity:1;stroke:#000000;stroke-width:1.06734;stroke-opacity:1"
           id="g1253">
          <path
             style="fill-opacity:1;stroke:#000000;stroke-width:0;stroke-opacity:1"
             d="m 3.65625,-3.171875 v 0.328125 c 0,2.328125 -1.03125,2.78125 -1.609375,2.78125 -0.171875,0 -0.71875,-0.015625 -0.984375,-0.359375 0.4375,0 0.515625,-0.28125 0.515625,-0.453125 0,-0.3125 -0.234375,-0.453125 -0.453125,-0.453125 -0.15625,0 -0.453125,0.078125 -0.453125,0.46875 0,0.671875 0.53125,1.078125 1.375,1.078125 1.296875,0 2.515625,-1.359375 2.515625,-3.5 0,-2.6875 -1.15625,-3.359375 -2.046875,-3.359375 -0.546875,0 -1.03125,0.1875 -1.453125,0.625 -0.421875,0.453125 -0.640625,0.875 -0.640625,1.625 0,1.234375 0.875,2.21875 1.984375,2.21875 0.609375,0 1.015625,-0.421875 1.25,-1 z M 2.421875,-2.40625 c -0.15625,0 -0.625,0 -0.921875,-0.625 -0.1875,-0.375 -0.1875,-0.859375 -0.1875,-1.359375 0,-0.53125 0,-1 0.21875,-1.375 0.265625,-0.5 0.640625,-0.625 0.984375,-0.625 0.46875,0 0.796875,0.34375 0.96875,0.78125 0.109375,0.328125 0.15625,0.953125 0.15625,1.40625 0,0.828125 -0.34375,1.796875 -1.21875,1.796875 z m 0,0"
             transform="translate(133.768,134.765)"
             id="path1251" />
        </g>
        <g
           style="fill:#000000;fill-opacity:1;stroke:#000000;stroke-width:1.06734;stroke-opacity:1"
           id="g1257">
          <path
             style="fill-opacity:1;stroke:#000000;stroke-width:0;stroke-opacity:1"
             d="M 6.1875,-5.828125 C 6.328125,-6.203125 6.59375,-6.484375 7.28125,-6.5 v -0.3125 c -0.3125,0.03125 -0.71875,0.03125 -0.96875,0.03125 -0.296875,0 -0.875,-0.015625 -1.140625,-0.03125 V -6.5 C 5.6875,-6.484375 5.90625,-6.234375 5.90625,-6 c 0,0.078125 -0.03125,0.140625 -0.046875,0.203125 L 4.03125,-1 2.125,-6.03125 C 2.0625,-6.171875 2.0625,-6.1875 2.0625,-6.203125 2.0625,-6.5 2.625,-6.5 2.875,-6.5 v -0.3125 c -0.359375,0.03125 -1.046875,0.03125 -1.421875,0.03125 -0.46875,0 -0.90625,-0.015625 -1.265625,-0.03125 V -6.5 c 0.65625,0 0.84375,0 0.984375,0.375 L 3.484375,0 c 0.0625,0.1875 0.109375,0.21875 0.25,0.21875 0.15625,0 0.1875,-0.046875 0.234375,-0.1875 z m 0,0"
             transform="translate(140.41305,134.765)"
             id="path1255" />
        </g>
      </g>
    </g>
  </g>
</svg>
