<?xml version="1.0" encoding="UTF-8" standalone="no"?>
<!-- Created with Inkscape (http://www.inkscape.org/) -->

<svg
   width="99.632439mm"
   height="45.386124mm"
   viewBox="0 0 99.632441 45.386124"
   version="1.1"
   id="svg3785"
   inkscape:version="1.2 (1:1.2.1+202207142221+cd75a1ee6d)"
   sodipodi:docname="loop-the-loop-min-height.svg"
   xmlns:inkscape="http://www.inkscape.org/namespaces/inkscape"
   xmlns:sodipodi="http://sodipodi.sourceforge.net/DTD/sodipodi-0.dtd"
   xmlns:xlink="http://www.w3.org/1999/xlink"
   xmlns="http://www.w3.org/2000/svg"
   xmlns:svg="http://www.w3.org/2000/svg"
   xmlns:ns1="http://www.iki.fi/pav/software/textext/">
  <sodipodi:namedview
     id="namedview3787"
     pagecolor="#ffffff"
     bordercolor="#666666"
     borderopacity="1.0"
     inkscape:showpageshadow="2"
     inkscape:pageopacity="0.0"
     inkscape:pagecheckerboard="0"
     inkscape:deskcolor="#d1d1d1"
     inkscape:document-units="mm"
     showgrid="false"
     inkscape:zoom="9.5144352"
     inkscape:cx="300.85864"
     inkscape:cy="99.375316"
     inkscape:window-width="1920"
     inkscape:window-height="1035"
     inkscape:window-x="0"
     inkscape:window-y="20"
     inkscape:window-maximized="1"
     inkscape:current-layer="layer1" />
  <defs
     id="defs3782">
    <linearGradient
       inkscape:collect="always"
       id="linearGradient6293">
      <stop
         style="stop-color:#4d4d4d;stop-opacity:1;"
         offset="0"
         id="stop6289" />
      <stop
         style="stop-color:#4d4d4d;stop-opacity:0;"
         offset="1"
         id="stop6291" />
    </linearGradient>
    <marker
       style="overflow:visible"
       id="marker5989"
       refX="0"
       refY="0"
       orient="auto-start-reverse"
       inkscape:stockid="Arrow1L"
       markerWidth="8.75"
       markerHeight="5"
       viewBox="0 0 8.75 5"
       inkscape:isstock="true"
       inkscape:collect="always"
       preserveAspectRatio="xMidYMid">
      <path
         d="M 0,0 5,-5 -12.5,0 5,5 Z"
         id="path5987"
         transform="scale(-0.5)" />
    </marker>
    <marker
       style="overflow:visible"
       id="marker5957"
       refX="0"
       refY="0"
       orient="auto-start-reverse"
       inkscape:stockid="Arrow1L"
       markerWidth="8.75"
       markerHeight="5"
       viewBox="0 0 8.75 5"
       inkscape:isstock="true"
       inkscape:collect="always"
       preserveAspectRatio="xMidYMid">
      <path
         d="M 0,0 5,-5 -12.5,0 5,5 Z"
         id="path5955"
         transform="scale(-0.5)" />
    </marker>
    <linearGradient
       inkscape:collect="always"
       xlink:href="#linearGradient6293"
       id="linearGradient6295"
       x1="79.718857"
       y1="146.76761"
       x2="79.718857"
       y2="153.14401"
       gradientUnits="userSpaceOnUse"
       gradientTransform="translate(3.9550369,0.62996231)" />
  </defs>
  <g
     inkscape:label="Layer 1"
     inkscape:groupmode="layer"
     id="layer1"
     transform="translate(-33.697937,-115.29896)">
    <circle
       style="fill:none;stroke:#32bef2;stroke-width:0.265;stroke-linecap:round;stroke-linejoin:round;stroke-dasharray:2.12, 2.12;stroke-dashoffset:0;stroke-opacity:1"
       id="circle5055"
       cx="109.23553"
       cy="110.74806"
       r="11.879057"
       transform="rotate(15)" />
    <circle
       style="fill:none;stroke:#32bef2;stroke-width:0.265;stroke-linecap:round;stroke-linejoin:round;stroke-dasharray:2.12, 2.12;stroke-dashoffset:0;stroke-opacity:1"
       id="circle5057"
       cx="132.12917"
       cy="117.14182"
       r="11.879057"
       transform="rotate(15)" />
    <path
       style="fill:none;stroke:#000000;stroke-width:0.465;stroke-linecap:round;stroke-linejoin:round;stroke-dasharray:none;stroke-opacity:1"
       id="path3958"
       sodipodi:type="arc"
       sodipodi:cx="109.23553"
       sodipodi:cy="110.74806"
       sodipodi:rx="11.879057"
       sodipodi:ry="11.879057"
       sodipodi:start="0.26286072"
       sodipodi:end="1.8325957"
       sodipodi:open="true"
       sodipodi:arc-type="arc"
       d="M 120.70655,113.83476 A 11.879057,11.879057 0 0 1 106.161,122.22235"
       transform="rotate(15)" />
    <path
       style="fill:none;stroke:#000000;stroke-width:0.465;stroke-linecap:round;stroke-linejoin:round;stroke-dasharray:none;stroke-opacity:1"
       id="circle3960"
       transform="rotate(15)"
       sodipodi:type="arc"
       sodipodi:cx="132.15356"
       sodipodi:cy="117.23296"
       sodipodi:rx="11.879057"
       sodipodi:ry="11.879057"
       sodipodi:start="3.4325015"
       sodipodi:end="5.3929232"
       sodipodi:open="true"
       sodipodi:arc-type="arc"
       d="m 120.77362,113.82578 a 11.879057,11.879057 0 0 1 7.87311,-7.94245 11.879057,11.879057 0 0 1 10.98124,2.11679" />
    <path
       style="fill:none;stroke:#000000;stroke-width:0.264583px;stroke-linecap:butt;stroke-linejoin:miter;stroke-opacity:1"
       d="m 76.884199,135.36287 21.040587,11.9816"
       id="path5065"
       sodipodi:nodetypes="cc" />
    <path
       style="fill:none;stroke:#000000;stroke-width:0.465;stroke-linecap:round;stroke-linejoin:miter;stroke-dasharray:none;stroke-opacity:1"
       d="M 70.824915,145.47631 C 58.001413,136.86524 50.329881,128.22715 40.082365,119.60257"
       id="path5071"
       sodipodi:nodetypes="cc" />
    <rect
       style="fill:url(#linearGradient6295);fill-opacity:1;stroke:none;stroke-width:0.465;stroke-linecap:round;stroke-linejoin:round;stroke-dasharray:none;stroke-dashoffset:0;stroke-opacity:1"
       id="rect5125"
       width="93.758362"
       height="3.7657208"
       x="36.634975"
       y="147.34447"
       rx="0.49735585"
       ry="0.18898818" />
    <path
       style="fill:none;stroke:#000000;stroke-width:0.465;stroke-linecap:round;stroke-linejoin:miter;stroke-dasharray:none;stroke-opacity:1"
       d="m 127.24827,147.25226 c -2.49368,0 -14.09143,1.3509 -20.5438,-7.09687"
       id="path5127"
       sodipodi:nodetypes="cc" />
    <path
       style="fill:none;stroke:#000000;stroke-width:0.264583px;stroke-linecap:butt;stroke-linejoin:miter;stroke-opacity:1;marker-start:url(#marker5989);marker-end:url(#marker5957)"
       d="M 39.863573,145.53607 V 121.4379"
       id="path5953"
       sodipodi:nodetypes="cc" />
    <g
       transform="matrix(0.58096294,0,0,0.58096294,42.041607,135.4079)"
       ns1:version="1.8.2"
       ns1:texconverter="pdflatex"
       ns1:pdfconverter="inkscape"
       ns1:text="$h$"
       ns1:preamble="/home/mpnerem/.config/inkscape/extensions/textext/default_packages.tex"
       ns1:scale="1.75"
       ns1:alignment="middle center"
       ns1:stroke-to-path="0"
       ns1:inkscapeversion="1.2"
       ns1:jacobian_sqrt="0.617361"
       id="g9034"
       style="stroke-width:1.06265">
      <defs
         id="id-59ef4d32-5579-4fe8-adff-589b82f890dc">
        <g
           id="id-8c1d774c-5b79-4332-bb7c-1ea3bccd15be">
          <symbol
             overflow="visible"
             id="id-20757042-1a86-4826-96f4-cc5e01db33de">
            <path
               style="stroke:none"
               d=""
               id="id-69da6978-4b2e-46d0-9d61-e4b399a05bd9" />
          </symbol>
          <symbol
             overflow="visible"
             id="id-dc78b723-6d97-4caf-801d-e7c04fd969cd">
            <path
               style="stroke:none"
               d="m 2.859375,-6.8125 c 0,0 0,-0.109375 -0.125,-0.109375 -0.234375,0 -0.953125,0.078125 -1.21875,0.109375 -0.078125,0 -0.1875,0.015625 -0.1875,0.1875 0,0.125 0.09375,0.125 0.234375,0.125 0.484375,0 0.5,0.0625 0.5,0.171875 L 2.03125,-6.125 0.59375,-0.390625 c -0.046875,0.140625 -0.046875,0.15625 -0.046875,0.21875 0,0.234375 0.203125,0.28125 0.296875,0.28125 0.15625,0 0.3125,-0.125 0.359375,-0.265625 l 0.1875,-0.75 0.21875,-0.890625 C 1.671875,-2.03125 1.734375,-2.25 1.78125,-2.46875 1.796875,-2.53125 1.890625,-2.859375 1.890625,-2.921875 1.921875,-3.015625 2.234375,-3.5625 2.578125,-3.84375 2.796875,-4 3.09375,-4.1875 3.53125,-4.1875 c 0.421875,0 0.53125,0.34375 0.53125,0.703125 0,0.53125 -0.375,1.625 -0.609375,2.234375 C 3.375,-1.03125 3.3125,-0.90625 3.3125,-0.703125 c 0,0.46875 0.359375,0.8125 0.828125,0.8125 0.9375,0 1.296875,-1.453125 1.296875,-1.53125 0,-0.109375 -0.078125,-0.109375 -0.109375,-0.109375 -0.109375,0 -0.109375,0.03125 -0.15625,0.1875 -0.140625,0.53125 -0.46875,1.234375 -1.015625,1.234375 -0.171875,0 -0.234375,-0.09375 -0.234375,-0.328125 0,-0.25 0.078125,-0.484375 0.171875,-0.703125 0.15625,-0.4375 0.609375,-1.625 0.609375,-2.203125 0,-0.640625 -0.390625,-1.0625 -1.140625,-1.0625 -0.625,0 -1.109375,0.3125 -1.484375,0.765625 z m 0,0"
               id="id-9c9b23fb-c02c-4400-b325-f129189e745e" />
          </symbol>
        </g>
      </defs>
      <g
         id="id-51fb4e66-ca3a-44cd-abe0-2b022b613896"
         transform="translate(-149.259,-127.843)"
         style="stroke-width:1.06265">
        <g
           style="fill:#000000;fill-opacity:1;stroke-width:1.06265"
           id="id-bf487760-14db-424e-8263-1342da380e0e">
          <g
             transform="translate(148.712,134.765)"
             id="g9258"
             style="stroke-width:1.06265">
            <path
               style="stroke:none;stroke-width:1.06265"
               d="m 2.859375,-6.8125 c 0,0 0,-0.109375 -0.125,-0.109375 -0.234375,0 -0.953125,0.078125 -1.21875,0.109375 -0.078125,0 -0.1875,0.015625 -0.1875,0.1875 0,0.125 0.09375,0.125 0.234375,0.125 0.484375,0 0.5,0.0625 0.5,0.171875 L 2.03125,-6.125 0.59375,-0.390625 c -0.046875,0.140625 -0.046875,0.15625 -0.046875,0.21875 0,0.234375 0.203125,0.28125 0.296875,0.28125 0.15625,0 0.3125,-0.125 0.359375,-0.265625 l 0.1875,-0.75 0.21875,-0.890625 C 1.671875,-2.03125 1.734375,-2.25 1.78125,-2.46875 1.796875,-2.53125 1.890625,-2.859375 1.890625,-2.921875 1.921875,-3.015625 2.234375,-3.5625 2.578125,-3.84375 2.796875,-4 3.09375,-4.1875 3.53125,-4.1875 c 0.421875,0 0.53125,0.34375 0.53125,0.703125 0,0.53125 -0.375,1.625 -0.609375,2.234375 C 3.375,-1.03125 3.3125,-0.90625 3.3125,-0.703125 c 0,0.46875 0.359375,0.8125 0.828125,0.8125 0.9375,0 1.296875,-1.453125 1.296875,-1.53125 0,-0.109375 -0.078125,-0.109375 -0.109375,-0.109375 -0.109375,0 -0.109375,0.03125 -0.15625,0.1875 -0.140625,0.53125 -0.46875,1.234375 -1.015625,1.234375 -0.171875,0 -0.234375,-0.09375 -0.234375,-0.328125 0,-0.25 0.078125,-0.484375 0.171875,-0.703125 0.15625,-0.4375 0.609375,-1.625 0.609375,-2.203125 0,-0.640625 -0.390625,-1.0625 -1.140625,-1.0625 -0.625,0 -1.109375,0.3125 -1.484375,0.765625 z m 0,0"
               id="id-a94a5acc-45e5-422f-9e48-efc7616ffe0f" />
          </g>
        </g>
      </g>
    </g>
    <g
       transform="matrix(0.58096294,0,0,0.58096294,79.616954,131.85497)"
       ns1:version="1.8.2"
       ns1:texconverter="pdflatex"
       ns1:pdfconverter="inkscape"
       ns1:text="$R$"
       ns1:preamble="/home/mpnerem/.config/inkscape/extensions/textext/default_packages.tex"
       ns1:scale="1.75"
       ns1:alignment="middle center"
       ns1:stroke-to-path="0"
       ns1:inkscapeversion="1.2"
       ns1:jacobian_sqrt="0.617361"
       id="g9332"
       style="stroke-width:1.06265">
      <defs
         id="id-9c4a644f-0d76-4bc0-a385-ef53c995995c">
        <g
           id="id-573585d8-aa82-46f7-b56c-2d04cc54b67a">
          <symbol
             overflow="visible"
             id="id-6452279f-429e-4e54-a44e-1644ea9d0954">
            <path
               style="stroke:none"
               d=""
               id="id-99a9218b-d0e5-4f34-96fe-34c69b4cb444" />
          </symbol>
          <symbol
             overflow="visible"
             id="id-accf6113-1285-412f-9f07-3ba7b1d1ac25">
            <path
               style="stroke:none"
               d="m 3.734375,-6.125 c 0.0625,-0.234375 0.09375,-0.328125 0.28125,-0.359375 C 4.109375,-6.5 4.421875,-6.5 4.625,-6.5 c 0.703125,0 1.8125,0 1.8125,0.984375 0,0.34375 -0.15625,1.03125 -0.546875,1.421875 -0.265625,0.25 -0.78125,0.578125 -1.6875,0.578125 H 3.09375 Z m 1.4375,2.734375 c 1.015625,-0.21875 2.1875,-0.921875 2.1875,-1.921875 0,-0.859375 -0.890625,-1.5 -2.203125,-1.5 H 2.328125 c -0.203125,0 -0.296875,0 -0.296875,0.203125 C 2.03125,-6.5 2.125,-6.5 2.3125,-6.5 c 0.015625,0 0.203125,0 0.375,0.015625 0.1875,0.03125 0.265625,0.03125 0.265625,0.171875 0,0.03125 0,0.0625 -0.03125,0.1875 l -1.34375,5.34375 C 1.484375,-0.390625 1.46875,-0.3125 0.671875,-0.3125 0.5,-0.3125 0.40625,-0.3125 0.40625,-0.109375 0.40625,0 0.53125,0 0.546875,0 c 0.28125,0 0.984375,-0.03125 1.25,-0.03125 0.28125,0 1,0.03125 1.28125,0.03125 0.078125,0 0.1875,0 0.1875,-0.203125 0,-0.109375 -0.078125,-0.109375 -0.28125,-0.109375 -0.359375,0 -0.640625,0 -0.640625,-0.171875 0,-0.0625 0.015625,-0.109375 0.03125,-0.171875 l 0.65625,-2.640625 h 1.1875 c 0.90625,0 1.078125,0.5625 1.078125,0.90625 0,0.140625 -0.078125,0.453125 -0.140625,0.6875 C 5.09375,-1.421875 5,-1.0625 5,-0.859375 5,0.21875 6.203125,0.21875 6.328125,0.21875 c 0.84375,0 1.203125,-1 1.203125,-1.140625 0,-0.125 -0.109375,-0.125 -0.125,-0.125 -0.09375,0 -0.109375,0.0625 -0.125,0.140625 C 7.03125,-0.171875 6.59375,0 6.375,0 6.046875,0 5.96875,-0.21875 5.96875,-0.609375 c 0,-0.3125 0.0625,-0.8125 0.109375,-1.140625 0.015625,-0.140625 0.03125,-0.328125 0.03125,-0.46875 0,-0.765625 -0.671875,-1.078125 -0.9375,-1.171875 z m 0,0"
               id="id-25505a07-afdb-4139-bbed-005740466fe6" />
          </symbol>
        </g>
      </defs>
      <g
         id="id-33833176-4549-43bd-888f-f54f5b41d4cb"
         transform="translate(-149.118,-127.953)"
         style="stroke-width:1.06265">
        <g
           style="fill:#000000;fill-opacity:1;stroke-width:1.06265"
           id="id-bdceee85-9f75-45a0-a306-51716ff9844e">
          <g
             transform="translate(148.712,134.765)"
             id="g9424"
             style="stroke-width:1.06265">
            <path
               style="stroke:none;stroke-width:1.06265"
               d="m 3.734375,-6.125 c 0.0625,-0.234375 0.09375,-0.328125 0.28125,-0.359375 C 4.109375,-6.5 4.421875,-6.5 4.625,-6.5 c 0.703125,0 1.8125,0 1.8125,0.984375 0,0.34375 -0.15625,1.03125 -0.546875,1.421875 -0.265625,0.25 -0.78125,0.578125 -1.6875,0.578125 H 3.09375 Z m 1.4375,2.734375 c 1.015625,-0.21875 2.1875,-0.921875 2.1875,-1.921875 0,-0.859375 -0.890625,-1.5 -2.203125,-1.5 H 2.328125 c -0.203125,0 -0.296875,0 -0.296875,0.203125 C 2.03125,-6.5 2.125,-6.5 2.3125,-6.5 c 0.015625,0 0.203125,0 0.375,0.015625 0.1875,0.03125 0.265625,0.03125 0.265625,0.171875 0,0.03125 0,0.0625 -0.03125,0.1875 l -1.34375,5.34375 C 1.484375,-0.390625 1.46875,-0.3125 0.671875,-0.3125 0.5,-0.3125 0.40625,-0.3125 0.40625,-0.109375 0.40625,0 0.53125,0 0.546875,0 c 0.28125,0 0.984375,-0.03125 1.25,-0.03125 0.28125,0 1,0.03125 1.28125,0.03125 0.078125,0 0.1875,0 0.1875,-0.203125 0,-0.109375 -0.078125,-0.109375 -0.28125,-0.109375 -0.359375,0 -0.640625,0 -0.640625,-0.171875 0,-0.0625 0.015625,-0.109375 0.03125,-0.171875 l 0.65625,-2.640625 h 1.1875 c 0.90625,0 1.078125,0.5625 1.078125,0.90625 0,0.140625 -0.078125,0.453125 -0.140625,0.6875 C 5.09375,-1.421875 5,-1.0625 5,-0.859375 5,0.21875 6.203125,0.21875 6.328125,0.21875 c 0.84375,0 1.203125,-1 1.203125,-1.140625 0,-0.125 -0.109375,-0.125 -0.125,-0.125 -0.09375,0 -0.109375,0.0625 -0.125,0.140625 C 7.03125,-0.171875 6.59375,0 6.375,0 6.046875,0 5.96875,-0.21875 5.96875,-0.609375 c 0,-0.3125 0.0625,-0.8125 0.109375,-1.140625 0.015625,-0.140625 0.03125,-0.328125 0.03125,-0.46875 0,-0.765625 -0.671875,-1.078125 -0.9375,-1.171875 z m 0,0"
               id="id-1b33ab4d-87cd-4126-a574-89246b090be4" />
          </g>
        </g>
      </g>
    </g>
    <g
       transform="matrix(0.58096294,0,0,0.58096294,92.925374,138.63882)"
       ns1:version="1.8.2"
       ns1:texconverter="pdflatex"
       ns1:pdfconverter="inkscape"
       ns1:text="$R$"
       ns1:preamble="/home/mpnerem/.config/inkscape/extensions/textext/default_packages.tex"
       ns1:scale="1.75"
       ns1:alignment="middle center"
       ns1:stroke-to-path="0"
       ns1:inkscapeversion="1.2"
       ns1:jacobian_sqrt="0.617361"
       id="g9550"
       style="stroke-width:1.06265">
      <defs
         id="defs9540">
        <g
           id="g9538">
          <symbol
             overflow="visible"
             id="symbol9532">
            <path
               style="stroke:none"
               d=""
               id="path9530" />
          </symbol>
          <symbol
             overflow="visible"
             id="symbol9536">
            <path
               style="stroke:none"
               d="m 3.734375,-6.125 c 0.0625,-0.234375 0.09375,-0.328125 0.28125,-0.359375 C 4.109375,-6.5 4.421875,-6.5 4.625,-6.5 c 0.703125,0 1.8125,0 1.8125,0.984375 0,0.34375 -0.15625,1.03125 -0.546875,1.421875 -0.265625,0.25 -0.78125,0.578125 -1.6875,0.578125 H 3.09375 Z m 1.4375,2.734375 c 1.015625,-0.21875 2.1875,-0.921875 2.1875,-1.921875 0,-0.859375 -0.890625,-1.5 -2.203125,-1.5 H 2.328125 c -0.203125,0 -0.296875,0 -0.296875,0.203125 C 2.03125,-6.5 2.125,-6.5 2.3125,-6.5 c 0.015625,0 0.203125,0 0.375,0.015625 0.1875,0.03125 0.265625,0.03125 0.265625,0.171875 0,0.03125 0,0.0625 -0.03125,0.1875 l -1.34375,5.34375 C 1.484375,-0.390625 1.46875,-0.3125 0.671875,-0.3125 0.5,-0.3125 0.40625,-0.3125 0.40625,-0.109375 0.40625,0 0.53125,0 0.546875,0 c 0.28125,0 0.984375,-0.03125 1.25,-0.03125 0.28125,0 1,0.03125 1.28125,0.03125 0.078125,0 0.1875,0 0.1875,-0.203125 0,-0.109375 -0.078125,-0.109375 -0.28125,-0.109375 -0.359375,0 -0.640625,0 -0.640625,-0.171875 0,-0.0625 0.015625,-0.109375 0.03125,-0.171875 l 0.65625,-2.640625 h 1.1875 c 0.90625,0 1.078125,0.5625 1.078125,0.90625 0,0.140625 -0.078125,0.453125 -0.140625,0.6875 C 5.09375,-1.421875 5,-1.0625 5,-0.859375 5,0.21875 6.203125,0.21875 6.328125,0.21875 c 0.84375,0 1.203125,-1 1.203125,-1.140625 0,-0.125 -0.109375,-0.125 -0.125,-0.125 -0.09375,0 -0.109375,0.0625 -0.125,0.140625 C 7.03125,-0.171875 6.59375,0 6.375,0 6.046875,0 5.96875,-0.21875 5.96875,-0.609375 c 0,-0.3125 0.0625,-0.8125 0.109375,-1.140625 0.015625,-0.140625 0.03125,-0.328125 0.03125,-0.46875 0,-0.765625 -0.671875,-1.078125 -0.9375,-1.171875 z m 0,0"
               id="path9534" />
          </symbol>
        </g>
      </defs>
      <g
         id="g9548"
         transform="translate(-149.118,-127.953)"
         style="stroke-width:1.06265">
        <g
           style="fill:#000000;fill-opacity:1;stroke-width:1.06265"
           id="g9546">
          <g
             transform="translate(148.712,134.765)"
             id="g9544"
             style="stroke-width:1.06265">
            <path
               style="stroke:none;stroke-width:1.06265"
               d="m 3.734375,-6.125 c 0.0625,-0.234375 0.09375,-0.328125 0.28125,-0.359375 C 4.109375,-6.5 4.421875,-6.5 4.625,-6.5 c 0.703125,0 1.8125,0 1.8125,0.984375 0,0.34375 -0.15625,1.03125 -0.546875,1.421875 -0.265625,0.25 -0.78125,0.578125 -1.6875,0.578125 H 3.09375 Z m 1.4375,2.734375 c 1.015625,-0.21875 2.1875,-0.921875 2.1875,-1.921875 0,-0.859375 -0.890625,-1.5 -2.203125,-1.5 H 2.328125 c -0.203125,0 -0.296875,0 -0.296875,0.203125 C 2.03125,-6.5 2.125,-6.5 2.3125,-6.5 c 0.015625,0 0.203125,0 0.375,0.015625 0.1875,0.03125 0.265625,0.03125 0.265625,0.171875 0,0.03125 0,0.0625 -0.03125,0.1875 l -1.34375,5.34375 C 1.484375,-0.390625 1.46875,-0.3125 0.671875,-0.3125 0.5,-0.3125 0.40625,-0.3125 0.40625,-0.109375 0.40625,0 0.53125,0 0.546875,0 c 0.28125,0 0.984375,-0.03125 1.25,-0.03125 0.28125,0 1,0.03125 1.28125,0.03125 0.078125,0 0.1875,0 0.1875,-0.203125 0,-0.109375 -0.078125,-0.109375 -0.28125,-0.109375 -0.359375,0 -0.640625,0 -0.640625,-0.171875 0,-0.0625 0.015625,-0.109375 0.03125,-0.171875 l 0.65625,-2.640625 h 1.1875 c 0.90625,0 1.078125,0.5625 1.078125,0.90625 0,0.140625 -0.078125,0.453125 -0.140625,0.6875 C 5.09375,-1.421875 5,-1.0625 5,-0.859375 5,0.21875 6.203125,0.21875 6.328125,0.21875 c 0.84375,0 1.203125,-1 1.203125,-1.140625 0,-0.125 -0.109375,-0.125 -0.125,-0.125 -0.09375,0 -0.109375,0.0625 -0.125,0.140625 C 7.03125,-0.171875 6.59375,0 6.375,0 6.046875,0 5.96875,-0.21875 5.96875,-0.609375 c 0,-0.3125 0.0625,-0.8125 0.109375,-1.140625 0.015625,-0.140625 0.03125,-0.328125 0.03125,-0.46875 0,-0.765625 -0.671875,-1.078125 -0.9375,-1.171875 z m 0,0"
               id="path9542" />
          </g>
        </g>
      </g>
    </g>
    <g
       id="g10858"
       transform="matrix(0.61412039,0.54756982,-0.54768023,0.61399659,78.396339,17.992388)"
       style="stroke-width:1.2154">
      <rect
         style="fill:#ff7f2a;fill-opacity:1;stroke:#000000;stroke-width:0.565159;stroke-linecap:round;stroke-linejoin:round;stroke-dasharray:none;stroke-dashoffset:0;stroke-opacity:1"
         id="rect9978"
         width="8.1115351"
         height="5.0483627"
         x="48.130131"
         y="117.92133"
         rx="0.60442388"
         ry="0.22971883" />
      <g
         transform="matrix(0.617361,0,0,0.617361,49.6683,119.05178)"
         ns1:version="1.8.2"
         ns1:texconverter="pdflatex"
         ns1:pdfconverter="inkscape"
         ns1:text="$m$"
         ns1:preamble="/home/mpnerem/.config/inkscape/extensions/textext/default_packages.tex"
         ns1:scale="1.75"
         ns1:alignment="middle center"
         ns1:stroke-to-path="0"
         ns1:inkscapeversion="1.2"
         ns1:jacobian_sqrt="0.617361"
         id="g9738"
         style="stroke-width:1.2154">
        <defs
           id="id-b884a7ce-3a69-437c-af63-d2307938d659">
          <g
             id="id-a0d2c7b2-5a69-420d-8cba-1bb5331bc6a5">
            <symbol
               overflow="visible"
               id="id-3e1d3fc9-e93b-4462-8200-809d063c4e74">
              <path
                 style="stroke:none"
                 d=""
                 id="id-6e8ad6f9-1283-42ff-b131-3075fe7d3301" />
            </symbol>
            <symbol
               overflow="visible"
               id="id-f4fea04c-ce92-402a-836c-e9f09b22019d">
              <path
                 style="stroke:none"
                 d="m 0.875,-0.59375 c -0.03125,0.15625 -0.09375,0.390625 -0.09375,0.4375 0,0.171875 0.140625,0.265625 0.296875,0.265625 0.125,0 0.296875,-0.078125 0.375,-0.28125 0,-0.015625 0.125,-0.484375 0.1875,-0.734375 l 0.21875,-0.890625 C 1.90625,-2.03125 1.96875,-2.25 2.03125,-2.46875 c 0.03125,-0.171875 0.109375,-0.46875 0.125,-0.5 0.140625,-0.3125 0.671875,-1.21875 1.625,-1.21875 0.453125,0 0.53125,0.375 0.53125,0.703125 0,0.25 -0.0625,0.53125 -0.140625,0.828125 L 3.890625,-1.5 3.6875,-0.75 c -0.03125,0.203125 -0.125,0.546875 -0.125,0.59375 0,0.171875 0.140625,0.265625 0.28125,0.265625 0.3125,0 0.375,-0.25 0.453125,-0.5625 0.140625,-0.5625 0.515625,-2.015625 0.59375,-2.40625 0.03125,-0.125 0.5625,-1.328125 1.65625,-1.328125 0.421875,0 0.53125,0.34375 0.53125,0.703125 0,0.5625 -0.421875,1.703125 -0.625,2.234375 -0.078125,0.234375 -0.125,0.34375 -0.125,0.546875 0,0.46875 0.34375,0.8125 0.8125,0.8125 0.9375,0 1.3125,-1.453125 1.3125,-1.53125 0,-0.109375 -0.09375,-0.109375 -0.125,-0.109375 -0.09375,0 -0.09375,0.03125 -0.140625,0.1875 -0.15625,0.53125 -0.46875,1.234375 -1.015625,1.234375 -0.171875,0 -0.25,-0.09375 -0.25,-0.328125 0,-0.25 0.09375,-0.484375 0.1875,-0.703125 0.1875,-0.53125 0.609375,-1.625 0.609375,-2.203125 0,-0.640625 -0.40625,-1.0625 -1.15625,-1.0625 -0.734375,0 -1.25,0.4375 -1.625,0.96875 0,-0.125 -0.03125,-0.46875 -0.3125,-0.703125 -0.25,-0.21875 -0.5625,-0.265625 -0.8125,-0.265625 -0.90625,0 -1.390625,0.640625 -1.5625,0.875 -0.046875,-0.578125 -0.46875,-0.875 -0.921875,-0.875 -0.453125,0 -0.640625,0.390625 -0.734375,0.5625 -0.171875,0.359375 -0.296875,0.9375 -0.296875,0.96875 0,0.109375 0.09375,0.109375 0.109375,0.109375 0.109375,0 0.109375,-0.015625 0.171875,-0.234375 0.171875,-0.703125 0.375,-1.1875 0.734375,-1.1875 0.15625,0 0.296875,0.078125 0.296875,0.453125 0,0.21875 -0.03125,0.328125 -0.15625,0.84375 z m 0,0"
                 id="id-c9eaf394-8c7e-4cb8-ad51-89ff9ce7339c" />
            </symbol>
          </g>
        </defs>
        <g
           id="id-72440f17-9290-4db7-8357-19a730ae2fd3"
           transform="translate(-149.009,-130.359)"
           style="stroke-width:1.2154">
          <g
             style="fill:#000000;fill-opacity:1;stroke-width:1.2154"
             id="id-c9b32eff-a35c-434e-bab7-cb8f5fa35071">
            <g
               transform="translate(148.712,134.765)"
               id="g9872"
               style="stroke-width:1.2154">
              <path
                 style="stroke:none;stroke-width:1.2154"
                 d="m 0.875,-0.59375 c -0.03125,0.15625 -0.09375,0.390625 -0.09375,0.4375 0,0.171875 0.140625,0.265625 0.296875,0.265625 0.125,0 0.296875,-0.078125 0.375,-0.28125 0,-0.015625 0.125,-0.484375 0.1875,-0.734375 l 0.21875,-0.890625 C 1.90625,-2.03125 1.96875,-2.25 2.03125,-2.46875 c 0.03125,-0.171875 0.109375,-0.46875 0.125,-0.5 0.140625,-0.3125 0.671875,-1.21875 1.625,-1.21875 0.453125,0 0.53125,0.375 0.53125,0.703125 0,0.25 -0.0625,0.53125 -0.140625,0.828125 L 3.890625,-1.5 3.6875,-0.75 c -0.03125,0.203125 -0.125,0.546875 -0.125,0.59375 0,0.171875 0.140625,0.265625 0.28125,0.265625 0.3125,0 0.375,-0.25 0.453125,-0.5625 0.140625,-0.5625 0.515625,-2.015625 0.59375,-2.40625 0.03125,-0.125 0.5625,-1.328125 1.65625,-1.328125 0.421875,0 0.53125,0.34375 0.53125,0.703125 0,0.5625 -0.421875,1.703125 -0.625,2.234375 -0.078125,0.234375 -0.125,0.34375 -0.125,0.546875 0,0.46875 0.34375,0.8125 0.8125,0.8125 0.9375,0 1.3125,-1.453125 1.3125,-1.53125 0,-0.109375 -0.09375,-0.109375 -0.125,-0.109375 -0.09375,0 -0.09375,0.03125 -0.140625,0.1875 -0.15625,0.53125 -0.46875,1.234375 -1.015625,1.234375 -0.171875,0 -0.25,-0.09375 -0.25,-0.328125 0,-0.25 0.09375,-0.484375 0.1875,-0.703125 0.1875,-0.53125 0.609375,-1.625 0.609375,-2.203125 0,-0.640625 -0.40625,-1.0625 -1.15625,-1.0625 -0.734375,0 -1.25,0.4375 -1.625,0.96875 0,-0.125 -0.03125,-0.46875 -0.3125,-0.703125 -0.25,-0.21875 -0.5625,-0.265625 -0.8125,-0.265625 -0.90625,0 -1.390625,0.640625 -1.5625,0.875 -0.046875,-0.578125 -0.46875,-0.875 -0.921875,-0.875 -0.453125,0 -0.640625,0.390625 -0.734375,0.5625 -0.171875,0.359375 -0.296875,0.9375 -0.296875,0.96875 0,0.109375 0.09375,0.109375 0.109375,0.109375 0.109375,0 0.109375,-0.015625 0.171875,-0.234375 0.171875,-0.703125 0.375,-1.1875 0.734375,-1.1875 0.15625,0 0.296875,0.078125 0.296875,0.453125 0,0.21875 -0.03125,0.328125 -0.15625,0.84375 z m 0,0"
                 id="id-9437e80d-6ee3-489e-bc8f-f3008f47ac5e" />
            </g>
          </g>
        </g>
      </g>
    </g>
  </g>
</svg>
