<?xml version="1.0" encoding="UTF-8" standalone="no"?>
<svg
   xmlns:ns1="http://www.iki.fi/pav/software/textext/"
   xmlns:dc="http://purl.org/dc/elements/1.1/"
   xmlns:cc="http://creativecommons.org/ns#"
   xmlns:rdf="http://www.w3.org/1999/02/22-rdf-syntax-ns#"
   xmlns:svg="http://www.w3.org/2000/svg"
   xmlns="http://www.w3.org/2000/svg"
   xmlns:sodipodi="http://sodipodi.sourceforge.net/DTD/sodipodi-0.dtd"
   xmlns:inkscape="http://www.inkscape.org/namespaces/inkscape"
   width="285.52512mm"
   height="78.063972mm"
   viewBox="0 0 285.52511 78.063972"
   version="1.1"
   id="svg8"
   inkscape:version="1.0 (4035a4fb49, 2020-05-01)"
   sodipodi:docname="Charge-Configurations.svg">
  <sodipodi:namedview
     id="base"
     pagecolor="#ffffff"
     bordercolor="#666666"
     borderopacity="1.0"
     inkscape:pageopacity="0.0"
     inkscape:pageshadow="2"
     inkscape:zoom="0.7"
     inkscape:cx="602.1109"
     inkscape:cy="151.10164"
     inkscape:document-units="mm"
     inkscape:current-layer="layer2"
     showgrid="false"
     inkscape:window-width="1368"
     inkscape:window-height="842"
     inkscape:window-x="-6"
     inkscape:window-y="-6"
     inkscape:window-maximized="1"
     fit-margin-top="0"
     fit-margin-left="0"
     fit-margin-right="0"
     fit-margin-bottom="0"
     inkscape:document-rotation="0" />
  <defs
     id="defs2" />
  <metadata
     id="metadata5">
    <rdf:RDF>
      <cc:Work
         rdf:about="">
        <dc:format>image/svg+xml</dc:format>
        <dc:type
           rdf:resource="http://purl.org/dc/dcmitype/StillImage" />
        <dc:title></dc:title>
      </cc:Work>
    </rdf:RDF>
  </metadata>
  <g
     transform="translate(30.037985,-65.163769)"
     inkscape:label="Layer 1"
     inkscape:groupmode="layer"
     id="layer1"
     style="display:inline">
    <g
       id="g996"
       transform="matrix(0.95151769,0,0,0.95134803,-36.757878,-3.8595535)"
       style="stroke-width:1.05105">
      <path
         style="fill:none;stroke:#000000;stroke-width:0.278089px;stroke-linecap:butt;stroke-linejoin:miter;stroke-opacity:1"
         d="m 100.85171,101.64867 h 37.79762"
         id="path990"
         inkscape:connector-curvature="0"
         sodipodi:nodetypes="cc" />
      <path
         inkscape:connector-curvature="0"
         id="path992"
         d="m 100.984,97.963401 v 7.370539"
         style="fill:none;stroke:#000000;stroke-width:0.278089px;stroke-linecap:butt;stroke-linejoin:miter;stroke-opacity:1" />
      <path
         style="fill:none;stroke:#000000;stroke-width:0.278089px;stroke-linecap:butt;stroke-linejoin:miter;stroke-opacity:1"
         d="m 138.51704,97.963401 v 7.370539"
         id="path994"
         inkscape:connector-curvature="0" />
    </g>
    <g
       transform="matrix(0.95151769,0,0,0.95134803,-72.722985,-3.8595535)"
       id="g988"
       style="stroke-width:1.05105">
      <path
         sodipodi:nodetypes="cc"
         inkscape:connector-curvature="0"
         id="path982"
         d="m 100.85171,101.64867 h 37.79762"
         style="fill:none;stroke:#000000;stroke-width:0.278089px;stroke-linecap:butt;stroke-linejoin:miter;stroke-opacity:1" />
      <path
         style="fill:none;stroke:#000000;stroke-width:0.278089px;stroke-linecap:butt;stroke-linejoin:miter;stroke-opacity:1"
         d="m 100.984,97.963401 v 7.370539"
         id="path984"
         inkscape:connector-curvature="0" />
      <path
         inkscape:connector-curvature="0"
         id="path986"
         d="m 138.51704,97.963401 v 7.370539"
         style="fill:none;stroke:#000000;stroke-width:0.278089px;stroke-linecap:butt;stroke-linejoin:miter;stroke-opacity:1" />
    </g>
    <g
       id="g956"
       transform="matrix(0.95151769,0,0,0.95134803,-108.6881,-3.8595535)"
       style="stroke-width:1.05105">
      <path
         style="fill:none;stroke:#000000;stroke-width:0.278089px;stroke-linecap:butt;stroke-linejoin:miter;stroke-opacity:1"
         d="m 100.85171,101.64867 h 37.79762"
         id="path947"
         inkscape:connector-curvature="0"
         sodipodi:nodetypes="cc" />
      <path
         inkscape:connector-curvature="0"
         id="path949"
         d="m 100.984,97.963401 v 7.370539"
         style="fill:none;stroke:#000000;stroke-width:0.278089px;stroke-linecap:butt;stroke-linejoin:miter;stroke-opacity:1" />
      <path
         style="fill:none;stroke:#000000;stroke-width:0.278089px;stroke-linecap:butt;stroke-linejoin:miter;stroke-opacity:1"
         d="m 138.51704,97.963401 v 7.370539"
         id="path951"
         inkscape:connector-curvature="0" />
    </g>
    <g
       transform="matrix(0.95151769,0,0,0.95134803,-64.855627,-36.7449)"
       id="g968"
       style="stroke-width:1.05105">
      <circle
         r="6.6670341"
         cy="136.21577"
         cx="54.918156"
         id="circle958"
         style="opacity:1;fill:#5092dc;fill-opacity:1;fill-rule:nonzero;stroke:#000000;stroke-width:0.445923;stroke-linecap:round;stroke-linejoin:round;stroke-miterlimit:4;stroke-dasharray:none;stroke-dashoffset:10.0157;stroke-opacity:1" />
      <g
         id="g966"
         style="fill:#ffffff;stroke-width:1.05105"
         ns1:jacobian_sqrt="1.058333"
         inkscapeversion="0.92.3"
         ns1:alignment="middle center"
         ns1:scale="3.0"
         ns1:preamble="/home/mpnerem/.config/inkscape/extensions/textext/default_packages.tex"
         ns1:text="$-$"
         ns1:pdfconverter="pdf2svg"
         ns1:texconverter="pdflatex"
         ns1:version="0.11.0"
         transform="matrix(1.058333,0,0,1.058333,-90.753973,-3.7729079)">
        <g
           style="fill:#ffffff;stroke-width:1.05105"
           id="g964">
          <g
             id="g962"
             style="fill:#ffffff;fill-opacity:1;stroke-width:1.05105">
            <path
               id="path960"
               transform="translate(133.768,134.765)"
               d="m 6.5625,-2.296875 c 0.171875,0 0.359375,0 0.359375,-0.203125 0,-0.1875 -0.1875,-0.1875 -0.359375,-0.1875 H 1.171875 c -0.171875,0 -0.34375,0 -0.34375,0.1875 0,0.203125 0.171875,0.203125 0.34375,0.203125 z m 0,0"
               style="fill:#ffffff;stroke:none;stroke-width:0"
               inkscape:connector-curvature="0" />
          </g>
        </g>
      </g>
    </g>
    <g
       id="g980"
       transform="matrix(0.95151769,0,0,0.95134803,-29.142275,-36.7449)"
       style="stroke-width:1.05105">
      <circle
         style="opacity:1;fill:#5092dc;fill-opacity:1;fill-rule:nonzero;stroke:#000000;stroke-width:0.445923;stroke-linecap:round;stroke-linejoin:round;stroke-miterlimit:4;stroke-dasharray:none;stroke-dashoffset:10.0157;stroke-opacity:1"
         id="circle970"
         cx="54.918156"
         cy="136.21577"
         r="6.6670341" />
      <g
         transform="matrix(1.058333,0,0,1.058333,-90.753973,-3.7729079)"
         ns1:version="0.11.0"
         ns1:texconverter="pdflatex"
         ns1:pdfconverter="pdf2svg"
         ns1:text="$-$"
         ns1:preamble="/home/mpnerem/.config/inkscape/extensions/textext/default_packages.tex"
         ns1:scale="3.0"
         ns1:alignment="middle center"
         inkscapeversion="0.92.3"
         ns1:jacobian_sqrt="1.058333"
         style="fill:#ffffff;stroke-width:1.05105"
         id="g978">
        <g
           id="g976"
           style="fill:#ffffff;stroke-width:1.05105">
          <g
             style="fill:#ffffff;fill-opacity:1;stroke-width:1.05105"
             id="g974">
            <path
               inkscape:connector-curvature="0"
               style="fill:#ffffff;stroke:none;stroke-width:0"
               d="m 6.5625,-2.296875 c 0.171875,0 0.359375,0 0.359375,-0.203125 0,-0.1875 -0.1875,-0.1875 -0.359375,-0.1875 H 1.171875 c -0.171875,0 -0.34375,0 -0.34375,0.1875 0,0.203125 0.171875,0.203125 0.34375,0.203125 z m 0,0"
               transform="translate(133.768,134.765)"
               id="path972" />
          </g>
        </g>
      </g>
    </g>
    <g
       transform="matrix(0.95151769,0,0,0.95134803,-4.8658217,-47.828028)"
       id="g1008"
       style="stroke-width:1.05105">
      <circle
         style="opacity:1;fill:#dc5050;fill-opacity:1;fill-rule:nonzero;stroke:#000000;stroke-width:0.445923;stroke-linecap:round;stroke-linejoin:round;stroke-miterlimit:4;stroke-dasharray:none;stroke-dashoffset:10.0157;stroke-opacity:1"
         id="circle998"
         cx="105"
         cy="148.5"
         r="6.6670341" />
      <g
         style="fill:#ffffff;stroke-width:1.05105"
         transform="matrix(1.058333,0,0,1.058333,-40.672129,8.5113175)"
         ns1:version="0.11.0"
         ns1:texconverter="pdflatex"
         ns1:pdfconverter="pdf2svg"
         ns1:text="$+$"
         ns1:preamble="/home/mpnerem/.config/inkscape/extensions/textext/default_packages.tex"
         ns1:scale="3.0"
         ns1:alignment="middle center"
         inkscapeversion="0.92.3"
         ns1:jacobian_sqrt="1.058333"
         id="g1006">
        <g
           style="fill:#ffffff;stroke-width:1.05105"
           id="g1004">
          <g
             style="fill:#ffffff;fill-opacity:1;stroke-width:1.05105"
             id="g1002">
            <path
               inkscape:connector-curvature="0"
               style="fill:#ffffff;stroke:none;stroke-width:0"
               d="m 4.078125,-2.296875 h 2.78125 C 7,-2.296875 7.1875,-2.296875 7.1875,-2.5 7.1875,-2.6875 7,-2.6875 6.859375,-2.6875 h -2.78125 v -2.796875 c 0,-0.140625 0,-0.328125 -0.203125,-0.328125 -0.203125,0 -0.203125,0.1875 -0.203125,0.328125 V -2.6875 h -2.78125 c -0.140625,0 -0.328125,0 -0.328125,0.1875 0,0.203125 0.1875,0.203125 0.328125,0.203125 h 2.78125 V 0.5 c 0,0.140625 0,0.328125 0.203125,0.328125 0.203125,0 0.203125,-0.1875 0.203125,-0.328125 z m 0,0"
               transform="translate(133.768,134.765)"
               id="path1000" />
          </g>
        </g>
      </g>
    </g>
    <g
       transform="matrix(0.95151769,0,0,0.95134803,7.0745892,-36.7449)"
       id="g1020"
       style="stroke-width:1.05105">
      <circle
         r="6.6670341"
         cy="136.21577"
         cx="54.918156"
         id="circle1010"
         style="opacity:1;fill:#5092dc;fill-opacity:1;fill-rule:nonzero;stroke:#000000;stroke-width:0.445923;stroke-linecap:round;stroke-linejoin:round;stroke-miterlimit:4;stroke-dasharray:none;stroke-dashoffset:10.0157;stroke-opacity:1" />
      <g
         id="g1018"
         style="fill:#ffffff;stroke-width:1.05105"
         ns1:jacobian_sqrt="1.058333"
         inkscapeversion="0.92.3"
         ns1:alignment="middle center"
         ns1:scale="3.0"
         ns1:preamble="/home/mpnerem/.config/inkscape/extensions/textext/default_packages.tex"
         ns1:text="$-$"
         ns1:pdfconverter="pdf2svg"
         ns1:texconverter="pdflatex"
         ns1:version="0.11.0"
         transform="matrix(1.058333,0,0,1.058333,-90.753973,-3.7729079)">
        <g
           style="fill:#ffffff;stroke-width:1.05105"
           id="g1016">
          <g
             id="g1014"
             style="fill:#ffffff;fill-opacity:1;stroke-width:1.05105">
            <path
               id="path1012"
               transform="translate(133.768,134.765)"
               d="m 6.5625,-2.296875 c 0.171875,0 0.359375,0 0.359375,-0.203125 0,-0.1875 -0.1875,-0.1875 -0.359375,-0.1875 H 1.171875 c -0.171875,0 -0.34375,0 -0.34375,0.1875 0,0.203125 0.171875,0.203125 0.34375,0.203125 z m 0,0"
               style="fill:#ffffff;stroke:none;stroke-width:0"
               inkscape:connector-curvature="0" />
          </g>
        </g>
      </g>
    </g>
    <path
       inkscape:connector-curvature="0"
       style="fill:#000000;fill-opacity:1;stroke:none;stroke-width:0"
       d="m 6.2951406,99.349711 c -0.1888167,-0.377566 -0.4720418,-0.645003 -0.928354,-0.645003 -1.1643698,0 -2.4074083,1.478802 -2.4074083,2.941872 0,0.9439 0.5507104,1.60464 1.3217171,1.60464 0.2045465,0 0.7080578,-0.0472 1.3059774,-0.75513 0.078649,0.42477 0.4405724,0.75513 0.9126142,0.75513 0.3619038,0 0.58219,-0.23597 0.755267,-0.55061 0.1573472,-0.36183 0.2989648,-0.97538 0.2989648,-0.99111 0,-0.11012 -0.094358,-0.11012 -0.1258778,-0.11012 -0.094358,0 -0.1101481,0.0472 -0.1416176,0.18878 -0.1730769,0.64501 -0.346164,1.24282 -0.7552669,1.24282 -0.2832251,0 -0.2989548,-0.26744 -0.2989548,-0.45622 0,-0.22025 0.015709,-0.31464 0.1258778,-0.75513 0.1101381,-0.40904 0.1258778,-0.51916 0.2202862,-0.89673 l 0.3618937,-1.400132 c 0.062939,-0.283175 0.062939,-0.298912 0.062939,-0.346102 0,-0.173057 -0.1101381,-0.267448 -0.2832251,-0.267448 -0.2517556,0 -0.3933632,0.220247 -0.4248327,0.440493 z m -0.6451289,2.595769 c -0.062939,0.18879 -0.062939,0.20451 -0.2045464,0.37757 -0.4405724,0.55061 -0.8496753,0.70793 -1.1329004,0.70793 -0.5035113,0 -0.6451289,-0.55061 -0.6451289,-0.94391 0,-0.50343 0.3146946,-1.73051 0.5507205,-2.202473 0.3146946,-0.582076 0.755267,-0.959643 1.1643699,-0.959643 0.6451188,0 0.7867364,0.818061 0.7867364,0.880989 0,0.06293 -0.01571,0.125854 -0.031419,0.173045 z m 0,0"
       id="path1304" />
    <path
       id="path2336"
       d="m 42.260247,99.349711 c -0.188817,-0.377566 -0.472042,-0.645003 -0.928344,-0.645003 -1.16437,0 -2.407418,1.478802 -2.407418,2.941872 0,0.9439 0.55072,1.60464 1.321717,1.60464 0.204556,0 0.708067,-0.0472 1.305988,-0.75513 0.07865,0.42477 0.440571,0.75513 0.912613,0.75513 0.361894,0 0.58218,-0.23597 0.755268,-0.55061 0.157346,-0.36183 0.298954,-0.97538 0.298954,-0.99111 0,-0.11012 -0.09436,-0.11012 -0.125878,-0.11012 -0.09436,0 -0.110138,0.0472 -0.141607,0.18878 -0.173088,0.64501 -0.346164,1.24282 -0.755267,1.24282 -0.283225,0 -0.298965,-0.26744 -0.298965,-0.45622 0,-0.22025 0.01571,-0.31464 0.125877,-0.75513 0.110149,-0.40904 0.125878,-0.51916 0.220287,-0.89673 l 0.361904,-1.400132 c 0.06293,-0.283175 0.06293,-0.298912 0.06293,-0.346102 0,-0.173057 -0.110148,-0.267448 -0.283225,-0.267448 -0.251756,0 -0.393373,0.220247 -0.424843,0.440493 z m -0.645119,2.595769 c -0.06294,0.18879 -0.06294,0.20451 -0.204557,0.37757 -0.440571,0.55061 -0.849675,0.70793 -1.132899,0.70793 -0.503512,0 -0.64512,-0.55061 -0.64512,-0.94391 0,-0.50343 0.314695,-1.73051 0.550711,-2.202473 0.314694,-0.582076 0.755267,-0.959643 1.164369,-0.959643 0.645129,0 0.786737,0.818061 0.786737,0.880989 0,0.06293 -0.01571,0.125854 -0.03142,0.173045 z m 0,0"
       style="fill:#000000;fill-opacity:1;stroke:none;stroke-width:0"
       inkscape:connector-curvature="0" />
    <path
       inkscape:connector-curvature="0"
       style="fill:#000000;fill-opacity:1;stroke:none;stroke-width:0"
       d="m 78.225353,99.349711 c -0.188817,-0.377566 -0.472042,-0.645003 -0.928344,-0.645003 -1.16437,0 -2.407418,1.478802 -2.407418,2.941872 0,0.9439 0.55072,1.60464 1.321717,1.60464 0.204556,0 0.708068,-0.0472 1.305987,-0.75513 0.07865,0.42477 0.440573,0.75513 0.912614,0.75513 0.361894,0 0.582181,-0.23597 0.755268,-0.55061 0.157346,-0.36183 0.298954,-0.97538 0.298954,-0.99111 0,-0.11012 -0.09436,-0.11012 -0.125877,-0.11012 -0.09436,0 -0.110138,0.0472 -0.141608,0.18878 -0.173088,0.64501 -0.346164,1.24282 -0.755267,1.24282 -0.283225,0 -0.298965,-0.26744 -0.298965,-0.45622 0,-0.22025 0.01571,-0.31464 0.125878,-0.75513 0.110148,-0.40904 0.125877,-0.51916 0.220286,-0.89673 l 0.361904,-1.400132 c 0.06294,-0.283175 0.06294,-0.298912 0.06294,-0.346102 0,-0.173057 -0.110149,-0.267448 -0.283226,-0.267448 -0.251755,0 -0.393373,0.220247 -0.424843,0.440493 z m -0.645118,2.595769 c -0.06294,0.18879 -0.06294,0.20451 -0.204558,0.37757 -0.440571,0.55061 -0.849675,0.70793 -1.132899,0.70793 -0.503512,0 -0.645119,-0.55061 -0.645119,-0.94391 0,-0.50343 0.314694,-1.73051 0.55071,-2.202473 0.314694,-0.582076 0.755267,-0.959643 1.16437,-0.959643 0.645129,0 0.786736,0.818061 0.786736,0.880989 0,0.06293 -0.01571,0.125854 -0.03142,0.173045 z m 0,0"
       id="path2338" />
    <g
       transform="matrix(0.95151769,0,0,0.95134803,-19.710436,5.0693291)"
       id="g1368"
       style="stroke-width:1.05105">
      <g
         id="g1040"
         transform="translate(128.78358,11.991309)"
         style="stroke-width:1.05105">
        <path
           style="fill:none;stroke:#000000;stroke-width:0.278089px;stroke-linecap:butt;stroke-linejoin:miter;stroke-opacity:1"
           d="m 100.85171,101.64867 h 37.79762"
           id="path1034"
           inkscape:connector-curvature="0"
           sodipodi:nodetypes="cc" />
      </g>
      <g
         transform="rotate(90,196.91317,172.03612)"
         id="g1048"
         style="stroke-width:1.05105">
        <path
           sodipodi:nodetypes="cc"
           inkscape:connector-curvature="0"
           id="path1042"
           d="m 100.85171,101.64867 h 37.79762"
           style="fill:none;stroke:#000000;stroke-width:0.278089px;stroke-linecap:butt;stroke-linejoin:miter;stroke-opacity:1" />
      </g>
      <g
         id="g1052"
         transform="rotate(90,178.14665,153.2696)"
         style="stroke-width:1.05105">
        <path
           style="fill:none;stroke:#000000;stroke-width:0.278089px;stroke-linecap:butt;stroke-linejoin:miter;stroke-opacity:1"
           d="m 100.85171,101.64867 h 37.79762"
           id="path1050"
           inkscape:connector-curvature="0"
           sodipodi:nodetypes="cc" />
      </g>
      <g
         transform="translate(124.76758,-34.860021)"
         id="g1032"
         style="stroke-width:1.05105">
        <circle
           style="opacity:1;fill:#dc5050;fill-opacity:1;fill-rule:nonzero;stroke:#000000;stroke-width:0.445923;stroke-linecap:round;stroke-linejoin:round;stroke-miterlimit:4;stroke-dasharray:none;stroke-dashoffset:10.0157;stroke-opacity:1"
           id="circle1022"
           cx="105"
           cy="148.5"
           r="6.6670341" />
        <g
           style="fill:#ffffff;stroke-width:1.05105"
           transform="matrix(1.058333,0,0,1.058333,-40.672129,8.5113175)"
           ns1:version="0.11.0"
           ns1:texconverter="pdflatex"
           ns1:pdfconverter="pdf2svg"
           ns1:text="$+$"
           ns1:preamble="/home/mpnerem/.config/inkscape/extensions/textext/default_packages.tex"
           ns1:scale="3.0"
           ns1:alignment="middle center"
           inkscapeversion="0.92.3"
           ns1:jacobian_sqrt="1.058333"
           id="g1030">
          <g
             style="fill:#ffffff;stroke-width:1.05105"
             id="g1028">
            <g
               style="fill:#ffffff;fill-opacity:1;stroke-width:1.05105"
               id="g1026">
              <path
                 inkscape:connector-curvature="0"
                 style="fill:#ffffff;stroke:none;stroke-width:0"
                 d="m 4.078125,-2.296875 h 2.78125 C 7,-2.296875 7.1875,-2.296875 7.1875,-2.5 7.1875,-2.6875 7,-2.6875 6.859375,-2.6875 h -2.78125 v -2.796875 c 0,-0.140625 0,-0.328125 -0.203125,-0.328125 -0.203125,0 -0.203125,0.1875 -0.203125,0.328125 V -2.6875 h -2.78125 c -0.140625,0 -0.328125,0 -0.328125,0.1875 0,0.203125 0.1875,0.203125 0.328125,0.203125 h 2.78125 V 0.5 c 0,0.140625 0,0.328125 0.203125,0.328125 0.203125,0 0.203125,-0.1875 0.203125,-0.328125 z m 0,0"
                 transform="translate(133.768,134.765)"
                 id="path1024" />
            </g>
          </g>
        </g>
      </g>
      <g
         transform="translate(128.78358,-25.541718)"
         id="g1056"
         style="stroke-width:1.05105">
        <path
           sodipodi:nodetypes="cc"
           inkscape:connector-curvature="0"
           id="path1054"
           d="m 100.85171,101.64867 h 37.79762"
           style="fill:none;stroke:#000000;stroke-width:0.278089px;stroke-linecap:butt;stroke-linejoin:miter;stroke-opacity:1" />
      </g>
      <g
         transform="translate(212.38246,-23.794783)"
         id="g1068"
         style="stroke-width:1.05105">
        <circle
           r="6.6670341"
           cy="136.21577"
           cx="54.918156"
           id="circle1058"
           style="opacity:1;fill:#5092dc;fill-opacity:1;fill-rule:nonzero;stroke:#000000;stroke-width:0.445923;stroke-linecap:round;stroke-linejoin:round;stroke-miterlimit:4;stroke-dasharray:none;stroke-dashoffset:10.0157;stroke-opacity:1" />
        <g
           id="g1066"
           style="fill:#ffffff;stroke-width:1.05105"
           ns1:jacobian_sqrt="1.058333"
           inkscapeversion="0.92.3"
           ns1:alignment="middle center"
           ns1:scale="3.0"
           ns1:preamble="/home/mpnerem/.config/inkscape/extensions/textext/default_packages.tex"
           ns1:text="$-$"
           ns1:pdfconverter="pdf2svg"
           ns1:texconverter="pdflatex"
           ns1:version="0.11.0"
           transform="matrix(1.058333,0,0,1.058333,-90.753973,-3.7729079)">
          <g
             style="fill:#ffffff;stroke-width:1.05105"
             id="g1064">
            <g
               id="g1062"
               style="fill:#ffffff;fill-opacity:1;stroke-width:1.05105">
              <path
                 id="path1060"
                 transform="translate(133.768,134.765)"
                 d="m 6.5625,-2.296875 c 0.171875,0 0.359375,0 0.359375,-0.203125 0,-0.1875 -0.1875,-0.1875 -0.359375,-0.1875 H 1.171875 c -0.171875,0 -0.34375,0 -0.34375,0.1875 0,0.203125 0.171875,0.203125 0.34375,0.203125 z m 0,0"
                 style="fill:#ffffff;stroke:none;stroke-width:0"
                 inkscape:connector-curvature="0" />
            </g>
          </g>
        </g>
      </g>
      <g
         id="g1080"
         transform="translate(212.38246,-60.108823)"
         style="stroke-width:1.05105">
        <circle
           style="opacity:1;fill:#5092dc;fill-opacity:1;fill-rule:nonzero;stroke:#000000;stroke-width:0.445923;stroke-linecap:round;stroke-linejoin:round;stroke-miterlimit:4;stroke-dasharray:none;stroke-dashoffset:10.0157;stroke-opacity:1"
           id="circle1070"
           cx="54.918156"
           cy="136.21577"
           r="6.6670341" />
        <g
           transform="matrix(1.058333,0,0,1.058333,-90.753973,-3.7729079)"
           ns1:version="0.11.0"
           ns1:texconverter="pdflatex"
           ns1:pdfconverter="pdf2svg"
           ns1:text="$-$"
           ns1:preamble="/home/mpnerem/.config/inkscape/extensions/textext/default_packages.tex"
           ns1:scale="3.0"
           ns1:alignment="middle center"
           inkscapeversion="0.92.3"
           ns1:jacobian_sqrt="1.058333"
           style="fill:#ffffff;stroke-width:1.05105"
           id="g1078">
          <g
             id="g1076"
             style="fill:#ffffff;stroke-width:1.05105">
            <g
               style="fill:#ffffff;fill-opacity:1;stroke-width:1.05105"
               id="g1074">
              <path
                 inkscape:connector-curvature="0"
                 style="fill:#ffffff;stroke:none;stroke-width:0"
                 d="m 6.5625,-2.296875 c 0.171875,0 0.359375,0 0.359375,-0.203125 0,-0.1875 -0.1875,-0.1875 -0.359375,-0.1875 H 1.171875 c -0.171875,0 -0.34375,0 -0.34375,0.1875 0,0.203125 0.171875,0.203125 0.34375,0.203125 z m 0,0"
                 transform="translate(133.768,134.765)"
                 id="path1072" />
            </g>
          </g>
        </g>
      </g>
      <g
         transform="translate(174.84942,-60.108823)"
         id="g1092"
         style="stroke-width:1.05105">
        <circle
           r="6.6670341"
           cy="136.21577"
           cx="54.918156"
           id="circle1082"
           style="opacity:1;fill:#5092dc;fill-opacity:1;fill-rule:nonzero;stroke:#000000;stroke-width:0.445923;stroke-linecap:round;stroke-linejoin:round;stroke-miterlimit:4;stroke-dasharray:none;stroke-dashoffset:10.0157;stroke-opacity:1" />
        <g
           id="g1090"
           style="fill:#ffffff;stroke-width:1.05105"
           ns1:jacobian_sqrt="1.058333"
           inkscapeversion="0.92.3"
           ns1:alignment="middle center"
           ns1:scale="3.0"
           ns1:preamble="/home/mpnerem/.config/inkscape/extensions/textext/default_packages.tex"
           ns1:text="$-$"
           ns1:pdfconverter="pdf2svg"
           ns1:texconverter="pdflatex"
           ns1:version="0.11.0"
           transform="matrix(1.058333,0,0,1.058333,-90.753973,-3.7729079)">
          <g
             style="fill:#ffffff;stroke-width:1.05105"
             id="g1088">
            <g
               id="g1086"
               style="fill:#ffffff;fill-opacity:1;stroke-width:1.05105">
              <path
                 id="path1084"
                 transform="translate(133.768,134.765)"
                 d="m 6.5625,-2.296875 c 0.171875,0 0.359375,0 0.359375,-0.203125 0,-0.1875 -0.1875,-0.1875 -0.359375,-0.1875 H 1.171875 c -0.171875,0 -0.34375,0 -0.34375,0.1875 0,0.203125 0.171875,0.203125 0.34375,0.203125 z m 0,0"
                 style="fill:#ffffff;stroke:none;stroke-width:0"
                 inkscape:connector-curvature="0" />
            </g>
          </g>
        </g>
      </g>
      <g
         id="g1318"
         ns1:jacobian_sqrt="1.058333"
         inkscapeversion="0.92.3"
         ns1:alignment="middle center"
         ns1:scale="3.0"
         ns1:preamble="/home/mpnerem/.config/inkscape/extensions/textext/default_packages.tex"
         ns1:text="$a$"
         ns1:pdfconverter="pdf2svg"
         ns1:texconverter="pdflatex"
         ns1:version="0.11.0"
         transform="matrix(1.058333,0,0,1.058333,131.1026,-43.702772)"
         style="stroke-width:1.05105">
        <g
           id="g1316"
           style="stroke-width:1.05105">
          <g
             id="g1314"
             style="fill:#000000;fill-opacity:1;stroke-width:1.05105">
            <path
               id="path1312"
               transform="translate(133.768,134.765)"
               d="M 3.71875,-3.765625 C 3.53125,-4.140625 3.25,-4.40625 2.796875,-4.40625 c -1.15625,0 -2.390625,1.46875 -2.390625,2.921875 0,0.9375 0.546875,1.59375 1.3125,1.59375 0.203125,0 0.703125,-0.046875 1.296875,-0.75 0.078125,0.421875 0.4375,0.75 0.90625,0.75 0.359375,0 0.578125,-0.234375 0.75,-0.546875 0.15625,-0.359375 0.296875,-0.96875 0.296875,-0.984375 0,-0.109375 -0.09375,-0.109375 -0.125,-0.109375 -0.09375,0 -0.109375,0.046875 -0.140625,0.1875 -0.171875,0.640625 -0.34375,1.234375 -0.75,1.234375 -0.28125,0 -0.296875,-0.265625 -0.296875,-0.453125 0,-0.21875 0.015625,-0.3125 0.125,-0.75 C 3.890625,-1.71875 3.90625,-1.828125 4,-2.203125 L 4.359375,-3.59375 c 0.0625,-0.28125 0.0625,-0.296875 0.0625,-0.34375 0,-0.171875 -0.109375,-0.265625 -0.28125,-0.265625 -0.25,0 -0.390625,0.21875 -0.421875,0.4375 z M 3.078125,-1.1875 C 3.015625,-1 3.015625,-0.984375 2.875,-0.8125 2.4375,-0.265625 2.03125,-0.109375 1.75,-0.109375 c -0.5,0 -0.640625,-0.546875 -0.640625,-0.9375 0,-0.5 0.3125,-1.71875 0.546875,-2.1875 0.3125,-0.578125 0.75,-0.953125 1.15625,-0.953125 0.640625,0 0.78125,0.8125 0.78125,0.875 0,0.0625 -0.015625,0.125 -0.03125,0.171875 z m 0,0"
               style="stroke:none;stroke-width:0"
               inkscape:connector-curvature="0" />
          </g>
        </g>
      </g>
      <g
         transform="matrix(1.058333,0,0,1.058333,103.84111,-69.895186)"
         ns1:version="0.11.0"
         ns1:texconverter="pdflatex"
         ns1:pdfconverter="pdf2svg"
         ns1:text="$a$"
         ns1:preamble="/home/mpnerem/.config/inkscape/extensions/textext/default_packages.tex"
         ns1:scale="3.0"
         ns1:alignment="middle center"
         inkscapeversion="0.92.3"
         ns1:jacobian_sqrt="1.058333"
         id="g1326"
         style="stroke-width:1.05105">
        <g
           id="g1324"
           style="stroke-width:1.05105">
          <g
             style="fill:#000000;fill-opacity:1;stroke-width:1.05105"
             id="g1322">
            <path
               inkscape:connector-curvature="0"
               style="stroke:none;stroke-width:0"
               d="M 3.71875,-3.765625 C 3.53125,-4.140625 3.25,-4.40625 2.796875,-4.40625 c -1.15625,0 -2.390625,1.46875 -2.390625,2.921875 0,0.9375 0.546875,1.59375 1.3125,1.59375 0.203125,0 0.703125,-0.046875 1.296875,-0.75 0.078125,0.421875 0.4375,0.75 0.90625,0.75 0.359375,0 0.578125,-0.234375 0.75,-0.546875 0.15625,-0.359375 0.296875,-0.96875 0.296875,-0.984375 0,-0.109375 -0.09375,-0.109375 -0.125,-0.109375 -0.09375,0 -0.109375,0.046875 -0.140625,0.1875 -0.171875,0.640625 -0.34375,1.234375 -0.75,1.234375 -0.28125,0 -0.296875,-0.265625 -0.296875,-0.453125 0,-0.21875 0.015625,-0.3125 0.125,-0.75 C 3.890625,-1.71875 3.90625,-1.828125 4,-2.203125 L 4.359375,-3.59375 c 0.0625,-0.28125 0.0625,-0.296875 0.0625,-0.34375 0,-0.171875 -0.109375,-0.265625 -0.28125,-0.265625 -0.25,0 -0.390625,0.21875 -0.421875,0.4375 z M 3.078125,-1.1875 C 3.015625,-1 3.015625,-0.984375 2.875,-0.8125 2.4375,-0.265625 2.03125,-0.109375 1.75,-0.109375 c -0.5,0 -0.640625,-0.546875 -0.640625,-0.9375 0,-0.5 0.3125,-1.71875 0.546875,-2.1875 0.3125,-0.578125 0.75,-0.953125 1.15625,-0.953125 0.640625,0 0.78125,0.8125 0.78125,0.875 0,0.0625 -0.015625,0.125 -0.03125,0.171875 z m 0,0"
               transform="translate(133.768,134.765)"
               id="path1320" />
          </g>
        </g>
      </g>
    </g>
    <g
       id="g1507"
       transform="matrix(0.95151769,0,0,0.95134803,106.22924,-10.01389)"
       style="stroke-width:1.05105">
      <path
         style="fill:none;stroke:#000000;stroke-width:0.278089px;stroke-linecap:butt;stroke-linejoin:miter;stroke-opacity:1"
         d="M 18.189494,125.14932 37.088305,92.415624"
         id="path1445"
         inkscape:connector-curvature="0"
         sodipodi:nodetypes="cc" />
      <g
         id="g1457"
         transform="translate(-68.026263,-35.444703)"
         style="stroke-width:1.05105">
        <circle
           r="6.6670341"
           cy="148.5"
           cx="105"
           id="circle1447"
           style="opacity:1;fill:#dc5050;fill-opacity:1;fill-rule:nonzero;stroke:#000000;stroke-width:0.445923;stroke-linecap:round;stroke-linejoin:round;stroke-miterlimit:4;stroke-dasharray:none;stroke-dashoffset:10.0157;stroke-opacity:1" />
        <g
           id="g1455"
           ns1:jacobian_sqrt="1.058333"
           inkscapeversion="0.92.3"
           ns1:alignment="middle center"
           ns1:scale="3.0"
           ns1:preamble="/home/mpnerem/.config/inkscape/extensions/textext/default_packages.tex"
           ns1:text="$+$"
           ns1:pdfconverter="pdf2svg"
           ns1:texconverter="pdflatex"
           ns1:version="0.11.0"
           transform="matrix(1.058333,0,0,1.058333,-40.672129,8.5113175)"
           style="fill:#ffffff;stroke-width:1.05105">
          <g
             id="g1453"
             style="fill:#ffffff;stroke-width:1.05105">
            <g
               id="g1451"
               style="fill:#ffffff;fill-opacity:1;stroke-width:1.05105">
              <path
                 id="path1449"
                 transform="translate(133.768,134.765)"
                 d="m 4.078125,-2.296875 h 2.78125 C 7,-2.296875 7.1875,-2.296875 7.1875,-2.5 7.1875,-2.6875 7,-2.6875 6.859375,-2.6875 h -2.78125 v -2.796875 c 0,-0.140625 0,-0.328125 -0.203125,-0.328125 -0.203125,0 -0.203125,0.1875 -0.203125,0.328125 V -2.6875 h -2.78125 c -0.140625,0 -0.328125,0 -0.328125,0.1875 0,0.203125 0.1875,0.203125 0.328125,0.203125 h 2.78125 V 0.5 c 0,0.140625 0,0.328125 0.203125,0.328125 0.203125,0 0.203125,-0.1875 0.203125,-0.328125 z m 0,0"
                 style="fill:#ffffff;stroke:none;stroke-width:0"
                 inkscape:connector-curvature="0" />
            </g>
          </g>
        </g>
      </g>
      <path
         style="fill:none;stroke:#000000;stroke-width:0.278089px;stroke-linecap:butt;stroke-linejoin:miter;stroke-opacity:1"
         d="M 18.074926,125.08319 H 55.872548"
         id="path1459"
         inkscape:connector-curvature="0"
         sodipodi:nodetypes="cc" />
      <g
         id="g1471"
         transform="translate(-36.947173,-11.150297)"
         style="stroke-width:1.05105">
        <circle
           style="opacity:1;fill:#5092dc;fill-opacity:1;fill-rule:nonzero;stroke:#000000;stroke-width:0.445923;stroke-linecap:round;stroke-linejoin:round;stroke-miterlimit:4;stroke-dasharray:none;stroke-dashoffset:10.0157;stroke-opacity:1"
           id="circle1461"
           cx="54.918156"
           cy="136.21577"
           r="6.6670341" />
        <g
           transform="matrix(1.058333,0,0,1.058333,-90.753973,-3.7729079)"
           ns1:version="0.11.0"
           ns1:texconverter="pdflatex"
           ns1:pdfconverter="pdf2svg"
           ns1:text="$-$"
           ns1:preamble="/home/mpnerem/.config/inkscape/extensions/textext/default_packages.tex"
           ns1:scale="3.0"
           ns1:alignment="middle center"
           inkscapeversion="0.92.3"
           ns1:jacobian_sqrt="1.058333"
           style="fill:#ffffff;stroke-width:1.05105"
           id="g1469">
          <g
             id="g1467"
             style="fill:#ffffff;stroke-width:1.05105">
            <g
               style="fill:#ffffff;fill-opacity:1;stroke-width:1.05105"
               id="g1465">
              <path
                 inkscape:connector-curvature="0"
                 style="fill:#ffffff;stroke:none;stroke-width:0"
                 d="m 6.5625,-2.296875 c 0.171875,0 0.359375,0 0.359375,-0.203125 0,-0.1875 -0.1875,-0.1875 -0.359375,-0.1875 H 1.171875 c -0.171875,0 -0.34375,0 -0.34375,0.1875 0,0.203125 0.171875,0.203125 0.34375,0.203125 z m 0,0"
                 transform="translate(133.768,134.765)"
                 id="path1463" />
            </g>
          </g>
        </g>
      </g>
      <path
         sodipodi:nodetypes="cc"
         inkscape:connector-curvature="0"
         id="path1473"
         d="M 36.859169,92.415641 55.75798,125.14934"
         style="fill:none;stroke:#000000;stroke-width:0.278089px;stroke-linecap:butt;stroke-linejoin:miter;stroke-opacity:1" />
      <g
         transform="translate(-17.944419,-44.695684)"
         id="g1485"
         style="stroke-width:1.05105">
        <circle
           r="6.6670341"
           cy="136.21577"
           cx="54.918156"
           id="circle1475"
           style="opacity:1;fill:#5092dc;fill-opacity:1;fill-rule:nonzero;stroke:#000000;stroke-width:0.445923;stroke-linecap:round;stroke-linejoin:round;stroke-miterlimit:4;stroke-dasharray:none;stroke-dashoffset:10.0157;stroke-opacity:1" />
        <g
           id="g1483"
           style="fill:#ffffff;stroke-width:1.05105"
           ns1:jacobian_sqrt="1.058333"
           inkscapeversion="0.92.3"
           ns1:alignment="middle center"
           ns1:scale="3.0"
           ns1:preamble="/home/mpnerem/.config/inkscape/extensions/textext/default_packages.tex"
           ns1:text="$-$"
           ns1:pdfconverter="pdf2svg"
           ns1:texconverter="pdflatex"
           ns1:version="0.11.0"
           transform="matrix(1.058333,0,0,1.058333,-90.753973,-3.7729079)">
          <g
             style="fill:#ffffff;stroke-width:1.05105"
             id="g1481">
            <g
               id="g1479"
               style="fill:#ffffff;fill-opacity:1;stroke-width:1.05105">
              <path
                 id="path1477"
                 transform="translate(133.768,134.765)"
                 d="m 6.5625,-2.296875 c 0.171875,0 0.359375,0 0.359375,-0.203125 0,-0.1875 -0.1875,-0.1875 -0.359375,-0.1875 H 1.171875 c -0.171875,0 -0.34375,0 -0.34375,0.1875 0,0.203125 0.171875,0.203125 0.34375,0.203125 z m 0,0"
                 style="fill:#ffffff;stroke:none;stroke-width:0"
                 inkscape:connector-curvature="0" />
            </g>
          </g>
        </g>
      </g>
      <g
         id="g1497"
         transform="translate(2.2678574,-11.150297)"
         style="stroke-width:1.05105">
        <circle
           style="opacity:1;fill:#5092dc;fill-opacity:1;fill-rule:nonzero;stroke:#000000;stroke-width:0.445923;stroke-linecap:round;stroke-linejoin:round;stroke-miterlimit:4;stroke-dasharray:none;stroke-dashoffset:10.0157;stroke-opacity:1"
           id="circle1487"
           cx="54.918156"
           cy="136.21577"
           r="6.6670341" />
        <g
           transform="matrix(1.058333,0,0,1.058333,-90.753973,-3.7729079)"
           ns1:version="0.11.0"
           ns1:texconverter="pdflatex"
           ns1:pdfconverter="pdf2svg"
           ns1:text="$-$"
           ns1:preamble="/home/mpnerem/.config/inkscape/extensions/textext/default_packages.tex"
           ns1:scale="3.0"
           ns1:alignment="middle center"
           inkscapeversion="0.92.3"
           ns1:jacobian_sqrt="1.058333"
           style="fill:#ffffff;stroke-width:1.05105"
           id="g1495">
          <g
             id="g1493"
             style="fill:#ffffff;stroke-width:1.05105">
            <g
               style="fill:#ffffff;fill-opacity:1;stroke-width:1.05105"
               id="g1491">
              <path
                 inkscape:connector-curvature="0"
                 style="fill:#ffffff;stroke:none;stroke-width:0"
                 d="m 6.5625,-2.296875 c 0.171875,0 0.359375,0 0.359375,-0.203125 0,-0.1875 -0.1875,-0.1875 -0.359375,-0.1875 H 1.171875 c -0.171875,0 -0.34375,0 -0.34375,0.1875 0,0.203125 0.171875,0.203125 0.34375,0.203125 z m 0,0"
                 transform="translate(133.768,134.765)"
                 id="path1489" />
            </g>
          </g>
        </g>
      </g>
      <g
         transform="matrix(1.058333,0,0,1.058333,-107.83636,-7.0868471)"
         ns1:version="0.11.0"
         ns1:texconverter="pdflatex"
         ns1:pdfconverter="pdf2svg"
         ns1:text="$a$"
         ns1:preamble="/home/mpnerem/.config/inkscape/extensions/textext/default_packages.tex"
         ns1:scale="3.0"
         ns1:alignment="middle center"
         inkscapeversion="0.92.3"
         ns1:jacobian_sqrt="1.058333"
         id="g1505"
         style="stroke-width:1.05105">
        <g
           id="g1503"
           style="stroke-width:1.05105">
          <g
             style="fill:#000000;fill-opacity:1;stroke-width:1.05105"
             id="g1501">
            <path
               inkscape:connector-curvature="0"
               style="stroke:none;stroke-width:0"
               d="M 3.71875,-3.765625 C 3.53125,-4.140625 3.25,-4.40625 2.796875,-4.40625 c -1.15625,0 -2.390625,1.46875 -2.390625,2.921875 0,0.9375 0.546875,1.59375 1.3125,1.59375 0.203125,0 0.703125,-0.046875 1.296875,-0.75 0.078125,0.421875 0.4375,0.75 0.90625,0.75 0.359375,0 0.578125,-0.234375 0.75,-0.546875 0.15625,-0.359375 0.296875,-0.96875 0.296875,-0.984375 0,-0.109375 -0.09375,-0.109375 -0.125,-0.109375 -0.09375,0 -0.109375,0.046875 -0.140625,0.1875 -0.171875,0.640625 -0.34375,1.234375 -0.75,1.234375 -0.28125,0 -0.296875,-0.265625 -0.296875,-0.453125 0,-0.21875 0.015625,-0.3125 0.125,-0.75 C 3.890625,-1.71875 3.90625,-1.828125 4,-2.203125 L 4.359375,-3.59375 c 0.0625,-0.28125 0.0625,-0.296875 0.0625,-0.34375 0,-0.171875 -0.109375,-0.265625 -0.28125,-0.265625 -0.25,0 -0.390625,0.21875 -0.421875,0.4375 z M 3.078125,-1.1875 C 3.015625,-1 3.015625,-0.984375 2.875,-0.8125 2.4375,-0.265625 2.03125,-0.109375 1.75,-0.109375 c -0.5,0 -0.640625,-0.546875 -0.640625,-0.9375 0,-0.5 0.3125,-1.71875 0.546875,-2.1875 0.3125,-0.578125 0.75,-0.953125 1.15625,-0.953125 0.640625,0 0.78125,0.8125 0.78125,0.875 0,0.0625 -0.015625,0.125 -0.03125,0.171875 z m 0,0"
               transform="translate(133.768,134.765)"
               id="path1499" />
            <path
               id="path2340"
               d="m 122.48675,105.99937 c -0.1875,-0.375 -0.46875,-0.64062 -0.92188,-0.64062 -1.15625,0 -2.39062,1.46875 -2.39062,2.92187 0,0.9375 0.54687,1.59375 1.3125,1.59375 0.20312,0 0.70312,-0.0469 1.29687,-0.75 0.0781,0.42188 0.4375,0.75 0.90625,0.75 0.35938,0 0.57813,-0.23437 0.75,-0.54687 0.15625,-0.35938 0.29688,-0.96875 0.29688,-0.98438 0,-0.10937 -0.0937,-0.10937 -0.125,-0.10937 -0.0937,0 -0.10938,0.0469 -0.14063,0.1875 -0.17187,0.64062 -0.34375,1.23437 -0.75,1.23437 -0.28125,0 -0.29687,-0.26562 -0.29687,-0.45312 0,-0.21875 0.0156,-0.3125 0.125,-0.75 0.10937,-0.40625 0.125,-0.51563 0.21875,-0.89063 l 0.35937,-1.39062 c 0.0625,-0.28125 0.0625,-0.29688 0.0625,-0.34375 0,-0.17188 -0.10937,-0.26563 -0.28125,-0.26563 -0.25,0 -0.39062,0.21875 -0.42187,0.4375 z m -0.64063,2.57813 c -0.0625,0.1875 -0.0625,0.20312 -0.20312,0.375 -0.4375,0.54687 -0.84375,0.70312 -1.125,0.70312 -0.5,0 -0.64063,-0.54687 -0.64063,-0.9375 0,-0.5 0.3125,-1.71875 0.54688,-2.1875 0.3125,-0.57812 0.75,-0.95312 1.15625,-0.95312 0.64062,0 0.78125,0.8125 0.78125,0.875 0,0.0625 -0.0156,0.125 -0.0312,0.17187 z m 0,0"
               style="stroke:none;stroke-width:0"
               inkscape:connector-curvature="0" />
            <path
               inkscape:connector-curvature="0"
               style="stroke:none;stroke-width:0"
               d="m 152.48675,105.99937 c -0.1875,-0.375 -0.46875,-0.64062 -0.92188,-0.64062 -1.15625,0 -2.39062,1.46875 -2.39062,2.92187 0,0.9375 0.54687,1.59375 1.3125,1.59375 0.20312,0 0.70312,-0.0469 1.29687,-0.75 0.0781,0.42188 0.4375,0.75 0.90625,0.75 0.35938,0 0.57813,-0.23437 0.75,-0.54687 0.15625,-0.35938 0.29688,-0.96875 0.29688,-0.98438 0,-0.10937 -0.0937,-0.10937 -0.125,-0.10937 -0.0937,0 -0.10938,0.0469 -0.14063,0.1875 -0.17187,0.64062 -0.34375,1.23437 -0.75,1.23437 -0.28125,0 -0.29687,-0.26562 -0.29687,-0.45312 0,-0.21875 0.0156,-0.3125 0.125,-0.75 0.10937,-0.40625 0.125,-0.51563 0.21875,-0.89063 l 0.35937,-1.39062 c 0.0625,-0.28125 0.0625,-0.29688 0.0625,-0.34375 0,-0.17188 -0.10937,-0.26563 -0.28125,-0.26563 -0.25,0 -0.39062,0.21875 -0.42187,0.4375 z m -0.64063,2.57813 c -0.0625,0.1875 -0.0625,0.20312 -0.20312,0.375 -0.4375,0.54687 -0.84375,0.70312 -1.125,0.70312 -0.5,0 -0.64063,-0.54687 -0.64063,-0.9375 0,-0.5 0.3125,-1.71875 0.54688,-2.1875 0.3125,-0.57812 0.75,-0.95312 1.15625,-0.95312 0.64062,0 0.78125,0.8125 0.78125,0.875 0,0.0625 -0.0156,0.125 -0.0312,0.17187 z m 0,0"
               id="path2342" />
          </g>
        </g>
      </g>
    </g>
    <g
       id="g1635"
       ns1:jacobian_sqrt="1.058333"
       inkscapeversion="0.92.3"
       ns1:alignment="middle center"
       ns1:scale="3.0"
       ns1:preamble="/home/mpnerem/.config/inkscape/extensions/textext/default_packages.tex"
       ns1:text="(A)"
       ns1:pdfconverter="pdf2svg"
       ns1:texconverter="pdflatex"
       ns1:version="0.11.0"
       transform="matrix(1.0070226,0,0,1.006843,-101.14192,3.1244536)"
       style="stroke-width:1.05105">
      <g
         id="surface1"
         style="stroke-width:1.05105">
        <g
           id="g1632"
           style="fill:#000000;fill-opacity:1;stroke-width:1.05105">
          <path
             id="path1626"
             transform="translate(133.768,134.765)"
             d="m 3.296875,2.390625 c 0,-0.03125 0,-0.046875 -0.171875,-0.21875 C 1.890625,0.921875 1.5625,-0.96875 1.5625,-2.5 c 0,-1.734375 0.375,-3.46875 1.609375,-4.703125 0.125,-0.125 0.125,-0.140625 0.125,-0.171875 0,-0.078125 -0.03125,-0.109375 -0.09375,-0.109375 -0.109375,0 -1,0.6875 -1.59375,1.953125 -0.5,1.09375 -0.625,2.203125 -0.625,3.03125 0,0.78125 0.109375,1.984375 0.65625,3.125 C 2.25,1.84375 3.09375,2.5 3.203125,2.5 c 0.0625,0 0.09375,-0.03125 0.09375,-0.109375 z m 0,0"
             style="stroke:none;stroke-width:0"
             inkscape:connector-curvature="0" />
          <path
             id="path1628"
             transform="translate(137.64245,134.765)"
             d="m 3.96875,-6.9375 c -0.046875,-0.125 -0.078125,-0.203125 -0.234375,-0.203125 -0.15625,0 -0.1875,0.0625 -0.234375,0.203125 L 1.4375,-0.984375 C 1.25,-0.46875 0.859375,-0.3125 0.3125,-0.3125 V 0 c 0.234375,-0.015625 0.671875,-0.03125 1.015625,-0.03125 0.3125,0 0.828125,0.015625 1.15625,0.03125 v -0.3125 c -0.5,0 -0.75,-0.25 -0.75,-0.5 0,-0.03125 0.015625,-0.140625 0.015625,-0.15625 L 2.21875,-2.265625 H 4.671875 L 5.203125,-0.75 c 0.015625,0.046875 0.03125,0.109375 0.03125,0.140625 0,0.296875 -0.5625,0.296875 -0.828125,0.296875 V 0 c 0.359375,-0.03125 1.0625,-0.03125 1.4375,-0.03125 0.421875,0 0.890625,0.015625 1.296875,0.03125 V -0.3125 H 6.96875 C 6.375,-0.3125 6.234375,-0.375 6.125,-0.703125 Z m -0.53125,1.109375 1.125,3.25 H 2.328125 Z m 0,0"
             style="stroke:none;stroke-width:0"
             inkscape:connector-curvature="0" />
          <path
             id="path1630"
             transform="translate(145.1144,134.765)"
             d="m 2.875,-2.5 c 0,-0.765625 -0.109375,-1.96875 -0.65625,-3.109375 -0.59375,-1.21875 -1.453125,-1.875 -1.546875,-1.875 -0.0625,0 -0.109375,0.046875 -0.109375,0.109375 0,0.03125 0,0.046875 0.1875,0.234375 0.984375,0.984375 1.546875,2.5625 1.546875,4.640625 0,1.71875 -0.359375,3.46875 -1.59375,4.71875 C 0.5625,2.34375 0.5625,2.359375 0.5625,2.390625 0.5625,2.453125 0.609375,2.5 0.671875,2.5 0.765625,2.5 1.671875,1.8125 2.25,0.546875 2.765625,-0.546875 2.875,-1.65625 2.875,-2.5 Z m 0,0"
             style="stroke:none;stroke-width:0"
             inkscape:connector-curvature="0" />
        </g>
      </g>
    </g>
    <g
       transform="matrix(1.0070226,0,0,1.006843,-0.16864919,3.1244541)"
       ns1:version="0.11.0"
       ns1:texconverter="pdflatex"
       ns1:pdfconverter="pdf2svg"
       ns1:text="(B)"
       ns1:preamble="/home/mpnerem/.config/inkscape/extensions/textext/default_packages.tex"
       ns1:scale="3.0"
       ns1:alignment="middle center"
       inkscapeversion="0.92.3"
       ns1:jacobian_sqrt="1.058333"
       id="g1907"
       style="stroke-width:1.05105">
      <g
         id="g1905"
         style="stroke-width:1.05105">
        <g
           style="fill:#000000;fill-opacity:1;stroke-width:1.05105"
           id="g1903">
          <path
             style="stroke:none;stroke-width:0"
             d="m 3.296875,2.390625 c 0,-0.03125 0,-0.046875 -0.171875,-0.21875 C 1.890625,0.921875 1.5625,-0.96875 1.5625,-2.5 c 0,-1.734375 0.375,-3.46875 1.609375,-4.703125 0.125,-0.125 0.125,-0.140625 0.125,-0.171875 0,-0.078125 -0.03125,-0.109375 -0.09375,-0.109375 -0.109375,0 -1,0.6875 -1.59375,1.953125 -0.5,1.09375 -0.625,2.203125 -0.625,3.03125 0,0.78125 0.109375,1.984375 0.65625,3.125 C 2.25,1.84375 3.09375,2.5 3.203125,2.5 c 0.0625,0 0.09375,-0.03125 0.09375,-0.109375 z m 0,0"
             transform="translate(133.768,134.765)"
             id="path1897"
             inkscape:connector-curvature="0" />
          <path
             style="stroke:none;stroke-width:0"
             d="m 2.21875,-3.65625 v -2.4375 C 2.21875,-6.4375 2.234375,-6.5 2.703125,-6.5 H 3.9375 c 0.96875,0 1.3125,0.84375 1.3125,1.375 0,0.640625 -0.484375,1.46875 -1.59375,1.46875 z M 4.5625,-3.5625 C 5.53125,-3.75 6.21875,-4.390625 6.21875,-5.125 6.21875,-5.984375 5.296875,-6.8125 4,-6.8125 H 0.359375 V -6.5 H 0.59375 c 0.765625,0 0.796875,0.109375 0.796875,0.46875 v 5.25 c 0,0.359375 -0.03125,0.46875 -0.796875,0.46875 H 0.359375 V 0 h 3.90625 c 1.328125,0 2.21875,-0.890625 2.21875,-1.828125 0,-0.859375 -0.8125,-1.609375 -1.921875,-1.734375 z m -0.609375,3.25 h -1.25 c -0.46875,0 -0.484375,-0.0625 -0.484375,-0.390625 v -2.71875 h 1.875 C 5.078125,-3.421875 5.5,-2.5 5.5,-1.828125 5.5,-1.125 4.96875,-0.3125 3.953125,-0.3125 Z m 0,0"
             transform="translate(137.64245,134.765)"
             id="path1899"
             inkscape:connector-curvature="0" />
          <path
             style="stroke:none;stroke-width:0"
             d="m 2.875,-2.5 c 0,-0.765625 -0.109375,-1.96875 -0.65625,-3.109375 -0.59375,-1.21875 -1.453125,-1.875 -1.546875,-1.875 -0.0625,0 -0.109375,0.046875 -0.109375,0.109375 0,0.03125 0,0.046875 0.1875,0.234375 0.984375,0.984375 1.546875,2.5625 1.546875,4.640625 0,1.71875 -0.359375,3.46875 -1.59375,4.71875 C 0.5625,2.34375 0.5625,2.359375 0.5625,2.390625 0.5625,2.453125 0.609375,2.5 0.671875,2.5 0.765625,2.5 1.671875,1.8125 2.25,0.546875 2.765625,-0.546875 2.875,-1.65625 2.875,-2.5 Z m 0,0"
             transform="translate(144.69896,134.765)"
             id="path1901"
             inkscape:connector-curvature="0" />
        </g>
      </g>
    </g>
    <g
       id="g2191"
       ns1:jacobian_sqrt="1.058333"
       inkscapeversion="0.92.3"
       ns1:alignment="middle center"
       ns1:scale="3.0"
       ns1:preamble="/home/mpnerem/.config/inkscape/extensions/textext/default_packages.tex"
       ns1:text="(C)"
       ns1:pdfconverter="pdf2svg"
       ns1:texconverter="pdflatex"
       ns1:version="0.11.0"
       transform="matrix(1.0070226,0,0,1.006843,76.335213,3.1244541)"
       style="stroke-width:1.05105">
      <g
         id="g2189"
         style="stroke-width:1.05105">
        <g
           id="g2187"
           style="fill:#000000;fill-opacity:1;stroke-width:1.05105">
          <path
             id="path2181"
             transform="translate(133.768,134.765)"
             d="m 3.296875,2.390625 c 0,-0.03125 0,-0.046875 -0.171875,-0.21875 C 1.890625,0.921875 1.5625,-0.96875 1.5625,-2.5 c 0,-1.734375 0.375,-3.46875 1.609375,-4.703125 0.125,-0.125 0.125,-0.140625 0.125,-0.171875 0,-0.078125 -0.03125,-0.109375 -0.09375,-0.109375 -0.109375,0 -1,0.6875 -1.59375,1.953125 -0.5,1.09375 -0.625,2.203125 -0.625,3.03125 0,0.78125 0.109375,1.984375 0.65625,3.125 C 2.25,1.84375 3.09375,2.5 3.203125,2.5 c 0.0625,0 0.09375,-0.03125 0.09375,-0.109375 z m 0,0"
             style="stroke:none;stroke-width:0"
             inkscape:connector-curvature="0" />
          <path
             id="path2183"
             transform="translate(137.64245,134.765)"
             d="m 0.5625,-3.40625 c 0,2.0625 1.609375,3.625 3.46875,3.625 1.625,0 2.59375,-1.390625 2.59375,-2.546875 C 6.625,-2.421875 6.625,-2.5 6.5,-2.5 6.390625,-2.5 6.390625,-2.4375 6.375,-2.328125 6.296875,-0.90625 5.234375,-0.09375 4.140625,-0.09375 c -0.609375,0 -2.5625,-0.328125 -2.5625,-3.3125 0,-2.96875 1.953125,-3.3125 2.5625,-3.3125 1.078125,0 1.96875,0.90625 2.171875,2.359375 C 6.328125,-4.21875 6.328125,-4.1875 6.46875,-4.1875 6.625,-4.1875 6.625,-4.21875 6.625,-4.421875 V -6.78125 c 0,-0.171875 0,-0.25 -0.109375,-0.25 -0.03125,0 -0.078125,0 -0.15625,0.125 l -0.5,0.734375 C 5.5,-6.53125 4.984375,-7.03125 4.03125,-7.03125 c -1.875,0 -3.46875,1.59375 -3.46875,3.625 z m 0,0"
             style="stroke:none;stroke-width:0"
             inkscape:connector-curvature="0" />
          <path
             id="path2185"
             transform="translate(144.83744,134.765)"
             d="m 2.875,-2.5 c 0,-0.765625 -0.109375,-1.96875 -0.65625,-3.109375 -0.59375,-1.21875 -1.453125,-1.875 -1.546875,-1.875 -0.0625,0 -0.109375,0.046875 -0.109375,0.109375 0,0.03125 0,0.046875 0.1875,0.234375 0.984375,0.984375 1.546875,2.5625 1.546875,4.640625 0,1.71875 -0.359375,3.46875 -1.59375,4.71875 C 0.5625,2.34375 0.5625,2.359375 0.5625,2.390625 0.5625,2.453125 0.609375,2.5 0.671875,2.5 0.765625,2.5 1.671875,1.8125 2.25,0.546875 2.765625,-0.546875 2.875,-1.65625 2.875,-2.5 Z m 0,0"
             style="stroke:none;stroke-width:0"
             inkscape:connector-curvature="0" />
        </g>
      </g>
    </g>
    <rect
       style="opacity:1;fill:none;fill-opacity:1;fill-rule:nonzero;stroke:#000000;stroke-width:0.529167;stroke-linecap:round;stroke-linejoin:round;stroke-miterlimit:4;stroke-dasharray:none;stroke-dashoffset:10.0157;stroke-opacity:1"
       id="rect2330"
       width="128.17305"
       height="35.59729"
       x="-22.864771"
       y="76.976585"
       rx="0.47324285"
       ry="0.38154078" />
    <rect
       ry="0.38154078"
       rx="0.47324285"
       y="67.314461"
       x="112.23138"
       height="54.921532"
       width="59.508934"
       id="rect2332"
       style="opacity:1;fill:none;fill-opacity:1;fill-rule:nonzero;stroke:#000000;stroke-width:0.529167;stroke-linecap:round;stroke-linejoin:round;stroke-miterlimit:4;stroke-dasharray:none;stroke-dashoffset:10.0157;stroke-opacity:1" />
    <rect
       style="opacity:1;fill:none;fill-opacity:1;fill-rule:nonzero;stroke:#000000;stroke-width:0.529167;stroke-linecap:round;stroke-linejoin:round;stroke-miterlimit:4;stroke-dasharray:none;stroke-dashoffset:10.0157;stroke-opacity:1"
       id="rect2334"
       width="59.508934"
       height="54.921532"
       x="188.80498"
       y="67.314461"
       rx="0.47324285"
       ry="0.38154078" />
  </g>
  <g
     inkscape:groupmode="layer"
     id="layer2"
     inkscape:label="Layer 2"
     style="display:none">
    <g
       transform="matrix(1.0070226,0,0,1.006843,-113.27281,-113.52542)"
       ns1:version="0.11.0"
       ns1:texconverter="pdflatex"
       ns1:pdfconverter="pdf2svg"
       ns1:text="1"
       ns1:preamble="/home/mpnerem/.config/inkscape/extensions/textext/default_packages.tex"
       ns1:scale="3.0"
       ns1:alignment="middle center"
       inkscapeversion="0.92.3"
       ns1:jacobian_sqrt="1.058333"
       id="g1163"
       style="display:inline;stroke-width:1.05105">
      <g
         id="g1161"
         style="stroke-width:1.05105">
        <g
           style="fill:#000000;fill-opacity:1;stroke-width:1.05105"
           id="g1159">
          <path
             inkscape:connector-curvature="0"
             style="stroke:none;stroke-width:0"
             d="m 2.9375,-6.375 c 0,-0.25 0,-0.265625 -0.234375,-0.265625 C 2.078125,-6 1.203125,-6 0.890625,-6 v 0.3125 c 0.203125,0 0.78125,0 1.296875,-0.265625 v 5.171875 c 0,0.359375 -0.03125,0.46875 -0.921875,0.46875 h -0.3125 V 0 c 0.34375,-0.03125 1.203125,-0.03125 1.609375,-0.03125 0.390625,0 1.265625,0 1.609375,0.03125 v -0.3125 h -0.3125 c -0.90625,0 -0.921875,-0.109375 -0.921875,-0.46875 z m 0,0"
             transform="translate(133.768,134.765)"
             id="path1157" />
        </g>
      </g>
    </g>
    <g
       id="g1466"
       ns1:jacobian_sqrt="1.058333"
       inkscapeversion="0.92.3"
       ns1:alignment="middle center"
       ns1:scale="3.0"
       ns1:preamble="/home/mpnerem/.config/inkscape/extensions/textext/default_packages.tex"
       ns1:text="2"
       ns1:pdfconverter="pdf2svg"
       ns1:texconverter="pdflatex"
       ns1:version="0.11.0"
       transform="matrix(1.0070226,0,0,1.006843,-77.512246,-113.52542)"
       style="display:inline;stroke-width:1.05105">
      <g
         id="g1464"
         style="stroke-width:1.05105">
        <g
           id="g1462"
           style="fill:#000000;fill-opacity:1;stroke-width:1.05105">
          <path
             id="path1460"
             transform="translate(133.768,134.765)"
             d="m 1.265625,-0.765625 1.0625,-1.03125 c 1.546875,-1.375 2.140625,-1.90625 2.140625,-2.90625 0,-1.140625 -0.890625,-1.9375 -2.109375,-1.9375 -1.125,0 -1.859375,0.921875 -1.859375,1.8125 0,0.546875 0.5,0.546875 0.53125,0.546875 0.171875,0 0.515625,-0.109375 0.515625,-0.53125 0,-0.25 -0.1875,-0.515625 -0.53125,-0.515625 -0.078125,0 -0.09375,0 -0.125,0.015625 0.21875,-0.65625 0.765625,-1.015625 1.34375,-1.015625 0.90625,0 1.328125,0.8125 1.328125,1.625 C 3.5625,-3.90625 3.078125,-3.125 2.515625,-2.5 l -1.90625,2.125 C 0.5,-0.265625 0.5,-0.234375 0.5,0 H 4.203125 L 4.46875,-1.734375 H 4.234375 C 4.171875,-1.4375 4.109375,-1 4,-0.84375 3.9375,-0.765625 3.28125,-0.765625 3.0625,-0.765625 Z m 0,0"
             style="stroke:none;stroke-width:0"
             inkscape:connector-curvature="0" />
        </g>
      </g>
    </g>
    <g
       transform="matrix(1.0070226,0,0,1.006843,-41.303263,-113.63554)"
       ns1:version="0.11.0"
       ns1:texconverter="pdflatex"
       ns1:pdfconverter="pdf2svg"
       ns1:text="3"
       ns1:preamble="/home/mpnerem/.config/inkscape/extensions/textext/default_packages.tex"
       ns1:scale="3.0"
       ns1:alignment="middle center"
       inkscapeversion="0.92.3"
       ns1:jacobian_sqrt="1.058333"
       id="g1776"
       style="display:inline;stroke-width:1.05105">
      <g
         id="g1774"
         style="stroke-width:1.05105">
        <g
           style="fill:#000000;fill-opacity:1;stroke-width:1.05105"
           id="g1772">
          <path
             inkscape:connector-curvature="0"
             style="stroke:none;stroke-width:0"
             d="m 2.890625,-3.515625 c 0.8125,-0.265625 1.390625,-0.953125 1.390625,-1.75 0,-0.8125 -0.875,-1.375 -1.828125,-1.375 -1,0 -1.765625,0.59375 -1.765625,1.359375 0,0.328125 0.21875,0.515625 0.515625,0.515625 0.296875,0 0.5,-0.21875 0.5,-0.515625 0,-0.484375 -0.46875,-0.484375 -0.609375,-0.484375 0.296875,-0.5 0.953125,-0.625 1.3125,-0.625 0.421875,0 0.96875,0.21875 0.96875,1.109375 0,0.125 -0.03125,0.703125 -0.28125,1.140625 C 2.796875,-3.65625 2.453125,-3.625 2.203125,-3.625 2.125,-3.609375 1.890625,-3.59375 1.8125,-3.59375 c -0.078125,0.015625 -0.140625,0.03125 -0.140625,0.125 0,0.109375 0.0625,0.109375 0.234375,0.109375 h 0.4375 c 0.8125,0 1.1875,0.671875 1.1875,1.65625 0,1.359375 -0.6875,1.640625 -1.125,1.640625 -0.4375,0 -1.1875,-0.171875 -1.53125,-0.75 0.34375,0.046875 0.65625,-0.171875 0.65625,-0.546875 0,-0.359375 -0.265625,-0.5625 -0.546875,-0.5625 -0.25,0 -0.5625,0.140625 -0.5625,0.578125 0,0.90625 0.921875,1.5625 2.015625,1.5625 1.21875,0 2.125,-0.90625 2.125,-1.921875 0,-0.8125 -0.640625,-1.59375 -1.671875,-1.8125 z m 0,0"
             transform="translate(133.768,134.765)"
             id="path1770" />
        </g>
      </g>
    </g>
    <g
       id="g2094"
       ns1:jacobian_sqrt="1.058333"
       inkscapeversion="0.92.3"
       ns1:alignment="middle center"
       ns1:scale="3.0"
       ns1:preamble="/home/mpnerem/.config/inkscape/extensions/textext/default_packages.tex"
       ns1:text="4"
       ns1:pdfconverter="pdf2svg"
       ns1:texconverter="pdflatex"
       ns1:version="0.11.0"
       transform="matrix(1.0070226,0,0,1.006843,-5.5820461,-113.47036)"
       style="display:inline;stroke-width:1.05105">
      <g
         id="g2092"
         style="stroke-width:1.05105">
        <g
           id="g2090"
           style="fill:#000000;fill-opacity:1;stroke-width:1.05105">
          <path
             id="path2088"
             transform="translate(133.768,134.765)"
             d="m 2.9375,-1.640625 v 0.859375 c 0,0.359375 -0.03125,0.46875 -0.765625,0.46875 H 1.96875 V 0 C 2.375,-0.03125 2.890625,-0.03125 3.3125,-0.03125 c 0.421875,0 0.9375,0 1.359375,0.03125 v -0.3125 h -0.21875 c -0.734375,0 -0.75,-0.109375 -0.75,-0.46875 V -1.640625 H 4.6875 v -0.3125 H 3.703125 v -4.53125 c 0,-0.203125 0,-0.265625 -0.171875,-0.265625 -0.078125,0 -0.109375,0 -0.1875,0.125 l -3.0625,4.671875 v 0.3125 z m 0.046875,-0.3125 H 0.5625 l 2.421875,-3.71875 z m 0,0"
             style="stroke:none;stroke-width:0"
             inkscape:connector-curvature="0" />
        </g>
      </g>
    </g>
    <g
       id="g2258"
       ns1:jacobian_sqrt="1.058333"
       inkscapeversion="0.92.3"
       ns1:alignment="middle center"
       ns1:scale="3.0"
       ns1:preamble="/home/mpnerem/.config/inkscape/extensions/textext/default_packages.tex"
       ns1:text="1"
       ns1:pdfconverter="pdf2svg"
       ns1:texconverter="pdflatex"
       ns1:version="0.11.0"
       transform="matrix(1.0070226,0,0,1.006843,60.473471,-81.493125)"
       style="display:inline;stroke-width:1.05105">
      <g
         id="g2256"
         style="stroke-width:1.05105">
        <g
           id="g2254"
           style="fill:#000000;fill-opacity:1;stroke-width:1.05105">
          <path
             id="path2252"
             transform="translate(133.768,134.765)"
             d="m 2.9375,-6.375 c 0,-0.25 0,-0.265625 -0.234375,-0.265625 C 2.078125,-6 1.203125,-6 0.890625,-6 v 0.3125 c 0.203125,0 0.78125,0 1.296875,-0.265625 v 5.171875 c 0,0.359375 -0.03125,0.46875 -0.921875,0.46875 h -0.3125 V 0 c 0.34375,-0.03125 1.203125,-0.03125 1.609375,-0.03125 0.390625,0 1.265625,0 1.609375,0.03125 v -0.3125 h -0.3125 c -0.90625,0 -0.921875,-0.109375 -0.921875,-0.46875 z m 0,0"
             style="stroke:none;stroke-width:0"
             inkscape:connector-curvature="0" />
        </g>
      </g>
    </g>
    <g
       transform="matrix(1.0070226,0,0,1.006843,23.613674,-125.08674)"
       ns1:version="0.11.0"
       ns1:texconverter="pdflatex"
       ns1:pdfconverter="pdf2svg"
       ns1:text="2"
       ns1:preamble="/home/mpnerem/.config/inkscape/extensions/textext/default_packages.tex"
       ns1:scale="3.0"
       ns1:alignment="middle center"
       inkscapeversion="0.92.3"
       ns1:jacobian_sqrt="1.058333"
       id="g2266"
       style="display:inline;stroke-width:1.05105">
      <g
         id="g2264"
         style="stroke-width:1.05105">
        <g
           style="fill:#000000;fill-opacity:1;stroke-width:1.05105"
           id="g2262">
          <path
             inkscape:connector-curvature="0"
             style="stroke:none;stroke-width:0"
             d="m 1.265625,-0.765625 1.0625,-1.03125 c 1.546875,-1.375 2.140625,-1.90625 2.140625,-2.90625 0,-1.140625 -0.890625,-1.9375 -2.109375,-1.9375 -1.125,0 -1.859375,0.921875 -1.859375,1.8125 0,0.546875 0.5,0.546875 0.53125,0.546875 0.171875,0 0.515625,-0.109375 0.515625,-0.53125 0,-0.25 -0.1875,-0.515625 -0.53125,-0.515625 -0.078125,0 -0.09375,0 -0.125,0.015625 0.21875,-0.65625 0.765625,-1.015625 1.34375,-1.015625 0.90625,0 1.328125,0.8125 1.328125,1.625 C 3.5625,-3.90625 3.078125,-3.125 2.515625,-2.5 l -1.90625,2.125 C 0.5,-0.265625 0.5,-0.234375 0.5,0 H 4.203125 L 4.46875,-1.734375 H 4.234375 C 4.171875,-1.4375 4.109375,-1 4,-0.84375 3.9375,-0.765625 3.28125,-0.765625 3.0625,-0.765625 Z m 0,0"
             transform="translate(133.768,134.765)"
             id="path2260" />
        </g>
      </g>
    </g>
    <g
       id="g2274"
       ns1:jacobian_sqrt="1.058333"
       inkscapeversion="0.92.3"
       ns1:alignment="middle center"
       ns1:scale="3.0"
       ns1:preamble="/home/mpnerem/.config/inkscape/extensions/textext/default_packages.tex"
       ns1:text="3"
       ns1:pdfconverter="pdf2svg"
       ns1:texconverter="pdflatex"
       ns1:version="0.11.0"
       transform="matrix(1.0070226,0,0,1.006843,8.2875149,-81.343717)"
       style="display:inline;stroke-width:1.05105">
      <g
         id="g2272"
         style="stroke-width:1.05105">
        <g
           id="g2270"
           style="fill:#000000;fill-opacity:1;stroke-width:1.05105">
          <path
             id="path2268"
             transform="translate(133.768,134.765)"
             d="m 2.890625,-3.515625 c 0.8125,-0.265625 1.390625,-0.953125 1.390625,-1.75 0,-0.8125 -0.875,-1.375 -1.828125,-1.375 -1,0 -1.765625,0.59375 -1.765625,1.359375 0,0.328125 0.21875,0.515625 0.515625,0.515625 0.296875,0 0.5,-0.21875 0.5,-0.515625 0,-0.484375 -0.46875,-0.484375 -0.609375,-0.484375 0.296875,-0.5 0.953125,-0.625 1.3125,-0.625 0.421875,0 0.96875,0.21875 0.96875,1.109375 0,0.125 -0.03125,0.703125 -0.28125,1.140625 C 2.796875,-3.65625 2.453125,-3.625 2.203125,-3.625 2.125,-3.609375 1.890625,-3.59375 1.8125,-3.59375 c -0.078125,0.015625 -0.140625,0.03125 -0.140625,0.125 0,0.109375 0.0625,0.109375 0.234375,0.109375 h 0.4375 c 0.8125,0 1.1875,0.671875 1.1875,1.65625 0,1.359375 -0.6875,1.640625 -1.125,1.640625 -0.4375,0 -1.1875,-0.171875 -1.53125,-0.75 0.34375,0.046875 0.65625,-0.171875 0.65625,-0.546875 0,-0.359375 -0.265625,-0.5625 -0.546875,-0.5625 -0.25,0 -0.5625,0.140625 -0.5625,0.578125 0,0.90625 0.921875,1.5625 2.015625,1.5625 1.21875,0 2.125,-0.90625 2.125,-1.921875 0,-0.8125 -0.640625,-1.59375 -1.671875,-1.8125 z m 0,0"
             style="stroke:none;stroke-width:0"
             inkscape:connector-curvature="0" />
        </g>
      </g>
    </g>
    <g
       transform="matrix(1.0070226,0,0,1.006843,35.990863,-109.8952)"
       ns1:version="0.11.0"
       ns1:texconverter="pdflatex"
       ns1:pdfconverter="pdf2svg"
       ns1:text="4"
       ns1:preamble="/home/mpnerem/.config/inkscape/extensions/textext/default_packages.tex"
       ns1:scale="3.0"
       ns1:alignment="middle center"
       inkscapeversion="0.92.3"
       ns1:jacobian_sqrt="1.058333"
       id="g2282"
       style="display:inline;stroke-width:1.05105">
      <g
         id="g2280"
         style="stroke-width:1.05105">
        <g
           style="fill:#000000;fill-opacity:1;stroke-width:1.05105"
           id="g2278">
          <path
             inkscape:connector-curvature="0"
             style="stroke:none;stroke-width:0"
             d="m 2.9375,-1.640625 v 0.859375 c 0,0.359375 -0.03125,0.46875 -0.765625,0.46875 H 1.96875 V 0 C 2.375,-0.03125 2.890625,-0.03125 3.3125,-0.03125 c 0.421875,0 0.9375,0 1.359375,0.03125 v -0.3125 h -0.21875 c -0.734375,0 -0.75,-0.109375 -0.75,-0.46875 V -1.640625 H 4.6875 v -0.3125 H 3.703125 v -4.53125 c 0,-0.203125 0,-0.265625 -0.171875,-0.265625 -0.078125,0 -0.109375,0 -0.1875,0.125 l -3.0625,4.671875 v 0.3125 z m 0.046875,-0.3125 H 0.5625 l 2.421875,-3.71875 z m 0,0"
             transform="translate(133.768,134.765)"
             id="path2276" />
        </g>
      </g>
    </g>
    <g
       id="g2290"
       ns1:jacobian_sqrt="1.058333"
       inkscapeversion="0.92.3"
       ns1:alignment="middle center"
       ns1:scale="3.0"
       ns1:preamble="/home/mpnerem/.config/inkscape/extensions/textext/default_packages.tex"
       ns1:text="1"
       ns1:pdfconverter="pdf2svg"
       ns1:texconverter="pdflatex"
       ns1:version="0.11.0"
       transform="matrix(1.0070226,0,0,1.006843,137.48262,-80.245)"
       style="display:inline;stroke-width:1.05105">
      <g
         id="g2288"
         style="stroke-width:1.05105">
        <g
           id="g2286"
           style="fill:#000000;fill-opacity:1;stroke-width:1.05105">
          <path
             id="path2284"
             transform="translate(133.768,134.765)"
             d="m 2.9375,-6.375 c 0,-0.25 0,-0.265625 -0.234375,-0.265625 C 2.078125,-6 1.203125,-6 0.890625,-6 v 0.3125 c 0.203125,0 0.78125,0 1.296875,-0.265625 v 5.171875 c 0,0.359375 -0.03125,0.46875 -0.921875,0.46875 h -0.3125 V 0 c 0.34375,-0.03125 1.203125,-0.03125 1.609375,-0.03125 0.390625,0 1.265625,0 1.609375,0.03125 v -0.3125 h -0.3125 c -0.90625,0 -0.921875,-0.109375 -0.921875,-0.46875 z m 0,0"
             style="stroke:none;stroke-width:0"
             inkscape:connector-curvature="0" />
        </g>
      </g>
    </g>
    <g
       transform="matrix(1.0070226,0,0,1.006843,137.02631,-125.06862)"
       ns1:version="0.11.0"
       ns1:texconverter="pdflatex"
       ns1:pdfconverter="pdf2svg"
       ns1:text="2"
       ns1:preamble="/home/mpnerem/.config/inkscape/extensions/textext/default_packages.tex"
       ns1:scale="3.0"
       ns1:alignment="middle center"
       inkscapeversion="0.92.3"
       ns1:jacobian_sqrt="1.058333"
       id="g2298"
       style="display:inline;stroke-width:1.05105">
      <g
         id="g2296"
         style="stroke-width:1.05105">
        <g
           style="fill:#000000;fill-opacity:1;stroke-width:1.05105"
           id="g2294">
          <path
             inkscape:connector-curvature="0"
             style="stroke:none;stroke-width:0"
             d="m 1.265625,-0.765625 1.0625,-1.03125 c 1.546875,-1.375 2.140625,-1.90625 2.140625,-2.90625 0,-1.140625 -0.890625,-1.9375 -2.109375,-1.9375 -1.125,0 -1.859375,0.921875 -1.859375,1.8125 0,0.546875 0.5,0.546875 0.53125,0.546875 0.171875,0 0.515625,-0.109375 0.515625,-0.53125 0,-0.25 -0.1875,-0.515625 -0.53125,-0.515625 -0.078125,0 -0.09375,0 -0.125,0.015625 0.21875,-0.65625 0.765625,-1.015625 1.34375,-1.015625 0.90625,0 1.328125,0.8125 1.328125,1.625 C 3.5625,-3.90625 3.078125,-3.125 2.515625,-2.5 l -1.90625,2.125 C 0.5,-0.265625 0.5,-0.234375 0.5,0 H 4.203125 L 4.46875,-1.734375 H 4.234375 C 4.171875,-1.4375 4.109375,-1 4,-0.84375 3.9375,-0.765625 3.28125,-0.765625 3.0625,-0.765625 Z m 0,0"
             transform="translate(133.768,134.765)"
             id="path2292" />
        </g>
      </g>
    </g>
    <g
       id="g2306"
       ns1:jacobian_sqrt="1.058333"
       inkscapeversion="0.92.3"
       ns1:alignment="middle center"
       ns1:scale="3.0"
       ns1:preamble="/home/mpnerem/.config/inkscape/extensions/textext/default_packages.tex"
       ns1:text="3"
       ns1:pdfconverter="pdf2svg"
       ns1:texconverter="pdflatex"
       ns1:version="0.11.0"
       transform="matrix(1.0070226,0,0,1.006843,86.703262,-110.0761)"
       style="display:inline;stroke-width:1.05105">
      <g
         id="g2304"
         style="stroke-width:1.05105">
        <g
           id="g2302"
           style="fill:#000000;fill-opacity:1;stroke-width:1.05105">
          <path
             id="path2300"
             transform="translate(133.768,134.765)"
             d="m 2.890625,-3.515625 c 0.8125,-0.265625 1.390625,-0.953125 1.390625,-1.75 0,-0.8125 -0.875,-1.375 -1.828125,-1.375 -1,0 -1.765625,0.59375 -1.765625,1.359375 0,0.328125 0.21875,0.515625 0.515625,0.515625 0.296875,0 0.5,-0.21875 0.5,-0.515625 0,-0.484375 -0.46875,-0.484375 -0.609375,-0.484375 0.296875,-0.5 0.953125,-0.625 1.3125,-0.625 0.421875,0 0.96875,0.21875 0.96875,1.109375 0,0.125 -0.03125,0.703125 -0.28125,1.140625 C 2.796875,-3.65625 2.453125,-3.625 2.203125,-3.625 2.125,-3.609375 1.890625,-3.59375 1.8125,-3.59375 c -0.078125,0.015625 -0.140625,0.03125 -0.140625,0.125 0,0.109375 0.0625,0.109375 0.234375,0.109375 h 0.4375 c 0.8125,0 1.1875,0.671875 1.1875,1.65625 0,1.359375 -0.6875,1.640625 -1.125,1.640625 -0.4375,0 -1.1875,-0.171875 -1.53125,-0.75 0.34375,0.046875 0.65625,-0.171875 0.65625,-0.546875 0,-0.359375 -0.265625,-0.5625 -0.546875,-0.5625 -0.25,0 -0.5625,0.140625 -0.5625,0.578125 0,0.90625 0.921875,1.5625 2.015625,1.5625 1.21875,0 2.125,-0.90625 2.125,-1.921875 0,-0.8125 -0.640625,-1.59375 -1.671875,-1.8125 z m 0,0"
             style="stroke:none;stroke-width:0"
             inkscape:connector-curvature="0" />
        </g>
      </g>
    </g>
    <g
       transform="matrix(1.0070226,0,0,1.006843,99.298919,-80.245)"
       ns1:version="0.11.0"
       ns1:texconverter="pdflatex"
       ns1:pdfconverter="pdf2svg"
       ns1:text="4"
       ns1:preamble="/home/mpnerem/.config/inkscape/extensions/textext/default_packages.tex"
       ns1:scale="3.0"
       ns1:alignment="middle center"
       inkscapeversion="0.92.3"
       ns1:jacobian_sqrt="1.058333"
       id="g2314"
       style="display:inline;stroke-width:1.05105">
      <g
         id="g2312"
         style="stroke-width:1.05105">
        <g
           style="fill:#000000;fill-opacity:1;stroke-width:1.05105"
           id="g2310">
          <path
             inkscape:connector-curvature="0"
             style="stroke:none;stroke-width:0"
             d="m 2.9375,-1.640625 v 0.859375 c 0,0.359375 -0.03125,0.46875 -0.765625,0.46875 H 1.96875 V 0 C 2.375,-0.03125 2.890625,-0.03125 3.3125,-0.03125 c 0.421875,0 0.9375,0 1.359375,0.03125 v -0.3125 h -0.21875 c -0.734375,0 -0.75,-0.109375 -0.75,-0.46875 V -1.640625 H 4.6875 v -0.3125 H 3.703125 v -4.53125 c 0,-0.203125 0,-0.265625 -0.171875,-0.265625 -0.078125,0 -0.109375,0 -0.1875,0.125 l -3.0625,4.671875 v 0.3125 z m 0.046875,-0.3125 H 0.5625 l 2.421875,-3.71875 z m 0,0"
             transform="translate(133.768,134.765)"
             id="path2308" />
        </g>
      </g>
    </g>
  </g>
</svg>
