<?xml version="1.0" encoding="utf-8" standalone="no"?>
<!DOCTYPE svg PUBLIC "-//W3C//DTD SVG 1.1//EN"
  "http://www.w3.org/Graphics/SVG/1.1/DTD/svg11.dtd">
<!-- Created with matplotlib (https://matplotlib.org/) -->
<svg height="91.135139pt" version="1.1" viewBox="0 0 391.803538 91.135139" width="391.803538pt" xmlns="http://www.w3.org/2000/svg" xmlns:xlink="http://www.w3.org/1999/xlink">
 <defs>
  <style type="text/css">
*{stroke-linecap:butt;stroke-linejoin:round;}
  </style>
 </defs>
 <g id="figure_1">
  <g id="patch_1">
   <path d="M 0 91.135139 
L 391.803538 91.135139 
L 391.803538 0 
L 0 0 
z
" style="fill:#ffffff;"/>
  </g>
  <g id="axes_1">
   <g id="patch_2">
    <path d="M 24.99287 68.079462 
L 89.923779 68.079462 
L 89.923779 22.166376 
L 24.99287 22.166376 
z
" style="fill:#ffffff;"/>
   </g>
   <g id="matplotlib.axis_1">
    <g id="xtick_1">
     <g id="line2d_1">
      <defs>
       <path d="M 0 0 
L 0 3.5 
" id="m923058bff1" style="stroke:#000000;stroke-width:0.8;"/>
      </defs>
      <g>
       <use style="stroke:#000000;stroke-width:0.8;" x="24.99287" xlink:href="#m923058bff1" y="68.079462"/>
      </g>
     </g>
     <g id="text_1">
      <!-- $-5$ -->
      <defs>
       <path d="M 65.90625 23 
C 67.59375 23 69.40625 23 69.40625 25 
C 69.40625 27 67.59375 27 65.90625 27 
L 11.796875 27 
C 10.09375 27 8.296875 27 8.296875 25 
C 8.296875 23 10.09375 23 11.796875 23 
z
" id="CMSY10-0"/>
       <path d="M 11.40625 58.59375 
C 12.40625 58.1875 16.5 56.890625 20.703125 56.890625 
C 30 56.890625 35.09375 61.890625 38 64.6875 
C 38 65.484375 38 66 37.40625 66 
C 37.296875 66 37.09375 66 36.296875 65.59375 
C 32.796875 64.09375 28.703125 63 23.703125 63 
C 20.703125 63 16.203125 63.359375 11.296875 65.484375 
C 10.203125 66 10 66 9.90625 66 
C 9.40625 66 9.296875 65.890625 9.296875 63.90625 
L 9.296875 34.859375 
C 9.296875 33.015625 9.296875 32.5 10.296875 32.5 
C 10.796875 32.5 11 32.703125 11.5 33.421875 
C 14.703125 38.046875 19.09375 40 24.09375 40 
C 27.59375 40 35.09375 37.734375 35.09375 20.203125 
C 35.09375 16.984375 35.09375 11.1875 32.09375 6.59375 
C 29.59375 2.484375 25.703125 0.390625 21.40625 0.390625 
C 14.796875 0.390625 8.09375 4.984375 6.296875 12.6875 
C 6.703125 12.59375 7.5 12.390625 7.90625 12.390625 
C 9.203125 12.390625 11.703125 13.09375 11.703125 16.1875 
C 11.703125 18.890625 9.796875 20 7.90625 20 
C 5.59375 20 4.09375 18.59375 4.09375 15.796875 
C 4.09375 7.09375 11 -2 21.59375 -2 
C 31.90625 -2 41.703125 6.890625 41.703125 19.796875 
C 41.703125 32.09375 33.90625 41.59375 24.203125 41.59375 
C 19.09375 41.59375 14.796875 39.6875 11.40625 36 
z
" id="CMR17-53"/>
      </defs>
      <g transform="translate(18.627831 81.997961)scale(0.1 -0.1)">
       <use transform="scale(0.996264)" xlink:href="#CMSY10-0"/>
       <use transform="translate(77.487468 0)scale(0.996264)" xlink:href="#CMR17-53"/>
      </g>
     </g>
    </g>
    <g id="xtick_2">
     <g id="line2d_2">
      <g>
       <use style="stroke:#000000;stroke-width:0.8;" x="57.458325" xlink:href="#m923058bff1" y="68.079462"/>
      </g>
     </g>
     <g id="text_2">
      <!-- $0$ -->
      <defs>
       <path d="M 42 31.84375 
C 42 37.96875 41.90625 48.421875 37.703125 56.453125 
C 34 63.484375 28.09375 66 22.90625 66 
C 18.09375 66 12 63.78125 8.203125 56.5625 
C 4.203125 49.015625 3.796875 39.671875 3.796875 31.84375 
C 3.796875 26.109375 3.90625 17.375 7 9.734375 
C 11.296875 -0.609375 19 -2 22.90625 -2 
C 27.5 -2 34.5 -0.109375 38.59375 9.4375 
C 41.59375 16.375 42 24.5 42 31.84375 
z
M 22.90625 -0.40625 
C 16.5 -0.40625 12.703125 5.125 11.296875 12.75 
C 10.203125 18.6875 10.203125 27.328125 10.203125 32.953125 
C 10.203125 40.6875 10.203125 47.109375 11.5 53.234375 
C 13.40625 61.78125 19 64.390625 22.90625 64.390625 
C 27 64.390625 32.296875 61.671875 34.203125 53.4375 
C 35.5 47.71875 35.59375 40.984375 35.59375 32.953125 
C 35.59375 26.421875 35.59375 18.375 34.40625 12.453125 
C 32.296875 1.5 26.40625 -0.40625 22.90625 -0.40625 
z
" id="CMR17-48"/>
      </defs>
      <g transform="translate(54.967657 81.997961)scale(0.1 -0.1)">
       <use transform="scale(0.996264)" xlink:href="#CMR17-48"/>
      </g>
     </g>
    </g>
    <g id="xtick_3">
     <g id="line2d_3">
      <g>
       <use style="stroke:#000000;stroke-width:0.8;" x="89.923779" xlink:href="#m923058bff1" y="68.079462"/>
      </g>
     </g>
     <g id="text_3">
      <!-- $5$ -->
      <g transform="translate(87.433112 81.997961)scale(0.1 -0.1)">
       <use transform="scale(0.996264)" xlink:href="#CMR17-53"/>
      </g>
     </g>
    </g>
   </g>
   <g id="matplotlib.axis_2">
    <g id="ytick_1">
     <g id="line2d_4">
      <defs>
       <path d="M 0 0 
L -3.5 0 
" id="ma8056843f7" style="stroke:#000000;stroke-width:0.8;"/>
      </defs>
      <g>
       <use style="stroke:#000000;stroke-width:0.8;" x="24.99287" xlink:href="#ma8056843f7" y="45.122919"/>
      </g>
     </g>
     <g id="text_4">
      <!-- $0V$ -->
      <defs>
       <path d="M 61.90625 56.9375 
C 65.296875 62.296875 68.40625 64.6875 73.5 65.09375 
C 74.5 65.1875 75.296875 65.1875 75.296875 66.984375 
C 75.296875 67.390625 75.09375 68 74.203125 68 
C 72.40625 68 68.09375 67.796875 66.296875 67.796875 
C 63.40625 67.796875 60.40625 68 57.59375 68 
C 56.796875 68 55.796875 68 55.796875 66.09375 
C 55.796875 65.1875 56.703125 65.09375 57.09375 65.09375 
C 60.796875 64.78125 61.203125 63 61.203125 61.8125 
C 61.203125 60.3125 59.796875 58.03125 59.703125 57.9375 
L 28.296875 8.4375 
L 21.296875 62 
C 21.296875 64.890625 26.5 65.09375 27.59375 65.09375 
C 29.09375 65.09375 30 65.09375 30 66.984375 
C 30 68 28.90625 68 28.59375 68 
C 26.90625 68 24.90625 67.796875 23.203125 67.796875 
L 17.59375 67.796875 
C 10.296875 67.796875 7.296875 68 7.203125 68 
C 6.59375 68 5.40625 68 5.40625 66.1875 
C 5.40625 65.09375 6.09375 65.09375 7.703125 65.09375 
C 12.796875 65.09375 13.09375 64.1875 13.40625 61.703125 
L 21.40625 0.390625 
C 21.703125 -1.703125 21.703125 -2 23.09375 -2 
C 24.296875 -2 24.796875 -1.703125 25.796875 -0.109375 
z
" id="CMMI12-86"/>
      </defs>
      <g transform="translate(7.2 48.582168)scale(0.1 -0.1)">
       <use transform="scale(0.996264)" xlink:href="#CMR17-48"/>
       <use transform="translate(45.690477 0)scale(0.996264)" xlink:href="#CMMI12-86"/>
      </g>
     </g>
    </g>
   </g>
   <g id="line2d_5">
    <path clip-path="url(#p18691ed3dc)" d="M 24.99287 45.122919 
L 25.648738 45.122919 
L 26.304606 45.122919 
L 26.960474 45.122919 
L 27.616341 45.122919 
L 28.272209 45.122919 
L 28.928077 45.122919 
L 29.583945 45.122919 
L 30.239812 45.122919 
L 30.89568 45.122919 
L 31.551548 45.122919 
L 32.207416 45.122919 
L 32.863283 45.122919 
L 33.519151 45.122919 
L 34.175019 45.122919 
L 34.830887 45.122919 
L 35.486755 45.122919 
L 36.142622 45.122919 
L 36.79849 45.122919 
L 37.454358 45.122919 
L 38.110226 45.122919 
L 38.766093 45.122919 
L 39.421961 45.122919 
L 40.077829 45.122919 
L 40.733697 45.122919 
L 41.389564 45.122919 
L 42.045432 45.122919 
L 42.7013 45.122919 
L 43.357168 45.122919 
L 44.013036 45.122919 
L 44.668903 45.122919 
L 45.324771 45.122919 
L 45.980639 45.122919 
L 46.636507 45.122919 
L 47.292374 45.122919 
L 47.948242 45.122919 
L 48.60411 45.122919 
L 49.259978 45.122919 
L 49.915845 45.122919 
L 50.571713 45.122919 
L 51.227581 45.122919 
L 51.883449 45.122919 
L 52.539317 45.122919 
L 53.195184 45.122919 
L 53.851052 45.122919 
L 54.50692 45.122919 
L 55.162788 45.122919 
L 55.818655 45.122919 
L 56.474523 45.122919 
L 57.130391 45.122919 
L 57.786259 45.122919 
L 58.442126 45.122919 
L 59.097994 45.122919 
L 59.753862 45.122919 
L 60.40973 45.122919 
L 61.065598 45.122919 
L 61.721465 45.122919 
L 62.377333 45.122919 
L 63.033201 45.122919 
L 63.689069 45.122919 
L 64.344936 45.122919 
L 65.000804 45.122919 
L 65.656672 45.122919 
L 66.31254 45.122919 
L 66.968407 45.122919 
L 67.624275 45.122919 
L 68.280143 45.122919 
L 68.936011 45.122919 
L 69.591879 45.122919 
L 70.247746 45.122919 
L 70.903614 45.122919 
L 71.559482 45.122919 
L 72.21535 45.122919 
L 72.871217 45.122919 
L 73.527085 45.122919 
L 74.182953 45.122919 
L 74.838821 45.122919 
L 75.494688 45.122919 
L 76.150556 45.122919 
L 76.806424 45.122919 
L 77.462292 45.122919 
L 78.118159 45.122919 
L 78.774027 45.122919 
L 79.429895 45.122919 
L 80.085763 45.122919 
L 80.741631 45.122919 
L 81.397498 45.122919 
L 82.053366 45.122919 
L 82.709234 45.122919 
L 83.365102 45.122919 
L 84.020969 45.122919 
L 84.676837 45.122919 
L 85.332705 45.122919 
L 85.988573 45.122919 
L 86.64444 45.122919 
L 87.300308 45.122919 
L 87.956176 45.122919 
L 88.612044 45.122919 
L 89.267912 45.122919 
L 89.923779 45.122919 
" style="fill:none;stroke:#1f77b4;stroke-linecap:square;stroke-width:1.5;"/>
   </g>
   <g id="patch_3">
    <path d="M 24.99287 68.079462 
L 24.99287 22.166376 
" style="fill:none;stroke:#000000;stroke-linecap:square;stroke-linejoin:miter;stroke-width:0.8;"/>
   </g>
   <g id="patch_4">
    <path d="M 89.923779 68.079462 
L 89.923779 22.166376 
" style="fill:none;stroke:#000000;stroke-linecap:square;stroke-linejoin:miter;stroke-width:0.8;"/>
   </g>
   <g id="patch_5">
    <path d="M 24.99287 68.079462 
L 89.923779 68.079462 
" style="fill:none;stroke:#000000;stroke-linecap:square;stroke-linejoin:miter;stroke-width:0.8;"/>
   </g>
   <g id="patch_6">
    <path d="M 24.99287 22.166376 
L 89.923779 22.166376 
" style="fill:none;stroke:#000000;stroke-linecap:square;stroke-linejoin:miter;stroke-width:0.8;"/>
   </g>
   <g id="text_5">
    <!-- (A) -->
    <defs>
     <path d="M 25.203125 75 
C 19.796875 69.484375 7.40625 56.671875 7.40625 25.046875 
C 7.40625 -6.6875 19.796875 -19.40625 25.203125 -25 
L 31.296875 -25 
C 19 -12.203125 15 5.71875 15 24.9375 
C 15 44.0625 18.796875 62.078125 31.296875 75 
z
" id="CMSS17-40"/>
     <path d="M 35.5 69 
L 26.90625 69 
L 2.59375 0 
L 10.203125 0 
L 17.203125 20 
L 44 20 
L 51.09375 0 
L 59.796875 0 
z
M 42.09375 25.59375 
L 19.09375 25.59375 
C 23.90625 39.53125 29.90625 56.84375 30.59375 61.3125 
L 30.703125 61.3125 
C 31.40625 57.234375 33.40625 51.265625 35.09375 46.1875 
z
" id="CMSS17-65"/>
     <path d="M 11.296875 -25 
C 16.703125 -19.5 29.09375 -6.6875 29.09375 24.9375 
C 29.09375 56.671875 16.703125 69.375 11.296875 75 
L 5.203125 75 
C 17.5 62.171875 21.5 44.265625 21.5 25.046875 
C 21.5 5.921875 17.703125 -12.09375 5.203125 -25 
z
" id="CMSS17-41"/>
    </defs>
    <g transform="translate(49.038605 16.166376)scale(0.12 -0.12)">
     <use transform="scale(0.996264)" xlink:href="#CMSS17-40"/>
     <use transform="translate(36.433914 0)scale(0.996264)" xlink:href="#CMSS17-65"/>
     <use transform="translate(98.651769 0)scale(0.996264)" xlink:href="#CMSS17-41"/>
    </g>
   </g>
  </g>
  <g id="axes_2">
   <g id="patch_7">
    <path d="M 122.389234 68.079462 
L 187.320143 68.079462 
L 187.320143 22.166376 
L 122.389234 22.166376 
z
" style="fill:#ffffff;"/>
   </g>
   <g id="matplotlib.axis_3">
    <g id="xtick_4">
     <g id="line2d_6">
      <g>
       <use style="stroke:#000000;stroke-width:0.8;" x="122.389234" xlink:href="#m923058bff1" y="68.079462"/>
      </g>
     </g>
     <g id="text_6">
      <!-- $-5$ -->
      <g transform="translate(116.024194 81.997961)scale(0.1 -0.1)">
       <use transform="scale(0.996264)" xlink:href="#CMSY10-0"/>
       <use transform="translate(77.487468 0)scale(0.996264)" xlink:href="#CMR17-53"/>
      </g>
     </g>
    </g>
    <g id="xtick_5">
     <g id="line2d_7">
      <g>
       <use style="stroke:#000000;stroke-width:0.8;" x="154.854688" xlink:href="#m923058bff1" y="68.079462"/>
      </g>
     </g>
     <g id="text_7">
      <!-- $0$ -->
      <g transform="translate(152.364021 81.997961)scale(0.1 -0.1)">
       <use transform="scale(0.996264)" xlink:href="#CMR17-48"/>
      </g>
     </g>
    </g>
    <g id="xtick_6">
     <g id="line2d_8">
      <g>
       <use style="stroke:#000000;stroke-width:0.8;" x="187.320143" xlink:href="#m923058bff1" y="68.079462"/>
      </g>
     </g>
     <g id="text_8">
      <!-- $5$ -->
      <g transform="translate(184.829475 81.997961)scale(0.1 -0.1)">
       <use transform="scale(0.996264)" xlink:href="#CMR17-53"/>
      </g>
     </g>
    </g>
   </g>
   <g id="matplotlib.axis_4">
    <g id="ytick_2">
     <g id="line2d_9">
      <g>
       <use style="stroke:#000000;stroke-width:0.8;" x="122.389234" xlink:href="#ma8056843f7" y="45.122919"/>
      </g>
     </g>
     <g id="text_9">
      <!-- $0V$ -->
      <g transform="translate(104.596364 48.582168)scale(0.1 -0.1)">
       <use transform="scale(0.996264)" xlink:href="#CMR17-48"/>
       <use transform="translate(45.690477 0)scale(0.996264)" xlink:href="#CMMI12-86"/>
      </g>
     </g>
    </g>
   </g>
   <g id="line2d_10">
    <path clip-path="url(#p2f3405416f)" d="M 122.389234 46.347268 
L 123.045102 46.416238 
L 123.700969 46.491775 
L 124.356837 46.574806 
L 125.012705 46.66644 
L 125.668573 46.76801 
L 126.32444 46.881138 
L 126.980308 47.00781 
L 127.636176 47.150491 
L 128.292044 47.312272 
L 128.947912 47.497089 
L 129.603779 47.710022 
L 130.259647 47.957751 
L 130.915515 48.249235 
L 131.571383 48.596772 
L 132.22725 49.017708 
L 132.883118 49.537331 
L 133.538986 50.19399 
L 134.194854 51.048768 
L 134.850721 52.205259 
L 135.506589 53.854312 
L 136.162457 56.390378 
L 136.818325 60.781698 
L 137.474193 70.209701 
L 137.889638 92.135139 
M 138.164386 92.135139 
L 138.416343 -1 
M 139.40203 -1 
L 139.441796 7.817704 
L 140.097664 23.959173 
L 140.753531 30.154299 
L 141.409399 33.423364 
L 142.065267 35.437815 
L 142.721135 36.799328 
L 143.377002 37.777575 
L 144.03287 38.511435 
L 144.688738 39.079687 
L 145.344606 39.530324 
L 146.000474 39.894229 
L 146.656341 40.192152 
L 147.312209 40.43853 
L 147.968077 40.643694 
L 148.623945 40.815209 
L 149.279812 40.958716 
L 149.93568 41.078482 
L 150.591548 41.177765 
L 151.247416 41.259065 
L 151.903283 41.324298 
L 152.559151 41.37492 
L 153.215019 41.41201 
L 153.870887 41.436331 
L 154.526755 41.448373 
L 155.182622 41.448373 
L 155.83849 41.436331 
L 156.494358 41.41201 
L 157.150226 41.37492 
L 157.806093 41.324298 
L 158.461961 41.259065 
L 159.117829 41.177765 
L 159.773697 41.078482 
L 160.429564 40.958716 
L 161.085432 40.815209 
L 161.7413 40.643694 
L 162.397168 40.43853 
L 163.053036 40.192152 
L 163.708903 39.894229 
L 164.364771 39.530324 
L 165.020639 39.079687 
L 165.676507 38.511435 
L 166.332374 37.777575 
L 166.988242 36.799328 
L 167.64411 35.437815 
L 168.299978 33.423364 
L 168.955845 30.154299 
L 169.611713 23.959173 
L 170.267581 7.817704 
L 170.307347 -1 
M 171.293033 -1 
L 171.544991 92.135139 
M 171.819739 92.135139 
L 172.235184 70.209701 
L 172.891052 60.781698 
L 173.54692 56.390378 
L 174.202788 53.854312 
L 174.858655 52.205259 
L 175.514523 51.048768 
L 176.170391 50.19399 
L 176.826259 49.537331 
L 177.482126 49.017708 
L 178.137994 48.596772 
L 178.793862 48.249235 
L 179.44973 47.957751 
L 180.105598 47.710022 
L 180.761465 47.497089 
L 181.417333 47.312272 
L 182.073201 47.150491 
L 182.729069 47.00781 
L 183.384936 46.881138 
L 184.040804 46.76801 
L 184.696672 46.66644 
L 185.35254 46.574806 
L 186.008407 46.491775 
L 186.664275 46.416238 
L 187.320143 46.347268 
" style="fill:none;stroke:#1f77b4;stroke-linecap:square;stroke-width:1.5;"/>
   </g>
   <g id="patch_8">
    <path d="M 122.389234 68.079462 
L 122.389234 22.166376 
" style="fill:none;stroke:#000000;stroke-linecap:square;stroke-linejoin:miter;stroke-width:0.8;"/>
   </g>
   <g id="patch_9">
    <path d="M 187.320143 68.079462 
L 187.320143 22.166376 
" style="fill:none;stroke:#000000;stroke-linecap:square;stroke-linejoin:miter;stroke-width:0.8;"/>
   </g>
   <g id="patch_10">
    <path d="M 122.389234 68.079462 
L 187.320143 68.079462 
" style="fill:none;stroke:#000000;stroke-linecap:square;stroke-linejoin:miter;stroke-width:0.8;"/>
   </g>
   <g id="patch_11">
    <path d="M 122.389234 22.166376 
L 187.320143 22.166376 
" style="fill:none;stroke:#000000;stroke-linecap:square;stroke-linejoin:miter;stroke-width:0.8;"/>
   </g>
   <g id="text_10">
    <!-- (B) -->
    <defs>
     <path d="M 8.90625 69 
L 8.90625 0 
L 33.796875 0 
C 47.40625 0 57.296875 8.984375 57.296875 18.75 
C 57.296875 26.3125 50.796875 33.984375 39.09375 36.1875 
C 52.09375 39.984375 54.703125 47.484375 54.703125 51.734375 
C 54.703125 60.625 44.90625 69 31.203125 69 
z
M 17 39 
L 17 63.390625 
L 28.5 63.390625 
C 38.796875 63.390625 46.90625 58.15625 46.90625 51.640625 
C 46.90625 45.703125 40.5 39 27.59375 39 
z
M 17 5.59375 
L 17 32.890625 
L 30.296875 32.890625 
C 41.09375 32.890625 49.40625 26.21875 49.40625 18.84375 
C 49.40625 12.0625 42.09375 5.59375 31 5.59375 
z
" id="CMSS17-66"/>
    </defs>
    <g transform="translate(146.417676 16.166376)scale(0.12 -0.12)">
     <use transform="scale(0.996264)" xlink:href="#CMSS17-40"/>
     <use transform="translate(36.433914 0)scale(0.996264)" xlink:href="#CMSS17-66"/>
     <use transform="translate(98.771954 0)scale(0.996264)" xlink:href="#CMSS17-41"/>
    </g>
   </g>
  </g>
  <g id="axes_3">
   <g id="patch_12">
    <path d="M 219.785598 68.079462 
L 284.716507 68.079462 
L 284.716507 22.166376 
L 219.785598 22.166376 
z
" style="fill:#ffffff;"/>
   </g>
   <g id="matplotlib.axis_5">
    <g id="xtick_7">
     <g id="line2d_11">
      <g>
       <use style="stroke:#000000;stroke-width:0.8;" x="219.785598" xlink:href="#m923058bff1" y="68.079462"/>
      </g>
     </g>
     <g id="text_11">
      <!-- $-5$ -->
      <g transform="translate(213.420558 81.997961)scale(0.1 -0.1)">
       <use transform="scale(0.996264)" xlink:href="#CMSY10-0"/>
       <use transform="translate(77.487468 0)scale(0.996264)" xlink:href="#CMR17-53"/>
      </g>
     </g>
    </g>
    <g id="xtick_8">
     <g id="line2d_12">
      <g>
       <use style="stroke:#000000;stroke-width:0.8;" x="252.251052" xlink:href="#m923058bff1" y="68.079462"/>
      </g>
     </g>
     <g id="text_12">
      <!-- $0$ -->
      <g transform="translate(249.760384 81.997961)scale(0.1 -0.1)">
       <use transform="scale(0.996264)" xlink:href="#CMR17-48"/>
      </g>
     </g>
    </g>
    <g id="xtick_9">
     <g id="line2d_13">
      <g>
       <use style="stroke:#000000;stroke-width:0.8;" x="284.716507" xlink:href="#m923058bff1" y="68.079462"/>
      </g>
     </g>
     <g id="text_13">
      <!-- $5$ -->
      <g transform="translate(282.225839 81.997961)scale(0.1 -0.1)">
       <use transform="scale(0.996264)" xlink:href="#CMR17-53"/>
      </g>
     </g>
    </g>
   </g>
   <g id="matplotlib.axis_6">
    <g id="ytick_3">
     <g id="line2d_14">
      <g>
       <use style="stroke:#000000;stroke-width:0.8;" x="219.785598" xlink:href="#ma8056843f7" y="45.122919"/>
      </g>
     </g>
     <g id="text_14">
      <!-- $0V$ -->
      <g transform="translate(201.992727 48.582168)scale(0.1 -0.1)">
       <use transform="scale(0.996264)" xlink:href="#CMR17-48"/>
       <use transform="translate(45.690477 0)scale(0.996264)" xlink:href="#CMMI12-86"/>
      </g>
     </g>
    </g>
   </g>
   <g id="line2d_15">
    <path clip-path="url(#p12d0a35059)" d="M 219.785598 43.89857 
L 220.441465 43.8296 
L 221.097333 43.754064 
L 221.753201 43.671032 
L 222.409069 43.579398 
L 223.064936 43.477828 
L 223.720804 43.3647 
L 224.376672 43.238028 
L 225.03254 43.095348 
L 225.688407 42.933566 
L 226.344275 42.74875 
L 227.000143 42.535817 
L 227.656011 42.288087 
L 228.311879 41.996603 
L 228.967746 41.649067 
L 229.623614 41.22813 
L 230.279482 40.708507 
L 230.93535 40.051848 
L 231.591217 39.19707 
L 232.247085 38.040579 
L 232.902953 36.391526 
L 233.558821 33.85546 
L 234.214688 29.46414 
L 234.870556 20.036137 
L 235.269151 -1 
M 235.563156 -1 
L 235.815113 92.135139 
M 236.794383 92.135139 
L 236.838159 82.428134 
L 237.494027 66.286666 
L 238.149895 60.09154 
L 238.805763 56.822475 
L 239.461631 54.808023 
L 240.117498 53.44651 
L 240.773366 52.468263 
L 241.429234 51.734404 
L 242.085102 51.166151 
L 242.740969 50.715514 
L 243.396837 50.351609 
L 244.052705 50.053687 
L 244.708573 49.807309 
L 245.36444 49.602144 
L 246.020308 49.430629 
L 246.676176 49.287122 
L 247.332044 49.167356 
L 247.987912 49.068073 
L 248.643779 48.986774 
L 249.299647 48.92154 
L 249.955515 48.870918 
L 250.611383 48.833829 
L 251.26725 48.809507 
L 251.923118 48.797466 
L 252.578986 48.797466 
L 253.234854 48.809507 
L 253.890721 48.833829 
L 254.546589 48.870918 
L 255.202457 48.92154 
L 255.858325 48.986774 
L 256.514193 49.068073 
L 257.17006 49.167356 
L 257.825928 49.287122 
L 258.481796 49.430629 
L 259.137664 49.602144 
L 259.793531 49.807309 
L 260.449399 50.053687 
L 261.105267 50.351609 
L 261.761135 50.715514 
L 262.417002 51.166151 
L 263.07287 51.734404 
L 263.728738 52.468263 
L 264.384606 53.44651 
L 265.040474 54.808023 
L 265.696341 56.822475 
L 266.352209 60.09154 
L 267.008077 66.286666 
L 267.663945 82.428134 
L 267.707721 92.135139 
M 268.686991 92.135139 
L 268.938948 -1 
M 269.232953 -1 
L 269.631548 20.036137 
L 270.287416 29.46414 
L 270.943283 33.85546 
L 271.599151 36.391526 
L 272.255019 38.040579 
L 272.910887 39.19707 
L 273.566755 40.051848 
L 274.222622 40.708507 
L 274.87849 41.22813 
L 275.534358 41.649067 
L 276.190226 41.996603 
L 276.846093 42.288087 
L 277.501961 42.535817 
L 278.157829 42.74875 
L 278.813697 42.933566 
L 279.469564 43.095348 
L 280.125432 43.238028 
L 280.7813 43.3647 
L 281.437168 43.477828 
L 282.093036 43.579398 
L 282.748903 43.671032 
L 283.404771 43.754064 
L 284.060639 43.8296 
L 284.716507 43.89857 
" style="fill:none;stroke:#1f77b4;stroke-linecap:square;stroke-width:1.5;"/>
   </g>
   <g id="patch_13">
    <path d="M 219.785598 68.079462 
L 219.785598 22.166376 
" style="fill:none;stroke:#000000;stroke-linecap:square;stroke-linejoin:miter;stroke-width:0.8;"/>
   </g>
   <g id="patch_14">
    <path d="M 284.716507 68.079462 
L 284.716507 22.166376 
" style="fill:none;stroke:#000000;stroke-linecap:square;stroke-linejoin:miter;stroke-width:0.8;"/>
   </g>
   <g id="patch_15">
    <path d="M 219.785598 68.079462 
L 284.716507 68.079462 
" style="fill:none;stroke:#000000;stroke-linecap:square;stroke-linejoin:miter;stroke-width:0.8;"/>
   </g>
   <g id="patch_16">
    <path d="M 219.785598 22.166376 
L 284.716507 22.166376 
" style="fill:none;stroke:#000000;stroke-linecap:square;stroke-linejoin:miter;stroke-width:0.8;"/>
   </g>
   <g id="text_15">
    <!-- (C) -->
    <defs>
     <path d="M 54.703125 11.015625 
C 48 6.5 44.90625 5.1875 36.796875 5.1875 
C 22.796875 5.1875 14.59375 20.375 14.59375 34.234375 
C 14.59375 49.015625 23 63.59375 37.203125 63.59375 
C 43.59375 63.59375 47.796875 61.78125 52.90625 58.5625 
L 54.296875 66.484375 
C 49.5 68.890625 43.40625 70 37.296875 70 
C 18.09375 70 6.203125 52.234375 6.203125 34.234375 
C 6.203125 14.4375 20.296875 -1.203125 36.296875 -1.203125 
C 44.90625 -1.203125 47.90625 -0.5 55.296875 4.1875 
z
" id="CMSS17-67"/>
    </defs>
    <g transform="translate(243.959316 16.166376)scale(0.12 -0.12)">
     <use transform="scale(0.996264)" xlink:href="#CMSS17-40"/>
     <use transform="translate(36.433914 0)scale(0.996264)" xlink:href="#CMSS17-67"/>
     <use transform="translate(96.289686 0)scale(0.996264)" xlink:href="#CMSS17-41"/>
    </g>
   </g>
  </g>
  <g id="axes_4">
   <g id="patch_17">
    <path d="M 317.181961 68.079462 
L 382.11287 68.079462 
L 382.11287 22.166376 
L 317.181961 22.166376 
z
" style="fill:#ffffff;"/>
   </g>
   <g id="matplotlib.axis_7">
    <g id="xtick_10">
     <g id="line2d_16">
      <g>
       <use style="stroke:#000000;stroke-width:0.8;" x="317.181961" xlink:href="#m923058bff1" y="68.079462"/>
      </g>
     </g>
     <g id="text_16">
      <!-- $-5$ -->
      <g transform="translate(310.816922 81.997961)scale(0.1 -0.1)">
       <use transform="scale(0.996264)" xlink:href="#CMSY10-0"/>
       <use transform="translate(77.487468 0)scale(0.996264)" xlink:href="#CMR17-53"/>
      </g>
     </g>
    </g>
    <g id="xtick_11">
     <g id="line2d_17">
      <g>
       <use style="stroke:#000000;stroke-width:0.8;" x="349.647416" xlink:href="#m923058bff1" y="68.079462"/>
      </g>
     </g>
     <g id="text_17">
      <!-- $0$ -->
      <g transform="translate(347.156748 81.997961)scale(0.1 -0.1)">
       <use transform="scale(0.996264)" xlink:href="#CMR17-48"/>
      </g>
     </g>
    </g>
    <g id="xtick_12">
     <g id="line2d_18">
      <g>
       <use style="stroke:#000000;stroke-width:0.8;" x="382.11287" xlink:href="#m923058bff1" y="68.079462"/>
      </g>
     </g>
     <g id="text_18">
      <!-- $5$ -->
      <g transform="translate(379.622203 81.997961)scale(0.1 -0.1)">
       <use transform="scale(0.996264)" xlink:href="#CMR17-53"/>
      </g>
     </g>
    </g>
   </g>
   <g id="matplotlib.axis_8">
    <g id="ytick_4">
     <g id="line2d_19">
      <g>
       <use style="stroke:#000000;stroke-width:0.8;" x="317.181961" xlink:href="#ma8056843f7" y="45.122919"/>
      </g>
     </g>
     <g id="text_19">
      <!-- $0V$ -->
      <g transform="translate(299.389091 48.582168)scale(0.1 -0.1)">
       <use transform="scale(0.996264)" xlink:href="#CMR17-48"/>
       <use transform="translate(45.690477 0)scale(0.996264)" xlink:href="#CMMI12-86"/>
      </g>
     </g>
    </g>
   </g>
   <g id="line2d_20">
    <path clip-path="url(#p94271aa7ea)" d="M 317.181961 22.166376 
L 317.837829 22.630145 
L 318.493697 23.093913 
L 319.149564 23.557682 
L 319.805432 24.02145 
L 320.4613 24.485219 
L 321.117168 24.948987 
L 321.773036 25.412756 
L 322.428903 25.876524 
L 323.084771 26.340293 
L 323.740639 26.804062 
L 324.396507 27.26783 
L 325.052374 27.731599 
L 325.708242 28.195367 
L 326.36411 28.659136 
L 327.019978 29.122904 
L 327.675845 29.586673 
L 328.331713 30.050441 
L 328.987581 30.51421 
L 329.643449 30.977978 
L 330.299317 31.441747 
L 330.955184 31.905516 
L 331.611052 32.369284 
L 332.26692 32.833053 
L 332.922788 33.296821 
L 333.578655 33.76059 
L 334.234523 34.224358 
L 334.890391 34.688127 
L 335.546259 35.151895 
L 336.202126 35.615664 
L 336.857994 36.079432 
L 337.513862 36.543201 
L 338.16973 37.00697 
L 338.825598 37.470738 
L 339.481465 37.934507 
L 340.137333 38.398275 
L 340.793201 38.862044 
L 341.449069 39.325812 
L 342.104936 39.789581 
L 342.760804 40.253349 
L 343.416672 40.717118 
L 344.07254 41.180887 
L 344.728407 41.644655 
L 345.384275 42.108424 
L 346.040143 42.572192 
L 346.696011 43.035961 
L 347.351879 43.499729 
L 348.007746 43.963498 
L 348.663614 44.427266 
L 349.319482 44.891035 
L 349.97535 45.354803 
L 350.631217 45.818572 
L 351.287085 46.282341 
L 351.942953 46.746109 
L 352.598821 47.209878 
L 353.254688 47.673646 
L 353.910556 48.137415 
L 354.566424 48.601183 
L 355.222292 49.064952 
L 355.878159 49.52872 
L 356.534027 49.992489 
L 357.189895 50.456257 
L 357.845763 50.920026 
L 358.501631 51.383795 
L 359.157498 51.847563 
L 359.813366 52.311332 
L 360.469234 52.7751 
L 361.125102 53.238869 
L 361.780969 53.702637 
L 362.436837 54.166406 
L 363.092705 54.630174 
L 363.748573 55.093943 
L 364.40444 55.557711 
L 365.060308 56.02148 
L 365.716176 56.485249 
L 366.372044 56.949017 
L 367.027912 57.412786 
L 367.683779 57.876554 
L 368.339647 58.340323 
L 368.995515 58.804091 
L 369.651383 59.26786 
L 370.30725 59.731628 
L 370.963118 60.195397 
L 371.618986 60.659165 
L 372.274854 61.122934 
L 372.930721 61.586703 
L 373.586589 62.050471 
L 374.242457 62.51424 
L 374.898325 62.978008 
L 375.554193 63.441777 
L 376.21006 63.905545 
L 376.865928 64.369314 
L 377.521796 64.833082 
L 378.177664 65.296851 
L 378.833531 65.760619 
L 379.489399 66.224388 
L 380.145267 66.688157 
L 380.801135 67.151925 
L 381.457002 67.615694 
L 382.11287 68.079462 
" style="fill:none;stroke:#1f77b4;stroke-linecap:square;stroke-width:1.5;"/>
   </g>
   <g id="patch_18">
    <path d="M 317.181961 68.079462 
L 317.181961 22.166376 
" style="fill:none;stroke:#000000;stroke-linecap:square;stroke-linejoin:miter;stroke-width:0.8;"/>
   </g>
   <g id="patch_19">
    <path d="M 382.11287 68.079462 
L 382.11287 22.166376 
" style="fill:none;stroke:#000000;stroke-linecap:square;stroke-linejoin:miter;stroke-width:0.8;"/>
   </g>
   <g id="patch_20">
    <path d="M 317.181961 68.079462 
L 382.11287 68.079462 
" style="fill:none;stroke:#000000;stroke-linecap:square;stroke-linejoin:miter;stroke-width:0.8;"/>
   </g>
   <g id="patch_21">
    <path d="M 317.181961 22.166376 
L 382.11287 22.166376 
" style="fill:none;stroke:#000000;stroke-linecap:square;stroke-linejoin:miter;stroke-width:0.8;"/>
   </g>
   <g id="text_20">
    <!-- (D) -->
    <defs>
     <path d="M 8.90625 69 
L 8.90625 0 
L 33.5 0 
C 49.90625 0 62.5 15.328125 62.5 33.890625 
C 62.5 53.0625 49.90625 69 33.5 69 
z
M 17.09375 5.59375 
L 17.09375 63.390625 
L 31.296875 63.390625 
C 44.703125 63.390625 54.296875 51.171875 54.296875 33.890625 
C 54.296875 17.3125 44.796875 5.59375 31.296875 5.59375 
z
" id="CMSS17-68"/>
    </defs>
    <g transform="translate(340.885238 16.166376)scale(0.12 -0.12)">
     <use transform="scale(0.996264)" xlink:href="#CMSS17-40"/>
     <use transform="translate(36.433914 0)scale(0.996264)" xlink:href="#CMSS17-68"/>
     <use transform="translate(103.976756 0)scale(0.996264)" xlink:href="#CMSS17-41"/>
    </g>
   </g>
  </g>
 </g>
 <defs>
  <clipPath id="p18691ed3dc">
   <rect height="45.913086" width="64.930909" x="24.99287" y="22.166376"/>
  </clipPath>
  <clipPath id="p2f3405416f">
   <rect height="45.913086" width="64.930909" x="122.389234" y="22.166376"/>
  </clipPath>
  <clipPath id="p12d0a35059">
   <rect height="45.913086" width="64.930909" x="219.785598" y="22.166376"/>
  </clipPath>
  <clipPath id="p94271aa7ea">
   <rect height="45.913086" width="64.930909" x="317.181961" y="22.166376"/>
  </clipPath>
 </defs>
</svg>
