<?xml version="1.0" encoding="UTF-8" standalone="no"?>
<!-- Created with Inkscape (http://www.inkscape.org/) -->

<svg
   width="101.79476mm"
   height="64.866577mm"
   viewBox="0 0 101.79476 64.866577"
   version="1.1"
   id="svg5"
   xml:space="preserve"
   sodipodi:docname="sketching-potential-two-charges.svg"
   inkscape:version="1.2 (1:1.2.1+202207142221+cd75a1ee6d)"
   xmlns:inkscape="http://www.inkscape.org/namespaces/inkscape"
   xmlns:sodipodi="http://sodipodi.sourceforge.net/DTD/sodipodi-0.dtd"
   xmlns="http://www.w3.org/2000/svg"
   xmlns:svg="http://www.w3.org/2000/svg"
   xmlns:ns2="http://www.iki.fi/pav/software/textext/"><sodipodi:namedview
     id="namedview7"
     pagecolor="#ffffff"
     bordercolor="#666666"
     borderopacity="1.0"
     inkscape:showpageshadow="2"
     inkscape:pageopacity="0.0"
     inkscape:pagecheckerboard="0"
     inkscape:deskcolor="#d1d1d1"
     inkscape:document-units="mm"
     showgrid="false"
     inkscape:zoom="1.6819304"
     inkscape:cx="229.79548"
     inkscape:cy="95.426064"
     inkscape:window-width="1920"
     inkscape:window-height="1035"
     inkscape:window-x="1920"
     inkscape:window-y="20"
     inkscape:window-maximized="1"
     inkscape:current-layer="layer1" /><defs
     id="defs2"><marker
       style="overflow:visible"
       id="Arrow5"
       refX="0"
       refY="0"
       orient="auto-start-reverse"
       inkscape:stockid="Arrow5"
       markerWidth="5.8874264"
       markerHeight="6.6094756"
       viewBox="0 0 5.8874262 6.6094758"
       inkscape:isstock="true"
       inkscape:collect="always"
       preserveAspectRatio="xMidYMid"><path
         transform="scale(0.5)"
         style="fill:context-stroke;fill-rule:evenodd;stroke:context-stroke;stroke-width:1pt"
         d="m 6,0 c -3,1 -7,3 -9,5 0,0 0,-4 2,-5 -2,-1 -2,-5 -2,-5 2,2 6,4 9,5 z"
         id="path8893" /></marker><inkscape:perspective
       sodipodi:type="inkscape:persp3d"
       inkscape:vp_x="0 : -83.633429 : 1"
       inkscape:vp_y="0 : 1000 : 0"
       inkscape:vp_z="210 : -83.633429 : 1"
       inkscape:persp3d-origin="105 : -133.13343 : 1"
       id="perspective1149" /></defs><g
     inkscape:label="Layer 1"
     inkscape:groupmode="layer"
     id="layer1"
     transform="translate(-38.326804,-65.372309)"><g
       id="g3034"><path
         style="fill:none;stroke:#000000;stroke-width:0.264583px;stroke-linecap:butt;stroke-linejoin:miter;stroke-opacity:1;marker-end:url(#Arrow5)"
         d="M 47.99789,112.62261 H 133.963"
         id="path365"
         sodipodi:nodetypes="cc" /><path
         style="fill:none;stroke:#000000;stroke-width:0.264583px;stroke-linecap:butt;stroke-linejoin:miter;stroke-dasharray:1.05833, 0.264583;stroke-dashoffset:0;stroke-opacity:1"
         d="M 74.813419,67.725197 V 115.89701"
         id="path369" /><path
         style="fill:none;stroke:#000000;stroke-width:0.264583px;stroke-linecap:butt;stroke-linejoin:miter;stroke-dasharray:1.05833, 0.264583;stroke-dashoffset:0;stroke-opacity:1"
         d="M 106.56342,67.725197 V 115.89701"
         id="path375" /><path
         style="fill:none;stroke:#0faa7d;stroke-width:0.865;stroke-linecap:round;stroke-linejoin:miter;stroke-dasharray:none;stroke-opacity:1"
         d="m 50.007638,110.89259 c 9.961888,-0.77582 23.523221,-8.41253 24.064605,-40.651642 m 1.320448,-0.07922 c 4.043391,39.357102 27.733909,38.791222 30.613989,0.144916 m 1.16358,-0.01052 c 1.51113,22.895889 12.17478,42.574556 24.78299,40.791186"
         id="path439"
         sodipodi:nodetypes="cccccc" /><path
         style="fill:none;stroke:#000000;stroke-width:0.264583px;stroke-linecap:butt;stroke-linejoin:miter;stroke-opacity:1;marker-end:url(#Arrow5)"
         d="M 47.99789,123.73512 H 133.963"
         id="path2096"
         sodipodi:nodetypes="cc" /><g
         id="g2348"
         transform="translate(-22.393902,-3.2923694)"><circle
           style="fill:#ffffff;stroke:#000000;stroke-width:0.365;stroke-linecap:round;stroke-dasharray:none;stroke-dashoffset:0;stroke-opacity:1"
           id="path2223"
           cx="97.207321"
           cy="127.0275"
           r="3.9683735" /><g
           transform="matrix(0.529167,0,0,0.529167,95.083609,125.34918)"
           ns2:version="1.8.2"
           ns2:texconverter="pdflatex"
           ns2:pdfconverter="inkscape"
           ns2:text="$q_a$"
           ns2:preamble="/home/mpnerem/.config/inkscape/extensions/textext/default_packages.tex"
           ns2:scale="1.5"
           ns2:alignment="middle center"
           ns2:stroke-to-path="0"
           ns2:jacobian_sqrt="0.529167"
           id="g2141"><defs
   id="id-51674f57-13b3-4350-a01b-6b3ac66d488e">
    <g
   id="id-304f27a9-e314-4fd7-b57b-a803f98e67d0">
      <symbol
   overflow="visible"
   id="id-8fa96c1f-08a1-44ab-bf44-c5d80a15fb81">
        <path
   style="stroke:none;stroke-width:0"
   d=""
   id="id-8cbfdc23-6b7b-4a9d-abaf-0249396fa6e0" />
      </symbol>
      <symbol
   overflow="visible"
   id="id-910cd52c-ffcb-4345-a088-f9e77e3bd747">
        <path
   style="stroke:none;stroke-width:0"
   d="m 4.5,-4.296875 c 0,-0.046875 -0.03125,-0.09375 -0.09375,-0.09375 -0.109375,0 -0.515625,0.390625 -0.671875,0.6875 C 3.515625,-4.25 3.125,-4.40625 2.796875,-4.40625 c -1.171875,0 -2.390625,1.46875 -2.390625,2.921875 0,0.96875 0.578125,1.59375 1.3125,1.59375 0.421875,0 0.8125,-0.234375 1.171875,-0.59375 -0.09375,0.34375 -0.421875,1.6875 -0.453125,1.78125 -0.078125,0.28125 -0.15625,0.3125 -0.71875,0.328125 -0.125,0 -0.21875,0 -0.21875,0.203125 0,0 0,0.109375 0.125,0.109375 0.3125,0 0.671875,-0.03125 1,-0.03125 0.328125,0 0.6875,0.03125 1.03125,0.03125 0.046875,0 0.171875,0 0.171875,-0.203125 C 3.828125,1.625 3.734375,1.625 3.5625,1.625 3.09375,1.625 3.09375,1.5625 3.09375,1.46875 3.09375,1.390625 3.109375,1.328125 3.125,1.25 Z m -2.75,4.1875 c -0.609375,0 -0.640625,-0.765625 -0.640625,-0.9375 0,-0.484375 0.28125,-1.5625 0.453125,-1.984375 0.3125,-0.734375 0.828125,-1.15625 1.234375,-1.15625 0.65625,0 0.796875,0.8125 0.796875,0.875 0,0.0625 -0.546875,2.25 -0.578125,2.28125 C 2.859375,-0.75 2.296875,-0.109375 1.75,-0.109375 Z m 0,0"
   id="id-026f0f3a-4150-4c7b-9340-5455586a2ca2" />
      </symbol>
      <symbol
   overflow="visible"
   id="id-cb9fc423-bea7-45a2-a615-d7772ba1e619">
        <path
   style="stroke:none;stroke-width:0"
   d=""
   id="id-4d64df45-5c4c-4e6a-b398-9a448a20f64d" />
      </symbol>
      <symbol
   overflow="visible"
   id="id-2ce8c8ac-e37a-4666-9dd4-1acfc61720a1">
        <path
   style="stroke:none;stroke-width:0"
   d="m 2.9375,-2.65625 c -0.140625,-0.234375 -0.375,-0.421875 -0.71875,-0.421875 -0.890625,0 -1.796875,0.984375 -1.796875,1.984375 0,0.6875 0.453125,1.15625 1.0625,1.15625 0.375,0 0.703125,-0.203125 0.984375,-0.484375 C 2.59375,0 3,0.0625 3.1875,0.0625 c 0.25,0 0.421875,-0.140625 0.546875,-0.359375 0.15625,-0.28125 0.25,-0.671875 0.25,-0.703125 0,-0.09375 -0.09375,-0.09375 -0.109375,-0.09375 -0.109375,0 -0.109375,0.03125 -0.15625,0.21875 C 3.625,-0.53125 3.5,-0.125 3.203125,-0.125 3.03125,-0.125 2.96875,-0.28125 2.96875,-0.46875 c 0,-0.109375 0.0625,-0.375 0.109375,-0.546875 0.046875,-0.1875 0.125,-0.46875 0.15625,-0.625 L 3.375,-2.171875 C 3.421875,-2.359375 3.5,-2.6875 3.5,-2.71875 3.5,-2.875 3.375,-2.9375 3.265625,-2.9375 c -0.125,0 -0.28125,0.078125 -0.328125,0.28125 z M 2.5,-0.875 C 2.453125,-0.671875 2.296875,-0.53125 2.140625,-0.40625 2.078125,-0.34375 1.796875,-0.125 1.5,-0.125 c -0.265625,0 -0.515625,-0.1875 -0.515625,-0.671875 0,-0.375 0.203125,-1.140625 0.375,-1.421875 0.3125,-0.5625 0.671875,-0.65625 0.859375,-0.65625 0.484375,0 0.625,0.53125 0.625,0.609375 0,0.015625 -0.015625,0.078125 -0.015625,0.09375 z m 0,0"
   id="id-66f716f3-c2c2-44c8-940d-c8b164309cdb" />
      </symbol>
    </g>
  </defs>
  <g
   id="id-61ea142a-537c-48cd-b954-842f7ad02b9e"
   transform="translate(-149.118,-130.359)">
    <g
   style="fill:#000000;fill-opacity:1"
   id="id-4970577f-d3b2-4915-8c52-50b13644eef4">
      <g
   transform="translate(148.712,134.765)"
   id="g2133"><path
   style="stroke:none;stroke-width:0"
   d="m 4.5,-4.296875 c 0,-0.046875 -0.03125,-0.09375 -0.09375,-0.09375 -0.109375,0 -0.515625,0.390625 -0.671875,0.6875 C 3.515625,-4.25 3.125,-4.40625 2.796875,-4.40625 c -1.171875,0 -2.390625,1.46875 -2.390625,2.921875 0,0.96875 0.578125,1.59375 1.3125,1.59375 0.421875,0 0.8125,-0.234375 1.171875,-0.59375 -0.09375,0.34375 -0.421875,1.6875 -0.453125,1.78125 -0.078125,0.28125 -0.15625,0.3125 -0.71875,0.328125 -0.125,0 -0.21875,0 -0.21875,0.203125 0,0 0,0.109375 0.125,0.109375 0.3125,0 0.671875,-0.03125 1,-0.03125 0.328125,0 0.6875,0.03125 1.03125,0.03125 0.046875,0 0.171875,0 0.171875,-0.203125 C 3.828125,1.625 3.734375,1.625 3.5625,1.625 3.09375,1.625 3.09375,1.5625 3.09375,1.46875 3.09375,1.390625 3.109375,1.328125 3.125,1.25 Z m -2.75,4.1875 c -0.609375,0 -0.640625,-0.765625 -0.640625,-0.9375 0,-0.484375 0.28125,-1.5625 0.453125,-1.984375 0.3125,-0.734375 0.828125,-1.15625 1.234375,-1.15625 0.65625,0 0.796875,0.8125 0.796875,0.875 0,0.0625 -0.546875,2.25 -0.578125,2.28125 C 2.859375,-0.75 2.296875,-0.109375 1.75,-0.109375 Z m 0,0"
   id="id-6be3fc3e-110e-4650-8294-be595711593d" />
      </g></g>
    <g
   style="fill:#000000;fill-opacity:1"
   id="id-b7ee8d03-148a-4db5-ac43-7b336326062f">
      <g
   transform="translate(153.16,136.259)"
   id="g2137"><path
   style="stroke:none;stroke-width:0"
   d="m 2.9375,-2.65625 c -0.140625,-0.234375 -0.375,-0.421875 -0.71875,-0.421875 -0.890625,0 -1.796875,0.984375 -1.796875,1.984375 0,0.6875 0.453125,1.15625 1.0625,1.15625 0.375,0 0.703125,-0.203125 0.984375,-0.484375 C 2.59375,0 3,0.0625 3.1875,0.0625 c 0.25,0 0.421875,-0.140625 0.546875,-0.359375 0.15625,-0.28125 0.25,-0.671875 0.25,-0.703125 0,-0.09375 -0.09375,-0.09375 -0.109375,-0.09375 -0.109375,0 -0.109375,0.03125 -0.15625,0.21875 C 3.625,-0.53125 3.5,-0.125 3.203125,-0.125 3.03125,-0.125 2.96875,-0.28125 2.96875,-0.46875 c 0,-0.109375 0.0625,-0.375 0.109375,-0.546875 0.046875,-0.1875 0.125,-0.46875 0.15625,-0.625 L 3.375,-2.171875 C 3.421875,-2.359375 3.5,-2.6875 3.5,-2.71875 3.5,-2.875 3.375,-2.9375 3.265625,-2.9375 c -0.125,0 -0.28125,0.078125 -0.328125,0.28125 z M 2.5,-0.875 C 2.453125,-0.671875 2.296875,-0.53125 2.140625,-0.40625 2.078125,-0.34375 1.796875,-0.125 1.5,-0.125 c -0.265625,0 -0.515625,-0.1875 -0.515625,-0.671875 0,-0.375 0.203125,-1.140625 0.375,-1.421875 0.3125,-0.5625 0.671875,-0.65625 0.859375,-0.65625 0.484375,0 0.625,0.53125 0.625,0.609375 0,0.015625 -0.015625,0.078125 -0.015625,0.09375 z m 0,0"
   id="id-fef9fe41-90c0-4f06-98fe-d0846282a493" />
      </g></g>
  </g>
</g></g><circle
         style="fill:#ffffff;stroke:#000000;stroke-width:0.365;stroke-linecap:round;stroke-dasharray:none;stroke-dashoffset:0;stroke-opacity:1"
         id="circle2350"
         cx="106.56342"
         cy="123.73513"
         r="3.9683735" /><g
         transform="matrix(0.529167,0,0,0.529167,104.626,122.05716)"
         ns2:version="1.8.2"
         ns2:texconverter="pdflatex"
         ns2:pdfconverter="inkscape"
         ns2:text="$q_b$"
         ns2:preamble="/home/mpnerem/.config/inkscape/extensions/textext/default_packages.tex"
         ns2:scale="1.5"
         ns2:alignment="middle center"
         ns2:stroke-to-path="0"
         ns2:jacobian_sqrt="0.529167"
         id="g2386"><defs
   id="id-f3593e8d-9807-4b50-8d88-903c7e4a3345">
    <g
   id="id-8d888102-6db2-42d7-946d-db397452e405">
      <symbol
   overflow="visible"
   id="id-239d8c91-0384-464a-b13d-c5c01c274eda">
        <path
   style="stroke:none"
   d=""
   id="id-598c59aa-0dee-416d-80f8-1ef5d9cd9935" />
      </symbol>
      <symbol
   overflow="visible"
   id="id-d807727f-21f1-409c-9926-4e4115d4dfb6">
        <path
   style="stroke:none"
   d="m 4.5,-4.296875 c 0,-0.046875 -0.03125,-0.09375 -0.09375,-0.09375 -0.109375,0 -0.515625,0.390625 -0.671875,0.6875 C 3.515625,-4.25 3.125,-4.40625 2.796875,-4.40625 c -1.171875,0 -2.390625,1.46875 -2.390625,2.921875 0,0.96875 0.578125,1.59375 1.3125,1.59375 0.421875,0 0.8125,-0.234375 1.171875,-0.59375 -0.09375,0.34375 -0.421875,1.6875 -0.453125,1.78125 -0.078125,0.28125 -0.15625,0.3125 -0.71875,0.328125 -0.125,0 -0.21875,0 -0.21875,0.203125 0,0 0,0.109375 0.125,0.109375 0.3125,0 0.671875,-0.03125 1,-0.03125 0.328125,0 0.6875,0.03125 1.03125,0.03125 0.046875,0 0.171875,0 0.171875,-0.203125 C 3.828125,1.625 3.734375,1.625 3.5625,1.625 3.09375,1.625 3.09375,1.5625 3.09375,1.46875 3.09375,1.390625 3.109375,1.328125 3.125,1.25 Z m -2.75,4.1875 c -0.609375,0 -0.640625,-0.765625 -0.640625,-0.9375 0,-0.484375 0.28125,-1.5625 0.453125,-1.984375 0.3125,-0.734375 0.828125,-1.15625 1.234375,-1.15625 0.65625,0 0.796875,0.8125 0.796875,0.875 0,0.0625 -0.546875,2.25 -0.578125,2.28125 C 2.859375,-0.75 2.296875,-0.109375 1.75,-0.109375 Z m 0,0"
   id="id-b55bd0a0-98dd-452d-b6b2-ad574c97eb34" />
      </symbol>
      <symbol
   overflow="visible"
   id="id-81056668-94e8-440a-9aa0-a913f77fbacc">
        <path
   style="stroke:none"
   d=""
   id="id-6b16191c-4a44-4f6a-b514-149bfb4ecedd" />
      </symbol>
      <symbol
   overflow="visible"
   id="id-6b6a9dd8-a8ed-46b2-8f42-17fce046ef4d">
        <path
   style="stroke:none"
   d="m 1.84375,-4.625 c 0,-0.015625 0.03125,-0.109375 0.03125,-0.109375 0,-0.046875 -0.03125,-0.109375 -0.125,-0.109375 -0.140625,0 -0.71875,0.0625 -0.890625,0.078125 -0.046875,0 -0.15625,0.015625 -0.15625,0.15625 0,0.09375 0.109375,0.09375 0.1875,0.09375 0.328125,0 0.328125,0.0625 0.328125,0.109375 0,0.046875 -0.0625,0.328125 -0.109375,0.484375 l -0.15625,0.640625 c -0.0625,0.25 -0.4375,1.765625 -0.453125,1.859375 -0.046875,0.171875 -0.046875,0.265625 -0.046875,0.34375 0,0.703125 0.453125,1.140625 1.03125,1.140625 0.875,0 1.796875,-0.9375 1.796875,-1.96875 0,-0.8125 -0.5625,-1.171875 -1.046875,-1.171875 -0.359375,0 -0.671875,0.203125 -0.875,0.390625 z m -0.359375,4.5 c -0.328125,0 -0.53125,-0.296875 -0.53125,-0.71875 0,-0.25 0.0625,-0.484375 0.265625,-1.28125 C 1.25,-2.25 1.25,-2.265625 1.390625,-2.421875 1.65625,-2.71875 1.96875,-2.875 2.21875,-2.875 c 0.265625,0 0.5,0.203125 0.5,0.671875 0,0.28125 -0.140625,1 -0.359375,1.40625 C 2.1875,-0.453125 1.84375,-0.125 1.484375,-0.125 Z m 0,0"
   id="id-40032863-db4f-4991-8593-4d31feaadefb" />
      </symbol>
    </g>
  </defs>
  <g
   id="id-17a57d88-8099-4ae6-b7f6-8c1e013c1871"
   transform="translate(-149.118,-130.359)">
    <g
   style="fill:#000000;fill-opacity:1"
   id="id-2d65f737-ab4d-4826-ac75-644c21eec1e8">
      <g
   transform="translate(148.712,134.765)"
   id="g2502"><path
   style="stroke:none"
   d="m 4.5,-4.296875 c 0,-0.046875 -0.03125,-0.09375 -0.09375,-0.09375 -0.109375,0 -0.515625,0.390625 -0.671875,0.6875 C 3.515625,-4.25 3.125,-4.40625 2.796875,-4.40625 c -1.171875,0 -2.390625,1.46875 -2.390625,2.921875 0,0.96875 0.578125,1.59375 1.3125,1.59375 0.421875,0 0.8125,-0.234375 1.171875,-0.59375 -0.09375,0.34375 -0.421875,1.6875 -0.453125,1.78125 -0.078125,0.28125 -0.15625,0.3125 -0.71875,0.328125 -0.125,0 -0.21875,0 -0.21875,0.203125 0,0 0,0.109375 0.125,0.109375 0.3125,0 0.671875,-0.03125 1,-0.03125 0.328125,0 0.6875,0.03125 1.03125,0.03125 0.046875,0 0.171875,0 0.171875,-0.203125 C 3.828125,1.625 3.734375,1.625 3.5625,1.625 3.09375,1.625 3.09375,1.5625 3.09375,1.46875 3.09375,1.390625 3.109375,1.328125 3.125,1.25 Z m -2.75,4.1875 c -0.609375,0 -0.640625,-0.765625 -0.640625,-0.9375 0,-0.484375 0.28125,-1.5625 0.453125,-1.984375 0.3125,-0.734375 0.828125,-1.15625 1.234375,-1.15625 0.65625,0 0.796875,0.8125 0.796875,0.875 0,0.0625 -0.546875,2.25 -0.578125,2.28125 C 2.859375,-0.75 2.296875,-0.109375 1.75,-0.109375 Z m 0,0"
   id="id-914479fa-cebd-4e3c-a3aa-d8fe8f4bfb94" />
      </g></g>
    <g
   style="fill:#000000;fill-opacity:1"
   id="id-63131d29-c573-48fc-a0de-fb5521937648">
      <g
   transform="translate(153.16,136.259)"
   id="g2506"><path
   style="stroke:none"
   d="m 1.84375,-4.625 c 0,-0.015625 0.03125,-0.109375 0.03125,-0.109375 0,-0.046875 -0.03125,-0.109375 -0.125,-0.109375 -0.140625,0 -0.71875,0.0625 -0.890625,0.078125 -0.046875,0 -0.15625,0.015625 -0.15625,0.15625 0,0.09375 0.109375,0.09375 0.1875,0.09375 0.328125,0 0.328125,0.0625 0.328125,0.109375 0,0.046875 -0.0625,0.328125 -0.109375,0.484375 l -0.15625,0.640625 c -0.0625,0.25 -0.4375,1.765625 -0.453125,1.859375 -0.046875,0.171875 -0.046875,0.265625 -0.046875,0.34375 0,0.703125 0.453125,1.140625 1.03125,1.140625 0.875,0 1.796875,-0.9375 1.796875,-1.96875 0,-0.8125 -0.5625,-1.171875 -1.046875,-1.171875 -0.359375,0 -0.671875,0.203125 -0.875,0.390625 z m -0.359375,4.5 c -0.328125,0 -0.53125,-0.296875 -0.53125,-0.71875 0,-0.25 0.0625,-0.484375 0.265625,-1.28125 C 1.25,-2.25 1.25,-2.265625 1.390625,-2.421875 1.65625,-2.71875 1.96875,-2.875 2.21875,-2.875 c 0.265625,0 0.5,0.203125 0.5,0.671875 0,0.28125 -0.140625,1 -0.359375,1.40625 C 2.1875,-0.453125 1.84375,-0.125 1.484375,-0.125 Z m 0,0"
   id="id-8da78029-b73b-4f33-a946-9b1c65426c7c" />
      </g></g>
  </g>
</g><path
         style="fill:none;stroke:#000000;stroke-width:0.264583px;stroke-linecap:butt;stroke-linejoin:miter;stroke-opacity:1;marker-end:url(#Arrow5)"
         d="M 49.116372,116.02948 V 68.797841"
         id="path2537"
         sodipodi:nodetypes="cc" /><g
         transform="matrix(0.529167,0,0,0.529167,43.412991,71.487108)"
         ns2:version="1.8.2"
         ns2:texconverter="pdflatex"
         ns2:pdfconverter="inkscape"
         ns2:text="$V$"
         ns2:preamble="/home/mpnerem/.config/inkscape/extensions/textext/default_packages.tex"
         ns2:scale="1.5"
         ns2:alignment="middle center"
         ns2:stroke-to-path="0"
         ns2:jacobian_sqrt="0.529167"
         id="g2652"><defs
   id="id-35cf6896-5b8c-440b-8334-e61bf9fe6437">
    <g
   id="id-b288613b-1d0c-415d-a101-a976ad69cf3c">
      <symbol
   overflow="visible"
   id="id-5e5d5de3-0180-46a0-b456-0aef4d84966e">
        <path
   style="stroke:none;stroke-width:0"
   d=""
   id="id-2b9569d1-45d4-4d92-9a54-eff3bface2d4" />
      </symbol>
      <symbol
   overflow="visible"
   id="id-0f6cedab-0e47-4909-b79d-3b696a7f19b8">
        <path
   style="stroke:none;stroke-width:0"
   d="M 6.265625,-5.671875 C 6.75,-6.453125 7.171875,-6.484375 7.53125,-6.5 c 0.125,-0.015625 0.140625,-0.171875 0.140625,-0.1875 0,-0.078125 -0.0625,-0.125 -0.140625,-0.125 -0.25,0 -0.546875,0.03125 -0.8125,0.03125 -0.328125,0 -0.671875,-0.03125 -0.984375,-0.03125 -0.0625,0 -0.1875,0 -0.1875,0.1875 0,0.109375 0.078125,0.125 0.15625,0.125 0.265625,0.015625 0.453125,0.125 0.453125,0.328125 0,0.15625 -0.140625,0.375 -0.140625,0.375 l -3.0625,4.875 -0.6875,-5.28125 C 2.265625,-6.375 2.5,-6.5 2.953125,-6.5 c 0.140625,0 0.25,0 0.25,-0.203125 0,-0.078125 -0.078125,-0.109375 -0.125,-0.109375 -0.40625,0 -0.828125,0.03125 -1.25,0.03125 -0.171875,0 -0.359375,0 -0.546875,0 -0.171875,0 -0.359375,-0.03125 -0.53125,-0.03125 -0.078125,0 -0.1875,0 -0.1875,0.1875 0,0.125 0.078125,0.125 0.25,0.125 0.546875,0 0.5625,0.09375 0.59375,0.34375 L 2.1875,-0.015625 C 2.21875,0.1875 2.265625,0.21875 2.390625,0.21875 c 0.15625,0 0.203125,-0.046875 0.28125,-0.171875 z m 0,0"
   id="id-c57a4a28-3a22-4e01-ab6a-b7021d38efd8" />
      </symbol>
    </g>
  </defs>
  <g
   id="id-8a775324-4657-4fa1-a660-fb03dd35c81a"
   transform="translate(-149.275,-127.953)">
    <g
   style="fill:#000000;fill-opacity:1"
   id="id-5097b9c0-66a7-4ef1-ac5f-af27e63d36ae">
      <g
   transform="translate(148.712,134.765)"
   id="g2648"><path
   style="stroke:none;stroke-width:0"
   d="M 6.265625,-5.671875 C 6.75,-6.453125 7.171875,-6.484375 7.53125,-6.5 c 0.125,-0.015625 0.140625,-0.171875 0.140625,-0.1875 0,-0.078125 -0.0625,-0.125 -0.140625,-0.125 -0.25,0 -0.546875,0.03125 -0.8125,0.03125 -0.328125,0 -0.671875,-0.03125 -0.984375,-0.03125 -0.0625,0 -0.1875,0 -0.1875,0.1875 0,0.109375 0.078125,0.125 0.15625,0.125 0.265625,0.015625 0.453125,0.125 0.453125,0.328125 0,0.15625 -0.140625,0.375 -0.140625,0.375 l -3.0625,4.875 -0.6875,-5.28125 C 2.265625,-6.375 2.5,-6.5 2.953125,-6.5 c 0.140625,0 0.25,0 0.25,-0.203125 0,-0.078125 -0.078125,-0.109375 -0.125,-0.109375 -0.40625,0 -0.828125,0.03125 -1.25,0.03125 -0.171875,0 -0.359375,0 -0.546875,0 -0.171875,0 -0.359375,-0.03125 -0.53125,-0.03125 -0.078125,0 -0.1875,0 -0.1875,0.1875 0,0.125 0.078125,0.125 0.25,0.125 0.546875,0 0.5625,0.09375 0.59375,0.34375 L 2.1875,-0.015625 C 2.21875,0.1875 2.265625,0.21875 2.390625,0.21875 c 0.15625,0 0.203125,-0.046875 0.28125,-0.171875 z m 0,0"
   id="id-4cea10cd-328b-41c5-a94b-5bd27cc0aef8" />
      </g></g>
  </g>
</g><g
         transform="matrix(0.529167,0,0,0.529167,130.02378,115.94543)"
         ns2:version="1.8.2"
         ns2:texconverter="pdflatex"
         ns2:pdfconverter="inkscape"
         ns2:text="$x$"
         ns2:preamble="/home/mpnerem/.config/inkscape/extensions/textext/default_packages.tex"
         ns2:scale="1.5"
         ns2:alignment="middle center"
         ns2:stroke-to-path="0"
         ns2:jacobian_sqrt="0.529167"
         id="g2693"><defs
   id="id-58d2bdf3-10c1-4320-934b-76e9e9b899b6">
    <g
   id="id-a914ee4c-d86b-4e18-a558-5a64aabd802e">
      <symbol
   overflow="visible"
   id="id-d626273c-0fd6-470a-bde1-70725e184032">
        <path
   style="stroke:none"
   d=""
   id="id-45c4071f-9a41-4ea2-a631-c7a036735938" />
      </symbol>
      <symbol
   overflow="visible"
   id="id-2a8cfe96-cd3e-4f32-b3d7-857b6d7628ff">
        <path
   style="stroke:none"
   d="M 3.328125,-3.015625 C 3.390625,-3.265625 3.625,-4.1875 4.3125,-4.1875 c 0.046875,0 0.296875,0 0.5,0.125 C 4.53125,-4 4.34375,-3.765625 4.34375,-3.515625 c 0,0.15625 0.109375,0.34375 0.375,0.34375 0.21875,0 0.53125,-0.171875 0.53125,-0.578125 0,-0.515625 -0.578125,-0.65625 -0.921875,-0.65625 -0.578125,0 -0.921875,0.53125 -1.046875,0.75 -0.25,-0.65625 -0.78125,-0.75 -1.078125,-0.75 -1.03125,0 -1.609375,1.28125 -1.609375,1.53125 0,0.109375 0.109375,0.109375 0.125,0.109375 0.078125,0 0.109375,-0.03125 0.125,-0.109375 0.34375,-1.0625 1,-1.3125 1.34375,-1.3125 0.1875,0 0.53125,0.09375 0.53125,0.671875 0,0.3125 -0.171875,0.96875 -0.53125,2.375 -0.15625,0.609375 -0.515625,1.03125 -0.953125,1.03125 -0.0625,0 -0.28125,0 -0.5,-0.125 0.25,-0.0625 0.46875,-0.265625 0.46875,-0.546875 0,-0.265625 -0.21875,-0.34375 -0.359375,-0.34375 -0.3125,0 -0.546875,0.25 -0.546875,0.578125 0,0.453125 0.484375,0.65625 0.921875,0.65625 0.671875,0 1.03125,-0.703125 1.046875,-0.75 0.125,0.359375 0.484375,0.75 1.078125,0.75 1.03125,0 1.59375,-1.28125 1.59375,-1.53125 0,-0.109375 -0.078125,-0.109375 -0.109375,-0.109375 -0.09375,0 -0.109375,0.046875 -0.140625,0.109375 -0.328125,1.078125 -1,1.3125 -1.3125,1.3125 -0.390625,0 -0.546875,-0.3125 -0.546875,-0.65625 0,-0.21875 0.046875,-0.4375 0.15625,-0.875 z m 0,0"
   id="id-e892cd74-cc4e-4bd4-8a06-fd92e3b175d9" />
      </symbol>
    </g>
  </defs>
  <g
   id="id-dee928de-2480-4a61-bc1c-ecf31f92e1d5"
   transform="translate(-149.009,-130.359)">
    <g
   style="fill:#000000;fill-opacity:1"
   id="id-369fc15f-13fc-4eb3-a7cd-ce2b7ef0b18d">
      <g
   transform="translate(148.712,134.765)"
   id="g2837"><path
   style="stroke:none"
   d="M 3.328125,-3.015625 C 3.390625,-3.265625 3.625,-4.1875 4.3125,-4.1875 c 0.046875,0 0.296875,0 0.5,0.125 C 4.53125,-4 4.34375,-3.765625 4.34375,-3.515625 c 0,0.15625 0.109375,0.34375 0.375,0.34375 0.21875,0 0.53125,-0.171875 0.53125,-0.578125 0,-0.515625 -0.578125,-0.65625 -0.921875,-0.65625 -0.578125,0 -0.921875,0.53125 -1.046875,0.75 -0.25,-0.65625 -0.78125,-0.75 -1.078125,-0.75 -1.03125,0 -1.609375,1.28125 -1.609375,1.53125 0,0.109375 0.109375,0.109375 0.125,0.109375 0.078125,0 0.109375,-0.03125 0.125,-0.109375 0.34375,-1.0625 1,-1.3125 1.34375,-1.3125 0.1875,0 0.53125,0.09375 0.53125,0.671875 0,0.3125 -0.171875,0.96875 -0.53125,2.375 -0.15625,0.609375 -0.515625,1.03125 -0.953125,1.03125 -0.0625,0 -0.28125,0 -0.5,-0.125 0.25,-0.0625 0.46875,-0.265625 0.46875,-0.546875 0,-0.265625 -0.21875,-0.34375 -0.359375,-0.34375 -0.3125,0 -0.546875,0.25 -0.546875,0.578125 0,0.453125 0.484375,0.65625 0.921875,0.65625 0.671875,0 1.03125,-0.703125 1.046875,-0.75 0.125,0.359375 0.484375,0.75 1.078125,0.75 1.03125,0 1.59375,-1.28125 1.59375,-1.53125 0,-0.109375 -0.078125,-0.109375 -0.109375,-0.109375 -0.09375,0 -0.109375,0.046875 -0.140625,0.109375 -0.328125,1.078125 -1,1.3125 -1.3125,1.3125 -0.390625,0 -0.546875,-0.3125 -0.546875,-0.65625 0,-0.21875 0.046875,-0.4375 0.15625,-0.875 z m 0,0"
   id="id-3a3c2727-0ca7-47ed-8998-44388c87a0cd" />
      </g></g>
  </g>
</g></g></g></svg>
