<?xml version="1.0" encoding="UTF-8" standalone="no"?>
<!-- Created with Inkscape (http://www.inkscape.org/) -->

<svg
   width="194.27837mm"
   height="60.233688mm"
   viewBox="0 0 194.27837 60.233688"
   version="1.1"
   id="svg5"
   inkscape:version="1.2.1 (1:1.2.1+202210291244+9c6d41e410)"
   sodipodi:docname="particle-I-calculations.svg"
   xmlns:inkscape="http://www.inkscape.org/namespaces/inkscape"
   xmlns:sodipodi="http://sodipodi.sourceforge.net/DTD/sodipodi-0.dtd"
   xmlns="http://www.w3.org/2000/svg"
   xmlns:svg="http://www.w3.org/2000/svg"
   xmlns:ns1="http://www.iki.fi/pav/software/textext/">
  <sodipodi:namedview
     id="namedview7"
     pagecolor="#ffffff"
     bordercolor="#666666"
     borderopacity="1.0"
     inkscape:showpageshadow="2"
     inkscape:pageopacity="0.0"
     inkscape:pagecheckerboard="0"
     inkscape:deskcolor="#d1d1d1"
     inkscape:document-units="mm"
     showgrid="false"
     inkscape:zoom="0.8409652"
     inkscape:cx="206.31056"
     inkscape:cy="240.79474"
     inkscape:window-width="1920"
     inkscape:window-height="1035"
     inkscape:window-x="1920"
     inkscape:window-y="20"
     inkscape:window-maximized="1"
     inkscape:current-layer="layer1" />
  <defs
     id="defs2">
    <marker
       style="overflow:visible"
       id="Arrow1L"
       refX="0"
       refY="0"
       orient="auto-start-reverse"
       inkscape:stockid="Arrow1L"
       markerWidth="8.75"
       markerHeight="5"
       viewBox="0 0 8.75 5"
       inkscape:isstock="true"
       inkscape:collect="always"
       preserveAspectRatio="xMidYMid">
      <path
         d="M 0,0 5,-5 -12.5,0 5,5 Z"
         id="arrow1L"
         transform="scale(-0.5)" />
    </marker>
    <marker
       style="overflow:visible"
       id="Arrow5"
       refX="0"
       refY="0"
       orient="auto-start-reverse"
       inkscape:stockid="Arrow5"
       markerWidth="5.8874264"
       markerHeight="6.6094756"
       viewBox="0 0 5.8874262 6.6094758"
       inkscape:isstock="true"
       inkscape:collect="always"
       preserveAspectRatio="xMidYMid">
      <path
         transform="scale(0.5)"
         style="fill:#5092dcff"
         d="m 6,0 c -3,1 -7,3 -9,5 0,0 0,-4 2,-5 -2,-1 -2,-5 -2,-5 2,2 6,4 9,5 z"
         id="path8893" />
    </marker>
  </defs>
  <g
     inkscape:label="Layer 1"
     inkscape:groupmode="layer"
     id="layer1"
     transform="translate(-11.377059,-23.034534)">
    <g
       id="g983"
       transform="translate(-0.93381558)">
      <g
         id="g575"
         transform="translate(88.134866)">
        <ellipse
           style="fill:none;fill-opacity:1;stroke:#000000;stroke-width:0.35;stroke-linecap:round;stroke-linejoin:round;stroke-dasharray:0.7, 0.7;stroke-dashoffset:0;stroke-opacity:1"
           id="path9282"
           cx="63.030602"
           cy="58.02541"
           rx="46.155209"
           ry="15.057276" />
        <path
           style="fill:none;fill-opacity:1;stroke:#5092dc;stroke-width:0.565;stroke-linecap:round;stroke-linejoin:round;stroke-dasharray:none;stroke-opacity:1"
           id="path2591"
           sodipodi:type="arc"
           sodipodi:cx="63.482162"
           sodipodi:cy="34.545937"
           sodipodi:rx="7.4074726"
           sodipodi:ry="2.2664948"
           sodipodi:start="4.3194544"
           sodipodi:end="5.4175726"
           sodipodi:arc-type="arc"
           d="m 60.645834,32.452173 a 7.4074726,2.2664948 0 0 1 7.637657,0.367845"
           sodipodi:open="true" />
        <path
           style="fill:none;stroke:#000000;stroke-width:0.264583px;stroke-linecap:butt;stroke-linejoin:miter;stroke-opacity:1"
           d="M 63.0306,46.694442 V 69.356374"
           id="path217" />
        <path
           style="fill:none;stroke:#0faa7d;stroke-width:1.165;stroke-linecap:round;stroke-linejoin:miter;stroke-dasharray:none;stroke-opacity:1"
           d="M 63.0306,25.250456 V 81.052299"
           id="path1069" />
        <path
           style="fill:none;fill-opacity:1;stroke:#5092dc;stroke-width:0.564999;stroke-linecap:round;stroke-linejoin:round;stroke-dasharray:none;stroke-opacity:1;marker-start:url(#Arrow5)"
           id="path3666"
           sodipodi:type="arc"
           sodipodi:cx="63.482162"
           sodipodi:cy="34.545937"
           sodipodi:rx="7.4074726"
           sodipodi:ry="2.2664948"
           sodipodi:start="0.78597089"
           sodipodi:end="4.5018545"
           sodipodi:arc-type="arc"
           d="m 68.717036,36.149508 a 7.4074726,2.2664948 0 0 1 -8.482208,0.433524 7.4074726,2.2664948 0 0 1 -4.10541,-2.312099 7.4074726,2.2664948 0 0 1 5.804712,-1.941446"
           sodipodi:open="true" />
        <path
           style="fill:none;stroke:#000000;stroke-width:0.264583px;stroke-linecap:butt;stroke-linejoin:miter;stroke-opacity:1"
           d="M 51.169384,58.150383 H 73.841052"
           id="path993" />
        <rect
           style="fill:#4d4d4d;fill-opacity:1;stroke:#000000;stroke-width:0.3;stroke-linecap:round;stroke-linejoin:round;stroke-dasharray:none"
           id="rect1047"
           width="44.485031"
           height="0.99591094"
           x="63.030582"
           y="57.527454"
           rx="0.49735579"
           ry="0.18898819" />
        <path
           style="fill:none;stroke:#000000;stroke-width:0.264583px;stroke-linecap:butt;stroke-linejoin:miter;stroke-opacity:1"
           d="M 53.165929,63.894749 71.594446,53.259608"
           id="path215" />
        <ellipse
           style="fill:#dc5050;fill-opacity:1;stroke:#000000;stroke-width:0.499999;stroke-linecap:round;stroke-linejoin:round"
           id="path435"
           cx="63.030602"
           cy="58.02541"
           rx="5.3655539"
           ry="5.4258022" />
        <ellipse
           style="fill:#dc5050;fill-opacity:1;stroke:#000000;stroke-width:0.499999;stroke-linecap:round;stroke-linejoin:round"
           id="ellipse991"
           cx="107.5156"
           cy="58.02541"
           rx="5.3655539"
           ry="5.4258022" />
        <g
           transform="matrix(0.66682098,0,0,0.66653462,71.359416,31.582152)"
           ns1:version="1.8.2"
           ns1:texconverter="pdflatex"
           ns1:pdfconverter="inkscape"
           ns1:text="$\\omega$"
           ns1:preamble="/home/mpnerem/.config/inkscape/extensions/textext/default_packages.tex"
           ns1:scale="2.0"
           ns1:alignment="middle center"
           ns1:stroke-to-path="0"
           ns1:inkscapeversion="1.2.1"
           ns1:jacobian_sqrt="0.705556"
           id="g8946"
           style="stroke-width:1.05832">
          <defs
             id="id-fe9ffcf0-9341-42d0-ae3f-901c44c0706d">
            <g
               id="id-8b3af290-9701-4075-8d16-0531b6fd7fa0">
              <symbol
                 overflow="visible"
                 id="id-f6785d05-1d87-46cb-a791-066039a9dfa0">
                <path
                   style="stroke:none;stroke-width:0"
                   d=""
                   id="id-352f89b1-f806-4214-a98f-4fbfcc39600b" />
              </symbol>
              <symbol
                 overflow="visible"
                 id="id-fae04da0-21a5-49c7-8f6f-33aab40f9a94">
                <path
                   style="stroke:none;stroke-width:0"
                   d="m 6.03125,-3.703125 c 0,-0.453125 -0.171875,-0.703125 -0.40625,-0.703125 -0.25,0 -0.515625,0.234375 -0.515625,0.46875 0,0.09375 0.046875,0.203125 0.140625,0.296875 0.171875,0.15625 0.359375,0.421875 0.359375,0.84375 0,0.390625 -0.203125,0.96875 -0.5,1.421875 C 4.8125,-0.953125 4.4375,-0.609375 3.96875,-0.609375 3.40625,-0.609375 3.09375,-0.96875 3,-1.5 c 0.109375,-0.265625 0.34375,-0.90625 0.34375,-1.1875 0,-0.109375 -0.046875,-0.21875 -0.1875,-0.21875 -0.078125,0 -0.1875,0.03125 -0.265625,0.171875 C 2.78125,-2.53125 2.65625,-1.890625 2.65625,-1.53125 2.328125,-1.0625 1.9375,-0.609375 1.3125,-0.609375 c -0.671875,0 -0.875,-0.59375 -0.875,-1.140625 0,-1.25 1.015625,-2.296875 1.015625,-2.421875 0,-0.109375 -0.078125,-0.1875 -0.1875,-0.1875 -0.125,0 -0.203125,0.125 -0.265625,0.21875 -0.5,0.734375 -0.875,1.921875 -0.875,2.828125 0,0.6875 0.21875,1.421875 1.046875,1.421875 0.703125,0 1.171875,-0.5 1.53125,-1.046875 0.09375,0.578125 0.484375,1.046875 1.09375,1.046875 0.78125,0 1.25,-0.609375 1.609375,-1.359375 0.25,-0.484375 0.625,-1.84375 0.625,-2.453125 z m 0,0"
                   id="id-a1039890-36d4-45b8-9ae0-8c8b3a6cbf7b" />
              </symbol>
            </g>
          </defs>
          <g
             id="id-0c35b69e-3a48-4170-8c91-8734cccc2b08"
             transform="translate(-148.837,-130.359)"
             style="stroke-width:1.05832">
            <g
               style="fill:#000000;fill-opacity:1;stroke-width:1.05832"
               id="id-2cc95e92-33ed-4c73-8c18-9a98ad3cab6e">
              <g
                 transform="translate(148.712,134.765)"
                 id="g8942"
                 style="stroke-width:1.05832">
                <path
                   style="stroke:none;stroke-width:0"
                   d="m 6.03125,-3.703125 c 0,-0.453125 -0.171875,-0.703125 -0.40625,-0.703125 -0.25,0 -0.515625,0.234375 -0.515625,0.46875 0,0.09375 0.046875,0.203125 0.140625,0.296875 0.171875,0.15625 0.359375,0.421875 0.359375,0.84375 0,0.390625 -0.203125,0.96875 -0.5,1.421875 C 4.8125,-0.953125 4.4375,-0.609375 3.96875,-0.609375 3.40625,-0.609375 3.09375,-0.96875 3,-1.5 c 0.109375,-0.265625 0.34375,-0.90625 0.34375,-1.1875 0,-0.109375 -0.046875,-0.21875 -0.1875,-0.21875 -0.078125,0 -0.1875,0.03125 -0.265625,0.171875 C 2.78125,-2.53125 2.65625,-1.890625 2.65625,-1.53125 2.328125,-1.0625 1.9375,-0.609375 1.3125,-0.609375 c -0.671875,0 -0.875,-0.59375 -0.875,-1.140625 0,-1.25 1.015625,-2.296875 1.015625,-2.421875 0,-0.109375 -0.078125,-0.1875 -0.1875,-0.1875 -0.125,0 -0.203125,0.125 -0.265625,0.21875 -0.5,0.734375 -0.875,1.921875 -0.875,2.828125 0,0.6875 0.21875,1.421875 1.046875,1.421875 0.703125,0 1.171875,-0.5 1.53125,-1.046875 0.09375,0.578125 0.484375,1.046875 1.09375,1.046875 0.78125,0 1.25,-0.609375 1.609375,-1.359375 0.25,-0.484375 0.625,-1.84375 0.625,-2.453125 z m 0,0"
                   id="id-0066efaa-fe6e-44e9-afa7-f3c0d243d7b6" />
              </g>
            </g>
          </g>
        </g>
        <g
           transform="matrix(0.66682098,0,0,0.66653462,59.113776,56.059215)"
           ns1:version="1.8.2"
           ns1:texconverter="pdflatex"
           ns1:pdfconverter="inkscape"
           ns1:text="$m_1$"
           ns1:preamble="/home/mpnerem/.config/inkscape/extensions/textext/default_packages.tex"
           ns1:scale="2.0"
           ns1:alignment="middle center"
           ns1:stroke-to-path="0"
           ns1:inkscapeversion="1.2.1"
           ns1:jacobian_sqrt="0.705556"
           id="g8987"
           style="stroke-width:1.05832">
          <defs
             id="id-ca16dd95-cad8-4686-919c-e7db58e346dc">
            <g
               id="id-4e3837aa-88ae-4b34-b217-709792770be4">
              <symbol
                 overflow="visible"
                 id="id-f66c516a-1aa1-4493-828a-73e30134e325">
                <path
                   style="stroke:none"
                   d=""
                   id="id-5adc6160-c051-4105-b554-42ec87c1a2f5" />
              </symbol>
              <symbol
                 overflow="visible"
                 id="id-16917c08-4bce-4818-9b6e-d9654097c52c">
                <path
                   style="stroke:none"
                   d="m 0.875,-0.59375 c -0.03125,0.15625 -0.09375,0.390625 -0.09375,0.4375 0,0.171875 0.140625,0.265625 0.296875,0.265625 0.125,0 0.296875,-0.078125 0.375,-0.28125 0,-0.015625 0.125,-0.484375 0.1875,-0.734375 l 0.21875,-0.890625 C 1.90625,-2.03125 1.96875,-2.25 2.03125,-2.46875 c 0.03125,-0.171875 0.109375,-0.46875 0.125,-0.5 0.140625,-0.3125 0.671875,-1.21875 1.625,-1.21875 0.453125,0 0.53125,0.375 0.53125,0.703125 0,0.25 -0.0625,0.53125 -0.140625,0.828125 L 3.890625,-1.5 3.6875,-0.75 c -0.03125,0.203125 -0.125,0.546875 -0.125,0.59375 0,0.171875 0.140625,0.265625 0.28125,0.265625 0.3125,0 0.375,-0.25 0.453125,-0.5625 0.140625,-0.5625 0.515625,-2.015625 0.59375,-2.40625 0.03125,-0.125 0.5625,-1.328125 1.65625,-1.328125 0.421875,0 0.53125,0.34375 0.53125,0.703125 0,0.5625 -0.421875,1.703125 -0.625,2.234375 -0.078125,0.234375 -0.125,0.34375 -0.125,0.546875 0,0.46875 0.34375,0.8125 0.8125,0.8125 0.9375,0 1.3125,-1.453125 1.3125,-1.53125 0,-0.109375 -0.09375,-0.109375 -0.125,-0.109375 -0.09375,0 -0.09375,0.03125 -0.140625,0.1875 -0.15625,0.53125 -0.46875,1.234375 -1.015625,1.234375 -0.171875,0 -0.25,-0.09375 -0.25,-0.328125 0,-0.25 0.09375,-0.484375 0.1875,-0.703125 0.1875,-0.53125 0.609375,-1.625 0.609375,-2.203125 0,-0.640625 -0.40625,-1.0625 -1.15625,-1.0625 -0.734375,0 -1.25,0.4375 -1.625,0.96875 0,-0.125 -0.03125,-0.46875 -0.3125,-0.703125 -0.25,-0.21875 -0.5625,-0.265625 -0.8125,-0.265625 -0.90625,0 -1.390625,0.640625 -1.5625,0.875 -0.046875,-0.578125 -0.46875,-0.875 -0.921875,-0.875 -0.453125,0 -0.640625,0.390625 -0.734375,0.5625 -0.171875,0.359375 -0.296875,0.9375 -0.296875,0.96875 0,0.109375 0.09375,0.109375 0.109375,0.109375 0.109375,0 0.109375,-0.015625 0.171875,-0.234375 0.171875,-0.703125 0.375,-1.1875 0.734375,-1.1875 0.15625,0 0.296875,0.078125 0.296875,0.453125 0,0.21875 -0.03125,0.328125 -0.15625,0.84375 z m 0,0"
                   id="id-4b74a34e-ca9c-4e95-8e03-45b8baf62d62" />
              </symbol>
              <symbol
                 overflow="visible"
                 id="id-19309d64-0fe8-4eb5-bbf0-cdd0408c8f3f">
                <path
                   style="stroke:none"
                   d=""
                   id="id-e82dc687-b97e-49b5-beeb-d97f5a33a767" />
              </symbol>
              <symbol
                 overflow="visible"
                 id="id-0591572d-b7bb-4418-b2a0-740f7675de40">
                <path
                   style="stroke:none"
                   d="m 2.328125,-4.4375 c 0,-0.1875 0,-0.1875 -0.203125,-0.1875 -0.453125,0.4375 -1.078125,0.4375 -1.359375,0.4375 v 0.25 c 0.15625,0 0.625,0 1,-0.1875 v 3.546875 c 0,0.234375 0,0.328125 -0.6875,0.328125 H 0.8125 V 0 c 0.125,0 0.984375,-0.03125 1.234375,-0.03125 0.21875,0 1.09375,0.03125 1.25,0.03125 V -0.25 H 3.03125 c -0.703125,0 -0.703125,-0.09375 -0.703125,-0.328125 z m 0,0"
                   id="id-6fcd447f-c2b9-4aa4-9bbd-53e154e772f3" />
              </symbol>
            </g>
          </defs>
          <g
             id="id-c11fceb0-e618-4c36-bf0a-209fa10d4362"
             transform="translate(-149.009,-130.359)"
             style="stroke-width:1.05832">
            <g
               style="fill:#000000;fill-opacity:1;stroke-width:1.05832"
               id="id-c3ffa969-133e-4c52-aaaa-36c7f9fc808d">
              <g
                 transform="translate(148.712,134.765)"
                 id="g9061"
                 style="stroke-width:1.05832">
                <path
                   style="stroke:none;stroke-width:1.05832"
                   d="m 0.875,-0.59375 c -0.03125,0.15625 -0.09375,0.390625 -0.09375,0.4375 0,0.171875 0.140625,0.265625 0.296875,0.265625 0.125,0 0.296875,-0.078125 0.375,-0.28125 0,-0.015625 0.125,-0.484375 0.1875,-0.734375 l 0.21875,-0.890625 C 1.90625,-2.03125 1.96875,-2.25 2.03125,-2.46875 c 0.03125,-0.171875 0.109375,-0.46875 0.125,-0.5 0.140625,-0.3125 0.671875,-1.21875 1.625,-1.21875 0.453125,0 0.53125,0.375 0.53125,0.703125 0,0.25 -0.0625,0.53125 -0.140625,0.828125 L 3.890625,-1.5 3.6875,-0.75 c -0.03125,0.203125 -0.125,0.546875 -0.125,0.59375 0,0.171875 0.140625,0.265625 0.28125,0.265625 0.3125,0 0.375,-0.25 0.453125,-0.5625 0.140625,-0.5625 0.515625,-2.015625 0.59375,-2.40625 0.03125,-0.125 0.5625,-1.328125 1.65625,-1.328125 0.421875,0 0.53125,0.34375 0.53125,0.703125 0,0.5625 -0.421875,1.703125 -0.625,2.234375 -0.078125,0.234375 -0.125,0.34375 -0.125,0.546875 0,0.46875 0.34375,0.8125 0.8125,0.8125 0.9375,0 1.3125,-1.453125 1.3125,-1.53125 0,-0.109375 -0.09375,-0.109375 -0.125,-0.109375 -0.09375,0 -0.09375,0.03125 -0.140625,0.1875 -0.15625,0.53125 -0.46875,1.234375 -1.015625,1.234375 -0.171875,0 -0.25,-0.09375 -0.25,-0.328125 0,-0.25 0.09375,-0.484375 0.1875,-0.703125 0.1875,-0.53125 0.609375,-1.625 0.609375,-2.203125 0,-0.640625 -0.40625,-1.0625 -1.15625,-1.0625 -0.734375,0 -1.25,0.4375 -1.625,0.96875 0,-0.125 -0.03125,-0.46875 -0.3125,-0.703125 -0.25,-0.21875 -0.5625,-0.265625 -0.8125,-0.265625 -0.90625,0 -1.390625,0.640625 -1.5625,0.875 -0.046875,-0.578125 -0.46875,-0.875 -0.921875,-0.875 -0.453125,0 -0.640625,0.390625 -0.734375,0.5625 -0.171875,0.359375 -0.296875,0.9375 -0.296875,0.96875 0,0.109375 0.09375,0.109375 0.109375,0.109375 0.109375,0 0.109375,-0.015625 0.171875,-0.234375 0.171875,-0.703125 0.375,-1.1875 0.734375,-1.1875 0.15625,0 0.296875,0.078125 0.296875,0.453125 0,0.21875 -0.03125,0.328125 -0.15625,0.84375 z m 0,0"
                   id="id-8fe0fe0d-8161-4dba-a451-a08e8558538e" />
              </g>
            </g>
            <g
               style="fill:#000000;fill-opacity:1;stroke-width:1.05832"
               id="id-e63c10ca-77ef-4a42-8591-2845cc52fec6">
              <g
                 transform="translate(157.46,136.259)"
                 id="g9065"
                 style="stroke-width:1.05832">
                <path
                   style="stroke:none;stroke-width:1.05832"
                   d="m 2.328125,-4.4375 c 0,-0.1875 0,-0.1875 -0.203125,-0.1875 -0.453125,0.4375 -1.078125,0.4375 -1.359375,0.4375 v 0.25 c 0.15625,0 0.625,0 1,-0.1875 v 3.546875 c 0,0.234375 0,0.328125 -0.6875,0.328125 H 0.8125 V 0 c 0.125,0 0.984375,-0.03125 1.234375,-0.03125 0.21875,0 1.09375,0.03125 1.25,0.03125 V -0.25 H 3.03125 c -0.703125,0 -0.703125,-0.09375 -0.703125,-0.328125 z m 0,0"
                   id="id-b23a7d3d-a322-4209-b49a-c05328d7c7ec" />
              </g>
            </g>
          </g>
        </g>
        <g
           transform="matrix(0.66682098,0,0,0.66653462,103.52576,56.059011)"
           ns1:version="1.8.2"
           ns1:texconverter="pdflatex"
           ns1:pdfconverter="inkscape"
           ns1:text="$m_2$"
           ns1:preamble="/home/mpnerem/.config/inkscape/extensions/textext/default_packages.tex"
           ns1:scale="2.0"
           ns1:alignment="middle center"
           ns1:stroke-to-path="0"
           ns1:inkscapeversion="1.2.1"
           ns1:jacobian_sqrt="0.705556"
           id="g9130"
           style="stroke-width:1.05832">
          <defs
             id="id-e549e385-7cd1-4982-b606-797f732311eb">
            <g
               id="id-67797777-cb8d-4bb6-9f0f-e072a894d860">
              <symbol
                 overflow="visible"
                 id="id-0c744509-61a0-4328-960a-630b8ca12e1c">
                <path
                   style="stroke:none"
                   d=""
                   id="id-6d4ecadb-05b5-4f7f-a144-8faced3c18b5" />
              </symbol>
              <symbol
                 overflow="visible"
                 id="id-6a8c2eff-75d7-437e-9f31-114917ddf3f9">
                <path
                   style="stroke:none"
                   d="m 0.875,-0.59375 c -0.03125,0.15625 -0.09375,0.390625 -0.09375,0.4375 0,0.171875 0.140625,0.265625 0.296875,0.265625 0.125,0 0.296875,-0.078125 0.375,-0.28125 0,-0.015625 0.125,-0.484375 0.1875,-0.734375 l 0.21875,-0.890625 C 1.90625,-2.03125 1.96875,-2.25 2.03125,-2.46875 c 0.03125,-0.171875 0.109375,-0.46875 0.125,-0.5 0.140625,-0.3125 0.671875,-1.21875 1.625,-1.21875 0.453125,0 0.53125,0.375 0.53125,0.703125 0,0.25 -0.0625,0.53125 -0.140625,0.828125 L 3.890625,-1.5 3.6875,-0.75 c -0.03125,0.203125 -0.125,0.546875 -0.125,0.59375 0,0.171875 0.140625,0.265625 0.28125,0.265625 0.3125,0 0.375,-0.25 0.453125,-0.5625 0.140625,-0.5625 0.515625,-2.015625 0.59375,-2.40625 0.03125,-0.125 0.5625,-1.328125 1.65625,-1.328125 0.421875,0 0.53125,0.34375 0.53125,0.703125 0,0.5625 -0.421875,1.703125 -0.625,2.234375 -0.078125,0.234375 -0.125,0.34375 -0.125,0.546875 0,0.46875 0.34375,0.8125 0.8125,0.8125 0.9375,0 1.3125,-1.453125 1.3125,-1.53125 0,-0.109375 -0.09375,-0.109375 -0.125,-0.109375 -0.09375,0 -0.09375,0.03125 -0.140625,0.1875 -0.15625,0.53125 -0.46875,1.234375 -1.015625,1.234375 -0.171875,0 -0.25,-0.09375 -0.25,-0.328125 0,-0.25 0.09375,-0.484375 0.1875,-0.703125 0.1875,-0.53125 0.609375,-1.625 0.609375,-2.203125 0,-0.640625 -0.40625,-1.0625 -1.15625,-1.0625 -0.734375,0 -1.25,0.4375 -1.625,0.96875 0,-0.125 -0.03125,-0.46875 -0.3125,-0.703125 -0.25,-0.21875 -0.5625,-0.265625 -0.8125,-0.265625 -0.90625,0 -1.390625,0.640625 -1.5625,0.875 -0.046875,-0.578125 -0.46875,-0.875 -0.921875,-0.875 -0.453125,0 -0.640625,0.390625 -0.734375,0.5625 -0.171875,0.359375 -0.296875,0.9375 -0.296875,0.96875 0,0.109375 0.09375,0.109375 0.109375,0.109375 0.109375,0 0.109375,-0.015625 0.171875,-0.234375 0.171875,-0.703125 0.375,-1.1875 0.734375,-1.1875 0.15625,0 0.296875,0.078125 0.296875,0.453125 0,0.21875 -0.03125,0.328125 -0.15625,0.84375 z m 0,0"
                   id="id-6adeddd6-63ce-4a4d-9d50-5e2cf973b697" />
              </symbol>
              <symbol
                 overflow="visible"
                 id="id-51666cff-2b53-49c2-b889-d4b775f3d0b0">
                <path
                   style="stroke:none"
                   d=""
                   id="id-723cb751-6163-4a54-8e9a-2147b18e1d8a" />
              </symbol>
              <symbol
                 overflow="visible"
                 id="id-ea4d7888-37b9-4303-9cc1-0a49db4b9adb">
                <path
                   style="stroke:none"
                   d="M 3.515625,-1.265625 H 3.28125 c -0.015625,0.15625 -0.09375,0.5625 -0.1875,0.625 C 3.046875,-0.59375 2.515625,-0.59375 2.40625,-0.59375 H 1.125 c 0.734375,-0.640625 0.984375,-0.84375 1.390625,-1.171875 0.515625,-0.40625 1,-0.84375 1,-1.5 0,-0.84375 -0.734375,-1.359375 -1.625,-1.359375 -0.859375,0 -1.453125,0.609375 -1.453125,1.25 0,0.34375 0.296875,0.390625 0.375,0.390625 0.15625,0 0.359375,-0.125 0.359375,-0.375 0,-0.125 -0.046875,-0.375 -0.40625,-0.375 C 0.984375,-4.21875 1.453125,-4.375 1.78125,-4.375 c 0.703125,0 1.0625,0.546875 1.0625,1.109375 0,0.609375 -0.4375,1.078125 -0.65625,1.328125 L 0.515625,-0.265625 C 0.4375,-0.203125 0.4375,-0.1875 0.4375,0 h 2.875 z m 0,0"
                   id="id-11b75170-e93d-4934-98c5-91bf98c02610" />
              </symbol>
            </g>
          </defs>
          <g
             id="id-82140054-4a6c-4260-ac9a-1638daf27de8"
             transform="translate(-149.009,-130.359)"
             style="stroke-width:1.05832">
            <g
               style="fill:#000000;fill-opacity:1;stroke-width:1.05832"
               id="id-0963a383-2019-4184-a2c1-dd10f7aca4b9">
              <g
                 transform="translate(148.712,134.765)"
                 id="g9247"
                 style="stroke-width:1.05832">
                <path
                   style="stroke:none;stroke-width:1.05832"
                   d="m 0.875,-0.59375 c -0.03125,0.15625 -0.09375,0.390625 -0.09375,0.4375 0,0.171875 0.140625,0.265625 0.296875,0.265625 0.125,0 0.296875,-0.078125 0.375,-0.28125 0,-0.015625 0.125,-0.484375 0.1875,-0.734375 l 0.21875,-0.890625 C 1.90625,-2.03125 1.96875,-2.25 2.03125,-2.46875 c 0.03125,-0.171875 0.109375,-0.46875 0.125,-0.5 0.140625,-0.3125 0.671875,-1.21875 1.625,-1.21875 0.453125,0 0.53125,0.375 0.53125,0.703125 0,0.25 -0.0625,0.53125 -0.140625,0.828125 L 3.890625,-1.5 3.6875,-0.75 c -0.03125,0.203125 -0.125,0.546875 -0.125,0.59375 0,0.171875 0.140625,0.265625 0.28125,0.265625 0.3125,0 0.375,-0.25 0.453125,-0.5625 0.140625,-0.5625 0.515625,-2.015625 0.59375,-2.40625 0.03125,-0.125 0.5625,-1.328125 1.65625,-1.328125 0.421875,0 0.53125,0.34375 0.53125,0.703125 0,0.5625 -0.421875,1.703125 -0.625,2.234375 -0.078125,0.234375 -0.125,0.34375 -0.125,0.546875 0,0.46875 0.34375,0.8125 0.8125,0.8125 0.9375,0 1.3125,-1.453125 1.3125,-1.53125 0,-0.109375 -0.09375,-0.109375 -0.125,-0.109375 -0.09375,0 -0.09375,0.03125 -0.140625,0.1875 -0.15625,0.53125 -0.46875,1.234375 -1.015625,1.234375 -0.171875,0 -0.25,-0.09375 -0.25,-0.328125 0,-0.25 0.09375,-0.484375 0.1875,-0.703125 0.1875,-0.53125 0.609375,-1.625 0.609375,-2.203125 0,-0.640625 -0.40625,-1.0625 -1.15625,-1.0625 -0.734375,0 -1.25,0.4375 -1.625,0.96875 0,-0.125 -0.03125,-0.46875 -0.3125,-0.703125 -0.25,-0.21875 -0.5625,-0.265625 -0.8125,-0.265625 -0.90625,0 -1.390625,0.640625 -1.5625,0.875 -0.046875,-0.578125 -0.46875,-0.875 -0.921875,-0.875 -0.453125,0 -0.640625,0.390625 -0.734375,0.5625 -0.171875,0.359375 -0.296875,0.9375 -0.296875,0.96875 0,0.109375 0.09375,0.109375 0.109375,0.109375 0.109375,0 0.109375,-0.015625 0.171875,-0.234375 0.171875,-0.703125 0.375,-1.1875 0.734375,-1.1875 0.15625,0 0.296875,0.078125 0.296875,0.453125 0,0.21875 -0.03125,0.328125 -0.15625,0.84375 z m 0,0"
                   id="id-855709b5-9bcf-45a1-bfab-78c36092af1d" />
              </g>
            </g>
            <g
               style="fill:#000000;fill-opacity:1;stroke-width:1.05832"
               id="id-331d01a6-aad0-4208-9149-e554ff41ed72">
              <g
                 transform="translate(157.46,136.259)"
                 id="g9251"
                 style="stroke-width:1.05832">
                <path
                   style="stroke:none;stroke-width:1.05832"
                   d="M 3.515625,-1.265625 H 3.28125 c -0.015625,0.15625 -0.09375,0.5625 -0.1875,0.625 C 3.046875,-0.59375 2.515625,-0.59375 2.40625,-0.59375 H 1.125 c 0.734375,-0.640625 0.984375,-0.84375 1.390625,-1.171875 0.515625,-0.40625 1,-0.84375 1,-1.5 0,-0.84375 -0.734375,-1.359375 -1.625,-1.359375 -0.859375,0 -1.453125,0.609375 -1.453125,1.25 0,0.34375 0.296875,0.390625 0.375,0.390625 0.15625,0 0.359375,-0.125 0.359375,-0.375 0,-0.125 -0.046875,-0.375 -0.40625,-0.375 C 0.984375,-4.21875 1.453125,-4.375 1.78125,-4.375 c 0.703125,0 1.0625,0.546875 1.0625,1.109375 0,0.609375 -0.4375,1.078125 -0.65625,1.328125 L 0.515625,-0.265625 C 0.4375,-0.203125 0.4375,-0.1875 0.4375,0 h 2.875 z m 0,0"
                   id="id-8ffa5183-ebb5-4475-bfff-570682097939" />
              </g>
            </g>
          </g>
        </g>
        <path
           style="fill:none;stroke:#000000;stroke-width:0.264583px;stroke-linecap:butt;stroke-linejoin:miter;stroke-opacity:1;marker-start:url(#Arrow1L);marker-end:url(#Arrow1L)"
           d="m 64.551952,79.950262 41.693108,-0.08124"
           id="path472"
           sodipodi:nodetypes="cc" />
        <g
           transform="matrix(0.666821,0,0,0.666535,83.393084,74.668418)"
           ns1:version="1.8.2"
           ns1:texconverter="pdflatex"
           ns1:pdfconverter="inkscape"
           ns1:text="$L$"
           ns1:preamble="/home/mpnerem/.config/inkscape/extensions/textext/default_packages.tex"
           ns1:scale="1.8897941045781548"
           ns1:alignment="middle center"
           ns1:stroke-to-path="0"
           ns1:inkscapeversion="1.2.1"
           ns1:jacobian_sqrt="0.6666779846635106"
           style="stroke-width:0"
           id="g1454">
          <defs
             id="id-b7a5ebfc-745d-4daa-81ae-7135df15f49e"
             style="stroke-width:0">
            <g
               id="id-f3af8c45-5ad0-477e-a784-4092874b5b50"
               style="stroke-width:0">
              <symbol
                 overflow="visible"
                 id="id-1de6032b-865e-45fc-aa53-09df89613ee3"
                 style="stroke-width:0">
                <path
                   style="stroke:none;stroke-width:0"
                   d=""
                   id="id-02047ac3-f032-456f-8275-622f5fa723ef" />
              </symbol>
              <symbol
                 overflow="visible"
                 id="id-b15f4981-c2ab-4369-9edf-939a25bfb8fa"
                 style="stroke-width:0">
                <path
                   style="stroke:none;stroke-width:0"
                   d="M 3.734375,-6.03125 C 3.8125,-6.390625 3.84375,-6.5 4.78125,-6.5 c 0.296875,0 0.375,0 0.375,-0.1875 0,-0.125 -0.109375,-0.125 -0.15625,-0.125 -0.328125,0 -1.140625,0.03125 -1.46875,0.03125 -0.296875,0 -1.03125,-0.03125 -1.328125,-0.03125 -0.0625,0 -0.1875,0 -0.1875,0.203125 0,0.109375 0.09375,0.109375 0.28125,0.109375 0.015625,0 0.203125,0 0.375,0.015625 0.171875,0.03125 0.265625,0.03125 0.265625,0.171875 0,0.03125 0,0.0625 -0.03125,0.1875 L 1.5625,-0.78125 c -0.09375,0.390625 -0.109375,0.46875 -0.90625,0.46875 -0.171875,0 -0.265625,0 -0.265625,0.203125 C 0.390625,0 0.484375,0 0.65625,0 h 4.625 C 5.515625,0 5.515625,0 5.578125,-0.171875 L 6.375,-2.328125 c 0.03125,-0.109375 0.03125,-0.125 0.03125,-0.140625 0,-0.03125 -0.03125,-0.109375 -0.109375,-0.109375 -0.09375,0 -0.109375,0.0625 -0.171875,0.21875 -0.34375,0.90625 -0.78125,2.046875 -2.5,2.046875 H 2.6875 c -0.140625,0 -0.171875,0 -0.21875,0 -0.109375,-0.015625 -0.140625,-0.03125 -0.140625,-0.109375 0,-0.03125 0,-0.046875 0.046875,-0.21875 z m 0,0"
                   id="id-be60178d-d52e-47a2-9b69-3f8675350f5e" />
              </symbol>
            </g>
          </defs>
          <g
             id="id-46c7f3fa-722c-4212-ac3f-6edd0eebab97"
             transform="translate(-149.103,-127.953)"
             style="stroke-width:0">
            <g
               style="fill:#000000;fill-opacity:1;stroke-width:0"
               id="id-d5b4670f-5667-4ea3-b4cd-794b360a8070">
              <g
                 transform="translate(148.712,134.765)"
                 style="stroke-width:0"
                 id="g1721">
                <path
                   style="stroke:none;stroke-width:0"
                   d="M 3.734375,-6.03125 C 3.8125,-6.390625 3.84375,-6.5 4.78125,-6.5 c 0.296875,0 0.375,0 0.375,-0.1875 0,-0.125 -0.109375,-0.125 -0.15625,-0.125 -0.328125,0 -1.140625,0.03125 -1.46875,0.03125 -0.296875,0 -1.03125,-0.03125 -1.328125,-0.03125 -0.0625,0 -0.1875,0 -0.1875,0.203125 0,0.109375 0.09375,0.109375 0.28125,0.109375 0.015625,0 0.203125,0 0.375,0.015625 0.171875,0.03125 0.265625,0.03125 0.265625,0.171875 0,0.03125 0,0.0625 -0.03125,0.1875 L 1.5625,-0.78125 c -0.09375,0.390625 -0.109375,0.46875 -0.90625,0.46875 -0.171875,0 -0.265625,0 -0.265625,0.203125 C 0.390625,0 0.484375,0 0.65625,0 h 4.625 C 5.515625,0 5.515625,0 5.578125,-0.171875 L 6.375,-2.328125 c 0.03125,-0.109375 0.03125,-0.125 0.03125,-0.140625 0,-0.03125 -0.03125,-0.109375 -0.109375,-0.109375 -0.09375,0 -0.109375,0.0625 -0.171875,0.21875 -0.34375,0.90625 -0.78125,2.046875 -2.5,2.046875 H 2.6875 c -0.140625,0 -0.171875,0 -0.21875,0 -0.109375,-0.015625 -0.140625,-0.03125 -0.140625,-0.109375 0,-0.03125 0,-0.046875 0.046875,-0.21875 z m 0,0"
                   id="id-7c108b35-9c85-41d3-95b4-d8d849aa9cf8" />
              </g>
            </g>
          </g>
        </g>
      </g>
      <g
         id="g817"
         transform="translate(-118.82654)">
        <ellipse
           style="fill:none;fill-opacity:1;stroke:#000000;stroke-width:0.350001;stroke-linecap:round;stroke-linejoin:round;stroke-dasharray:0.7, 0.7;stroke-dashoffset:0;stroke-opacity:1"
           id="ellipse631"
           cx="170.81035"
           cy="58.025452"
           rx="29.34675"
           ry="9.5299053" />
        <ellipse
           style="fill:none;fill-opacity:1;stroke:#000000;stroke-width:0.35;stroke-linecap:round;stroke-linejoin:round;stroke-dasharray:0.699999, 0.699999;stroke-dashoffset:0;stroke-opacity:1"
           id="ellipse633"
           cx="170.82019"
           cy="58.0252"
           rx="15.349432"
           ry="4.9334693" />
        <rect
           style="fill:#4d4d4d;fill-opacity:1;stroke:#000000;stroke-width:0.3;stroke-linecap:round;stroke-linejoin:round;stroke-dasharray:none"
           id="rect635"
           width="44.485031"
           height="0.99591094"
           x="142.07617"
           y="57.527454"
           rx="0.49735579"
           ry="0.18898819" />
        <ellipse
           style="fill:#dc5050;fill-opacity:1;stroke:#000000;stroke-width:0.499999;stroke-linecap:round;stroke-linejoin:round"
           id="ellipse637"
           cx="142.07619"
           cy="58.02541"
           rx="5.3655539"
           ry="5.4258022" />
        <ellipse
           style="fill:#dc5050;fill-opacity:1;stroke:#000000;stroke-width:0.499999;stroke-linecap:round;stroke-linejoin:round"
           id="ellipse639"
           cx="186.56125"
           cy="58.02541"
           rx="5.3655539"
           ry="5.4258022" />
        <path
           style="fill:none;fill-opacity:1;stroke:#5092dc;stroke-width:0.565;stroke-linecap:round;stroke-linejoin:round;stroke-dasharray:none;stroke-opacity:1"
           id="path641"
           sodipodi:type="arc"
           sodipodi:cx="171.27174"
           sodipodi:cy="34.545937"
           sodipodi:rx="7.4074726"
           sodipodi:ry="2.2664948"
           sodipodi:start="4.3194544"
           sodipodi:end="5.4175726"
           sodipodi:arc-type="arc"
           d="m 168.43542,32.452173 a 7.4074726,2.2664948 0 0 1 7.63765,0.367845"
           sodipodi:open="true" />
        <path
           style="fill:none;stroke:#0faa7d;stroke-width:1.165;stroke-linecap:round;stroke-linejoin:miter;stroke-dasharray:none;stroke-opacity:1"
           d="M 170.82024,25.250456 V 81.052299"
           id="path643" />
        <path
           style="fill:none;fill-opacity:1;stroke:#5092dc;stroke-width:0.564999;stroke-linecap:round;stroke-linejoin:round;stroke-dasharray:none;stroke-opacity:1;marker-start:url(#Arrow5)"
           id="path645"
           sodipodi:type="arc"
           sodipodi:cx="171.27174"
           sodipodi:cy="34.545937"
           sodipodi:rx="7.4074726"
           sodipodi:ry="2.2664948"
           sodipodi:start="0.78597089"
           sodipodi:end="4.5018545"
           sodipodi:arc-type="arc"
           d="m 176.50662,36.149508 a 7.4074726,2.2664948 0 0 1 -8.48221,0.433524 7.4074726,2.2664948 0 0 1 -4.10541,-2.312099 7.4074726,2.2664948 0 0 1 5.80471,-1.941446"
           sodipodi:open="true" />
        <g
           transform="matrix(0.66682098,0,0,0.66653462,179.14906,31.582152)"
           ns1:version="1.8.2"
           ns1:texconverter="pdflatex"
           ns1:pdfconverter="inkscape"
           ns1:text="$\\omega$"
           ns1:preamble="/home/mpnerem/.config/inkscape/extensions/textext/default_packages.tex"
           ns1:scale="2.0"
           ns1:alignment="middle center"
           ns1:stroke-to-path="0"
           ns1:inkscapeversion="1.2.1"
           ns1:jacobian_sqrt="0.705556"
           id="g667"
           style="stroke-width:1.05832">
          <defs
             id="defs657">
            <g
               id="g655">
              <symbol
                 overflow="visible"
                 id="symbol649">
                <path
                   style="stroke:none;stroke-width:0"
                   d=""
                   id="path647" />
              </symbol>
              <symbol
                 overflow="visible"
                 id="symbol653">
                <path
                   style="stroke:none;stroke-width:0"
                   d="m 6.03125,-3.703125 c 0,-0.453125 -0.171875,-0.703125 -0.40625,-0.703125 -0.25,0 -0.515625,0.234375 -0.515625,0.46875 0,0.09375 0.046875,0.203125 0.140625,0.296875 0.171875,0.15625 0.359375,0.421875 0.359375,0.84375 0,0.390625 -0.203125,0.96875 -0.5,1.421875 C 4.8125,-0.953125 4.4375,-0.609375 3.96875,-0.609375 3.40625,-0.609375 3.09375,-0.96875 3,-1.5 c 0.109375,-0.265625 0.34375,-0.90625 0.34375,-1.1875 0,-0.109375 -0.046875,-0.21875 -0.1875,-0.21875 -0.078125,0 -0.1875,0.03125 -0.265625,0.171875 C 2.78125,-2.53125 2.65625,-1.890625 2.65625,-1.53125 2.328125,-1.0625 1.9375,-0.609375 1.3125,-0.609375 c -0.671875,0 -0.875,-0.59375 -0.875,-1.140625 0,-1.25 1.015625,-2.296875 1.015625,-2.421875 0,-0.109375 -0.078125,-0.1875 -0.1875,-0.1875 -0.125,0 -0.203125,0.125 -0.265625,0.21875 -0.5,0.734375 -0.875,1.921875 -0.875,2.828125 0,0.6875 0.21875,1.421875 1.046875,1.421875 0.703125,0 1.171875,-0.5 1.53125,-1.046875 0.09375,0.578125 0.484375,1.046875 1.09375,1.046875 0.78125,0 1.25,-0.609375 1.609375,-1.359375 0.25,-0.484375 0.625,-1.84375 0.625,-2.453125 z m 0,0"
                   id="path651" />
              </symbol>
            </g>
          </defs>
          <g
             id="g665"
             transform="translate(-148.837,-130.359)"
             style="stroke-width:1.05832">
            <g
               style="fill:#000000;fill-opacity:1;stroke-width:1.05832"
               id="g663">
              <g
                 transform="translate(148.712,134.765)"
                 id="g661"
                 style="stroke-width:1.05832">
                <path
                   style="stroke:none;stroke-width:0"
                   d="m 6.03125,-3.703125 c 0,-0.453125 -0.171875,-0.703125 -0.40625,-0.703125 -0.25,0 -0.515625,0.234375 -0.515625,0.46875 0,0.09375 0.046875,0.203125 0.140625,0.296875 0.171875,0.15625 0.359375,0.421875 0.359375,0.84375 0,0.390625 -0.203125,0.96875 -0.5,1.421875 C 4.8125,-0.953125 4.4375,-0.609375 3.96875,-0.609375 3.40625,-0.609375 3.09375,-0.96875 3,-1.5 c 0.109375,-0.265625 0.34375,-0.90625 0.34375,-1.1875 0,-0.109375 -0.046875,-0.21875 -0.1875,-0.21875 -0.078125,0 -0.1875,0.03125 -0.265625,0.171875 C 2.78125,-2.53125 2.65625,-1.890625 2.65625,-1.53125 2.328125,-1.0625 1.9375,-0.609375 1.3125,-0.609375 c -0.671875,0 -0.875,-0.59375 -0.875,-1.140625 0,-1.25 1.015625,-2.296875 1.015625,-2.421875 0,-0.109375 -0.078125,-0.1875 -0.1875,-0.1875 -0.125,0 -0.203125,0.125 -0.265625,0.21875 -0.5,0.734375 -0.875,1.921875 -0.875,2.828125 0,0.6875 0.21875,1.421875 1.046875,1.421875 0.703125,0 1.171875,-0.5 1.53125,-1.046875 0.09375,0.578125 0.484375,1.046875 1.09375,1.046875 0.78125,0 1.25,-0.609375 1.609375,-1.359375 0.25,-0.484375 0.625,-1.84375 0.625,-2.453125 z m 0,0"
                   id="path659" />
              </g>
            </g>
          </g>
        </g>
        <g
           transform="matrix(0.66682098,0,0,0.66653462,138.1594,56.059215)"
           ns1:version="1.8.2"
           ns1:texconverter="pdflatex"
           ns1:pdfconverter="inkscape"
           ns1:text="$m_1$"
           ns1:preamble="/home/mpnerem/.config/inkscape/extensions/textext/default_packages.tex"
           ns1:scale="2.0"
           ns1:alignment="middle center"
           ns1:stroke-to-path="0"
           ns1:inkscapeversion="1.2.1"
           ns1:jacobian_sqrt="0.705556"
           id="g703"
           style="stroke-width:1.05832">
          <defs
             id="defs687">
            <g
               id="g685">
              <symbol
                 overflow="visible"
                 id="symbol671">
                <path
                   style="stroke:none"
                   d=""
                   id="path669" />
              </symbol>
              <symbol
                 overflow="visible"
                 id="symbol675">
                <path
                   style="stroke:none"
                   d="m 0.875,-0.59375 c -0.03125,0.15625 -0.09375,0.390625 -0.09375,0.4375 0,0.171875 0.140625,0.265625 0.296875,0.265625 0.125,0 0.296875,-0.078125 0.375,-0.28125 0,-0.015625 0.125,-0.484375 0.1875,-0.734375 l 0.21875,-0.890625 C 1.90625,-2.03125 1.96875,-2.25 2.03125,-2.46875 c 0.03125,-0.171875 0.109375,-0.46875 0.125,-0.5 0.140625,-0.3125 0.671875,-1.21875 1.625,-1.21875 0.453125,0 0.53125,0.375 0.53125,0.703125 0,0.25 -0.0625,0.53125 -0.140625,0.828125 L 3.890625,-1.5 3.6875,-0.75 c -0.03125,0.203125 -0.125,0.546875 -0.125,0.59375 0,0.171875 0.140625,0.265625 0.28125,0.265625 0.3125,0 0.375,-0.25 0.453125,-0.5625 0.140625,-0.5625 0.515625,-2.015625 0.59375,-2.40625 0.03125,-0.125 0.5625,-1.328125 1.65625,-1.328125 0.421875,0 0.53125,0.34375 0.53125,0.703125 0,0.5625 -0.421875,1.703125 -0.625,2.234375 -0.078125,0.234375 -0.125,0.34375 -0.125,0.546875 0,0.46875 0.34375,0.8125 0.8125,0.8125 0.9375,0 1.3125,-1.453125 1.3125,-1.53125 0,-0.109375 -0.09375,-0.109375 -0.125,-0.109375 -0.09375,0 -0.09375,0.03125 -0.140625,0.1875 -0.15625,0.53125 -0.46875,1.234375 -1.015625,1.234375 -0.171875,0 -0.25,-0.09375 -0.25,-0.328125 0,-0.25 0.09375,-0.484375 0.1875,-0.703125 0.1875,-0.53125 0.609375,-1.625 0.609375,-2.203125 0,-0.640625 -0.40625,-1.0625 -1.15625,-1.0625 -0.734375,0 -1.25,0.4375 -1.625,0.96875 0,-0.125 -0.03125,-0.46875 -0.3125,-0.703125 -0.25,-0.21875 -0.5625,-0.265625 -0.8125,-0.265625 -0.90625,0 -1.390625,0.640625 -1.5625,0.875 -0.046875,-0.578125 -0.46875,-0.875 -0.921875,-0.875 -0.453125,0 -0.640625,0.390625 -0.734375,0.5625 -0.171875,0.359375 -0.296875,0.9375 -0.296875,0.96875 0,0.109375 0.09375,0.109375 0.109375,0.109375 0.109375,0 0.109375,-0.015625 0.171875,-0.234375 0.171875,-0.703125 0.375,-1.1875 0.734375,-1.1875 0.15625,0 0.296875,0.078125 0.296875,0.453125 0,0.21875 -0.03125,0.328125 -0.15625,0.84375 z m 0,0"
                   id="path673" />
              </symbol>
              <symbol
                 overflow="visible"
                 id="symbol679">
                <path
                   style="stroke:none"
                   d=""
                   id="path677" />
              </symbol>
              <symbol
                 overflow="visible"
                 id="symbol683">
                <path
                   style="stroke:none"
                   d="m 2.328125,-4.4375 c 0,-0.1875 0,-0.1875 -0.203125,-0.1875 -0.453125,0.4375 -1.078125,0.4375 -1.359375,0.4375 v 0.25 c 0.15625,0 0.625,0 1,-0.1875 v 3.546875 c 0,0.234375 0,0.328125 -0.6875,0.328125 H 0.8125 V 0 c 0.125,0 0.984375,-0.03125 1.234375,-0.03125 0.21875,0 1.09375,0.03125 1.25,0.03125 V -0.25 H 3.03125 c -0.703125,0 -0.703125,-0.09375 -0.703125,-0.328125 z m 0,0"
                   id="path681" />
              </symbol>
            </g>
          </defs>
          <g
             id="g701"
             transform="translate(-149.009,-130.359)"
             style="stroke-width:1.05832">
            <g
               style="fill:#000000;fill-opacity:1;stroke-width:1.05832"
               id="g693">
              <g
                 transform="translate(148.712,134.765)"
                 id="g691"
                 style="stroke-width:1.05832">
                <path
                   style="stroke:none;stroke-width:1.05832"
                   d="m 0.875,-0.59375 c -0.03125,0.15625 -0.09375,0.390625 -0.09375,0.4375 0,0.171875 0.140625,0.265625 0.296875,0.265625 0.125,0 0.296875,-0.078125 0.375,-0.28125 0,-0.015625 0.125,-0.484375 0.1875,-0.734375 l 0.21875,-0.890625 C 1.90625,-2.03125 1.96875,-2.25 2.03125,-2.46875 c 0.03125,-0.171875 0.109375,-0.46875 0.125,-0.5 0.140625,-0.3125 0.671875,-1.21875 1.625,-1.21875 0.453125,0 0.53125,0.375 0.53125,0.703125 0,0.25 -0.0625,0.53125 -0.140625,0.828125 L 3.890625,-1.5 3.6875,-0.75 c -0.03125,0.203125 -0.125,0.546875 -0.125,0.59375 0,0.171875 0.140625,0.265625 0.28125,0.265625 0.3125,0 0.375,-0.25 0.453125,-0.5625 0.140625,-0.5625 0.515625,-2.015625 0.59375,-2.40625 0.03125,-0.125 0.5625,-1.328125 1.65625,-1.328125 0.421875,0 0.53125,0.34375 0.53125,0.703125 0,0.5625 -0.421875,1.703125 -0.625,2.234375 -0.078125,0.234375 -0.125,0.34375 -0.125,0.546875 0,0.46875 0.34375,0.8125 0.8125,0.8125 0.9375,0 1.3125,-1.453125 1.3125,-1.53125 0,-0.109375 -0.09375,-0.109375 -0.125,-0.109375 -0.09375,0 -0.09375,0.03125 -0.140625,0.1875 -0.15625,0.53125 -0.46875,1.234375 -1.015625,1.234375 -0.171875,0 -0.25,-0.09375 -0.25,-0.328125 0,-0.25 0.09375,-0.484375 0.1875,-0.703125 0.1875,-0.53125 0.609375,-1.625 0.609375,-2.203125 0,-0.640625 -0.40625,-1.0625 -1.15625,-1.0625 -0.734375,0 -1.25,0.4375 -1.625,0.96875 0,-0.125 -0.03125,-0.46875 -0.3125,-0.703125 -0.25,-0.21875 -0.5625,-0.265625 -0.8125,-0.265625 -0.90625,0 -1.390625,0.640625 -1.5625,0.875 -0.046875,-0.578125 -0.46875,-0.875 -0.921875,-0.875 -0.453125,0 -0.640625,0.390625 -0.734375,0.5625 -0.171875,0.359375 -0.296875,0.9375 -0.296875,0.96875 0,0.109375 0.09375,0.109375 0.109375,0.109375 0.109375,0 0.109375,-0.015625 0.171875,-0.234375 0.171875,-0.703125 0.375,-1.1875 0.734375,-1.1875 0.15625,0 0.296875,0.078125 0.296875,0.453125 0,0.21875 -0.03125,0.328125 -0.15625,0.84375 z m 0,0"
                   id="path689" />
              </g>
            </g>
            <g
               style="fill:#000000;fill-opacity:1;stroke-width:1.05832"
               id="g699">
              <g
                 transform="translate(157.46,136.259)"
                 id="g697"
                 style="stroke-width:1.05832">
                <path
                   style="stroke:none;stroke-width:1.05832"
                   d="m 2.328125,-4.4375 c 0,-0.1875 0,-0.1875 -0.203125,-0.1875 -0.453125,0.4375 -1.078125,0.4375 -1.359375,0.4375 v 0.25 c 0.15625,0 0.625,0 1,-0.1875 v 3.546875 c 0,0.234375 0,0.328125 -0.6875,0.328125 H 0.8125 V 0 c 0.125,0 0.984375,-0.03125 1.234375,-0.03125 0.21875,0 1.09375,0.03125 1.25,0.03125 V -0.25 H 3.03125 c -0.703125,0 -0.703125,-0.09375 -0.703125,-0.328125 z m 0,0"
                   id="path695" />
              </g>
            </g>
          </g>
        </g>
        <g
           transform="matrix(0.66682098,0,0,0.66653462,182.57141,56.059011)"
           ns1:version="1.8.2"
           ns1:texconverter="pdflatex"
           ns1:pdfconverter="inkscape"
           ns1:text="$m_2$"
           ns1:preamble="/home/mpnerem/.config/inkscape/extensions/textext/default_packages.tex"
           ns1:scale="2.0"
           ns1:alignment="middle center"
           ns1:stroke-to-path="0"
           ns1:inkscapeversion="1.2.1"
           ns1:jacobian_sqrt="0.705556"
           id="g739"
           style="stroke-width:1.05832">
          <defs
             id="defs723">
            <g
               id="g721">
              <symbol
                 overflow="visible"
                 id="symbol707">
                <path
                   style="stroke:none"
                   d=""
                   id="path705" />
              </symbol>
              <symbol
                 overflow="visible"
                 id="symbol711">
                <path
                   style="stroke:none"
                   d="m 0.875,-0.59375 c -0.03125,0.15625 -0.09375,0.390625 -0.09375,0.4375 0,0.171875 0.140625,0.265625 0.296875,0.265625 0.125,0 0.296875,-0.078125 0.375,-0.28125 0,-0.015625 0.125,-0.484375 0.1875,-0.734375 l 0.21875,-0.890625 C 1.90625,-2.03125 1.96875,-2.25 2.03125,-2.46875 c 0.03125,-0.171875 0.109375,-0.46875 0.125,-0.5 0.140625,-0.3125 0.671875,-1.21875 1.625,-1.21875 0.453125,0 0.53125,0.375 0.53125,0.703125 0,0.25 -0.0625,0.53125 -0.140625,0.828125 L 3.890625,-1.5 3.6875,-0.75 c -0.03125,0.203125 -0.125,0.546875 -0.125,0.59375 0,0.171875 0.140625,0.265625 0.28125,0.265625 0.3125,0 0.375,-0.25 0.453125,-0.5625 0.140625,-0.5625 0.515625,-2.015625 0.59375,-2.40625 0.03125,-0.125 0.5625,-1.328125 1.65625,-1.328125 0.421875,0 0.53125,0.34375 0.53125,0.703125 0,0.5625 -0.421875,1.703125 -0.625,2.234375 -0.078125,0.234375 -0.125,0.34375 -0.125,0.546875 0,0.46875 0.34375,0.8125 0.8125,0.8125 0.9375,0 1.3125,-1.453125 1.3125,-1.53125 0,-0.109375 -0.09375,-0.109375 -0.125,-0.109375 -0.09375,0 -0.09375,0.03125 -0.140625,0.1875 -0.15625,0.53125 -0.46875,1.234375 -1.015625,1.234375 -0.171875,0 -0.25,-0.09375 -0.25,-0.328125 0,-0.25 0.09375,-0.484375 0.1875,-0.703125 0.1875,-0.53125 0.609375,-1.625 0.609375,-2.203125 0,-0.640625 -0.40625,-1.0625 -1.15625,-1.0625 -0.734375,0 -1.25,0.4375 -1.625,0.96875 0,-0.125 -0.03125,-0.46875 -0.3125,-0.703125 -0.25,-0.21875 -0.5625,-0.265625 -0.8125,-0.265625 -0.90625,0 -1.390625,0.640625 -1.5625,0.875 -0.046875,-0.578125 -0.46875,-0.875 -0.921875,-0.875 -0.453125,0 -0.640625,0.390625 -0.734375,0.5625 -0.171875,0.359375 -0.296875,0.9375 -0.296875,0.96875 0,0.109375 0.09375,0.109375 0.109375,0.109375 0.109375,0 0.109375,-0.015625 0.171875,-0.234375 0.171875,-0.703125 0.375,-1.1875 0.734375,-1.1875 0.15625,0 0.296875,0.078125 0.296875,0.453125 0,0.21875 -0.03125,0.328125 -0.15625,0.84375 z m 0,0"
                   id="path709" />
              </symbol>
              <symbol
                 overflow="visible"
                 id="symbol715">
                <path
                   style="stroke:none"
                   d=""
                   id="path713" />
              </symbol>
              <symbol
                 overflow="visible"
                 id="symbol719">
                <path
                   style="stroke:none"
                   d="M 3.515625,-1.265625 H 3.28125 c -0.015625,0.15625 -0.09375,0.5625 -0.1875,0.625 C 3.046875,-0.59375 2.515625,-0.59375 2.40625,-0.59375 H 1.125 c 0.734375,-0.640625 0.984375,-0.84375 1.390625,-1.171875 0.515625,-0.40625 1,-0.84375 1,-1.5 0,-0.84375 -0.734375,-1.359375 -1.625,-1.359375 -0.859375,0 -1.453125,0.609375 -1.453125,1.25 0,0.34375 0.296875,0.390625 0.375,0.390625 0.15625,0 0.359375,-0.125 0.359375,-0.375 0,-0.125 -0.046875,-0.375 -0.40625,-0.375 C 0.984375,-4.21875 1.453125,-4.375 1.78125,-4.375 c 0.703125,0 1.0625,0.546875 1.0625,1.109375 0,0.609375 -0.4375,1.078125 -0.65625,1.328125 L 0.515625,-0.265625 C 0.4375,-0.203125 0.4375,-0.1875 0.4375,0 h 2.875 z m 0,0"
                   id="path717" />
              </symbol>
            </g>
          </defs>
          <g
             id="g737"
             transform="translate(-149.009,-130.359)"
             style="stroke-width:1.05832">
            <g
               style="fill:#000000;fill-opacity:1;stroke-width:1.05832"
               id="g729">
              <g
                 transform="translate(148.712,134.765)"
                 id="g727"
                 style="stroke-width:1.05832">
                <path
                   style="stroke:none;stroke-width:1.05832"
                   d="m 0.875,-0.59375 c -0.03125,0.15625 -0.09375,0.390625 -0.09375,0.4375 0,0.171875 0.140625,0.265625 0.296875,0.265625 0.125,0 0.296875,-0.078125 0.375,-0.28125 0,-0.015625 0.125,-0.484375 0.1875,-0.734375 l 0.21875,-0.890625 C 1.90625,-2.03125 1.96875,-2.25 2.03125,-2.46875 c 0.03125,-0.171875 0.109375,-0.46875 0.125,-0.5 0.140625,-0.3125 0.671875,-1.21875 1.625,-1.21875 0.453125,0 0.53125,0.375 0.53125,0.703125 0,0.25 -0.0625,0.53125 -0.140625,0.828125 L 3.890625,-1.5 3.6875,-0.75 c -0.03125,0.203125 -0.125,0.546875 -0.125,0.59375 0,0.171875 0.140625,0.265625 0.28125,0.265625 0.3125,0 0.375,-0.25 0.453125,-0.5625 0.140625,-0.5625 0.515625,-2.015625 0.59375,-2.40625 0.03125,-0.125 0.5625,-1.328125 1.65625,-1.328125 0.421875,0 0.53125,0.34375 0.53125,0.703125 0,0.5625 -0.421875,1.703125 -0.625,2.234375 -0.078125,0.234375 -0.125,0.34375 -0.125,0.546875 0,0.46875 0.34375,0.8125 0.8125,0.8125 0.9375,0 1.3125,-1.453125 1.3125,-1.53125 0,-0.109375 -0.09375,-0.109375 -0.125,-0.109375 -0.09375,0 -0.09375,0.03125 -0.140625,0.1875 -0.15625,0.53125 -0.46875,1.234375 -1.015625,1.234375 -0.171875,0 -0.25,-0.09375 -0.25,-0.328125 0,-0.25 0.09375,-0.484375 0.1875,-0.703125 0.1875,-0.53125 0.609375,-1.625 0.609375,-2.203125 0,-0.640625 -0.40625,-1.0625 -1.15625,-1.0625 -0.734375,0 -1.25,0.4375 -1.625,0.96875 0,-0.125 -0.03125,-0.46875 -0.3125,-0.703125 -0.25,-0.21875 -0.5625,-0.265625 -0.8125,-0.265625 -0.90625,0 -1.390625,0.640625 -1.5625,0.875 -0.046875,-0.578125 -0.46875,-0.875 -0.921875,-0.875 -0.453125,0 -0.640625,0.390625 -0.734375,0.5625 -0.171875,0.359375 -0.296875,0.9375 -0.296875,0.96875 0,0.109375 0.09375,0.109375 0.109375,0.109375 0.109375,0 0.109375,-0.015625 0.171875,-0.234375 0.171875,-0.703125 0.375,-1.1875 0.734375,-1.1875 0.15625,0 0.296875,0.078125 0.296875,0.453125 0,0.21875 -0.03125,0.328125 -0.15625,0.84375 z m 0,0"
                   id="path725" />
              </g>
            </g>
            <g
               style="fill:#000000;fill-opacity:1;stroke-width:1.05832"
               id="g735">
              <g
                 transform="translate(157.46,136.259)"
                 id="g733"
                 style="stroke-width:1.05832">
                <path
                   style="stroke:none;stroke-width:1.05832"
                   d="M 3.515625,-1.265625 H 3.28125 c -0.015625,0.15625 -0.09375,0.5625 -0.1875,0.625 C 3.046875,-0.59375 2.515625,-0.59375 2.40625,-0.59375 H 1.125 c 0.734375,-0.640625 0.984375,-0.84375 1.390625,-1.171875 0.515625,-0.40625 1,-0.84375 1,-1.5 0,-0.84375 -0.734375,-1.359375 -1.625,-1.359375 -0.859375,0 -1.453125,0.609375 -1.453125,1.25 0,0.34375 0.296875,0.390625 0.375,0.390625 0.15625,0 0.359375,-0.125 0.359375,-0.375 0,-0.125 -0.046875,-0.375 -0.40625,-0.375 C 0.984375,-4.21875 1.453125,-4.375 1.78125,-4.375 c 0.703125,0 1.0625,0.546875 1.0625,1.109375 0,0.609375 -0.4375,1.078125 -0.65625,1.328125 L 0.515625,-0.265625 C 0.4375,-0.203125 0.4375,-0.1875 0.4375,0 h 2.875 z m 0,0"
                   id="path731" />
              </g>
            </g>
          </g>
        </g>
        <path
           style="fill:none;stroke:#000000;stroke-width:0.264583px;stroke-linecap:butt;stroke-linejoin:miter;stroke-opacity:1;marker-start:url(#Arrow1L);marker-end:url(#Arrow1L)"
           d="m 142.74363,79.950262 26.4723,-0.08124"
           id="path741"
           sodipodi:nodetypes="cc" />
        <g
           transform="matrix(0.666821,0,0,0.666535,153.26223,74.7514)"
           ns1:version="1.8.2"
           ns1:texconverter="pdflatex"
           ns1:pdfconverter="inkscape"
           ns1:text="$\\rho_1$"
           ns1:preamble="/home/mpnerem/.config/inkscape/extensions/textext/default_packages.tex"
           ns1:scale="1.8897941045781548"
           ns1:alignment="middle center"
           ns1:stroke-to-path="0"
           ns1:inkscapeversion="1.2.1"
           ns1:jacobian_sqrt="0.6666779846635106"
           style="stroke-width:0"
           id="g777">
          <defs
             id="defs761"
             style="stroke-width:0">
            <g
               id="g759"
               style="stroke-width:0">
              <symbol
                 overflow="visible"
                 id="symbol745"
                 style="stroke-width:0">
                <path
                   style="stroke:none;stroke-width:0"
                   d=""
                   id="path743" />
              </symbol>
              <symbol
                 overflow="visible"
                 id="symbol749"
                 style="stroke-width:0">
                <path
                   style="stroke:none;stroke-width:0"
                   d="m 0.328125,1.71875 c -0.03125,0.125 -0.03125,0.140625 -0.03125,0.171875 0,0.140625 0.109375,0.265625 0.28125,0.265625 0.203125,0 0.328125,-0.1875 0.34375,-0.21875 0.0625,-0.078125 0.375,-1.421875 0.640625,-2.5 0.203125,0.40625 0.515625,0.671875 0.984375,0.671875 C 3.71875,0.109375 5,-1.296875 5,-2.78125 c 0,-1.0625 -0.65625,-1.625 -1.375,-1.625 -0.96875,0 -2.015625,1 -2.3125,2.21875 z m 2.21875,-1.828125 C 1.84375,-0.109375 1.6875,-0.90625 1.6875,-1 c 0,-0.03125 0.046875,-0.234375 0.078125,-0.359375 0.28125,-1.125 0.375,-1.484375 0.59375,-1.875 0.4375,-0.734375 0.9375,-0.953125 1.234375,-0.953125 0.375,0 0.6875,0.296875 0.6875,0.984375 0,0.546875 -0.28125,1.65625 -0.546875,2.140625 -0.328125,0.640625 -0.8125,0.953125 -1.1875,0.953125 z m 0,0"
                   id="path747" />
              </symbol>
              <symbol
                 overflow="visible"
                 id="symbol753"
                 style="stroke-width:0">
                <path
                   style="stroke:none;stroke-width:0"
                   d=""
                   id="path751" />
              </symbol>
              <symbol
                 overflow="visible"
                 id="symbol757"
                 style="stroke-width:0">
                <path
                   style="stroke:none;stroke-width:0"
                   d="m 2.328125,-4.4375 c 0,-0.1875 0,-0.1875 -0.203125,-0.1875 -0.453125,0.4375 -1.078125,0.4375 -1.359375,0.4375 v 0.25 c 0.15625,0 0.625,0 1,-0.1875 v 3.546875 c 0,0.234375 0,0.328125 -0.6875,0.328125 H 0.8125 V 0 c 0.125,0 0.984375,-0.03125 1.234375,-0.03125 0.21875,0 1.09375,0.03125 1.25,0.03125 V -0.25 H 3.03125 c -0.703125,0 -0.703125,-0.09375 -0.703125,-0.328125 z m 0,0"
                   id="path755" />
              </symbol>
            </g>
          </defs>
          <g
             id="g775"
             transform="translate(-149.009,-130.359)"
             style="stroke-width:0">
            <g
               style="fill:#000000;fill-opacity:1;stroke-width:0"
               id="g767">
              <g
                 transform="translate(148.712,134.765)"
                 style="stroke-width:0"
                 id="g765">
                <path
                   style="stroke:none;stroke-width:0"
                   d="m 0.328125,1.71875 c -0.03125,0.125 -0.03125,0.140625 -0.03125,0.171875 0,0.140625 0.109375,0.265625 0.28125,0.265625 0.203125,0 0.328125,-0.1875 0.34375,-0.21875 0.0625,-0.078125 0.375,-1.421875 0.640625,-2.5 0.203125,0.40625 0.515625,0.671875 0.984375,0.671875 C 3.71875,0.109375 5,-1.296875 5,-2.78125 c 0,-1.0625 -0.65625,-1.625 -1.375,-1.625 -0.96875,0 -2.015625,1 -2.3125,2.21875 z m 2.21875,-1.828125 C 1.84375,-0.109375 1.6875,-0.90625 1.6875,-1 c 0,-0.03125 0.046875,-0.234375 0.078125,-0.359375 0.28125,-1.125 0.375,-1.484375 0.59375,-1.875 0.4375,-0.734375 0.9375,-0.953125 1.234375,-0.953125 0.375,0 0.6875,0.296875 0.6875,0.984375 0,0.546875 -0.28125,1.65625 -0.546875,2.140625 -0.328125,0.640625 -0.8125,0.953125 -1.1875,0.953125 z m 0,0"
                   id="path763" />
              </g>
            </g>
            <g
               style="fill:#000000;fill-opacity:1;stroke-width:0"
               id="g773">
              <g
                 transform="translate(153.863,136.259)"
                 style="stroke-width:0"
                 id="g771">
                <path
                   style="stroke:none;stroke-width:0"
                   d="m 2.328125,-4.4375 c 0,-0.1875 0,-0.1875 -0.203125,-0.1875 -0.453125,0.4375 -1.078125,0.4375 -1.359375,0.4375 v 0.25 c 0.15625,0 0.625,0 1,-0.1875 v 3.546875 c 0,0.234375 0,0.328125 -0.6875,0.328125 H 0.8125 V 0 c 0.125,0 0.984375,-0.03125 1.234375,-0.03125 0.21875,0 1.09375,0.03125 1.25,0.03125 V -0.25 H 3.03125 c -0.703125,0 -0.703125,-0.09375 -0.703125,-0.328125 z m 0,0"
                   id="path769" />
              </g>
            </g>
          </g>
        </g>
        <path
           style="fill:none;stroke:#000000;stroke-width:0.264583px;stroke-linecap:butt;stroke-linejoin:miter;stroke-opacity:1;marker-start:url(#Arrow1L);marker-end:url(#Arrow1L)"
           d="m 172.377,71.483593 13.48572,-0.08124"
           id="path779"
           sodipodi:nodetypes="cc" />
        <g
           transform="matrix(0.666821,0,0,0.666535,176.32938,72.14122)"
           ns1:version="1.8.2"
           ns1:texconverter="pdflatex"
           ns1:pdfconverter="inkscape"
           ns1:text="$\\rho_2$"
           ns1:preamble="/home/mpnerem/.config/inkscape/extensions/textext/default_packages.tex"
           ns1:scale="1.8897941045781548"
           ns1:alignment="middle center"
           ns1:stroke-to-path="0"
           ns1:inkscapeversion="1.2.1"
           ns1:jacobian_sqrt="0.6666779846635106"
           style="stroke-width:0"
           id="g815">
          <defs
             id="defs799"
             style="stroke-width:0">
            <g
               id="g797"
               style="stroke-width:0">
              <symbol
                 overflow="visible"
                 id="symbol783"
                 style="stroke-width:0">
                <path
                   style="stroke:none;stroke-width:0"
                   d=""
                   id="path781" />
              </symbol>
              <symbol
                 overflow="visible"
                 id="symbol787"
                 style="stroke-width:0">
                <path
                   style="stroke:none;stroke-width:0"
                   d="m 0.328125,1.71875 c -0.03125,0.125 -0.03125,0.140625 -0.03125,0.171875 0,0.140625 0.109375,0.265625 0.28125,0.265625 0.203125,0 0.328125,-0.1875 0.34375,-0.21875 0.0625,-0.078125 0.375,-1.421875 0.640625,-2.5 0.203125,0.40625 0.515625,0.671875 0.984375,0.671875 C 3.71875,0.109375 5,-1.296875 5,-2.78125 c 0,-1.0625 -0.65625,-1.625 -1.375,-1.625 -0.96875,0 -2.015625,1 -2.3125,2.21875 z m 2.21875,-1.828125 C 1.84375,-0.109375 1.6875,-0.90625 1.6875,-1 c 0,-0.03125 0.046875,-0.234375 0.078125,-0.359375 0.28125,-1.125 0.375,-1.484375 0.59375,-1.875 0.4375,-0.734375 0.9375,-0.953125 1.234375,-0.953125 0.375,0 0.6875,0.296875 0.6875,0.984375 0,0.546875 -0.28125,1.65625 -0.546875,2.140625 -0.328125,0.640625 -0.8125,0.953125 -1.1875,0.953125 z m 0,0"
                   id="path785" />
              </symbol>
              <symbol
                 overflow="visible"
                 id="symbol791"
                 style="stroke-width:0">
                <path
                   style="stroke:none;stroke-width:0"
                   d=""
                   id="path789" />
              </symbol>
              <symbol
                 overflow="visible"
                 id="symbol795"
                 style="stroke-width:0">
                <path
                   style="stroke:none;stroke-width:0"
                   d="M 3.515625,-1.265625 H 3.28125 c -0.015625,0.15625 -0.09375,0.5625 -0.1875,0.625 C 3.046875,-0.59375 2.515625,-0.59375 2.40625,-0.59375 H 1.125 c 0.734375,-0.640625 0.984375,-0.84375 1.390625,-1.171875 0.515625,-0.40625 1,-0.84375 1,-1.5 0,-0.84375 -0.734375,-1.359375 -1.625,-1.359375 -0.859375,0 -1.453125,0.609375 -1.453125,1.25 0,0.34375 0.296875,0.390625 0.375,0.390625 0.15625,0 0.359375,-0.125 0.359375,-0.375 0,-0.125 -0.046875,-0.375 -0.40625,-0.375 C 0.984375,-4.21875 1.453125,-4.375 1.78125,-4.375 c 0.703125,0 1.0625,0.546875 1.0625,1.109375 0,0.609375 -0.4375,1.078125 -0.65625,1.328125 L 0.515625,-0.265625 C 0.4375,-0.203125 0.4375,-0.1875 0.4375,0 h 2.875 z m 0,0"
                   id="path793" />
              </symbol>
            </g>
          </defs>
          <g
             id="g813"
             transform="translate(-149.009,-130.359)"
             style="stroke-width:0">
            <g
               style="fill:#000000;fill-opacity:1;stroke-width:0"
               id="g805">
              <g
                 transform="translate(148.712,134.765)"
                 style="stroke-width:0"
                 id="g803">
                <path
                   style="stroke:none;stroke-width:0"
                   d="m 0.328125,1.71875 c -0.03125,0.125 -0.03125,0.140625 -0.03125,0.171875 0,0.140625 0.109375,0.265625 0.28125,0.265625 0.203125,0 0.328125,-0.1875 0.34375,-0.21875 0.0625,-0.078125 0.375,-1.421875 0.640625,-2.5 0.203125,0.40625 0.515625,0.671875 0.984375,0.671875 C 3.71875,0.109375 5,-1.296875 5,-2.78125 c 0,-1.0625 -0.65625,-1.625 -1.375,-1.625 -0.96875,0 -2.015625,1 -2.3125,2.21875 z m 2.21875,-1.828125 C 1.84375,-0.109375 1.6875,-0.90625 1.6875,-1 c 0,-0.03125 0.046875,-0.234375 0.078125,-0.359375 0.28125,-1.125 0.375,-1.484375 0.59375,-1.875 0.4375,-0.734375 0.9375,-0.953125 1.234375,-0.953125 0.375,0 0.6875,0.296875 0.6875,0.984375 0,0.546875 -0.28125,1.65625 -0.546875,2.140625 -0.328125,0.640625 -0.8125,0.953125 -1.1875,0.953125 z m 0,0"
                   id="path801" />
              </g>
            </g>
            <g
               style="fill:#000000;fill-opacity:1;stroke-width:0"
               id="g811">
              <g
                 transform="translate(153.863,136.259)"
                 style="stroke-width:0"
                 id="g809">
                <path
                   style="stroke:none;stroke-width:0"
                   d="M 3.515625,-1.265625 H 3.28125 c -0.015625,0.15625 -0.09375,0.5625 -0.1875,0.625 C 3.046875,-0.59375 2.515625,-0.59375 2.40625,-0.59375 H 1.125 c 0.734375,-0.640625 0.984375,-0.84375 1.390625,-1.171875 0.515625,-0.40625 1,-0.84375 1,-1.5 0,-0.84375 -0.734375,-1.359375 -1.625,-1.359375 -0.859375,0 -1.453125,0.609375 -1.453125,1.25 0,0.34375 0.296875,0.390625 0.375,0.390625 0.15625,0 0.359375,-0.125 0.359375,-0.375 0,-0.125 -0.046875,-0.375 -0.40625,-0.375 C 0.984375,-4.21875 1.453125,-4.375 1.78125,-4.375 c 0.703125,0 1.0625,0.546875 1.0625,1.109375 0,0.609375 -0.4375,1.078125 -0.65625,1.328125 L 0.515625,-0.265625 C 0.4375,-0.203125 0.4375,-0.1875 0.4375,0 h 2.875 z m 0,0"
                   id="path807" />
              </g>
            </g>
          </g>
        </g>
      </g>
    </g>
  </g>
</svg>
