<?xml version="1.0" encoding="UTF-8" standalone="no"?>
<!-- Created with Inkscape (http://www.inkscape.org/) -->

<svg
   width="73.931053mm"
   height="65.609238mm"
   viewBox="0 0 73.931053 65.609238"
   version="1.1"
   id="svg5"
   sodipodi:docname="rotating-bobbin.svg"
   inkscape:version="1.2.1 (1:1.2.1+202210291244+9c6d41e410)"
   xmlns:inkscape="http://www.inkscape.org/namespaces/inkscape"
   xmlns:sodipodi="http://sodipodi.sourceforge.net/DTD/sodipodi-0.dtd"
   xmlns="http://www.w3.org/2000/svg"
   xmlns:svg="http://www.w3.org/2000/svg"
   xmlns:ns1="http://www.iki.fi/pav/software/textext/">
  <sodipodi:namedview
     id="namedview7"
     pagecolor="#ffffff"
     bordercolor="#666666"
     borderopacity="1.0"
     inkscape:showpageshadow="2"
     inkscape:pageopacity="0.0"
     inkscape:pagecheckerboard="0"
     inkscape:deskcolor="#d1d1d1"
     inkscape:document-units="mm"
     showgrid="false"
     inkscape:zoom="1.1644042"
     inkscape:cx="134.4035"
     inkscape:cy="192.80246"
     inkscape:window-width="1920"
     inkscape:window-height="1035"
     inkscape:window-x="1920"
     inkscape:window-y="20"
     inkscape:window-maximized="1"
     inkscape:current-layer="layer1" />
  <defs
     id="defs2" />
  <g
     inkscape:label="Layer 1"
     inkscape:groupmode="layer"
     id="layer1"
     transform="translate(-33.193673,-60.159197)">
    <g
       id="g2217"
       transform="matrix(0.7685991,-0.44372119,0.44375089,0.76854765,-20.294874,51.382378)"
       style="stroke-width:1.1268">
      <rect
         style="fill:#333333;fill-opacity:1;stroke:#000000;stroke-width:0.281699;stroke-linecap:round;stroke-linejoin:round;stroke-dasharray:none"
         id="rect1449"
         width="23.359156"
         height="2.8177969"
         x="88.928818"
         y="80.91156"
         rx="1.0729939"
         ry="1.0730656" />
      <rect
         style="fill:#808080;stroke:none;stroke-width:0.281699;stroke-linecap:round;stroke-linejoin:round;stroke-dasharray:none"
         id="rect1141"
         width="41.644405"
         height="26.596754"
         x="48.426437"
         y="68.889786"
         rx="0.56039977"
         ry="0.21295828" />
      <ellipse
         style="fill:#808080;fill-opacity:1;stroke:#000000;stroke-width:0.281699;stroke-linecap:round;stroke-linejoin:round;stroke-dasharray:none"
         id="path184"
         cx="49.355938"
         cy="82.320457"
         rx="11.450122"
         ry="13.305667" />
      <path
         style="fill:#808080;fill-opacity:1;stroke:#000000;stroke-width:0.281699;stroke-linecap:round;stroke-linejoin:round;stroke-dasharray:none"
         id="circle898"
         sodipodi:type="arc"
         sodipodi:cx="89.136917"
         sodipodi:cy="82.320457"
         sodipodi:rx="9.9171295"
         sodipodi:ry="13.305667"
         sodipodi:start="4.712389"
         sodipodi:end="1.5707963"
         sodipodi:arc-type="arc"
         d="m 89.136917,69.014791 a 9.9171295,13.305667 0 0 1 9.91713,13.305666 9.9171295,13.305667 0 0 1 -9.91713,13.305667"
         sodipodi:open="true" />
      <path
         style="fill:none;stroke:#000000;stroke-width:0.298131px;stroke-linecap:butt;stroke-linejoin:miter;stroke-opacity:1"
         d="M 48.426436,69.022082 H 89.269209"
         id="path1014" />
      <path
         style="fill:none;stroke:#000000;stroke-width:0.298131px;stroke-linecap:butt;stroke-linejoin:miter;stroke-opacity:1"
         d="M 48.426436,95.618833 H 89.269209"
         id="path1018" />
      <circle
         style="fill:#000000;fill-opacity:1;stroke:#000000;stroke-width:0.281699;stroke-linecap:round;stroke-linejoin:round;stroke-dasharray:none"
         id="path1423"
         cx="48.558727"
         cy="82.320457"
         r="1.7305453" />
      <rect
         style="fill:#333333;fill-opacity:1;stroke:#000000;stroke-width:0.281699;stroke-linecap:round;stroke-linejoin:round;stroke-dasharray:none"
         id="rect1357"
         width="21.815884"
         height="2.8177969"
         x="28.030426"
         y="80.91156"
         rx="1.0729938"
         ry="1.0730656" />
      <path
         style="fill:none;fill-opacity:1;stroke:#ff7f2a;stroke-width:0.563398;stroke-linecap:round;stroke-linejoin:round;stroke-dasharray:none;stroke-opacity:1"
         id="path1474"
         sodipodi:type="arc"
         sodipodi:cx="62.678593"
         sodipodi:cy="82.320457"
         sodipodi:rx="9.9171295"
         sodipodi:ry="13.305667"
         sodipodi:start="4.712389"
         sodipodi:end="1.5707963"
         sodipodi:arc-type="arc"
         d="m 62.678593,69.014791 a 9.9171295,13.305667 0 0 1 9.917129,13.305666 9.9171295,13.305667 0 0 1 -9.917129,13.305667"
         sodipodi:open="true" />
      <path
         style="fill:none;fill-opacity:1;stroke:#ff7f2a;stroke-width:0.563398;stroke-linecap:round;stroke-linejoin:round;stroke-dasharray:none;stroke-opacity:1"
         id="path2202"
         sodipodi:type="arc"
         sodipodi:cx="67.970261"
         sodipodi:cy="82.320457"
         sodipodi:rx="9.9171295"
         sodipodi:ry="13.305667"
         sodipodi:start="4.712389"
         sodipodi:end="1.5707963"
         sodipodi:arc-type="arc"
         d="M 67.970261,69.014791 A 9.9171295,13.305667 0 0 1 77.88739,82.320457 9.9171295,13.305667 0 0 1 67.970261,95.626124"
         sodipodi:open="true" />
      <path
         style="fill:none;fill-opacity:1;stroke:#ff7f2a;stroke-width:0.563398;stroke-linecap:round;stroke-linejoin:round;stroke-dasharray:none;stroke-opacity:1"
         id="path2204"
         sodipodi:type="arc"
         sodipodi:cx="73.261925"
         sodipodi:cy="82.320457"
         sodipodi:rx="9.9171295"
         sodipodi:ry="13.305667"
         sodipodi:start="4.712389"
         sodipodi:end="0.77607713"
         sodipodi:arc-type="arc"
         d="m 73.261925,69.014791 a 9.9171295,13.305667 0 0 1 9.144446,8.156573 9.9171295,13.305667 0 0 1 -2.066919,14.469516"
         sodipodi:open="true" />
    </g>
    <path
       style="fill:none;stroke:#ff7f2a;stroke-width:0.5;stroke-linecap:round;stroke-linejoin:miter;stroke-dasharray:none;stroke-opacity:1"
       d="M 82.12012,86.144109 V 114.48381"
       id="path2219" />
    <rect
       style="fill:#666666;fill-opacity:1;stroke:#000000;stroke-width:0.499999;stroke-linecap:round;stroke-linejoin:round;stroke-dasharray:none;stroke-opacity:1"
       id="rect2609"
       width="14.29794"
       height="14.296984"
       x="74.971153"
       y="107.55718"
       rx="0.49735579"
       ry="0.18898819" />
    <g
       transform="matrix(0.93926977,0,0,0.9392069,78.289781,112.58536)"
       ns1:version="1.8.2"
       ns1:texconverter="pdflatex"
       ns1:pdfconverter="inkscape"
       ns1:text="$m$"
       ns1:preamble="/home/mpnerem/.config/inkscape/extensions/textext/default_packages.tex"
       ns1:scale="3.0"
       ns1:alignment="middle center"
       ns1:stroke-to-path="0"
       ns1:jacobian_sqrt="1.05833"
       id="g2656"
       style="stroke-width:1.1268">
      <defs
         id="id-ddf8f004-115d-4ac8-8454-0d7dc7bd8aff">
        <g
           id="id-15667761-ffe4-4f4d-9503-d6c37ef21f48">
          <symbol
             overflow="visible"
             id="id-1ffc7d55-9bcc-45f1-a86a-99e8a0b991fc">
            <path
               style="stroke:none"
               d=""
               id="id-2b35ccdc-0b38-4a9c-b5d0-71754334afd8" />
          </symbol>
          <symbol
             overflow="visible"
             id="id-a636ca05-1514-4a88-ac4c-d8e2fe5d4793">
            <path
               style="stroke:none"
               d="m 0.875,-0.59375 c -0.03125,0.15625 -0.09375,0.390625 -0.09375,0.4375 0,0.171875 0.140625,0.265625 0.296875,0.265625 0.125,0 0.296875,-0.078125 0.375,-0.28125 0,-0.015625 0.125,-0.484375 0.1875,-0.734375 l 0.21875,-0.890625 C 1.90625,-2.03125 1.96875,-2.25 2.03125,-2.46875 c 0.03125,-0.171875 0.109375,-0.46875 0.125,-0.5 0.140625,-0.3125 0.671875,-1.21875 1.625,-1.21875 0.453125,0 0.53125,0.375 0.53125,0.703125 0,0.25 -0.0625,0.53125 -0.140625,0.828125 L 3.890625,-1.5 3.6875,-0.75 c -0.03125,0.203125 -0.125,0.546875 -0.125,0.59375 0,0.171875 0.140625,0.265625 0.28125,0.265625 0.3125,0 0.375,-0.25 0.453125,-0.5625 0.140625,-0.5625 0.515625,-2.015625 0.59375,-2.40625 0.03125,-0.125 0.5625,-1.328125 1.65625,-1.328125 0.421875,0 0.53125,0.34375 0.53125,0.703125 0,0.5625 -0.421875,1.703125 -0.625,2.234375 -0.078125,0.234375 -0.125,0.34375 -0.125,0.546875 0,0.46875 0.34375,0.8125 0.8125,0.8125 0.9375,0 1.3125,-1.453125 1.3125,-1.53125 0,-0.109375 -0.09375,-0.109375 -0.125,-0.109375 -0.09375,0 -0.09375,0.03125 -0.140625,0.1875 -0.15625,0.53125 -0.46875,1.234375 -1.015625,1.234375 -0.171875,0 -0.25,-0.09375 -0.25,-0.328125 0,-0.25 0.09375,-0.484375 0.1875,-0.703125 0.1875,-0.53125 0.609375,-1.625 0.609375,-2.203125 0,-0.640625 -0.40625,-1.0625 -1.15625,-1.0625 -0.734375,0 -1.25,0.4375 -1.625,0.96875 0,-0.125 -0.03125,-0.46875 -0.3125,-0.703125 -0.25,-0.21875 -0.5625,-0.265625 -0.8125,-0.265625 -0.90625,0 -1.390625,0.640625 -1.5625,0.875 -0.046875,-0.578125 -0.46875,-0.875 -0.921875,-0.875 -0.453125,0 -0.640625,0.390625 -0.734375,0.5625 -0.171875,0.359375 -0.296875,0.9375 -0.296875,0.96875 0,0.109375 0.09375,0.109375 0.109375,0.109375 0.109375,0 0.109375,-0.015625 0.171875,-0.234375 0.171875,-0.703125 0.375,-1.1875 0.734375,-1.1875 0.15625,0 0.296875,0.078125 0.296875,0.453125 0,0.21875 -0.03125,0.328125 -0.15625,0.84375 z m 0,0"
               id="id-50e1c83a-3c96-4d09-8fe5-eac72cb57c95" />
          </symbol>
        </g>
      </defs>
      <g
         id="id-495bed22-069a-4549-852b-a8acea2ffb1e"
         transform="translate(-149.009,-130.359)"
         style="stroke-width:1.1268">
        <g
           style="fill:#000000;fill-opacity:1;stroke-width:1.1268"
           id="id-7c69c3a9-9396-49e8-93e8-6d63315210c9">
          <g
             transform="translate(148.712,134.765)"
             id="g2723"
             style="stroke-width:1.1268">
            <path
               style="stroke:none;stroke-width:1.1268"
               d="m 0.875,-0.59375 c -0.03125,0.15625 -0.09375,0.390625 -0.09375,0.4375 0,0.171875 0.140625,0.265625 0.296875,0.265625 0.125,0 0.296875,-0.078125 0.375,-0.28125 0,-0.015625 0.125,-0.484375 0.1875,-0.734375 l 0.21875,-0.890625 C 1.90625,-2.03125 1.96875,-2.25 2.03125,-2.46875 c 0.03125,-0.171875 0.109375,-0.46875 0.125,-0.5 0.140625,-0.3125 0.671875,-1.21875 1.625,-1.21875 0.453125,0 0.53125,0.375 0.53125,0.703125 0,0.25 -0.0625,0.53125 -0.140625,0.828125 L 3.890625,-1.5 3.6875,-0.75 c -0.03125,0.203125 -0.125,0.546875 -0.125,0.59375 0,0.171875 0.140625,0.265625 0.28125,0.265625 0.3125,0 0.375,-0.25 0.453125,-0.5625 0.140625,-0.5625 0.515625,-2.015625 0.59375,-2.40625 0.03125,-0.125 0.5625,-1.328125 1.65625,-1.328125 0.421875,0 0.53125,0.34375 0.53125,0.703125 0,0.5625 -0.421875,1.703125 -0.625,2.234375 -0.078125,0.234375 -0.125,0.34375 -0.125,0.546875 0,0.46875 0.34375,0.8125 0.8125,0.8125 0.9375,0 1.3125,-1.453125 1.3125,-1.53125 0,-0.109375 -0.09375,-0.109375 -0.125,-0.109375 -0.09375,0 -0.09375,0.03125 -0.140625,0.1875 -0.15625,0.53125 -0.46875,1.234375 -1.015625,1.234375 -0.171875,0 -0.25,-0.09375 -0.25,-0.328125 0,-0.25 0.09375,-0.484375 0.1875,-0.703125 0.1875,-0.53125 0.609375,-1.625 0.609375,-2.203125 0,-0.640625 -0.40625,-1.0625 -1.15625,-1.0625 -0.734375,0 -1.25,0.4375 -1.625,0.96875 0,-0.125 -0.03125,-0.46875 -0.3125,-0.703125 -0.25,-0.21875 -0.5625,-0.265625 -0.8125,-0.265625 -0.90625,0 -1.390625,0.640625 -1.5625,0.875 -0.046875,-0.578125 -0.46875,-0.875 -0.921875,-0.875 -0.453125,0 -0.640625,0.390625 -0.734375,0.5625 -0.171875,0.359375 -0.296875,0.9375 -0.296875,0.96875 0,0.109375 0.09375,0.109375 0.109375,0.109375 0.109375,0 0.109375,-0.015625 0.171875,-0.234375 0.171875,-0.703125 0.375,-1.1875 0.734375,-1.1875 0.15625,0 0.296875,0.078125 0.296875,0.453125 0,0.21875 -0.03125,0.328125 -0.15625,0.84375 z m 0,0"
               id="id-6af07ae0-003a-409a-9027-152919892275" />
          </g>
        </g>
      </g>
    </g>
  </g>
</svg>
