<?xml version="1.0" encoding="UTF-8" standalone="no"?>
<!-- Created with Inkscape (http://www.inkscape.org/) -->

<svg
   width="101.20345mm"
   height="46.625465mm"
   viewBox="0 0 101.20345 46.625465"
   version="1.1"
   id="svg5"
   sodipodi:docname="E-field-grid-points-sol.svg"
   inkscape:version="1.2 (1:1.2.1+202207142221+cd75a1ee6d)"
   xmlns:inkscape="http://www.inkscape.org/namespaces/inkscape"
   xmlns:sodipodi="http://sodipodi.sourceforge.net/DTD/sodipodi-0.dtd"
   xmlns="http://www.w3.org/2000/svg"
   xmlns:svg="http://www.w3.org/2000/svg"
   xmlns:ns1="http://www.iki.fi/pav/software/textext/">
  <sodipodi:namedview
     id="namedview7"
     pagecolor="#ffffff"
     bordercolor="#666666"
     borderopacity="1.0"
     inkscape:showpageshadow="2"
     inkscape:pageopacity="0.0"
     inkscape:pagecheckerboard="0"
     inkscape:deskcolor="#d1d1d1"
     inkscape:document-units="mm"
     showgrid="false"
     inkscape:zoom="2.2702612"
     inkscape:cx="153.50657"
     inkscape:cy="48.232336"
     inkscape:window-width="1920"
     inkscape:window-height="1025"
     inkscape:window-x="1920"
     inkscape:window-y="24"
     inkscape:window-maximized="1"
     inkscape:current-layer="layer1" />
  <defs
     id="defs2">
    <marker
       style="overflow:visible"
       id="TriangleStart"
       refX="0"
       refY="0"
       orient="auto-start-reverse"
       inkscape:stockid="TriangleStart"
       markerWidth="5.3244081"
       markerHeight="6.155385"
       viewBox="0 0 5.3244081 6.1553851"
       inkscape:isstock="true"
       inkscape:collect="always"
       preserveAspectRatio="xMidYMid">
      <path
         transform="scale(0.5)"
         d="M 5.77,0 -2.88,5 V -5 Z"
         id="path135" />
    </marker>
    <g
       id="id-fc103aae-b81e-48d0-a411-a78cdfd18809">
      <symbol
         overflow="visible"
         id="id-4d29ca52-c6c9-4829-b34e-8c32c0316c19">
        <path
           style="stroke:none;stroke-width:0"
           d=""
           id="id-fff8a9c8-dd57-4850-aba1-293816cfba23" />
      </symbol>
      <symbol
         overflow="visible"
         id="id-9705633e-4e10-4214-8553-a4ccb99b6b32">
        <path
           style="stroke:none;stroke-width:0"
           d="m 3.015625,-3.234375 h 0.96875 c 0.75,0 0.828125,0.15625 0.828125,0.4375 0,0.078125 0,0.1875 -0.0625,0.5 C 4.71875,-2.25 4.71875,-2.21875 4.71875,-2.1875 c 0,0.078125 0.0625,0.109375 0.109375,0.109375 0.109375,0 0.109375,-0.03125 0.15625,-0.203125 L 5.53125,-4.453125 C 5.5625,-4.5625 5.5625,-4.578125 5.5625,-4.609375 5.5625,-4.625 5.546875,-4.71875 5.4375,-4.71875 5.34375,-4.71875 5.328125,-4.671875 5.296875,-4.5 5.078125,-3.734375 4.859375,-3.546875 4,-3.546875 H 3.09375 l 0.640625,-2.53125 C 3.828125,-6.4375 3.84375,-6.46875 4.28125,-6.46875 h 1.3125 c 1.21875,0 1.453125,0.328125 1.453125,1.09375 0,0.234375 0,0.265625 -0.03125,0.546875 C 7,-4.703125 7,-4.6875 7,-4.65625 c 0,0.046875 0.03125,0.125 0.125,0.125 0.109375,0 0.109375,-0.0625 0.125,-0.25 L 7.453125,-6.515625 C 7.484375,-6.78125 7.4375,-6.78125 7.1875,-6.78125 H 2.296875 c -0.1875,0 -0.296875,0 -0.296875,0.203125 0,0.109375 0.09375,0.109375 0.28125,0.109375 0.375,0 0.65625,0 0.65625,0.171875 0,0.046875 0,0.0625 -0.0625,0.25 L 1.5625,-0.78125 c -0.09375,0.390625 -0.109375,0.46875 -0.90625,0.46875 -0.171875,0 -0.28125,0 -0.28125,0.1875 C 0.375,0 0.5,0 0.53125,0 0.8125,0 1.5625,-0.03125 1.84375,-0.03125 2.171875,-0.03125 3,0 3.328125,0 3.421875,0 3.53125,0 3.53125,-0.1875 3.53125,-0.265625 3.484375,-0.296875 3.484375,-0.296875 3.453125,-0.3125 3.421875,-0.3125 3.203125,-0.3125 c -0.21875,0 -0.265625,0 -0.515625,-0.015625 -0.296875,-0.03125 -0.328125,-0.078125 -0.328125,-0.203125 0,-0.015625 0,-0.078125 0.046875,-0.21875 z m 0,0"
           id="id-b7e1600b-4491-4a12-9963-bc656e43bc9c" />
      </symbol>
    </g>
    <g
       id="id-670ac241-70e1-4d4e-b641-75b139a20245">
      <symbol
         overflow="visible"
         id="id-466738f5-11d8-405f-8fde-a7bfbed780e4">
        <path
           style="stroke:none"
           d=""
           id="id-96181b3d-b65c-4a47-a8d2-3a9d468c4bc8" />
      </symbol>
      <symbol
         overflow="visible"
         id="id-53e3abc7-39d9-42e6-921e-ee564ed3ad9d">
        <path
           style="stroke:none"
           d="M 3.328125,-3.015625 C 3.390625,-3.265625 3.625,-4.1875 4.3125,-4.1875 c 0.046875,0 0.296875,0 0.5,0.125 C 4.53125,-4 4.34375,-3.765625 4.34375,-3.515625 c 0,0.15625 0.109375,0.34375 0.375,0.34375 0.21875,0 0.53125,-0.171875 0.53125,-0.578125 0,-0.515625 -0.578125,-0.65625 -0.921875,-0.65625 -0.578125,0 -0.921875,0.53125 -1.046875,0.75 -0.25,-0.65625 -0.78125,-0.75 -1.078125,-0.75 -1.03125,0 -1.609375,1.28125 -1.609375,1.53125 0,0.109375 0.109375,0.109375 0.125,0.109375 0.078125,0 0.109375,-0.03125 0.125,-0.109375 0.34375,-1.0625 1,-1.3125 1.34375,-1.3125 0.1875,0 0.53125,0.09375 0.53125,0.671875 0,0.3125 -0.171875,0.96875 -0.53125,2.375 -0.15625,0.609375 -0.515625,1.03125 -0.953125,1.03125 -0.0625,0 -0.28125,0 -0.5,-0.125 0.25,-0.0625 0.46875,-0.265625 0.46875,-0.546875 0,-0.265625 -0.21875,-0.34375 -0.359375,-0.34375 -0.3125,0 -0.546875,0.25 -0.546875,0.578125 0,0.453125 0.484375,0.65625 0.921875,0.65625 0.671875,0 1.03125,-0.703125 1.046875,-0.75 0.125,0.359375 0.484375,0.75 1.078125,0.75 1.03125,0 1.59375,-1.28125 1.59375,-1.53125 0,-0.109375 -0.078125,-0.109375 -0.109375,-0.109375 -0.09375,0 -0.109375,0.046875 -0.140625,0.109375 -0.328125,1.078125 -1,1.3125 -1.3125,1.3125 -0.390625,0 -0.546875,-0.3125 -0.546875,-0.65625 0,-0.21875 0.046875,-0.4375 0.15625,-0.875 z m 0,0"
           id="id-311db3b6-a8fe-4db5-a7ed-7e32a9c891c4" />
      </symbol>
    </g>
  </defs>
  <g
     inkscape:label="Layer 1"
     inkscape:groupmode="layer"
     id="layer1"
     transform="translate(-23.544184,-100.04902)">
    <rect
       style="fill:#ffffff;fill-opacity:1;stroke:none;stroke-width:0.264583;stroke-linecap:round;stroke-linejoin:round;stroke-dasharray:none"
       id="rect4192"
       width="100.92271"
       height="46.335865"
       x="23.684549"
       y="100.19382"
       rx="0.49735582"
       ry="0.18898818" />
    <path
       style="fill:none;stroke:#cccccc;stroke-width:0.264583px;stroke-linecap:butt;stroke-linejoin:miter;stroke-opacity:1"
       d="m 31.746423,102.19508 v 42.33334"
       id="path6335"
       sodipodi:nodetypes="cc" />
    <path
       style="fill:none;stroke:#cccccc;stroke-width:0.264583px;stroke-linecap:butt;stroke-linejoin:miter;stroke-opacity:1"
       d="M 26.454756,107.48675 H 121.65158"
       id="path6470"
       sodipodi:nodetypes="cc" />
    <path
       style="fill:none;stroke:#cccccc;stroke-width:0.264583px;stroke-linecap:butt;stroke-linejoin:miter;stroke-opacity:1"
       d="M 26.454756,112.77842 H 121.65158"
       id="path6472"
       sodipodi:nodetypes="cc" />
    <path
       style="fill:none;stroke:#cccccc;stroke-width:0.264583px;stroke-linecap:butt;stroke-linejoin:miter;stroke-opacity:1"
       d="M 26.454756,118.07009 H 121.65158"
       id="path6474"
       sodipodi:nodetypes="cc" />
    <path
       style="fill:none;stroke:#cccccc;stroke-width:0.264583px;stroke-linecap:butt;stroke-linejoin:miter;stroke-opacity:1"
       d="M 26.454756,123.36175 H 121.65158"
       id="path6476"
       sodipodi:nodetypes="cc" />
    <path
       style="fill:none;stroke:#cccccc;stroke-width:0.264583px;stroke-linecap:butt;stroke-linejoin:miter;stroke-opacity:1"
       d="M 26.454756,128.65342 H 121.65158"
       id="path6478"
       sodipodi:nodetypes="cc" />
    <path
       style="fill:none;stroke:#cccccc;stroke-width:0.264583px;stroke-linecap:butt;stroke-linejoin:miter;stroke-opacity:1"
       d="M 26.454756,139.23675 H 121.65158"
       id="path6482"
       sodipodi:nodetypes="cc" />
    <path
       style="fill:none;stroke:#cccccc;stroke-width:0.264583px;stroke-linecap:butt;stroke-linejoin:miter;stroke-opacity:1"
       d="M 26.454756,133.94509 H 121.65158"
       id="path18653"
       sodipodi:nodetypes="cc" />
    <path
       style="fill:none;stroke:#cccccc;stroke-width:0.264583px;stroke-linecap:butt;stroke-linejoin:miter;stroke-opacity:1"
       d="m 37.03809,102.19508 v 42.33334"
       id="path3356"
       sodipodi:nodetypes="cc" />
    <path
       style="fill:none;stroke:#cccccc;stroke-width:0.264583px;stroke-linecap:butt;stroke-linejoin:miter;stroke-opacity:1"
       d="m 42.329757,102.19508 v 42.33334"
       id="path3358"
       sodipodi:nodetypes="cc" />
    <path
       style="fill:none;stroke:#cccccc;stroke-width:0.264583px;stroke-linecap:butt;stroke-linejoin:miter;stroke-opacity:1"
       d="m 47.621424,102.19508 v 42.33334"
       id="path3360"
       sodipodi:nodetypes="cc" />
    <path
       style="fill:none;stroke:#cccccc;stroke-width:0.264583px;stroke-linecap:butt;stroke-linejoin:miter;stroke-opacity:1"
       d="m 52.913091,102.19508 v 42.33334"
       id="path3362"
       sodipodi:nodetypes="cc" />
    <path
       style="fill:none;stroke:#cccccc;stroke-width:0.264583px;stroke-linecap:butt;stroke-linejoin:miter;stroke-opacity:1"
       d="m 58.204758,102.19508 v 42.33334"
       id="path3364"
       sodipodi:nodetypes="cc" />
    <path
       style="fill:none;stroke:#000000;stroke-width:0.1;stroke-linecap:butt;stroke-linejoin:miter;stroke-opacity:1;stroke-dasharray:0.4,0.1;stroke-dashoffset:0"
       d="m 26.454756,133.94509 31.657198,-15.97698 8.863295,26.56031"
       id="path7533" />
    <path
       style="fill:none;stroke:#cccccc;stroke-width:0.264583px;stroke-linecap:butt;stroke-linejoin:miter;stroke-opacity:1"
       d="m 63.496425,102.19508 v 42.33334"
       id="path3366"
       sodipodi:nodetypes="cc" />
    <path
       style="fill:none;stroke:#cccccc;stroke-width:0.264583px;stroke-linecap:butt;stroke-linejoin:miter;stroke-opacity:1"
       d="m 68.808292,102.19508 v 42.33334"
       id="path3368"
       sodipodi:nodetypes="cc" />
    <path
       style="fill:none;stroke:#cccccc;stroke-width:0.264583px;stroke-linecap:butt;stroke-linejoin:miter;stroke-opacity:1"
       d="m 74.079759,102.19508 v 42.33334"
       id="path3370"
       sodipodi:nodetypes="cc" />
    <path
       style="fill:none;stroke:#cccccc;stroke-width:0.264583px;stroke-linecap:butt;stroke-linejoin:miter;stroke-opacity:1"
       d="m 79.371426,102.19508 v 42.33334"
       id="path3372"
       sodipodi:nodetypes="cc" />
    <path
       style="fill:none;stroke:#cccccc;stroke-width:0.264583px;stroke-linecap:butt;stroke-linejoin:miter;stroke-opacity:1"
       d="m 84.663093,102.19508 v 42.33334"
       id="path3374"
       sodipodi:nodetypes="cc" />
    <path
       style="fill:none;stroke:#cccccc;stroke-width:0.264583px;stroke-linecap:butt;stroke-linejoin:miter;stroke-opacity:1"
       d="m 89.95476,102.19508 v 42.33334"
       id="path3376"
       sodipodi:nodetypes="cc" />
    <path
       style="fill:none;stroke:#cccccc;stroke-width:0.264583px;stroke-linecap:butt;stroke-linejoin:miter;stroke-opacity:1"
       d="m 95.246427,102.19508 v 42.33334"
       id="path3378"
       sodipodi:nodetypes="cc" />
    <path
       style="fill:none;stroke:#cccccc;stroke-width:0.264583px;stroke-linecap:butt;stroke-linejoin:miter;stroke-opacity:1"
       d="m 100.53809,102.19508 v 42.33334"
       id="path3380"
       sodipodi:nodetypes="cc" />
    <path
       style="fill:none;stroke:#cccccc;stroke-width:0.264583px;stroke-linecap:butt;stroke-linejoin:miter;stroke-opacity:1"
       d="m 105.82976,102.19508 v 42.33334"
       id="path3382"
       sodipodi:nodetypes="cc" />
    <path
       style="fill:none;stroke:#cccccc;stroke-width:0.264583px;stroke-linecap:butt;stroke-linejoin:miter;stroke-opacity:1"
       d="m 111.12143,102.19508 v 42.33334"
       id="path3384"
       sodipodi:nodetypes="cc" />
    <path
       style="fill:none;stroke:#cccccc;stroke-width:0.264583px;stroke-linecap:butt;stroke-linejoin:miter;stroke-opacity:1"
       d="m 116.4131,102.19508 v 42.33334"
       id="path3386"
       sodipodi:nodetypes="cc" />
    <g
       id="g3995">
      <path
         style="fill:none;stroke:#cccccc;stroke-width:0.264583px;stroke-linecap:butt;stroke-linejoin:miter;stroke-opacity:1"
         d="M 26.454756,144.52842 H 121.65158"
         id="path6484"
         sodipodi:nodetypes="cc" />
      <path
         style="fill:none;stroke:#cccccc;stroke-width:0.264583px;stroke-linecap:butt;stroke-linejoin:miter;stroke-opacity:1"
         d="M 26.454756,102.19508 H 121.65158"
         id="path18971"
         sodipodi:nodetypes="cc" />
      <path
         style="fill:none;stroke:#cccccc;stroke-width:0.264583px;stroke-linecap:butt;stroke-linejoin:miter;stroke-opacity:1"
         d="m 121.70477,102.19508 v 42.33334"
         id="path3388"
         sodipodi:nodetypes="cc" />
      <path
         style="fill:none;stroke:#cccccc;stroke-width:0.264583px;stroke-linecap:butt;stroke-linejoin:miter;stroke-opacity:1"
         d="m 26.587047,102.19508 v 42.33334"
         id="path1533"
         sodipodi:nodetypes="cc" />
    </g>
    <circle
       style="fill:#000000;fill-opacity:1;stroke:#000000;stroke-width:0.264583;stroke-linecap:round;stroke-linejoin:round;stroke-dasharray:none"
       id="path3115"
       cx="37.03809"
       cy="128.65343"
       r="1.0278898" />
    <circle
       style="fill:#000000;fill-opacity:1;stroke:#000000;stroke-width:0.264583;stroke-linecap:round;stroke-linejoin:round;stroke-dasharray:none"
       id="circle3117"
       cx="63.496426"
       cy="133.94508"
       r="1.0278898" />
    <circle
       style="fill:#000000;fill-opacity:1;stroke:#000000;stroke-width:0.264583;stroke-linecap:round;stroke-linejoin:round;stroke-dasharray:none"
       id="circle3119"
       cx="89.954758"
       cy="107.44555"
       r="1.0278898" />
    <g
       transform="matrix(0.352778,0,0,0.352778,33.188027,124.74793)"
       ns1:version="1.8.2"
       ns1:texconverter="pdflatex"
       ns1:pdfconverter="inkscape"
       ns1:text="A"
       ns1:preamble="/home/physics/.config/inkscape/extensions/circuitSymbols/circuitSymbolsPreamble.tex"
       ns1:scale="1.0"
       ns1:alignment="middle center"
       ns1:stroke-to-path="0"
       ns1:inkscapeversion="1.2"
       ns1:jacobian_sqrt="0.352778"
       id="g3155">
      <defs
         id="id-2e69f878-f6d5-4bb6-88e0-f8512e149aaa">
        <g
           id="id-89133c79-d0ce-4e34-9d65-ee51794b64fc">
          <symbol
             overflow="visible"
             id="id-3ddcdecf-9a1b-4140-bf22-52123ee1b6c4">
            <path
               style="stroke:none"
               d=""
               id="id-9f1ad0d4-cd3b-446d-aa7b-b4b6e702448e" />
          </symbol>
          <symbol
             overflow="visible"
             id="id-70487911-cf4c-4245-8240-93861d5a7577">
            <path
               style="stroke:none"
               d="m 3.96875,-6.9375 c -0.046875,-0.125 -0.078125,-0.203125 -0.234375,-0.203125 -0.15625,0 -0.1875,0.0625 -0.234375,0.203125 L 1.4375,-0.984375 C 1.25,-0.46875 0.859375,-0.3125 0.3125,-0.3125 V 0 c 0.234375,-0.015625 0.671875,-0.03125 1.015625,-0.03125 0.3125,0 0.828125,0.015625 1.15625,0.03125 v -0.3125 c -0.5,0 -0.75,-0.25 -0.75,-0.5 0,-0.03125 0.015625,-0.140625 0.015625,-0.15625 L 2.21875,-2.265625 H 4.671875 L 5.203125,-0.75 c 0.015625,0.046875 0.03125,0.109375 0.03125,0.140625 0,0.296875 -0.5625,0.296875 -0.828125,0.296875 V 0 c 0.359375,-0.03125 1.0625,-0.03125 1.4375,-0.03125 0.421875,0 0.890625,0.015625 1.296875,0.03125 V -0.3125 H 6.96875 C 6.375,-0.3125 6.234375,-0.375 6.125,-0.703125 Z m -0.53125,1.109375 1.125,3.25 H 2.328125 Z m 0,0"
               id="id-6aafa858-30e7-407b-8a3e-23b128476bbe" />
          </symbol>
        </g>
      </defs>
      <g
         id="id-b5d29640-26ac-4a24-a933-665ca53e63d8"
         transform="translate(-149.025,-127.624)">
        <g
           style="fill:#000000;fill-opacity:1"
           id="id-8e18e85f-de47-4db9-9490-bf1d72641647">
          <g
             transform="translate(148.712,134.765)"
             id="g3346">
            <path
               style="stroke:none"
               d="m 3.96875,-6.9375 c -0.046875,-0.125 -0.078125,-0.203125 -0.234375,-0.203125 -0.15625,0 -0.1875,0.0625 -0.234375,0.203125 L 1.4375,-0.984375 C 1.25,-0.46875 0.859375,-0.3125 0.3125,-0.3125 V 0 c 0.234375,-0.015625 0.671875,-0.03125 1.015625,-0.03125 0.3125,0 0.828125,0.015625 1.15625,0.03125 v -0.3125 c -0.5,0 -0.75,-0.25 -0.75,-0.5 0,-0.03125 0.015625,-0.140625 0.015625,-0.15625 L 2.21875,-2.265625 H 4.671875 L 5.203125,-0.75 c 0.015625,0.046875 0.03125,0.109375 0.03125,0.140625 0,0.296875 -0.5625,0.296875 -0.828125,0.296875 V 0 c 0.359375,-0.03125 1.0625,-0.03125 1.4375,-0.03125 0.421875,0 0.890625,0.015625 1.296875,0.03125 V -0.3125 H 6.96875 C 6.375,-0.3125 6.234375,-0.375 6.125,-0.703125 Z m -0.53125,1.109375 1.125,3.25 H 2.328125 Z m 0,0"
               id="id-18d26f58-8ac5-408f-ad75-cb8ff8aeeb6c" />
          </g>
        </g>
      </g>
    </g>
    <g
       transform="matrix(0.352778,0,0,0.352778,59.770077,135.38945)"
       ns1:version="1.8.2"
       ns1:texconverter="pdflatex"
       ns1:pdfconverter="inkscape"
       ns1:text="B"
       ns1:preamble="/home/physics/.config/inkscape/extensions/circuitSymbols/circuitSymbolsPreamble.tex"
       ns1:scale="1.0"
       ns1:alignment="middle center"
       ns1:stroke-to-path="0"
       ns1:inkscapeversion="1.2"
       ns1:jacobian_sqrt="0.352778"
       id="g3385">
      <defs
         id="id-e34fd987-03d4-46f9-8c14-b15a038d74b5">
        <g
           id="id-886d5b6a-8448-4e7c-bbd0-0e8e9b96c2f4">
          <symbol
             overflow="visible"
             id="id-4bf6dff9-759c-4f75-88bf-4de8d950c225">
            <path
               style="stroke:none"
               d=""
               id="id-79624885-80a7-4e09-a32a-37b71843695f" />
          </symbol>
          <symbol
             overflow="visible"
             id="id-42a66a08-7b83-4cba-90c0-74d139f57e89">
            <path
               style="stroke:none"
               d="m 2.21875,-3.65625 v -2.4375 C 2.21875,-6.4375 2.234375,-6.5 2.703125,-6.5 H 3.9375 c 0.96875,0 1.3125,0.84375 1.3125,1.375 0,0.640625 -0.484375,1.46875 -1.59375,1.46875 z M 4.5625,-3.5625 C 5.53125,-3.75 6.21875,-4.390625 6.21875,-5.125 6.21875,-5.984375 5.296875,-6.8125 4,-6.8125 H 0.359375 V -6.5 H 0.59375 c 0.765625,0 0.796875,0.109375 0.796875,0.46875 v 5.25 c 0,0.359375 -0.03125,0.46875 -0.796875,0.46875 H 0.359375 V 0 h 3.90625 c 1.328125,0 2.21875,-0.890625 2.21875,-1.828125 0,-0.859375 -0.8125,-1.609375 -1.921875,-1.734375 z m -0.609375,3.25 h -1.25 c -0.46875,0 -0.484375,-0.0625 -0.484375,-0.390625 v -2.71875 h 1.875 C 5.078125,-3.421875 5.5,-2.5 5.5,-1.828125 5.5,-1.125 4.96875,-0.3125 3.953125,-0.3125 Z m 0,0"
               id="id-6556de9c-fac9-4d0a-b9c1-38103ce00bf9" />
          </symbol>
        </g>
      </defs>
      <g
         id="id-4ade8d20-2967-47b2-ac01-b36aae31ecc2"
         transform="translate(-149.071,-127.953)">
        <g
           style="fill:#000000;fill-opacity:1"
           id="id-3d21cbf2-1f29-4238-a32a-d027da467bca">
          <g
             transform="translate(148.712,134.765)"
             id="g3591">
            <path
               style="stroke:none"
               d="m 2.21875,-3.65625 v -2.4375 C 2.21875,-6.4375 2.234375,-6.5 2.703125,-6.5 H 3.9375 c 0.96875,0 1.3125,0.84375 1.3125,1.375 0,0.640625 -0.484375,1.46875 -1.59375,1.46875 z M 4.5625,-3.5625 C 5.53125,-3.75 6.21875,-4.390625 6.21875,-5.125 6.21875,-5.984375 5.296875,-6.8125 4,-6.8125 H 0.359375 V -6.5 H 0.59375 c 0.765625,0 0.796875,0.109375 0.796875,0.46875 v 5.25 c 0,0.359375 -0.03125,0.46875 -0.796875,0.46875 H 0.359375 V 0 h 3.90625 c 1.328125,0 2.21875,-0.890625 2.21875,-1.828125 0,-0.859375 -0.8125,-1.609375 -1.921875,-1.734375 z m -0.609375,3.25 h -1.25 c -0.46875,0 -0.484375,-0.0625 -0.484375,-0.390625 v -2.71875 h 1.875 C 5.078125,-3.421875 5.5,-2.5 5.5,-1.828125 5.5,-1.125 4.96875,-0.3125 3.953125,-0.3125 Z m 0,0"
               id="id-8927988f-a8c4-456c-9b40-04e8c34cf121" />
          </g>
        </g>
      </g>
    </g>
    <g
       transform="matrix(0.352778,0,0,0.352778,86.239745,103.14932)"
       ns1:version="1.8.2"
       ns1:texconverter="pdflatex"
       ns1:pdfconverter="inkscape"
       ns1:text="C"
       ns1:preamble="/home/physics/.config/inkscape/extensions/circuitSymbols/circuitSymbolsPreamble.tex"
       ns1:scale="1.0"
       ns1:alignment="middle center"
       ns1:stroke-to-path="0"
       ns1:inkscapeversion="1.2"
       ns1:jacobian_sqrt="0.352778"
       id="g3629">
      <defs
         id="id-90aab7d3-91b3-409a-8165-35988548a08d">
        <g
           id="id-079aa838-45f0-4724-b322-35ff43c342aa">
          <symbol
             overflow="visible"
             id="id-458900c7-2b1f-460f-9d86-19af6d99ec0c">
            <path
               style="stroke:none"
               d=""
               id="id-b21ce304-1fe1-4509-98c1-0e082761be1e" />
          </symbol>
          <symbol
             overflow="visible"
             id="id-20e6ede7-d715-4932-8ae2-46601f08a9a9">
            <path
               style="stroke:none"
               d="m 0.5625,-3.40625 c 0,2.0625 1.609375,3.625 3.46875,3.625 1.625,0 2.59375,-1.390625 2.59375,-2.546875 C 6.625,-2.421875 6.625,-2.5 6.5,-2.5 6.390625,-2.5 6.390625,-2.4375 6.375,-2.328125 6.296875,-0.90625 5.234375,-0.09375 4.140625,-0.09375 c -0.609375,0 -2.5625,-0.328125 -2.5625,-3.3125 0,-2.96875 1.953125,-3.3125 2.5625,-3.3125 1.078125,0 1.96875,0.90625 2.171875,2.359375 C 6.328125,-4.21875 6.328125,-4.1875 6.46875,-4.1875 6.625,-4.1875 6.625,-4.21875 6.625,-4.421875 V -6.78125 c 0,-0.171875 0,-0.25 -0.109375,-0.25 -0.03125,0 -0.078125,0 -0.15625,0.125 l -0.5,0.734375 C 5.5,-6.53125 4.984375,-7.03125 4.03125,-7.03125 c -1.875,0 -3.46875,1.59375 -3.46875,3.625 z m 0,0"
               id="id-c216ed97-783b-40c1-a5a8-1b7146f12b3e" />
          </symbol>
        </g>
      </defs>
      <g
         id="id-8ec535f1-2e50-49f9-b8ec-d5d4d144b343"
         transform="translate(-149.275,-127.734)">
        <g
           style="fill:#000000;fill-opacity:1"
           id="id-58262e12-80dd-4321-8509-4ced1fc9a79b">
          <g
             transform="translate(148.712,134.765)"
             id="g3857">
            <path
               style="stroke:none"
               d="m 0.5625,-3.40625 c 0,2.0625 1.609375,3.625 3.46875,3.625 1.625,0 2.59375,-1.390625 2.59375,-2.546875 C 6.625,-2.421875 6.625,-2.5 6.5,-2.5 6.390625,-2.5 6.390625,-2.4375 6.375,-2.328125 6.296875,-0.90625 5.234375,-0.09375 4.140625,-0.09375 c -0.609375,0 -2.5625,-0.328125 -2.5625,-3.3125 0,-2.96875 1.953125,-3.3125 2.5625,-3.3125 1.078125,0 1.96875,0.90625 2.171875,2.359375 C 6.328125,-4.21875 6.328125,-4.1875 6.46875,-4.1875 6.625,-4.1875 6.625,-4.21875 6.625,-4.421875 V -6.78125 c 0,-0.171875 0,-0.25 -0.109375,-0.25 -0.03125,0 -0.078125,0 -0.15625,0.125 l -0.5,0.734375 C 5.5,-6.53125 4.984375,-7.03125 4.03125,-7.03125 c -1.875,0 -3.46875,1.59375 -3.46875,3.625 z m 0,0"
               id="id-870aee44-6efb-42cb-9b9d-5eefa8641339" />
          </g>
        </g>
      </g>
    </g>
    <path
       style="fill:none;stroke:#000000;stroke-width:0.1;stroke-linecap:butt;stroke-linejoin:miter;stroke-opacity:1;stroke-dasharray:0.4,0.1;stroke-dashoffset:0"
       d="M 58.111954,117.96811 105.82976,102.19508"
       id="path7535" />
    <path
       style="fill:none;stroke:#000000;stroke-width:0.1;stroke-linecap:butt;stroke-linejoin:miter;stroke-opacity:1;stroke-dasharray:0.4,0.1;stroke-dashoffset:0"
       d="m 89.954759,102.19508 -0.131387,26.35636 -63.368616,0.10198"
       id="path7537" />
    <path
       style="fill:none;stroke:#000000;stroke-width:0.1;stroke-linecap:butt;stroke-linejoin:miter;stroke-opacity:1;stroke-dasharray:0.4,0.1;stroke-dashoffset:0"
       d="m 89.542252,128.72508 -47.080204,9.64944"
       id="path7539" />
    <circle
       style="fill:#dc5050;fill-opacity:1;stroke:#000000;stroke-width:0.264583;stroke-linecap:round;stroke-linejoin:round;stroke-dasharray:none"
       id="path977"
       cx="57.988251"
       cy="118.07008"
       r="3.3792224" />
    <g
       transform="matrix(0.352778,0,0,0.352778,56.910217,116.95121)"
       ns1:version="1.8.2"
       ns1:texconverter="pdflatex"
       ns1:pdfconverter="inkscape"
       ns1:text="$q_1$"
       ns1:preamble="/home/physics/.config/inkscape/extensions/circuitSymbols/circuitSymbolsPreamble.tex"
       ns1:scale="1.0"
       ns1:alignment="middle center"
       ns1:stroke-to-path="0"
       ns1:jacobian_sqrt="0.352778"
       id="g2475">
      <defs
         id="id-84d150fc-0ffc-42da-975b-6be6ebddb879">
        <g
           id="id-7190ebd2-19c3-4f80-97b3-ac5f7dd3ff90">
          <symbol
             overflow="visible"
             id="id-cfa1fbab-cf90-4d65-aa15-6d7d63e4768c">
            <path
               style="stroke:none"
               d=""
               id="id-04c4c2e5-8701-4822-b142-271958e21cd1" />
          </symbol>
          <symbol
             overflow="visible"
             id="id-e62a969c-957d-4618-a1b4-d40d1e74e139">
            <path
               style="stroke:none"
               d="m 4.5,-4.296875 c 0,-0.046875 -0.03125,-0.09375 -0.09375,-0.09375 -0.109375,0 -0.515625,0.390625 -0.671875,0.6875 C 3.515625,-4.25 3.125,-4.40625 2.796875,-4.40625 c -1.171875,0 -2.390625,1.46875 -2.390625,2.921875 0,0.96875 0.578125,1.59375 1.3125,1.59375 0.421875,0 0.8125,-0.234375 1.171875,-0.59375 -0.09375,0.34375 -0.421875,1.6875 -0.453125,1.78125 -0.078125,0.28125 -0.15625,0.3125 -0.71875,0.328125 -0.125,0 -0.21875,0 -0.21875,0.203125 0,0 0,0.109375 0.125,0.109375 0.3125,0 0.671875,-0.03125 1,-0.03125 0.328125,0 0.6875,0.03125 1.03125,0.03125 0.046875,0 0.171875,0 0.171875,-0.203125 C 3.828125,1.625 3.734375,1.625 3.5625,1.625 3.09375,1.625 3.09375,1.5625 3.09375,1.46875 3.09375,1.390625 3.109375,1.328125 3.125,1.25 Z m -2.75,4.1875 c -0.609375,0 -0.640625,-0.765625 -0.640625,-0.9375 0,-0.484375 0.28125,-1.5625 0.453125,-1.984375 0.3125,-0.734375 0.828125,-1.15625 1.234375,-1.15625 0.65625,0 0.796875,0.8125 0.796875,0.875 0,0.0625 -0.546875,2.25 -0.578125,2.28125 C 2.859375,-0.75 2.296875,-0.109375 1.75,-0.109375 Z m 0,0"
               id="id-3c07d9db-cbcc-4e76-b53a-12853c96d313" />
          </symbol>
          <symbol
             overflow="visible"
             id="id-d75965c8-f712-4380-86d9-47359855a6eb">
            <path
               style="stroke:none"
               d=""
               id="id-b084d22b-dc18-4fdf-bc66-5a2b12b075b8" />
          </symbol>
          <symbol
             overflow="visible"
             id="id-745782b3-30d1-45bd-9cd7-2518170f2b18">
            <path
               style="stroke:none"
               d="m 2.328125,-4.4375 c 0,-0.1875 0,-0.1875 -0.203125,-0.1875 -0.453125,0.4375 -1.078125,0.4375 -1.359375,0.4375 v 0.25 c 0.15625,0 0.625,0 1,-0.1875 v 3.546875 c 0,0.234375 0,0.328125 -0.6875,0.328125 H 0.8125 V 0 c 0.125,0 0.984375,-0.03125 1.234375,-0.03125 0.21875,0 1.09375,0.03125 1.25,0.03125 V -0.25 H 3.03125 c -0.703125,0 -0.703125,-0.09375 -0.703125,-0.328125 z m 0,0"
               id="id-110c85d4-7d69-42b0-a6c3-a13c4614b0a9" />
          </symbol>
        </g>
      </defs>
      <g
         id="id-93055da5-ce65-416e-b152-c4623d70e4c8"
         transform="translate(-149.118,-130.359)">
        <g
           style="fill:#000000;fill-opacity:1"
           id="id-cf02b49d-ab34-47c2-ba22-07035201983f">
          <g
             transform="translate(148.712,134.765)"
             id="g2654">
            <path
               style="stroke:none"
               d="m 4.5,-4.296875 c 0,-0.046875 -0.03125,-0.09375 -0.09375,-0.09375 -0.109375,0 -0.515625,0.390625 -0.671875,0.6875 C 3.515625,-4.25 3.125,-4.40625 2.796875,-4.40625 c -1.171875,0 -2.390625,1.46875 -2.390625,2.921875 0,0.96875 0.578125,1.59375 1.3125,1.59375 0.421875,0 0.8125,-0.234375 1.171875,-0.59375 -0.09375,0.34375 -0.421875,1.6875 -0.453125,1.78125 -0.078125,0.28125 -0.15625,0.3125 -0.71875,0.328125 -0.125,0 -0.21875,0 -0.21875,0.203125 0,0 0,0.109375 0.125,0.109375 0.3125,0 0.671875,-0.03125 1,-0.03125 0.328125,0 0.6875,0.03125 1.03125,0.03125 0.046875,0 0.171875,0 0.171875,-0.203125 C 3.828125,1.625 3.734375,1.625 3.5625,1.625 3.09375,1.625 3.09375,1.5625 3.09375,1.46875 3.09375,1.390625 3.109375,1.328125 3.125,1.25 Z m -2.75,4.1875 c -0.609375,0 -0.640625,-0.765625 -0.640625,-0.9375 0,-0.484375 0.28125,-1.5625 0.453125,-1.984375 0.3125,-0.734375 0.828125,-1.15625 1.234375,-1.15625 0.65625,0 0.796875,0.8125 0.796875,0.875 0,0.0625 -0.546875,2.25 -0.578125,2.28125 C 2.859375,-0.75 2.296875,-0.109375 1.75,-0.109375 Z m 0,0"
               id="id-e21d9069-ce70-41ec-897f-edb490fc50fd" />
          </g>
        </g>
        <g
           style="fill:#000000;fill-opacity:1"
           id="id-306a1826-dab5-4b49-a23f-e4166ce836ab">
          <g
             transform="translate(153.16,136.259)"
             id="g2658">
            <path
               style="stroke:none"
               d="m 2.328125,-4.4375 c 0,-0.1875 0,-0.1875 -0.203125,-0.1875 -0.453125,0.4375 -1.078125,0.4375 -1.359375,0.4375 v 0.25 c 0.15625,0 0.625,0 1,-0.1875 v 3.546875 c 0,0.234375 0,0.328125 -0.6875,0.328125 H 0.8125 V 0 c 0.125,0 0.984375,-0.03125 1.234375,-0.03125 0.21875,0 1.09375,0.03125 1.25,0.03125 V -0.25 H 3.03125 c -0.703125,0 -0.703125,-0.09375 -0.703125,-0.328125 z m 0,0"
               id="id-a1c174cd-cfa8-4520-a411-dd2cdeb81ef4" />
          </g>
        </g>
      </g>
    </g>
    <circle
       style="fill:#5092dc;fill-opacity:1;stroke:#000000;stroke-width:0.264583;stroke-linecap:round;stroke-linejoin:round;stroke-dasharray:none"
       id="circle2683"
       cx="90.087051"
       cy="128.65343"
       r="3.3792224" />
    <g
       transform="matrix(0.352778,0,0,0.352778,88.621634,127.53454)"
       ns1:version="1.8.2"
       ns1:texconverter="pdflatex"
       ns1:pdfconverter="inkscape"
       ns1:text="$q_2$"
       ns1:preamble="/home/physics/.config/inkscape/extensions/circuitSymbols/circuitSymbolsPreamble.tex"
       ns1:scale="1.0"
       ns1:alignment="middle center"
       ns1:stroke-to-path="0"
       ns1:jacobian_sqrt="0.352778"
       id="g2719">
      <defs
         id="id-19de9f0f-c21f-4a82-9b47-b83f23d2b6ae">
        <g
           id="id-d3225540-189c-4181-847d-32454b149526">
          <symbol
             overflow="visible"
             id="id-1860eec6-37dd-4f18-9221-df37c611cd12">
            <path
               style="stroke:none"
               d=""
               id="id-76b43fff-2cdb-4350-90fb-9d46453057d7" />
          </symbol>
          <symbol
             overflow="visible"
             id="id-7470247b-52be-4d69-aa67-9e10da9c8d82">
            <path
               style="stroke:none"
               d="m 4.5,-4.296875 c 0,-0.046875 -0.03125,-0.09375 -0.09375,-0.09375 -0.109375,0 -0.515625,0.390625 -0.671875,0.6875 C 3.515625,-4.25 3.125,-4.40625 2.796875,-4.40625 c -1.171875,0 -2.390625,1.46875 -2.390625,2.921875 0,0.96875 0.578125,1.59375 1.3125,1.59375 0.421875,0 0.8125,-0.234375 1.171875,-0.59375 -0.09375,0.34375 -0.421875,1.6875 -0.453125,1.78125 -0.078125,0.28125 -0.15625,0.3125 -0.71875,0.328125 -0.125,0 -0.21875,0 -0.21875,0.203125 0,0 0,0.109375 0.125,0.109375 0.3125,0 0.671875,-0.03125 1,-0.03125 0.328125,0 0.6875,0.03125 1.03125,0.03125 0.046875,0 0.171875,0 0.171875,-0.203125 C 3.828125,1.625 3.734375,1.625 3.5625,1.625 3.09375,1.625 3.09375,1.5625 3.09375,1.46875 3.09375,1.390625 3.109375,1.328125 3.125,1.25 Z m -2.75,4.1875 c -0.609375,0 -0.640625,-0.765625 -0.640625,-0.9375 0,-0.484375 0.28125,-1.5625 0.453125,-1.984375 0.3125,-0.734375 0.828125,-1.15625 1.234375,-1.15625 0.65625,0 0.796875,0.8125 0.796875,0.875 0,0.0625 -0.546875,2.25 -0.578125,2.28125 C 2.859375,-0.75 2.296875,-0.109375 1.75,-0.109375 Z m 0,0"
               id="id-f6a4ad26-5081-496e-9cbd-1750a6c942f0" />
          </symbol>
          <symbol
             overflow="visible"
             id="id-4f6a33e6-df1d-46f2-9217-997edc10d4dd">
            <path
               style="stroke:none"
               d=""
               id="id-cf9d2ac0-f08a-48a8-a594-c37d2d1ced71" />
          </symbol>
          <symbol
             overflow="visible"
             id="id-4c315674-667e-47ff-8f61-7822b4454c24">
            <path
               style="stroke:none"
               d="M 3.515625,-1.265625 H 3.28125 c -0.015625,0.15625 -0.09375,0.5625 -0.1875,0.625 C 3.046875,-0.59375 2.515625,-0.59375 2.40625,-0.59375 H 1.125 c 0.734375,-0.640625 0.984375,-0.84375 1.390625,-1.171875 0.515625,-0.40625 1,-0.84375 1,-1.5 0,-0.84375 -0.734375,-1.359375 -1.625,-1.359375 -0.859375,0 -1.453125,0.609375 -1.453125,1.25 0,0.34375 0.296875,0.390625 0.375,0.390625 0.15625,0 0.359375,-0.125 0.359375,-0.375 0,-0.125 -0.046875,-0.375 -0.40625,-0.375 C 0.984375,-4.21875 1.453125,-4.375 1.78125,-4.375 c 0.703125,0 1.0625,0.546875 1.0625,1.109375 0,0.609375 -0.4375,1.078125 -0.65625,1.328125 L 0.515625,-0.265625 C 0.4375,-0.203125 0.4375,-0.1875 0.4375,0 h 2.875 z m 0,0"
               id="id-db9503a3-9193-4f06-86fc-2e7714d4d676" />
          </symbol>
        </g>
      </defs>
      <g
         id="id-13e1aa23-67fe-4d92-a274-92c38a96818f"
         transform="translate(-149.118,-130.359)">
        <g
           style="fill:#000000;fill-opacity:1"
           id="id-36c73028-8844-46e6-ac71-da0c2160d5cc">
          <g
             transform="translate(148.712,134.765)"
             id="g2916">
            <path
               style="stroke:none"
               d="m 4.5,-4.296875 c 0,-0.046875 -0.03125,-0.09375 -0.09375,-0.09375 -0.109375,0 -0.515625,0.390625 -0.671875,0.6875 C 3.515625,-4.25 3.125,-4.40625 2.796875,-4.40625 c -1.171875,0 -2.390625,1.46875 -2.390625,2.921875 0,0.96875 0.578125,1.59375 1.3125,1.59375 0.421875,0 0.8125,-0.234375 1.171875,-0.59375 -0.09375,0.34375 -0.421875,1.6875 -0.453125,1.78125 -0.078125,0.28125 -0.15625,0.3125 -0.71875,0.328125 -0.125,0 -0.21875,0 -0.21875,0.203125 0,0 0,0.109375 0.125,0.109375 0.3125,0 0.671875,-0.03125 1,-0.03125 0.328125,0 0.6875,0.03125 1.03125,0.03125 0.046875,0 0.171875,0 0.171875,-0.203125 C 3.828125,1.625 3.734375,1.625 3.5625,1.625 3.09375,1.625 3.09375,1.5625 3.09375,1.46875 3.09375,1.390625 3.109375,1.328125 3.125,1.25 Z m -2.75,4.1875 c -0.609375,0 -0.640625,-0.765625 -0.640625,-0.9375 0,-0.484375 0.28125,-1.5625 0.453125,-1.984375 0.3125,-0.734375 0.828125,-1.15625 1.234375,-1.15625 0.65625,0 0.796875,0.8125 0.796875,0.875 0,0.0625 -0.546875,2.25 -0.578125,2.28125 C 2.859375,-0.75 2.296875,-0.109375 1.75,-0.109375 Z m 0,0"
               id="id-43726070-6bd3-4e5e-9ab1-ace44c3a19a0" />
          </g>
        </g>
        <g
           style="fill:#000000;fill-opacity:1"
           id="id-2edd58db-a731-4981-ab90-93135bef6f56">
          <g
             transform="translate(153.16,136.259)"
             id="g2920">
            <path
               style="stroke:none"
               d="M 3.515625,-1.265625 H 3.28125 c -0.015625,0.15625 -0.09375,0.5625 -0.1875,0.625 C 3.046875,-0.59375 2.515625,-0.59375 2.40625,-0.59375 H 1.125 c 0.734375,-0.640625 0.984375,-0.84375 1.390625,-1.171875 0.515625,-0.40625 1,-0.84375 1,-1.5 0,-0.84375 -0.734375,-1.359375 -1.625,-1.359375 -0.859375,0 -1.453125,0.609375 -1.453125,1.25 0,0.34375 0.296875,0.390625 0.375,0.390625 0.15625,0 0.359375,-0.125 0.359375,-0.375 0,-0.125 -0.046875,-0.375 -0.40625,-0.375 C 0.984375,-4.21875 1.453125,-4.375 1.78125,-4.375 c 0.703125,0 1.0625,0.546875 1.0625,1.109375 0,0.609375 -0.4375,1.078125 -0.65625,1.328125 L 0.515625,-0.265625 C 0.4375,-0.203125 0.4375,-0.1875 0.4375,0 h 2.875 z m 0,0"
               id="id-7145f9bf-a996-46d3-b3ef-5b1bf74b67ff" />
          </g>
        </g>
      </g>
    </g>
    <path
       style="fill:none;stroke:#dc5050;stroke-width:0.285;stroke-linecap:butt;stroke-linejoin:miter;stroke-opacity:1;marker-end:url(#TriangleStart);stroke-dasharray:none;opacity:0.55"
       d="m 37.03809,128.65343 -9.721315,4.89637"
       id="path7541"
       sodipodi:nodetypes="cc" />
    <path
       style="fill:none;stroke:#dc5050;stroke-width:0.285;stroke-linecap:butt;stroke-linejoin:miter;stroke-dasharray:none;stroke-opacity:1;marker-end:url(#TriangleStart);opacity:0.55"
       d="m 63.496426,133.94508 3.478823,10.58334"
       id="path8608"
       sodipodi:nodetypes="cc" />
    <path
       style="fill:none;stroke:#dc5050;stroke-width:0.285;stroke-linecap:butt;stroke-linejoin:miter;stroke-dasharray:none;stroke-opacity:1;marker-end:url(#TriangleStart);opacity:0.55"
       d="m 90.090132,107.49005 4.364908,-1.53508"
       id="path8618"
       sodipodi:nodetypes="cc" />
    <path
       style="fill:none;stroke:#5092dc;stroke-width:0.285;stroke-linecap:butt;stroke-linejoin:miter;stroke-dasharray:none;stroke-opacity:1;marker-end:url(#TriangleStart);opacity:0.55"
       d="m 37.03809,128.65343 5.054797,-0.0252"
       id="path8624"
       sodipodi:nodetypes="cc" />
    <path
       style="fill:none;stroke:#5092dc;stroke-width:0.285;stroke-linecap:butt;stroke-linejoin:miter;stroke-dasharray:none;stroke-opacity:1;marker-end:url(#TriangleStart);opacity:0.55"
       d="m 63.496426,133.94508 8.656688,-1.65597"
       id="path9380"
       sodipodi:nodetypes="cc" />
    <path
       style="fill:none;stroke:#5092dc;stroke-width:0.285;stroke-linecap:butt;stroke-linejoin:miter;stroke-dasharray:none;stroke-opacity:1;marker-end:url(#TriangleStart);opacity:0.55"
       d="M 90.090132,107.49005 89.95476,119.0326"
       id="path9386"
       sodipodi:nodetypes="cc" />
    <path
       style="fill:none;stroke:#dc5050;stroke-width:0.185;stroke-linecap:butt;stroke-linejoin:miter;stroke-dasharray:1.11, 0.185;stroke-dashoffset:0;stroke-opacity:1;opacity:0.55"
       d="m 42.231691,128.60375 -9.721315,4.89637"
       id="path9402"
       sodipodi:nodetypes="cc" />
    <path
       style="fill:none;stroke:#dc5050;stroke-width:0.185;stroke-linecap:butt;stroke-linejoin:miter;stroke-dasharray:1.11, 0.185;stroke-dashoffset:0;stroke-opacity:1;opacity:0.55"
       d="m 72.185369,132.19383 3.478823,10.58334"
       id="path9404"
       sodipodi:nodetypes="cc" />
    <path
       style="fill:none;stroke:#dc5050;stroke-width:0.185;stroke-linecap:butt;stroke-linejoin:miter;stroke-dasharray:1.11, 0.185;stroke-dashoffset:0;stroke-opacity:1;opacity:0.55"
       d="m 89.853157,119.31999 4.364908,-1.53508"
       id="path9406"
       sodipodi:nodetypes="cc" />
    <path
       style="fill:none;stroke:#5092dc;stroke-width:0.185;stroke-linecap:butt;stroke-linejoin:miter;stroke-dasharray:1.11, 0.185;stroke-dashoffset:0;stroke-opacity:1;opacity:0.55"
       d="m 27.066884,133.59518 5.054797,-0.0252"
       id="path9408"
       sodipodi:nodetypes="cc" />
    <path
       style="fill:none;stroke:#5092dc;stroke-width:0.185;stroke-linecap:butt;stroke-linejoin:miter;stroke-dasharray:1.11, 0.185;stroke-dashoffset:0;stroke-opacity:1;opacity:0.55"
       d="m 66.975249,144.52842 8.656688,-1.65597"
       id="path9410"
       sodipodi:nodetypes="cc" />
    <path
       style="fill:none;stroke:#5092dc;stroke-width:0.185;stroke-linecap:butt;stroke-linejoin:miter;stroke-dasharray:1.11, 0.185;stroke-dashoffset:0;stroke-opacity:1;opacity:0.55"
       d="m 94.45504,105.95497 -0.135372,11.54255"
       id="path9412"
       sodipodi:nodetypes="cc" />
    <path
       style="fill:none;stroke:#0faa7d;stroke-width:0.285;stroke-linecap:butt;stroke-linejoin:miter;stroke-dasharray:none;stroke-opacity:1;marker-end:url(#TriangleStart)"
       d="m 90.090132,107.49005 4.127933,10.29486"
       id="path9424"
       sodipodi:nodetypes="cc" />
    <path
       style="fill:none;stroke:#0faa7d;stroke-width:0.285;stroke-linecap:butt;stroke-linejoin:miter;stroke-dasharray:none;stroke-opacity:1;marker-end:url(#TriangleStart)"
       d="m 63.496426,133.94508 12.167766,8.83209"
       id="path10176"
       sodipodi:nodetypes="cc" />
    <path
       style="fill:none;stroke:#0faa7d;stroke-width:0.285;stroke-linecap:butt;stroke-linejoin:miter;stroke-dasharray:none;stroke-opacity:1;marker-end:url(#TriangleStart)"
       d="m 37.1859,128.64148 -5.064219,4.9285"
       id="path10182"
       sodipodi:nodetypes="cc" />
  </g>
</svg>
