<?xml version="1.0" encoding="utf-8" standalone="no"?>
<!DOCTYPE svg PUBLIC "-//W3C//DTD SVG 1.1//EN"
  "http://www.w3.org/Graphics/SVG/1.1/DTD/svg11.dtd">
<!-- Created with matplotlib (https://matplotlib.org/) -->
<svg height="280.512pt" version="1.1" viewBox="0 0 371.52 280.512" width="371.52pt" xmlns="http://www.w3.org/2000/svg" xmlns:xlink="http://www.w3.org/1999/xlink">
 <metadata>
  <rdf:RDF xmlns:cc="http://creativecommons.org/ns#" xmlns:dc="http://purl.org/dc/elements/1.1/" xmlns:rdf="http://www.w3.org/1999/02/22-rdf-syntax-ns#">
   <cc:Work>
    <dc:type rdf:resource="http://purl.org/dc/dcmitype/StillImage"/>
    <dc:date>2022-01-19T17:06:54.409003</dc:date>
    <dc:format>image/svg+xml</dc:format>
    <dc:creator>
     <cc:Agent>
      <dc:title>Matplotlib v3.3.4, https://matplotlib.org/</dc:title>
     </cc:Agent>
    </dc:creator>
   </cc:Work>
  </rdf:RDF>
 </metadata>
 <defs>
  <style type="text/css">*{stroke-linecap:butt;stroke-linejoin:round;}</style>
 </defs>
 <g id="figure_1">
  <g id="patch_1">
   <path d="M 0 280.512 
L 371.52 280.512 
L 371.52 0 
L 0 0 
z
" style="fill:#ffffff;"/>
  </g>
  <g id="axes_1">
   <g id="line2d_1">
    <path clip-path="url(#p27c3fb6335)" d="M 275.04 50.976 
" style="fill:none;stroke:#1f77b4;stroke-linecap:square;stroke-width:1.5;"/>
    <defs>
     <path d="M 0 16 
C 4.24325 16 8.313278 14.314139 11.313708 11.313708 
C 14.314139 8.313278 16 4.24325 16 0 
C 16 -4.24325 14.314139 -8.313278 11.313708 -11.313708 
C 8.313278 -14.314139 4.24325 -16 0 -16 
C -4.24325 -16 -8.313278 -14.314139 -11.313708 -11.313708 
C -14.314139 -8.313278 -16 -4.24325 -16 0 
C -16 4.24325 -14.314139 8.313278 -11.313708 11.313708 
C -8.313278 14.314139 -4.24325 16 0 16 
z
" id="mca1f4a26d1" style="stroke:#000000;"/>
    </defs>
    <g clip-path="url(#p27c3fb6335)">
     <use style="fill:#5092dc;stroke:#000000;" x="275.04" xlink:href="#mca1f4a26d1" y="50.976"/>
    </g>
   </g>
   <g id="line2d_2">
    <path clip-path="url(#p27c3fb6335)" d="M 96.48 50.976 
" style="fill:none;stroke:#ff7f0e;stroke-linecap:square;stroke-width:1.5;"/>
    <defs>
     <path d="M 0 16 
C 4.24325 16 8.313278 14.314139 11.313708 11.313708 
C 14.314139 8.313278 16 4.24325 16 0 
C 16 -4.24325 14.314139 -8.313278 11.313708 -11.313708 
C 8.313278 -14.314139 4.24325 -16 0 -16 
C -4.24325 -16 -8.313278 -14.314139 -11.313708 -11.313708 
C -14.314139 -8.313278 -16 -4.24325 -16 0 
C -16 4.24325 -14.314139 8.313278 -11.313708 11.313708 
C -8.313278 14.314139 -4.24325 16 0 16 
z
" id="m56fd9a8667" style="stroke:#000000;"/>
    </defs>
    <g clip-path="url(#p27c3fb6335)">
     <use style="fill:#dc5050;stroke:#000000;" x="96.48" xlink:href="#m56fd9a8667" y="50.976"/>
    </g>
   </g>
   <g id="line2d_3">
    <path clip-path="url(#p27c3fb6335)" d="M 96.48 229.536 
" style="fill:none;stroke:#2ca02c;stroke-linecap:square;stroke-width:1.5;"/>
    <g clip-path="url(#p27c3fb6335)">
     <use style="fill:#dc5050;stroke:#000000;" x="96.48" xlink:href="#m56fd9a8667" y="229.536"/>
    </g>
   </g>
   <g id="line2d_4">
    <path clip-path="url(#p27c3fb6335)" d="M 275.04 229.536 
" style="fill:none;stroke:#d62728;stroke-linecap:square;stroke-width:1.5;"/>
    <g clip-path="url(#p27c3fb6335)">
     <use style="fill:#5092dc;stroke:#000000;" x="275.04" xlink:href="#mca1f4a26d1" y="229.536"/>
    </g>
   </g>
   <g id="line2d_5">
    <defs>
     <path d="M 0 5 
C 1.326016 5 2.597899 4.473168 3.535534 3.535534 
C 4.473168 2.597899 5 1.326016 5 0 
C 5 -1.326016 4.473168 -2.597899 3.535534 -3.535534 
C 2.597899 -4.473168 1.326016 -5 0 -5 
C -1.326016 -5 -2.597899 -4.473168 -3.535534 -3.535534 
C -4.473168 -2.597899 -5 -1.326016 -5 0 
C -5 1.326016 -4.473168 2.597899 -3.535534 3.535534 
C -2.597899 4.473168 -1.326016 5 0 5 
z
" id="m87d54e8740" style="stroke:#000000;"/>
    </defs>
    <g clip-path="url(#p27c3fb6335)">
     <use style="stroke:#000000;" x="185.76" xlink:href="#m87d54e8740" y="140.256"/>
    </g>
   </g>
   <g id="text_1">
    <!-- $q_1$ -->
    <g transform="translate(265.752722 56.952824)scale(0.24 -0.24)">
     <defs>
      <path d="M 44.09375 43.109375 
C 44.09375 43.59375 43.703125 44 43.203125 44 
C 42.40625 44 38.5 40.390625 36.59375 36.90625 
C 34.796875 41.34375 31.703125 44 27.40625 44 
C 16.09375 44 3.90625 29.4375 3.90625 14.671875 
C 3.90625 4.796875 9.703125 -1 16.5 -1 
C 21.796875 -1 26.203125 3.015625 28.296875 5.296875 
L 28.40625 5.203125 
L 24.59375 -9.609375 
L 23.703125 -13.15625 
C 22.796875 -16.109375 21.296875 -16.109375 16.59375 -16.109375 
C 15.5 -16.109375 14.5 -16.109375 14.5 -18 
C 14.5 -18.703125 15.09375 -19 15.796875 -19 
C 17.203125 -19 19 -19 20.40625 -19 
L 30.59375 -19 
C 32.09375 -19 33.796875 -19 35.296875 -19 
C 35.90625 -19 37.09375 -19 37.09375 -17.109375 
C 37.09375 -16.109375 36.296875 -16.109375 34.796875 -16.109375 
C 30.09375 -16.109375 29.796875 -15.40625 29.796875 -14.609375 
C 29.796875 -14.125 29.90625 -14.03125 30.203125 -12.734375 
z
M 30 11.90625 
C 29.5 10.1875 29.5 10 28.09375 8.09375 
C 25.90625 5.296875 21.5 1 16.796875 1 
C 12.703125 1 10.40625 4.703125 10.40625 10.59375 
C 10.40625 16.09375 13.5 27.296875 15.40625 31.5 
C 18.796875 38.5 23.5 42.109375 27.40625 42.109375 
C 34 42.109375 35.296875 33.90625 35.296875 33.109375 
C 35.296875 33.015625 35 31.6875 34.90625 31.5 
z
" id="CMMI12-113"/>
      <path d="M 26.59375 63.40625 
C 26.59375 65.5 26.5 65.5 25.09375 65.5 
C 21.203125 61.1875 15.296875 59.796875 9.703125 59.796875 
C 9.40625 59.796875 8.90625 59.796875 8.796875 59.5 
C 8.703125 59.296875 8.703125 59.09375 8.703125 57 
C 11.796875 57 17 57.59375 21 59.984375 
L 21 7.203125 
C 21 3.6875 20.796875 2.5 12.203125 2.5 
L 9.203125 2.5 
L 9.203125 0 
C 14 0 19 0 23.796875 0 
C 28.59375 0 33.59375 0 38.40625 0 
L 38.40625 2.5 
L 35.40625 2.5 
C 26.796875 2.5 26.59375 3.59375 26.59375 7.15625 
z
" id="CMR17-49"/>
     </defs>
     <use transform="scale(0.996264)" xlink:href="#CMMI12-113"/>
     <use transform="translate(43.251731 -14.943915)scale(0.697382)" xlink:href="#CMR17-49"/>
    </g>
   </g>
   <g id="text_2">
    <!-- $q_2$ -->
    <g transform="translate(87.192722 56.952824)scale(0.24 -0.24)">
     <defs>
      <path d="M 41.703125 15.453125 
L 39.90625 15.453125 
C 38.90625 8.375 38.09375 7.171875 37.703125 6.5625 
C 37.203125 5.765625 30 5.765625 28.59375 5.765625 
L 9.40625 5.765625 
C 13 9.671875 20 16.75 28.5 24.953125 
C 34.59375 30.734375 41.703125 37.53125 41.703125 47.421875 
C 41.703125 59.21875 32.296875 66 21.796875 66 
C 10.796875 66 4.09375 56.3125 4.09375 47.34375 
C 4.09375 43.4375 7 42.9375 8.203125 42.9375 
C 9.203125 42.9375 12.203125 43.546875 12.203125 47.03125 
C 12.203125 50.109375 9.59375 51 8.203125 51 
C 7.59375 51 7 50.90625 6.59375 50.703125 
C 8.5 59.21875 14.296875 63.40625 20.40625 63.40625 
C 29.09375 63.40625 34.796875 56.515625 34.796875 47.421875 
C 34.796875 38.734375 29.703125 31.25 24 24.75 
L 4.09375 2.28125 
L 4.09375 0 
L 39.296875 0 
z
" id="CMR17-50"/>
     </defs>
     <use transform="scale(0.996264)" xlink:href="#CMMI12-113"/>
     <use transform="translate(43.251731 -14.943915)scale(0.697382)" xlink:href="#CMR17-50"/>
    </g>
   </g>
   <g id="text_3">
    <!-- $q_2$ -->
    <g transform="translate(87.192722 235.512824)scale(0.24 -0.24)">
     <use transform="scale(0.996264)" xlink:href="#CMMI12-113"/>
     <use transform="translate(43.251731 -14.943915)scale(0.697382)" xlink:href="#CMR17-50"/>
    </g>
   </g>
   <g id="text_4">
    <!-- $q_1$ -->
    <g transform="translate(265.752722 235.512824)scale(0.24 -0.24)">
     <use transform="scale(0.996264)" xlink:href="#CMMI12-113"/>
     <use transform="translate(43.251731 -14.943915)scale(0.697382)" xlink:href="#CMR17-49"/>
    </g>
   </g>
  </g>
 </g>
 <defs>
  <clipPath id="p27c3fb6335">
   <rect height="266.112" width="357.12" x="7.2" y="7.2"/>
  </clipPath>
 </defs>
</svg>
