<?xml version="1.0" encoding="UTF-8" standalone="no"?>
<!-- Created with Inkscape (http://www.inkscape.org/) -->

<svg
   xmlns:ns1="http://www.iki.fi/pav/software/textext/"
   xmlns:dc="http://purl.org/dc/elements/1.1/"
   xmlns:cc="http://creativecommons.org/ns#"
   xmlns:rdf="http://www.w3.org/1999/02/22-rdf-syntax-ns#"
   xmlns:svg="http://www.w3.org/2000/svg"
   xmlns="http://www.w3.org/2000/svg"
   xmlns:sodipodi="http://sodipodi.sourceforge.net/DTD/sodipodi-0.dtd"
   xmlns:inkscape="http://www.inkscape.org/namespaces/inkscape"
   width="115.58073mm"
   height="152.62947mm"
   viewBox="0 0 115.58073 152.62947"
   version="1.1"
   id="svg828"
   inkscape:version="0.92.3 (2405546, 2018-03-11)"
   sodipodi:docname="globe-proton-bag.svg"
   inkscape:export-filename="/home/mpnerem/odu/2021-Summer/phys232/lectures/lec-03/globe-proton-bag.png"
   inkscape:export-xdpi="90"
   inkscape:export-ydpi="90">
  <sodipodi:namedview
     id="base"
     pagecolor="#ffffff"
     bordercolor="#666666"
     borderopacity="1.0"
     inkscape:pageopacity="0.0"
     inkscape:pageshadow="2"
     inkscape:zoom="0.80235227"
     inkscape:cx="-37.23688"
     inkscape:cy="123.48931"
     inkscape:document-units="mm"
     inkscape:current-layer="layer1"
     showgrid="false"
     inkscape:window-width="1920"
     inkscape:window-height="1035"
     inkscape:window-x="1920"
     inkscape:window-y="20"
     inkscape:window-maximized="1"
     fit-margin-top="0"
     fit-margin-left="0"
     fit-margin-right="0"
     fit-margin-bottom="0" />
  <defs
     id="defs822">
    <marker
       inkscape:isstock="true"
       style="overflow:visible"
       id="marker4925"
       refX="0"
       refY="0"
       orient="auto"
       inkscape:stockid="Arrow1Lend">
      <path
         transform="matrix(-0.8,0,0,-0.8,-10,0)"
         style="fill:#ff7f2a;fill-opacity:1;fill-rule:evenodd;stroke:#ff7f2a;stroke-width:1.00000003pt;stroke-opacity:1"
         d="M 0,0 5,-5 -12.5,0 5,5 Z"
         id="path4923"
         inkscape:connector-curvature="0" />
    </marker>
    <marker
       inkscape:collect="always"
       inkscape:stockid="Arrow1Lend"
       orient="auto"
       refY="0"
       refX="0"
       id="marker3999"
       style="overflow:visible"
       inkscape:isstock="true">
      <path
         id="path3997"
         d="M 0,0 5,-5 -12.5,0 5,5 Z"
         style="fill:#ff7f2a;fill-opacity:1;fill-rule:evenodd;stroke:#ff7f2a;stroke-width:1.00000003pt;stroke-opacity:1"
         transform="matrix(-0.8,0,0,-0.8,-10,0)"
         inkscape:connector-curvature="0" />
    </marker>
    <marker
       inkscape:isstock="true"
       style="overflow:visible"
       id="marker3977"
       refX="0"
       refY="0"
       orient="auto"
       inkscape:stockid="Arrow1Lend">
      <path
         transform="matrix(-0.8,0,0,-0.8,-10,0)"
         style="fill:#0faa7d;fill-opacity:1;fill-rule:evenodd;stroke:#0faa7d;stroke-width:1.00000003pt;stroke-opacity:1"
         d="M 0,0 5,-5 -12.5,0 5,5 Z"
         id="path3975"
         inkscape:connector-curvature="0" />
    </marker>
    <marker
       inkscape:collect="always"
       inkscape:stockid="Arrow1Lend"
       orient="auto"
       refY="0"
       refX="0"
       id="marker3033"
       style="overflow:visible"
       inkscape:isstock="true">
      <path
         id="path3031"
         d="M 0,0 5,-5 -12.5,0 5,5 Z"
         style="fill:#0faa7d;fill-opacity:1;fill-rule:evenodd;stroke:#0faa7d;stroke-width:1.00000003pt;stroke-opacity:1"
         transform="matrix(-0.8,0,0,-0.8,-10,0)"
         inkscape:connector-curvature="0" />
    </marker>
    <marker
       inkscape:collect="always"
       inkscape:isstock="true"
       style="overflow:visible"
       id="Arrow1Lend"
       refX="0"
       refY="0"
       orient="auto"
       inkscape:stockid="Arrow1Lend">
      <path
         transform="matrix(-0.8,0,0,-0.8,-10,0)"
         style="fill:#0faa7d;fill-opacity:1;fill-rule:evenodd;stroke:#0faa7d;stroke-width:1.00000003pt;stroke-opacity:1"
         d="M 0,0 5,-5 -12.5,0 5,5 Z"
         id="path1676"
         inkscape:connector-curvature="0" />
    </marker>
  </defs>
  <metadata
     id="metadata825">
    <rdf:RDF>
      <cc:Work
         rdf:about="">
        <dc:format>image/svg+xml</dc:format>
        <dc:type
           rdf:resource="http://purl.org/dc/dcmitype/StillImage" />
        <dc:title></dc:title>
      </cc:Work>
    </rdf:RDF>
  </metadata>
  <g
     inkscape:label="Layer 1"
     inkscape:groupmode="layer"
     id="layer1"
     transform="translate(-30.943115,-61.392621)">
    <rect
       style="opacity:1;fill:#ffffff;fill-opacity:1;fill-rule:nonzero;stroke:none;stroke-width:0.86500001;stroke-linecap:butt;stroke-linejoin:round;stroke-miterlimit:4;stroke-dasharray:none;stroke-dashoffset:0;stroke-opacity:1"
       id="rect1044"
       width="117.3944"
       height="153.66795"
       x="30.036278"
       y="60.873379"
       rx="0.49735582"
       ry="0.18898818" />
    <circle
       style="opacity:1;fill:none;fill-opacity:1;fill-rule:nonzero;stroke:#5092dc;stroke-width:0.76499999;stroke-linecap:butt;stroke-linejoin:round;stroke-miterlimit:4;stroke-dasharray:none;stroke-dashoffset:0;stroke-opacity:1"
       id="path1440"
       cx="56.98349"
       cy="137.70735"
       r="25.657875" />
    <g
       transform="matrix(0.40037314,0,0,0.40037314,8.6330603,66.394288)"
       id="g1585">
      <g
         id="g4138"
         transform="matrix(0.00801171,0,0,0.00801171,111.0857,86.742461)">
        <path
           d="m 1213.3,16.361 c -28.115,0.20292 -56.225,5.9937 -81.856,17.019 -61.9,28.79 -95.05,93.891 -153.63,127.39 -43.7,26.67 -96.6,32.82 -146.81,30.23 -72.03,-2.35 -150.69,13.66 -202.51,67.48 -43.59,44.32 -58.081,110.51 -49.711,170.74 10.5,99.8 67.57,184.89 112.45,271.63 22.36,46.38 46.53,92.21 65.22,140.22 -10.88,2.58 -22.42,0.0696 -33.52,0.87968 -32.58,-2.56 -63.52,22.591 -69.73,54.291 -7.41,34.61 17.76,71.63 52.35,78.23 4.79,-2.78 6.05,4.4703 2.05,4.1703 -28.34,4.99 -51.351,29.55002 -55.191,57.95002 -4.74,33.87 20.58,67.68 53.82,74.2 21.62,3.2 43.661,-0.6009 65.341,2.1391 -0.71,0.87 -1.5297,1.6506 -2.4297,2.3406 -206.12,80.39 -388.61,219.76 -520.78,397.09 -154.04,204.1 -239.02,459.7 -236.36,715.6 0.79,86.89 -1.6003,173.87 1.2297,260.69 2.59,134.43 10.69,270.91 49.68,400.38 29.01,93.9 76.811,183.37 146.84,253.18 66.49,67.41 149.2,116.98 236.56,152.45 219.1,87.47 458.4,105.12 691.81,111.28 224.99,1.31 452.32,-6.5003 672.03,-59.82 146.37,-36.65 292.91,-97.249 399.48,-207.54 67.77,-68.91 114.62,-156.15 142.87,-248.11 26.3,-84.72 38.23,-173.13 44.67,-261.36 9.66,-138.13 6.0991,-276.72 6.8891,-415.13 -1.17,-26.5 -1.1697,-53.061 -4.7797,-79.411 -16.76,-279.37 -142.11,-550.18 -340.29,-747.57 -44.5,-44.2 -90.95,-87.461 -142.95,-123.08 -53.08,-59.27 -110.32,-115.56 -175.96,-161.07 -1.48,-1.08 -3.7594,-2.2912 -2.9594,-4.4812 12.69,-10.22 22.51,-24.6 25.45,-40.8 8.36,-35.8 -19.221,-73.75002 -55.111,-79.08002 -3.56,0.38 -2.9291,-4.4394 0.3609,-3.7094 43.18,-5.35 70.739,-59.041 48.239,-96.891 -15.12,-31.55 -52.649,-40.289 -84.559,-36.859 20.6,-52.06 46.46,-102.01 71.48,-152.08 27.55,-55.15 61.201,-107.43 82.441,-165.56 20.22,-54.8 32.739,-114.66 20.959,-172.83 -11.82,-70.56 -69.619,-126.71 -137.39,-145.45 -39.58,-14.09 -82.4,-15.14 -124,-14.15 -46.35,1.65 -94.651,-5.7497 -134.78,-30.23 -55.89,-31.85 -88.259,-92.27 -144.94,-123.05 -28.278,-14.641 -60.15,-21.589 -92.014,-21.359 z"
           id="rect4163"
           inkscape:connector-curvature="0"
           style="fill:#c29945" />
        <path
           transform="scale(0.8)"
           d="m 2136.2,256.44 c -23,65.08 -41,131.81 -62.3,197.5 -57,172.2 -195.6,308.52 -357.9,384.56 -174.7,84.29 -373.3,111.05 -565.6,97.35 -97.4,-7.8 -194.05,-27.5 -286.36,-59.79 27.95,57.98 58.16,115.27 81.52,175.24 381.24,-0.1 762.54,-0.1 1143.8,0 25.7,-65.04 58,-127.47 89.3,-190.06 34.5,-68.94 76.5,-134.29 103.1,-206.95 25.3,-68.5 40.9,-143.33 26.2,-216.04 -14.8,-88.2 -87,-158.39 -171.8,-181.81 z m 437.5,1477.4 c 96,204 144.2,429.6 141.3,654.9 -2.8,266.3 13.5,539.1 -59,798.5 -36.9,130.6 -104.2,254.2 -203.6,347.7 -89,85.3 -199.2,145.3 -313.8,188.7 -280.9,102.5 -583.9,120.8 -880.1,126.3 -156.6,0.4 -313.48,-4 -469.34,-20.3 -246.86,-27.1 -500.76,-78.1 -710.52,-218.3 36.26,117.4 96.01,229.3 183.55,316.5 83.11,84.3 186.5,146.2 295.7,190.6 273.87,109.3 573.01,131.4 864.81,139.1 281.2,1.6 565.3,-8.2 840,-74.8 182.9,-45.8 366.1,-121.6 499.3,-259.4 84.7,-86.2 143.3,-195.2 178.6,-310.2 32.9,-105.9 47.8,-216.4 55.9,-326.7 12,-172.6 7.6,-345.9 8.6,-518.9 -1.5,-33.1 -1.5,-66.3 -6,-99.2 -21,-349.3 -177.6,-687.8 -425.4,-934.5 z"
           id="path6"
           inkscape:connector-curvature="0"
           style="fill:#a37f36" />
        <path
           d="m 2112.4,555.33 c 0.7,3.27 -3.4,12.85 -3.4,18.58 -3.6,-4.92 -2.2,-14.75 3.4,-18.58 z"
           id="path8"
           inkscape:connector-curvature="0"
           style="fill:#fed573" />
        <path
           d="m 756.45,841.07 c 305.05,-0.12 610.05,-0.12 915.05,0 31.9,-3.43 69.4,5.31 84.6,36.86 22.5,37.85 -5.1,91.54 -48.3,96.89 -3.3,-0.73 -3.9,4.09 -0.3,3.71 35.9,5.33 63.4,43.27 55.1,79.07 -3,16.2 -12.8,30.6 -25.5,40.8 -0.8,2.2 1.5,3.4 3,4.5 65.6,45.5 122.9,101.8 175.9,161.1 125.3,151.7 196.3,340.4 237.4,530.9 5.3,22.1 -10.2,45.7 -32,50.7 -23.6,7.2 -49.9,-10.4 -53.4,-34.6 -24.7,-112.2 -59.4,-222.9 -111.4,-325.6 -52,-102.2 -122.2,-197.2 -211.6,-269.2 60.2,116.9 95.2,246.6 102.8,378 8,117.3 -2.6,235.3 -23.8,350.8 -1.3,18.6 -10.1,38.5 -29,45 -28.2,12.8 -62.1,-12.4 -59.8,-42.8 16.5,-90.7 28.8,-182.8 27.8,-275.2 1.8,-124.6 -20.9,-250.4 -71.3,-364.7 -30.6,-69.5 -71.2,-134.5 -118.6,-193.8 -267.1,-1.2 -534.3,-0.1 -801.53,-0.6 -21.68,-2.7 -43.72,1.1 -65.34,-2.1 -33.24,-6.5 -58.56,-40.3 -53.82,-74.2 3.84,-28.4 26.85,-52.97 55.19,-57.96 4,0.3 2.74,-6.95 -2.05,-4.17 -34.59,-6.6 -59.76,-43.62 -52.35,-78.23 6.21,-31.7 37.15,-56.85 69.73,-54.29 11.1,-0.81 22.64,1.7 33.52,-0.88 z"
           id="path10"
           inkscape:connector-curvature="0"
           style="fill:#fed573" />
      </g>
      <g
         id="g1482"
         transform="translate(74.969103,10.156242)">
        <circle
           style="opacity:1;fill:#dc5050;fill-opacity:1;fill-rule:nonzero;stroke:none;stroke-width:0.16500001;stroke-linecap:butt;stroke-linejoin:round;stroke-miterlimit:4;stroke-dasharray:0.165, 0.165;stroke-dashoffset:0;stroke-opacity:1"
           id="path1442"
           cx="41.694046"
           cy="97.750565"
           r="2.9399648" />
        <g
           style="fill:#ffffff;stroke:#ffffff"
           transform="matrix(0.678074,0,0,0.678074,-51.638094,8.0598095)"
           ns1:version="0.11.0"
           ns1:texconverter="pdflatex"
           ns1:pdfconverter="pdf2svg"
           ns1:text="$+$"
           ns1:preamble="/home/mpnerem/.config/inkscape/extensions/textext/default_packages.tex"
           ns1:scale="1.92209813862"
           ns1:alignment="middle center"
           inkscapeversion="0.92.3"
           ns1:jacobian_sqrt="0.678074"
           id="g1459">
          <g
             style="fill:#ffffff;stroke:#ffffff"
             id="surface1">
            <g
               style="fill:#ffffff;fill-opacity:1;stroke:#ffffff"
               id="g1456">
              <path
                 inkscape:connector-curvature="0"
                 style="fill:#ffffff;stroke:#ffffff;stroke-width:0"
                 d="m 4.078125,-2.296875 h 2.78125 C 7,-2.296875 7.1875,-2.296875 7.1875,-2.5 7.1875,-2.6875 7,-2.6875 6.859375,-2.6875 h -2.78125 v -2.796875 c 0,-0.140625 0,-0.328125 -0.203125,-0.328125 -0.203125,0 -0.203125,0.1875 -0.203125,0.328125 V -2.6875 h -2.78125 c -0.140625,0 -0.328125,0 -0.328125,0.1875 0,0.203125 0.1875,0.203125 0.328125,0.203125 h 2.78125 V 0.5 c 0,0.140625 0,0.328125 0.203125,0.328125 0.203125,0 0.203125,-0.1875 0.203125,-0.328125 z m 0,0"
                 transform="translate(133.768,134.765)"
                 id="path1454" />
            </g>
          </g>
        </g>
      </g>
      <g
         transform="translate(79.111781,7.349912)"
         id="g1494">
        <circle
           r="2.9399648"
           cy="97.750565"
           cx="41.694046"
           id="circle1484"
           style="opacity:1;fill:#dc5050;fill-opacity:1;fill-rule:nonzero;stroke:none;stroke-width:0.16500001;stroke-linecap:butt;stroke-linejoin:round;stroke-miterlimit:4;stroke-dasharray:0.165, 0.165;stroke-dashoffset:0;stroke-opacity:1" />
        <g
           id="g1492"
           ns1:jacobian_sqrt="0.678074"
           inkscapeversion="0.92.3"
           ns1:alignment="middle center"
           ns1:scale="1.92209813862"
           ns1:preamble="/home/mpnerem/.config/inkscape/extensions/textext/default_packages.tex"
           ns1:text="$+$"
           ns1:pdfconverter="pdf2svg"
           ns1:texconverter="pdflatex"
           ns1:version="0.11.0"
           transform="matrix(0.678074,0,0,0.678074,-51.638094,8.0598095)"
           style="fill:#ffffff;stroke:#ffffff">
          <g
             id="g1490"
             style="fill:#ffffff;stroke:#ffffff">
            <g
               id="g1488"
               style="fill:#ffffff;fill-opacity:1;stroke:#ffffff">
              <path
                 id="path1486"
                 transform="translate(133.768,134.765)"
                 d="m 4.078125,-2.296875 h 2.78125 C 7,-2.296875 7.1875,-2.296875 7.1875,-2.5 7.1875,-2.6875 7,-2.6875 6.859375,-2.6875 h -2.78125 v -2.796875 c 0,-0.140625 0,-0.328125 -0.203125,-0.328125 -0.203125,0 -0.203125,0.1875 -0.203125,0.328125 V -2.6875 h -2.78125 c -0.140625,0 -0.328125,0 -0.328125,0.1875 0,0.203125 0.1875,0.203125 0.328125,0.203125 h 2.78125 V 0.5 c 0,0.140625 0,0.328125 0.203125,0.328125 0.203125,0 0.203125,-0.1875 0.203125,-0.328125 z m 0,0"
                 style="fill:#ffffff;stroke:#ffffff;stroke-width:0"
                 inkscape:connector-curvature="0" />
            </g>
          </g>
        </g>
      </g>
      <g
         id="g1506"
         transform="translate(74.434564,4.9444863)">
        <circle
           style="opacity:1;fill:#dc5050;fill-opacity:1;fill-rule:nonzero;stroke:none;stroke-width:0.16500001;stroke-linecap:butt;stroke-linejoin:round;stroke-miterlimit:4;stroke-dasharray:0.165, 0.165;stroke-dashoffset:0;stroke-opacity:1"
           id="circle1496"
           cx="41.694046"
           cy="97.750565"
           r="2.9399648" />
        <g
           style="fill:#ffffff;stroke:#ffffff"
           transform="matrix(0.678074,0,0,0.678074,-51.638094,8.0598095)"
           ns1:version="0.11.0"
           ns1:texconverter="pdflatex"
           ns1:pdfconverter="pdf2svg"
           ns1:text="$+$"
           ns1:preamble="/home/mpnerem/.config/inkscape/extensions/textext/default_packages.tex"
           ns1:scale="1.92209813862"
           ns1:alignment="middle center"
           inkscapeversion="0.92.3"
           ns1:jacobian_sqrt="0.678074"
           id="g1504">
          <g
             style="fill:#ffffff;stroke:#ffffff"
             id="g1502">
            <g
               style="fill:#ffffff;fill-opacity:1;stroke:#ffffff"
               id="g1500">
              <path
                 inkscape:connector-curvature="0"
                 style="fill:#ffffff;stroke:#ffffff;stroke-width:0"
                 d="m 4.078125,-2.296875 h 2.78125 C 7,-2.296875 7.1875,-2.296875 7.1875,-2.5 7.1875,-2.6875 7,-2.6875 6.859375,-2.6875 h -2.78125 v -2.796875 c 0,-0.140625 0,-0.328125 -0.203125,-0.328125 -0.203125,0 -0.203125,0.1875 -0.203125,0.328125 V -2.6875 h -2.78125 c -0.140625,0 -0.328125,0 -0.328125,0.1875 0,0.203125 0.1875,0.203125 0.328125,0.203125 h 2.78125 V 0.5 c 0,0.140625 0,0.328125 0.203125,0.328125 0.203125,0 0.203125,-0.1875 0.203125,-0.328125 z m 0,0"
                 transform="translate(133.768,134.765)"
                 id="path1498" />
            </g>
          </g>
        </g>
      </g>
      <g
         transform="translate(79.913589,3.0735996)"
         id="g1518">
        <circle
           r="2.9399648"
           cy="97.750565"
           cx="41.694046"
           id="circle1508"
           style="opacity:1;fill:#dc5050;fill-opacity:1;fill-rule:nonzero;stroke:none;stroke-width:0.16500001;stroke-linecap:butt;stroke-linejoin:round;stroke-miterlimit:4;stroke-dasharray:0.165, 0.165;stroke-dashoffset:0;stroke-opacity:1" />
        <g
           id="g1516"
           ns1:jacobian_sqrt="0.678074"
           inkscapeversion="0.92.3"
           ns1:alignment="middle center"
           ns1:scale="1.92209813862"
           ns1:preamble="/home/mpnerem/.config/inkscape/extensions/textext/default_packages.tex"
           ns1:text="$+$"
           ns1:pdfconverter="pdf2svg"
           ns1:texconverter="pdflatex"
           ns1:version="0.11.0"
           transform="matrix(0.678074,0,0,0.678074,-51.638094,8.0598095)"
           style="fill:#ffffff;stroke:#ffffff">
          <g
             id="g1514"
             style="fill:#ffffff;stroke:#ffffff">
            <g
               id="g1512"
               style="fill:#ffffff;fill-opacity:1;stroke:#ffffff">
              <path
                 id="path1510"
                 transform="translate(133.768,134.765)"
                 d="m 4.078125,-2.296875 h 2.78125 C 7,-2.296875 7.1875,-2.296875 7.1875,-2.5 7.1875,-2.6875 7,-2.6875 6.859375,-2.6875 h -2.78125 v -2.796875 c 0,-0.140625 0,-0.328125 -0.203125,-0.328125 -0.203125,0 -0.203125,0.1875 -0.203125,0.328125 V -2.6875 h -2.78125 c -0.140625,0 -0.328125,0 -0.328125,0.1875 0,0.203125 0.1875,0.203125 0.328125,0.203125 h 2.78125 V 0.5 c 0,0.140625 0,0.328125 0.203125,0.328125 0.203125,0 0.203125,-0.1875 0.203125,-0.328125 z m 0,0"
                 style="fill:#ffffff;stroke:#ffffff;stroke-width:0"
                 inkscape:connector-curvature="0" />
            </g>
          </g>
        </g>
      </g>
      <g
         id="g1530"
         transform="translate(83.521728,9.3544335)">
        <circle
           style="opacity:1;fill:#dc5050;fill-opacity:1;fill-rule:nonzero;stroke:none;stroke-width:0.16500001;stroke-linecap:butt;stroke-linejoin:round;stroke-miterlimit:4;stroke-dasharray:0.165, 0.165;stroke-dashoffset:0;stroke-opacity:1"
           id="circle1520"
           cx="41.694046"
           cy="97.750565"
           r="2.9399648" />
        <g
           style="fill:#ffffff;stroke:#ffffff"
           transform="matrix(0.678074,0,0,0.678074,-51.638094,8.0598095)"
           ns1:version="0.11.0"
           ns1:texconverter="pdflatex"
           ns1:pdfconverter="pdf2svg"
           ns1:text="$+$"
           ns1:preamble="/home/mpnerem/.config/inkscape/extensions/textext/default_packages.tex"
           ns1:scale="1.92209813862"
           ns1:alignment="middle center"
           inkscapeversion="0.92.3"
           ns1:jacobian_sqrt="0.678074"
           id="g1528">
          <g
             style="fill:#ffffff;stroke:#ffffff"
             id="g1526">
            <g
               style="fill:#ffffff;fill-opacity:1;stroke:#ffffff"
               id="g1524">
              <path
                 inkscape:connector-curvature="0"
                 style="fill:#ffffff;stroke:#ffffff;stroke-width:0"
                 d="m 4.078125,-2.296875 h 2.78125 C 7,-2.296875 7.1875,-2.296875 7.1875,-2.5 7.1875,-2.6875 7,-2.6875 6.859375,-2.6875 h -2.78125 v -2.796875 c 0,-0.140625 0,-0.328125 -0.203125,-0.328125 -0.203125,0 -0.203125,0.1875 -0.203125,0.328125 V -2.6875 h -2.78125 c -0.140625,0 -0.328125,0 -0.328125,0.1875 0,0.203125 0.1875,0.203125 0.328125,0.203125 h 2.78125 V 0.5 c 0,0.140625 0,0.328125 0.203125,0.328125 0.203125,0 0.203125,-0.1875 0.203125,-0.328125 z m 0,0"
                 transform="translate(133.768,134.765)"
                 id="path1522" />
            </g>
          </g>
        </g>
      </g>
      <g
         transform="translate(79.245416,12.160764)"
         id="g1542">
        <circle
           r="2.9399648"
           cy="97.750565"
           cx="41.694046"
           id="circle1532"
           style="opacity:1;fill:#dc5050;fill-opacity:1;fill-rule:nonzero;stroke:none;stroke-width:0.16500001;stroke-linecap:butt;stroke-linejoin:round;stroke-miterlimit:4;stroke-dasharray:0.165, 0.165;stroke-dashoffset:0;stroke-opacity:1" />
        <g
           id="g1540"
           ns1:jacobian_sqrt="0.678074"
           inkscapeversion="0.92.3"
           ns1:alignment="middle center"
           ns1:scale="1.92209813862"
           ns1:preamble="/home/mpnerem/.config/inkscape/extensions/textext/default_packages.tex"
           ns1:text="$+$"
           ns1:pdfconverter="pdf2svg"
           ns1:texconverter="pdflatex"
           ns1:version="0.11.0"
           transform="matrix(0.678074,0,0,0.678074,-51.638094,8.0598095)"
           style="fill:#ffffff;stroke:#ffffff">
          <g
             id="g1538"
             style="fill:#ffffff;stroke:#ffffff">
            <g
               id="g1536"
               style="fill:#ffffff;fill-opacity:1;stroke:#ffffff">
              <path
                 id="path1534"
                 transform="translate(133.768,134.765)"
                 d="m 4.078125,-2.296875 h 2.78125 C 7,-2.296875 7.1875,-2.296875 7.1875,-2.5 7.1875,-2.6875 7,-2.6875 6.859375,-2.6875 h -2.78125 v -2.796875 c 0,-0.140625 0,-0.328125 -0.203125,-0.328125 -0.203125,0 -0.203125,0.1875 -0.203125,0.328125 V -2.6875 h -2.78125 c -0.140625,0 -0.328125,0 -0.328125,0.1875 0,0.203125 0.1875,0.203125 0.328125,0.203125 h 2.78125 V 0.5 c 0,0.140625 0,0.328125 0.203125,0.328125 0.203125,0 0.203125,-0.1875 0.203125,-0.328125 z m 0,0"
                 style="fill:#ffffff;stroke:#ffffff;stroke-width:0"
                 inkscape:connector-curvature="0" />
            </g>
          </g>
        </g>
      </g>
    </g>
    <g
       id="g1669"
       transform="matrix(-0.40037314,0,0,-0.40037314,105.33388,209.02042)">
      <g
         transform="matrix(0.00801171,0,0,0.00801171,111.0857,86.742461)"
         id="g1595">
        <path
           style="fill:#c29945"
           inkscape:connector-curvature="0"
           id="path1587"
           d="m 1213.3,16.361 c -28.115,0.20292 -56.225,5.9937 -81.856,17.019 -61.9,28.79 -95.05,93.891 -153.63,127.39 -43.7,26.67 -96.6,32.82 -146.81,30.23 -72.03,-2.35 -150.69,13.66 -202.51,67.48 -43.59,44.32 -58.081,110.51 -49.711,170.74 10.5,99.8 67.57,184.89 112.45,271.63 22.36,46.38 46.53,92.21 65.22,140.22 -10.88,2.58 -22.42,0.0696 -33.52,0.87968 -32.58,-2.56 -63.52,22.591 -69.73,54.291 -7.41,34.61 17.76,71.63 52.35,78.23 4.79,-2.78 6.05,4.4703 2.05,4.1703 -28.34,4.99 -51.351,29.55002 -55.191,57.95002 -4.74,33.87 20.58,67.68 53.82,74.2 21.62,3.2 43.661,-0.6009 65.341,2.1391 -0.71,0.87 -1.5297,1.6506 -2.4297,2.3406 -206.12,80.39 -388.61,219.76 -520.78,397.09 -154.04,204.1 -239.02,459.7 -236.36,715.6 0.79,86.89 -1.6003,173.87 1.2297,260.69 2.59,134.43 10.69,270.91 49.68,400.38 29.01,93.9 76.811,183.37 146.84,253.18 66.49,67.41 149.2,116.98 236.56,152.45 219.1,87.47 458.4,105.12 691.81,111.28 224.99,1.31 452.32,-6.5003 672.03,-59.82 146.37,-36.65 292.91,-97.249 399.48,-207.54 67.77,-68.91 114.62,-156.15 142.87,-248.11 26.3,-84.72 38.23,-173.13 44.67,-261.36 9.66,-138.13 6.0991,-276.72 6.8891,-415.13 -1.17,-26.5 -1.1697,-53.061 -4.7797,-79.411 -16.76,-279.37 -142.11,-550.18 -340.29,-747.57 -44.5,-44.2 -90.95,-87.461 -142.95,-123.08 -53.08,-59.27 -110.32,-115.56 -175.96,-161.07 -1.48,-1.08 -3.7594,-2.2912 -2.9594,-4.4812 12.69,-10.22 22.51,-24.6 25.45,-40.8 8.36,-35.8 -19.221,-73.75002 -55.111,-79.08002 -3.56,0.38 -2.9291,-4.4394 0.3609,-3.7094 43.18,-5.35 70.739,-59.041 48.239,-96.891 -15.12,-31.55 -52.649,-40.289 -84.559,-36.859 20.6,-52.06 46.46,-102.01 71.48,-152.08 27.55,-55.15 61.201,-107.43 82.441,-165.56 20.22,-54.8 32.739,-114.66 20.959,-172.83 -11.82,-70.56 -69.619,-126.71 -137.39,-145.45 -39.58,-14.09 -82.4,-15.14 -124,-14.15 -46.35,1.65 -94.651,-5.7497 -134.78,-30.23 -55.89,-31.85 -88.259,-92.27 -144.94,-123.05 -28.278,-14.641 -60.15,-21.589 -92.014,-21.359 z" />
        <path
           style="fill:#a37f36"
           inkscape:connector-curvature="0"
           id="path1589"
           d="m 2136.2,256.44 c -23,65.08 -41,131.81 -62.3,197.5 -57,172.2 -195.6,308.52 -357.9,384.56 -174.7,84.29 -373.3,111.05 -565.6,97.35 -97.4,-7.8 -194.05,-27.5 -286.36,-59.79 27.95,57.98 58.16,115.27 81.52,175.24 381.24,-0.1 762.54,-0.1 1143.8,0 25.7,-65.04 58,-127.47 89.3,-190.06 34.5,-68.94 76.5,-134.29 103.1,-206.95 25.3,-68.5 40.9,-143.33 26.2,-216.04 -14.8,-88.2 -87,-158.39 -171.8,-181.81 z m 437.5,1477.4 c 96,204 144.2,429.6 141.3,654.9 -2.8,266.3 13.5,539.1 -59,798.5 -36.9,130.6 -104.2,254.2 -203.6,347.7 -89,85.3 -199.2,145.3 -313.8,188.7 -280.9,102.5 -583.9,120.8 -880.1,126.3 -156.6,0.4 -313.48,-4 -469.34,-20.3 -246.86,-27.1 -500.76,-78.1 -710.52,-218.3 36.26,117.4 96.01,229.3 183.55,316.5 83.11,84.3 186.5,146.2 295.7,190.6 273.87,109.3 573.01,131.4 864.81,139.1 281.2,1.6 565.3,-8.2 840,-74.8 182.9,-45.8 366.1,-121.6 499.3,-259.4 84.7,-86.2 143.3,-195.2 178.6,-310.2 32.9,-105.9 47.8,-216.4 55.9,-326.7 12,-172.6 7.6,-345.9 8.6,-518.9 -1.5,-33.1 -1.5,-66.3 -6,-99.2 -21,-349.3 -177.6,-687.8 -425.4,-934.5 z"
           transform="scale(0.8)" />
        <path
           style="fill:#fed573"
           inkscape:connector-curvature="0"
           id="path1591"
           d="m 2112.4,555.33 c 0.7,3.27 -3.4,12.85 -3.4,18.58 -3.6,-4.92 -2.2,-14.75 3.4,-18.58 z" />
        <path
           style="fill:#fed573"
           inkscape:connector-curvature="0"
           id="path1593"
           d="m 756.45,841.07 c 305.05,-0.12 610.05,-0.12 915.05,0 31.9,-3.43 69.4,5.31 84.6,36.86 22.5,37.85 -5.1,91.54 -48.3,96.89 -3.3,-0.73 -3.9,4.09 -0.3,3.71 35.9,5.33 63.4,43.27 55.1,79.07 -3,16.2 -12.8,30.6 -25.5,40.8 -0.8,2.2 1.5,3.4 3,4.5 65.6,45.5 122.9,101.8 175.9,161.1 125.3,151.7 196.3,340.4 237.4,530.9 5.3,22.1 -10.2,45.7 -32,50.7 -23.6,7.2 -49.9,-10.4 -53.4,-34.6 -24.7,-112.2 -59.4,-222.9 -111.4,-325.6 -52,-102.2 -122.2,-197.2 -211.6,-269.2 60.2,116.9 95.2,246.6 102.8,378 8,117.3 -2.6,235.3 -23.8,350.8 -1.3,18.6 -10.1,38.5 -29,45 -28.2,12.8 -62.1,-12.4 -59.8,-42.8 16.5,-90.7 28.8,-182.8 27.8,-275.2 1.8,-124.6 -20.9,-250.4 -71.3,-364.7 -30.6,-69.5 -71.2,-134.5 -118.6,-193.8 -267.1,-1.2 -534.3,-0.1 -801.53,-0.6 -21.68,-2.7 -43.72,1.1 -65.34,-2.1 -33.24,-6.5 -58.56,-40.3 -53.82,-74.2 3.84,-28.4 26.85,-52.97 55.19,-57.96 4,0.3 2.74,-6.95 -2.05,-4.17 -34.59,-6.6 -59.76,-43.62 -52.35,-78.23 6.21,-31.7 37.15,-56.85 69.73,-54.29 11.1,-0.81 22.64,1.7 33.52,-0.88 z" />
      </g>
      <g
         transform="translate(74.969103,10.156242)"
         id="g1607">
        <circle
           r="2.9399648"
           cy="97.750565"
           cx="41.694046"
           id="circle1597"
           style="opacity:1;fill:#dc5050;fill-opacity:1;fill-rule:nonzero;stroke:none;stroke-width:0.16500001;stroke-linecap:butt;stroke-linejoin:round;stroke-miterlimit:4;stroke-dasharray:0.165, 0.165;stroke-dashoffset:0;stroke-opacity:1" />
        <g
           id="g1605"
           ns1:jacobian_sqrt="0.678074"
           inkscapeversion="0.92.3"
           ns1:alignment="middle center"
           ns1:scale="1.92209813862"
           ns1:preamble="/home/mpnerem/.config/inkscape/extensions/textext/default_packages.tex"
           ns1:text="$+$"
           ns1:pdfconverter="pdf2svg"
           ns1:texconverter="pdflatex"
           ns1:version="0.11.0"
           transform="matrix(0.678074,0,0,0.678074,-51.638094,8.0598095)"
           style="fill:#ffffff;stroke:#ffffff">
          <g
             id="g1603"
             style="fill:#ffffff;stroke:#ffffff">
            <g
               id="g1601"
               style="fill:#ffffff;fill-opacity:1;stroke:#ffffff">
              <path
                 id="path1599"
                 transform="translate(133.768,134.765)"
                 d="m 4.078125,-2.296875 h 2.78125 C 7,-2.296875 7.1875,-2.296875 7.1875,-2.5 7.1875,-2.6875 7,-2.6875 6.859375,-2.6875 h -2.78125 v -2.796875 c 0,-0.140625 0,-0.328125 -0.203125,-0.328125 -0.203125,0 -0.203125,0.1875 -0.203125,0.328125 V -2.6875 h -2.78125 c -0.140625,0 -0.328125,0 -0.328125,0.1875 0,0.203125 0.1875,0.203125 0.328125,0.203125 h 2.78125 V 0.5 c 0,0.140625 0,0.328125 0.203125,0.328125 0.203125,0 0.203125,-0.1875 0.203125,-0.328125 z m 0,0"
                 style="fill:#ffffff;stroke:#ffffff;stroke-width:0"
                 inkscape:connector-curvature="0" />
            </g>
          </g>
        </g>
      </g>
      <g
         id="g1619"
         transform="translate(79.111781,7.349912)">
        <circle
           style="opacity:1;fill:#dc5050;fill-opacity:1;fill-rule:nonzero;stroke:none;stroke-width:0.16500001;stroke-linecap:butt;stroke-linejoin:round;stroke-miterlimit:4;stroke-dasharray:0.165, 0.165;stroke-dashoffset:0;stroke-opacity:1"
           id="circle1609"
           cx="41.694046"
           cy="97.750565"
           r="2.9399648" />
        <g
           style="fill:#ffffff;stroke:#ffffff"
           transform="matrix(0.678074,0,0,0.678074,-51.638094,8.0598095)"
           ns1:version="0.11.0"
           ns1:texconverter="pdflatex"
           ns1:pdfconverter="pdf2svg"
           ns1:text="$+$"
           ns1:preamble="/home/mpnerem/.config/inkscape/extensions/textext/default_packages.tex"
           ns1:scale="1.92209813862"
           ns1:alignment="middle center"
           inkscapeversion="0.92.3"
           ns1:jacobian_sqrt="0.678074"
           id="g1617">
          <g
             style="fill:#ffffff;stroke:#ffffff"
             id="g1615">
            <g
               style="fill:#ffffff;fill-opacity:1;stroke:#ffffff"
               id="g1613">
              <path
                 inkscape:connector-curvature="0"
                 style="fill:#ffffff;stroke:#ffffff;stroke-width:0"
                 d="m 4.078125,-2.296875 h 2.78125 C 7,-2.296875 7.1875,-2.296875 7.1875,-2.5 7.1875,-2.6875 7,-2.6875 6.859375,-2.6875 h -2.78125 v -2.796875 c 0,-0.140625 0,-0.328125 -0.203125,-0.328125 -0.203125,0 -0.203125,0.1875 -0.203125,0.328125 V -2.6875 h -2.78125 c -0.140625,0 -0.328125,0 -0.328125,0.1875 0,0.203125 0.1875,0.203125 0.328125,0.203125 h 2.78125 V 0.5 c 0,0.140625 0,0.328125 0.203125,0.328125 0.203125,0 0.203125,-0.1875 0.203125,-0.328125 z m 0,0"
                 transform="translate(133.768,134.765)"
                 id="path1611" />
            </g>
          </g>
        </g>
      </g>
      <g
         transform="translate(74.434564,4.9444863)"
         id="g1631">
        <circle
           r="2.9399648"
           cy="97.750565"
           cx="41.694046"
           id="circle1621"
           style="opacity:1;fill:#dc5050;fill-opacity:1;fill-rule:nonzero;stroke:none;stroke-width:0.16500001;stroke-linecap:butt;stroke-linejoin:round;stroke-miterlimit:4;stroke-dasharray:0.165, 0.165;stroke-dashoffset:0;stroke-opacity:1" />
        <g
           id="g1629"
           ns1:jacobian_sqrt="0.678074"
           inkscapeversion="0.92.3"
           ns1:alignment="middle center"
           ns1:scale="1.92209813862"
           ns1:preamble="/home/mpnerem/.config/inkscape/extensions/textext/default_packages.tex"
           ns1:text="$+$"
           ns1:pdfconverter="pdf2svg"
           ns1:texconverter="pdflatex"
           ns1:version="0.11.0"
           transform="matrix(0.678074,0,0,0.678074,-51.638094,8.0598095)"
           style="fill:#ffffff;stroke:#ffffff">
          <g
             id="g1627"
             style="fill:#ffffff;stroke:#ffffff">
            <g
               id="g1625"
               style="fill:#ffffff;fill-opacity:1;stroke:#ffffff">
              <path
                 id="path1623"
                 transform="translate(133.768,134.765)"
                 d="m 4.078125,-2.296875 h 2.78125 C 7,-2.296875 7.1875,-2.296875 7.1875,-2.5 7.1875,-2.6875 7,-2.6875 6.859375,-2.6875 h -2.78125 v -2.796875 c 0,-0.140625 0,-0.328125 -0.203125,-0.328125 -0.203125,0 -0.203125,0.1875 -0.203125,0.328125 V -2.6875 h -2.78125 c -0.140625,0 -0.328125,0 -0.328125,0.1875 0,0.203125 0.1875,0.203125 0.328125,0.203125 h 2.78125 V 0.5 c 0,0.140625 0,0.328125 0.203125,0.328125 0.203125,0 0.203125,-0.1875 0.203125,-0.328125 z m 0,0"
                 style="fill:#ffffff;stroke:#ffffff;stroke-width:0"
                 inkscape:connector-curvature="0" />
            </g>
          </g>
        </g>
      </g>
      <g
         id="g1643"
         transform="translate(79.913589,3.0735996)">
        <circle
           style="opacity:1;fill:#dc5050;fill-opacity:1;fill-rule:nonzero;stroke:none;stroke-width:0.16500001;stroke-linecap:butt;stroke-linejoin:round;stroke-miterlimit:4;stroke-dasharray:0.165, 0.165;stroke-dashoffset:0;stroke-opacity:1"
           id="circle1633"
           cx="41.694046"
           cy="97.750565"
           r="2.9399648" />
        <g
           style="fill:#ffffff;stroke:#ffffff"
           transform="matrix(0.678074,0,0,0.678074,-51.638094,8.0598095)"
           ns1:version="0.11.0"
           ns1:texconverter="pdflatex"
           ns1:pdfconverter="pdf2svg"
           ns1:text="$+$"
           ns1:preamble="/home/mpnerem/.config/inkscape/extensions/textext/default_packages.tex"
           ns1:scale="1.92209813862"
           ns1:alignment="middle center"
           inkscapeversion="0.92.3"
           ns1:jacobian_sqrt="0.678074"
           id="g1641">
          <g
             style="fill:#ffffff;stroke:#ffffff"
             id="g1639">
            <g
               style="fill:#ffffff;fill-opacity:1;stroke:#ffffff"
               id="g1637">
              <path
                 inkscape:connector-curvature="0"
                 style="fill:#ffffff;stroke:#ffffff;stroke-width:0"
                 d="m 4.078125,-2.296875 h 2.78125 C 7,-2.296875 7.1875,-2.296875 7.1875,-2.5 7.1875,-2.6875 7,-2.6875 6.859375,-2.6875 h -2.78125 v -2.796875 c 0,-0.140625 0,-0.328125 -0.203125,-0.328125 -0.203125,0 -0.203125,0.1875 -0.203125,0.328125 V -2.6875 h -2.78125 c -0.140625,0 -0.328125,0 -0.328125,0.1875 0,0.203125 0.1875,0.203125 0.328125,0.203125 h 2.78125 V 0.5 c 0,0.140625 0,0.328125 0.203125,0.328125 0.203125,0 0.203125,-0.1875 0.203125,-0.328125 z m 0,0"
                 transform="translate(133.768,134.765)"
                 id="path1635" />
            </g>
          </g>
        </g>
      </g>
      <g
         transform="translate(83.521728,9.3544335)"
         id="g1655">
        <circle
           r="2.9399648"
           cy="97.750565"
           cx="41.694046"
           id="circle1645"
           style="opacity:1;fill:#dc5050;fill-opacity:1;fill-rule:nonzero;stroke:none;stroke-width:0.16500001;stroke-linecap:butt;stroke-linejoin:round;stroke-miterlimit:4;stroke-dasharray:0.165, 0.165;stroke-dashoffset:0;stroke-opacity:1" />
        <g
           id="g1653"
           ns1:jacobian_sqrt="0.678074"
           inkscapeversion="0.92.3"
           ns1:alignment="middle center"
           ns1:scale="1.92209813862"
           ns1:preamble="/home/mpnerem/.config/inkscape/extensions/textext/default_packages.tex"
           ns1:text="$+$"
           ns1:pdfconverter="pdf2svg"
           ns1:texconverter="pdflatex"
           ns1:version="0.11.0"
           transform="matrix(0.678074,0,0,0.678074,-51.638094,8.0598095)"
           style="fill:#ffffff;stroke:#ffffff">
          <g
             id="g1651"
             style="fill:#ffffff;stroke:#ffffff">
            <g
               id="g1649"
               style="fill:#ffffff;fill-opacity:1;stroke:#ffffff">
              <path
                 id="path1647"
                 transform="translate(133.768,134.765)"
                 d="m 4.078125,-2.296875 h 2.78125 C 7,-2.296875 7.1875,-2.296875 7.1875,-2.5 7.1875,-2.6875 7,-2.6875 6.859375,-2.6875 h -2.78125 v -2.796875 c 0,-0.140625 0,-0.328125 -0.203125,-0.328125 -0.203125,0 -0.203125,0.1875 -0.203125,0.328125 V -2.6875 h -2.78125 c -0.140625,0 -0.328125,0 -0.328125,0.1875 0,0.203125 0.1875,0.203125 0.328125,0.203125 h 2.78125 V 0.5 c 0,0.140625 0,0.328125 0.203125,0.328125 0.203125,0 0.203125,-0.1875 0.203125,-0.328125 z m 0,0"
                 style="fill:#ffffff;stroke:#ffffff;stroke-width:0"
                 inkscape:connector-curvature="0" />
            </g>
          </g>
        </g>
      </g>
      <g
         id="g1667"
         transform="translate(79.245416,12.160764)">
        <circle
           style="opacity:1;fill:#dc5050;fill-opacity:1;fill-rule:nonzero;stroke:none;stroke-width:0.16500001;stroke-linecap:butt;stroke-linejoin:round;stroke-miterlimit:4;stroke-dasharray:0.165, 0.165;stroke-dashoffset:0;stroke-opacity:1"
           id="circle1657"
           cx="41.694046"
           cy="97.750565"
           r="2.9399648" />
        <g
           style="fill:#ffffff;stroke:#ffffff"
           transform="matrix(0.678074,0,0,0.678074,-51.638094,8.0598095)"
           ns1:version="0.11.0"
           ns1:texconverter="pdflatex"
           ns1:pdfconverter="pdf2svg"
           ns1:text="$+$"
           ns1:preamble="/home/mpnerem/.config/inkscape/extensions/textext/default_packages.tex"
           ns1:scale="1.92209813862"
           ns1:alignment="middle center"
           inkscapeversion="0.92.3"
           ns1:jacobian_sqrt="0.678074"
           id="g1665">
          <g
             style="fill:#ffffff;stroke:#ffffff"
             id="g1663">
            <g
               style="fill:#ffffff;fill-opacity:1;stroke:#ffffff"
               id="g1661">
              <path
                 inkscape:connector-curvature="0"
                 style="fill:#ffffff;stroke:#ffffff;stroke-width:0"
                 d="m 4.078125,-2.296875 h 2.78125 C 7,-2.296875 7.1875,-2.296875 7.1875,-2.5 7.1875,-2.6875 7,-2.6875 6.859375,-2.6875 h -2.78125 v -2.796875 c 0,-0.140625 0,-0.328125 -0.203125,-0.328125 -0.203125,0 -0.203125,0.1875 -0.203125,0.328125 V -2.6875 h -2.78125 c -0.140625,0 -0.328125,0 -0.328125,0.1875 0,0.203125 0.1875,0.203125 0.328125,0.203125 h 2.78125 V 0.5 c 0,0.140625 0,0.328125 0.203125,0.328125 0.203125,0 0.203125,-0.1875 0.203125,-0.328125 z m 0,0"
                 transform="translate(133.768,134.765)"
                 id="path1659" />
            </g>
          </g>
        </g>
      </g>
    </g>
    <path
       sodipodi:nodetypes="cc"
       inkscape:connector-curvature="0"
       id="path1671"
       d="M 56.911345,166.88799 V 155.10913"
       style="fill:none;stroke:#0faa7d;stroke-width:0.465;stroke-linecap:butt;stroke-linejoin:miter;stroke-miterlimit:4;stroke-dasharray:none;stroke-opacity:1;marker-end:url(#Arrow1Lend)" />
    <path
       style="fill:none;stroke:#0faa7d;stroke-width:0.465;stroke-linecap:butt;stroke-linejoin:miter;stroke-miterlimit:4;stroke-dasharray:none;stroke-opacity:1;marker-end:url(#marker3033)"
       d="m 57.055613,108.52672 v 11.77886"
       id="path3029"
       inkscape:connector-curvature="0"
       sodipodi:nodetypes="cc" />
    <circle
       r="25.657875"
       cy="137.70735"
       cx="120.48347"
       id="circle3801"
       style="opacity:1;fill:none;fill-opacity:1;fill-rule:nonzero;stroke:#5092dc;stroke-width:0.76499999;stroke-linecap:butt;stroke-linejoin:round;stroke-miterlimit:4;stroke-dasharray:none;stroke-dashoffset:0;stroke-opacity:1" />
    <g
       id="g3885"
       transform="matrix(0.40037314,0,0,0.40037314,72.133064,66.394288)">
      <g
         transform="matrix(0.00801171,0,0,0.00801171,111.0857,86.742461)"
         id="g3811">
        <path
           style="fill:#c29945"
           inkscape:connector-curvature="0"
           id="path3803"
           d="m 1213.3,16.361 c -28.115,0.20292 -56.225,5.9937 -81.856,17.019 -61.9,28.79 -95.05,93.891 -153.63,127.39 -43.7,26.67 -96.6,32.82 -146.81,30.23 -72.03,-2.35 -150.69,13.66 -202.51,67.48 -43.59,44.32 -58.081,110.51 -49.711,170.74 10.5,99.8 67.57,184.89 112.45,271.63 22.36,46.38 46.53,92.21 65.22,140.22 -10.88,2.58 -22.42,0.0696 -33.52,0.87968 -32.58,-2.56 -63.52,22.591 -69.73,54.291 -7.41,34.61 17.76,71.63 52.35,78.23 4.79,-2.78 6.05,4.4703 2.05,4.1703 -28.34,4.99 -51.351,29.55002 -55.191,57.95002 -4.74,33.87 20.58,67.68 53.82,74.2 21.62,3.2 43.661,-0.6009 65.341,2.1391 -0.71,0.87 -1.5297,1.6506 -2.4297,2.3406 -206.12,80.39 -388.61,219.76 -520.78,397.09 -154.04,204.1 -239.02,459.7 -236.36,715.6 0.79,86.89 -1.6003,173.87 1.2297,260.69 2.59,134.43 10.69,270.91 49.68,400.38 29.01,93.9 76.811,183.37 146.84,253.18 66.49,67.41 149.2,116.98 236.56,152.45 219.1,87.47 458.4,105.12 691.81,111.28 224.99,1.31 452.32,-6.5003 672.03,-59.82 146.37,-36.65 292.91,-97.249 399.48,-207.54 67.77,-68.91 114.62,-156.15 142.87,-248.11 26.3,-84.72 38.23,-173.13 44.67,-261.36 9.66,-138.13 6.0991,-276.72 6.8891,-415.13 -1.17,-26.5 -1.1697,-53.061 -4.7797,-79.411 -16.76,-279.37 -142.11,-550.18 -340.29,-747.57 -44.5,-44.2 -90.95,-87.461 -142.95,-123.08 -53.08,-59.27 -110.32,-115.56 -175.96,-161.07 -1.48,-1.08 -3.7594,-2.2912 -2.9594,-4.4812 12.69,-10.22 22.51,-24.6 25.45,-40.8 8.36,-35.8 -19.221,-73.75002 -55.111,-79.08002 -3.56,0.38 -2.9291,-4.4394 0.3609,-3.7094 43.18,-5.35 70.739,-59.041 48.239,-96.891 -15.12,-31.55 -52.649,-40.289 -84.559,-36.859 20.6,-52.06 46.46,-102.01 71.48,-152.08 27.55,-55.15 61.201,-107.43 82.441,-165.56 20.22,-54.8 32.739,-114.66 20.959,-172.83 -11.82,-70.56 -69.619,-126.71 -137.39,-145.45 -39.58,-14.09 -82.4,-15.14 -124,-14.15 -46.35,1.65 -94.651,-5.7497 -134.78,-30.23 -55.89,-31.85 -88.259,-92.27 -144.94,-123.05 -28.278,-14.641 -60.15,-21.589 -92.014,-21.359 z" />
        <path
           style="fill:#a37f36"
           inkscape:connector-curvature="0"
           id="path3805"
           d="m 2136.2,256.44 c -23,65.08 -41,131.81 -62.3,197.5 -57,172.2 -195.6,308.52 -357.9,384.56 -174.7,84.29 -373.3,111.05 -565.6,97.35 -97.4,-7.8 -194.05,-27.5 -286.36,-59.79 27.95,57.98 58.16,115.27 81.52,175.24 381.24,-0.1 762.54,-0.1 1143.8,0 25.7,-65.04 58,-127.47 89.3,-190.06 34.5,-68.94 76.5,-134.29 103.1,-206.95 25.3,-68.5 40.9,-143.33 26.2,-216.04 -14.8,-88.2 -87,-158.39 -171.8,-181.81 z m 437.5,1477.4 c 96,204 144.2,429.6 141.3,654.9 -2.8,266.3 13.5,539.1 -59,798.5 -36.9,130.6 -104.2,254.2 -203.6,347.7 -89,85.3 -199.2,145.3 -313.8,188.7 -280.9,102.5 -583.9,120.8 -880.1,126.3 -156.6,0.4 -313.48,-4 -469.34,-20.3 -246.86,-27.1 -500.76,-78.1 -710.52,-218.3 36.26,117.4 96.01,229.3 183.55,316.5 83.11,84.3 186.5,146.2 295.7,190.6 273.87,109.3 573.01,131.4 864.81,139.1 281.2,1.6 565.3,-8.2 840,-74.8 182.9,-45.8 366.1,-121.6 499.3,-259.4 84.7,-86.2 143.3,-195.2 178.6,-310.2 32.9,-105.9 47.8,-216.4 55.9,-326.7 12,-172.6 7.6,-345.9 8.6,-518.9 -1.5,-33.1 -1.5,-66.3 -6,-99.2 -21,-349.3 -177.6,-687.8 -425.4,-934.5 z"
           transform="scale(0.8)" />
        <path
           style="fill:#fed573"
           inkscape:connector-curvature="0"
           id="path3807"
           d="m 2112.4,555.33 c 0.7,3.27 -3.4,12.85 -3.4,18.58 -3.6,-4.92 -2.2,-14.75 3.4,-18.58 z" />
        <path
           style="fill:#fed573"
           inkscape:connector-curvature="0"
           id="path3809"
           d="m 756.45,841.07 c 305.05,-0.12 610.05,-0.12 915.05,0 31.9,-3.43 69.4,5.31 84.6,36.86 22.5,37.85 -5.1,91.54 -48.3,96.89 -3.3,-0.73 -3.9,4.09 -0.3,3.71 35.9,5.33 63.4,43.27 55.1,79.07 -3,16.2 -12.8,30.6 -25.5,40.8 -0.8,2.2 1.5,3.4 3,4.5 65.6,45.5 122.9,101.8 175.9,161.1 125.3,151.7 196.3,340.4 237.4,530.9 5.3,22.1 -10.2,45.7 -32,50.7 -23.6,7.2 -49.9,-10.4 -53.4,-34.6 -24.7,-112.2 -59.4,-222.9 -111.4,-325.6 -52,-102.2 -122.2,-197.2 -211.6,-269.2 60.2,116.9 95.2,246.6 102.8,378 8,117.3 -2.6,235.3 -23.8,350.8 -1.3,18.6 -10.1,38.5 -29,45 -28.2,12.8 -62.1,-12.4 -59.8,-42.8 16.5,-90.7 28.8,-182.8 27.8,-275.2 1.8,-124.6 -20.9,-250.4 -71.3,-364.7 -30.6,-69.5 -71.2,-134.5 -118.6,-193.8 -267.1,-1.2 -534.3,-0.1 -801.53,-0.6 -21.68,-2.7 -43.72,1.1 -65.34,-2.1 -33.24,-6.5 -58.56,-40.3 -53.82,-74.2 3.84,-28.4 26.85,-52.97 55.19,-57.96 4,0.3 2.74,-6.95 -2.05,-4.17 -34.59,-6.6 -59.76,-43.62 -52.35,-78.23 6.21,-31.7 37.15,-56.85 69.73,-54.29 11.1,-0.81 22.64,1.7 33.52,-0.88 z" />
      </g>
      <g
         transform="translate(74.969103,10.156242)"
         id="g3823">
        <circle
           r="2.9399648"
           cy="97.750565"
           cx="41.694046"
           id="circle3813"
           style="opacity:1;fill:#dc5050;fill-opacity:1;fill-rule:nonzero;stroke:none;stroke-width:0.16500001;stroke-linecap:butt;stroke-linejoin:round;stroke-miterlimit:4;stroke-dasharray:0.165, 0.165;stroke-dashoffset:0;stroke-opacity:1" />
        <g
           id="g3821"
           ns1:jacobian_sqrt="0.678074"
           inkscapeversion="0.92.3"
           ns1:alignment="middle center"
           ns1:scale="1.92209813862"
           ns1:preamble="/home/mpnerem/.config/inkscape/extensions/textext/default_packages.tex"
           ns1:text="$+$"
           ns1:pdfconverter="pdf2svg"
           ns1:texconverter="pdflatex"
           ns1:version="0.11.0"
           transform="matrix(0.678074,0,0,0.678074,-51.638094,8.0598095)"
           style="fill:#ffffff;stroke:#ffffff">
          <g
             id="g3819"
             style="fill:#ffffff;stroke:#ffffff">
            <g
               id="g3817"
               style="fill:#ffffff;fill-opacity:1;stroke:#ffffff">
              <path
                 id="path3815"
                 transform="translate(133.768,134.765)"
                 d="m 4.078125,-2.296875 h 2.78125 C 7,-2.296875 7.1875,-2.296875 7.1875,-2.5 7.1875,-2.6875 7,-2.6875 6.859375,-2.6875 h -2.78125 v -2.796875 c 0,-0.140625 0,-0.328125 -0.203125,-0.328125 -0.203125,0 -0.203125,0.1875 -0.203125,0.328125 V -2.6875 h -2.78125 c -0.140625,0 -0.328125,0 -0.328125,0.1875 0,0.203125 0.1875,0.203125 0.328125,0.203125 h 2.78125 V 0.5 c 0,0.140625 0,0.328125 0.203125,0.328125 0.203125,0 0.203125,-0.1875 0.203125,-0.328125 z m 0,0"
                 style="fill:#ffffff;stroke:#ffffff;stroke-width:0"
                 inkscape:connector-curvature="0" />
            </g>
          </g>
        </g>
      </g>
      <g
         id="g3835"
         transform="translate(79.111781,7.349912)">
        <circle
           style="opacity:1;fill:#dc5050;fill-opacity:1;fill-rule:nonzero;stroke:none;stroke-width:0.16500001;stroke-linecap:butt;stroke-linejoin:round;stroke-miterlimit:4;stroke-dasharray:0.165, 0.165;stroke-dashoffset:0;stroke-opacity:1"
           id="circle3825"
           cx="41.694046"
           cy="97.750565"
           r="2.9399648" />
        <g
           style="fill:#ffffff;stroke:#ffffff"
           transform="matrix(0.678074,0,0,0.678074,-51.638094,8.0598095)"
           ns1:version="0.11.0"
           ns1:texconverter="pdflatex"
           ns1:pdfconverter="pdf2svg"
           ns1:text="$+$"
           ns1:preamble="/home/mpnerem/.config/inkscape/extensions/textext/default_packages.tex"
           ns1:scale="1.92209813862"
           ns1:alignment="middle center"
           inkscapeversion="0.92.3"
           ns1:jacobian_sqrt="0.678074"
           id="g3833">
          <g
             style="fill:#ffffff;stroke:#ffffff"
             id="g3831">
            <g
               style="fill:#ffffff;fill-opacity:1;stroke:#ffffff"
               id="g3829">
              <path
                 inkscape:connector-curvature="0"
                 style="fill:#ffffff;stroke:#ffffff;stroke-width:0"
                 d="m 4.078125,-2.296875 h 2.78125 C 7,-2.296875 7.1875,-2.296875 7.1875,-2.5 7.1875,-2.6875 7,-2.6875 6.859375,-2.6875 h -2.78125 v -2.796875 c 0,-0.140625 0,-0.328125 -0.203125,-0.328125 -0.203125,0 -0.203125,0.1875 -0.203125,0.328125 V -2.6875 h -2.78125 c -0.140625,0 -0.328125,0 -0.328125,0.1875 0,0.203125 0.1875,0.203125 0.328125,0.203125 h 2.78125 V 0.5 c 0,0.140625 0,0.328125 0.203125,0.328125 0.203125,0 0.203125,-0.1875 0.203125,-0.328125 z m 0,0"
                 transform="translate(133.768,134.765)"
                 id="path3827" />
            </g>
          </g>
        </g>
      </g>
      <g
         transform="translate(74.434564,4.9444863)"
         id="g3847">
        <circle
           r="2.9399648"
           cy="97.750565"
           cx="41.694046"
           id="circle3837"
           style="opacity:1;fill:#dc5050;fill-opacity:1;fill-rule:nonzero;stroke:none;stroke-width:0.16500001;stroke-linecap:butt;stroke-linejoin:round;stroke-miterlimit:4;stroke-dasharray:0.165, 0.165;stroke-dashoffset:0;stroke-opacity:1" />
        <g
           id="g3845"
           ns1:jacobian_sqrt="0.678074"
           inkscapeversion="0.92.3"
           ns1:alignment="middle center"
           ns1:scale="1.92209813862"
           ns1:preamble="/home/mpnerem/.config/inkscape/extensions/textext/default_packages.tex"
           ns1:text="$+$"
           ns1:pdfconverter="pdf2svg"
           ns1:texconverter="pdflatex"
           ns1:version="0.11.0"
           transform="matrix(0.678074,0,0,0.678074,-51.638094,8.0598095)"
           style="fill:#ffffff;stroke:#ffffff">
          <g
             id="g3843"
             style="fill:#ffffff;stroke:#ffffff">
            <g
               id="g3841"
               style="fill:#ffffff;fill-opacity:1;stroke:#ffffff">
              <path
                 id="path3839"
                 transform="translate(133.768,134.765)"
                 d="m 4.078125,-2.296875 h 2.78125 C 7,-2.296875 7.1875,-2.296875 7.1875,-2.5 7.1875,-2.6875 7,-2.6875 6.859375,-2.6875 h -2.78125 v -2.796875 c 0,-0.140625 0,-0.328125 -0.203125,-0.328125 -0.203125,0 -0.203125,0.1875 -0.203125,0.328125 V -2.6875 h -2.78125 c -0.140625,0 -0.328125,0 -0.328125,0.1875 0,0.203125 0.1875,0.203125 0.328125,0.203125 h 2.78125 V 0.5 c 0,0.140625 0,0.328125 0.203125,0.328125 0.203125,0 0.203125,-0.1875 0.203125,-0.328125 z m 0,0"
                 style="fill:#ffffff;stroke:#ffffff;stroke-width:0"
                 inkscape:connector-curvature="0" />
            </g>
          </g>
        </g>
      </g>
      <g
         id="g3859"
         transform="translate(79.913589,3.0735996)">
        <circle
           style="opacity:1;fill:#dc5050;fill-opacity:1;fill-rule:nonzero;stroke:none;stroke-width:0.16500001;stroke-linecap:butt;stroke-linejoin:round;stroke-miterlimit:4;stroke-dasharray:0.165, 0.165;stroke-dashoffset:0;stroke-opacity:1"
           id="circle3849"
           cx="41.694046"
           cy="97.750565"
           r="2.9399648" />
        <g
           style="fill:#ffffff;stroke:#ffffff"
           transform="matrix(0.678074,0,0,0.678074,-51.638094,8.0598095)"
           ns1:version="0.11.0"
           ns1:texconverter="pdflatex"
           ns1:pdfconverter="pdf2svg"
           ns1:text="$+$"
           ns1:preamble="/home/mpnerem/.config/inkscape/extensions/textext/default_packages.tex"
           ns1:scale="1.92209813862"
           ns1:alignment="middle center"
           inkscapeversion="0.92.3"
           ns1:jacobian_sqrt="0.678074"
           id="g3857">
          <g
             style="fill:#ffffff;stroke:#ffffff"
             id="g3855">
            <g
               style="fill:#ffffff;fill-opacity:1;stroke:#ffffff"
               id="g3853">
              <path
                 inkscape:connector-curvature="0"
                 style="fill:#ffffff;stroke:#ffffff;stroke-width:0"
                 d="m 4.078125,-2.296875 h 2.78125 C 7,-2.296875 7.1875,-2.296875 7.1875,-2.5 7.1875,-2.6875 7,-2.6875 6.859375,-2.6875 h -2.78125 v -2.796875 c 0,-0.140625 0,-0.328125 -0.203125,-0.328125 -0.203125,0 -0.203125,0.1875 -0.203125,0.328125 V -2.6875 h -2.78125 c -0.140625,0 -0.328125,0 -0.328125,0.1875 0,0.203125 0.1875,0.203125 0.328125,0.203125 h 2.78125 V 0.5 c 0,0.140625 0,0.328125 0.203125,0.328125 0.203125,0 0.203125,-0.1875 0.203125,-0.328125 z m 0,0"
                 transform="translate(133.768,134.765)"
                 id="path3851" />
            </g>
          </g>
        </g>
      </g>
      <g
         transform="translate(83.521728,9.3544335)"
         id="g3871">
        <circle
           r="2.9399648"
           cy="97.750565"
           cx="41.694046"
           id="circle3861"
           style="opacity:1;fill:#dc5050;fill-opacity:1;fill-rule:nonzero;stroke:none;stroke-width:0.16500001;stroke-linecap:butt;stroke-linejoin:round;stroke-miterlimit:4;stroke-dasharray:0.165, 0.165;stroke-dashoffset:0;stroke-opacity:1" />
        <g
           id="g3869"
           ns1:jacobian_sqrt="0.678074"
           inkscapeversion="0.92.3"
           ns1:alignment="middle center"
           ns1:scale="1.92209813862"
           ns1:preamble="/home/mpnerem/.config/inkscape/extensions/textext/default_packages.tex"
           ns1:text="$+$"
           ns1:pdfconverter="pdf2svg"
           ns1:texconverter="pdflatex"
           ns1:version="0.11.0"
           transform="matrix(0.678074,0,0,0.678074,-51.638094,8.0598095)"
           style="fill:#ffffff;stroke:#ffffff">
          <g
             id="g3867"
             style="fill:#ffffff;stroke:#ffffff">
            <g
               id="g3865"
               style="fill:#ffffff;fill-opacity:1;stroke:#ffffff">
              <path
                 id="path3863"
                 transform="translate(133.768,134.765)"
                 d="m 4.078125,-2.296875 h 2.78125 C 7,-2.296875 7.1875,-2.296875 7.1875,-2.5 7.1875,-2.6875 7,-2.6875 6.859375,-2.6875 h -2.78125 v -2.796875 c 0,-0.140625 0,-0.328125 -0.203125,-0.328125 -0.203125,0 -0.203125,0.1875 -0.203125,0.328125 V -2.6875 h -2.78125 c -0.140625,0 -0.328125,0 -0.328125,0.1875 0,0.203125 0.1875,0.203125 0.328125,0.203125 h 2.78125 V 0.5 c 0,0.140625 0,0.328125 0.203125,0.328125 0.203125,0 0.203125,-0.1875 0.203125,-0.328125 z m 0,0"
                 style="fill:#ffffff;stroke:#ffffff;stroke-width:0"
                 inkscape:connector-curvature="0" />
            </g>
          </g>
        </g>
      </g>
      <g
         id="g3883"
         transform="translate(79.245416,12.160764)">
        <circle
           style="opacity:1;fill:#dc5050;fill-opacity:1;fill-rule:nonzero;stroke:none;stroke-width:0.16500001;stroke-linecap:butt;stroke-linejoin:round;stroke-miterlimit:4;stroke-dasharray:0.165, 0.165;stroke-dashoffset:0;stroke-opacity:1"
           id="circle3873"
           cx="41.694046"
           cy="97.750565"
           r="2.9399648" />
        <g
           style="fill:#ffffff;stroke:#ffffff"
           transform="matrix(0.678074,0,0,0.678074,-51.638094,8.0598095)"
           ns1:version="0.11.0"
           ns1:texconverter="pdflatex"
           ns1:pdfconverter="pdf2svg"
           ns1:text="$+$"
           ns1:preamble="/home/mpnerem/.config/inkscape/extensions/textext/default_packages.tex"
           ns1:scale="1.92209813862"
           ns1:alignment="middle center"
           inkscapeversion="0.92.3"
           ns1:jacobian_sqrt="0.678074"
           id="g3881">
          <g
             style="fill:#ffffff;stroke:#ffffff"
             id="g3879">
            <g
               style="fill:#ffffff;fill-opacity:1;stroke:#ffffff"
               id="g3877">
              <path
                 inkscape:connector-curvature="0"
                 style="fill:#ffffff;stroke:#ffffff;stroke-width:0"
                 d="m 4.078125,-2.296875 h 2.78125 C 7,-2.296875 7.1875,-2.296875 7.1875,-2.5 7.1875,-2.6875 7,-2.6875 6.859375,-2.6875 h -2.78125 v -2.796875 c 0,-0.140625 0,-0.328125 -0.203125,-0.328125 -0.203125,0 -0.203125,0.1875 -0.203125,0.328125 V -2.6875 h -2.78125 c -0.140625,0 -0.328125,0 -0.328125,0.1875 0,0.203125 0.1875,0.203125 0.328125,0.203125 h 2.78125 V 0.5 c 0,0.140625 0,0.328125 0.203125,0.328125 0.203125,0 0.203125,-0.1875 0.203125,-0.328125 z m 0,0"
                 transform="translate(133.768,134.765)"
                 id="path3875" />
            </g>
          </g>
        </g>
      </g>
    </g>
    <g
       transform="matrix(-0.40037314,0,0,-0.40037314,168.83392,209.02042)"
       id="g3969">
      <g
         id="g3895"
         transform="matrix(0.00801171,0,0,0.00801171,111.0857,86.742461)">
        <path
           d="m 1213.3,16.361 c -28.115,0.20292 -56.225,5.9937 -81.856,17.019 -61.9,28.79 -95.05,93.891 -153.63,127.39 -43.7,26.67 -96.6,32.82 -146.81,30.23 -72.03,-2.35 -150.69,13.66 -202.51,67.48 -43.59,44.32 -58.081,110.51 -49.711,170.74 10.5,99.8 67.57,184.89 112.45,271.63 22.36,46.38 46.53,92.21 65.22,140.22 -10.88,2.58 -22.42,0.0696 -33.52,0.87968 -32.58,-2.56 -63.52,22.591 -69.73,54.291 -7.41,34.61 17.76,71.63 52.35,78.23 4.79,-2.78 6.05,4.4703 2.05,4.1703 -28.34,4.99 -51.351,29.55002 -55.191,57.95002 -4.74,33.87 20.58,67.68 53.82,74.2 21.62,3.2 43.661,-0.6009 65.341,2.1391 -0.71,0.87 -1.5297,1.6506 -2.4297,2.3406 -206.12,80.39 -388.61,219.76 -520.78,397.09 -154.04,204.1 -239.02,459.7 -236.36,715.6 0.79,86.89 -1.6003,173.87 1.2297,260.69 2.59,134.43 10.69,270.91 49.68,400.38 29.01,93.9 76.811,183.37 146.84,253.18 66.49,67.41 149.2,116.98 236.56,152.45 219.1,87.47 458.4,105.12 691.81,111.28 224.99,1.31 452.32,-6.5003 672.03,-59.82 146.37,-36.65 292.91,-97.249 399.48,-207.54 67.77,-68.91 114.62,-156.15 142.87,-248.11 26.3,-84.72 38.23,-173.13 44.67,-261.36 9.66,-138.13 6.0991,-276.72 6.8891,-415.13 -1.17,-26.5 -1.1697,-53.061 -4.7797,-79.411 -16.76,-279.37 -142.11,-550.18 -340.29,-747.57 -44.5,-44.2 -90.95,-87.461 -142.95,-123.08 -53.08,-59.27 -110.32,-115.56 -175.96,-161.07 -1.48,-1.08 -3.7594,-2.2912 -2.9594,-4.4812 12.69,-10.22 22.51,-24.6 25.45,-40.8 8.36,-35.8 -19.221,-73.75002 -55.111,-79.08002 -3.56,0.38 -2.9291,-4.4394 0.3609,-3.7094 43.18,-5.35 70.739,-59.041 48.239,-96.891 -15.12,-31.55 -52.649,-40.289 -84.559,-36.859 20.6,-52.06 46.46,-102.01 71.48,-152.08 27.55,-55.15 61.201,-107.43 82.441,-165.56 20.22,-54.8 32.739,-114.66 20.959,-172.83 -11.82,-70.56 -69.619,-126.71 -137.39,-145.45 -39.58,-14.09 -82.4,-15.14 -124,-14.15 -46.35,1.65 -94.651,-5.7497 -134.78,-30.23 -55.89,-31.85 -88.259,-92.27 -144.94,-123.05 -28.278,-14.641 -60.15,-21.589 -92.014,-21.359 z"
           id="path3887"
           inkscape:connector-curvature="0"
           style="fill:#c29945" />
        <path
           transform="scale(0.8)"
           d="m 2136.2,256.44 c -23,65.08 -41,131.81 -62.3,197.5 -57,172.2 -195.6,308.52 -357.9,384.56 -174.7,84.29 -373.3,111.05 -565.6,97.35 -97.4,-7.8 -194.05,-27.5 -286.36,-59.79 27.95,57.98 58.16,115.27 81.52,175.24 381.24,-0.1 762.54,-0.1 1143.8,0 25.7,-65.04 58,-127.47 89.3,-190.06 34.5,-68.94 76.5,-134.29 103.1,-206.95 25.3,-68.5 40.9,-143.33 26.2,-216.04 -14.8,-88.2 -87,-158.39 -171.8,-181.81 z m 437.5,1477.4 c 96,204 144.2,429.6 141.3,654.9 -2.8,266.3 13.5,539.1 -59,798.5 -36.9,130.6 -104.2,254.2 -203.6,347.7 -89,85.3 -199.2,145.3 -313.8,188.7 -280.9,102.5 -583.9,120.8 -880.1,126.3 -156.6,0.4 -313.48,-4 -469.34,-20.3 -246.86,-27.1 -500.76,-78.1 -710.52,-218.3 36.26,117.4 96.01,229.3 183.55,316.5 83.11,84.3 186.5,146.2 295.7,190.6 273.87,109.3 573.01,131.4 864.81,139.1 281.2,1.6 565.3,-8.2 840,-74.8 182.9,-45.8 366.1,-121.6 499.3,-259.4 84.7,-86.2 143.3,-195.2 178.6,-310.2 32.9,-105.9 47.8,-216.4 55.9,-326.7 12,-172.6 7.6,-345.9 8.6,-518.9 -1.5,-33.1 -1.5,-66.3 -6,-99.2 -21,-349.3 -177.6,-687.8 -425.4,-934.5 z"
           id="path3889"
           inkscape:connector-curvature="0"
           style="fill:#a37f36" />
        <path
           d="m 2112.4,555.33 c 0.7,3.27 -3.4,12.85 -3.4,18.58 -3.6,-4.92 -2.2,-14.75 3.4,-18.58 z"
           id="path3891"
           inkscape:connector-curvature="0"
           style="fill:#fed573" />
        <path
           d="m 756.45,841.07 c 305.05,-0.12 610.05,-0.12 915.05,0 31.9,-3.43 69.4,5.31 84.6,36.86 22.5,37.85 -5.1,91.54 -48.3,96.89 -3.3,-0.73 -3.9,4.09 -0.3,3.71 35.9,5.33 63.4,43.27 55.1,79.07 -3,16.2 -12.8,30.6 -25.5,40.8 -0.8,2.2 1.5,3.4 3,4.5 65.6,45.5 122.9,101.8 175.9,161.1 125.3,151.7 196.3,340.4 237.4,530.9 5.3,22.1 -10.2,45.7 -32,50.7 -23.6,7.2 -49.9,-10.4 -53.4,-34.6 -24.7,-112.2 -59.4,-222.9 -111.4,-325.6 -52,-102.2 -122.2,-197.2 -211.6,-269.2 60.2,116.9 95.2,246.6 102.8,378 8,117.3 -2.6,235.3 -23.8,350.8 -1.3,18.6 -10.1,38.5 -29,45 -28.2,12.8 -62.1,-12.4 -59.8,-42.8 16.5,-90.7 28.8,-182.8 27.8,-275.2 1.8,-124.6 -20.9,-250.4 -71.3,-364.7 -30.6,-69.5 -71.2,-134.5 -118.6,-193.8 -267.1,-1.2 -534.3,-0.1 -801.53,-0.6 -21.68,-2.7 -43.72,1.1 -65.34,-2.1 -33.24,-6.5 -58.56,-40.3 -53.82,-74.2 3.84,-28.4 26.85,-52.97 55.19,-57.96 4,0.3 2.74,-6.95 -2.05,-4.17 -34.59,-6.6 -59.76,-43.62 -52.35,-78.23 6.21,-31.7 37.15,-56.85 69.73,-54.29 11.1,-0.81 22.64,1.7 33.52,-0.88 z"
           id="path3893"
           inkscape:connector-curvature="0"
           style="fill:#fed573" />
      </g>
      <g
         id="g3907"
         transform="translate(74.969103,10.156242)">
        <circle
           style="opacity:1;fill:#dc5050;fill-opacity:1;fill-rule:nonzero;stroke:none;stroke-width:0.16500001;stroke-linecap:butt;stroke-linejoin:round;stroke-miterlimit:4;stroke-dasharray:0.165, 0.165;stroke-dashoffset:0;stroke-opacity:1"
           id="circle3897"
           cx="41.694046"
           cy="97.750565"
           r="2.9399648" />
        <g
           style="fill:#ffffff;stroke:#ffffff"
           transform="matrix(0.678074,0,0,0.678074,-51.638094,8.0598095)"
           ns1:version="0.11.0"
           ns1:texconverter="pdflatex"
           ns1:pdfconverter="pdf2svg"
           ns1:text="$+$"
           ns1:preamble="/home/mpnerem/.config/inkscape/extensions/textext/default_packages.tex"
           ns1:scale="1.92209813862"
           ns1:alignment="middle center"
           inkscapeversion="0.92.3"
           ns1:jacobian_sqrt="0.678074"
           id="g3905">
          <g
             style="fill:#ffffff;stroke:#ffffff"
             id="g3903">
            <g
               style="fill:#ffffff;fill-opacity:1;stroke:#ffffff"
               id="g3901">
              <path
                 inkscape:connector-curvature="0"
                 style="fill:#ffffff;stroke:#ffffff;stroke-width:0"
                 d="m 4.078125,-2.296875 h 2.78125 C 7,-2.296875 7.1875,-2.296875 7.1875,-2.5 7.1875,-2.6875 7,-2.6875 6.859375,-2.6875 h -2.78125 v -2.796875 c 0,-0.140625 0,-0.328125 -0.203125,-0.328125 -0.203125,0 -0.203125,0.1875 -0.203125,0.328125 V -2.6875 h -2.78125 c -0.140625,0 -0.328125,0 -0.328125,0.1875 0,0.203125 0.1875,0.203125 0.328125,0.203125 h 2.78125 V 0.5 c 0,0.140625 0,0.328125 0.203125,0.328125 0.203125,0 0.203125,-0.1875 0.203125,-0.328125 z m 0,0"
                 transform="translate(133.768,134.765)"
                 id="path3899" />
            </g>
          </g>
        </g>
      </g>
      <g
         transform="translate(79.111781,7.349912)"
         id="g3919">
        <circle
           r="2.9399648"
           cy="97.750565"
           cx="41.694046"
           id="circle3909"
           style="opacity:1;fill:#dc5050;fill-opacity:1;fill-rule:nonzero;stroke:none;stroke-width:0.16500001;stroke-linecap:butt;stroke-linejoin:round;stroke-miterlimit:4;stroke-dasharray:0.165, 0.165;stroke-dashoffset:0;stroke-opacity:1" />
        <g
           id="g3917"
           ns1:jacobian_sqrt="0.678074"
           inkscapeversion="0.92.3"
           ns1:alignment="middle center"
           ns1:scale="1.92209813862"
           ns1:preamble="/home/mpnerem/.config/inkscape/extensions/textext/default_packages.tex"
           ns1:text="$+$"
           ns1:pdfconverter="pdf2svg"
           ns1:texconverter="pdflatex"
           ns1:version="0.11.0"
           transform="matrix(0.678074,0,0,0.678074,-51.638094,8.0598095)"
           style="fill:#ffffff;stroke:#ffffff">
          <g
             id="g3915"
             style="fill:#ffffff;stroke:#ffffff">
            <g
               id="g3913"
               style="fill:#ffffff;fill-opacity:1;stroke:#ffffff">
              <path
                 id="path3911"
                 transform="translate(133.768,134.765)"
                 d="m 4.078125,-2.296875 h 2.78125 C 7,-2.296875 7.1875,-2.296875 7.1875,-2.5 7.1875,-2.6875 7,-2.6875 6.859375,-2.6875 h -2.78125 v -2.796875 c 0,-0.140625 0,-0.328125 -0.203125,-0.328125 -0.203125,0 -0.203125,0.1875 -0.203125,0.328125 V -2.6875 h -2.78125 c -0.140625,0 -0.328125,0 -0.328125,0.1875 0,0.203125 0.1875,0.203125 0.328125,0.203125 h 2.78125 V 0.5 c 0,0.140625 0,0.328125 0.203125,0.328125 0.203125,0 0.203125,-0.1875 0.203125,-0.328125 z m 0,0"
                 style="fill:#ffffff;stroke:#ffffff;stroke-width:0"
                 inkscape:connector-curvature="0" />
            </g>
          </g>
        </g>
      </g>
      <g
         id="g3931"
         transform="translate(74.434564,4.9444863)">
        <circle
           style="opacity:1;fill:#dc5050;fill-opacity:1;fill-rule:nonzero;stroke:none;stroke-width:0.16500001;stroke-linecap:butt;stroke-linejoin:round;stroke-miterlimit:4;stroke-dasharray:0.165, 0.165;stroke-dashoffset:0;stroke-opacity:1"
           id="circle3921"
           cx="41.694046"
           cy="97.750565"
           r="2.9399648" />
        <g
           style="fill:#ffffff;stroke:#ffffff"
           transform="matrix(0.678074,0,0,0.678074,-51.638094,8.0598095)"
           ns1:version="0.11.0"
           ns1:texconverter="pdflatex"
           ns1:pdfconverter="pdf2svg"
           ns1:text="$+$"
           ns1:preamble="/home/mpnerem/.config/inkscape/extensions/textext/default_packages.tex"
           ns1:scale="1.92209813862"
           ns1:alignment="middle center"
           inkscapeversion="0.92.3"
           ns1:jacobian_sqrt="0.678074"
           id="g3929">
          <g
             style="fill:#ffffff;stroke:#ffffff"
             id="g3927">
            <g
               style="fill:#ffffff;fill-opacity:1;stroke:#ffffff"
               id="g3925">
              <path
                 inkscape:connector-curvature="0"
                 style="fill:#ffffff;stroke:#ffffff;stroke-width:0"
                 d="m 4.078125,-2.296875 h 2.78125 C 7,-2.296875 7.1875,-2.296875 7.1875,-2.5 7.1875,-2.6875 7,-2.6875 6.859375,-2.6875 h -2.78125 v -2.796875 c 0,-0.140625 0,-0.328125 -0.203125,-0.328125 -0.203125,0 -0.203125,0.1875 -0.203125,0.328125 V -2.6875 h -2.78125 c -0.140625,0 -0.328125,0 -0.328125,0.1875 0,0.203125 0.1875,0.203125 0.328125,0.203125 h 2.78125 V 0.5 c 0,0.140625 0,0.328125 0.203125,0.328125 0.203125,0 0.203125,-0.1875 0.203125,-0.328125 z m 0,0"
                 transform="translate(133.768,134.765)"
                 id="path3923" />
            </g>
          </g>
        </g>
      </g>
      <g
         transform="translate(79.913589,3.0735996)"
         id="g3943">
        <circle
           r="2.9399648"
           cy="97.750565"
           cx="41.694046"
           id="circle3933"
           style="opacity:1;fill:#dc5050;fill-opacity:1;fill-rule:nonzero;stroke:none;stroke-width:0.16500001;stroke-linecap:butt;stroke-linejoin:round;stroke-miterlimit:4;stroke-dasharray:0.165, 0.165;stroke-dashoffset:0;stroke-opacity:1" />
        <g
           id="g3941"
           ns1:jacobian_sqrt="0.678074"
           inkscapeversion="0.92.3"
           ns1:alignment="middle center"
           ns1:scale="1.92209813862"
           ns1:preamble="/home/mpnerem/.config/inkscape/extensions/textext/default_packages.tex"
           ns1:text="$+$"
           ns1:pdfconverter="pdf2svg"
           ns1:texconverter="pdflatex"
           ns1:version="0.11.0"
           transform="matrix(0.678074,0,0,0.678074,-51.638094,8.0598095)"
           style="fill:#ffffff;stroke:#ffffff">
          <g
             id="g3939"
             style="fill:#ffffff;stroke:#ffffff">
            <g
               id="g3937"
               style="fill:#ffffff;fill-opacity:1;stroke:#ffffff">
              <path
                 id="path3935"
                 transform="translate(133.768,134.765)"
                 d="m 4.078125,-2.296875 h 2.78125 C 7,-2.296875 7.1875,-2.296875 7.1875,-2.5 7.1875,-2.6875 7,-2.6875 6.859375,-2.6875 h -2.78125 v -2.796875 c 0,-0.140625 0,-0.328125 -0.203125,-0.328125 -0.203125,0 -0.203125,0.1875 -0.203125,0.328125 V -2.6875 h -2.78125 c -0.140625,0 -0.328125,0 -0.328125,0.1875 0,0.203125 0.1875,0.203125 0.328125,0.203125 h 2.78125 V 0.5 c 0,0.140625 0,0.328125 0.203125,0.328125 0.203125,0 0.203125,-0.1875 0.203125,-0.328125 z m 0,0"
                 style="fill:#ffffff;stroke:#ffffff;stroke-width:0"
                 inkscape:connector-curvature="0" />
            </g>
          </g>
        </g>
      </g>
      <g
         id="g3955"
         transform="translate(83.521728,9.3544335)">
        <circle
           style="opacity:1;fill:#dc5050;fill-opacity:1;fill-rule:nonzero;stroke:none;stroke-width:0.16500001;stroke-linecap:butt;stroke-linejoin:round;stroke-miterlimit:4;stroke-dasharray:0.165, 0.165;stroke-dashoffset:0;stroke-opacity:1"
           id="circle3945"
           cx="41.694046"
           cy="97.750565"
           r="2.9399648" />
        <g
           style="fill:#ffffff;stroke:#ffffff"
           transform="matrix(0.678074,0,0,0.678074,-51.638094,8.0598095)"
           ns1:version="0.11.0"
           ns1:texconverter="pdflatex"
           ns1:pdfconverter="pdf2svg"
           ns1:text="$+$"
           ns1:preamble="/home/mpnerem/.config/inkscape/extensions/textext/default_packages.tex"
           ns1:scale="1.92209813862"
           ns1:alignment="middle center"
           inkscapeversion="0.92.3"
           ns1:jacobian_sqrt="0.678074"
           id="g3953">
          <g
             style="fill:#ffffff;stroke:#ffffff"
             id="g3951">
            <g
               style="fill:#ffffff;fill-opacity:1;stroke:#ffffff"
               id="g3949">
              <path
                 inkscape:connector-curvature="0"
                 style="fill:#ffffff;stroke:#ffffff;stroke-width:0"
                 d="m 4.078125,-2.296875 h 2.78125 C 7,-2.296875 7.1875,-2.296875 7.1875,-2.5 7.1875,-2.6875 7,-2.6875 6.859375,-2.6875 h -2.78125 v -2.796875 c 0,-0.140625 0,-0.328125 -0.203125,-0.328125 -0.203125,0 -0.203125,0.1875 -0.203125,0.328125 V -2.6875 h -2.78125 c -0.140625,0 -0.328125,0 -0.328125,0.1875 0,0.203125 0.1875,0.203125 0.328125,0.203125 h 2.78125 V 0.5 c 0,0.140625 0,0.328125 0.203125,0.328125 0.203125,0 0.203125,-0.1875 0.203125,-0.328125 z m 0,0"
                 transform="translate(133.768,134.765)"
                 id="path3947" />
            </g>
          </g>
        </g>
      </g>
      <g
         transform="translate(79.245416,12.160764)"
         id="g3967">
        <circle
           r="2.9399648"
           cy="97.750565"
           cx="41.694046"
           id="circle3957"
           style="opacity:1;fill:#dc5050;fill-opacity:1;fill-rule:nonzero;stroke:none;stroke-width:0.16500001;stroke-linecap:butt;stroke-linejoin:round;stroke-miterlimit:4;stroke-dasharray:0.165, 0.165;stroke-dashoffset:0;stroke-opacity:1" />
        <g
           id="g3965"
           ns1:jacobian_sqrt="0.678074"
           inkscapeversion="0.92.3"
           ns1:alignment="middle center"
           ns1:scale="1.92209813862"
           ns1:preamble="/home/mpnerem/.config/inkscape/extensions/textext/default_packages.tex"
           ns1:text="$+$"
           ns1:pdfconverter="pdf2svg"
           ns1:texconverter="pdflatex"
           ns1:version="0.11.0"
           transform="matrix(0.678074,0,0,0.678074,-51.638094,8.0598095)"
           style="fill:#ffffff;stroke:#ffffff">
          <g
             id="g3963"
             style="fill:#ffffff;stroke:#ffffff">
            <g
               id="g3961"
               style="fill:#ffffff;fill-opacity:1;stroke:#ffffff">
              <path
                 id="path3959"
                 transform="translate(133.768,134.765)"
                 d="m 4.078125,-2.296875 h 2.78125 C 7,-2.296875 7.1875,-2.296875 7.1875,-2.5 7.1875,-2.6875 7,-2.6875 6.859375,-2.6875 h -2.78125 v -2.796875 c 0,-0.140625 0,-0.328125 -0.203125,-0.328125 -0.203125,0 -0.203125,0.1875 -0.203125,0.328125 V -2.6875 h -2.78125 c -0.140625,0 -0.328125,0 -0.328125,0.1875 0,0.203125 0.1875,0.203125 0.328125,0.203125 h 2.78125 V 0.5 c 0,0.140625 0,0.328125 0.203125,0.328125 0.203125,0 0.203125,-0.1875 0.203125,-0.328125 z m 0,0"
                 style="fill:#ffffff;stroke:#ffffff;stroke-width:0"
                 inkscape:connector-curvature="0" />
            </g>
          </g>
        </g>
      </g>
    </g>
    <path
       style="fill:none;stroke:#ff7f2a;stroke-width:0.86500001;stroke-linecap:butt;stroke-linejoin:miter;stroke-miterlimit:4;stroke-dasharray:none;stroke-opacity:1;marker-end:url(#marker3999)"
       d="M 120.55562,108.52672 V 63.0719"
       id="path3971"
       inkscape:connector-curvature="0"
       sodipodi:nodetypes="cc" />
    <path
       sodipodi:nodetypes="cc"
       inkscape:connector-curvature="0"
       id="path4921"
       d="m 120.52166,166.88799 v 45.45482"
       style="fill:none;stroke:#ff7f2a;stroke-width:0.86500001;stroke-linecap:butt;stroke-linejoin:miter;stroke-miterlimit:4;stroke-dasharray:none;stroke-opacity:1;marker-end:url(#marker4925)" />
    <path
       inkscape:connector-curvature="0"
       id="path5417"
       d="m 120.48347,133.03013 v 9.35444"
       style="fill:none;stroke:#000000;stroke-width:0.26458332px;stroke-linecap:butt;stroke-linejoin:miter;stroke-opacity:1" />
    <path
       style="fill:none;stroke:#000000;stroke-width:0.26458332px;stroke-linecap:butt;stroke-linejoin:miter;stroke-opacity:1"
       d="m 125.16069,137.70735 h -9.35444"
       id="path5419"
       inkscape:connector-curvature="0" />
    <path
       inkscape:connector-curvature="0"
       id="path5421"
       d="M 61.66071,137.70735 H 52.30627"
       style="fill:none;stroke:#000000;stroke-width:0.26458332px;stroke-linecap:butt;stroke-linejoin:miter;stroke-opacity:1" />
    <path
       style="fill:none;stroke:#000000;stroke-width:0.26458332px;stroke-linecap:butt;stroke-linejoin:miter;stroke-opacity:1"
       d="m 56.98349,142.38457 v -9.35444"
       id="path5423"
       inkscape:connector-curvature="0" />
    <path
       inkscape:connector-curvature="0"
       id="path5425"
       d="M 56.885416,137.58853 75.689732,120.48511"
       style="fill:none;stroke:#000000;stroke-width:0.26458332px;stroke-linecap:butt;stroke-linejoin:miter;stroke-opacity:1" />
    <path
       style="fill:none;stroke:#000000;stroke-width:0.26458332px;stroke-linecap:butt;stroke-linejoin:miter;stroke-opacity:1"
       d="m 120.38542,137.58853 18.80433,-17.10342"
       id="path5427"
       inkscape:connector-curvature="0" />
    <g
       id="g5632"
       ns1:jacobian_sqrt="0.678074"
       inkscapeversion="0.92.3"
       ns1:alignment="middle center"
       ns1:scale="1.92209813862"
       ns1:preamble="/home/mpnerem/.config/inkscape/extensions/textext/default_packages.tex"
       ns1:text="$R_E$"
       ns1:pdfconverter="pdf2svg"
       ns1:texconverter="pdflatex"
       ns1:version="0.11.0"
       transform="matrix(0.678074,0,0,0.678074,40.410408,41.724609)">
      <g
         id="g5630">
        <g
           id="g5624"
           style="fill:#000000;fill-opacity:1">
          <path
             id="path5622"
             transform="translate(133.768,134.765)"
             d="m 3.734375,-6.125 c 0.0625,-0.234375 0.09375,-0.328125 0.28125,-0.359375 C 4.109375,-6.5 4.421875,-6.5 4.625,-6.5 c 0.703125,0 1.8125,0 1.8125,0.984375 0,0.34375 -0.15625,1.03125 -0.546875,1.421875 -0.265625,0.25 -0.78125,0.578125 -1.6875,0.578125 H 3.09375 Z m 1.4375,2.734375 c 1.015625,-0.21875 2.1875,-0.921875 2.1875,-1.921875 0,-0.859375 -0.890625,-1.5 -2.203125,-1.5 H 2.328125 c -0.203125,0 -0.296875,0 -0.296875,0.203125 C 2.03125,-6.5 2.125,-6.5 2.3125,-6.5 c 0.015625,0 0.203125,0 0.375,0.015625 0.1875,0.03125 0.265625,0.03125 0.265625,0.171875 0,0.03125 0,0.0625 -0.03125,0.1875 l -1.34375,5.34375 C 1.484375,-0.390625 1.46875,-0.3125 0.671875,-0.3125 0.5,-0.3125 0.40625,-0.3125 0.40625,-0.109375 0.40625,0 0.53125,0 0.546875,0 c 0.28125,0 0.984375,-0.03125 1.25,-0.03125 0.28125,0 1,0.03125 1.28125,0.03125 0.078125,0 0.1875,0 0.1875,-0.203125 0,-0.109375 -0.078125,-0.109375 -0.28125,-0.109375 -0.359375,0 -0.640625,0 -0.640625,-0.171875 0,-0.0625 0.015625,-0.109375 0.03125,-0.171875 l 0.65625,-2.640625 h 1.1875 c 0.90625,0 1.078125,0.5625 1.078125,0.90625 0,0.140625 -0.078125,0.453125 -0.140625,0.6875 C 5.09375,-1.421875 5,-1.0625 5,-0.859375 5,0.21875 6.203125,0.21875 6.328125,0.21875 c 0.84375,0 1.203125,-1 1.203125,-1.140625 0,-0.125 -0.109375,-0.125 -0.125,-0.125 -0.09375,0 -0.109375,0.0625 -0.125,0.140625 C 7.03125,-0.171875 6.59375,0 6.375,0 6.046875,0 5.96875,-0.21875 5.96875,-0.609375 c 0,-0.3125 0.0625,-0.8125 0.109375,-1.140625 0.015625,-0.140625 0.03125,-0.328125 0.03125,-0.46875 0,-0.765625 -0.671875,-1.078125 -0.9375,-1.171875 z m 0,0"
             style="stroke:none;stroke-width:0"
             inkscape:connector-curvature="0" />
        </g>
        <g
           id="g5628"
           style="fill:#000000;fill-opacity:1">
          <path
             id="path5626"
             transform="translate(141.333,136.259)"
             d="m 5.515625,-1.609375 c 0.046875,-0.09375 0.046875,-0.125 0.046875,-0.125 0,-0.046875 -0.03125,-0.09375 -0.125,-0.09375 -0.015625,0 -0.046875,0 -0.078125,0.015625 0,0.015625 -0.015625,0.03125 -0.09375,0.203125 C 4.8125,-0.59375 4.453125,-0.25 3.3125,-0.25 H 2.125 c -0.203125,0 -0.21875,-0.015625 -0.21875,-0.078125 0,0 0,-0.03125 0.03125,-0.140625 L 2.40625,-2.328125 H 3.1875 c 0.546875,0 0.625,0.078125 0.625,0.3125 0,0.078125 -0.015625,0.203125 -0.046875,0.3125 C 3.75,-1.640625 3.75,-1.625 3.75,-1.609375 c 0,0 0,0.09375 0.125,0.09375 0.09375,0 0.09375,-0.03125 0.125,-0.15625 l 0.390625,-1.53125 c 0.015625,-0.078125 0.015625,-0.09375 0.015625,-0.09375 0,-0.078125 -0.0625,-0.109375 -0.125,-0.109375 -0.09375,0 -0.09375,0.046875 -0.140625,0.1875 C 4,-2.671875 3.796875,-2.578125 3.203125,-2.578125 H 2.46875 L 2.890625,-4.25 c 0.046875,-0.203125 0.0625,-0.234375 0.34375,-0.234375 H 4.375 c 0.921875,0 1.140625,0.1875 1.140625,0.8125 0,0.1875 -0.03125,0.390625 -0.03125,0.421875 0,0.0625 0.03125,0.125 0.125,0.125 0.109375,0 0.109375,-0.0625 0.125,-0.1875 l 0.125,-1.203125 C 5.875,-4.734375 5.828125,-4.734375 5.65625,-4.734375 H 1.828125 c -0.140625,0 -0.21875,0 -0.21875,0.15625 0,0.09375 0.0625,0.09375 0.21875,0.09375 0.109375,0 0.140625,0 0.265625,0.015625 C 2.234375,-4.453125 2.25,-4.4375 2.25,-4.375 c 0,0.046875 -0.015625,0.125 -0.03125,0.15625 L 1.3125,-0.578125 C 1.234375,-0.296875 1.234375,-0.25 0.6875,-0.25 c -0.125,0 -0.203125,0 -0.203125,0.15625 C 0.484375,0 0.5625,0 0.6875,0 H 4.625 c 0.171875,0 0.1875,0 0.234375,-0.125 z m 0,0"
             style="stroke:none;stroke-width:0"
             inkscape:connector-curvature="0" />
        </g>
      </g>
    </g>
    <g
       transform="matrix(0.678074,0,0,0.678074,-23.618761,41.724609)"
       ns1:version="0.11.0"
       ns1:texconverter="pdflatex"
       ns1:pdfconverter="pdf2svg"
       ns1:text="$R_E$"
       ns1:preamble="/home/mpnerem/.config/inkscape/extensions/textext/default_packages.tex"
       ns1:scale="1.92209813862"
       ns1:alignment="middle center"
       inkscapeversion="0.92.3"
       ns1:jacobian_sqrt="0.678074"
       id="g5845">
      <g
         id="g5843">
        <g
           style="fill:#000000;fill-opacity:1"
           id="g5837">
          <path
             inkscape:connector-curvature="0"
             style="stroke:none;stroke-width:0"
             d="m 3.734375,-6.125 c 0.0625,-0.234375 0.09375,-0.328125 0.28125,-0.359375 C 4.109375,-6.5 4.421875,-6.5 4.625,-6.5 c 0.703125,0 1.8125,0 1.8125,0.984375 0,0.34375 -0.15625,1.03125 -0.546875,1.421875 -0.265625,0.25 -0.78125,0.578125 -1.6875,0.578125 H 3.09375 Z m 1.4375,2.734375 c 1.015625,-0.21875 2.1875,-0.921875 2.1875,-1.921875 0,-0.859375 -0.890625,-1.5 -2.203125,-1.5 H 2.328125 c -0.203125,0 -0.296875,0 -0.296875,0.203125 C 2.03125,-6.5 2.125,-6.5 2.3125,-6.5 c 0.015625,0 0.203125,0 0.375,0.015625 0.1875,0.03125 0.265625,0.03125 0.265625,0.171875 0,0.03125 0,0.0625 -0.03125,0.1875 l -1.34375,5.34375 C 1.484375,-0.390625 1.46875,-0.3125 0.671875,-0.3125 0.5,-0.3125 0.40625,-0.3125 0.40625,-0.109375 0.40625,0 0.53125,0 0.546875,0 c 0.28125,0 0.984375,-0.03125 1.25,-0.03125 0.28125,0 1,0.03125 1.28125,0.03125 0.078125,0 0.1875,0 0.1875,-0.203125 0,-0.109375 -0.078125,-0.109375 -0.28125,-0.109375 -0.359375,0 -0.640625,0 -0.640625,-0.171875 0,-0.0625 0.015625,-0.109375 0.03125,-0.171875 l 0.65625,-2.640625 h 1.1875 c 0.90625,0 1.078125,0.5625 1.078125,0.90625 0,0.140625 -0.078125,0.453125 -0.140625,0.6875 C 5.09375,-1.421875 5,-1.0625 5,-0.859375 5,0.21875 6.203125,0.21875 6.328125,0.21875 c 0.84375,0 1.203125,-1 1.203125,-1.140625 0,-0.125 -0.109375,-0.125 -0.125,-0.125 -0.09375,0 -0.109375,0.0625 -0.125,0.140625 C 7.03125,-0.171875 6.59375,0 6.375,0 6.046875,0 5.96875,-0.21875 5.96875,-0.609375 c 0,-0.3125 0.0625,-0.8125 0.109375,-1.140625 0.015625,-0.140625 0.03125,-0.328125 0.03125,-0.46875 0,-0.765625 -0.671875,-1.078125 -0.9375,-1.171875 z m 0,0"
             transform="translate(133.768,134.765)"
             id="path5835" />
        </g>
        <g
           style="fill:#000000;fill-opacity:1"
           id="g5841">
          <path
             inkscape:connector-curvature="0"
             style="stroke:none;stroke-width:0"
             d="m 5.515625,-1.609375 c 0.046875,-0.09375 0.046875,-0.125 0.046875,-0.125 0,-0.046875 -0.03125,-0.09375 -0.125,-0.09375 -0.015625,0 -0.046875,0 -0.078125,0.015625 0,0.015625 -0.015625,0.03125 -0.09375,0.203125 C 4.8125,-0.59375 4.453125,-0.25 3.3125,-0.25 H 2.125 c -0.203125,0 -0.21875,-0.015625 -0.21875,-0.078125 0,0 0,-0.03125 0.03125,-0.140625 L 2.40625,-2.328125 H 3.1875 c 0.546875,0 0.625,0.078125 0.625,0.3125 0,0.078125 -0.015625,0.203125 -0.046875,0.3125 C 3.75,-1.640625 3.75,-1.625 3.75,-1.609375 c 0,0 0,0.09375 0.125,0.09375 0.09375,0 0.09375,-0.03125 0.125,-0.15625 l 0.390625,-1.53125 c 0.015625,-0.078125 0.015625,-0.09375 0.015625,-0.09375 0,-0.078125 -0.0625,-0.109375 -0.125,-0.109375 -0.09375,0 -0.09375,0.046875 -0.140625,0.1875 C 4,-2.671875 3.796875,-2.578125 3.203125,-2.578125 H 2.46875 L 2.890625,-4.25 c 0.046875,-0.203125 0.0625,-0.234375 0.34375,-0.234375 H 4.375 c 0.921875,0 1.140625,0.1875 1.140625,0.8125 0,0.1875 -0.03125,0.390625 -0.03125,0.421875 0,0.0625 0.03125,0.125 0.125,0.125 0.109375,0 0.109375,-0.0625 0.125,-0.1875 l 0.125,-1.203125 C 5.875,-4.734375 5.828125,-4.734375 5.65625,-4.734375 H 1.828125 c -0.140625,0 -0.21875,0 -0.21875,0.15625 0,0.09375 0.0625,0.09375 0.21875,0.09375 0.109375,0 0.140625,0 0.265625,0.015625 C 2.234375,-4.453125 2.25,-4.4375 2.25,-4.375 c 0,0.046875 -0.015625,0.125 -0.03125,0.15625 L 1.3125,-0.578125 C 1.234375,-0.296875 1.234375,-0.25 0.6875,-0.25 c -0.125,0 -0.203125,0 -0.203125,0.15625 C 0.484375,0 0.5625,0 0.6875,0 H 4.625 c 0.171875,0 0.1875,0 0.234375,-0.125 z m 0,0"
             transform="translate(141.333,136.259)"
             id="path5839" />
        </g>
      </g>
    </g>
  </g>
</svg>
