<?xml version="1.0" encoding="UTF-8" standalone="no"?>
<svg
   xmlns:dc="http://purl.org/dc/elements/1.1/"
   xmlns:cc="http://creativecommons.org/ns#"
   xmlns:rdf="http://www.w3.org/1999/02/22-rdf-syntax-ns#"
   xmlns:svg="http://www.w3.org/2000/svg"
   xmlns="http://www.w3.org/2000/svg"
   xmlns:xlink="http://www.w3.org/1999/xlink"
   xmlns:sodipodi="http://sodipodi.sourceforge.net/DTD/sodipodi-0.dtd"
   xmlns:inkscape="http://www.inkscape.org/namespaces/inkscape"
   inkscape:export-ydpi="90"
   inkscape:export-xdpi="90"
   inkscape:export-filename="C:\Documents and Settings\szurek\Desktop\earth sz.png"
   inkscape:output_extension="org.inkscape.output.svg.inkscape"
   sodipodi:docname="Earth's_magnetic_field,_schematic.svg"
   version="1.0"
   height="500"
   width="600"
   inkscape:version="0.92.3 (2405546, 2018-03-11)"
   sodipodi:version="0.32"
   id="svg2488">
  <metadata
     id="metadata2493">
    <rdf:RDF>
      <cc:Work
         rdf:about="">
        <dc:format>image/svg+xml</dc:format>
        <dc:type
           rdf:resource="http://purl.org/dc/dcmitype/StillImage" />
      </cc:Work>
    </rdf:RDF>
  </metadata>
  <defs
     id="defs2491">
    <inkscape:perspective
       id="perspective2495"
       inkscape:persp3d-origin="372.04724 : 350.78739 : 1"
       inkscape:vp_z="744.09448 : 526.18109 : 1"
       inkscape:vp_y="0 : 1000 : 0"
       inkscape:vp_x="0 : 526.18109 : 1"
       sodipodi:type="inkscape:persp3d" />
    <inkscape:perspective
       sodipodi:type="inkscape:persp3d"
       inkscape:vp_x="0 : 526.18109 : 1"
       inkscape:vp_y="0 : 1000 : 0"
       inkscape:vp_z="744.09448 : 526.18109 : 1"
       inkscape:persp3d-origin="372.04724 : 350.78739 : 1"
       id="perspective3286" />
    <linearGradient
       id="linearGradient6339">
      <stop
         style="stop-color: rgb(110, 159, 75); stop-opacity: 1;"
         offset="0"
         id="stop6341" />
      <stop
         id="stop12671"
         offset="0.5"
         style="stop-color: rgb(66, 95, 45); stop-opacity: 1;" />
      <stop
         id="stop6347"
         offset="1"
         style="stop-color: rgb(42, 61, 29); stop-opacity: 1;" />
    </linearGradient>
    <linearGradient
       id="linearGradient13206">
      <stop
         id="stop13208"
         offset="0"
         style="stop-color:#b0ae13;stop-opacity:1;" />
      <stop
         id="stop2186"
         offset="1"
         style="stop-color:#3b6617;stop-opacity:0.90588236;" />
    </linearGradient>
    <linearGradient
       id="linearGradient5142">
      <stop
         style="stop-color: rgb(191, 209, 235); stop-opacity: 1;"
         offset="0"
         id="stop5144" />
      <stop
         id="stop5150"
         offset="0.61538464"
         style="stop-color: rgb(49, 92, 155); stop-opacity: 1;" />
      <stop
         style="stop-color: rgb(17, 35, 58); stop-opacity: 1;"
         offset="1"
         id="stop5146" />
    </linearGradient>
    <linearGradient
       inkscape:collect="always"
       id="linearGradient4437">
      <stop
         style="stop-color: rgb(255, 255, 255); stop-opacity: 0.85625;"
         offset="0"
         id="stop4439" />
      <stop
         style="stop-color: rgb(255, 255, 255); stop-opacity: 0;"
         offset="1"
         id="stop4441" />
    </linearGradient>
    <inkscape:perspective
       sodipodi:type="inkscape:persp3d"
       inkscape:vp_x="0 : 80.001045 : 1"
       inkscape:vp_y="0 : 1000 : 0"
       inkscape:vp_z="159.99997 : 80.001045 : 1"
       inkscape:persp3d-origin="79.999985 : 53.33403 : 1"
       id="perspective3486" />
    <radialGradient
       r="88.938736"
       fy="1189.2123"
       fx="406.20645"
       cy="1189.2123"
       cx="406.20645"
       gradientTransform="matrix(1.45458,-0.103027,0.118439,1.80241,-328.325,-918.427)"
       gradientUnits="userSpaceOnUse"
       id="radialGradient3596"
       xlink:href="#linearGradient6339"
       inkscape:collect="always" />
    <radialGradient
       r="405.35715"
       fy="495.30679"
       fx="107.20115"
       cy="495.30679"
       cx="107.20115"
       gradientTransform="matrix(1.15035,0,0,1.15035,-16.1173,-74.4676)"
       gradientUnits="userSpaceOnUse"
       id="radialGradient3669"
       xlink:href="#linearGradient13206"
       inkscape:collect="always" />
    <radialGradient
       r="55.703125"
       fy="407.22339"
       fx="209.15753"
       cy="407.22339"
       cx="209.15753"
       gradientTransform="matrix(2.5165356,0.940454,-0.9632323,2.5653008,137.03606,-1059.8613)"
       gradientUnits="userSpaceOnUse"
       id="radialGradient3682"
       xlink:href="#linearGradient5142"
       inkscape:collect="always" />
    <radialGradient
       r="406.37308"
       fy="504.90085"
       fx="136.1499"
       cy="504.90085"
       cx="136.1499"
       gradientUnits="userSpaceOnUse"
       id="radialGradient3698"
       xlink:href="#linearGradient4437"
       inkscape:collect="always" />
  </defs>
  <sodipodi:namedview
     inkscape:window-maximized="1"
     inkscape:document-rotation="0"
     inkscape:current-layer="svg2488"
     inkscape:window-y="20"
     inkscape:window-x="1920"
     inkscape:cy="283.27488"
     inkscape:cx="312.70949"
     inkscape:zoom="2.507065"
     showgrid="false"
     id="base"
     pagecolor="#ffffff"
     bordercolor="#666666"
     borderopacity="1.0"
     objecttolerance="10.0"
     gridtolerance="10.0"
     guidetolerance="10.0"
     inkscape:pageopacity="0.0"
     inkscape:pageshadow="2"
     inkscape:window-width="1920"
     inkscape:window-height="1035" />
  <g
     fill="none"
     stroke-width="2"
     stroke="black"
     transform="translate(302,244) rotate(12.5)"
     id="fields">
    <path
       id="path26"
       d="M 0.00,0.00 C -0.12,10.09 -15.38,39.68 -52.13,51.43 C -99.79,66.67 -144.50,38.66 -144.50,0.00 C -144.50,-38.12 -100.94,-66.06 -53.72,-51.92 C -16.82,-40.87 -0.35,-11.33 0.00,0.00" />
    <path
       id="path28"
       d="M 0.00,0.00 C -0.24,13.85 -20.95,53.22 -69.93,68.64 C -133.23,88.56 -192.38,51.29 -192.38,0.00 C -192.38,-50.75 -134.39,-87.95 -71.52,-69.13 C -22.40,-54.41 -0.46,-15.08 0.00,0.00" />
    <path
       id="path30"
       d="M 0.00,0.00 C -0.61,20.86 -31.04,75.80 -99.63,96.47 C -187.50,122.94 -268.69,70.97 -268.69,0.00 C -268.69,-70.88 -187.70,-122.84 -99.90,-96.55 C -31.28,-76.00 -0.65,-21.07 0.00,0.00" />
    <path
       id="path32"
       d="M -347.00,-110.78 C -277.74,-168.36 -165.28,-169.50 -80.32,-111.38 C -19.45,-69.74 -0.46,-17.13 0.00,0.00 C -0.38,16.45 -18.77,68.85 -79.38,110.73 C -164.37,169.47 -277.43,168.61 -347.00,110.78" />
    <path
       id="path34"
       d="M -347.00,-255.12 C -229.52,-250.80 -120.67,-193.66 -54.51,-112.92 C -10.04,-58.66 -0.28,-12.79 0.00,0.00 C -0.26,12.57 -9.87,58.30 -54.20,112.55 C -120.32,193.46 -229.31,250.80 -347.00,255.12" />
    <path
       id="path36"
       d="M -192.71,-309.00 C -39.25,-176.86 -0.53,-38.01 0.00,0.00 C -0.46,37.45 -38.86,176.53 -192.71,309.00" />
    <path
       id="path38"
       d="M -96.97,-309.00 C -11.28,-135.92 -0.17,-21.58 0.00,0.00 C -0.13,20.73 -10.91,135.17 -96.97,309.00" />
    <path
       id="path40"
       d="M -30.34,-309.00 C -1.63,-115.03 -0.03,-10.73 0.00,0.00 C -0.02,9.83 -1.50,114.14 -30.34,309.00" />
    <path
       id="path42"
       d="M 30.34,-309.00 C 1.63,-115.03 0.03,-10.73 0.00,0.00 C 0.02,9.83 1.50,114.14 30.34,309.00" />
    <path
       id="path44"
       d="M 96.97,-309.00 C 11.28,-135.92 0.17,-21.58 0.00,0.00 C 0.13,20.73 10.91,135.17 96.97,309.00" />
    <path
       id="path46"
       d="M 192.71,-309.00 C 39.25,-176.86 0.53,-38.01 0.00,0.00 C 0.46,37.45 38.86,176.53 192.71,309.00" />
    <path
       id="path48"
       d="M 347.00,-255.12 C 229.52,-250.80 120.67,-193.66 54.51,-112.92 C 10.04,-58.66 0.28,-12.79 0.00,0.00 C 0.26,12.57 9.87,58.30 54.20,112.55 C 120.32,193.46 229.31,250.80 347.00,255.12" />
    <path
       id="path50"
       d="M 347.00,-110.78 C 277.74,-168.36 165.28,-169.50 80.32,-111.38 C 19.45,-69.74 0.46,-17.13 0.00,0.00 C 0.38,16.45 18.77,68.85 79.38,110.73 C 164.37,169.47 277.43,168.61 347.00,110.78" />
    <path
       id="path52"
       d="M 0.00,0.00 C 0.61,20.86 31.04,75.80 99.63,96.47 C 187.50,122.94 268.69,70.97 268.69,0.00 C 268.69,-70.88 187.70,-122.84 99.90,-96.55 C 31.28,-76.00 0.65,-21.07 0.00,0.00" />
    <path
       id="path54"
       d="M 0.00,0.00 C 0.24,13.85 20.95,53.22 69.93,68.64 C 133.23,88.56 192.38,51.29 192.38,0.00 C 192.38,-50.75 134.39,-87.95 71.52,-69.13 C 22.40,-54.41 0.46,-15.08 0.00,0.00" />
    <path
       id="path56"
       d="M 0.00,0.00 C 0.12,10.09 15.38,39.68 52.13,51.43 C 99.79,66.67 144.50,38.66 144.50,0.00 C 144.50,-38.12 100.94,-66.06 53.72,-51.92 C 16.82,-40.87 0.35,-11.33 0.00,0.00" />
  </g>
  <path
     transform="matrix(1.3163564,0.2947431,-0.2513055,1.1111339,23.222966,-1235.0734)"
     d="M 533.63243,1211.5447 A 88.938736,110.2067 0 1 1 355.75496,1211.5447 A 88.938736,110.2067 0 1 1 533.63243,1211.5447 z"
     sodipodi:ry="110.2067"
     sodipodi:rx="88.938736"
     sodipodi:cy="1211.5447"
     sodipodi:cx="444.6937"
     id="path5452"
     style="fill:url(#radialGradient3596);fill-opacity:1;fill-rule:evenodd;stroke:none;stroke-width:1px;stroke-linecap:butt;stroke-linejoin:miter;marker:none;stroke-miterlimit:4;stroke-dasharray:none;stroke-dashoffset:0;stroke-opacity:1;visibility:visible;display:inline;overflow:visible"
     sodipodi:type="arc" />
  <path
     transform="matrix(0.3156567,6.8339277e-2,-6.7982289e-2,0.3139692,263.61579,23.527329)"
     d="M 654.28571,648.07648 A 392.85715,392.85715 0 1 1 -131.42859,648.07648 A 392.85715,392.85715 0 1 1 654.28571,648.07648 z"
     sodipodi:ry="392.85715"
     sodipodi:rx="392.85715"
     sodipodi:cy="648.07648"
     sodipodi:cx="261.42856"
     id="path1307"
     style="fill:url(#radialGradient3669);fill-opacity:1;fill-rule:evenodd;stroke:none;stroke-width:5.64375019;stroke-linecap:round;stroke-linejoin:round;marker:none;stroke-miterlimit:4;stroke-dasharray:none;stroke-dashoffset:0;stroke-opacity:1;visibility:visible;display:inline;overflow:visible"
     sodipodi:type="arc" />
  <path
     sodipodi:nodetypes="cccccccccccccccccccccccccccccccc"
     id="path2495"
     d="M 346.60903,126.76962 C 318.88554,116.26811 287.47383,116.1392 259.62794,126.16817 C 264.5912,131.57651 286.1397,145.27522 273.15358,148.47328 C 264.2218,158.42487 240.3668,167.14591 229.15055,155.98815 C 215.10521,158.04378 194.2757,170.87406 196.01538,185.18414 C 212.28858,194.70015 212.34628,206.04063 208.3395,207.67821 C 186.63063,214.64453 174.90309,245.50491 176.99176,263.49358 C 184.54976,320.3502 235.30521,367.48389 292.78924,370.79689 C 337.97614,374.57206 384.05814,351.82081 408.40104,313.7406 C 418.55472,284.11535 380.65767,336.07115 387.52687,306.53046 C 392.86756,288.85974 372.68863,293.02195 365.49171,282.86058 C 352.22678,285.36946 337.86895,255.09481 331.91633,279.69782 C 333.52291,292.62903 370.74032,279.83745 348.01307,296.03682 C 332.94706,307.68663 295.81267,331.95086 291.18562,350.73662 C 280.5439,376.43978 262.69353,344.85258 257.18411,332.46495 C 258.33741,312.85855 275.16984,284.90606 262.63803,269.7096 C 245.47254,261.48254 231.11806,253.53975 232.73042,231.17847 C 234.654,215.5103 251.97784,198.36938 268.34987,201.57236 C 296.21212,197.22108 291.1518,230.29374 311.49526,239.63957 C 320.75463,235.714 339.1538,240.98781 343.81533,234.14108 C 331.33417,226.00047 365.81366,230.1848 349.57712,217.23387 C 338.90021,214.08282 328.35182,220.688 330.35572,230.88345 C 308.68667,227.04213 322.25815,193.74877 298.84361,196.05349 C 291.27857,212.27837 265.5921,188.1909 287.41606,193.56695 C 295.73369,193.51302 281.12276,176.79344 290.38813,182.65066 C 295.39317,184.47544 314.40263,185.84925 311.6109,180.08383 C 323.22291,178.33479 322.62774,200.72237 337.63996,190.54968 C 348.76124,182.54759 340.41649,176.67318 329.9418,178.66282 C 326.77093,169.25078 358.63292,162.40931 369.08299,168.03268 C 372.28322,178.03871 384.46443,183.92719 387.24694,170.61114 C 397.5216,162.16794 418.80986,192.33024 405.68422,172.34577 C 391.19183,151.67574 370.32532,135.5538 346.60903,126.76962 z"
     style="fill:url(#radialGradient3682);fill-opacity:1;fill-rule:nonzero;stroke:none;stroke-width:2.03561997;stroke-linecap:round;stroke-linejoin:round;marker:none;stroke-miterlimit:4;stroke-dasharray:none;stroke-dashoffset:0;stroke-opacity:1;visibility:visible;display:inline;overflow:visible" />
  <path
     transform="matrix(0.3156567,6.8339277e-2,-6.7982289e-2,0.3139692,262.64124,21.270959)"
     d="M 654.28571,648.07648 A 392.85715,392.85715 0 1 1 -131.42859,648.07648 A 392.85715,392.85715 0 1 1 654.28571,648.07648 z"
     sodipodi:ry="392.85715"
     sodipodi:rx="392.85715"
     sodipodi:cy="648.07648"
     sodipodi:cx="261.42856"
     id="path2653"
     style="opacity:0.76025199;fill:url(#radialGradient3698);fill-opacity:1;fill-rule:evenodd;stroke:none;stroke-width:5.64375019;stroke-linecap:round;stroke-linejoin:round;marker:none;stroke-miterlimit:4;stroke-dasharray:none;stroke-dashoffset:0;stroke-opacity:1;visibility:visible;display:inline;overflow:visible"
     sodipodi:type="arc" />
  <path
     sodipodi:nodetypes="cc"
     id="path13581"
     d="M 330.63819,128.77295 L 276.43951,368.53753"
     style="opacity:0.41833801;fill:none;fill-opacity:1;fill-rule:evenodd;stroke:#cccccc;stroke-width:1.38723266;stroke-linecap:round;stroke-linejoin:round;stroke-miterlimit:4;stroke-dasharray:none;stroke-opacity:1" />
  <path
     sodipodi:nodetypes="cc"
     id="path13583"
     d="M 296.50061,119.93294 C 251.54549,189.88368 236.66811,268.8815 243.46419,355.04097"
     style="opacity:0.41833801;fill:none;fill-opacity:1;fill-rule:evenodd;stroke:#cccccc;stroke-width:1.38723266;stroke-linecap:round;stroke-linejoin:round;stroke-miterlimit:4;stroke-dasharray:none;stroke-opacity:1;display:inline" />
  <path
     sodipodi:nodetypes="cc"
     id="path13585"
     d="M 365.21758,134.87445 C 375.73555,217.55569 355.19648,295.57333 312.00197,370.81291"
     style="opacity:0.41833801;fill:none;fill-opacity:1;fill-rule:evenodd;stroke:#cccccc;stroke-width:1.38723266;stroke-linecap:round;stroke-linejoin:round;stroke-miterlimit:4;stroke-dasharray:none;stroke-opacity:1;display:inline" />
  <path
     sodipodi:nodetypes="cc"
     id="path13587"
     d="M 254.39815,130.95938 C 192.12913,184.94116 181.2047,250.6026 210.56112,328.9889"
     style="opacity:0.41833801;fill:none;fill-opacity:1;fill-rule:evenodd;stroke:#cccccc;stroke-width:1.38723266;stroke-linecap:round;stroke-linejoin:round;stroke-miterlimit:4;stroke-dasharray:none;stroke-opacity:1;display:inline" />
  <path
     sodipodi:nodetypes="cc"
     id="path13589"
     d="M 398.53421,163.64636 C 431.40266,239.49085 413.37743,301.51427 352.97509,360.41321"
     style="opacity:0.41833801;fill:none;fill-opacity:1;fill-rule:evenodd;stroke:#cccccc;stroke-width:1.38723266;stroke-linecap:round;stroke-linejoin:round;stroke-miterlimit:4;stroke-dasharray:none;stroke-opacity:1;display:inline" />
  <g
     transform="matrix(-0.2777933,1.2273539,-1.1117648,-0.2487951,1860.4015,-347.02821)"
     id="g13591"
     style="opacity:0.41833801;fill:none;fill-opacity:1;stroke:#cccccc;stroke-width:1.15858889;stroke-miterlimit:4;stroke-dasharray:none;stroke-opacity:1">
    <path
       style="fill:none;fill-opacity:1;fill-rule:evenodd;stroke:#cccccc;stroke-width:1.15858889;stroke-linecap:round;stroke-linejoin:round;stroke-miterlimit:4;stroke-dasharray:none;stroke-opacity:1;display:inline"
       d="M 729.2615,1108.2592 L 729.31008,1326.6461"
       id="path13593" />
    <path
       style="fill:none;fill-opacity:1;fill-rule:evenodd;stroke:#cccccc;stroke-width:1.15858889;stroke-linecap:round;stroke-linejoin:round;stroke-miterlimit:4;stroke-dasharray:none;stroke-opacity:1;display:inline"
       d="M 702.19152,1112.6889 C 680.22914,1180.5707 682.46792,1250.4145 702.25497,1322.217"
       id="path13595"
       sodipodi:nodetypes="cc" />
    <path
       style="fill:none;fill-opacity:1;fill-rule:evenodd;stroke:#cccccc;stroke-width:1.15858889;stroke-linecap:round;stroke-linejoin:round;stroke-miterlimit:4;stroke-dasharray:none;stroke-opacity:1;display:inline"
       d="M 754.23777,1110.5303 C 776.30235,1175.3956 774.50531,1256.2515 754.66659,1324.8418"
       id="path13597"
       sodipodi:nodetypes="cc" />
    <path
       style="fill:none;fill-opacity:1;fill-rule:evenodd;stroke:#cccccc;stroke-width:1.15858889;stroke-linecap:round;stroke-linejoin:round;stroke-miterlimit:4;stroke-dasharray:none;stroke-opacity:1;display:inline"
       d="M 673.12083,1126.0672 C 635.51956,1185.2904 637.73806,1246.2139 673.12083,1308.8381"
       id="path13599"
       sodipodi:nodetypes="cc" />
    <path
       style="fill:none;fill-opacity:1;fill-rule:evenodd;stroke:#cccccc;stroke-width:1.15858889;stroke-linecap:round;stroke-linejoin:round;stroke-miterlimit:4;stroke-dasharray:none;stroke-opacity:1;display:inline"
       d="M 785.45069,1126.0672 C 823.05196,1185.2904 820.83346,1246.2139 785.45069,1308.8381"
       id="path13601"
       sodipodi:nodetypes="cc" />
  </g>
  <path
     sodipodi:nodetypes="cc"
     id="path22979"
     d="M 328.76099,126.23985 L 274.08223,368.22165"
     style="opacity:0.41833801;fill:none;fill-opacity:1;fill-rule:evenodd;stroke:#a4a4a4;stroke-width:1.38723266;stroke-linecap:round;stroke-linejoin:round;stroke-miterlimit:4;stroke-dasharray:none;stroke-opacity:1" />
  <path
     sodipodi:nodetypes="cc"
     id="path6348"
     d="M 294.62342,117.39984 C 249.66829,187.35058 234.79091,266.3484 241.587,352.50787"
     style="opacity:0.41833801;fill:none;fill-opacity:1;fill-rule:evenodd;stroke:#a4a4a4;stroke-width:1.38723266;stroke-linecap:round;stroke-linejoin:round;stroke-miterlimit:4;stroke-dasharray:none;stroke-opacity:1;display:inline" />
  <path
     sodipodi:nodetypes="cc"
     id="path6350"
     d="M 363.34039,132.34135 C 373.85836,215.02259 353.37667,293.92796 310.18216,369.16754"
     style="opacity:0.41833801;fill:none;fill-opacity:1;fill-rule:evenodd;stroke:#a4a4a4;stroke-width:1.38723266;stroke-linecap:round;stroke-linejoin:round;stroke-miterlimit:4;stroke-dasharray:none;stroke-opacity:1;display:inline" />
  <path
     sodipodi:nodetypes="cc"
     id="path6352"
     d="M 252.52095,128.42628 C 190.25194,182.40806 179.32751,248.0695 208.68393,326.4558"
     style="opacity:0.41833801;fill:none;fill-opacity:1;fill-rule:evenodd;stroke:#a4a4a4;stroke-width:1.38723266;stroke-linecap:round;stroke-linejoin:round;stroke-miterlimit:4;stroke-dasharray:none;stroke-opacity:1;display:inline" />
  <path
     sodipodi:nodetypes="cc"
     id="path6354"
     d="M 396.65702,161.11326 C 429.52546,236.95775 411.04763,301.07151 350.64529,359.97046"
     style="opacity:0.41833801;fill:none;fill-opacity:1;fill-rule:evenodd;stroke:#a4a4a4;stroke-width:1.38723266;stroke-linecap:round;stroke-linejoin:round;stroke-miterlimit:4;stroke-dasharray:none;stroke-opacity:1;display:inline" />
  <g
     transform="matrix(-0.2777933,1.2273539,-1.1117648,-0.2487951,1858.5243,-349.56131)"
     id="g6367"
     style="opacity:0.41833801;fill:none;fill-opacity:1;stroke:#a4a4a4;stroke-width:1.15858889;stroke-miterlimit:4;stroke-dasharray:none;stroke-opacity:1">
    <path
       style="fill:none;fill-opacity:1;fill-rule:evenodd;stroke:#a4a4a4;stroke-width:1.15858889;stroke-linecap:round;stroke-linejoin:round;stroke-miterlimit:4;stroke-dasharray:none;stroke-opacity:1;display:inline"
       d="M 729.2615,1108.2592 L 729.31008,1326.6461"
       id="path6356" />
    <path
       style="fill:none;fill-opacity:1;fill-rule:evenodd;stroke:#a4a4a4;stroke-width:1.15858889;stroke-linecap:round;stroke-linejoin:round;stroke-miterlimit:4;stroke-dasharray:none;stroke-opacity:1;display:inline"
       d="M 702.19152,1112.6889 C 680.22914,1180.5707 682.46792,1250.4145 702.25497,1322.217"
       id="path6358"
       sodipodi:nodetypes="cc" />
    <path
       style="fill:none;fill-opacity:1;fill-rule:evenodd;stroke:#a4a4a4;stroke-width:1.15858889;stroke-linecap:round;stroke-linejoin:round;stroke-miterlimit:4;stroke-dasharray:none;stroke-opacity:1;display:inline"
       d="M 754.91357,1109.8809 C 776.97815,1174.7462 774.50531,1256.2515 754.66659,1324.8418"
       id="path6360"
       sodipodi:nodetypes="cc" />
    <path
       style="fill:none;fill-opacity:1;fill-rule:evenodd;stroke:#a4a4a4;stroke-width:1.15858889;stroke-linecap:round;stroke-linejoin:round;stroke-miterlimit:4;stroke-dasharray:none;stroke-opacity:1;display:inline"
       d="M 673.12083,1126.0672 C 635.51956,1185.2904 637.73806,1246.2139 673.12083,1308.8381"
       id="path6362"
       sodipodi:nodetypes="cc" />
    <path
       style="fill:none;fill-opacity:1;fill-rule:evenodd;stroke:#a4a4a4;stroke-width:1.15858889;stroke-linecap:round;stroke-linejoin:round;stroke-miterlimit:4;stroke-dasharray:none;stroke-opacity:1;display:inline"
       d="M 785.78388,1124.9931 C 823.38515,1184.2163 820.83346,1246.2139 785.45069,1308.8381"
       id="path6364"
       sodipodi:nodetypes="cc" />
  </g>
  <path
     style="fill:none;fill-opacity:1;fill-rule:evenodd;stroke:#808080;stroke-width:1.38999999;stroke-linecap:round;stroke-linejoin:round;marker:none;stroke-miterlimit:4;stroke-dasharray:none;stroke-dashoffset:0;stroke-opacity:1;visibility:visible;display:inline;overflow:visible"
     d="M 328.97359,120.69371 C 328.70011,120.6345 328.42185,120.59466 328.14825,120.5373 C 327.23885,120.34652 326.32113,120.15964 325.41218,119.98934 C 258.18972,107.39451 192.69333,150.46194 178.15684,217.59723 C 165.75204,274.88756 194.3979,331.57385 244.33046,357.12256 C 244.79467,357.36008 245.24731,357.61252 245.71526,357.84469 C 260.2679,365.25364 276.24434,369.8464 292.78424,370.79104 C 303.82118,371.70834 314.91376,371.01588 325.72964,368.92218 C 325.98344,368.87429 326.24051,368.82593 326.49379,368.77645 C 326.68778,368.73769 326.88176,368.69765 327.07539,368.6579 C 328.18098,368.43695 329.28928,368.20213 330.38619,367.95217 C 330.46669,367.93388 330.54604,367.9116 330.62631,367.89305 C 330.67177,367.88246 330.71557,367.86621 330.76077,367.85548 C 377.10164,357.14888 415.46503,320.75316 426.17447,271.29273 C 433.96781,235.29995 425.54951,199.55623 405.84456,171.60861 C 405.38978,170.96343 404.93362,170.32461 404.46666,169.68782 C 404.16638,169.27529 403.87799,168.85835 403.57256,168.44962 C 403.40369,168.22488 403.23052,168.00668 403.06026,167.78306 C 402.61957,167.2017 402.16863,166.62116 401.71787,166.04776 C 401.68038,166.00029 401.63351,165.95763 401.59601,165.91023 C 401.47977,165.76265 401.35221,165.62353 401.23529,165.47649 C 400.13324,164.0917 399.01054,162.72389 397.85078,161.38766 C 397.83627,161.37095 397.82611,161.35142 397.8116,161.33473 C 397.55402,161.03861 397.30243,160.75068 397.04177,160.45683 C 396.6328,159.99478 396.2155,159.5326 395.79946,159.07661 C 395.68293,158.94903 395.57067,158.81761 395.45347,158.69047 C 394.88076,158.06764 394.29116,157.45642 393.70559,156.84516 C 393.19742,156.31496 392.69503,155.79132 392.17726,155.26962 C 391.97578,155.06653 391.77664,154.87394 391.57399,154.67229 C 390.84242,153.94461 390.10969,153.23559 389.36064,152.52617 C 388.62662,151.83108 387.87918,151.14217 387.12891,150.46495 C 387.09954,150.43846 387.07533,150.40673 387.04596,150.38029 C 386.3152,149.72196 385.5614,149.07168 384.81542,148.43046 C 384.03791,147.76214 383.25765,147.10383 382.46422,146.45454 C 381.67518,145.80891 380.87921,145.16338 380.07505,144.53707 C 379.97311,144.45768 379.87604,144.37311 379.77403,144.29406 C 379.06375,143.74446 378.34561,143.20725 377.62371,142.67279 C 376.82868,142.08402 376.02622,141.52163 375.21735,140.95159 C 375.17942,140.9248 375.14869,140.88861 375.11048,140.86177 C 374.75413,140.61118 374.39289,140.36454 374.03376,140.11749 C 373.54364,139.78036 373.05405,139.43944 372.55927,139.10923 C 372.39635,139.00052 372.23785,138.89001 372.07421,138.78198 C 371.37918,138.32276 370.66954,137.88183 369.96549,137.43637 C 369.15945,136.92638 368.35484,136.42437 367.53733,135.93281 C 367.46223,135.88764 367.38928,135.84049 367.3144,135.79559 C 366.89125,135.54252 366.46173,135.3003 366.03526,135.05194 C 365.56255,134.77658 365.09682,134.50357 364.62074,134.2345 C 364.41,134.11543 364.2024,133.99379 363.99084,133.87584 C 363.29453,133.48764 362.59263,133.10666 361.88883,132.73177 C 361.19926,132.36428 360.50004,131.99087 359.80211,131.63542 C 359.56676,131.51569 359.33127,131.40058 359.09531,131.28239 C 358.6242,131.04615 358.15202,130.82818 357.67712,130.59751 C 357.20997,130.37091 356.75326,130.13863 356.28312,129.91784 C 356.04001,129.8034 355.79182,129.69384 355.54754,129.58081 C 354.83785,129.25308 354.12511,128.92084 353.40904,128.6066 C 353.40168,128.60339 353.39221,128.60462 353.38486,128.60136 C 353.20799,128.52382 353.02995,128.45174 352.85289,128.37509 C 352.10653,128.05197 351.36092,127.73065 350.60845,127.42242 C 350.56985,127.40665 350.53098,127.39084 350.49238,127.37507 C 349.99957,127.17263 349.49921,126.98247 349.00311,126.78593 C 348.26768,126.49467 347.53122,126.20686 346.78838,125.9286 C 346.0388,125.64424 345.29542,125.37772 344.54054,125.10855 C 344.42373,125.06727 344.30489,125.02873 344.18774,124.98772 C 343.2992,124.67403 342.40101,124.36635 341.50562,124.07366 C 340.4842,123.73977 339.4575,123.42493 338.42786,123.11839 C 337.70336,122.9029 336.97086,122.69247 336.23999,122.48913 C 335.44914,122.26915 334.64771,122.06612 333.8497,121.86053 C 333.74587,121.83376 333.64431,121.79783 333.54042,121.77132 C 333.07587,121.65364 332.61576,121.53806 332.15002,121.42588 C 331.62136,121.29729 331.09357,121.18199 330.5618,121.05983 C 330.03004,120.93759 329.50819,120.80945 328.97359,120.69371 z"
     id="path50675" />
  <path
     id="path921"
     d="m 268.44138,235.73381 66.21288,14.7583 -17.29425,80.7552 -66.212,-14.69868 z"
     style="fill:#dc5050;stroke:#000000;stroke-width:1px;stroke-linecap:butt;stroke-linejoin:miter;stroke-opacity:1;fill-opacity:1" />
  <path
     sodipodi:nodetypes="ccccc"
     style="fill:#5092dc;stroke:#000000;stroke-width:1px;stroke-linecap:butt;stroke-linejoin:miter;stroke-opacity:1;fill-opacity:1"
     d="m 287.64125,151.71583 66.212,14.69868 -19.19987,84.01798 -66.212,-14.69868 z"
     id="path923" />
  <path
     id="flowRoot3700"
     d="m 288.90277,204.74505 6.40283,0.84331 c -0.26055,2.58298 -0.0262,4.80152 0.70308,6.65565 0.72925,1.85414 2.12764,3.53252 4.19518,5.03516 2.0675,1.50265 4.53139,2.57102 7.39165,3.20512 2.53987,0.56308 4.866,0.68267 6.97839,0.35875 2.11234,-0.32392 3.78916,-1.03847 5.03049,-2.14366 1.24124,-1.10519 2.03437,-2.43577 2.37936,-3.99174 0.34998,-1.57885 0.19798,-3.05894 -0.45602,-4.44028 -0.65406,-1.38132 -1.94487,-2.70577 -3.87242,-3.97335 -1.23339,-0.82556 -4.03813,-2.30559 -8.41422,-4.44009 -4.37614,-2.13446 -7.38186,-3.89911 -9.01714,-5.29395 -2.12362,-1.79112 -3.56791,-3.74976 -4.33288,-5.87591 -0.765,-2.1261 -0.89132,-4.3447 -0.37895,-6.65581 0.56306,-2.53986 1.81015,-4.75406 3.74125,-6.64262 1.93107,-1.88848 4.40779,-3.09788 7.43016,-3.62821 3.02233,-0.53025 6.22677,-0.42 9.61332,0.33073 3.72973,0.82691 6.88584,2.15677 9.46836,3.9896 2.58243,1.8329 4.3815,4.08625 5.39722,6.76005 1.01561,2.67387 1.25345,5.49935 0.71352,8.47645 l -6.49059,-0.93479 c 0.36185,-3.25665 -0.26676,-5.91669 -1.88584,-7.98014 -1.61917,-2.06338 -4.36225,-3.52374 -8.22925,-4.38108 -4.02725,-0.89277 -7.12546,-0.80542 -9.29462,0.26206 -2.16921,1.06757 -3.48462,2.64246 -3.94623,4.72467 -0.40077,1.80771 -0.0784,3.43961 0.96721,4.89571 1.02266,1.45108 4.10408,3.38856 9.24429,5.81243 5.14015,2.42393 8.61559,4.31672 10.42632,5.67838 2.62955,1.99937 4.4127,4.18917 5.34945,6.56942 0.93667,2.38026 1.10573,4.92042 0.50718,7.62048 -0.59356,2.67719 -1.91938,5.02998 -3.97747,7.05839 -2.05816,2.0284 -4.6689,3.38213 -7.83223,4.06121 -3.1634,0.67907 -6.54132,0.62039 -10.13375,-0.17603 -4.55353,-1.00949 -8.22198,-2.51896 -11.00536,-4.5284 -2.78341,-2.00944 -4.75485,-4.54107 -5.91432,-7.59489 -1.15949,-3.0538 -1.41215,-6.27268 -0.75797,-9.65662 z"
     style="font-style:normal;font-variant:normal;font-weight:normal;font-stretch:normal;font-size:72px;line-height:100%;font-family:Arial;-inkscape-font-specification:Arial;text-align:center;writing-mode:lr-tb;text-anchor:middle;fill:#ffffff;fill-opacity:1;stroke:none;stroke-width:1px;stroke-linecap:butt;stroke-linejoin:miter;stroke-opacity:1"
     inkscape:connector-curvature="0" />
  <path
     id="flowRoot3708"
     d="m 267.476,303.67145 11.1551,-50.31738 6.83025,1.51423 17.67045,45.36475 8.7582,-39.50566 6.38406,1.41531 -11.1551,50.31738 -6.83025,-1.51423 -17.66284,-45.39908 -8.76581,39.53999 z"
     style="font-style:normal;font-variant:normal;font-weight:normal;font-stretch:normal;font-size:72px;line-height:100%;font-family:Arial;-inkscape-font-specification:Arial;text-align:center;writing-mode:lr-tb;text-anchor:middle;fill:#ffffff;fill-opacity:1;stroke:none;stroke-width:1px;stroke-linecap:butt;stroke-linejoin:miter;stroke-opacity:1" />
  <path
     id="path913"
     d="m 287.64125,151.71583 -36.49324,164.8328 66.212,14.69868 36.49324,-164.8328 z"
     style="fill:none;stroke:#000000;stroke-width:2;stroke-linecap:butt;stroke-linejoin:miter;stroke-opacity:1;stroke-miterlimit:4;stroke-dasharray:none" />
</svg>
