<?xml version="1.0" encoding="UTF-8" standalone="no"?>
<!-- Created with Inkscape (http://www.inkscape.org/) -->

<svg
   xmlns:ns0="http://www.iki.fi/pav/software/textext/"
   xmlns:dc="http://purl.org/dc/elements/1.1/"
   xmlns:cc="http://creativecommons.org/ns#"
   xmlns:rdf="http://www.w3.org/1999/02/22-rdf-syntax-ns#"
   xmlns:svg="http://www.w3.org/2000/svg"
   xmlns="http://www.w3.org/2000/svg"
   xmlns:sodipodi="http://sodipodi.sourceforge.net/DTD/sodipodi-0.dtd"
   xmlns:inkscape="http://www.inkscape.org/namespaces/inkscape"
   width="72.7901mm"
   height="65.800034mm"
   viewBox="0 0 72.7901 65.800034"
   version="1.1"
   id="svg8"
   inkscape:version="0.92.3 (2405546, 2018-03-11)"
   sodipodi:docname="Kr-Mass-Spectrometer.svg">
  <sodipodi:namedview
     id="base"
     pagecolor="#ffffff"
     bordercolor="#666666"
     borderopacity="1.0"
     inkscape:pageopacity="0.0"
     inkscape:pageshadow="2"
     inkscape:zoom="2.8"
     inkscape:cx="86.273745"
     inkscape:cy="119.57848"
     inkscape:document-units="mm"
     inkscape:current-layer="svg8"
     showgrid="false"
     inkscape:window-width="1920"
     inkscape:window-height="1035"
     inkscape:window-x="1920"
     inkscape:window-y="20"
     inkscape:window-maximized="1"
     inkscape:snap-bbox="false"
     inkscape:snap-object-midpoints="true"
     fit-margin-top="0"
     fit-margin-left="0"
     fit-margin-right="0"
     fit-margin-bottom="0" />
  <defs
     id="defs2">
    <marker
       inkscape:stockid="Arrow1Lend"
       orient="auto"
       refY="0"
       refX="0"
       id="Arrow1Lend"
       style="overflow:visible"
       inkscape:isstock="true">
      <path
         id="path1006"
         d="M 0,0 5,-5 -12.5,0 5,5 Z"
         style="fill:#000000;fill-opacity:1;fill-rule:evenodd;stroke:#000000;stroke-width:1.00000003pt;stroke-opacity:1"
         transform="matrix(-0.8,0,0,-0.8,-10,0)"
         inkscape:connector-curvature="0" />
    </marker>
  </defs>
  <metadata
     id="metadata5">
    <rdf:RDF>
      <cc:Work
         rdf:about="">
        <dc:format>image/svg+xml</dc:format>
        <dc:type
           rdf:resource="http://purl.org/dc/dcmitype/StillImage" />
        <dc:title></dc:title>
      </cc:Work>
    </rdf:RDF>
  </metadata>
  <g
     id="layer1"
     inkscape:groupmode="layer"
     inkscape:label="Layer 1"
     transform="translate(-65.929591,-111.27427)" />
  <rect
     ry="0.40105277"
     rx="0.49735582"
     y="41.7449"
     x="21.602406"
     height="14.031647"
     width="3.9833236"
     id="rect1545"
     style="opacity:1;fill:#ffffff;fill-opacity:0.98936169;fill-rule:nonzero;stroke:#000000;stroke-width:0.30000001;stroke-linecap:round;stroke-linejoin:miter;stroke-miterlimit:4;stroke-dasharray:none;stroke-dashoffset:3.00000024;stroke-opacity:1" />
  <rect
     style="opacity:1;fill:none;fill-opacity:0.43137255;fill-rule:nonzero;stroke:#000000;stroke-width:0.5;stroke-linecap:round;stroke-linejoin:miter;stroke-miterlimit:4;stroke-dasharray:none;stroke-dashoffset:12.54802895;stroke-opacity:1"
     id="rect993"
     width="45.709881"
     height="58.757465"
     x="26.830219"
     y="6.7925682"
     rx="0.49735582"
     ry="0.40105277" />
  <path
     style="opacity:1;fill:none;fill-opacity:0.43137255;fill-rule:nonzero;stroke:#000000;stroke-width:0.30000001;stroke-linecap:round;stroke-linejoin:miter;stroke-miterlimit:4;stroke-dasharray:1.20000006, 1.20000006;stroke-dashoffset:0;stroke-opacity:1"
     id="path995"
     sodipodi:type="arc"
     sodipodi:cx="26.52338"
     sodipodi:cy="28.987789"
     sodipodi:rx="14.552083"
     sodipodi:ry="14.552083"
     sodipodi:start="4.712389"
     sodipodi:end="1.5707963"
     sodipodi:open="true"
     d="M 26.523381,14.435706 A 14.552083,14.552083 0 0 1 41.075463,28.987789 14.552083,14.552083 0 0 1 26.523381,43.539872" />
  <path
     style="fill:none;stroke:#000000;stroke-width:0.26458332px;stroke-linecap:butt;stroke-linejoin:miter;stroke-opacity:1;marker-end:url(#Arrow1Lend)"
     d="M 7.3977896,14.566224 H 23.745253"
     id="path997"
     inkscape:connector-curvature="0"
     sodipodi:nodetypes="cc" />
  <path
     id="circle1001"
     style="opacity:1;fill:none;fill-opacity:0.43137255;fill-rule:nonzero;stroke:#000000;stroke-width:0.30000001;stroke-linecap:round;stroke-linejoin:miter;stroke-miterlimit:4;stroke-dasharray:1.2, 1.2;stroke-dashoffset:0;stroke-opacity:1"
     sodipodi:type="arc"
     sodipodi:cx="26.52338"
     sodipodi:cy="33.992641"
     sodipodi:rx="19.406935"
     sodipodi:ry="19.406935"
     sodipodi:start="4.712389"
     sodipodi:end="1.5707963"
     sodipodi:open="true"
     d="M 26.523381,14.585707 A 19.406935,19.406935 0 0 1 45.930315,33.992641 19.406935,19.406935 0 0 1 26.523381,53.399576" />
  <g
     transform="matrix(0.739645,0,0,0.739645,-78.623775,-87.693432)"
     ns0:version="0.11.0"
     ns0:texconverter="pdflatex"
     ns0:pdfconverter="pdf2svg"
     ns0:text=" $\\vec{v}$"
     ns0:preamble="/home/mpnerem/.config/inkscape/extensions/textext/default_packages.tex"
     ns0:scale="2.83464566935"
     ns0:alignment="middle center"
     inkscapeversion="0.92.3"
     ns0:jacobian_sqrt="0.739645"
     style="fill-opacity:1;stroke:#000000;stroke-opacity:1"
     id="g1326">
    <g
       id="g1324"
       style="fill-opacity:1;stroke:#000000;stroke-opacity:1">
      <g
         style="fill:#000000;fill-opacity:1;stroke:#000000;stroke-opacity:1"
         id="g1318">
        <path
           inkscape:connector-curvature="0"
           style="fill-opacity:1;stroke:#000000;stroke-width:0;stroke-opacity:1"
           d="m 5.359375,-5.9375 c -0.140625,0.140625 -0.46875,0.421875 -0.46875,0.59375 0,0.09375 0.09375,0.203125 0.1875,0.203125 0.09375,0 0.140625,-0.078125 0.203125,-0.140625 C 5.390625,-5.421875 5.625,-5.703125 6.0625,-5.921875 6.125,-5.96875 6.234375,-6.015625 6.234375,-6.125 6.234375,-6.234375 6.15625,-6.28125 6.09375,-6.328125 5.875,-6.484375 5.765625,-6.65625 5.6875,-6.890625 5.65625,-6.984375 5.625,-7.125 5.484375,-7.125 c -0.140625,0 -0.203125,0.140625 -0.203125,0.21875 0,0.046875 0.078125,0.359375 0.234375,0.578125 H 2.15625 c -0.15625,0 -0.34375,0 -0.34375,0.203125 0,0.1875 0.1875,0.1875 0.34375,0.1875 z m 0,0"
           transform="translate(133.382,134.765)"
           id="path1316" />
      </g>
      <g
         style="fill:#000000;fill-opacity:1;stroke:#000000;stroke-opacity:1"
         id="g1322">
        <path
           inkscape:connector-curvature="0"
           style="fill-opacity:1;stroke:#000000;stroke-width:0;stroke-opacity:1"
           d="m 4.671875,-3.703125 c 0,-0.546875 -0.265625,-0.703125 -0.4375,-0.703125 -0.25,0 -0.5,0.265625 -0.5,0.484375 0,0.125 0.046875,0.1875 0.15625,0.296875 0.21875,0.203125 0.34375,0.453125 0.34375,0.8125 0,0.421875 -0.609375,2.703125 -1.765625,2.703125 -0.515625,0 -0.75,-0.34375 -0.75,-0.875 0,-0.546875 0.28125,-1.28125 0.578125,-2.109375 0.078125,-0.171875 0.125,-0.3125 0.125,-0.5 0,-0.4375 -0.3125,-0.8125 -0.8125,-0.8125 -0.9375,0 -1.3125,1.453125 -1.3125,1.53125 0,0.109375 0.09375,0.109375 0.109375,0.109375 0.109375,0 0.109375,-0.03125 0.15625,-0.1875 0.296875,-1 0.71875,-1.234375 1.015625,-1.234375 0.078125,0 0.25,0 0.25,0.3125 0,0.25 -0.109375,0.53125 -0.171875,0.703125 -0.4375,1.15625 -0.5625,1.609375 -0.5625,2.046875 0,1.078125 0.875,1.234375 1.328125,1.234375 1.671875,0 2.25,-3.296875 2.25,-3.8125 z m 0,0"
           transform="translate(133.77054,134.765)"
           id="path1320" />
      </g>
    </g>
  </g>
  <g
     transform="matrix(0.739645,0,0,0.739645,-34.103633,-78.065262)"
     ns0:version="0.11.0"
     ns0:texconverter="pdflatex"
     ns0:pdfconverter="pdf2svg"
     ns0:text=" $\\vec{B}$"
     ns0:preamble="/home/mpnerem/.config/inkscape/extensions/textext/default_packages.tex"
     ns0:scale="2.83464566935"
     ns0:alignment="middle center"
     inkscapeversion="0.92.3"
     ns0:jacobian_sqrt="0.739645"
     style="fill:#32bef2;fill-opacity:1;stroke:#000000;stroke-opacity:1"
     id="g1502">
    <g
       id="g1500"
       style="fill:#32bef2;fill-opacity:1;stroke:#000000;stroke-opacity:1">
      <g
         style="fill:#32bef2;fill-opacity:1;stroke:#000000;stroke-opacity:1"
         id="g1494">
        <path
           inkscape:connector-curvature="0"
           style="fill:#32bef2;fill-opacity:1;stroke:#000000;stroke-width:0;stroke-opacity:1"
           d="m 5.359375,-5.9375 c -0.140625,0.140625 -0.46875,0.421875 -0.46875,0.59375 0,0.09375 0.09375,0.203125 0.1875,0.203125 0.09375,0 0.140625,-0.078125 0.203125,-0.140625 C 5.390625,-5.421875 5.625,-5.703125 6.0625,-5.921875 6.125,-5.96875 6.234375,-6.015625 6.234375,-6.125 6.234375,-6.234375 6.15625,-6.28125 6.09375,-6.328125 5.875,-6.484375 5.765625,-6.65625 5.6875,-6.890625 5.65625,-6.984375 5.625,-7.125 5.484375,-7.125 c -0.140625,0 -0.203125,0.140625 -0.203125,0.21875 0,0.046875 0.078125,0.359375 0.234375,0.578125 H 2.15625 c -0.15625,0 -0.34375,0 -0.34375,0.203125 0,0.1875 0.1875,0.1875 0.34375,0.1875 z m 0,0"
           transform="translate(135.37,132.246)"
           id="path1492" />
      </g>
      <g
         style="fill:#32bef2;fill-opacity:1;stroke:#000000;stroke-opacity:1"
         id="g1498">
        <path
           inkscape:connector-curvature="0"
           style="fill:#32bef2;fill-opacity:1;stroke:#000000;stroke-width:0;stroke-opacity:1"
           d="M 1.59375,-0.78125 C 1.5,-0.390625 1.46875,-0.3125 0.6875,-0.3125 c -0.171875,0 -0.265625,0 -0.265625,0.203125 C 0.421875,0 0.515625,0 0.6875,0 H 4.25 C 5.828125,0 7,-1.171875 7,-2.15625 7,-2.875 6.421875,-3.453125 5.453125,-3.5625 6.484375,-3.75 7.53125,-4.484375 7.53125,-5.4375 c 0,-0.734375 -0.65625,-1.375 -1.84375,-1.375 H 2.328125 c -0.1875,0 -0.28125,0 -0.28125,0.203125 0,0.109375 0.09375,0.109375 0.28125,0.109375 0.015625,0 0.203125,0 0.375,0.015625 0.171875,0.03125 0.265625,0.03125 0.265625,0.171875 0,0.03125 -0.015625,0.0625 -0.03125,0.1875 z m 1.5,-2.875 0.625,-2.46875 C 3.8125,-6.46875 3.828125,-6.5 4.25,-6.5 h 1.296875 c 0.875,0 1.078125,0.59375 1.078125,1.03125 0,0.875 -0.859375,1.8125 -2.0625,1.8125 z m -0.4375,3.34375 c -0.140625,0 -0.15625,0 -0.21875,0 -0.109375,-0.015625 -0.140625,-0.03125 -0.140625,-0.109375 0,-0.03125 0,-0.046875 0.0625,-0.21875 l 0.6875,-2.78125 h 1.875 c 0.953125,0 1.15625,0.734375 1.15625,1.15625 C 6.078125,-1.28125 5.1875,-0.3125 4,-0.3125 Z m 0,0"
           transform="translate(133.768,134.765)"
           id="path1496" />
      </g>
    </g>
  </g>
  <path
     inkscape:connector-curvature="0"
     id="path1547"
     d="M 26.523382,43.539875 H 23.594069"
     style="fill:none;stroke:#000000;stroke-width:0.30000001;stroke-linecap:round;stroke-linejoin:miter;stroke-miterlimit:4;stroke-dasharray:0.9, 0.9;stroke-dashoffset:0;stroke-opacity:1" />
  <path
     style="fill:none;stroke:#000000;stroke-width:0.30000001;stroke-linecap:round;stroke-linejoin:miter;stroke-miterlimit:4;stroke-dasharray:0.9, 0.9;stroke-dashoffset:0;stroke-opacity:1"
     d="M 26.523382,53.399575 H 23.594069"
     id="path1549"
     inkscape:connector-curvature="0" />
  <circle
     r="0.70870537"
     cy="43.539867"
     cx="23.594067"
     id="path1553"
     style="opacity:1;fill:#000000;fill-opacity:0.98936169;fill-rule:nonzero;stroke:none;stroke-width:0.30000001;stroke-linecap:round;stroke-linejoin:miter;stroke-miterlimit:4;stroke-dasharray:none;stroke-dashoffset:11.33858299;stroke-opacity:1" />
  <circle
     style="opacity:1;fill:#000000;fill-opacity:0.98936169;fill-rule:nonzero;stroke:none;stroke-width:0.30000001;stroke-linecap:round;stroke-linejoin:miter;stroke-miterlimit:4;stroke-dasharray:none;stroke-dashoffset:11.33858299;stroke-opacity:1"
     id="circle1555"
     cx="23.594067"
     cy="53.399578"
     r="0.70870537" />
  <path
     inkscape:connector-curvature="0"
     id="path1557"
     d="m 15.654432,43.539865 h 3.207235"
     style="fill:none;stroke:#000000;stroke-width:0.26458332px;stroke-linecap:butt;stroke-linejoin:miter;stroke-opacity:1" />
  <path
     style="fill:none;stroke:#000000;stroke-width:0.26458332px;stroke-linecap:butt;stroke-linejoin:miter;stroke-opacity:1"
     d="m 15.654432,53.399575 h 3.207235"
     id="path1559"
     inkscape:connector-curvature="0" />
  <g
     id="g1627"
     style="fill-opacity:1;stroke:#000000;stroke-opacity:1"
     ns0:jacobian_sqrt="0.739645"
     inkscapeversion="0.92.3"
     ns0:alignment="middle center"
     ns0:scale="2.83464566935"
     ns0:preamble="/home/mpnerem/.config/inkscape/extensions/textext/default_packages.tex"
     ns0:text="$d$"
     ns0:pdfconverter="pdf2svg"
     ns0:texconverter="pdflatex"
     ns0:version="0.11.0"
     transform="matrix(0.739645,0,0,0.739645,-83.734142,-48.689123)">
    <g
       style="fill-opacity:1;stroke:#000000;stroke-opacity:1"
       id="g1625">
      <g
         id="g1623"
         style="fill:#000000;fill-opacity:1;stroke:#000000;stroke-opacity:1">
        <path
           id="path1621"
           transform="translate(133.768,134.765)"
           d="m 5.140625,-6.8125 c 0,0 0,-0.109375 -0.125,-0.109375 -0.15625,0 -1.09375,0.09375 -1.265625,0.109375 -0.078125,0.015625 -0.140625,0.0625 -0.140625,0.1875 0,0.125 0.09375,0.125 0.234375,0.125 0.484375,0 0.5,0.0625 0.5,0.171875 L 4.3125,-6.125 3.71875,-3.765625 C 3.53125,-4.140625 3.25,-4.40625 2.796875,-4.40625 c -1.15625,0 -2.390625,1.46875 -2.390625,2.921875 0,0.9375 0.546875,1.59375 1.3125,1.59375 0.203125,0 0.703125,-0.046875 1.296875,-0.75 0.078125,0.421875 0.4375,0.75 0.90625,0.75 0.359375,0 0.578125,-0.234375 0.75,-0.546875 0.15625,-0.359375 0.296875,-0.96875 0.296875,-0.984375 0,-0.109375 -0.09375,-0.109375 -0.125,-0.109375 -0.09375,0 -0.109375,0.046875 -0.140625,0.1875 -0.171875,0.640625 -0.34375,1.234375 -0.75,1.234375 -0.28125,0 -0.296875,-0.265625 -0.296875,-0.453125 0,-0.25 0.015625,-0.3125 0.046875,-0.484375 z m -2.0625,5.625 C 3.015625,-1 3.015625,-0.984375 2.875,-0.8125 2.4375,-0.265625 2.03125,-0.109375 1.75,-0.109375 c -0.5,0 -0.640625,-0.546875 -0.640625,-0.9375 0,-0.5 0.3125,-1.71875 0.546875,-2.1875 0.3125,-0.578125 0.75,-0.953125 1.15625,-0.953125 0.640625,0 0.78125,0.8125 0.78125,0.875 0,0.0625 -0.015625,0.125 -0.03125,0.171875 z m 0,0"
           style="fill-opacity:1;stroke:#000000;stroke-width:0;stroke-opacity:1"
           inkscape:connector-curvature="0" />
      </g>
    </g>
  </g>
  <path
     style="fill:none;stroke:#000000;stroke-width:0.26458332px;stroke-linecap:butt;stroke-linejoin:miter;stroke-opacity:1"
     d="m 17.258049,43.539855 v 1.9043"
     id="path1687"
     inkscape:connector-curvature="0"
     sodipodi:nodetypes="cc" />
  <path
     sodipodi:nodetypes="cc"
     inkscape:connector-curvature="0"
     id="path1689"
     d="m 17.258049,51.495265 v 1.9043"
     style="fill:none;stroke:#000000;stroke-width:0.26458332px;stroke-linecap:butt;stroke-linejoin:miter;stroke-opacity:1" />
  <circle
     style="opacity:1;fill:#32bef2;fill-opacity:0.98823529;fill-rule:nonzero;stroke:none;stroke-width:0.30000001;stroke-linecap:round;stroke-linejoin:miter;stroke-miterlimit:4;stroke-dasharray:none;stroke-dashoffset:11.33858299;stroke-opacity:1"
     id="path1691"
     cx="33.810162"
     cy="12.358771"
     r="1.0690781" />
  <circle
     r="1.0690781"
     cy="12.358771"
     cx="49.685154"
     id="circle1693"
     style="opacity:1;fill:#32bef2;fill-opacity:0.98823529;fill-rule:nonzero;stroke:none;stroke-width:0.30000001;stroke-linecap:round;stroke-linejoin:miter;stroke-miterlimit:4;stroke-dasharray:none;stroke-dashoffset:11.33858299;stroke-opacity:1" />
  <circle
     style="opacity:1;fill:#32bef2;fill-opacity:0.98823529;fill-rule:nonzero;stroke:none;stroke-width:0.30000001;stroke-linecap:round;stroke-linejoin:miter;stroke-miterlimit:4;stroke-dasharray:none;stroke-dashoffset:11.33858299;stroke-opacity:1"
     id="circle1695"
     cx="65.56015"
     cy="12.358771"
     r="1.0690781" />
  <circle
     r="1.0690781"
     cy="28.233788"
     cx="33.810162"
     id="circle1697"
     style="opacity:1;fill:#32bef2;fill-opacity:0.98823529;fill-rule:nonzero;stroke:none;stroke-width:0.30000001;stroke-linecap:round;stroke-linejoin:miter;stroke-miterlimit:4;stroke-dasharray:none;stroke-dashoffset:11.33858299;stroke-opacity:1" />
  <circle
     style="opacity:1;fill:#32bef2;fill-opacity:0.98823529;fill-rule:nonzero;stroke:none;stroke-width:0.30000001;stroke-linecap:round;stroke-linejoin:miter;stroke-miterlimit:4;stroke-dasharray:none;stroke-dashoffset:11.33858299;stroke-opacity:1"
     id="circle1699"
     cx="49.685154"
     cy="28.233788"
     r="1.0690781" />
  <circle
     r="1.0690781"
     cy="28.233788"
     cx="65.56015"
     id="circle1701"
     style="opacity:1;fill:#32bef2;fill-opacity:0.98823529;fill-rule:nonzero;stroke:none;stroke-width:0.30000001;stroke-linecap:round;stroke-linejoin:miter;stroke-miterlimit:4;stroke-dasharray:none;stroke-dashoffset:11.33858299;stroke-opacity:1" />
  <circle
     style="opacity:1;fill:#32bef2;fill-opacity:0.98823529;fill-rule:nonzero;stroke:none;stroke-width:0.30000001;stroke-linecap:round;stroke-linejoin:miter;stroke-miterlimit:4;stroke-dasharray:none;stroke-dashoffset:11.33858299;stroke-opacity:1"
     id="circle1703"
     cx="33.810162"
     cy="44.108803"
     r="1.0690781" />
  <circle
     r="1.0690781"
     cy="44.108803"
     cx="49.685162"
     id="circle1705"
     style="opacity:1;fill:#32bef2;fill-opacity:0.98823529;fill-rule:nonzero;stroke:none;stroke-width:0.30000001;stroke-linecap:round;stroke-linejoin:miter;stroke-miterlimit:4;stroke-dasharray:none;stroke-dashoffset:11.33858299;stroke-opacity:1" />
  <circle
     style="opacity:1;fill:#32bef2;fill-opacity:0.98823529;fill-rule:nonzero;stroke:none;stroke-width:0.30000001;stroke-linecap:round;stroke-linejoin:miter;stroke-miterlimit:4;stroke-dasharray:none;stroke-dashoffset:11.33858299;stroke-opacity:1"
     id="circle1707"
     cx="65.56015"
     cy="44.108803"
     r="1.0690781" />
  <circle
     r="1.0690781"
     cy="59.983818"
     cx="33.810162"
     id="circle1709"
     style="opacity:1;fill:#32bef2;fill-opacity:0.98823529;fill-rule:nonzero;stroke:none;stroke-width:0.30000001;stroke-linecap:round;stroke-linejoin:miter;stroke-miterlimit:4;stroke-dasharray:none;stroke-dashoffset:11.33858299;stroke-opacity:1" />
  <circle
     style="opacity:1;fill:#32bef2;fill-opacity:0.98823529;fill-rule:nonzero;stroke:none;stroke-width:0.30000001;stroke-linecap:round;stroke-linejoin:miter;stroke-miterlimit:4;stroke-dasharray:none;stroke-dashoffset:11.33858299;stroke-opacity:1"
     id="circle1711"
     cx="49.685162"
     cy="59.983818"
     r="1.0690781" />
  <circle
     r="1.0690781"
     cy="59.983818"
     cx="65.56015"
     id="circle1713"
     style="opacity:1;fill:#32bef2;fill-opacity:0.98823529;fill-rule:nonzero;stroke:none;stroke-width:0.30000001;stroke-linecap:round;stroke-linejoin:miter;stroke-miterlimit:4;stroke-dasharray:none;stroke-dashoffset:11.33858299;stroke-opacity:1" />
  <path
     inkscape:connector-curvature="0"
     d="m 16.42758,9.9882533 -13.9999998,0"
     style="fill:none;stroke:#000000;stroke-width:1;stroke-linecap:round;stroke-linejoin:round;stroke-dasharray:none"
     inkscape:label="none"
     id="path1748" />
  <path
     id="path934"
     inkscape:label="none"
     style="fill:none;stroke:#5092dc;stroke-width:0.5;stroke-linecap:round;stroke-linejoin:round;stroke-miterlimit:4;stroke-dasharray:none;stroke-opacity:1"
     d="m 2.3026852,6.9814713 h 1.85227"
     inkscape:connector-curvature="0"
     sodipodi:nodetypes="cc" />
  <path
     sodipodi:nodetypes="cc"
     inkscape:connector-curvature="0"
     d="m 6.4351918,6.9814713 h 1.85227"
     style="fill:none;stroke:#5092dc;stroke-width:0.5;stroke-linecap:round;stroke-linejoin:round;stroke-miterlimit:4;stroke-dasharray:none;stroke-opacity:1"
     inkscape:label="none"
     id="path936" />
  <path
     id="path938"
     inkscape:label="none"
     style="fill:none;stroke:#5092dc;stroke-width:0.5;stroke-linecap:round;stroke-linejoin:round;stroke-miterlimit:4;stroke-dasharray:none;stroke-opacity:1"
     d="m 10.567698,6.9814713 h 1.85227"
     inkscape:connector-curvature="0"
     sodipodi:nodetypes="cc" />
  <path
     sodipodi:nodetypes="cc"
     inkscape:connector-curvature="0"
     d="m 14.700205,6.9814713 h 1.85227"
     style="fill:none;stroke:#5092dc;stroke-width:0.5;stroke-linecap:round;stroke-linejoin:round;stroke-miterlimit:4;stroke-dasharray:none;stroke-opacity:1"
     inkscape:label="none"
     id="path940" />
  <path
     id="path823"
     inkscape:label="none"
     style="fill:none;stroke:#000000;stroke-width:1;stroke-linecap:round;stroke-linejoin:round;stroke-dasharray:none"
     d="M 16.42758,19.279924 H 2.4275802"
     inkscape:connector-curvature="0" />
  <g
     id="g1943">
    <path
       id="path952"
       inkscape:label="none"
       style="fill:none;stroke:#dc5050;stroke-width:0.5;stroke-linecap:round;stroke-linejoin:round;stroke-miterlimit:4;stroke-dasharray:none;stroke-opacity:1"
       d="m 3.2288202,21.360573 v 1.85227"
       inkscape:connector-curvature="0"
       sodipodi:nodetypes="cc" />
    <path
       sodipodi:nodetypes="cc"
       inkscape:connector-curvature="0"
       d="m 4.1549502,22.286708 h -1.85227"
       style="fill:none;stroke:#dc5050;stroke-width:0.5;stroke-linecap:round;stroke-linejoin:round;stroke-miterlimit:4;stroke-dasharray:none;stroke-opacity:1"
       inkscape:label="none"
       id="path960" />
  </g>
  <g
     id="g1931"
     transform="translate(0.34139651)">
    <path
       sodipodi:nodetypes="cc"
       inkscape:connector-curvature="0"
       d="m 7.0199303,21.360573 v 1.85227"
       style="fill:none;stroke:#dc5050;stroke-width:0.5;stroke-linecap:round;stroke-linejoin:round;stroke-miterlimit:4;stroke-dasharray:none;stroke-opacity:1"
       inkscape:label="none"
       id="path962" />
    <path
       id="path964"
       inkscape:label="none"
       style="fill:none;stroke:#dc5050;stroke-width:0.5;stroke-linecap:round;stroke-linejoin:round;stroke-miterlimit:4;stroke-dasharray:none;stroke-opacity:1"
       d="m 7.9460603,22.286708 h -1.85227"
       inkscape:connector-curvature="0"
       sodipodi:nodetypes="cc" />
  </g>
  <g
     id="g1935"
     transform="translate(-0.34140661)">
    <path
       sodipodi:nodetypes="cc"
       inkscape:connector-curvature="0"
       d="m 11.83523,21.360573 v 1.85227"
       style="fill:none;stroke:#dc5050;stroke-width:0.5;stroke-linecap:round;stroke-linejoin:round;stroke-miterlimit:4;stroke-dasharray:none;stroke-opacity:1"
       inkscape:label="none"
       id="path966" />
    <path
       id="path970"
       inkscape:label="none"
       style="fill:none;stroke:#dc5050;stroke-width:0.5;stroke-linecap:round;stroke-linejoin:round;stroke-miterlimit:4;stroke-dasharray:none;stroke-opacity:1"
       d="M 12.76137,22.286708 H 10.9091"
       inkscape:connector-curvature="0"
       sodipodi:nodetypes="cc" />
  </g>
  <g
     id="g1939">
    <path
       id="path968"
       inkscape:label="none"
       style="fill:none;stroke:#dc5050;stroke-width:0.5;stroke-linecap:round;stroke-linejoin:round;stroke-miterlimit:4;stroke-dasharray:none;stroke-opacity:1"
       d="m 15.62634,21.360573 v 1.85227"
       inkscape:connector-curvature="0"
       sodipodi:nodetypes="cc" />
    <path
       id="path972"
       inkscape:label="none"
       style="fill:none;stroke:#dc5050;stroke-width:0.5;stroke-linecap:round;stroke-linejoin:round;stroke-miterlimit:4;stroke-dasharray:none;stroke-opacity:1"
       d="M 16.55247,22.286708 H 14.7002"
       inkscape:connector-curvature="0"
       sodipodi:nodetypes="cc" />
  </g>
  <circle
     r="1.0690781"
     cy="-16.711868"
     cx="-14.678326"
     id="circle1798"
     style="opacity:1;fill:#32bef2;fill-opacity:0.98823529;fill-rule:nonzero;stroke:none;stroke-width:0.30000001;stroke-linecap:round;stroke-linejoin:miter;stroke-miterlimit:4;stroke-dasharray:none;stroke-dashoffset:11.33858299;stroke-opacity:1"
     transform="scale(-1)" />
  <circle
     style="opacity:1;fill:#32bef2;fill-opacity:0.98823529;fill-rule:nonzero;stroke:none;stroke-width:0.30000001;stroke-linecap:round;stroke-linejoin:miter;stroke-miterlimit:4;stroke-dasharray:none;stroke-dashoffset:11.33858299;stroke-opacity:1"
     id="circle1800"
     cx="-9.3866596"
     cy="-16.711868"
     r="1.0690781"
     transform="scale(-1)" />
  <circle
     r="1.0690781"
     cy="-16.711868"
     cx="-4.0949922"
     id="circle1802"
     style="opacity:1;fill:#32bef2;fill-opacity:0.98823529;fill-rule:nonzero;stroke:none;stroke-width:0.30000001;stroke-linecap:round;stroke-linejoin:miter;stroke-miterlimit:4;stroke-dasharray:none;stroke-dashoffset:11.33858299;stroke-opacity:1"
     transform="scale(-1)" />
  <circle
     style="opacity:1;fill:#32bef2;fill-opacity:0.98823529;fill-rule:nonzero;stroke:none;stroke-width:0.30000001;stroke-linecap:round;stroke-linejoin:miter;stroke-miterlimit:4;stroke-dasharray:none;stroke-dashoffset:11.33858299;stroke-opacity:1"
     id="circle1804"
     cx="-4.0949922"
     cy="-12.556309"
     r="1.0690781"
     transform="scale(-1)" />
  <circle
     r="1.0690781"
     cy="-12.556309"
     cx="-9.3866596"
     id="circle1806"
     style="opacity:1;fill:#32bef2;fill-opacity:0.98823529;fill-rule:nonzero;stroke:none;stroke-width:0.30000001;stroke-linecap:round;stroke-linejoin:miter;stroke-miterlimit:4;stroke-dasharray:none;stroke-dashoffset:11.33858299;stroke-opacity:1"
     transform="scale(-1)" />
  <circle
     style="opacity:1;fill:#32bef2;fill-opacity:0.98823529;fill-rule:nonzero;stroke:none;stroke-width:0.30000001;stroke-linecap:round;stroke-linejoin:miter;stroke-miterlimit:4;stroke-dasharray:none;stroke-dashoffset:11.33858299;stroke-opacity:1"
     id="circle1808"
     cx="-14.678326"
     cy="-12.556309"
     r="1.0690781"
     transform="scale(-1)" />
</svg>
