<?xml version="1.0" encoding="UTF-8" standalone="no"?>
<!-- Created with Inkscape (http://www.inkscape.org/) -->

<svg
   xmlns:ns0="http://www.iki.fi/pav/software/textext/"
   xmlns:dc="http://purl.org/dc/elements/1.1/"
   xmlns:cc="http://creativecommons.org/ns#"
   xmlns:rdf="http://www.w3.org/1999/02/22-rdf-syntax-ns#"
   xmlns:svg="http://www.w3.org/2000/svg"
   xmlns="http://www.w3.org/2000/svg"
   xmlns:xlink="http://www.w3.org/1999/xlink"
   xmlns:sodipodi="http://sodipodi.sourceforge.net/DTD/sodipodi-0.dtd"
   xmlns:inkscape="http://www.inkscape.org/namespaces/inkscape"
   inkscape:version="0.92.3 (2405546, 2018-03-11)"
   version="1.1"
   id="svg2"
   viewBox="0 0 694.48819 283.46456"
   height="80mm"
   width="196mm"
   sodipodi:docname="Magnetism-Velocity-Selector-Unknown-E-B-Out.svg"
   inkscape:export-filename="/home/mpnerem/ODU-GDRIVE/2019-Spring/PHYS112/Exams/Figures/Magnetism-Velocity-Selector-Unknown-E.pdf.png"
   inkscape:export-xdpi="90"
   inkscape:export-ydpi="90">
  <sodipodi:namedview
     inkscape:window-maximized="1"
     inkscape:window-y="20"
     inkscape:window-x="1920"
     inkscape:window-height="1035"
     inkscape:window-width="1920"
     showgrid="false"
     inkscape:current-layer="svg2"
     inkscape:document-units="px"
     inkscape:cy="200.80771"
     inkscape:cx="351.36093"
     inkscape:zoom="0.98994949"
     inkscape:pageshadow="2"
     inkscape:pageopacity="0.0"
     borderopacity="1.0"
     bordercolor="#666666"
     pagecolor="#ffffff"
     id="base"
     inkscape:snap-object-midpoints="true" />
  <defs
     id="defs4">
    <marker
       inkscape:isstock="true"
       style="overflow:visible;"
       id="marker1705"
       refX="0.0"
       refY="0.0"
       orient="auto"
       inkscape:stockid="Arrow1Mend">
      <path
         transform="scale(0.4) rotate(180) translate(10,0)"
         style="fill-rule:evenodd;stroke:#ff0000;stroke-width:1pt;stroke-opacity:1;fill:#ff0000;fill-opacity:1"
         d="M 0.0,0.0 L 5.0,-5.0 L -12.5,0.0 L 5.0,5.0 L 0.0,0.0 z "
         id="path1703" />
    </marker>
    <marker
       inkscape:collect="always"
       inkscape:stockid="Arrow1Mend"
       orient="auto"
       refY="0.0"
       refX="0.0"
       id="marker1627"
       style="overflow:visible;"
       inkscape:isstock="true">
      <path
         id="path1625"
         d="M 0.0,0.0 L 5.0,-5.0 L -12.5,0.0 L 5.0,5.0 L 0.0,0.0 z "
         style="fill-rule:evenodd;stroke:#ff0000;stroke-width:1pt;stroke-opacity:1;fill:#ff0000;fill-opacity:1"
         transform="scale(0.4) rotate(180) translate(10,0)" />
    </marker>
    <marker
       inkscape:collect="always"
       inkscape:isstock="true"
       style="overflow:visible;"
       id="marker1555"
       refX="0.0"
       refY="0.0"
       orient="auto"
       inkscape:stockid="Arrow1Mend">
      <path
         transform="scale(0.4) rotate(180) translate(10,0)"
         style="fill-rule:evenodd;stroke:#ff0000;stroke-width:1pt;stroke-opacity:1;fill:#ff0000;fill-opacity:1"
         d="M 0.0,0.0 L 5.0,-5.0 L -12.5,0.0 L 5.0,5.0 L 0.0,0.0 z "
         id="path1553" />
    </marker>
    <marker
       inkscape:collect="always"
       inkscape:stockid="Arrow1Mend"
       orient="auto"
       refY="0.0"
       refX="0.0"
       id="marker1513"
       style="overflow:visible;"
       inkscape:isstock="true">
      <path
         id="path1511"
         d="M 0.0,0.0 L 5.0,-5.0 L -12.5,0.0 L 5.0,5.0 L 0.0,0.0 z "
         style="fill-rule:evenodd;stroke:#ff0000;stroke-width:1pt;stroke-opacity:1;fill:#ff0000;fill-opacity:1"
         transform="scale(0.4) rotate(180) translate(10,0)" />
    </marker>
    <marker
       inkscape:collect="always"
       inkscape:isstock="true"
       style="overflow:visible;"
       id="Arrow1Mend"
       refX="0.0"
       refY="0.0"
       orient="auto"
       inkscape:stockid="Arrow1Mend">
      <path
         transform="scale(0.4) rotate(180) translate(10,0)"
         style="fill-rule:evenodd;stroke:#ff0000;stroke-width:1pt;stroke-opacity:1;fill:#ff0000;fill-opacity:1"
         d="M 0.0,0.0 L 5.0,-5.0 L -12.5,0.0 L 5.0,5.0 L 0.0,0.0 z "
         id="path946" />
    </marker>
    <marker
       inkscape:stockid="Arrow2Lend"
       orient="auto"
       refY="0.0"
       refX="0.0"
       id="Arrow2Lend"
       style="overflow:visible;"
       inkscape:isstock="true">
      <path
         id="path4238"
         style="fill-rule:evenodd;stroke-width:0.625;stroke-linejoin:round;stroke:#ff7f2a;stroke-opacity:1;fill:#ff7f2a;fill-opacity:1"
         d="M 8.7185878,4.0337352 L -2.2072895,0.016013256 L 8.7185884,-4.0017078 C 6.9730900,-1.6296469 6.9831476,1.6157441 8.7185878,4.0337352 z "
         transform="scale(1.1) rotate(180) translate(1,0)" />
    </marker>
    <inkscape:perspective
       sodipodi:type="inkscape:persp3d"
       inkscape:vp_x="35.355339 : 230.6257 : 1"
       inkscape:vp_y="0 : 1000 : 0"
       inkscape:vp_z="729.84353 : 230.6257 : 1"
       inkscape:persp3d-origin="382.59944 : 183.38161 : 1"
       id="perspective5278" />
    <linearGradient
       id="linearGradient4237"
       inkscape:collect="always">
      <stop
         id="stop4239"
         offset="0"
         style="stop-color:#d19221;stop-opacity:1;" />
      <stop
         id="stop4241"
         offset="1"
         style="stop-color:#d19221;stop-opacity:0;" />
    </linearGradient>
    <linearGradient
       gradientUnits="userSpaceOnUse"
       y2="211.74406"
       x2="508.11688"
       y1="138.00294"
       x1="508.11688"
       id="linearGradient4243"
       xlink:href="#linearGradient4237"
       inkscape:collect="always"
       gradientTransform="translate(0,4)" />
    <linearGradient
       gradientTransform="translate(-1025.3048,-514.59474)"
       y2="211.74406"
       x2="508.11688"
       y1="138.00294"
       x1="508.11688"
       gradientUnits="userSpaceOnUse"
       id="linearGradient4260"
       xlink:href="#linearGradient4237"
       inkscape:collect="always" />
    <inkscape:perspective
       sodipodi:type="inkscape:persp3d"
       inkscape:vp_x="308.42387 : 206.75444 : 1"
       inkscape:vp_y="0 : 1000.0001 : 0"
       inkscape:vp_z="1002.9121 : 206.75444 : 1"
       inkscape:persp3d-origin="655.66799 : 159.51034 : 1"
       id="perspective5278-6" />
  </defs>
  <metadata
     id="metadata7">
    <rdf:RDF>
      <cc:Work
         rdf:about="">
        <dc:format>image/svg+xml</dc:format>
        <dc:type
           rdf:resource="http://purl.org/dc/dcmitype/StillImage" />
        <dc:title></dc:title>
      </cc:Work>
    </rdf:RDF>
  </metadata>
  <g
     transform="translate(0,-768.89766)"
     inkscape:label="Layer 1"
     inkscape:groupmode="layer"
     id="layer1" />
  <g
     id="g5209"
     transform="translate(-113.24012,-107.55952)">
    <g
       ns0:preamble="/home/mpnerem/bin/inkscapepreamble.sty"
       ns0:text="$Q$"
       word-spacing="normal"
       letter-spacing="normal"
       font-size-adjust="none"
       font-stretch="normal"
       font-weight="normal"
       font-variant="normal"
       font-style="normal"
       stroke-miterlimit="10.433"
       xml:space="preserve"
       transform="matrix(5,0,0,-5,-990.76015,2648.1918)"
       id="content"
       style="font-style:normal;font-variant:normal;font-weight:normal;font-stretch:normal;letter-spacing:normal;word-spacing:normal;text-anchor:start;fill:none;fill-opacity:1;fill-rule:evenodd;stroke:#000000;stroke-linecap:butt;stroke-linejoin:miter;stroke-miterlimit:10.43299961;stroke-dasharray:none;stroke-dashoffset:0;stroke-opacity:1"><path
         id="path4206"
         d="m 227.8,477.29 0.14,0.06 0.14,0.07 0.15,0.07 0.14,0.08 0.14,0.08 0.14,0.09 0.13,0.1 0.14,0.1 0.13,0.11 0.13,0.11 0.12,0.12 0.13,0.12 0.12,0.13 0.11,0.13 0.11,0.13 0.11,0.14 0.1,0.15 0.1,0.14 0.09,0.16 0.09,0.15 0.08,0.16 0.08,0.16 0.07,0.16 0.06,0.17 0.06,0.17 0.05,0.17 0.04,0.17 0.04,0.17 0.03,0.18 0.02,0.18 0.01,0.18 0,0.18 c 0,1.6 -1.05,2.68 -2.54,2.68 l -0.05,-0.25 c 0.99,0 1.72,-0.78 1.72,-2.12 0,-0.99 -0.51,-3.32 -2.18,-4.26 -0.05,0.35 -0.15,1.08 -0.88,1.08 l 0,-0.22 c 0.42,0 0.61,-0.24 0.61,-0.85 0,-0.15 -0.01,-0.16 -0.11,-0.2 -0.26,-0.11 -0.56,-0.18 -0.84,-0.18 l 0,0 c -0.14,0 -0.46,0 -0.46,0.43 0,0.4 0.38,0.8 0.8,0.8 l 0,0.22 c -0.53,0 -1.02,-0.5 -1.02,-1.02 0,-0.2 0.06,-0.31 0.06,-0.32 l 0,0 c -0.77,0.31 -1.11,1.09 -1.11,1.99 0,0.68 0.26,2.1 1.01,3.17 0.73,1.02 1.67,1.48 2.4,1.48 l 0.05,0.25 c -2.15,0 -4.34,-2.27 -4.34,-4.59 0,-1.65 1.12,-2.66 2.55,-2.66 0.25,0 0.59,0.04 0.98,0.15 -0.04,-0.61 -0.04,-0.64 -0.04,-0.76 0,-0.32 0,-1.1 0.82,-1.1 1.19,0 1.67,1.82 1.67,1.93 0,0.07 -0.07,0.1 -0.11,0.1 -0.08,0 -0.1,-0.05 -0.12,-0.11 -0.24,-0.7 -0.82,-0.95 -1.17,-0.95 -0.46,0 -0.6,0.27 -0.7,1.02 z"
         inkscape:connector-curvature="0"
         style="fill:#000000;stroke-width:0" /></g>    <circle
       style="fill:none;fill-opacity:1;stroke:#000000;stroke-width:1.87120116;stroke-linecap:butt;stroke-miterlimit:4;stroke-dasharray:none;stroke-dashoffset:0;stroke-opacity:1"
       id="path4213"
       cx="146.03989"
       cy="249.29181"
       r="29.850113" />
  </g>
  <g
     id="g5177"
     transform="translate(-113.24012,-117.56508)">
    <rect
       style="fill:url(#linearGradient4243);fill-opacity:1;stroke:#d29222;stroke-width:2;stroke-linecap:butt;stroke-miterlimit:4;stroke-dasharray:none;stroke-dashoffset:0;stroke-opacity:0.50588223"
       id="rect4215"
       width="542.4519"
       height="30.304577"
       x="241.42645"
       y="156.14508" />
    <rect
       y="-362.44965"
       x="-783.87836"
       height="30.304577"
       width="542.4519"
       id="rect4258"
       style="fill:url(#linearGradient4260);fill-opacity:1;stroke:#d29222;stroke-width:2;stroke-linecap:butt;stroke-miterlimit:4;stroke-dasharray:none;stroke-dashoffset:0;stroke-opacity:0.50588223"
       transform="scale(-1,-1)" />
  </g>
  <path
     style="fill:#ff7f2a;fill-rule:evenodd;stroke:#ff7f2a;stroke-width:2.00000024;stroke-linecap:butt;stroke-linejoin:miter;stroke-miterlimit:4;stroke-dasharray:none;stroke-opacity:1;marker-end:url(#Arrow2Lend);fill-opacity:1"
     d="m 71.720831,141.76751 44.446709,0"
     id="path4211"
     inkscape:connector-curvature="0" />
  <g
     style="fill:#32bef2;fill-opacity:1"
     id="g4295">
    <circle
       style="opacity:1;fill:#32bef2;fill-opacity:1;stroke:#ffffff;stroke-width:2;stroke-linejoin:miter;stroke-miterlimit:4;stroke-dasharray:none;stroke-dashoffset:0;stroke-opacity:1"
       id="path4192"
       cx="170.71428"
       cy="89.893135"
       r="10.714286" />
    <circle
       style="opacity:1;fill:#32bef2;fill-opacity:1;stroke:#ffffff;stroke-width:2;stroke-linejoin:miter;stroke-miterlimit:4;stroke-dasharray:none;stroke-dashoffset:0;stroke-opacity:1"
       id="path4192-3"
       cx="261.64285"
       cy="89.893135"
       r="10.714287" />
    <circle
       style="opacity:1;fill:#32bef2;fill-opacity:1;stroke:#ffffff;stroke-width:2;stroke-linejoin:miter;stroke-miterlimit:4;stroke-dasharray:none;stroke-dashoffset:0;stroke-opacity:1"
       id="path4192-3-6"
       cx="352.57144"
       cy="89.893135"
       r="10.714288" />
    <circle
       style="opacity:1;fill:#32bef2;fill-opacity:1;stroke:#ffffff;stroke-width:2;stroke-linejoin:miter;stroke-miterlimit:4;stroke-dasharray:none;stroke-dashoffset:0;stroke-opacity:1"
       id="path4192-7"
       cx="443.5"
       cy="89.893135"
       r="10.714287" />
    <circle
       style="opacity:1;fill:#32bef2;fill-opacity:1;stroke:#ffffff;stroke-width:2;stroke-linejoin:miter;stroke-miterlimit:4;stroke-dasharray:none;stroke-dashoffset:0;stroke-opacity:1"
       id="path4192-3-5"
       cx="534.42865"
       cy="89.893135"
       r="10.714288" />
    <circle
       style="opacity:1;fill:#32bef2;fill-opacity:1;stroke:#ffffff;stroke-width:2;stroke-linejoin:miter;stroke-miterlimit:4;stroke-dasharray:none;stroke-dashoffset:0;stroke-opacity:1"
       id="path4192-3-6-3"
       cx="625.35724"
       cy="89.893135"
       r="10.714289" />
  </g>
  <g
     style="fill:#32bef2;fill-opacity:1"
     transform="translate(0,35.333328)"
     id="g4303">
    <circle
       r="10.714286"
       cy="89.893135"
       cx="170.71428"
       id="circle4305"
       style="opacity:1;fill:#32bef2;fill-opacity:1;stroke:#ffffff;stroke-width:2;stroke-linejoin:miter;stroke-miterlimit:4;stroke-dasharray:none;stroke-dashoffset:0;stroke-opacity:1" />
    <circle
       r="10.714287"
       cy="89.893135"
       cx="261.64285"
       id="circle4307"
       style="opacity:1;fill:#32bef2;fill-opacity:1;stroke:#ffffff;stroke-width:2;stroke-linejoin:miter;stroke-miterlimit:4;stroke-dasharray:none;stroke-dashoffset:0;stroke-opacity:1" />
    <circle
       r="10.714288"
       cy="89.893135"
       cx="352.57144"
       id="circle4309"
       style="opacity:1;fill:#32bef2;fill-opacity:1;stroke:#ffffff;stroke-width:2;stroke-linejoin:miter;stroke-miterlimit:4;stroke-dasharray:none;stroke-dashoffset:0;stroke-opacity:1" />
    <circle
       r="10.714287"
       cy="89.893135"
       cx="443.5"
       id="circle4311"
       style="opacity:1;fill:#32bef2;fill-opacity:1;stroke:#ffffff;stroke-width:2;stroke-linejoin:miter;stroke-miterlimit:4;stroke-dasharray:none;stroke-dashoffset:0;stroke-opacity:1" />
    <circle
       r="10.714288"
       cy="89.893135"
       cx="534.42865"
       id="circle4313"
       style="opacity:1;fill:#32bef2;fill-opacity:1;stroke:#ffffff;stroke-width:2;stroke-linejoin:miter;stroke-miterlimit:4;stroke-dasharray:none;stroke-dashoffset:0;stroke-opacity:1" />
    <circle
       r="10.714289"
       cy="89.893135"
       cx="625.35724"
       id="circle4315"
       style="opacity:1;fill:#32bef2;fill-opacity:1;stroke:#ffffff;stroke-width:2;stroke-linejoin:miter;stroke-miterlimit:4;stroke-dasharray:none;stroke-dashoffset:0;stroke-opacity:1" />
  </g>
  <g
     style="fill:#32bef2;fill-opacity:1"
     id="g4317"
     transform="translate(0,70.666665)">
    <circle
       style="opacity:1;fill:#32bef2;fill-opacity:1;stroke:#ffffff;stroke-width:2;stroke-linejoin:miter;stroke-miterlimit:4;stroke-dasharray:none;stroke-dashoffset:0;stroke-opacity:1"
       id="circle4319"
       cx="170.71428"
       cy="89.893135"
       r="10.714286" />
    <circle
       style="opacity:1;fill:#32bef2;fill-opacity:1;stroke:#ffffff;stroke-width:2;stroke-linejoin:miter;stroke-miterlimit:4;stroke-dasharray:none;stroke-dashoffset:0;stroke-opacity:1"
       id="circle4321"
       cx="261.64285"
       cy="89.893135"
       r="10.714287" />
    <circle
       style="opacity:1;fill:#32bef2;fill-opacity:1;stroke:#ffffff;stroke-width:2;stroke-linejoin:miter;stroke-miterlimit:4;stroke-dasharray:none;stroke-dashoffset:0;stroke-opacity:1"
       id="circle4323"
       cx="352.57144"
       cy="89.893135"
       r="10.714288" />
    <circle
       style="opacity:1;fill:#32bef2;fill-opacity:1;stroke:#ffffff;stroke-width:2;stroke-linejoin:miter;stroke-miterlimit:4;stroke-dasharray:none;stroke-dashoffset:0;stroke-opacity:1"
       id="circle4325"
       cx="443.5"
       cy="89.893135"
       r="10.714287" />
    <circle
       style="opacity:1;fill:#32bef2;fill-opacity:1;stroke:#ffffff;stroke-width:2;stroke-linejoin:miter;stroke-miterlimit:4;stroke-dasharray:none;stroke-dashoffset:0;stroke-opacity:1"
       id="circle4327"
       cx="534.42865"
       cy="89.893135"
       r="10.714288" />
    <circle
       style="opacity:1;fill:#32bef2;fill-opacity:1;stroke:#ffffff;stroke-width:2;stroke-linejoin:miter;stroke-miterlimit:4;stroke-dasharray:none;stroke-dashoffset:0;stroke-opacity:1"
       id="circle4329"
       cx="625.35724"
       cy="89.893135"
       r="10.714289" />
  </g>
  <g
     style="fill:#32bef2;fill-opacity:1"
     transform="translate(0,106)"
     id="g4331">
    <circle
       r="10.714286"
       cy="89.893135"
       cx="170.71428"
       id="circle4333"
       style="opacity:1;fill:#32bef2;fill-opacity:1;stroke:#ffffff;stroke-width:2;stroke-linejoin:miter;stroke-miterlimit:4;stroke-dasharray:none;stroke-dashoffset:0;stroke-opacity:1" />
    <circle
       r="10.714287"
       cy="89.893135"
       cx="261.64285"
       id="circle4335"
       style="opacity:1;fill:#32bef2;fill-opacity:1;stroke:#ffffff;stroke-width:2;stroke-linejoin:miter;stroke-miterlimit:4;stroke-dasharray:none;stroke-dashoffset:0;stroke-opacity:1" />
    <circle
       r="10.714288"
       cy="89.893135"
       cx="352.57144"
       id="circle4337"
       style="opacity:1;fill:#32bef2;fill-opacity:1;stroke:#ffffff;stroke-width:2;stroke-linejoin:miter;stroke-miterlimit:4;stroke-dasharray:none;stroke-dashoffset:0;stroke-opacity:1" />
    <circle
       r="10.714287"
       cy="89.893135"
       cx="443.5"
       id="circle4339"
       style="opacity:1;fill:#32bef2;fill-opacity:1;stroke:#ffffff;stroke-width:2;stroke-linejoin:miter;stroke-miterlimit:4;stroke-dasharray:none;stroke-dashoffset:0;stroke-opacity:1" />
    <circle
       r="10.714288"
       cy="89.893135"
       cx="534.42865"
       id="circle4341"
       style="opacity:1;fill:#32bef2;fill-opacity:1;stroke:#ffffff;stroke-width:2;stroke-linejoin:miter;stroke-miterlimit:4;stroke-dasharray:none;stroke-dashoffset:0;stroke-opacity:1" />
    <circle
       r="10.714289"
       cy="89.893135"
       cx="625.35724"
       id="circle4343"
       style="opacity:1;fill:#32bef2;fill-opacity:1;stroke:#ffffff;stroke-width:2;stroke-linejoin:miter;stroke-miterlimit:4;stroke-dasharray:none;stroke-dashoffset:0;stroke-opacity:1" />
  </g>
  <path
     inkscape:connector-curvature="0"
     id="path935"
     d="M 216.17856,203.91505 V 89.325871"
     style="fill:none;stroke:#ff0000;stroke-width:3.28125;stroke-linecap:butt;stroke-linejoin:miter;stroke-miterlimit:4;stroke-dasharray:none;stroke-opacity:1;marker-end:url(#Arrow1Mend)" />
  <path
     style="fill:none;stroke:#ff0000;stroke-width:3.28125;stroke-linecap:butt;stroke-linejoin:miter;stroke-miterlimit:4;stroke-dasharray:none;stroke-opacity:1;marker-end:url(#marker1513)"
     d="M 579.89295,203.91505 V 89.325871"
     id="path1509"
     inkscape:connector-curvature="0" />
  <path
     inkscape:connector-curvature="0"
     id="path1551"
     d="M 488.96438,203.91505 V 89.325871"
     style="fill:none;stroke:#ff0000;stroke-width:3.28125;stroke-linecap:butt;stroke-linejoin:miter;stroke-miterlimit:4;stroke-dasharray:none;stroke-opacity:1;marker-end:url(#marker1555)" />
  <path
     style="fill:none;stroke:#ff0000;stroke-width:3.28125;stroke-linecap:butt;stroke-linejoin:miter;stroke-miterlimit:4;stroke-dasharray:none;stroke-opacity:1;marker-end:url(#marker1627)"
     d="M 398.03575,203.91505 V 89.325871"
     id="path1623"
     inkscape:connector-curvature="0" />
  <path
     inkscape:connector-curvature="0"
     id="path1701"
     d="M 307.10717,203.91505 V 89.325871"
     style="fill:none;stroke:#ff0000;stroke-width:3.28125;stroke-linecap:butt;stroke-linejoin:miter;stroke-miterlimit:4;stroke-dasharray:none;stroke-opacity:1;marker-end:url(#marker1705)" />
  <g
     id="g1894"
     style="stroke:#000000;stroke-opacity:1;fill-opacity:1;fill:#ff7f2a"
     ns0:jacobian_sqrt="5.0"
     inkscapeversion="0.92.3"
     ns0:alignment="middle center"
     ns0:scale="0.750000000002"
     ns0:preamble="/home/mpnerem/.config/inkscape/extensions/textext/default_packages.tex"
     ns0:text="$\\vec{v}$"
     ns0:pdfconverter="pdf2svg"
     ns0:texconverter="pdflatex"
     ns0:version="0.11.0"
     transform="matrix(5.000000,0.000000,0.000000,5.000000,-593.230978,-546.043237)">
    <g
       style="stroke:#000000;stroke-opacity:1;fill-opacity:1;fill:#ff7f2a"
       id="surface1">
      <g
         id="g1887"
         style="stroke:#000000;fill-opacity:1;stroke-opacity:1;fill:#ff7f2a">
        <path
           id="path1885"
           transform="translate(133.382,134.765)"
           d="M 5.359375 -5.9375 C 5.21875 -5.796875 4.890625 -5.515625 4.890625 -5.34375 C 4.890625 -5.25 4.984375 -5.140625 5.078125 -5.140625 C 5.171875 -5.140625 5.21875 -5.21875 5.28125 -5.28125 C 5.390625 -5.421875 5.625 -5.703125 6.0625 -5.921875 C 6.125 -5.96875 6.234375 -6.015625 6.234375 -6.125 C 6.234375 -6.234375 6.15625 -6.28125 6.09375 -6.328125 C 5.875 -6.484375 5.765625 -6.65625 5.6875 -6.890625 C 5.65625 -6.984375 5.625 -7.125 5.484375 -7.125 C 5.34375 -7.125 5.28125 -6.984375 5.28125 -6.90625 C 5.28125 -6.859375 5.359375 -6.546875 5.515625 -6.328125 L 2.15625 -6.328125 C 2 -6.328125 1.8125 -6.328125 1.8125 -6.125 C 1.8125 -5.9375 2 -5.9375 2.15625 -5.9375 Z M 5.359375 -5.9375 "
           style="stroke:#000000;stroke-width:0;stroke-opacity:1;fill-opacity:1;fill:#ff7f2a" />
      </g>
      <g
         id="g1891"
         style="stroke:#000000;fill-opacity:1;stroke-opacity:1;fill:#ff7f2a">
        <path
           id="path1889"
           transform="translate(133.770541,134.765)"
           d="M 4.671875 -3.703125 C 4.671875 -4.25 4.40625 -4.40625 4.234375 -4.40625 C 3.984375 -4.40625 3.734375 -4.140625 3.734375 -3.921875 C 3.734375 -3.796875 3.78125 -3.734375 3.890625 -3.625 C 4.109375 -3.421875 4.234375 -3.171875 4.234375 -2.8125 C 4.234375 -2.390625 3.625 -0.109375 2.46875 -0.109375 C 1.953125 -0.109375 1.71875 -0.453125 1.71875 -0.984375 C 1.71875 -1.53125 2 -2.265625 2.296875 -3.09375 C 2.375 -3.265625 2.421875 -3.40625 2.421875 -3.59375 C 2.421875 -4.03125 2.109375 -4.40625 1.609375 -4.40625 C 0.671875 -4.40625 0.296875 -2.953125 0.296875 -2.875 C 0.296875 -2.765625 0.390625 -2.765625 0.40625 -2.765625 C 0.515625 -2.765625 0.515625 -2.796875 0.5625 -2.953125 C 0.859375 -3.953125 1.28125 -4.1875 1.578125 -4.1875 C 1.65625 -4.1875 1.828125 -4.1875 1.828125 -3.875 C 1.828125 -3.625 1.71875 -3.34375 1.65625 -3.171875 C 1.21875 -2.015625 1.09375 -1.5625 1.09375 -1.125 C 1.09375 -0.046875 1.96875 0.109375 2.421875 0.109375 C 4.09375 0.109375 4.671875 -3.1875 4.671875 -3.703125 Z M 4.671875 -3.703125 "
           style="stroke:#000000;stroke-width:0;stroke-opacity:1;fill-opacity:1;fill:#ff7f2a" />
      </g>
    </g>
  </g>
  <g
     transform="matrix(5,0,0,5,-597.16784,-427.94044)"
     ns0:version="0.11.0"
     ns0:texconverter="pdflatex"
     ns0:pdfconverter="pdf2svg"
     ns0:text="$\\vec{B}$"
     ns0:preamble="/home/mpnerem/.config/inkscape/extensions/textext/default_packages.tex"
     ns0:scale="0.750000000002"
     ns0:alignment="middle center"
     inkscapeversion="0.92.3"
     ns0:jacobian_sqrt="5.0"
     style="fill:#32bef2;fill-opacity:1;stroke:#000000;stroke-opacity:1"
     id="g2058">
    <g
       id="g2056"
       style="fill:#32bef2;fill-opacity:1;stroke:#000000;stroke-opacity:1">
      <g
         style="fill:#32bef2;fill-opacity:1;stroke:#000000;stroke-opacity:1"
         id="g2050">
        <path
           inkscape:connector-curvature="0"
           style="fill:#32bef2;fill-opacity:1;stroke:#000000;stroke-width:0;stroke-opacity:1"
           d="m 5.359375,-5.9375 c -0.140625,0.140625 -0.46875,0.421875 -0.46875,0.59375 0,0.09375 0.09375,0.203125 0.1875,0.203125 0.09375,0 0.140625,-0.078125 0.203125,-0.140625 C 5.390625,-5.421875 5.625,-5.703125 6.0625,-5.921875 6.125,-5.96875 6.234375,-6.015625 6.234375,-6.125 6.234375,-6.234375 6.15625,-6.28125 6.09375,-6.328125 5.875,-6.484375 5.765625,-6.65625 5.6875,-6.890625 5.65625,-6.984375 5.625,-7.125 5.484375,-7.125 c -0.140625,0 -0.203125,0.140625 -0.203125,0.21875 0,0.046875 0.078125,0.359375 0.234375,0.578125 H 2.15625 c -0.15625,0 -0.34375,0 -0.34375,0.203125 0,0.1875 0.1875,0.1875 0.34375,0.1875 z m 0,0"
           transform="translate(135.37,132.246)"
           id="path2048" />
      </g>
      <g
         style="fill:#32bef2;fill-opacity:1;stroke:#000000;stroke-opacity:1"
         id="g2054">
        <path
           inkscape:connector-curvature="0"
           style="fill:#32bef2;fill-opacity:1;stroke:#000000;stroke-width:0;stroke-opacity:1"
           d="M 1.59375,-0.78125 C 1.5,-0.390625 1.46875,-0.3125 0.6875,-0.3125 c -0.171875,0 -0.265625,0 -0.265625,0.203125 C 0.421875,0 0.515625,0 0.6875,0 H 4.25 C 5.828125,0 7,-1.171875 7,-2.15625 7,-2.875 6.421875,-3.453125 5.453125,-3.5625 6.484375,-3.75 7.53125,-4.484375 7.53125,-5.4375 c 0,-0.734375 -0.65625,-1.375 -1.84375,-1.375 H 2.328125 c -0.1875,0 -0.28125,0 -0.28125,0.203125 0,0.109375 0.09375,0.109375 0.28125,0.109375 0.015625,0 0.203125,0 0.375,0.015625 0.171875,0.03125 0.265625,0.03125 0.265625,0.171875 0,0.03125 -0.015625,0.0625 -0.03125,0.1875 z m 1.5,-2.875 0.625,-2.46875 C 3.8125,-6.46875 3.828125,-6.5 4.25,-6.5 h 1.296875 c 0.875,0 1.078125,0.59375 1.078125,1.03125 0,0.875 -0.859375,1.8125 -2.0625,1.8125 z m -0.4375,3.34375 c -0.140625,0 -0.15625,0 -0.21875,0 -0.109375,-0.015625 -0.140625,-0.03125 -0.140625,-0.109375 0,-0.03125 0,-0.046875 0.0625,-0.21875 l 0.6875,-2.78125 h 1.875 c 0.953125,0 1.15625,0.734375 1.15625,1.15625 C 6.078125,-1.28125 5.1875,-0.3125 4,-0.3125 Z m 0,0"
           transform="translate(133.768,134.765)"
           id="path2052" />
      </g>
    </g>
  </g>
  <g
     id="g2234"
     style="fill:#ff0000;fill-opacity:1;stroke:#000000;stroke-opacity:1"
     ns0:jacobian_sqrt="5.0"
     inkscapeversion="0.92.3"
     ns0:alignment="middle center"
     ns0:scale="0.750000000002"
     ns0:preamble="/home/mpnerem/.config/inkscape/extensions/textext/default_packages.tex"
     ns0:text="$\\vec{E}$"
     ns0:pdfconverter="pdf2svg"
     ns0:texconverter="pdflatex"
     ns0:version="0.11.0"
     transform="matrix(5,0,0,5,-596.89065,-603.94043)">
    <g
       style="fill:#ff0000;fill-opacity:1;stroke:#000000;stroke-opacity:1"
       id="g2232">
      <g
         id="g2226"
         style="fill:#ff0000;fill-opacity:1;stroke:#000000;stroke-opacity:1">
        <path
           id="path2224"
           transform="translate(135.306,132.246)"
           d="m 5.359375,-5.9375 c -0.140625,0.140625 -0.46875,0.421875 -0.46875,0.59375 0,0.09375 0.09375,0.203125 0.1875,0.203125 0.09375,0 0.140625,-0.078125 0.203125,-0.140625 C 5.390625,-5.421875 5.625,-5.703125 6.0625,-5.921875 6.125,-5.96875 6.234375,-6.015625 6.234375,-6.125 6.234375,-6.234375 6.15625,-6.28125 6.09375,-6.328125 5.875,-6.484375 5.765625,-6.65625 5.6875,-6.890625 5.65625,-6.984375 5.625,-7.125 5.484375,-7.125 c -0.140625,0 -0.203125,0.140625 -0.203125,0.21875 0,0.046875 0.078125,0.359375 0.234375,0.578125 H 2.15625 c -0.15625,0 -0.34375,0 -0.34375,0.203125 0,0.1875 0.1875,0.1875 0.34375,0.1875 z m 0,0"
           style="fill:#ff0000;fill-opacity:1;stroke:#000000;stroke-width:0;stroke-opacity:1"
           inkscape:connector-curvature="0" />
      </g>
      <g
         id="g2230"
         style="fill:#ff0000;fill-opacity:1;stroke:#000000;stroke-opacity:1">
        <path
           id="path2228"
           transform="translate(133.768,134.765)"
           d="M 7.0625,-2.328125 C 7.078125,-2.375 7.109375,-2.4375 7.109375,-2.46875 c 0,0 0,-0.109375 -0.125,-0.109375 -0.09375,0 -0.109375,0.0625 -0.125,0.125 C 6.203125,-0.984375 5.84375,-0.3125 4.140625,-0.3125 H 2.6875 c -0.140625,0 -0.171875,0 -0.21875,0 -0.109375,-0.015625 -0.140625,-0.03125 -0.140625,-0.109375 0,-0.03125 0,-0.046875 0.046875,-0.21875 L 3.0625,-3.375 h 0.984375 c 0.84375,0 0.84375,0.21875 0.84375,0.46875 0,0.0625 0,0.1875 -0.0625,0.484375 C 4.8125,-2.375 4.796875,-2.34375 4.796875,-2.3125 c 0,0.046875 0.03125,0.109375 0.125,0.109375 C 5,-2.203125 5.03125,-2.25 5.078125,-2.40625 l 0.5625,-2.328125 c 0,-0.0625 -0.046875,-0.109375 -0.125,-0.109375 -0.078125,0 -0.109375,0.0625 -0.125,0.171875 -0.21875,0.765625 -0.390625,1 -1.3125,1 h -0.9375 l 0.59375,-2.40625 C 3.828125,-6.4375 3.84375,-6.46875 4.28125,-6.46875 H 5.6875 c 1.203125,0 1.515625,0.28125 1.515625,1.109375 0,0.234375 0,0.25 -0.046875,0.53125 0,0.046875 -0.015625,0.125 -0.015625,0.171875 0,0.046875 0.03125,0.125 0.125,0.125 0.109375,0 0.125,-0.0625 0.140625,-0.25 L 7.609375,-6.515625 C 7.640625,-6.78125 7.59375,-6.78125 7.34375,-6.78125 H 2.296875 c -0.1875,0 -0.296875,0 -0.296875,0.203125 0,0.109375 0.09375,0.109375 0.28125,0.109375 0.375,0 0.65625,0 0.65625,0.171875 0,0.046875 0,0.0625 -0.0625,0.25 L 1.5625,-0.78125 c -0.09375,0.390625 -0.109375,0.46875 -0.90625,0.46875 -0.171875,0 -0.28125,0 -0.28125,0.1875 C 0.375,0 0.46875,0 0.65625,0 h 5.171875 c 0.234375,0 0.25,-0.015625 0.3125,-0.171875 z m 0,0"
           style="fill:#ff0000;fill-opacity:1;stroke:#000000;stroke-width:0;stroke-opacity:1"
           inkscape:connector-curvature="0" />
      </g>
    </g>
  </g>
</svg>
