<?xml version="1.0" encoding="UTF-8" standalone="no"?>
<svg
   xmlns:ns1="http://www.iki.fi/pav/software/textext/"
   xmlns:dc="http://purl.org/dc/elements/1.1/"
   xmlns:cc="http://creativecommons.org/ns#"
   xmlns:rdf="http://www.w3.org/1999/02/22-rdf-syntax-ns#"
   xmlns:svg="http://www.w3.org/2000/svg"
   xmlns="http://www.w3.org/2000/svg"
   xmlns:sodipodi="http://sodipodi.sourceforge.net/DTD/sodipodi-0.dtd"
   xmlns:inkscape="http://www.inkscape.org/namespaces/inkscape"
   sodipodi:docname="Charge-Configurations-labelled.svg"
   inkscape:version="1.0 (4035a4fb49, 2020-05-01)"
   id="svg8"
   version="1.1"
   viewBox="0 0 285.52511 78.063972"
   height="78.063972mm"
   width="285.52512mm">
  <sodipodi:namedview
     inkscape:document-rotation="0"
     fit-margin-bottom="0"
     fit-margin-right="0"
     fit-margin-left="0"
     fit-margin-top="0"
     inkscape:window-maximized="1"
     inkscape:window-y="23"
     inkscape:window-x="-6"
     inkscape:window-height="860"
     inkscape:window-width="1368"
     showgrid="false"
     inkscape:current-layer="layer2"
     inkscape:document-units="mm"
     inkscape:cy="202.14874"
     inkscape:cx="764.18811"
     inkscape:zoom="0.7"
     inkscape:pageshadow="2"
     inkscape:pageopacity="0.0"
     borderopacity="1.0"
     bordercolor="#666666"
     pagecolor="#ffffff"
     id="base" />
  <defs
     id="defs2" />
  <metadata
     id="metadata5">
    <rdf:RDF>
      <cc:Work
         rdf:about="">
        <dc:format>image/svg+xml</dc:format>
        <dc:type
           rdf:resource="http://purl.org/dc/dcmitype/StillImage" />
        <dc:title />
      </cc:Work>
    </rdf:RDF>
  </metadata>
  <g
     style="display:inline"
     id="layer1"
     inkscape:groupmode="layer"
     inkscape:label="Layer 1"
     transform="translate(30.037985,-65.163769)">
    <g
       transform="translate(-44.374399,-9.385506)"
       id="g996">
      <path
         sodipodi:nodetypes="cc"
         inkscape:connector-curvature="0"
         id="path990"
         d="m 100.85171,101.64867 h 37.79762"
         style="fill:none;stroke:#000000;stroke-width:0.264583px;stroke-linecap:butt;stroke-linejoin:miter;stroke-opacity:1" />
      <path
         style="fill:none;stroke:#000000;stroke-width:0.264583px;stroke-linecap:butt;stroke-linejoin:miter;stroke-opacity:1"
         d="m 100.984,97.963401 v 7.370539"
         id="path992"
         inkscape:connector-curvature="0" />
      <path
         inkscape:connector-curvature="0"
         id="path994"
         d="m 138.51704,97.963401 v 7.370539"
         style="fill:none;stroke:#000000;stroke-width:0.264583px;stroke-linecap:butt;stroke-linejoin:miter;stroke-opacity:1" />
    </g>
    <g
       id="g988"
       transform="translate(-82.172022,-9.385506)">
      <path
         style="fill:none;stroke:#000000;stroke-width:0.264583px;stroke-linecap:butt;stroke-linejoin:miter;stroke-opacity:1"
         d="m 100.85171,101.64867 h 37.79762"
         id="path982"
         inkscape:connector-curvature="0"
         sodipodi:nodetypes="cc" />
      <path
         inkscape:connector-curvature="0"
         id="path984"
         d="m 100.984,97.963401 v 7.370539"
         style="fill:none;stroke:#000000;stroke-width:0.264583px;stroke-linecap:butt;stroke-linejoin:miter;stroke-opacity:1" />
      <path
         style="fill:none;stroke:#000000;stroke-width:0.264583px;stroke-linecap:butt;stroke-linejoin:miter;stroke-opacity:1"
         d="m 138.51704,97.963401 v 7.370539"
         id="path986"
         inkscape:connector-curvature="0" />
    </g>
    <g
       transform="translate(-119.96965,-9.385506)"
       id="g956">
      <path
         sodipodi:nodetypes="cc"
         inkscape:connector-curvature="0"
         id="path947"
         d="m 100.85171,101.64867 h 37.79762"
         style="fill:none;stroke:#000000;stroke-width:0.264583px;stroke-linecap:butt;stroke-linejoin:miter;stroke-opacity:1" />
      <path
         style="fill:none;stroke:#000000;stroke-width:0.264583px;stroke-linecap:butt;stroke-linejoin:miter;stroke-opacity:1"
         d="m 100.984,97.963401 v 7.370539"
         id="path949"
         inkscape:connector-curvature="0" />
      <path
         inkscape:connector-curvature="0"
         id="path951"
         d="m 138.51704,97.963401 v 7.370539"
         style="fill:none;stroke:#000000;stroke-width:0.264583px;stroke-linecap:butt;stroke-linejoin:miter;stroke-opacity:1" />
    </g>
    <g
       id="g968"
       transform="translate(-73.903801,-43.95261)">
      <circle
         style="opacity:1;fill:#5092dc;fill-opacity:1;fill-rule:nonzero;stroke:#000000;stroke-width:0.424266;stroke-linecap:round;stroke-linejoin:round;stroke-miterlimit:4;stroke-dasharray:none;stroke-dashoffset:10.0157;stroke-opacity:1"
         id="circle958"
         cx="54.918156"
         cy="136.21577"
         r="6.6670341" />
      <g
         transform="matrix(1.058333,0,0,1.058333,-90.753973,-3.7729079)"
         ns1:version="0.11.0"
         ns1:texconverter="pdflatex"
         ns1:pdfconverter="pdf2svg"
         ns1:text="$-$"
         ns1:preamble="/home/mpnerem/.config/inkscape/extensions/textext/default_packages.tex"
         ns1:scale="3.0"
         ns1:alignment="middle center"
         inkscapeversion="0.92.3"
         ns1:jacobian_sqrt="1.058333"
         style="fill:#ffffff"
         id="g966">
        <g
           id="g964"
           style="fill:#ffffff">
          <g
             style="fill:#ffffff;fill-opacity:1"
             id="g962">
            <path
               inkscape:connector-curvature="0"
               style="fill:#ffffff;stroke:none;stroke-width:0"
               d="m 6.5625,-2.296875 c 0.171875,0 0.359375,0 0.359375,-0.203125 0,-0.1875 -0.1875,-0.1875 -0.359375,-0.1875 H 1.171875 c -0.171875,0 -0.34375,0 -0.34375,0.1875 0,0.203125 0.171875,0.203125 0.34375,0.203125 z m 0,0"
               transform="translate(133.768,134.765)"
               id="path960" />
          </g>
        </g>
      </g>
    </g>
    <g
       transform="translate(-36.370761,-43.95261)"
       id="g980">
      <circle
         r="6.6670341"
         cy="136.21577"
         cx="54.918156"
         id="circle970"
         style="opacity:1;fill:#5092dc;fill-opacity:1;fill-rule:nonzero;stroke:#000000;stroke-width:0.424266;stroke-linecap:round;stroke-linejoin:round;stroke-miterlimit:4;stroke-dasharray:none;stroke-dashoffset:10.0157;stroke-opacity:1" />
      <g
         id="g978"
         style="fill:#ffffff"
         ns1:jacobian_sqrt="1.058333"
         inkscapeversion="0.92.3"
         ns1:alignment="middle center"
         ns1:scale="3.0"
         ns1:preamble="/home/mpnerem/.config/inkscape/extensions/textext/default_packages.tex"
         ns1:text="$-$"
         ns1:pdfconverter="pdf2svg"
         ns1:texconverter="pdflatex"
         ns1:version="0.11.0"
         transform="matrix(1.058333,0,0,1.058333,-90.753973,-3.7729079)">
        <g
           style="fill:#ffffff"
           id="g976">
          <g
             id="g974"
             style="fill:#ffffff;fill-opacity:1">
            <path
               id="path972"
               transform="translate(133.768,134.765)"
               d="m 6.5625,-2.296875 c 0.171875,0 0.359375,0 0.359375,-0.203125 0,-0.1875 -0.1875,-0.1875 -0.359375,-0.1875 H 1.171875 c -0.171875,0 -0.34375,0 -0.34375,0.1875 0,0.203125 0.171875,0.203125 0.34375,0.203125 z m 0,0"
               style="fill:#ffffff;stroke:none;stroke-width:0"
               inkscape:connector-curvature="0" />
          </g>
        </g>
      </g>
    </g>
    <g
       id="g1008"
       transform="translate(-10.857359,-55.60253)">
      <circle
         r="6.6670341"
         cy="148.5"
         cx="105"
         id="circle998"
         style="opacity:1;fill:#dc5050;fill-opacity:1;fill-rule:nonzero;stroke:#000000;stroke-width:0.424266;stroke-linecap:round;stroke-linejoin:round;stroke-miterlimit:4;stroke-dasharray:none;stroke-dashoffset:10.0157;stroke-opacity:1" />
      <g
         id="g1006"
         ns1:jacobian_sqrt="1.058333"
         inkscapeversion="0.92.3"
         ns1:alignment="middle center"
         ns1:scale="3.0"
         ns1:preamble="/home/mpnerem/.config/inkscape/extensions/textext/default_packages.tex"
         ns1:text="$+$"
         ns1:pdfconverter="pdf2svg"
         ns1:texconverter="pdflatex"
         ns1:version="0.11.0"
         transform="matrix(1.058333,0,0,1.058333,-40.672129,8.5113175)"
         style="fill:#ffffff">
        <g
           id="g1004"
           style="fill:#ffffff">
          <g
             id="g1002"
             style="fill:#ffffff;fill-opacity:1">
            <path
               id="path1000"
               transform="translate(133.768,134.765)"
               d="m 4.078125,-2.296875 h 2.78125 C 7,-2.296875 7.1875,-2.296875 7.1875,-2.5 7.1875,-2.6875 7,-2.6875 6.859375,-2.6875 h -2.78125 v -2.796875 c 0,-0.140625 0,-0.328125 -0.203125,-0.328125 -0.203125,0 -0.203125,0.1875 -0.203125,0.328125 V -2.6875 h -2.78125 c -0.140625,0 -0.328125,0 -0.328125,0.1875 0,0.203125 0.1875,0.203125 0.328125,0.203125 h 2.78125 V 0.5 c 0,0.140625 0,0.328125 0.203125,0.328125 0.203125,0 0.203125,-0.1875 0.203125,-0.328125 z m 0,0"
               style="fill:#ffffff;stroke:none;stroke-width:0"
               inkscape:connector-curvature="0" />
          </g>
        </g>
      </g>
    </g>
    <g
       id="g1020"
       transform="translate(1.691447,-43.95261)">
      <circle
         style="opacity:1;fill:#5092dc;fill-opacity:1;fill-rule:nonzero;stroke:#000000;stroke-width:0.424266;stroke-linecap:round;stroke-linejoin:round;stroke-miterlimit:4;stroke-dasharray:none;stroke-dashoffset:10.0157;stroke-opacity:1"
         id="circle1010"
         cx="54.918156"
         cy="136.21577"
         r="6.6670341" />
      <g
         transform="matrix(1.058333,0,0,1.058333,-90.753973,-3.7729079)"
         ns1:version="0.11.0"
         ns1:texconverter="pdflatex"
         ns1:pdfconverter="pdf2svg"
         ns1:text="$-$"
         ns1:preamble="/home/mpnerem/.config/inkscape/extensions/textext/default_packages.tex"
         ns1:scale="3.0"
         ns1:alignment="middle center"
         inkscapeversion="0.92.3"
         ns1:jacobian_sqrt="1.058333"
         style="fill:#ffffff"
         id="g1018">
        <g
           id="g1016"
           style="fill:#ffffff">
          <g
             style="fill:#ffffff;fill-opacity:1"
             id="g1014">
            <path
               inkscape:connector-curvature="0"
               style="fill:#ffffff;stroke:none;stroke-width:0"
               d="m 6.5625,-2.296875 c 0.171875,0 0.359375,0 0.359375,-0.203125 0,-0.1875 -0.1875,-0.1875 -0.359375,-0.1875 H 1.171875 c -0.171875,0 -0.34375,0 -0.34375,0.1875 0,0.203125 0.171875,0.203125 0.34375,0.203125 z m 0,0"
               transform="translate(133.768,134.765)"
               id="path1012" />
          </g>
        </g>
      </g>
    </g>
    <path
       id="path1304"
       d="m 0.87228341,99.101884 c -0.19843744,-0.396875 -0.49609359,-0.677989 -0.97565603,-0.677989 -1.22369748,0 -2.53007208,1.554427 -2.53007208,3.092315 0,0.99218 0.5787706,1.68671 1.3890621,1.68671 0.2149686,0 0.74413511,-0.0496 1.37252033,-0.79375 0.0826558,0.44649 0.46302068,0.79375 0.95911427,0.79375 0.3803437,0 0.6118541,-0.24804 0.7937498,-0.57877 0.1653645,-0.38034 0.3141979,-1.02526 0.3141979,-1.0418 0,-0.11575 -0.099166,-0.11575 -0.1322917,-0.11575 -0.099166,0 -0.1157604,0.0496 -0.1488333,0.19844 -0.1818957,0.67799 -0.363802,1.30637 -0.7937498,1.30637 -0.29765614,0 -0.3141873,-0.28111 -0.3141873,-0.47955 0,-0.23151 0.01651,-0.33073 0.13229162,-0.79375 0.11574988,-0.42995 0.13229158,-0.54571 0.23151038,-0.94258 l 0.3803331,-1.471739 c 0.066146,-0.297657 0.066146,-0.314198 0.066146,-0.363802 0,-0.181907 -0.1157499,-0.281125 -0.2976561,-0.281125 -0.2645833,0 -0.41340608,0.23151 -0.44647919,0.46302 z M 0.19428354,101.8304 c -0.0661458,0.19844 -0.0661458,0.21497 -0.2149686,0.39688 -0.46302069,0.57877 -0.89296847,0.74413 -1.19062464,0.74413 -0.5291665,0 -0.6779999,-0.57877 -0.6779999,-0.99218 0,-0.52917 0.3307291,-1.81901 0.5787812,-2.315106 0.33072906,-0.611844 0.79374975,-1.008719 1.22369753,-1.008719 0.67798928,0 0.82682265,0.859896 0.82682265,0.926042 0,0.06615 -0.01651,0.132291 -0.03302,0.181895 z m 0,0"
       style="fill:#000000;fill-opacity:1;stroke:none;stroke-width:0"
       inkscape:connector-curvature="0" />
    <path
       inkscape:connector-curvature="0"
       style="fill:#000000;fill-opacity:1;stroke:none;stroke-width:0"
       d="m 38.669906,99.101884 c -0.198438,-0.396875 -0.496094,-0.677989 -0.975646,-0.677989 -1.223697,0 -2.530082,1.554427 -2.530082,3.092315 0,0.99218 0.578781,1.68671 1.389062,1.68671 0.214979,0 0.744145,-0.0496 1.372531,-0.79375 0.08266,0.44649 0.46302,0.79375 0.959114,0.79375 0.380333,0 0.611843,-0.24804 0.79375,-0.57877 0.165364,-0.38034 0.314187,-1.02526 0.314187,-1.0418 0,-0.11575 -0.09917,-0.11575 -0.132292,-0.11575 -0.09917,0 -0.11575,0.0496 -0.148822,0.19844 -0.181907,0.67799 -0.363802,1.30637 -0.79375,1.30637 -0.297656,0 -0.314198,-0.28111 -0.314198,-0.47955 0,-0.23151 0.01651,-0.33073 0.132291,-0.79375 0.115761,-0.42995 0.132292,-0.54571 0.231511,-0.94258 l 0.380344,-1.471739 c 0.06614,-0.297657 0.06614,-0.314198 0.06614,-0.363802 0,-0.181907 -0.11576,-0.281125 -0.297656,-0.281125 -0.264583,0 -0.413416,0.23151 -0.446489,0.46302 z m -0.67799,2.728516 c -0.06615,0.19844 -0.06615,0.21497 -0.214979,0.39688 -0.46302,0.57877 -0.892968,0.74413 -1.190624,0.74413 -0.529167,0 -0.67799,-0.57877 -0.67799,-0.99218 0,-0.52917 0.330729,-1.81901 0.578771,-2.315106 0.330729,-0.611844 0.79375,-1.008719 1.223697,-1.008719 0.678,0 0.826823,0.859896 0.826823,0.926042 0,0.06615 -0.01651,0.132291 -0.03302,0.181895 z m 0,0"
       id="path2336" />
    <path
       id="path2338"
       d="m 76.467528,99.101884 c -0.198438,-0.396875 -0.496094,-0.677989 -0.975646,-0.677989 -1.223697,0 -2.530082,1.554427 -2.530082,3.092315 0,0.99218 0.578781,1.68671 1.389062,1.68671 0.214979,0 0.744146,-0.0496 1.372531,-0.79375 0.08266,0.44649 0.463021,0.79375 0.959114,0.79375 0.380333,0 0.611844,-0.24804 0.79375,-0.57877 0.165364,-0.38034 0.314187,-1.02526 0.314187,-1.0418 0,-0.11575 -0.09917,-0.11575 -0.132291,-0.11575 -0.09917,0 -0.11575,0.0496 -0.148823,0.19844 -0.181907,0.67799 -0.363802,1.30637 -0.79375,1.30637 -0.297656,0 -0.314198,-0.28111 -0.314198,-0.47955 0,-0.23151 0.01651,-0.33073 0.132292,-0.79375 0.11576,-0.42995 0.132291,-0.54571 0.23151,-0.94258 l 0.380344,-1.471739 c 0.06615,-0.297657 0.06615,-0.314198 0.06615,-0.363802 0,-0.181907 -0.115761,-0.281125 -0.297657,-0.281125 -0.264583,0 -0.413416,0.23151 -0.446489,0.46302 z m -0.677989,2.728516 c -0.06615,0.19844 -0.06615,0.21497 -0.21498,0.39688 -0.46302,0.57877 -0.892968,0.74413 -1.190624,0.74413 -0.529167,0 -0.677989,-0.57877 -0.677989,-0.99218 0,-0.52917 0.330729,-1.81901 0.57877,-2.315106 0.330729,-0.611844 0.79375,-1.008719 1.223698,-1.008719 0.678,0 0.826822,0.859896 0.826822,0.926042 0,0.06615 -0.01651,0.132291 -0.03302,0.181895 z m 0,0"
       style="fill:#000000;fill-opacity:1;stroke:none;stroke-width:0"
       inkscape:connector-curvature="0" />
    <g
       id="g1368"
       transform="translate(-26.458345)">
      <g
         transform="translate(128.78358,11.991309)"
         id="g1040">
        <path
           sodipodi:nodetypes="cc"
           inkscape:connector-curvature="0"
           id="path1034"
           d="m 100.85171,101.64867 h 37.79762"
           style="fill:none;stroke:#000000;stroke-width:0.264583px;stroke-linecap:butt;stroke-linejoin:miter;stroke-opacity:1" />
      </g>
      <g
         id="g1048"
         transform="rotate(90,196.91317,172.03612)">
        <path
           style="fill:none;stroke:#000000;stroke-width:0.264583px;stroke-linecap:butt;stroke-linejoin:miter;stroke-opacity:1"
           d="m 100.85171,101.64867 h 37.79762"
           id="path1042"
           inkscape:connector-curvature="0"
           sodipodi:nodetypes="cc" />
      </g>
      <g
         transform="rotate(90,178.14665,153.2696)"
         id="g1052">
        <path
           sodipodi:nodetypes="cc"
           inkscape:connector-curvature="0"
           id="path1050"
           d="m 100.85171,101.64867 h 37.79762"
           style="fill:none;stroke:#000000;stroke-width:0.264583px;stroke-linecap:butt;stroke-linejoin:miter;stroke-opacity:1" />
      </g>
      <g
         id="g1032"
         transform="translate(124.76758,-34.860021)">
        <circle
           r="6.6670341"
           cy="148.5"
           cx="105"
           id="circle1022"
           style="opacity:1;fill:#dc5050;fill-opacity:1;fill-rule:nonzero;stroke:#000000;stroke-width:0.424266;stroke-linecap:round;stroke-linejoin:round;stroke-miterlimit:4;stroke-dasharray:none;stroke-dashoffset:10.0157;stroke-opacity:1" />
        <g
           id="g1030"
           ns1:jacobian_sqrt="1.058333"
           inkscapeversion="0.92.3"
           ns1:alignment="middle center"
           ns1:scale="3.0"
           ns1:preamble="/home/mpnerem/.config/inkscape/extensions/textext/default_packages.tex"
           ns1:text="$+$"
           ns1:pdfconverter="pdf2svg"
           ns1:texconverter="pdflatex"
           ns1:version="0.11.0"
           transform="matrix(1.058333,0,0,1.058333,-40.672129,8.5113175)"
           style="fill:#ffffff">
          <g
             id="g1028"
             style="fill:#ffffff">
            <g
               id="g1026"
               style="fill:#ffffff;fill-opacity:1">
              <path
                 id="path1024"
                 transform="translate(133.768,134.765)"
                 d="m 4.078125,-2.296875 h 2.78125 C 7,-2.296875 7.1875,-2.296875 7.1875,-2.5 7.1875,-2.6875 7,-2.6875 6.859375,-2.6875 h -2.78125 v -2.796875 c 0,-0.140625 0,-0.328125 -0.203125,-0.328125 -0.203125,0 -0.203125,0.1875 -0.203125,0.328125 V -2.6875 h -2.78125 c -0.140625,0 -0.328125,0 -0.328125,0.1875 0,0.203125 0.1875,0.203125 0.328125,0.203125 h 2.78125 V 0.5 c 0,0.140625 0,0.328125 0.203125,0.328125 0.203125,0 0.203125,-0.1875 0.203125,-0.328125 z m 0,0"
                 style="fill:#ffffff;stroke:none;stroke-width:0"
                 inkscape:connector-curvature="0" />
            </g>
          </g>
        </g>
      </g>
      <g
         id="g1056"
         transform="translate(128.78358,-25.541718)">
        <path
           style="fill:none;stroke:#000000;stroke-width:0.264583px;stroke-linecap:butt;stroke-linejoin:miter;stroke-opacity:1"
           d="m 100.85171,101.64867 h 37.79762"
           id="path1054"
           inkscape:connector-curvature="0"
           sodipodi:nodetypes="cc" />
      </g>
      <g
         id="g1068"
         transform="translate(212.38246,-23.794783)">
        <circle
           style="opacity:1;fill:#5092dc;fill-opacity:1;fill-rule:nonzero;stroke:#000000;stroke-width:0.424266;stroke-linecap:round;stroke-linejoin:round;stroke-miterlimit:4;stroke-dasharray:none;stroke-dashoffset:10.0157;stroke-opacity:1"
           id="circle1058"
           cx="54.918156"
           cy="136.21577"
           r="6.6670341" />
        <g
           transform="matrix(1.058333,0,0,1.058333,-90.753973,-3.7729079)"
           ns1:version="0.11.0"
           ns1:texconverter="pdflatex"
           ns1:pdfconverter="pdf2svg"
           ns1:text="$-$"
           ns1:preamble="/home/mpnerem/.config/inkscape/extensions/textext/default_packages.tex"
           ns1:scale="3.0"
           ns1:alignment="middle center"
           inkscapeversion="0.92.3"
           ns1:jacobian_sqrt="1.058333"
           style="fill:#ffffff"
           id="g1066">
          <g
             id="g1064"
             style="fill:#ffffff">
            <g
               style="fill:#ffffff;fill-opacity:1"
               id="g1062">
              <path
                 inkscape:connector-curvature="0"
                 style="fill:#ffffff;stroke:none;stroke-width:0"
                 d="m 6.5625,-2.296875 c 0.171875,0 0.359375,0 0.359375,-0.203125 0,-0.1875 -0.1875,-0.1875 -0.359375,-0.1875 H 1.171875 c -0.171875,0 -0.34375,0 -0.34375,0.1875 0,0.203125 0.171875,0.203125 0.34375,0.203125 z m 0,0"
                 transform="translate(133.768,134.765)"
                 id="path1060" />
            </g>
          </g>
        </g>
      </g>
      <g
         transform="translate(212.38246,-60.108823)"
         id="g1080">
        <circle
           r="6.6670341"
           cy="136.21577"
           cx="54.918156"
           id="circle1070"
           style="opacity:1;fill:#5092dc;fill-opacity:1;fill-rule:nonzero;stroke:#000000;stroke-width:0.424266;stroke-linecap:round;stroke-linejoin:round;stroke-miterlimit:4;stroke-dasharray:none;stroke-dashoffset:10.0157;stroke-opacity:1" />
        <g
           id="g1078"
           style="fill:#ffffff"
           ns1:jacobian_sqrt="1.058333"
           inkscapeversion="0.92.3"
           ns1:alignment="middle center"
           ns1:scale="3.0"
           ns1:preamble="/home/mpnerem/.config/inkscape/extensions/textext/default_packages.tex"
           ns1:text="$-$"
           ns1:pdfconverter="pdf2svg"
           ns1:texconverter="pdflatex"
           ns1:version="0.11.0"
           transform="matrix(1.058333,0,0,1.058333,-90.753973,-3.7729079)">
          <g
             style="fill:#ffffff"
             id="g1076">
            <g
               id="g1074"
               style="fill:#ffffff;fill-opacity:1">
              <path
                 id="path1072"
                 transform="translate(133.768,134.765)"
                 d="m 6.5625,-2.296875 c 0.171875,0 0.359375,0 0.359375,-0.203125 0,-0.1875 -0.1875,-0.1875 -0.359375,-0.1875 H 1.171875 c -0.171875,0 -0.34375,0 -0.34375,0.1875 0,0.203125 0.171875,0.203125 0.34375,0.203125 z m 0,0"
                 style="fill:#ffffff;stroke:none;stroke-width:0"
                 inkscape:connector-curvature="0" />
            </g>
          </g>
        </g>
      </g>
      <g
         id="g1092"
         transform="translate(174.84942,-60.108823)">
        <circle
           style="opacity:1;fill:#5092dc;fill-opacity:1;fill-rule:nonzero;stroke:#000000;stroke-width:0.424266;stroke-linecap:round;stroke-linejoin:round;stroke-miterlimit:4;stroke-dasharray:none;stroke-dashoffset:10.0157;stroke-opacity:1"
           id="circle1082"
           cx="54.918156"
           cy="136.21577"
           r="6.6670341" />
        <g
           transform="matrix(1.058333,0,0,1.058333,-90.753973,-3.7729079)"
           ns1:version="0.11.0"
           ns1:texconverter="pdflatex"
           ns1:pdfconverter="pdf2svg"
           ns1:text="$-$"
           ns1:preamble="/home/mpnerem/.config/inkscape/extensions/textext/default_packages.tex"
           ns1:scale="3.0"
           ns1:alignment="middle center"
           inkscapeversion="0.92.3"
           ns1:jacobian_sqrt="1.058333"
           style="fill:#ffffff"
           id="g1090">
          <g
             id="g1088"
             style="fill:#ffffff">
            <g
               style="fill:#ffffff;fill-opacity:1"
               id="g1086">
              <path
                 inkscape:connector-curvature="0"
                 style="fill:#ffffff;stroke:none;stroke-width:0"
                 d="m 6.5625,-2.296875 c 0.171875,0 0.359375,0 0.359375,-0.203125 0,-0.1875 -0.1875,-0.1875 -0.359375,-0.1875 H 1.171875 c -0.171875,0 -0.34375,0 -0.34375,0.1875 0,0.203125 0.171875,0.203125 0.34375,0.203125 z m 0,0"
                 transform="translate(133.768,134.765)"
                 id="path1084" />
            </g>
          </g>
        </g>
      </g>
      <g
         transform="matrix(1.058333,0,0,1.058333,131.1026,-43.702772)"
         ns1:version="0.11.0"
         ns1:texconverter="pdflatex"
         ns1:pdfconverter="pdf2svg"
         ns1:text="$a$"
         ns1:preamble="/home/mpnerem/.config/inkscape/extensions/textext/default_packages.tex"
         ns1:scale="3.0"
         ns1:alignment="middle center"
         inkscapeversion="0.92.3"
         ns1:jacobian_sqrt="1.058333"
         id="g1318">
        <g
           id="g1316">
          <g
             style="fill:#000000;fill-opacity:1"
             id="g1314">
            <path
               inkscape:connector-curvature="0"
               style="stroke:none;stroke-width:0"
               d="M 3.71875,-3.765625 C 3.53125,-4.140625 3.25,-4.40625 2.796875,-4.40625 c -1.15625,0 -2.390625,1.46875 -2.390625,2.921875 0,0.9375 0.546875,1.59375 1.3125,1.59375 0.203125,0 0.703125,-0.046875 1.296875,-0.75 0.078125,0.421875 0.4375,0.75 0.90625,0.75 0.359375,0 0.578125,-0.234375 0.75,-0.546875 0.15625,-0.359375 0.296875,-0.96875 0.296875,-0.984375 0,-0.109375 -0.09375,-0.109375 -0.125,-0.109375 -0.09375,0 -0.109375,0.046875 -0.140625,0.1875 -0.171875,0.640625 -0.34375,1.234375 -0.75,1.234375 -0.28125,0 -0.296875,-0.265625 -0.296875,-0.453125 0,-0.21875 0.015625,-0.3125 0.125,-0.75 C 3.890625,-1.71875 3.90625,-1.828125 4,-2.203125 L 4.359375,-3.59375 c 0.0625,-0.28125 0.0625,-0.296875 0.0625,-0.34375 0,-0.171875 -0.109375,-0.265625 -0.28125,-0.265625 -0.25,0 -0.390625,0.21875 -0.421875,0.4375 z M 3.078125,-1.1875 C 3.015625,-1 3.015625,-0.984375 2.875,-0.8125 2.4375,-0.265625 2.03125,-0.109375 1.75,-0.109375 c -0.5,0 -0.640625,-0.546875 -0.640625,-0.9375 0,-0.5 0.3125,-1.71875 0.546875,-2.1875 0.3125,-0.578125 0.75,-0.953125 1.15625,-0.953125 0.640625,0 0.78125,0.8125 0.78125,0.875 0,0.0625 -0.015625,0.125 -0.03125,0.171875 z m 0,0"
               transform="translate(133.768,134.765)"
               id="path1312" />
          </g>
        </g>
      </g>
      <g
         id="g1326"
         ns1:jacobian_sqrt="1.058333"
         inkscapeversion="0.92.3"
         ns1:alignment="middle center"
         ns1:scale="3.0"
         ns1:preamble="/home/mpnerem/.config/inkscape/extensions/textext/default_packages.tex"
         ns1:text="$a$"
         ns1:pdfconverter="pdf2svg"
         ns1:texconverter="pdflatex"
         ns1:version="0.11.0"
         transform="matrix(1.058333,0,0,1.058333,103.84111,-69.895186)">
        <g
           id="g1324">
          <g
             id="g1322"
             style="fill:#000000;fill-opacity:1">
            <path
               id="path1320"
               transform="translate(133.768,134.765)"
               d="M 3.71875,-3.765625 C 3.53125,-4.140625 3.25,-4.40625 2.796875,-4.40625 c -1.15625,0 -2.390625,1.46875 -2.390625,2.921875 0,0.9375 0.546875,1.59375 1.3125,1.59375 0.203125,0 0.703125,-0.046875 1.296875,-0.75 0.078125,0.421875 0.4375,0.75 0.90625,0.75 0.359375,0 0.578125,-0.234375 0.75,-0.546875 0.15625,-0.359375 0.296875,-0.96875 0.296875,-0.984375 0,-0.109375 -0.09375,-0.109375 -0.125,-0.109375 -0.09375,0 -0.109375,0.046875 -0.140625,0.1875 -0.171875,0.640625 -0.34375,1.234375 -0.75,1.234375 -0.28125,0 -0.296875,-0.265625 -0.296875,-0.453125 0,-0.21875 0.015625,-0.3125 0.125,-0.75 C 3.890625,-1.71875 3.90625,-1.828125 4,-2.203125 L 4.359375,-3.59375 c 0.0625,-0.28125 0.0625,-0.296875 0.0625,-0.34375 0,-0.171875 -0.109375,-0.265625 -0.28125,-0.265625 -0.25,0 -0.390625,0.21875 -0.421875,0.4375 z M 3.078125,-1.1875 C 3.015625,-1 3.015625,-0.984375 2.875,-0.8125 2.4375,-0.265625 2.03125,-0.109375 1.75,-0.109375 c -0.5,0 -0.640625,-0.546875 -0.640625,-0.9375 0,-0.5 0.3125,-1.71875 0.546875,-2.1875 0.3125,-0.578125 0.75,-0.953125 1.15625,-0.953125 0.640625,0 0.78125,0.8125 0.78125,0.875 0,0.0625 -0.015625,0.125 -0.03125,0.171875 z m 0,0"
               style="stroke:none;stroke-width:0"
               inkscape:connector-curvature="0" />
          </g>
        </g>
      </g>
    </g>
    <g
       transform="translate(105.89829,-15.854576)"
       id="g1507">
      <path
         sodipodi:nodetypes="cc"
         inkscape:connector-curvature="0"
         id="path1445"
         d="M 18.189494,125.14932 37.088305,92.415624"
         style="fill:none;stroke:#000000;stroke-width:0.264583px;stroke-linecap:butt;stroke-linejoin:miter;stroke-opacity:1" />
      <g
         transform="translate(-68.026263,-35.444703)"
         id="g1457">
        <circle
           style="opacity:1;fill:#dc5050;fill-opacity:1;fill-rule:nonzero;stroke:#000000;stroke-width:0.424266;stroke-linecap:round;stroke-linejoin:round;stroke-miterlimit:4;stroke-dasharray:none;stroke-dashoffset:10.0157;stroke-opacity:1"
           id="circle1447"
           cx="105"
           cy="148.5"
           r="6.6670341" />
        <g
           style="fill:#ffffff"
           transform="matrix(1.058333,0,0,1.058333,-40.672129,8.5113175)"
           ns1:version="0.11.0"
           ns1:texconverter="pdflatex"
           ns1:pdfconverter="pdf2svg"
           ns1:text="$+$"
           ns1:preamble="/home/mpnerem/.config/inkscape/extensions/textext/default_packages.tex"
           ns1:scale="3.0"
           ns1:alignment="middle center"
           inkscapeversion="0.92.3"
           ns1:jacobian_sqrt="1.058333"
           id="g1455">
          <g
             style="fill:#ffffff"
             id="g1453">
            <g
               style="fill:#ffffff;fill-opacity:1"
               id="g1451">
              <path
                 inkscape:connector-curvature="0"
                 style="fill:#ffffff;stroke:none;stroke-width:0"
                 d="m 4.078125,-2.296875 h 2.78125 C 7,-2.296875 7.1875,-2.296875 7.1875,-2.5 7.1875,-2.6875 7,-2.6875 6.859375,-2.6875 h -2.78125 v -2.796875 c 0,-0.140625 0,-0.328125 -0.203125,-0.328125 -0.203125,0 -0.203125,0.1875 -0.203125,0.328125 V -2.6875 h -2.78125 c -0.140625,0 -0.328125,0 -0.328125,0.1875 0,0.203125 0.1875,0.203125 0.328125,0.203125 h 2.78125 V 0.5 c 0,0.140625 0,0.328125 0.203125,0.328125 0.203125,0 0.203125,-0.1875 0.203125,-0.328125 z m 0,0"
                 transform="translate(133.768,134.765)"
                 id="path1449" />
            </g>
          </g>
        </g>
      </g>
      <path
         sodipodi:nodetypes="cc"
         inkscape:connector-curvature="0"
         id="path1459"
         d="M 18.074926,125.08319 H 55.872548"
         style="fill:none;stroke:#000000;stroke-width:0.264583px;stroke-linecap:butt;stroke-linejoin:miter;stroke-opacity:1" />
      <g
         transform="translate(-36.947173,-11.150297)"
         id="g1471">
        <circle
           r="6.6670341"
           cy="136.21577"
           cx="54.918156"
           id="circle1461"
           style="opacity:1;fill:#5092dc;fill-opacity:1;fill-rule:nonzero;stroke:#000000;stroke-width:0.424266;stroke-linecap:round;stroke-linejoin:round;stroke-miterlimit:4;stroke-dasharray:none;stroke-dashoffset:10.0157;stroke-opacity:1" />
        <g
           id="g1469"
           style="fill:#ffffff"
           ns1:jacobian_sqrt="1.058333"
           inkscapeversion="0.92.3"
           ns1:alignment="middle center"
           ns1:scale="3.0"
           ns1:preamble="/home/mpnerem/.config/inkscape/extensions/textext/default_packages.tex"
           ns1:text="$-$"
           ns1:pdfconverter="pdf2svg"
           ns1:texconverter="pdflatex"
           ns1:version="0.11.0"
           transform="matrix(1.058333,0,0,1.058333,-90.753973,-3.7729079)">
          <g
             style="fill:#ffffff"
             id="g1467">
            <g
               id="g1465"
               style="fill:#ffffff;fill-opacity:1">
              <path
                 id="path1463"
                 transform="translate(133.768,134.765)"
                 d="m 6.5625,-2.296875 c 0.171875,0 0.359375,0 0.359375,-0.203125 0,-0.1875 -0.1875,-0.1875 -0.359375,-0.1875 H 1.171875 c -0.171875,0 -0.34375,0 -0.34375,0.1875 0,0.203125 0.171875,0.203125 0.34375,0.203125 z m 0,0"
                 style="fill:#ffffff;stroke:none;stroke-width:0"
                 inkscape:connector-curvature="0" />
            </g>
          </g>
        </g>
      </g>
      <path
         style="fill:none;stroke:#000000;stroke-width:0.264583px;stroke-linecap:butt;stroke-linejoin:miter;stroke-opacity:1"
         d="M 36.859169,92.415641 55.75798,125.14934"
         id="path1473"
         inkscape:connector-curvature="0"
         sodipodi:nodetypes="cc" />
      <g
         id="g1485"
         transform="translate(-17.944419,-44.695684)">
        <circle
           style="opacity:1;fill:#5092dc;fill-opacity:1;fill-rule:nonzero;stroke:#000000;stroke-width:0.424266;stroke-linecap:round;stroke-linejoin:round;stroke-miterlimit:4;stroke-dasharray:none;stroke-dashoffset:10.0157;stroke-opacity:1"
           id="circle1475"
           cx="54.918156"
           cy="136.21577"
           r="6.6670341" />
        <g
           transform="matrix(1.058333,0,0,1.058333,-90.753973,-3.7729079)"
           ns1:version="0.11.0"
           ns1:texconverter="pdflatex"
           ns1:pdfconverter="pdf2svg"
           ns1:text="$-$"
           ns1:preamble="/home/mpnerem/.config/inkscape/extensions/textext/default_packages.tex"
           ns1:scale="3.0"
           ns1:alignment="middle center"
           inkscapeversion="0.92.3"
           ns1:jacobian_sqrt="1.058333"
           style="fill:#ffffff"
           id="g1483">
          <g
             id="g1481"
             style="fill:#ffffff">
            <g
               style="fill:#ffffff;fill-opacity:1"
               id="g1479">
              <path
                 inkscape:connector-curvature="0"
                 style="fill:#ffffff;stroke:none;stroke-width:0"
                 d="m 6.5625,-2.296875 c 0.171875,0 0.359375,0 0.359375,-0.203125 0,-0.1875 -0.1875,-0.1875 -0.359375,-0.1875 H 1.171875 c -0.171875,0 -0.34375,0 -0.34375,0.1875 0,0.203125 0.171875,0.203125 0.34375,0.203125 z m 0,0"
                 transform="translate(133.768,134.765)"
                 id="path1477" />
            </g>
          </g>
        </g>
      </g>
      <g
         transform="translate(2.2678574,-11.150297)"
         id="g1497">
        <circle
           r="6.6670341"
           cy="136.21577"
           cx="54.918156"
           id="circle1487"
           style="opacity:1;fill:#5092dc;fill-opacity:1;fill-rule:nonzero;stroke:#000000;stroke-width:0.424266;stroke-linecap:round;stroke-linejoin:round;stroke-miterlimit:4;stroke-dasharray:none;stroke-dashoffset:10.0157;stroke-opacity:1" />
        <g
           id="g1495"
           style="fill:#ffffff"
           ns1:jacobian_sqrt="1.058333"
           inkscapeversion="0.92.3"
           ns1:alignment="middle center"
           ns1:scale="3.0"
           ns1:preamble="/home/mpnerem/.config/inkscape/extensions/textext/default_packages.tex"
           ns1:text="$-$"
           ns1:pdfconverter="pdf2svg"
           ns1:texconverter="pdflatex"
           ns1:version="0.11.0"
           transform="matrix(1.058333,0,0,1.058333,-90.753973,-3.7729079)">
          <g
             style="fill:#ffffff"
             id="g1493">
            <g
               id="g1491"
               style="fill:#ffffff;fill-opacity:1">
              <path
                 id="path1489"
                 transform="translate(133.768,134.765)"
                 d="m 6.5625,-2.296875 c 0.171875,0 0.359375,0 0.359375,-0.203125 0,-0.1875 -0.1875,-0.1875 -0.359375,-0.1875 H 1.171875 c -0.171875,0 -0.34375,0 -0.34375,0.1875 0,0.203125 0.171875,0.203125 0.34375,0.203125 z m 0,0"
                 style="fill:#ffffff;stroke:none;stroke-width:0"
                 inkscape:connector-curvature="0" />
            </g>
          </g>
        </g>
      </g>
      <g
         id="g1505"
         ns1:jacobian_sqrt="1.058333"
         inkscapeversion="0.92.3"
         ns1:alignment="middle center"
         ns1:scale="3.0"
         ns1:preamble="/home/mpnerem/.config/inkscape/extensions/textext/default_packages.tex"
         ns1:text="$a$"
         ns1:pdfconverter="pdf2svg"
         ns1:texconverter="pdflatex"
         ns1:version="0.11.0"
         transform="matrix(1.058333,0,0,1.058333,-107.83636,-7.0868471)">
        <g
           id="g1503">
          <g
             id="g1501"
             style="fill:#000000;fill-opacity:1">
            <path
               id="path1499"
               transform="translate(133.768,134.765)"
               d="M 3.71875,-3.765625 C 3.53125,-4.140625 3.25,-4.40625 2.796875,-4.40625 c -1.15625,0 -2.390625,1.46875 -2.390625,2.921875 0,0.9375 0.546875,1.59375 1.3125,1.59375 0.203125,0 0.703125,-0.046875 1.296875,-0.75 0.078125,0.421875 0.4375,0.75 0.90625,0.75 0.359375,0 0.578125,-0.234375 0.75,-0.546875 0.15625,-0.359375 0.296875,-0.96875 0.296875,-0.984375 0,-0.109375 -0.09375,-0.109375 -0.125,-0.109375 -0.09375,0 -0.109375,0.046875 -0.140625,0.1875 -0.171875,0.640625 -0.34375,1.234375 -0.75,1.234375 -0.28125,0 -0.296875,-0.265625 -0.296875,-0.453125 0,-0.21875 0.015625,-0.3125 0.125,-0.75 C 3.890625,-1.71875 3.90625,-1.828125 4,-2.203125 L 4.359375,-3.59375 c 0.0625,-0.28125 0.0625,-0.296875 0.0625,-0.34375 0,-0.171875 -0.109375,-0.265625 -0.28125,-0.265625 -0.25,0 -0.390625,0.21875 -0.421875,0.4375 z M 3.078125,-1.1875 C 3.015625,-1 3.015625,-0.984375 2.875,-0.8125 2.4375,-0.265625 2.03125,-0.109375 1.75,-0.109375 c -0.5,0 -0.640625,-0.546875 -0.640625,-0.9375 0,-0.5 0.3125,-1.71875 0.546875,-2.1875 0.3125,-0.578125 0.75,-0.953125 1.15625,-0.953125 0.640625,0 0.78125,0.8125 0.78125,0.875 0,0.0625 -0.015625,0.125 -0.03125,0.171875 z m 0,0"
               style="stroke:none;stroke-width:0"
               inkscape:connector-curvature="0" />
            <path
               inkscape:connector-curvature="0"
               style="stroke:none;stroke-width:0"
               d="m 122.48675,105.99937 c -0.1875,-0.375 -0.46875,-0.64062 -0.92188,-0.64062 -1.15625,0 -2.39062,1.46875 -2.39062,2.92187 0,0.9375 0.54687,1.59375 1.3125,1.59375 0.20312,0 0.70312,-0.0469 1.29687,-0.75 0.0781,0.42188 0.4375,0.75 0.90625,0.75 0.35938,0 0.57813,-0.23437 0.75,-0.54687 0.15625,-0.35938 0.29688,-0.96875 0.29688,-0.98438 0,-0.10937 -0.0937,-0.10937 -0.125,-0.10937 -0.0937,0 -0.10938,0.0469 -0.14063,0.1875 -0.17187,0.64062 -0.34375,1.23437 -0.75,1.23437 -0.28125,0 -0.29687,-0.26562 -0.29687,-0.45312 0,-0.21875 0.0156,-0.3125 0.125,-0.75 0.10937,-0.40625 0.125,-0.51563 0.21875,-0.89063 l 0.35937,-1.39062 c 0.0625,-0.28125 0.0625,-0.29688 0.0625,-0.34375 0,-0.17188 -0.10937,-0.26563 -0.28125,-0.26563 -0.25,0 -0.39062,0.21875 -0.42187,0.4375 z m -0.64063,2.57813 c -0.0625,0.1875 -0.0625,0.20312 -0.20312,0.375 -0.4375,0.54687 -0.84375,0.70312 -1.125,0.70312 -0.5,0 -0.64063,-0.54687 -0.64063,-0.9375 0,-0.5 0.3125,-1.71875 0.54688,-2.1875 0.3125,-0.57812 0.75,-0.95312 1.15625,-0.95312 0.64062,0 0.78125,0.8125 0.78125,0.875 0,0.0625 -0.0156,0.125 -0.0312,0.17187 z m 0,0"
               id="path2340" />
            <path
               id="path2342"
               d="m 152.48675,105.99937 c -0.1875,-0.375 -0.46875,-0.64062 -0.92188,-0.64062 -1.15625,0 -2.39062,1.46875 -2.39062,2.92187 0,0.9375 0.54687,1.59375 1.3125,1.59375 0.20312,0 0.70312,-0.0469 1.29687,-0.75 0.0781,0.42188 0.4375,0.75 0.90625,0.75 0.35938,0 0.57813,-0.23437 0.75,-0.54687 0.15625,-0.35938 0.29688,-0.96875 0.29688,-0.98438 0,-0.10937 -0.0937,-0.10937 -0.125,-0.10937 -0.0937,0 -0.10938,0.0469 -0.14063,0.1875 -0.17187,0.64062 -0.34375,1.23437 -0.75,1.23437 -0.28125,0 -0.29687,-0.26562 -0.29687,-0.45312 0,-0.21875 0.0156,-0.3125 0.125,-0.75 0.10937,-0.40625 0.125,-0.51563 0.21875,-0.89063 l 0.35937,-1.39062 c 0.0625,-0.28125 0.0625,-0.29688 0.0625,-0.34375 0,-0.17188 -0.10937,-0.26563 -0.28125,-0.26563 -0.25,0 -0.39062,0.21875 -0.42187,0.4375 z m -0.64063,2.57813 c -0.0625,0.1875 -0.0625,0.20312 -0.20312,0.375 -0.4375,0.54687 -0.84375,0.70312 -1.125,0.70312 -0.5,0 -0.64063,-0.54687 -0.64063,-0.9375 0,-0.5 0.3125,-1.71875 0.54688,-2.1875 0.3125,-0.57812 0.75,-0.95312 1.15625,-0.95312 0.64062,0 0.78125,0.8125 0.78125,0.875 0,0.0625 -0.0156,0.125 -0.0312,0.17187 z m 0,0"
               style="stroke:none;stroke-width:0"
               inkscape:connector-curvature="0" />
          </g>
        </g>
      </g>
    </g>
    <g
       transform="matrix(1.058333,0,0,1.058333,-112.03898,-2.0443365)"
       ns1:version="0.11.0"
       ns1:texconverter="pdflatex"
       ns1:pdfconverter="pdf2svg"
       ns1:text="(A)"
       ns1:preamble="/home/mpnerem/.config/inkscape/extensions/textext/default_packages.tex"
       ns1:scale="3.0"
       ns1:alignment="middle center"
       inkscapeversion="0.92.3"
       ns1:jacobian_sqrt="1.058333"
       id="g1635">
      <g
         id="surface1">
        <g
           style="fill:#000000;fill-opacity:1"
           id="g1632">
          <path
             inkscape:connector-curvature="0"
             style="stroke:none;stroke-width:0"
             d="m 3.296875,2.390625 c 0,-0.03125 0,-0.046875 -0.171875,-0.21875 C 1.890625,0.921875 1.5625,-0.96875 1.5625,-2.5 c 0,-1.734375 0.375,-3.46875 1.609375,-4.703125 0.125,-0.125 0.125,-0.140625 0.125,-0.171875 0,-0.078125 -0.03125,-0.109375 -0.09375,-0.109375 -0.109375,0 -1,0.6875 -1.59375,1.953125 -0.5,1.09375 -0.625,2.203125 -0.625,3.03125 0,0.78125 0.109375,1.984375 0.65625,3.125 C 2.25,1.84375 3.09375,2.5 3.203125,2.5 c 0.0625,0 0.09375,-0.03125 0.09375,-0.109375 z m 0,0"
             transform="translate(133.768,134.765)"
             id="path1626" />
          <path
             inkscape:connector-curvature="0"
             style="stroke:none;stroke-width:0"
             d="m 3.96875,-6.9375 c -0.046875,-0.125 -0.078125,-0.203125 -0.234375,-0.203125 -0.15625,0 -0.1875,0.0625 -0.234375,0.203125 L 1.4375,-0.984375 C 1.25,-0.46875 0.859375,-0.3125 0.3125,-0.3125 V 0 c 0.234375,-0.015625 0.671875,-0.03125 1.015625,-0.03125 0.3125,0 0.828125,0.015625 1.15625,0.03125 v -0.3125 c -0.5,0 -0.75,-0.25 -0.75,-0.5 0,-0.03125 0.015625,-0.140625 0.015625,-0.15625 L 2.21875,-2.265625 H 4.671875 L 5.203125,-0.75 c 0.015625,0.046875 0.03125,0.109375 0.03125,0.140625 0,0.296875 -0.5625,0.296875 -0.828125,0.296875 V 0 c 0.359375,-0.03125 1.0625,-0.03125 1.4375,-0.03125 0.421875,0 0.890625,0.015625 1.296875,0.03125 V -0.3125 H 6.96875 C 6.375,-0.3125 6.234375,-0.375 6.125,-0.703125 Z m -0.53125,1.109375 1.125,3.25 H 2.328125 Z m 0,0"
             transform="translate(137.64245,134.765)"
             id="path1628" />
          <path
             inkscape:connector-curvature="0"
             style="stroke:none;stroke-width:0"
             d="m 2.875,-2.5 c 0,-0.765625 -0.109375,-1.96875 -0.65625,-3.109375 -0.59375,-1.21875 -1.453125,-1.875 -1.546875,-1.875 -0.0625,0 -0.109375,0.046875 -0.109375,0.109375 0,0.03125 0,0.046875 0.1875,0.234375 0.984375,0.984375 1.546875,2.5625 1.546875,4.640625 0,1.71875 -0.359375,3.46875 -1.59375,4.71875 C 0.5625,2.34375 0.5625,2.359375 0.5625,2.390625 0.5625,2.453125 0.609375,2.5 0.671875,2.5 0.765625,2.5 1.671875,1.8125 2.25,0.546875 2.765625,-0.546875 2.875,-1.65625 2.875,-2.5 Z m 0,0"
             transform="translate(145.1144,134.765)"
             id="path1630" />
        </g>
      </g>
    </g>
    <g
       id="g1907"
       ns1:jacobian_sqrt="1.058333"
       inkscapeversion="0.92.3"
       ns1:alignment="middle center"
       ns1:scale="3.0"
       ns1:preamble="/home/mpnerem/.config/inkscape/extensions/textext/default_packages.tex"
       ns1:text="(B)"
       ns1:pdfconverter="pdf2svg"
       ns1:texconverter="pdflatex"
       ns1:version="0.11.0"
       transform="matrix(1.058333,0,0,1.058333,-5.9208533,-2.044336)">
      <g
         id="g1905">
        <g
           id="g1903"
           style="fill:#000000;fill-opacity:1">
          <path
             inkscape:connector-curvature="0"
             id="path1897"
             transform="translate(133.768,134.765)"
             d="m 3.296875,2.390625 c 0,-0.03125 0,-0.046875 -0.171875,-0.21875 C 1.890625,0.921875 1.5625,-0.96875 1.5625,-2.5 c 0,-1.734375 0.375,-3.46875 1.609375,-4.703125 0.125,-0.125 0.125,-0.140625 0.125,-0.171875 0,-0.078125 -0.03125,-0.109375 -0.09375,-0.109375 -0.109375,0 -1,0.6875 -1.59375,1.953125 -0.5,1.09375 -0.625,2.203125 -0.625,3.03125 0,0.78125 0.109375,1.984375 0.65625,3.125 C 2.25,1.84375 3.09375,2.5 3.203125,2.5 c 0.0625,0 0.09375,-0.03125 0.09375,-0.109375 z m 0,0"
             style="stroke:none;stroke-width:0" />
          <path
             inkscape:connector-curvature="0"
             id="path1899"
             transform="translate(137.64245,134.765)"
             d="m 2.21875,-3.65625 v -2.4375 C 2.21875,-6.4375 2.234375,-6.5 2.703125,-6.5 H 3.9375 c 0.96875,0 1.3125,0.84375 1.3125,1.375 0,0.640625 -0.484375,1.46875 -1.59375,1.46875 z M 4.5625,-3.5625 C 5.53125,-3.75 6.21875,-4.390625 6.21875,-5.125 6.21875,-5.984375 5.296875,-6.8125 4,-6.8125 H 0.359375 V -6.5 H 0.59375 c 0.765625,0 0.796875,0.109375 0.796875,0.46875 v 5.25 c 0,0.359375 -0.03125,0.46875 -0.796875,0.46875 H 0.359375 V 0 h 3.90625 c 1.328125,0 2.21875,-0.890625 2.21875,-1.828125 0,-0.859375 -0.8125,-1.609375 -1.921875,-1.734375 z m -0.609375,3.25 h -1.25 c -0.46875,0 -0.484375,-0.0625 -0.484375,-0.390625 v -2.71875 h 1.875 C 5.078125,-3.421875 5.5,-2.5 5.5,-1.828125 5.5,-1.125 4.96875,-0.3125 3.953125,-0.3125 Z m 0,0"
             style="stroke:none;stroke-width:0" />
          <path
             inkscape:connector-curvature="0"
             id="path1901"
             transform="translate(144.69896,134.765)"
             d="m 2.875,-2.5 c 0,-0.765625 -0.109375,-1.96875 -0.65625,-3.109375 -0.59375,-1.21875 -1.453125,-1.875 -1.546875,-1.875 -0.0625,0 -0.109375,0.046875 -0.109375,0.109375 0,0.03125 0,0.046875 0.1875,0.234375 0.984375,0.984375 1.546875,2.5625 1.546875,4.640625 0,1.71875 -0.359375,3.46875 -1.59375,4.71875 C 0.5625,2.34375 0.5625,2.359375 0.5625,2.390625 0.5625,2.453125 0.609375,2.5 0.671875,2.5 0.765625,2.5 1.671875,1.8125 2.25,0.546875 2.765625,-0.546875 2.875,-1.65625 2.875,-2.5 Z m 0,0"
             style="stroke:none;stroke-width:0" />
        </g>
      </g>
    </g>
    <g
       transform="matrix(1.058333,0,0,1.058333,74.48108,-2.044336)"
       ns1:version="0.11.0"
       ns1:texconverter="pdflatex"
       ns1:pdfconverter="pdf2svg"
       ns1:text="(C)"
       ns1:preamble="/home/mpnerem/.config/inkscape/extensions/textext/default_packages.tex"
       ns1:scale="3.0"
       ns1:alignment="middle center"
       inkscapeversion="0.92.3"
       ns1:jacobian_sqrt="1.058333"
       id="g2191">
      <g
         id="g2189">
        <g
           style="fill:#000000;fill-opacity:1"
           id="g2187">
          <path
             inkscape:connector-curvature="0"
             style="stroke:none;stroke-width:0"
             d="m 3.296875,2.390625 c 0,-0.03125 0,-0.046875 -0.171875,-0.21875 C 1.890625,0.921875 1.5625,-0.96875 1.5625,-2.5 c 0,-1.734375 0.375,-3.46875 1.609375,-4.703125 0.125,-0.125 0.125,-0.140625 0.125,-0.171875 0,-0.078125 -0.03125,-0.109375 -0.09375,-0.109375 -0.109375,0 -1,0.6875 -1.59375,1.953125 -0.5,1.09375 -0.625,2.203125 -0.625,3.03125 0,0.78125 0.109375,1.984375 0.65625,3.125 C 2.25,1.84375 3.09375,2.5 3.203125,2.5 c 0.0625,0 0.09375,-0.03125 0.09375,-0.109375 z m 0,0"
             transform="translate(133.768,134.765)"
             id="path2181" />
          <path
             inkscape:connector-curvature="0"
             style="stroke:none;stroke-width:0"
             d="m 0.5625,-3.40625 c 0,2.0625 1.609375,3.625 3.46875,3.625 1.625,0 2.59375,-1.390625 2.59375,-2.546875 C 6.625,-2.421875 6.625,-2.5 6.5,-2.5 6.390625,-2.5 6.390625,-2.4375 6.375,-2.328125 6.296875,-0.90625 5.234375,-0.09375 4.140625,-0.09375 c -0.609375,0 -2.5625,-0.328125 -2.5625,-3.3125 0,-2.96875 1.953125,-3.3125 2.5625,-3.3125 1.078125,0 1.96875,0.90625 2.171875,2.359375 C 6.328125,-4.21875 6.328125,-4.1875 6.46875,-4.1875 6.625,-4.1875 6.625,-4.21875 6.625,-4.421875 V -6.78125 c 0,-0.171875 0,-0.25 -0.109375,-0.25 -0.03125,0 -0.078125,0 -0.15625,0.125 l -0.5,0.734375 C 5.5,-6.53125 4.984375,-7.03125 4.03125,-7.03125 c -1.875,0 -3.46875,1.59375 -3.46875,3.625 z m 0,0"
             transform="translate(137.64245,134.765)"
             id="path2183" />
          <path
             inkscape:connector-curvature="0"
             style="stroke:none;stroke-width:0"
             d="m 2.875,-2.5 c 0,-0.765625 -0.109375,-1.96875 -0.65625,-3.109375 -0.59375,-1.21875 -1.453125,-1.875 -1.546875,-1.875 -0.0625,0 -0.109375,0.046875 -0.109375,0.109375 0,0.03125 0,0.046875 0.1875,0.234375 0.984375,0.984375 1.546875,2.5625 1.546875,4.640625 0,1.71875 -0.359375,3.46875 -1.59375,4.71875 C 0.5625,2.34375 0.5625,2.359375 0.5625,2.390625 0.5625,2.453125 0.609375,2.5 0.671875,2.5 0.765625,2.5 1.671875,1.8125 2.25,0.546875 2.765625,-0.546875 2.875,-1.65625 2.875,-2.5 Z m 0,0"
             transform="translate(144.83744,134.765)"
             id="path2185" />
        </g>
      </g>
    </g>
    <rect
       ry="0.40105277"
       rx="0.49735582"
       y="75.584595"
       x="-29.773401"
       height="37.417736"
       width="134.7038"
       id="rect2330"
       style="opacity:1;fill:none;fill-opacity:1;fill-rule:nonzero;stroke:#000000;stroke-width:0.529167;stroke-linecap:round;stroke-linejoin:round;stroke-miterlimit:4;stroke-dasharray:none;stroke-dashoffset:10.0157;stroke-opacity:1" />
    <rect
       style="opacity:1;fill:none;fill-opacity:1;fill-rule:nonzero;stroke:#000000;stroke-width:0.529167;stroke-linecap:round;stroke-linejoin:round;stroke-miterlimit:4;stroke-dasharray:none;stroke-dashoffset:10.0157;stroke-opacity:1"
       id="rect2332"
       width="62.541069"
       height="57.730221"
       x="112.20625"
       y="65.428352"
       rx="0.49735582"
       ry="0.40105277" />
    <rect
       ry="0.40105277"
       rx="0.49735582"
       y="65.428352"
       x="192.68147"
       height="57.730221"
       width="62.541069"
       id="rect2334"
       style="opacity:1;fill:none;fill-opacity:1;fill-rule:nonzero;stroke:#000000;stroke-width:0.529167;stroke-linecap:round;stroke-linejoin:round;stroke-miterlimit:4;stroke-dasharray:none;stroke-dashoffset:10.0157;stroke-opacity:1" />
  </g>
  <g
     style="display:none"
     inkscape:label="labels"
     id="layer2"
     inkscape:groupmode="layer">
    <g
       id="g1163"
       ns1:jacobian_sqrt="1.058333"
       inkscapeversion="0.92.3"
       ns1:alignment="middle center"
       ns1:scale="3.0"
       ns1:preamble="/home/mpnerem/.config/inkscape/extensions/textext/default_packages.tex"
       ns1:text="1"
       ns1:pdfconverter="pdf2svg"
       ns1:texconverter="pdflatex"
       ns1:version="0.11.0"
       transform="matrix(1.058333,0,0,1.058333,-126.31848,-121.32721)"
       style="display:inline">
      <g
         id="g1161">
        <g
           id="g1159"
           style="fill:#000000;fill-opacity:1">
          <path
             id="path1157"
             transform="translate(133.768,134.765)"
             d="m 2.9375,-6.375 c 0,-0.25 0,-0.265625 -0.234375,-0.265625 C 2.078125,-6 1.203125,-6 0.890625,-6 v 0.3125 c 0.203125,0 0.78125,0 1.296875,-0.265625 v 5.171875 c 0,0.359375 -0.03125,0.46875 -0.921875,0.46875 h -0.3125 V 0 c 0.34375,-0.03125 1.203125,-0.03125 1.609375,-0.03125 0.390625,0 1.265625,0 1.609375,0.03125 v -0.3125 h -0.3125 c -0.90625,0 -0.921875,-0.109375 -0.921875,-0.46875 z m 0,0"
             style="stroke:none;stroke-width:0"
             inkscape:connector-curvature="0" />
        </g>
      </g>
    </g>
    <g
       transform="matrix(1.058333,0,0,1.058333,-88.735826,-121.32721)"
       ns1:version="0.11.0"
       ns1:texconverter="pdflatex"
       ns1:pdfconverter="pdf2svg"
       ns1:text="2"
       ns1:preamble="/home/mpnerem/.config/inkscape/extensions/textext/default_packages.tex"
       ns1:scale="3.0"
       ns1:alignment="middle center"
       inkscapeversion="0.92.3"
       ns1:jacobian_sqrt="1.058333"
       id="g1466"
       style="display:inline">
      <g
         id="g1464">
        <g
           style="fill:#000000;fill-opacity:1"
           id="g1462">
          <path
             inkscape:connector-curvature="0"
             style="stroke:none;stroke-width:0"
             d="m 1.265625,-0.765625 1.0625,-1.03125 c 1.546875,-1.375 2.140625,-1.90625 2.140625,-2.90625 0,-1.140625 -0.890625,-1.9375 -2.109375,-1.9375 -1.125,0 -1.859375,0.921875 -1.859375,1.8125 0,0.546875 0.5,0.546875 0.53125,0.546875 0.171875,0 0.515625,-0.109375 0.515625,-0.53125 0,-0.25 -0.1875,-0.515625 -0.53125,-0.515625 -0.078125,0 -0.09375,0 -0.125,0.015625 0.21875,-0.65625 0.765625,-1.015625 1.34375,-1.015625 0.90625,0 1.328125,0.8125 1.328125,1.625 C 3.5625,-3.90625 3.078125,-3.125 2.515625,-2.5 l -1.90625,2.125 C 0.5,-0.265625 0.5,-0.234375 0.5,0 H 4.203125 L 4.46875,-1.734375 H 4.234375 C 4.171875,-1.4375 4.109375,-1 4,-0.84375 3.9375,-0.765625 3.28125,-0.765625 3.0625,-0.765625 Z m 0,0"
             transform="translate(133.768,134.765)"
             id="path1460" />
        </g>
      </g>
    </g>
    <g
       id="g1776"
       ns1:jacobian_sqrt="1.058333"
       inkscapeversion="0.92.3"
       ns1:alignment="middle center"
       ns1:scale="3.0"
       ns1:preamble="/home/mpnerem/.config/inkscape/extensions/textext/default_packages.tex"
       ns1:text="3"
       ns1:pdfconverter="pdf2svg"
       ns1:texconverter="pdflatex"
       ns1:version="0.11.0"
       transform="matrix(1.058333,0,0,1.058333,-50.681898,-121.44296)"
       style="display:inline">
      <g
         id="g1774">
        <g
           id="g1772"
           style="fill:#000000;fill-opacity:1">
          <path
             id="path1770"
             transform="translate(133.768,134.765)"
             d="m 2.890625,-3.515625 c 0.8125,-0.265625 1.390625,-0.953125 1.390625,-1.75 0,-0.8125 -0.875,-1.375 -1.828125,-1.375 -1,0 -1.765625,0.59375 -1.765625,1.359375 0,0.328125 0.21875,0.515625 0.515625,0.515625 0.296875,0 0.5,-0.21875 0.5,-0.515625 0,-0.484375 -0.46875,-0.484375 -0.609375,-0.484375 0.296875,-0.5 0.953125,-0.625 1.3125,-0.625 0.421875,0 0.96875,0.21875 0.96875,1.109375 0,0.125 -0.03125,0.703125 -0.28125,1.140625 C 2.796875,-3.65625 2.453125,-3.625 2.203125,-3.625 2.125,-3.609375 1.890625,-3.59375 1.8125,-3.59375 c -0.078125,0.015625 -0.140625,0.03125 -0.140625,0.125 0,0.109375 0.0625,0.109375 0.234375,0.109375 h 0.4375 c 0.8125,0 1.1875,0.671875 1.1875,1.65625 0,1.359375 -0.6875,1.640625 -1.125,1.640625 -0.4375,0 -1.1875,-0.171875 -1.53125,-0.75 0.34375,0.046875 0.65625,-0.171875 0.65625,-0.546875 0,-0.359375 -0.265625,-0.5625 -0.546875,-0.5625 -0.25,0 -0.5625,0.140625 -0.5625,0.578125 0,0.90625 0.921875,1.5625 2.015625,1.5625 1.21875,0 2.125,-0.90625 2.125,-1.921875 0,-0.8125 -0.640625,-1.59375 -1.671875,-1.8125 z m 0,0"
             style="stroke:none;stroke-width:0"
             inkscape:connector-curvature="0" />
        </g>
      </g>
    </g>
    <g
       transform="matrix(1.058333,0,0,1.058333,-13.140591,-121.26933)"
       ns1:version="0.11.0"
       ns1:texconverter="pdflatex"
       ns1:pdfconverter="pdf2svg"
       ns1:text="4"
       ns1:preamble="/home/mpnerem/.config/inkscape/extensions/textext/default_packages.tex"
       ns1:scale="3.0"
       ns1:alignment="middle center"
       inkscapeversion="0.92.3"
       ns1:jacobian_sqrt="1.058333"
       id="g2094"
       style="display:inline">
      <g
         id="g2092">
        <g
           style="fill:#000000;fill-opacity:1"
           id="g2090">
          <path
             inkscape:connector-curvature="0"
             style="stroke:none;stroke-width:0"
             d="m 2.9375,-1.640625 v 0.859375 c 0,0.359375 -0.03125,0.46875 -0.765625,0.46875 H 1.96875 V 0 C 2.375,-0.03125 2.890625,-0.03125 3.3125,-0.03125 c 0.421875,0 0.9375,0 1.359375,0.03125 v -0.3125 h -0.21875 c -0.734375,0 -0.75,-0.109375 -0.75,-0.46875 V -1.640625 H 4.6875 v -0.3125 H 3.703125 v -4.53125 c 0,-0.203125 0,-0.265625 -0.171875,-0.265625 -0.078125,0 -0.109375,0 -0.1875,0.125 l -3.0625,4.671875 v 0.3125 z m 0.046875,-0.3125 H 0.5625 l 2.421875,-3.71875 z m 0,0"
             transform="translate(133.768,134.765)"
             id="path2088" />
        </g>
      </g>
    </g>
    <g
       transform="matrix(1.058333,0,0,1.058333,56.280629,-87.656784)"
       ns1:version="0.11.0"
       ns1:texconverter="pdflatex"
       ns1:pdfconverter="pdf2svg"
       ns1:text="1"
       ns1:preamble="/home/mpnerem/.config/inkscape/extensions/textext/default_packages.tex"
       ns1:scale="3.0"
       ns1:alignment="middle center"
       inkscapeversion="0.92.3"
       ns1:jacobian_sqrt="1.058333"
       id="g2258"
       style="display:inline">
      <g
         id="g2256">
        <g
           style="fill:#000000;fill-opacity:1"
           id="g2254">
          <path
             inkscape:connector-curvature="0"
             style="stroke:none;stroke-width:0"
             d="m 2.9375,-6.375 c 0,-0.25 0,-0.265625 -0.234375,-0.265625 C 2.078125,-6 1.203125,-6 0.890625,-6 v 0.3125 c 0.203125,0 0.78125,0 1.296875,-0.265625 v 5.171875 c 0,0.359375 -0.03125,0.46875 -0.921875,0.46875 h -0.3125 V 0 c 0.34375,-0.03125 1.203125,-0.03125 1.609375,-0.03125 0.390625,0 1.265625,0 1.609375,0.03125 v -0.3125 h -0.3125 c -0.90625,0 -0.921875,-0.109375 -0.921875,-0.46875 z m 0,0"
             transform="translate(133.768,134.765)"
             id="path2252" />
        </g>
      </g>
    </g>
    <g
       id="g2266"
       ns1:jacobian_sqrt="1.058333"
       inkscapeversion="0.92.3"
       ns1:alignment="middle center"
       ns1:scale="3.0"
       ns1:preamble="/home/mpnerem/.config/inkscape/extensions/textext/default_packages.tex"
       ns1:text="2"
       ns1:pdfconverter="pdf2svg"
       ns1:texconverter="pdflatex"
       ns1:version="0.11.0"
       transform="matrix(1.058333,0,0,1.058333,17.542728,-133.47978)"
       style="display:inline">
      <g
         id="g2264">
        <g
           id="g2262"
           style="fill:#000000;fill-opacity:1">
          <path
             id="path2260"
             transform="translate(133.768,134.765)"
             d="m 1.265625,-0.765625 1.0625,-1.03125 c 1.546875,-1.375 2.140625,-1.90625 2.140625,-2.90625 0,-1.140625 -0.890625,-1.9375 -2.109375,-1.9375 -1.125,0 -1.859375,0.921875 -1.859375,1.8125 0,0.546875 0.5,0.546875 0.53125,0.546875 0.171875,0 0.515625,-0.109375 0.515625,-0.53125 0,-0.25 -0.1875,-0.515625 -0.53125,-0.515625 -0.078125,0 -0.09375,0 -0.125,0.015625 0.21875,-0.65625 0.765625,-1.015625 1.34375,-1.015625 0.90625,0 1.328125,0.8125 1.328125,1.625 C 3.5625,-3.90625 3.078125,-3.125 2.515625,-2.5 l -1.90625,2.125 C 0.5,-0.265625 0.5,-0.234375 0.5,0 H 4.203125 L 4.46875,-1.734375 H 4.234375 C 4.171875,-1.4375 4.109375,-1 4,-0.84375 3.9375,-0.765625 3.28125,-0.765625 3.0625,-0.765625 Z m 0,0"
             style="stroke:none;stroke-width:0"
             inkscape:connector-curvature="0" />
        </g>
      </g>
    </g>
    <g
       transform="matrix(1.058333,0,0,1.058333,1.435661,-87.499735)"
       ns1:version="0.11.0"
       ns1:texconverter="pdflatex"
       ns1:pdfconverter="pdf2svg"
       ns1:text="3"
       ns1:preamble="/home/mpnerem/.config/inkscape/extensions/textext/default_packages.tex"
       ns1:scale="3.0"
       ns1:alignment="middle center"
       inkscapeversion="0.92.3"
       ns1:jacobian_sqrt="1.058333"
       id="g2274"
       style="display:inline">
      <g
         id="g2272">
        <g
           style="fill:#000000;fill-opacity:1"
           id="g2270">
          <path
             inkscape:connector-curvature="0"
             style="stroke:none;stroke-width:0"
             d="m 2.890625,-3.515625 c 0.8125,-0.265625 1.390625,-0.953125 1.390625,-1.75 0,-0.8125 -0.875,-1.375 -1.828125,-1.375 -1,0 -1.765625,0.59375 -1.765625,1.359375 0,0.328125 0.21875,0.515625 0.515625,0.515625 0.296875,0 0.5,-0.21875 0.5,-0.515625 0,-0.484375 -0.46875,-0.484375 -0.609375,-0.484375 0.296875,-0.5 0.953125,-0.625 1.3125,-0.625 0.421875,0 0.96875,0.21875 0.96875,1.109375 0,0.125 -0.03125,0.703125 -0.28125,1.140625 C 2.796875,-3.65625 2.453125,-3.625 2.203125,-3.625 2.125,-3.609375 1.890625,-3.59375 1.8125,-3.59375 c -0.078125,0.015625 -0.140625,0.03125 -0.140625,0.125 0,0.109375 0.0625,0.109375 0.234375,0.109375 h 0.4375 c 0.8125,0 1.1875,0.671875 1.1875,1.65625 0,1.359375 -0.6875,1.640625 -1.125,1.640625 -0.4375,0 -1.1875,-0.171875 -1.53125,-0.75 0.34375,0.046875 0.65625,-0.171875 0.65625,-0.546875 0,-0.359375 -0.265625,-0.5625 -0.546875,-0.5625 -0.25,0 -0.5625,0.140625 -0.5625,0.578125 0,0.90625 0.921875,1.5625 2.015625,1.5625 1.21875,0 2.125,-0.90625 2.125,-1.921875 0,-0.8125 -0.640625,-1.59375 -1.671875,-1.8125 z m 0,0"
             transform="translate(133.768,134.765)"
             id="path2268" />
        </g>
      </g>
    </g>
    <g
       id="g2282"
       ns1:jacobian_sqrt="1.058333"
       inkscapeversion="0.92.3"
       ns1:alignment="middle center"
       ns1:scale="3.0"
       ns1:preamble="/home/mpnerem/.config/inkscape/extensions/textext/default_packages.tex"
       ns1:text="4"
       ns1:pdfconverter="pdf2svg"
       ns1:texconverter="pdflatex"
       ns1:version="0.11.0"
       transform="matrix(1.058333,0,0,1.058333,30.550567,-117.51135)"
       style="display:inline">
      <g
         id="g2280">
        <g
           id="g2278"
           style="fill:#000000;fill-opacity:1">
          <path
             id="path2276"
             transform="translate(133.768,134.765)"
             d="m 2.9375,-1.640625 v 0.859375 c 0,0.359375 -0.03125,0.46875 -0.765625,0.46875 H 1.96875 V 0 C 2.375,-0.03125 2.890625,-0.03125 3.3125,-0.03125 c 0.421875,0 0.9375,0 1.359375,0.03125 v -0.3125 h -0.21875 c -0.734375,0 -0.75,-0.109375 -0.75,-0.46875 V -1.640625 H 4.6875 v -0.3125 H 3.703125 v -4.53125 c 0,-0.203125 0,-0.265625 -0.171875,-0.265625 -0.078125,0 -0.109375,0 -0.1875,0.125 l -3.0625,4.671875 v 0.3125 z m 0.046875,-0.3125 H 0.5625 l 2.421875,-3.71875 z m 0,0"
             style="stroke:none;stroke-width:0"
             inkscape:connector-curvature="0" />
        </g>
      </g>
    </g>
    <g
       transform="matrix(1.058333,0,0,1.058333,137.21359,-86.344829)"
       ns1:version="0.11.0"
       ns1:texconverter="pdflatex"
       ns1:pdfconverter="pdf2svg"
       ns1:text="1"
       ns1:preamble="/home/mpnerem/.config/inkscape/extensions/textext/default_packages.tex"
       ns1:scale="3.0"
       ns1:alignment="middle center"
       inkscapeversion="0.92.3"
       ns1:jacobian_sqrt="1.058333"
       id="g2290"
       style="display:inline">
      <g
         id="g2288">
        <g
           style="fill:#000000;fill-opacity:1"
           id="g2286">
          <path
             inkscape:connector-curvature="0"
             style="stroke:none;stroke-width:0"
             d="m 2.9375,-6.375 c 0,-0.25 0,-0.265625 -0.234375,-0.265625 C 2.078125,-6 1.203125,-6 0.890625,-6 v 0.3125 c 0.203125,0 0.78125,0 1.296875,-0.265625 v 5.171875 c 0,0.359375 -0.03125,0.46875 -0.921875,0.46875 h -0.3125 V 0 c 0.34375,-0.03125 1.203125,-0.03125 1.609375,-0.03125 0.390625,0 1.265625,0 1.609375,0.03125 v -0.3125 h -0.3125 c -0.90625,0 -0.921875,-0.109375 -0.921875,-0.46875 z m 0,0"
             transform="translate(133.768,134.765)"
             id="path2284" />
        </g>
      </g>
    </g>
    <g
       id="g2298"
       ns1:jacobian_sqrt="1.058333"
       inkscapeversion="0.92.3"
       ns1:alignment="middle center"
       ns1:scale="3.0"
       ns1:preamble="/home/mpnerem/.config/inkscape/extensions/textext/default_packages.tex"
       ns1:text="2"
       ns1:pdfconverter="pdf2svg"
       ns1:texconverter="pdflatex"
       ns1:version="0.11.0"
       transform="matrix(1.058333,0,0,1.058333,136.73403,-133.46074)"
       style="display:inline">
      <g
         id="g2296">
        <g
           id="g2294"
           style="fill:#000000;fill-opacity:1">
          <path
             id="path2292"
             transform="translate(133.768,134.765)"
             d="m 1.265625,-0.765625 1.0625,-1.03125 c 1.546875,-1.375 2.140625,-1.90625 2.140625,-2.90625 0,-1.140625 -0.890625,-1.9375 -2.109375,-1.9375 -1.125,0 -1.859375,0.921875 -1.859375,1.8125 0,0.546875 0.5,0.546875 0.53125,0.546875 0.171875,0 0.515625,-0.109375 0.515625,-0.53125 0,-0.25 -0.1875,-0.515625 -0.53125,-0.515625 -0.078125,0 -0.09375,0 -0.125,0.015625 0.21875,-0.65625 0.765625,-1.015625 1.34375,-1.015625 0.90625,0 1.328125,0.8125 1.328125,1.625 C 3.5625,-3.90625 3.078125,-3.125 2.515625,-2.5 l -1.90625,2.125 C 0.5,-0.265625 0.5,-0.234375 0.5,0 H 4.203125 L 4.46875,-1.734375 H 4.234375 C 4.171875,-1.4375 4.109375,-1 4,-0.84375 3.9375,-0.765625 3.28125,-0.765625 3.0625,-0.765625 Z m 0,0"
             style="stroke:none;stroke-width:0"
             inkscape:connector-curvature="0" />
        </g>
      </g>
    </g>
    <g
       transform="matrix(1.058333,0,0,1.058333,83.846895,-117.70149)"
       ns1:version="0.11.0"
       ns1:texconverter="pdflatex"
       ns1:pdfconverter="pdf2svg"
       ns1:text="3"
       ns1:preamble="/home/mpnerem/.config/inkscape/extensions/textext/default_packages.tex"
       ns1:scale="3.0"
       ns1:alignment="middle center"
       inkscapeversion="0.92.3"
       ns1:jacobian_sqrt="1.058333"
       id="g2306"
       style="display:inline">
      <g
         id="g2304">
        <g
           style="fill:#000000;fill-opacity:1"
           id="g2302">
          <path
             inkscape:connector-curvature="0"
             style="stroke:none;stroke-width:0"
             d="m 2.890625,-3.515625 c 0.8125,-0.265625 1.390625,-0.953125 1.390625,-1.75 0,-0.8125 -0.875,-1.375 -1.828125,-1.375 -1,0 -1.765625,0.59375 -1.765625,1.359375 0,0.328125 0.21875,0.515625 0.515625,0.515625 0.296875,0 0.5,-0.21875 0.5,-0.515625 0,-0.484375 -0.46875,-0.484375 -0.609375,-0.484375 0.296875,-0.5 0.953125,-0.625 1.3125,-0.625 0.421875,0 0.96875,0.21875 0.96875,1.109375 0,0.125 -0.03125,0.703125 -0.28125,1.140625 C 2.796875,-3.65625 2.453125,-3.625 2.203125,-3.625 2.125,-3.609375 1.890625,-3.59375 1.8125,-3.59375 c -0.078125,0.015625 -0.140625,0.03125 -0.140625,0.125 0,0.109375 0.0625,0.109375 0.234375,0.109375 h 0.4375 c 0.8125,0 1.1875,0.671875 1.1875,1.65625 0,1.359375 -0.6875,1.640625 -1.125,1.640625 -0.4375,0 -1.1875,-0.171875 -1.53125,-0.75 0.34375,0.046875 0.65625,-0.171875 0.65625,-0.546875 0,-0.359375 -0.265625,-0.5625 -0.546875,-0.5625 -0.25,0 -0.5625,0.140625 -0.5625,0.578125 0,0.90625 0.921875,1.5625 2.015625,1.5625 1.21875,0 2.125,-0.90625 2.125,-1.921875 0,-0.8125 -0.640625,-1.59375 -1.671875,-1.8125 z m 0,0"
             transform="translate(133.768,134.765)"
             id="path2300" />
        </g>
      </g>
    </g>
    <g
       id="g2314"
       ns1:jacobian_sqrt="1.058333"
       inkscapeversion="0.92.3"
       ns1:alignment="middle center"
       ns1:scale="3.0"
       ns1:preamble="/home/mpnerem/.config/inkscape/extensions/textext/default_packages.tex"
       ns1:text="4"
       ns1:pdfconverter="pdf2svg"
       ns1:texconverter="pdflatex"
       ns1:version="0.11.0"
       transform="matrix(1.058333,0,0,1.058333,97.084335,-86.344829)"
       style="display:inline">
      <g
         id="g2312">
        <g
           id="g2310"
           style="fill:#000000;fill-opacity:1">
          <path
             id="path2308"
             transform="translate(133.768,134.765)"
             d="m 2.9375,-1.640625 v 0.859375 c 0,0.359375 -0.03125,0.46875 -0.765625,0.46875 H 1.96875 V 0 C 2.375,-0.03125 2.890625,-0.03125 3.3125,-0.03125 c 0.421875,0 0.9375,0 1.359375,0.03125 v -0.3125 h -0.21875 c -0.734375,0 -0.75,-0.109375 -0.75,-0.46875 V -1.640625 H 4.6875 v -0.3125 H 3.703125 v -4.53125 c 0,-0.203125 0,-0.265625 -0.171875,-0.265625 -0.078125,0 -0.109375,0 -0.1875,0.125 l -3.0625,4.671875 v 0.3125 z m 0.046875,-0.3125 H 0.5625 l 2.421875,-3.71875 z m 0,0"
             style="stroke:none;stroke-width:0"
             inkscape:connector-curvature="0" />
        </g>
      </g>
    </g>
  </g>
</svg>
