<?xml version="1.0" encoding="UTF-8"?>
<!-- Generator: Adobe Illustrator 10.0, SVG Export Plug-In . SVG Version: 3.0.0 Build 76)  -->
<!DOCTYPE svg PUBLIC "-//W3C//DTD SVG 1.0//EN" "http://www.w3.org/TR/2001/REC-SVG-20010904/DTD/svg10.dtd">
<svg xmlns="http://www.w3.org/2000/svg" xmlns:xlink="http://www.w3.org/1999/xlink" xmlns:a="http://ns.adobe.com/AdobeSVGViewerExtensions/3.0/" width="361.995" height="258" viewBox="0 0 361.995 258" overflow="visible" enable-background="new 0 0 361.995 258" xml:space="preserve">
	<g id="Layer_1">
		<path fill="#FFFCF3" d="M361.995,258H0V0h361.995V258z"/>
		<path fill="#FFFFFF" stroke="#000000" stroke-width="0.5" stroke-dasharray="6 3" d="M12.329,124.417h326"/>
		<path fill="#FFFFFF" stroke="#000000" stroke-width="0.25" d="M66.796,8.157v116.404"/>
		<path fill="#FFFFFF" stroke="#000000" stroke-width="0.25" d="M42.148,16.507v225.127"/>
		<path fill="#FFFFFF" stroke="#000000" stroke-width="0.25" d="M282.792,8.157v210.727"/>
		<path fill="#FFFFFF" stroke="#000000" stroke-width="0.25" d="M115.262,36.119v189.122"/>
		<path opacity="0.75" fill="#CCE2EF" stroke="#000000" stroke-width="0.75" d="M158.321,122.144    c0,29.423,4.329,57.828,12.342,84.645h8.656c7.582-26.147,11.666-53.781,11.666-82.373c0-28.593-4.088-56.225-11.674-82.372    h-9.979C162.169,67.519,158.321,94.38,158.321,122.144z"/>
		<g>
			<g>
				<path d="M66.796,17.347l7.251-2.25v4.5L66.796,17.347z"/>
				<path d="M74.047,17.347"/>
			</g>
			<path fill="none" stroke="#000000" stroke-width="0.5" stroke-linecap="square" d="M74.047,17.347h40.987"/>
		</g>
		<g>
			<g>
				<path d="M115.262,216.793l7.251-2.25v4.5L115.262,216.793z"/>
				<path d="M122.513,216.793"/>
			</g>
			<path fill="none" stroke="#000000" stroke-width="0.5" stroke-linecap="square" d="M122.513,216.793h12.458"/>
		</g>
		<g>
			<g>
				<path d="M174.792,216.793l-7.251-2.25v4.5L174.792,216.793z"/>
				<path d="M167.541,216.793"/>
			</g>
			<path fill="none" stroke="#000000" stroke-width="0.5" stroke-linecap="square" d="M167.541,216.793H153.92"/>
		</g>
		<g>
			<g>
				<path d="M174.792,231.194l-7.251-2.25v4.5L174.792,231.194z"/>
				<path d="M167.541,231.194"/>
			</g>
			<g>
				<path fill="#FF0000" d="M344.868,153.59l-5.605-5.12l-1.914,4.073L344.868,153.59z"/>
				<path d="M338.306,150.506"/>
			</g>
			<path fill="none" stroke="#000000" stroke-width="0.5" stroke-linecap="square" d="M167.541,231.194H97.76"/>
		</g>
		<g>
			<g>
				<path d="M174.792,18.068l-7.251-2.25v4.5L174.792,18.068z"/>
				<path d="M167.541,18.068"/>
			</g>
			<path fill="none" stroke="#000000" stroke-width="0.5" stroke-linecap="square" d="M167.541,18.068h-40.984"/>
		</g>
		<g>
			<g>
				<path d="M282.792,18.067l-7.251-2.25v4.5L282.792,18.067z"/>
				<path d="M275.541,18.067"/>
			</g>
			<path fill="none" stroke="#000000" stroke-width="0.5" stroke-linecap="square" d="M275.541,18.067h-40.983"/>
		</g>
		<g>
			<g>
				<path fill="#FF0000" d="M299.368,230.634l-4.058-6.417l-2.92,3.424L299.368,230.634z"/>
				<path d="M293.851,225.929"/>
			</g>
		</g>
		<g>
			<g>
				<path d="M174.792,18.067l7.251-2.25v4.5L174.792,18.067z"/>
				<path d="M182.043,18.067"/>
			</g>
			<path fill="none" stroke="#000000" stroke-width="0.5" stroke-linecap="square" d="M182.043,18.067h40.983"/>
		</g>
		<g>
			<g>
				<path d="M42.148,231.194l7.251-2.25v4.5L42.148,231.194z"/>
				<path d="M49.399,231.194"/>
			</g>
			<path fill="none" stroke="#000000" stroke-width="0.5" stroke-linecap="square" d="M49.399,231.194h28.96"/>
		</g>
		<g>
			<g>
				<path fill="#008837" d="M115.262,73.66l3.375,10.877h-6.75L115.262,73.66z"/>
				<path d="M115.262,84.537"/>
			</g>
			<path fill="#078936" stroke="#33A02C" stroke-width="2" stroke-linecap="square" d="M115.262,84.537v39.629"/>
		</g>
		<g>
			<g>
				<path fill="#008837" d="M42.148,11.321l6.75,21.754h-13.5L42.148,11.321z"/>
				<path d="M42.148,33.075"/>
			</g>
			<path fill="#078936" stroke="#33A02C" stroke-width="2" stroke-linecap="square" d="M42.148,33.075v91.341"/>
		</g>
		<path fill="none" stroke="#FF0000" stroke-linecap="square" d="M187.605,79.682"/>
		<path fill="none" stroke="#FF0000" d="M115.262,73.66h47.033l25.311,6.022l95.187,44.735"/>
		<path fill="#FFFFFF" stroke="#000000" stroke-width="0.25" d="M174.792,8.157v232.327"/>
		<path fill="none" stroke="#FF0000" d="M115.262,73.66l59.53,50.756"/>
		<path fill="none" stroke="#FF0000" stroke-dasharray="3 3" d="M42.148,11.321l73.114,62.339"/>
		<g>
			<path d="M123.371,16.386l-0.123,0.453h-0.996l-0.836,3.02c-0.366,1.308-0.72,2.321-1.06,3.041     c-0.483,1.016-1.002,1.717-1.558,2.105c-0.423,0.296-0.846,0.444-1.269,0.444c-0.276,0-0.51-0.083-0.704-0.247     c-0.142-0.114-0.213-0.263-0.213-0.446c0-0.146,0.059-0.273,0.175-0.38c0.118-0.107,0.261-0.161,0.431-0.161     c0.124,0,0.229,0.039,0.313,0.117c0.085,0.077,0.127,0.167,0.127,0.268s-0.05,0.194-0.151,0.281     c-0.076,0.064-0.115,0.112-0.115,0.144c0,0.041,0.016,0.073,0.048,0.096c0.041,0.032,0.105,0.048,0.191,0.048     c0.196,0,0.402-0.062,0.619-0.185c0.216-0.124,0.409-0.309,0.577-0.553c0.169-0.246,0.328-0.599,0.479-1.062     c0.067-0.191,0.249-0.819,0.544-1.885l1.32-4.643h-1.338l0.099-0.453c0.423,0,0.718-0.026,0.887-0.079     c0.168-0.052,0.322-0.152,0.462-0.3c0.141-0.147,0.307-0.424,0.499-0.828c0.257-0.545,0.504-0.968,0.74-1.268     c0.323-0.404,0.663-0.708,1.018-0.91c0.356-0.202,0.691-0.303,1.006-0.303c0.332,0,0.598,0.087,0.799,0.261     c0.201,0.174,0.301,0.363,0.301,0.566c0,0.158-0.053,0.292-0.159,0.4s-0.241,0.163-0.406,0.163c-0.143,0-0.258-0.041-0.348-0.123     c-0.09-0.082-0.134-0.179-0.134-0.293c0-0.072,0.031-0.162,0.094-0.269s0.094-0.178,0.094-0.214c0-0.063-0.019-0.111-0.056-0.143     c-0.054-0.045-0.133-0.068-0.236-0.068c-0.261,0-0.495,0.094-0.702,0.282c-0.278,0.25-0.526,0.64-0.746,1.171     c-0.112,0.278-0.338,0.929-0.678,1.953H123.371z"/>
		</g>
		<g>
			<path d="M139.302,221.596l0.75-3.438h0.25c-0.032,0.333-0.048,0.608-0.048,0.827c0,0.624,0.199,1.132,0.599,1.523     c0.398,0.392,0.919,0.587,1.562,0.587c0.597,0,1.05-0.183,1.36-0.549c0.31-0.366,0.465-0.788,0.465-1.265     c0-0.31-0.071-0.591-0.213-0.846c-0.216-0.377-0.791-1.041-1.727-1.991c-0.453-0.455-0.744-0.793-0.873-1.017     c-0.208-0.368-0.313-0.754-0.313-1.159c0-0.646,0.242-1.198,0.729-1.657s1.109-0.689,1.87-0.689c0.257,0,0.499,0.025,0.729,0.076     c0.142,0.028,0.401,0.12,0.776,0.277c0.266,0.106,0.413,0.164,0.44,0.173c0.063,0.014,0.135,0.021,0.213,0.021     c0.133,0,0.247-0.035,0.344-0.104s0.208-0.217,0.337-0.443h0.25l-0.719,3.078h-0.25c0.018-0.274,0.027-0.495,0.027-0.664     c0-0.552-0.183-1.004-0.547-1.355c-0.365-0.352-0.846-0.527-1.443-0.527c-0.474,0-0.859,0.139-1.155,0.416     s-0.444,0.598-0.444,0.961c0,0.318,0.096,0.622,0.285,0.911c0.191,0.289,0.629,0.759,1.314,1.412     c0.687,0.652,1.13,1.162,1.332,1.528c0.201,0.366,0.303,0.756,0.303,1.17c0,0.469-0.125,0.922-0.373,1.361     c-0.25,0.438-0.606,0.779-1.072,1.02c-0.466,0.241-0.976,0.362-1.527,0.362c-0.274,0-0.53-0.025-0.768-0.075     c-0.238-0.05-0.617-0.173-1.138-0.369c-0.178-0.068-0.326-0.103-0.444-0.103c-0.27,0-0.48,0.182-0.631,0.547H139.302z"/>
			<path d="M150.778,217.971l-1.732,6.011c-0.1,0.357-0.15,0.615-0.15,0.774c0,0.133,0.046,0.236,0.137,0.306     c0.092,0.07,0.306,0.118,0.643,0.143l-0.054,0.188h-2.757l0.075-0.188c0.294-0.007,0.487-0.031,0.58-0.07     c0.15-0.065,0.263-0.151,0.339-0.26c0.117-0.166,0.237-0.463,0.359-0.893l1.246-4.324c0.074-0.262,0.115-0.412,0.123-0.452     c0.011-0.071,0.016-0.142,0.016-0.21c0-0.125-0.033-0.224-0.102-0.295c-0.068-0.072-0.162-0.108-0.28-0.108     c-0.094,0-0.239,0.021-0.438,0.064l-0.069-0.188l1.807-0.5H150.778z"/>
		</g>
		<g>
			<path d="M81.975,235.996l0.75-3.438h0.25c-0.032,0.333-0.048,0.608-0.048,0.827c0,0.624,0.199,1.132,0.598,1.523     s0.919,0.587,1.562,0.587c0.597,0,1.05-0.183,1.36-0.549c0.31-0.366,0.465-0.788,0.465-1.265c0-0.31-0.071-0.591-0.213-0.846     c-0.216-0.377-0.791-1.041-1.726-1.991c-0.454-0.455-0.745-0.793-0.873-1.017c-0.208-0.368-0.313-0.754-0.313-1.159     c0-0.646,0.243-1.198,0.729-1.657s1.109-0.689,1.87-0.689c0.256,0,0.499,0.025,0.729,0.076c0.142,0.028,0.401,0.12,0.777,0.277     c0.266,0.106,0.413,0.164,0.44,0.173c0.064,0.014,0.135,0.021,0.213,0.021c0.133,0,0.248-0.035,0.344-0.104     s0.208-0.217,0.337-0.443h0.25l-0.719,3.078h-0.25c0.018-0.274,0.027-0.495,0.027-0.664c0-0.552-0.183-1.004-0.547-1.355     c-0.365-0.352-0.846-0.527-1.443-0.527c-0.474,0-0.859,0.139-1.156,0.416s-0.444,0.598-0.444,0.961     c0,0.318,0.095,0.622,0.286,0.911s0.628,0.759,1.314,1.412s1.129,1.162,1.332,1.528c0.202,0.366,0.303,0.756,0.303,1.17     c0,0.469-0.125,0.922-0.374,1.361c-0.249,0.438-0.606,0.779-1.072,1.02c-0.466,0.241-0.976,0.362-1.528,0.362     c-0.274,0-0.53-0.025-0.767-0.075c-0.238-0.05-0.617-0.173-1.138-0.369c-0.178-0.068-0.326-0.103-0.445-0.103     c-0.27,0-0.48,0.182-0.63,0.547H81.975z"/>
			<path d="M92.693,239.793h-3.641v-0.199c1.841-1.618,3.058-2.887,3.65-3.807c0.274-0.426,0.412-0.873,0.412-1.342     c0-0.372-0.114-0.675-0.342-0.91c-0.229-0.234-0.523-0.352-0.887-0.352c-0.503,0-0.916,0.245-1.24,0.734l-0.188-0.086     c0.183-0.462,0.449-0.821,0.8-1.077s0.731-0.384,1.139-0.384c0.462,0,0.851,0.158,1.166,0.474     c0.315,0.316,0.473,0.699,0.473,1.149c0,0.314-0.057,0.605-0.169,0.873c-0.175,0.418-0.495,0.886-0.962,1.404     c-0.699,0.795-1.632,1.708-2.799,2.741h1.852c0.292,0,0.531-0.061,0.72-0.183s0.323-0.285,0.405-0.489h0.219L92.693,239.793z"/>
		</g>
		<g>
			<path d="M231.37,16.386l-0.123,0.453h-0.995l-0.836,3.02c-0.366,1.308-0.72,2.321-1.06,3.041     c-0.482,1.016-1.002,1.717-1.559,2.105c-0.422,0.296-0.846,0.444-1.268,0.444c-0.276,0-0.511-0.083-0.704-0.247     c-0.142-0.114-0.214-0.263-0.214-0.446c0-0.146,0.059-0.273,0.176-0.38s0.261-0.161,0.431-0.161c0.124,0,0.229,0.039,0.313,0.117     c0.085,0.077,0.127,0.167,0.127,0.268s-0.05,0.194-0.15,0.281c-0.076,0.064-0.115,0.112-0.115,0.144     c0,0.041,0.017,0.073,0.049,0.096c0.041,0.032,0.104,0.048,0.191,0.048c0.195,0,0.401-0.062,0.618-0.185     c0.216-0.124,0.409-0.309,0.577-0.553c0.169-0.246,0.328-0.599,0.479-1.062c0.067-0.191,0.249-0.819,0.544-1.885l1.32-4.643     h-1.338l0.099-0.453c0.423,0,0.719-0.026,0.887-0.079c0.168-0.052,0.322-0.152,0.462-0.3c0.141-0.147,0.307-0.424,0.499-0.828     c0.257-0.545,0.504-0.968,0.74-1.268c0.322-0.404,0.662-0.708,1.018-0.91c0.356-0.202,0.691-0.303,1.006-0.303     c0.332,0,0.598,0.087,0.799,0.261s0.301,0.363,0.301,0.566c0,0.158-0.053,0.292-0.158,0.4s-0.241,0.163-0.406,0.163     c-0.143,0-0.258-0.041-0.348-0.123c-0.09-0.082-0.135-0.179-0.135-0.293c0-0.072,0.031-0.162,0.094-0.269     s0.094-0.178,0.094-0.214c0-0.063-0.019-0.111-0.056-0.143c-0.054-0.045-0.133-0.068-0.236-0.068     c-0.261,0-0.495,0.094-0.702,0.282c-0.277,0.25-0.526,0.64-0.746,1.171c-0.111,0.278-0.338,0.929-0.678,1.953H231.37z"/>
		</g>
		<g>
			<path d="M100.399,129.698c0.617,0,1.162,0.133,1.638,0.399c0.475,0.266,0.847,0.659,1.116,1.18s0.404,1.061,0.404,1.62     c0,0.991-0.289,2.031-0.867,3.12c-0.578,1.089-1.333,1.92-2.264,2.493c-0.932,0.573-1.895,0.859-2.891,0.859     c-0.717,0-1.316-0.158-1.798-0.474c-0.482-0.316-0.838-0.733-1.069-1.252s-0.346-1.021-0.346-1.508     c0-0.863,0.209-1.717,0.627-2.561c0.418-0.844,0.917-1.549,1.497-2.115s1.199-1.001,1.856-1.306S99.66,129.698,100.399,129.698z      M100.159,130.135c-0.46,0-0.91,0.112-1.35,0.338c-0.44,0.225-0.876,0.593-1.309,1.104s-0.822,1.181-1.167,2.008     c-0.423,1.019-0.635,1.98-0.635,2.885c0,0.646,0.168,1.218,0.504,1.715s0.852,0.747,1.547,0.747c0.419,0,0.83-0.103,1.233-0.307     c0.403-0.205,0.823-0.555,1.26-1.05c0.548-0.623,1.008-1.417,1.381-2.383s0.56-1.867,0.56-2.704c0-0.618-0.168-1.165-0.504-1.64     C101.342,130.373,100.836,130.135,100.159,130.135z"/>
			<path d="M107.819,129.417l-1.37,4.751c0.421-0.455,0.789-0.768,1.103-0.936c0.313-0.169,0.641-0.253,0.983-0.253     c0.482,0,0.877,0.166,1.184,0.499s0.46,0.783,0.46,1.352c0,0.733-0.204,1.462-0.611,2.188s-0.919,1.292-1.535,1.697     s-1.223,0.607-1.821,0.607c-0.669,0-1.356-0.255-2.06-0.766l2.077-7.203c0.16-0.551,0.239-0.875,0.239-0.971     c0-0.118-0.036-0.207-0.109-0.267c-0.104-0.082-0.259-0.123-0.462-0.123c-0.095,0-0.239,0.016-0.434,0.048v-0.25L107.819,129.417     z M105.164,138.627c0.438,0.234,0.824,0.352,1.157,0.352c0.385,0,0.786-0.146,1.2-0.438s0.773-0.784,1.078-1.477     c0.304-0.692,0.457-1.392,0.457-2.098c0-0.417-0.099-0.743-0.296-0.978s-0.43-0.353-0.698-0.353     c-0.403,0-0.798,0.176-1.184,0.528c-0.386,0.353-0.666,0.832-0.84,1.438L105.164,138.627z"/>
			<path d="M113.909,132.979l-1.764,6.118c-0.314,1.098-0.746,1.889-1.293,2.374c-0.548,0.485-1.142,0.728-1.778,0.728     c-0.287,0-0.504-0.067-0.652-0.201c-0.147-0.134-0.222-0.293-0.222-0.478c0-0.143,0.056-0.269,0.168-0.377     c0.112-0.109,0.242-0.163,0.388-0.163c0.133,0,0.25,0.043,0.351,0.129c0.083,0.068,0.124,0.145,0.124,0.23     c0,0.118-0.057,0.22-0.17,0.306c-0.063,0.049-0.096,0.09-0.096,0.122l0.014,0.034c0.014,0.018,0.034,0.032,0.061,0.041     c0.028,0.009,0.068,0.014,0.123,0.014c0.368,0,0.682-0.117,0.942-0.35c0.261-0.233,0.494-0.698,0.698-1.395l1.506-5.225     c0.15-0.522,0.226-0.812,0.226-0.867c0-0.11-0.049-0.21-0.147-0.297c-0.098-0.087-0.223-0.131-0.375-0.131     c-0.06,0-0.128,0.007-0.207,0.021c-0.061,0.009-0.147,0.023-0.263,0.041v-0.25L113.909,132.979z M113.809,130.276     c0.19,0,0.353,0.067,0.486,0.201s0.201,0.296,0.201,0.486s-0.067,0.353-0.201,0.487s-0.296,0.201-0.486,0.201     s-0.353-0.067-0.487-0.201s-0.201-0.296-0.201-0.487s0.067-0.353,0.201-0.486S113.618,130.276,113.809,130.276z"/>
			<path d="M116.104,136.573c-0.031,0.227-0.047,0.414-0.047,0.563c0,0.402,0.146,0.745,0.438,1.028     c0.293,0.282,0.648,0.424,1.066,0.424c0.334,0,0.656-0.066,0.965-0.2c0.309-0.134,0.768-0.43,1.376-0.887l0.142,0.198     c-1.083,1.083-2.116,1.624-3.098,1.624c-0.667,0-1.169-0.209-1.508-0.628c-0.338-0.419-0.507-0.881-0.507-1.387     c0-0.678,0.21-1.372,0.63-2.083c0.42-0.71,0.947-1.262,1.582-1.656s1.287-0.591,1.958-0.591c0.483,0,0.842,0.098,1.075,0.293     s0.349,0.426,0.349,0.694c0,0.376-0.153,0.738-0.458,1.083c-0.403,0.449-0.995,0.812-1.777,1.089     C117.772,136.323,117.044,136.468,116.104,136.573z M116.153,136.245c0.689-0.077,1.251-0.209,1.685-0.395     c0.573-0.25,1.003-0.548,1.29-0.896c0.286-0.347,0.43-0.678,0.43-0.991c0-0.19-0.062-0.345-0.186-0.463     c-0.123-0.118-0.299-0.177-0.527-0.177c-0.476,0-0.98,0.246-1.514,0.739C116.797,134.554,116.405,135.282,116.153,136.245z"/>
			<path d="M126.122,137.674c-0.474,0.57-0.952,0.987-1.436,1.251c-0.482,0.265-0.993,0.397-1.53,0.397     c-0.647,0-1.151-0.182-1.514-0.546s-0.543-0.854-0.543-1.469c0-0.696,0.195-1.381,0.584-2.055s0.914-1.221,1.572-1.642     s1.304-0.632,1.938-0.632c0.497,0,0.868,0.104,1.114,0.312c0.246,0.207,0.369,0.461,0.369,0.762c0,0.283-0.086,0.524-0.259,0.725     c-0.127,0.155-0.284,0.232-0.47,0.232c-0.141,0-0.258-0.045-0.351-0.136c-0.093-0.091-0.14-0.205-0.14-0.341     c0-0.086,0.017-0.166,0.05-0.238c0.034-0.073,0.103-0.16,0.208-0.263s0.169-0.176,0.192-0.222s0.034-0.093,0.034-0.144     c0-0.095-0.044-0.175-0.131-0.238c-0.133-0.091-0.32-0.137-0.563-0.137c-0.449,0-0.894,0.157-1.333,0.471     s-0.816,0.76-1.127,1.338c-0.376,0.701-0.563,1.402-0.563,2.104c0,0.464,0.133,0.832,0.398,1.103     c0.266,0.271,0.628,0.406,1.087,0.406c0.353,0,0.702-0.088,1.048-0.263c0.347-0.175,0.735-0.493,1.166-0.954L126.122,137.674z"/>
			<path d="M130.7,131.292l-0.553,1.844h0.941l-0.109,0.438h-0.963l-1.241,4.03c-0.156,0.458-0.234,0.755-0.234,0.891     c0,0.073,0.016,0.128,0.048,0.167c0.032,0.039,0.071,0.058,0.115,0.058c0.101,0,0.235-0.075,0.401-0.225     c0.097-0.091,0.313-0.372,0.649-0.841l0.225,0.171c-0.395,0.601-0.769,1.019-1.121,1.255c-0.241,0.163-0.483,0.244-0.729,0.244     c-0.189,0-0.344-0.062-0.464-0.186c-0.121-0.124-0.181-0.283-0.181-0.477c0-0.246,0.076-0.622,0.229-1.128l1.199-3.959h-1.043     l0.068-0.271c0.501-0.139,0.926-0.343,1.276-0.612c0.349-0.27,0.744-0.736,1.185-1.398H130.7z"/>
		</g>
		<g>
			<path d="M24.822,137.87l0.75-7.71c0.037-0.391,0.055-0.655,0.055-0.792c0-0.205-0.077-0.375-0.229-0.512     c-0.153-0.137-0.393-0.205-0.721-0.205H24.43l0.068-0.25h3.658l-0.075,0.25c-0.396,0.005-0.669,0.046-0.817,0.123     c-0.148,0.077-0.266,0.209-0.352,0.396c-0.045,0.101-0.093,0.385-0.144,0.854l-0.538,5.534l3.627-4.934     c0.392-0.534,0.638-0.906,0.738-1.116c0.068-0.142,0.103-0.265,0.103-0.37c0-0.123-0.052-0.23-0.157-0.322     c-0.104-0.091-0.301-0.146-0.588-0.164l0.082-0.25h2.775l-0.068,0.25c-0.223,0.019-0.4,0.062-0.532,0.13     c-0.25,0.118-0.499,0.298-0.747,0.54s-0.641,0.728-1.178,1.461l-5.214,7.088H24.822z"/>
			<path d="M33.606,131.448l-1.438,4.849c-0.097,0.327-0.146,0.523-0.146,0.588c0,0.07,0.02,0.127,0.059,0.171     s0.086,0.065,0.14,0.065c0.062,0,0.137-0.035,0.224-0.105c0.236-0.202,0.474-0.491,0.714-0.87l0.239,0.157     c-0.294,0.471-0.641,0.861-1.039,1.172c-0.294,0.231-0.575,0.348-0.844,0.348c-0.178,0-0.323-0.055-0.436-0.165     c-0.112-0.11-0.168-0.249-0.168-0.415c0-0.17,0.061-0.453,0.183-0.848l0.952-3.088c0.146-0.511,0.219-0.832,0.219-0.962     c0-0.102-0.036-0.186-0.106-0.25c-0.071-0.064-0.167-0.097-0.29-0.097c-0.1,0-0.307,0.025-0.62,0.075v-0.25L33.606,131.448z      M33.305,128.745c0.192,0,0.355,0.066,0.488,0.199s0.199,0.296,0.199,0.488c0,0.188-0.067,0.35-0.203,0.485     s-0.296,0.203-0.485,0.203c-0.188,0-0.35-0.067-0.484-0.203c-0.136-0.135-0.203-0.297-0.203-0.485     c0-0.192,0.066-0.355,0.199-0.488S33.112,128.745,33.305,128.745z"/>
			<path d="M34.808,131.854l2.318-0.375l-0.955,3.323c0.802-1.363,1.531-2.315,2.187-2.858c0.371-0.31,0.674-0.465,0.908-0.465     c0.151,0,0.271,0.044,0.358,0.133c0.087,0.089,0.13,0.217,0.13,0.386c0,0.301-0.078,0.587-0.232,0.86     c-0.109,0.205-0.267,0.308-0.472,0.308c-0.104,0-0.194-0.034-0.27-0.102s-0.122-0.172-0.14-0.314     c-0.009-0.086-0.03-0.143-0.062-0.17c-0.037-0.036-0.08-0.055-0.129-0.055c-0.078,0-0.15,0.019-0.219,0.055     c-0.119,0.064-0.298,0.242-0.54,0.533c-0.378,0.447-0.788,1.026-1.229,1.737c-0.191,0.301-0.355,0.641-0.492,1.02     c-0.191,0.52-0.301,0.832-0.328,0.937l-0.22,0.859h-1.043l1.226-4.25c0.146-0.495,0.219-0.848,0.219-1.059     c0-0.082-0.034-0.15-0.103-0.206c-0.09-0.073-0.207-0.109-0.347-0.109c-0.09,0-0.255,0.021-0.495,0.062L34.808,131.854z"/>
			<path d="M43.309,129.792l-0.553,1.844h0.941l-0.109,0.438h-0.963l-1.241,4.03c-0.156,0.458-0.234,0.755-0.234,0.891     c0,0.073,0.017,0.128,0.049,0.167s0.071,0.058,0.115,0.058c0.101,0,0.234-0.075,0.4-0.225c0.097-0.091,0.313-0.372,0.649-0.841     l0.226,0.171c-0.396,0.601-0.77,1.019-1.122,1.255c-0.241,0.163-0.484,0.244-0.729,0.244c-0.189,0-0.344-0.062-0.464-0.186     c-0.12-0.124-0.18-0.283-0.18-0.477c0-0.246,0.077-0.622,0.23-1.128l1.198-3.959h-1.043l0.068-0.271     c0.501-0.139,0.927-0.343,1.276-0.612c0.349-0.27,0.744-0.736,1.185-1.398H43.309z"/>
			<path d="M50.172,131.635l-1.249,4.143c-0.187,0.616-0.28,1.005-0.28,1.167c0,0.075,0.011,0.13,0.034,0.165     c0.023,0.035,0.054,0.053,0.092,0.053c0.059,0,0.125-0.032,0.197-0.096s0.253-0.342,0.543-0.833l0.205,0.157     c-0.315,0.552-0.64,0.95-0.971,1.195c-0.22,0.157-0.432,0.236-0.635,0.236c-0.156,0-0.28-0.05-0.372-0.149     s-0.137-0.229-0.137-0.387c0-0.154,0.029-0.358,0.089-0.611c0.079-0.313,0.295-1.035,0.647-2.165     c-0.806,1.268-1.479,2.137-2.021,2.607c-0.542,0.47-1.041,0.705-1.498,0.705c-0.215,0-0.397-0.072-0.547-0.217     c-0.149-0.144-0.224-0.327-0.224-0.548c0-0.342,0.12-0.866,0.36-1.572l0.712-2.113c0.175-0.506,0.262-0.82,0.262-0.943     c0-0.055-0.023-0.101-0.07-0.14c-0.046-0.039-0.097-0.059-0.151-0.059c-0.114,0-0.229,0.034-0.344,0.103     c-0.114,0.068-0.373,0.321-0.777,0.759l-0.212-0.15c0.372-0.528,0.766-0.918,1.182-1.169c0.317-0.196,0.61-0.294,0.878-0.294     c0.183,0,0.333,0.064,0.45,0.194s0.175,0.295,0.175,0.499c0,0.243-0.106,0.677-0.319,1.303l-0.749,2.18     c-0.207,0.594-0.311,0.97-0.311,1.127c0,0.087,0.03,0.156,0.088,0.209c0.06,0.052,0.139,0.078,0.238,0.078     c0.156,0,0.359-0.075,0.61-0.226s0.585-0.485,1.004-1.004s0.764-1.005,1.036-1.46c0.272-0.455,0.56-1.178,0.863-2.17l0.166-0.573     H50.172z"/>
			<path d="M57.367,131.573l-1.331,4.648l-0.157,0.62c-0.016,0.055-0.023,0.102-0.023,0.14c0,0.065,0.017,0.122,0.05,0.17     c0.026,0.037,0.06,0.055,0.099,0.055c0.043,0,0.099-0.033,0.168-0.098c0.128-0.122,0.3-0.39,0.515-0.805l0.232,0.164     c-0.268,0.459-0.544,0.8-0.828,1.022c-0.283,0.221-0.546,0.332-0.786,0.332c-0.167,0-0.296-0.049-0.387-0.146     c-0.091-0.097-0.136-0.239-0.136-0.425c0-0.222,0.05-0.514,0.15-0.877l0.151-0.515c-0.658,0.777-1.265,1.32-1.817,1.629     c-0.397,0.223-0.787,0.334-1.169,0.334c-0.367,0-0.684-0.136-0.95-0.407c-0.267-0.271-0.4-0.645-0.4-1.12     c0-0.713,0.236-1.465,0.708-2.257s1.072-1.425,1.8-1.9c0.569-0.377,1.105-0.565,1.61-0.565c0.302,0,0.553,0.067,0.753,0.201     s0.353,0.355,0.457,0.665l0.221-0.694L57.367,131.573z M54.835,131.917c-0.318,0-0.656,0.134-1.014,0.403     c-0.507,0.38-0.958,0.945-1.354,1.692c-0.396,0.748-0.593,1.424-0.593,2.027c0,0.305,0.088,0.545,0.264,0.722     c0.176,0.177,0.378,0.265,0.605,0.265c0.564,0,1.178-0.36,1.841-1.081c0.806-0.958,1.195-1.94,1.169-2.947     c0-0.38-0.082-0.656-0.246-0.826C55.343,132.001,55.119,131.917,54.835,131.917z"/>
			<path d="M61.676,127.948l-2.415,8.163c-0.117,0.407-0.176,0.657-0.176,0.748c0,0.068,0.019,0.125,0.058,0.171     c0.039,0.046,0.086,0.068,0.144,0.068c0.077,0,0.161-0.039,0.251-0.116c0.212-0.191,0.434-0.492,0.666-0.901l0.203,0.211     c-0.411,0.608-0.789,1.032-1.136,1.272c-0.255,0.173-0.497,0.259-0.727,0.259c-0.165,0-0.302-0.059-0.412-0.175     s-0.166-0.252-0.166-0.405c0-0.164,0.076-0.502,0.227-1.014l1.917-6.422c0.15-0.525,0.226-0.827,0.226-0.905     c0-0.109-0.043-0.2-0.13-0.271c-0.087-0.071-0.223-0.106-0.407-0.106c-0.106,0-0.268,0.016-0.485,0.048v-0.25L61.676,127.948z"/>
			<path d="M28.302,141.948l-1.438,4.849c-0.097,0.327-0.146,0.523-0.146,0.588c0,0.07,0.02,0.127,0.059,0.171     s0.086,0.065,0.14,0.065c0.062,0,0.137-0.035,0.224-0.105c0.236-0.202,0.474-0.491,0.714-0.87l0.239,0.157     c-0.294,0.471-0.641,0.861-1.039,1.172c-0.294,0.231-0.575,0.348-0.844,0.348c-0.178,0-0.323-0.055-0.436-0.165     c-0.112-0.11-0.168-0.249-0.168-0.415c0-0.17,0.061-0.453,0.183-0.848l0.952-3.088c0.146-0.511,0.219-0.832,0.219-0.962     c0-0.102-0.036-0.186-0.106-0.25c-0.071-0.064-0.167-0.097-0.29-0.097c-0.1,0-0.307,0.025-0.62,0.075v-0.25L28.302,141.948z      M28,139.245c0.192,0,0.355,0.066,0.488,0.199s0.199,0.296,0.199,0.488c0,0.188-0.067,0.35-0.203,0.485S28.188,140.62,28,140.62     c-0.188,0-0.35-0.067-0.484-0.203c-0.136-0.135-0.203-0.297-0.203-0.485c0-0.192,0.066-0.355,0.199-0.488     S27.808,139.245,28,139.245z"/>
			<path d="M31.82,141.979l-0.888,3.095c0.404-0.728,0.748-1.274,1.031-1.64c0.441-0.567,0.871-0.979,1.289-1.235     c0.246-0.146,0.504-0.22,0.773-0.22c0.232,0,0.425,0.076,0.578,0.228s0.23,0.346,0.23,0.583c0,0.221-0.056,0.509-0.169,0.865     l-0.522,1.716c0.785-1.39,1.529-2.366,2.233-2.926c0.39-0.31,0.775-0.465,1.156-0.465c0.222,0,0.403,0.079,0.545,0.235     s0.213,0.399,0.213,0.728c0,0.262-0.047,0.539-0.14,0.832l-0.854,2.631c-0.187,0.573-0.279,0.891-0.279,0.954     c0,0.062,0.018,0.114,0.055,0.157c0.024,0.031,0.057,0.046,0.098,0.046c0.04,0,0.111-0.041,0.213-0.125     c0.231-0.198,0.449-0.461,0.652-0.79l0.226,0.144c-0.109,0.183-0.302,0.429-0.579,0.738c-0.277,0.311-0.513,0.52-0.709,0.629     s-0.378,0.164-0.543,0.164c-0.153,0-0.28-0.054-0.383-0.162s-0.154-0.241-0.154-0.398c0-0.219,0.108-0.659,0.324-1.32l0.72-2.195     c0.164-0.506,0.25-0.787,0.261-0.841c0.016-0.086,0.023-0.171,0.023-0.253c0-0.114-0.027-0.203-0.081-0.267     c-0.06-0.063-0.126-0.096-0.2-0.096c-0.207,0-0.426,0.098-0.658,0.294c-0.68,0.579-1.315,1.391-1.907,2.435     c-0.389,0.688-0.754,1.571-1.094,2.646h-1.037l1.247-4.122c0.136-0.445,0.204-0.743,0.204-0.892c0-0.123-0.025-0.214-0.076-0.272     c-0.052-0.06-0.114-0.089-0.188-0.089c-0.153,0-0.315,0.055-0.487,0.164c-0.279,0.177-0.638,0.556-1.076,1.138     c-0.439,0.582-0.779,1.138-1.021,1.669c-0.116,0.25-0.393,1.051-0.829,2.405h-1.007l1.276-4.426l0.166-0.574     c0.031-0.087,0.048-0.15,0.048-0.192c0-0.1-0.046-0.19-0.139-0.27c-0.092-0.08-0.209-0.12-0.353-0.12     c-0.06,0-0.227,0.027-0.499,0.082l-0.042-0.25L31.82,141.979z"/>
			<path d="M45.835,142.073l-1.331,4.648l-0.157,0.62c-0.016,0.055-0.023,0.102-0.023,0.14c0,0.065,0.017,0.122,0.05,0.17     c0.026,0.037,0.06,0.055,0.099,0.055c0.043,0,0.099-0.033,0.168-0.098c0.128-0.122,0.3-0.39,0.515-0.805l0.232,0.164     c-0.268,0.459-0.544,0.8-0.828,1.022c-0.283,0.221-0.546,0.332-0.786,0.332c-0.167,0-0.296-0.049-0.387-0.146     c-0.091-0.097-0.136-0.239-0.136-0.425c0-0.222,0.05-0.514,0.15-0.877l0.151-0.515c-0.658,0.777-1.265,1.32-1.817,1.629     c-0.397,0.223-0.787,0.334-1.169,0.334c-0.367,0-0.684-0.136-0.95-0.407c-0.267-0.271-0.4-0.645-0.4-1.12     c0-0.713,0.236-1.465,0.708-2.257s1.072-1.425,1.8-1.9c0.569-0.377,1.105-0.565,1.61-0.565c0.302,0,0.553,0.067,0.753,0.201     s0.353,0.355,0.457,0.665l0.221-0.694L45.835,142.073z M43.303,142.417c-0.318,0-0.656,0.134-1.014,0.403     c-0.507,0.38-0.958,0.945-1.354,1.692c-0.396,0.748-0.593,1.424-0.593,2.027c0,0.305,0.088,0.545,0.264,0.722     c0.176,0.177,0.378,0.265,0.605,0.265c0.564,0,1.178-0.36,1.841-1.081c0.806-0.958,1.195-1.94,1.169-2.947     c0-0.38-0.082-0.656-0.246-0.826C43.811,142.501,43.586,142.417,43.303,142.417z"/>
			<path d="M53.196,142.401l-0.198,0.703h-1.141c0.083,0.248,0.125,0.479,0.125,0.694c0,0.605-0.257,1.144-0.773,1.616     c-0.52,0.472-1.232,0.733-2.139,0.784c-0.473,0.146-0.828,0.32-1.064,0.522c-0.089,0.073-0.134,0.148-0.134,0.227     c0,0.092,0.041,0.175,0.122,0.251c0.081,0.075,0.285,0.152,0.613,0.229l1.337,0.309c0.74,0.173,1.226,0.378,1.46,0.615     c0.228,0.241,0.342,0.519,0.342,0.833c0,0.373-0.138,0.714-0.414,1.024c-0.276,0.309-0.68,0.551-1.211,0.727     c-0.531,0.175-1.119,0.263-1.762,0.263c-0.566,0-1.082-0.067-1.547-0.202c-0.465-0.135-0.799-0.316-0.999-0.544     c-0.201-0.228-0.301-0.463-0.301-0.705c0-0.196,0.065-0.4,0.196-0.612s0.294-0.386,0.49-0.523     c0.124-0.087,0.474-0.292,1.051-0.616c-0.21-0.164-0.315-0.344-0.315-0.54c0-0.183,0.089-0.376,0.267-0.582     c0.178-0.205,0.555-0.431,1.131-0.677c-0.486-0.096-0.872-0.306-1.157-0.63c-0.286-0.324-0.428-0.685-0.428-1.082     c0-0.648,0.285-1.229,0.856-1.74c0.57-0.511,1.33-0.767,2.278-0.767c0.344,0,0.625,0.034,0.845,0.102s0.433,0.175,0.639,0.32     H53.196z M47.544,148.174c-0.37,0.169-0.65,0.386-0.84,0.65c-0.19,0.265-0.285,0.525-0.285,0.78c0,0.302,0.137,0.55,0.412,0.747     c0.394,0.283,0.97,0.424,1.729,0.424c0.654,0,1.214-0.111,1.678-0.332c0.465-0.222,0.697-0.508,0.697-0.859     c0-0.179-0.086-0.348-0.257-0.507c-0.172-0.16-0.505-0.29-0.999-0.39C49.409,148.633,48.697,148.461,47.544,148.174z      M50.857,143.49c0-0.361-0.105-0.646-0.315-0.854s-0.486-0.313-0.826-0.313c-0.534,0-0.975,0.257-1.322,0.771     c-0.348,0.513-0.521,1.048-0.521,1.604c0,0.349,0.111,0.633,0.333,0.855s0.492,0.333,0.808,0.333     c0.251,0,0.493-0.065,0.727-0.197c0.234-0.131,0.432-0.312,0.592-0.542c0.161-0.231,0.289-0.525,0.383-0.883     C50.81,143.906,50.857,143.648,50.857,143.49z"/>
			<path d="M54.498,145.573c-0.031,0.227-0.047,0.414-0.047,0.563c0,0.402,0.146,0.745,0.439,1.028     c0.292,0.282,0.647,0.424,1.065,0.424c0.335,0,0.656-0.066,0.965-0.2c0.309-0.134,0.768-0.43,1.376-0.887l0.143,0.198     c-1.083,1.083-2.115,1.624-3.098,1.624c-0.667,0-1.17-0.209-1.508-0.628c-0.338-0.419-0.507-0.881-0.507-1.387     c0-0.678,0.21-1.372,0.63-2.083c0.42-0.71,0.947-1.262,1.582-1.656c0.634-0.394,1.287-0.591,1.958-0.591     c0.484,0,0.842,0.098,1.075,0.293c0.232,0.195,0.349,0.426,0.349,0.694c0,0.376-0.153,0.738-0.458,1.083     c-0.402,0.449-0.995,0.812-1.777,1.089C56.166,145.323,55.437,145.468,54.498,145.573z M54.546,145.245     c0.69-0.077,1.251-0.209,1.685-0.395c0.573-0.25,1.003-0.548,1.29-0.896c0.287-0.347,0.43-0.678,0.43-0.991     c0-0.19-0.062-0.345-0.185-0.463c-0.124-0.118-0.3-0.177-0.528-0.177c-0.475,0-0.979,0.246-1.513,0.739     C55.19,143.554,54.798,144.282,54.546,145.245z"/>
		</g>
		<path fill="none" stroke="#FF0000" stroke-dasharray="3 3" d="M42.148,11.321l145.458,68.361"/>
		<path fill="none" stroke="#FF0000" d="M174.792,124.417l59.529,50.756"/>
		<path fill="none" stroke="#FF0000" d="M234.321,175.173l59.529,50.756"/>
		<path fill="none" stroke="#FF0000" d="M282.792,124.417l55.514,26.089"/>
	</g>
</svg>