<?xml version="1.0" encoding="UTF-8" standalone="no"?>
<svg
   xmlns:ns0="http://www.iki.fi/pav/software/textext/"
   xmlns:dc="http://purl.org/dc/elements/1.1/"
   xmlns:cc="http://creativecommons.org/ns#"
   xmlns:rdf="http://www.w3.org/1999/02/22-rdf-syntax-ns#"
   xmlns:svg="http://www.w3.org/2000/svg"
   xmlns="http://www.w3.org/2000/svg"
   xmlns:sodipodi="http://sodipodi.sourceforge.net/DTD/sodipodi-0.dtd"
   xmlns:inkscape="http://www.inkscape.org/namespaces/inkscape"
   width="87.263496mm"
   height="48.776691mm"
   viewBox="0 0 87.263496 48.776691"
   version="1.1"
   id="svg8"
   inkscape:version="1.0 (4035a4fb49, 2020-05-01)"
   sodipodi:docname="eq-caps.svg">
  <sodipodi:namedview
     inkscape:document-rotation="0"
     fit-margin-bottom="0"
     fit-margin-right="0"
     fit-margin-left="0"
     fit-margin-top="0"
     id="base"
     pagecolor="#ffffff"
     bordercolor="#666666"
     borderopacity="1.0"
     inkscape:pageopacity="0.0"
     inkscape:pageshadow="2"
     inkscape:zoom="1.979899"
     inkscape:cx="145.06339"
     inkscape:cy="73.313415"
     inkscape:document-units="mm"
     inkscape:current-layer="svg8"
     showgrid="false"
     inkscape:window-width="1368"
     inkscape:window-height="842"
     inkscape:window-x="-6"
     inkscape:window-y="-6"
     inkscape:window-maximized="1" />
  <defs
     id="defs2" />
  <metadata
     id="metadata5">
    <rdf:RDF>
      <cc:Work
         rdf:about="">
        <dc:format>image/svg+xml</dc:format>
        <dc:type
           rdf:resource="http://purl.org/dc/dcmitype/StillImage" />
        <dc:title />
      </cc:Work>
    </rdf:RDF>
  </metadata>
  <g
     id="layer1"
     inkscape:groupmode="layer"
     inkscape:label="Layer 1"
     transform="translate(0.38163475,-97.424805)" />
  <g
     inkscape:label="Source"
     id="g897"
     transform="matrix(0,-0.59989269,0.59989269,0,-77.649339,35.328728)">
    <g
       inkscape:label="Source"
       id="g892">
      <path
         d="M -20,150 H 4"
         style="fill:none;stroke:#000000;stroke-width:1;stroke-linecap:round;stroke-linejoin:round;stroke-dasharray:none"
         inkscape:label="none"
         id="path878"
         inkscape:connector-curvature="0" />
      <path
         d="M 30,150 H 7"
         style="fill:none;stroke:#000000;stroke-width:1;stroke-linecap:round;stroke-linejoin:round;stroke-dasharray:none"
         inkscape:label="none"
         id="path880"
         inkscape:connector-curvature="0" />
      <path
         d="M 11,146 H 9"
         style="fill:none;stroke:#000000;stroke-width:0.6;stroke-linecap:round;stroke-linejoin:round;stroke-dasharray:none"
         inkscape:label="none"
         id="path882"
         inkscape:connector-curvature="0" />
      <path
         d="m 10,145 v 2"
         style="fill:none;stroke:#000000;stroke-width:0.6;stroke-linecap:round;stroke-linejoin:round;stroke-dasharray:none"
         inkscape:label="none"
         id="path884"
         inkscape:connector-curvature="0" />
      <path
         d="m 1,145 v 2"
         style="fill:none;stroke:#000000;stroke-width:0.6;stroke-linecap:round;stroke-linejoin:round;stroke-dasharray:none"
         inkscape:label="none"
         id="path886"
         inkscape:connector-curvature="0" />
      <path
         d="m 4,153 v -6"
         style="fill:none;stroke:#000000;stroke-width:1;stroke-linecap:round;stroke-linejoin:round;stroke-dasharray:none"
         inkscape:label="none"
         id="path888"
         inkscape:connector-curvature="0" />
      <path
         d="M 7,157 V 143"
         style="fill:none;stroke:#000000;stroke-width:1;stroke-linecap:round;stroke-linejoin:round;stroke-dasharray:none"
         inkscape:label="none"
         id="path890"
         inkscape:connector-curvature="0" />
    </g>
    <g
       id="content"
       xml:space="preserve"
       stroke-miterlimit="10.433"
       font-style="normal"
       font-variant="normal"
       font-weight="normal"
       font-stretch="normal"
       font-size-adjust="none"
       letter-spacing="normal"
       word-spacing="normal"
       ns0:text=" $V$"
       ns0:preamble="/home/mpnerem/.config/inkscape/extensions/textextLib/CircuitSymbolsLatexPreamble.tex"
       transform="matrix(0.739645,0,0,-0.739645,-163.30252,624.62823)"
       style="font-style:normal;font-variant:normal;font-weight:normal;font-stretch:normal;letter-spacing:normal;word-spacing:normal;text-anchor:start;fill:none;fill-opacity:1;fill-rule:evenodd;stroke:#000000;stroke-linecap:butt;stroke-linejoin:miter;stroke-miterlimit:10.433;stroke-dasharray:none;stroke-dashoffset:0;stroke-opacity:1">
<path
   d="m 229.915,658.365 0.07,-0.04 0.06,-0.05 0.07,-0.04 0.05,-0.04 0.06,-0.05 0.05,-0.04 0.05,-0.05 0.04,-0.04 0.04,-0.04 0.04,-0.04 0.03,-0.04 0.03,-0.05 0.03,-0.04 0.03,-0.04 0.02,-0.04 0.02,-0.04 0.02,-0.04 0.02,-0.04 0.01,-0.04 0.02,-0.03 0.01,-0.04 0.01,-0.04 0.01,-0.04 v -0.03 l 0.01,-0.04 v -0.04 l 0.01,-0.07 0.01,-0.07 v -0.07 c 0.01,-0.12 0.18,-0.13 0.19,-0.13 0.08,0 0.12,0.05 0.12,0.13 0,0.26 -0.03,0.55 -0.03,0.82 0,0.33 0.03,0.66 0.03,0.98 0,0.06 0,0.19 -0.19,0.19 -0.11,0 -0.12,-0.09 -0.12,-0.16 -0.02,-0.26 -0.12,-0.46 -0.33,-0.46 -0.15,0 -0.36,0.15 -0.37,0.15 l -4.85,3.07 5.25,0.67 c 0.17,0 0.3,-0.22 0.3,-0.68 0,-0.14 0,-0.25 0.2,-0.25 0.09,0 0.11,0.08 0.11,0.14 0,0.4 -0.03,0.82 -0.03,1.23 0,0.18 0.01,0.37 0.01,0.55 0,0.18 0.02,0.37 0.02,0.54 0,0.07 0,0.19 -0.19,0.19 -0.12,0 -0.12,-0.09 -0.12,-0.25 0,-0.56 -0.09,-0.57 -0.34,-0.6 l -6.13,-0.79 c -0.19,-0.03 -0.22,-0.07 -0.22,-0.19 0,-0.17 0.05,-0.2 0.18,-0.28 z"
   style="fill:#000000;stroke-width:0"
   id="path894"
   inkscape:connector-curvature="0" />
</g>
  </g>
  <path
     id="path929"
     inkscape:label="none"
     style="fill:none;stroke:#000000;stroke-width:0.599893;stroke-linecap:round;stroke-linejoin:round;stroke-dasharray:none"
     d="m 22.917898,12.04028 h 5.645811"
     inkscape:connector-curvature="0"
     sodipodi:nodetypes="cc" />
  <path
     id="path931"
     inkscape:label="none"
     style="fill:none;stroke:#000000;stroke-width:0.599893;stroke-linecap:round;stroke-linejoin:round;stroke-dasharray:none"
     d="M 52.912533,12.04028 H 47.400356"
     inkscape:connector-curvature="0"
     sodipodi:nodetypes="cc" />
  <g
     style="font-style:normal;font-variant:normal;font-weight:normal;font-stretch:normal;letter-spacing:normal;word-spacing:normal;text-anchor:start;fill:none;fill-opacity:1;fill-rule:evenodd;stroke:#000000;stroke-linecap:butt;stroke-linejoin:miter;stroke-miterlimit:10.433;stroke-dasharray:none;stroke-dashoffset:0;stroke-opacity:1"
     id="g943"
     xml:space="preserve"
     stroke-miterlimit="10.433"
     font-style="normal"
     font-variant="normal"
     font-weight="normal"
     font-stretch="normal"
     font-size-adjust="none"
     letter-spacing="normal"
     word-spacing="normal"
     ns0:text=" $C_1$"
     ns0:preamble="/home/mpnerem/.config/inkscape/extensions/textextLib/CircuitSymbolsLatexPreamble.tex"
     transform="matrix(0.44370763,0,0,-0.44370763,-71.745794,296.19834)">
<path
   inkscape:connector-curvature="0"
   d="m 231.01,664.14 v 0 0.01 0 0 0.01 0 0 0.01 0 l -0.01,0.01 v 0 0 0.01 0 l -0.01,0.01 v 0 0 l -0.01,0.01 v 0 0 l -0.01,0.01 v 0 h -0.01 v 0.01 h -0.01 v 0 h -0.01 v 0 0 h -0.01 v 0 0.01 h -0.01 v 0 0 h -0.01 v 0 0 h -0.01 c -0.03,0 -0.04,-0.01 -0.15,-0.12 l -0.7,-0.77 c -0.09,0.14 -0.54,0.89 -1.65,0.89 -2.23,0 -4.47,-2.2 -4.47,-4.5 0,-1.64 1.18,-2.72 2.7,-2.72 0.87,0 1.63,0.39 2.16,0.85 0.92,0.81 1.09,1.72 1.09,1.75 0,0.1 -0.1,0.1 -0.12,0.1 -0.06,0 -0.11,-0.02 -0.13,-0.1 -0.09,-0.29 -0.31,-0.99 -1,-1.57 -0.69,-0.56 -1.32,-0.73 -1.84,-0.73 -0.89,0 -1.95,0.52 -1.95,2.07 0,0.57 0.21,2.18 1.2,3.34 0.61,0.7 1.55,1.2 2.44,1.2 1.01,0 1.6,-0.77 1.6,-1.92 0,-0.39 -0.03,-0.4 -0.03,-0.5 0,-0.1 0.11,-0.1 0.15,-0.1 0.13,0 0.13,0.02 0.18,0.2 z"
   style="fill:#000000;stroke-width:0"
   id="path939" />
<path
   inkscape:connector-curvature="0"
   d="m 232.9,660.16 -0.01,0.01 v 0.01 0.01 0.01 0 0.01 0.01 0.01 0 0.01 0.01 0 0.01 0 0.01 0 0.01 0 0.01 l -0.01,0.01 v 0.01 0 l -0.01,0.01 v 0.01 h -0.01 v 0.01 h -0.01 v 0 l -0.01,0.01 h -0.01 -0.01 -0.01 v 0 h -0.01 v 0 l -0.01,0.01 h -0.01 v 0 h -0.01 -0.01 v 0 h -0.01 -0.01 v 0 h -0.01 -0.01 -0.01 -0.01 v 0 h -0.01 c -0.45,-0.44 -1.09,-0.45 -1.37,-0.45 v -0.25 c 0.16,0 0.62,0 1.01,0.2 v -3.55 c 0,-0.23 0,-0.32 -0.7,-0.32 h -0.27 v -0.25 c 0.13,0.01 0.99,0.03 1.25,0.03 0.21,0 1.1,-0.02 1.25,-0.03 v 0.25 h -0.26 c -0.7,0 -0.7,0.09 -0.7,0.32 z"
   style="fill:#000000;stroke-width:0"
   id="path941" />
</g>
  <g
     id="g1021"
     inkscape:label="Capacitor"
     transform="matrix(0.59989269,0,0,-0.59989269,34.915751,113.66585)">
    <path
       id="path1013"
       inkscape:label="none"
       style="fill:none;stroke:#000000;stroke-width:1;stroke-linecap:round;stroke-linejoin:round;stroke-dasharray:none"
       d="M -20,150 H 3"
       inkscape:connector-curvature="0" />
    <path
       id="path1015"
       inkscape:label="none"
       style="fill:none;stroke:#000000;stroke-width:1;stroke-linecap:round;stroke-linejoin:round;stroke-dasharray:none"
       d="M 30,150 H 7"
       inkscape:connector-curvature="0" />
    <path
       id="path1017"
       inkscape:label="none"
       style="fill:none;stroke:#000000;stroke-width:1;stroke-linecap:round;stroke-linejoin:round;stroke-dasharray:none"
       d="M 3,157 V 143"
       inkscape:connector-curvature="0" />
    <path
       id="path1019"
       inkscape:label="none"
       style="fill:none;stroke:#000000;stroke-width:1;stroke-linecap:round;stroke-linejoin:round;stroke-dasharray:none"
       d="M 7,157 V 143"
       inkscape:connector-curvature="0" />
  </g>
  <g
     transform="matrix(0.59989269,0,0,0.59989269,16.923214,-60.654102)"
     inkscape:label="Capacitor"
     id="g1105">
    <path
       inkscape:connector-curvature="0"
       d="M 60,130 H 83"
       style="fill:none;stroke:#000000;stroke-width:1;stroke-linecap:round;stroke-linejoin:round;stroke-dasharray:none"
       inkscape:label="none"
       id="path1097" />
    <path
       inkscape:connector-curvature="0"
       d="M 110,130 H 87"
       style="fill:none;stroke:#000000;stroke-width:1;stroke-linecap:round;stroke-linejoin:round;stroke-dasharray:none"
       inkscape:label="none"
       id="path1099" />
    <path
       inkscape:connector-curvature="0"
       d="M 83,137 V 123"
       style="fill:none;stroke:#000000;stroke-width:1;stroke-linecap:round;stroke-linejoin:round;stroke-dasharray:none"
       inkscape:label="none"
       id="path1101" />
    <path
       inkscape:connector-curvature="0"
       d="M 87,137 V 123"
       style="fill:none;stroke:#000000;stroke-width:1;stroke-linecap:round;stroke-linejoin:round;stroke-dasharray:none"
       inkscape:label="none"
       id="path1103" />
  </g>
  <path
     sodipodi:nodetypes="cc"
     inkscape:connector-curvature="0"
     id="path1385"
     inkscape:label="none"
     style="fill:none;stroke:#000000;stroke-width:0.599893;stroke-linecap:round;stroke-linejoin:round;stroke-dasharray:none"
     d="m 12.334563,47.326578 71.181041,-0.01059" />
  <path
     sodipodi:nodetypes="cc"
     inkscape:connector-curvature="0"
     id="path1387"
     inkscape:label="none"
     style="fill:none;stroke:#000000;stroke-width:0.599893;stroke-linecap:round;stroke-linejoin:round;stroke-dasharray:none"
     d="m 83.515604,17.331948 v 29.98404" />
  <path
     d="M 52.912533,12.04028 V 23.642363"
     style="fill:none;stroke:#000000;stroke-width:0.599893;stroke-linecap:round;stroke-linejoin:round;stroke-dasharray:none"
     inkscape:label="none"
     id="path1823"
     inkscape:connector-curvature="0"
     sodipodi:nodetypes="cc" />
  <path
     sodipodi:nodetypes="cc"
     inkscape:connector-curvature="0"
     id="path1825"
     inkscape:label="none"
     style="fill:none;stroke:#000000;stroke-width:0.599893;stroke-linecap:round;stroke-linejoin:round;stroke-dasharray:none"
     d="M 22.917898,12.04028 V 23.642363" />
  <path
     d="M 22.867569,17.331947 H 12.334564"
     style="fill:none;stroke:#000000;stroke-width:0.599893;stroke-linecap:round;stroke-linejoin:round;stroke-dasharray:none"
     inkscape:label="none"
     id="path1827"
     inkscape:connector-curvature="0"
     sodipodi:nodetypes="cc" />
  <g
     id="g1875"
     inkscape:label="Capacitor"
     transform="matrix(0.59989269,0,0,0.59989269,26.817201,-77.943624)">
    <path
       id="path1871"
       inkscape:label="none"
       style="fill:none;stroke:#000000;stroke-width:1;stroke-linecap:round;stroke-linejoin:round;stroke-dasharray:none"
       d="M 3,157 V 143"
       inkscape:connector-curvature="0" />
    <path
       id="path1873"
       inkscape:label="none"
       style="fill:none;stroke:#000000;stroke-width:1;stroke-linecap:round;stroke-linejoin:round;stroke-dasharray:none"
       d="M 7,157 V 143"
       inkscape:connector-curvature="0" />
  </g>
  <g
     transform="matrix(0.59989269,0,0,0.59989269,43.014304,-77.943624)"
     inkscape:label="Capacitor"
     id="g1925">
    <path
       inkscape:connector-curvature="0"
       d="M 3,157 V 143"
       style="fill:none;stroke:#000000;stroke-width:1;stroke-linecap:round;stroke-linejoin:round;stroke-dasharray:none"
       inkscape:label="none"
       id="path1921" />
    <path
       inkscape:connector-curvature="0"
       d="M 7,157 V 143"
       style="fill:none;stroke:#000000;stroke-width:1;stroke-linecap:round;stroke-linejoin:round;stroke-dasharray:none"
       inkscape:label="none"
       id="path1923" />
  </g>
  <path
     sodipodi:nodetypes="cc"
     inkscape:connector-curvature="0"
     d="M 44.627178,12.04028 H 31.096915"
     style="fill:none;stroke:#000000;stroke-width:0.599893;stroke-linecap:round;stroke-linejoin:round;stroke-dasharray:none"
     inkscape:label="none"
     id="path1927" />
  <g
     transform="matrix(0.443708,0,0,0.443708,-23.923286,-26.232553)"
     ns0:version="0.11.0"
     ns0:texconverter="pdflatex"
     ns0:pdfconverter="pdf2svg"
     ns0:text=" $C_3$"
     ns0:preamble="/home/mpnerem/.config/inkscape/extensions/textext/default_packages.tex"
     ns0:scale="2.83464566935"
     ns0:alignment="middle center"
     inkscapeversion="0.92.3"
     ns0:jacobian_sqrt="0.443708"
     style="fill-opacity:1;stroke:#000000;stroke-opacity:1"
     id="g2010">
    <g
       id="surface1"
       style="fill-opacity:1;stroke:#000000;stroke-opacity:1">
      <g
         style="fill:#000000;fill-opacity:1;stroke:#000000;stroke-opacity:1"
         id="g2003">
        <path
           style="fill-opacity:1;stroke:#000000;stroke-width:0;stroke-opacity:1"
           d="m 7.578125,-6.921875 c 0,-0.03125 -0.015625,-0.109375 -0.109375,-0.109375 -0.03125,0 -0.046875,0.015625 -0.15625,0.125 L 6.625,-6.140625 C 6.53125,-6.28125 6.078125,-7.03125 4.96875,-7.03125 2.734375,-7.03125 0.5,-4.828125 0.5,-2.515625 0.5,-0.875 1.671875,0.21875 3.203125,0.21875 c 0.859375,0 1.625,-0.390625 2.15625,-0.859375 0.921875,-0.8125 1.09375,-1.71875 1.09375,-1.75 C 6.453125,-2.5 6.34375,-2.5 6.328125,-2.5 c -0.0625,0 -0.109375,0.03125 -0.125,0.109375 -0.09375,0.28125 -0.328125,1 -1.015625,1.578125 -0.6875,0.546875 -1.3125,0.71875 -1.828125,0.71875 -0.890625,0 -1.953125,-0.515625 -1.953125,-2.0625 0,-0.578125 0.203125,-2.1875 1.203125,-3.359375 0.609375,-0.703125 1.546875,-1.203125 2.4375,-1.203125 1.015625,0 1.609375,0.765625 1.609375,1.921875 0,0.40625 -0.03125,0.40625 -0.03125,0.515625 0,0.09375 0.109375,0.09375 0.140625,0.09375 0.125,0 0.125,-0.015625 0.1875,-0.203125 z m 0,0"
           transform="translate(133.768,134.765)"
           id="path2001" />
      </g>
      <g
         style="fill:#000000;fill-opacity:1;stroke:#000000;stroke-opacity:1"
         id="g2007">
        <path
           style="fill-opacity:1;stroke:#000000;stroke-width:0;stroke-opacity:1"
           d="m 1.90625,-2.328125 c 0.546875,0 0.9375,0.375 0.9375,1.125 0,0.859375 -0.515625,1.125 -0.90625,1.125 -0.28125,0 -0.90625,-0.078125 -1.1875,-0.5 0.328125,0 0.40625,-0.234375 0.40625,-0.390625 0,-0.21875 -0.171875,-0.375 -0.390625,-0.375 -0.1875,0 -0.390625,0.125 -0.390625,0.40625 0,0.65625 0.71875,1.078125 1.5625,1.078125 0.96875,0 1.640625,-0.65625 1.640625,-1.34375 0,-0.546875 -0.4375,-1.09375 -1.203125,-1.25 0.71875,-0.265625 0.984375,-0.78125 0.984375,-1.21875 0,-0.546875 -0.625,-0.953125 -1.40625,-0.953125 -0.765625,0 -1.359375,0.375 -1.359375,0.9375 0,0.234375 0.15625,0.359375 0.359375,0.359375 0.21875,0 0.359375,-0.15625 0.359375,-0.34375 0,-0.203125 -0.140625,-0.359375 -0.359375,-0.375 0.25,-0.296875 0.71875,-0.375 0.984375,-0.375 0.3125,0 0.75,0.15625 0.75,0.75 0,0.296875 -0.09375,0.625 -0.28125,0.828125 -0.21875,0.265625 -0.421875,0.28125 -0.765625,0.3125 -0.171875,0.015625 -0.1875,0.015625 -0.21875,0.015625 -0.015625,0 -0.078125,0.015625 -0.078125,0.09375 0,0.09375 0.0625,0.09375 0.1875,0.09375 z m 0,0"
           transform="translate(140.889,136.259)"
           id="path2005" />
      </g>
    </g>
  </g>
  <g
     id="g2154"
     style="fill-opacity:1;stroke:#000000;stroke-opacity:1"
     ns0:jacobian_sqrt="0.443708"
     inkscapeversion="0.92.3"
     ns0:alignment="middle center"
     ns0:scale="2.83464566935"
     ns0:preamble="/home/mpnerem/.config/inkscape/extensions/textext/default_packages.tex"
     ns0:text=" $C_4$"
     ns0:pdfconverter="pdf2svg"
     ns0:texconverter="pdflatex"
     ns0:version="0.11.0"
     transform="matrix(0.443708,0,0,0.443708,6.0513245,-49.951505)">
    <g
       style="fill-opacity:1;stroke:#000000;stroke-opacity:1"
       id="g2152">
      <g
         id="g2146"
         style="fill:#000000;fill-opacity:1;stroke:#000000;stroke-opacity:1">
        <path
           id="path2144"
           transform="translate(133.768,134.765)"
           d="m 7.578125,-6.921875 c 0,-0.03125 -0.015625,-0.109375 -0.109375,-0.109375 -0.03125,0 -0.046875,0.015625 -0.15625,0.125 L 6.625,-6.140625 C 6.53125,-6.28125 6.078125,-7.03125 4.96875,-7.03125 2.734375,-7.03125 0.5,-4.828125 0.5,-2.515625 0.5,-0.875 1.671875,0.21875 3.203125,0.21875 c 0.859375,0 1.625,-0.390625 2.15625,-0.859375 0.921875,-0.8125 1.09375,-1.71875 1.09375,-1.75 C 6.453125,-2.5 6.34375,-2.5 6.328125,-2.5 c -0.0625,0 -0.109375,0.03125 -0.125,0.109375 -0.09375,0.28125 -0.328125,1 -1.015625,1.578125 -0.6875,0.546875 -1.3125,0.71875 -1.828125,0.71875 -0.890625,0 -1.953125,-0.515625 -1.953125,-2.0625 0,-0.578125 0.203125,-2.1875 1.203125,-3.359375 0.609375,-0.703125 1.546875,-1.203125 2.4375,-1.203125 1.015625,0 1.609375,0.765625 1.609375,1.921875 0,0.40625 -0.03125,0.40625 -0.03125,0.515625 0,0.09375 0.109375,0.09375 0.140625,0.09375 0.125,0 0.125,-0.015625 0.1875,-0.203125 z m 0,0"
           style="fill-opacity:1;stroke:#000000;stroke-width:0;stroke-opacity:1" />
      </g>
      <g
         id="g2150"
         style="fill:#000000;fill-opacity:1;stroke:#000000;stroke-opacity:1">
        <path
           id="path2148"
           transform="translate(140.889,136.259)"
           d="m 3.6875,-1.140625 v -0.25 H 2.90625 V -4.5 c 0,-0.140625 0,-0.203125 -0.140625,-0.203125 -0.09375,0 -0.125,0 -0.1875,0.109375 l -2.3125,3.203125 v 0.25 h 2.0625 v 0.5625 c 0,0.25 0,0.328125 -0.578125,0.328125 H 1.5625 V 0 C 1.921875,-0.015625 2.359375,-0.03125 2.609375,-0.03125 2.875,-0.03125 3.3125,-0.015625 3.671875,0 v -0.25 h -0.1875 C 2.90625,-0.25 2.90625,-0.328125 2.90625,-0.578125 v -0.5625 z M 2.375,-3.9375 v 2.546875 H 0.53125 Z m 0,0"
           style="fill-opacity:1;stroke:#000000;stroke-width:0;stroke-opacity:1" />
      </g>
    </g>
  </g>
  <g
     transform="matrix(0.443708,0,0,0.443708,-15.810869,-55.212104)"
     ns0:version="0.11.0"
     ns0:texconverter="pdflatex"
     ns0:pdfconverter="pdf2svg"
     ns0:text=" $C_2$"
     ns0:preamble="/home/mpnerem/.config/inkscape/extensions/textext/default_packages.tex"
     ns0:scale="2.83464566935"
     ns0:alignment="middle center"
     inkscapeversion="0.92.3"
     ns0:jacobian_sqrt="0.443708"
     style="fill-opacity:1;stroke:#000000;stroke-opacity:1"
     id="g2295">
    <g
       id="g2293"
       style="fill-opacity:1;stroke:#000000;stroke-opacity:1">
      <g
         style="fill:#000000;fill-opacity:1;stroke:#000000;stroke-opacity:1"
         id="g2287">
        <path
           inkscape:connector-curvature="0"
           style="fill-opacity:1;stroke:#000000;stroke-width:0;stroke-opacity:1"
           d="m 7.578125,-6.921875 c 0,-0.03125 -0.015625,-0.109375 -0.109375,-0.109375 -0.03125,0 -0.046875,0.015625 -0.15625,0.125 L 6.625,-6.140625 C 6.53125,-6.28125 6.078125,-7.03125 4.96875,-7.03125 2.734375,-7.03125 0.5,-4.828125 0.5,-2.515625 0.5,-0.875 1.671875,0.21875 3.203125,0.21875 c 0.859375,0 1.625,-0.390625 2.15625,-0.859375 0.921875,-0.8125 1.09375,-1.71875 1.09375,-1.75 C 6.453125,-2.5 6.34375,-2.5 6.328125,-2.5 c -0.0625,0 -0.109375,0.03125 -0.125,0.109375 -0.09375,0.28125 -0.328125,1 -1.015625,1.578125 -0.6875,0.546875 -1.3125,0.71875 -1.828125,0.71875 -0.890625,0 -1.953125,-0.515625 -1.953125,-2.0625 0,-0.578125 0.203125,-2.1875 1.203125,-3.359375 0.609375,-0.703125 1.546875,-1.203125 2.4375,-1.203125 1.015625,0 1.609375,0.765625 1.609375,1.921875 0,0.40625 -0.03125,0.40625 -0.03125,0.515625 0,0.09375 0.109375,0.09375 0.140625,0.09375 0.125,0 0.125,-0.015625 0.1875,-0.203125 z m 0,0"
           transform="translate(133.768,134.765)"
           id="path2285" />
      </g>
      <g
         style="fill:#000000;fill-opacity:1;stroke:#000000;stroke-opacity:1"
         id="g2291">
        <path
           inkscape:connector-curvature="0"
           style="fill-opacity:1;stroke:#000000;stroke-width:0;stroke-opacity:1"
           d="M 3.515625,-1.265625 H 3.28125 c -0.015625,0.15625 -0.09375,0.5625 -0.1875,0.625 C 3.046875,-0.59375 2.515625,-0.59375 2.40625,-0.59375 H 1.125 c 0.734375,-0.640625 0.984375,-0.84375 1.390625,-1.171875 0.515625,-0.40625 1,-0.84375 1,-1.5 0,-0.84375 -0.734375,-1.359375 -1.625,-1.359375 -0.859375,0 -1.453125,0.609375 -1.453125,1.25 0,0.34375 0.296875,0.390625 0.375,0.390625 0.15625,0 0.359375,-0.125 0.359375,-0.375 0,-0.125 -0.046875,-0.375 -0.40625,-0.375 C 0.984375,-4.21875 1.453125,-4.375 1.78125,-4.375 c 0.703125,0 1.0625,0.546875 1.0625,1.109375 0,0.609375 -0.4375,1.078125 -0.65625,1.328125 L 0.515625,-0.265625 C 0.4375,-0.203125 0.4375,-0.1875 0.4375,0 h 2.875 z m 0,0"
           transform="translate(140.889,136.259)"
           id="path2289" />
      </g>
    </g>
  </g>
</svg>
